<?xml version="1.0" encoding="UTF-8" standalone="no"?>
<!DOCTYPE svg PUBLIC "-//W3C//DTD SVG 1.1//EN"
 "http://www.w3.org/Graphics/SVG/1.1/DTD/svg11.dtd">
<!-- Generated by graphviz version 2.38.0 (20140413.2041)
 -->
<!-- Title: E:/Dropbox/BI_FIT_CVUT/2. semestr/PA2/GameBook/ActionsList.h Pages: 1 -->
<svg width="1128pt" height="908pt"
 viewBox="0.00 0.00 1128.00 908.00" xmlns="http://www.w3.org/2000/svg" xmlns:xlink="http://www.w3.org/1999/xlink">
<g id="graph0" class="graph" transform="scale(1 1) rotate(0) translate(4 904)">
<title>E:/Dropbox/BI_FIT_CVUT/2. semestr/PA2/GameBook/ActionsList.h</title>
<!-- Node1 -->
<g id="node1" class="node"><title>Node1</title>
<polygon fill="#bfbfbf" stroke="black" points="237,-858.5 237,-899.5 377,-899.5 377,-858.5 237,-858.5"/>
<text text-anchor="start" x="245" y="-887.5" font-family="Helvetica,sans-Serif" font-size="10.00">E:/Dropbox/BI_FIT_CVUT</text>
<text text-anchor="start" x="245" y="-876.5" font-family="Helvetica,sans-Serif" font-size="10.00">/2. semestr/PA2/GameBook</text>
<text text-anchor="middle" x="307" y="-865.5" font-family="Helvetica,sans-Serif" font-size="10.00">/ActionsList.h</text>
</g>
<!-- Node2 -->
<g id="node2" class="node"><title>Node2</title>
<g id="a_node2"><a xlink:href="_display_8h.html" target="_top" xlink:title="E:/Dropbox/BI_FIT_CVUT\l/2. semestr/PA2/GameBook\l/Display.h">
<polygon fill="none" stroke="black" points="360,-702.5 360,-743.5 500,-743.5 500,-702.5 360,-702.5"/>
<text text-anchor="start" x="368" y="-731.5" font-family="Helvetica,sans-Serif" font-size="10.00">E:/Dropbox/BI_FIT_CVUT</text>
<text text-anchor="start" x="368" y="-720.5" font-family="Helvetica,sans-Serif" font-size="10.00">/2. semestr/PA2/GameBook</text>
<text text-anchor="middle" x="430" y="-709.5" font-family="Helvetica,sans-Serif" font-size="10.00">/Display.h</text>
</a>
</g>
</g>
<!-- Node1&#45;&gt;Node2 -->
<g id="edge1" class="edge"><title>Node1&#45;&gt;Node2</title>
<path fill="none" stroke="midnightblue" d="M329.08,-850.355C353.581,-819.679 392.511,-770.937 414.16,-743.832"/>
<polygon fill="midnightblue" stroke="midnightblue" points="326.084,-848.498 322.578,-858.496 331.554,-852.866 326.084,-848.498"/>
</g>
<!-- Node35 -->
<g id="node35" class="node"><title>Node35</title>
<g id="a_node35"><a xlink:href="_game_menus_8h.html" target="_top" xlink:title="E:/Dropbox/BI_FIT_CVUT\l/2. semestr/PA2/GameBook\l/GameMenus.h">
<polygon fill="none" stroke="black" points="164,-780.5 164,-821.5 304,-821.5 304,-780.5 164,-780.5"/>
<text text-anchor="start" x="172" y="-809.5" font-family="Helvetica,sans-Serif" font-size="10.00">E:/Dropbox/BI_FIT_CVUT</text>
<text text-anchor="start" x="172" y="-798.5" font-family="Helvetica,sans-Serif" font-size="10.00">/2. semestr/PA2/GameBook</text>
<text text-anchor="middle" x="234" y="-787.5" font-family="Helvetica,sans-Serif" font-size="10.00">/GameMenus.h</text>
</a>
</g>
</g>
<!-- Node1&#45;&gt;Node35 -->
<g id="edge52" class="edge"><title>Node1&#45;&gt;Node35</title>
<path fill="none" stroke="midnightblue" d="M281.262,-851.204C271.86,-841.416 261.412,-830.539 252.736,-821.506"/>
<polygon fill="midnightblue" stroke="midnightblue" points="278.749,-853.641 288.201,-858.428 283.798,-848.792 278.749,-853.641"/>
</g>
<!-- Node3 -->
<g id="node3" class="node"><title>Node3</title>
<g id="a_node3"><a xlink:href="_item_8h.html" target="_top" xlink:title="E:/Dropbox/BI_FIT_CVUT\l/2. semestr/PA2/GameBook\l/Item.h">
<polygon fill="none" stroke="black" points="632,-624.5 632,-665.5 772,-665.5 772,-624.5 632,-624.5"/>
<text text-anchor="start" x="640" y="-653.5" font-family="Helvetica,sans-Serif" font-size="10.00">E:/Dropbox/BI_FIT_CVUT</text>
<text text-anchor="start" x="640" y="-642.5" font-family="Helvetica,sans-Serif" font-size="10.00">/2. semestr/PA2/GameBook</text>
<text text-anchor="middle" x="702" y="-631.5" font-family="Helvetica,sans-Serif" font-size="10.00">/Item.h</text>
</a>
</g>
</g>
<!-- Node2&#45;&gt;Node3 -->
<g id="edge2" class="edge"><title>Node2&#45;&gt;Node3</title>
<path fill="none" stroke="midnightblue" d="M509.745,-699.718C548.557,-688.874 594.79,-675.956 632.191,-665.506"/>
<polygon fill="midnightblue" stroke="midnightblue" points="508.736,-696.366 500.047,-702.428 510.62,-703.108 508.736,-696.366"/>
</g>
<!-- Node6 -->
<g id="node6" class="node"><title>Node6</title>
<g id="a_node6"><a xlink:href="_hero_8h.html" target="_top" xlink:title="E:/Dropbox/BI_FIT_CVUT\l/2. semestr/PA2/GameBook\l/Hero.h">
<polygon fill="none" stroke="black" points="577,-468.5 577,-509.5 717,-509.5 717,-468.5 577,-468.5"/>
<text text-anchor="start" x="585" y="-497.5" font-family="Helvetica,sans-Serif" font-size="10.00">E:/Dropbox/BI_FIT_CVUT</text>
<text text-anchor="start" x="585" y="-486.5" font-family="Helvetica,sans-Serif" font-size="10.00">/2. semestr/PA2/GameBook</text>
<text text-anchor="middle" x="647" y="-475.5" font-family="Helvetica,sans-Serif" font-size="10.00">/Hero.h</text>
</a>
</g>
</g>
<!-- Node2&#45;&gt;Node6 -->
<g id="edge50" class="edge"><title>Node2&#45;&gt;Node6</title>
<path fill="none" stroke="midnightblue" d="M459.071,-695.131C467.296,-686.433 475.71,-676.347 482,-666 511.43,-617.59 486.704,-587.75 525,-546 539.73,-529.942 559.974,-518.144 579.74,-509.635"/>
<polygon fill="midnightblue" stroke="midnightblue" points="456.456,-692.798 451.951,-702.387 461.453,-697.701 456.456,-692.798"/>
</g>
<!-- Node7 -->
<g id="node7" class="node"><title>Node7</title>
<g id="a_node7"><a xlink:href="_event_8h.html" target="_top" xlink:title="E:/Dropbox/BI_FIT_CVUT\l/2. semestr/PA2/GameBook\l/Event.h">
<polygon fill="none" stroke="black" points="406,-390.5 406,-431.5 546,-431.5 546,-390.5 406,-390.5"/>
<text text-anchor="start" x="414" y="-419.5" font-family="Helvetica,sans-Serif" font-size="10.00">E:/Dropbox/BI_FIT_CVUT</text>
<text text-anchor="start" x="414" y="-408.5" font-family="Helvetica,sans-Serif" font-size="10.00">/2. semestr/PA2/GameBook</text>
<text text-anchor="middle" x="476" y="-397.5" font-family="Helvetica,sans-Serif" font-size="10.00">/Event.h</text>
</a>
</g>
</g>
<!-- Node2&#45;&gt;Node7 -->
<g id="edge45" class="edge"><title>Node2&#45;&gt;Node7</title>
<path fill="none" stroke="midnightblue" d="M434.442,-692.063C443.785,-629.099 465.251,-484.437 473.077,-431.698"/>
<polygon fill="midnightblue" stroke="midnightblue" points="430.953,-691.731 432.947,-702.137 437.877,-692.759 430.953,-691.731"/>
</g>
<!-- Node32 -->
<g id="node32" class="node"><title>Node32</title>
<g id="a_node32"><a xlink:href="_creature_8h.html" target="_top" xlink:title="E:/Dropbox/BI_FIT_CVUT\l/2. semestr/PA2/GameBook\l/Creature.h">
<polygon fill="none" stroke="black" points="300,-546.5 300,-587.5 440,-587.5 440,-546.5 300,-546.5"/>
<text text-anchor="start" x="308" y="-575.5" font-family="Helvetica,sans-Serif" font-size="10.00">E:/Dropbox/BI_FIT_CVUT</text>
<text text-anchor="start" x="308" y="-564.5" font-family="Helvetica,sans-Serif" font-size="10.00">/2. semestr/PA2/GameBook</text>
<text text-anchor="middle" x="370" y="-553.5" font-family="Helvetica,sans-Serif" font-size="10.00">/Creature.h</text>
</a>
</g>
</g>
<!-- Node2&#45;&gt;Node32 -->
<g id="edge46" class="edge"><title>Node2&#45;&gt;Node32</title>
<path fill="none" stroke="midnightblue" d="M427.677,-692.404C425.298,-672.419 420.524,-645.81 411,-624 405.262,-610.86 395.999,-597.835 387.728,-587.658"/>
<polygon fill="midnightblue" stroke="midnightblue" points="424.209,-692.895 428.741,-702.471 431.17,-692.159 424.209,-692.895"/>
</g>
<!-- Node34 -->
<g id="node34" class="node"><title>Node34</title>
<g id="a_node34"><a xlink:href="_display_8cpp.html" target="_top" xlink:title="E:/Dropbox/BI_FIT_CVUT\l/2. semestr/PA2/GameBook\l/Display.cpp">
<polygon fill="none" stroke="black" points="262,-624.5 262,-665.5 402,-665.5 402,-624.5 262,-624.5"/>
<text text-anchor="start" x="270" y="-653.5" font-family="Helvetica,sans-Serif" font-size="10.00">E:/Dropbox/BI_FIT_CVUT</text>
<text text-anchor="start" x="270" y="-642.5" font-family="Helvetica,sans-Serif" font-size="10.00">/2. semestr/PA2/GameBook</text>
<text text-anchor="middle" x="332" y="-631.5" font-family="Helvetica,sans-Serif" font-size="10.00">/Display.cpp</text>
</a>
</g>
</g>
<!-- Node2&#45;&gt;Node34 -->
<g id="edge51" class="edge"><title>Node2&#45;&gt;Node34</title>
<path fill="none" stroke="midnightblue" d="M396.557,-696.065C383.653,-686.057 369.143,-674.804 357.152,-665.506"/>
<polygon fill="midnightblue" stroke="midnightblue" points="394.715,-699.066 404.763,-702.428 399.005,-693.534 394.715,-699.066"/>
</g>
<!-- Node4 -->
<g id="node4" class="node"><title>Node4</title>
<g id="a_node4"><a xlink:href="_armour_8h.html" target="_top" xlink:title="E:/Dropbox/BI_FIT_CVUT\l/2. semestr/PA2/GameBook\l/Armour.h">
<polygon fill="none" stroke="black" points="888,-546.5 888,-587.5 1028,-587.5 1028,-546.5 888,-546.5"/>
<text text-anchor="start" x="896" y="-575.5" font-family="Helvetica,sans-Serif" font-size="10.00">E:/Dropbox/BI_FIT_CVUT</text>
<text text-anchor="start" x="896" y="-564.5" font-family="Helvetica,sans-Serif" font-size="10.00">/2. semestr/PA2/GameBook</text>
<text text-anchor="middle" x="958" y="-553.5" font-family="Helvetica,sans-Serif" font-size="10.00">/Armour.h</text>
</a>
</g>
</g>
<!-- Node3&#45;&gt;Node4 -->
<g id="edge3" class="edge"><title>Node3&#45;&gt;Node4</title>
<path fill="none" stroke="midnightblue" d="M777.518,-621.58C813.952,-610.764 857.246,-597.911 892.297,-587.506"/>
<polygon fill="midnightblue" stroke="midnightblue" points="776.517,-618.227 767.926,-624.428 778.509,-624.937 776.517,-618.227"/>
</g>
<!-- Node3&#45;&gt;Node6 -->
<g id="edge43" class="edge"><title>Node3&#45;&gt;Node6</title>
<path fill="none" stroke="midnightblue" d="M699.2,-614.215C696.621,-594.35 691.804,-567.952 683,-546 677.837,-533.127 669.604,-520.018 662.314,-509.722"/>
<polygon fill="midnightblue" stroke="midnightblue" points="695.734,-614.708 700.383,-624.228 702.685,-613.887 695.734,-614.708"/>
</g>
<!-- Node29 -->
<g id="node29" class="node"><title>Node29</title>
<g id="a_node29"><a xlink:href="_sword_8h.html" target="_top" xlink:title="E:/Dropbox/BI_FIT_CVUT\l/2. semestr/PA2/GameBook\l/Sword.h">
<polygon fill="none" stroke="black" points="730,-546.5 730,-587.5 870,-587.5 870,-546.5 730,-546.5"/>
<text text-anchor="start" x="738" y="-575.5" font-family="Helvetica,sans-Serif" font-size="10.00">E:/Dropbox/BI_FIT_CVUT</text>
<text text-anchor="start" x="738" y="-564.5" font-family="Helvetica,sans-Serif" font-size="10.00">/2. semestr/PA2/GameBook</text>
<text text-anchor="middle" x="800" y="-553.5" font-family="Helvetica,sans-Serif" font-size="10.00">/Sword.h</text>
</a>
</g>
</g>
<!-- Node3&#45;&gt;Node29 -->
<g id="edge39" class="edge"><title>Node3&#45;&gt;Node29</title>
<path fill="none" stroke="midnightblue" d="M735.443,-618.065C748.347,-608.057 762.857,-596.804 774.848,-587.506"/>
<polygon fill="midnightblue" stroke="midnightblue" points="732.995,-615.534 727.237,-624.428 737.285,-621.066 732.995,-615.534"/>
</g>
<!-- Node31 -->
<g id="node31" class="node"><title>Node31</title>
<g id="a_node31"><a xlink:href="_item_8cpp.html" target="_top" xlink:title="E:/Dropbox/BI_FIT_CVUT\l/2. semestr/PA2/GameBook\l/Item.cpp">
<polygon fill="none" stroke="black" points="534,-546.5 534,-587.5 674,-587.5 674,-546.5 534,-546.5"/>
<text text-anchor="start" x="542" y="-575.5" font-family="Helvetica,sans-Serif" font-size="10.00">E:/Dropbox/BI_FIT_CVUT</text>
<text text-anchor="start" x="542" y="-564.5" font-family="Helvetica,sans-Serif" font-size="10.00">/2. semestr/PA2/GameBook</text>
<text text-anchor="middle" x="604" y="-553.5" font-family="Helvetica,sans-Serif" font-size="10.00">/Item.cpp</text>
</a>
</g>
</g>
<!-- Node3&#45;&gt;Node31 -->
<g id="edge44" class="edge"><title>Node3&#45;&gt;Node31</title>
<path fill="none" stroke="midnightblue" d="M668.557,-618.065C655.653,-608.057 641.143,-596.804 629.152,-587.506"/>
<polygon fill="midnightblue" stroke="midnightblue" points="666.715,-621.066 676.763,-624.428 671.005,-615.534 666.715,-621.066"/>
</g>
<!-- Node5 -->
<g id="node5" class="node"><title>Node5</title>
<g id="a_node5"><a xlink:href="_armour_8cpp.html" target="_top" xlink:title="E:/Dropbox/BI_FIT_CVUT\l/2. semestr/PA2/GameBook\l/Armour.cpp">
<polygon fill="none" stroke="black" points="980,-468.5 980,-509.5 1120,-509.5 1120,-468.5 980,-468.5"/>
<text text-anchor="start" x="988" y="-497.5" font-family="Helvetica,sans-Serif" font-size="10.00">E:/Dropbox/BI_FIT_CVUT</text>
<text text-anchor="start" x="988" y="-486.5" font-family="Helvetica,sans-Serif" font-size="10.00">/2. semestr/PA2/GameBook</text>
<text text-anchor="middle" x="1050" y="-475.5" font-family="Helvetica,sans-Serif" font-size="10.00">/Armour.cpp</text>
</a>
</g>
</g>
<!-- Node4&#45;&gt;Node5 -->
<g id="edge4" class="edge"><title>Node4&#45;&gt;Node5</title>
<path fill="none" stroke="midnightblue" d="M989.742,-539.779C1001.77,-529.843 1015.24,-518.716 1026.39,-509.506"/>
<polygon fill="midnightblue" stroke="midnightblue" points="987.173,-537.361 981.692,-546.428 991.631,-542.758 987.173,-537.361"/>
</g>
<!-- Node4&#45;&gt;Node6 -->
<g id="edge5" class="edge"><title>Node4&#45;&gt;Node6</title>
<path fill="none" stroke="midnightblue" d="M877.822,-545.732C809.483,-529.143 790.814,-525.828 726,-510 723.114,-509.295 720.169,-508.571 717.196,-507.836"/>
<polygon fill="midnightblue" stroke="midnightblue" points="877.26,-549.197 887.804,-548.164 878.916,-542.396 877.26,-549.197"/>
</g>
<!-- Node10 -->
<g id="node10" class="node"><title>Node10</title>
<g id="a_node10"><a xlink:href="_world_8h.html" target="_top" xlink:title="E:/Dropbox/BI_FIT_CVUT\l/2. semestr/PA2/GameBook\l/World.h">
<polygon fill="none" stroke="black" points="550,-234.5 550,-275.5 690,-275.5 690,-234.5 550,-234.5"/>
<text text-anchor="start" x="558" y="-263.5" font-family="Helvetica,sans-Serif" font-size="10.00">E:/Dropbox/BI_FIT_CVUT</text>
<text text-anchor="start" x="558" y="-252.5" font-family="Helvetica,sans-Serif" font-size="10.00">/2. semestr/PA2/GameBook</text>
<text text-anchor="middle" x="620" y="-241.5" font-family="Helvetica,sans-Serif" font-size="10.00">/World.h</text>
</a>
</g>
</g>
<!-- Node4&#45;&gt;Node10 -->
<g id="edge38" class="edge"><title>Node4&#45;&gt;Node10</title>
<path fill="none" stroke="midnightblue" d="M959.264,-535.949C959.736,-481.795 952.121,-368.238 885,-312 820.459,-257.924 781.179,-294.34 699,-276 696.1,-275.353 693.145,-274.677 690.162,-273.982"/>
<polygon fill="midnightblue" stroke="midnightblue" points="955.759,-536.194 959.068,-546.258 962.758,-536.327 955.759,-536.194"/>
</g>
<!-- Node6&#45;&gt;Node7 -->
<g id="edge6" class="edge"><title>Node6&#45;&gt;Node7</title>
<path fill="none" stroke="midnightblue" d="M593.74,-464.329C570.013,-453.783 542.404,-441.513 519.888,-431.506"/>
<polygon fill="midnightblue" stroke="midnightblue" points="592.404,-467.565 602.963,-468.428 595.247,-461.168 592.404,-467.565"/>
</g>
<!-- Node14 -->
<g id="node14" class="node"><title>Node14</title>
<g id="a_node14"><a xlink:href="_shopping_8h.html" target="_top" xlink:title="E:/Dropbox/BI_FIT_CVUT\l/2. semestr/PA2/GameBook\l/Shopping.h">
<polygon fill="none" stroke="black" points="328,-156.5 328,-197.5 468,-197.5 468,-156.5 328,-156.5"/>
<text text-anchor="start" x="336" y="-185.5" font-family="Helvetica,sans-Serif" font-size="10.00">E:/Dropbox/BI_FIT_CVUT</text>
<text text-anchor="start" x="336" y="-174.5" font-family="Helvetica,sans-Serif" font-size="10.00">/2. semestr/PA2/GameBook</text>
<text text-anchor="middle" x="398" y="-163.5" font-family="Helvetica,sans-Serif" font-size="10.00">/Shopping.h</text>
</a>
</g>
</g>
<!-- Node6&#45;&gt;Node14 -->
<g id="edge34" class="edge"><title>Node6&#45;&gt;Node14</title>
<path fill="none" stroke="midnightblue" d="M566.558,-476.745C446.649,-458.075 230.431,-416.461 187,-354 156.553,-310.212 154.482,-276.274 187,-234 204.273,-211.545 273.331,-196.218 327.799,-187.353"/>
<polygon fill="midnightblue" stroke="midnightblue" points="566.375,-480.258 576.791,-478.319 567.439,-473.339 566.375,-480.258"/>
</g>
<!-- Node16 -->
<g id="node16" class="node"><title>Node16</title>
<g id="a_node16"><a xlink:href="_inventory_browser_8h.html" target="_top" xlink:title="E:/Dropbox/BI_FIT_CVUT\l/2. semestr/PA2/GameBook\l/InventoryBrowser.h">
<polygon fill="none" stroke="black" points="712,-156.5 712,-197.5 852,-197.5 852,-156.5 712,-156.5"/>
<text text-anchor="start" x="720" y="-185.5" font-family="Helvetica,sans-Serif" font-size="10.00">E:/Dropbox/BI_FIT_CVUT</text>
<text text-anchor="start" x="720" y="-174.5" font-family="Helvetica,sans-Serif" font-size="10.00">/2. semestr/PA2/GameBook</text>
<text text-anchor="middle" x="782" y="-163.5" font-family="Helvetica,sans-Serif" font-size="10.00">/InventoryBrowser.h</text>
</a>
</g>
</g>
<!-- Node6&#45;&gt;Node16 -->
<g id="edge35" class="edge"><title>Node6&#45;&gt;Node16</title>
<path fill="none" stroke="midnightblue" d="M715.978,-464.539C764.999,-443.821 827.218,-408.333 857,-354 882.636,-307.232 880.902,-281.677 857,-234 849.353,-218.747 835.362,-206.585 821.517,-197.545"/>
<polygon fill="midnightblue" stroke="midnightblue" points="714.595,-461.323 706.676,-468.362 717.256,-467.798 714.595,-461.323"/>
</g>
<!-- Node18 -->
<g id="node18" class="node"><title>Node18</title>
<g id="a_node18"><a xlink:href="_interact_8h.html" target="_top" xlink:title="E:/Dropbox/BI_FIT_CVUT\l/2. semestr/PA2/GameBook\l/Interact.h">
<polygon fill="none" stroke="black" points="885,-156.5 885,-197.5 1025,-197.5 1025,-156.5 885,-156.5"/>
<text text-anchor="start" x="893" y="-185.5" font-family="Helvetica,sans-Serif" font-size="10.00">E:/Dropbox/BI_FIT_CVUT</text>
<text text-anchor="start" x="893" y="-174.5" font-family="Helvetica,sans-Serif" font-size="10.00">/2. semestr/PA2/GameBook</text>
<text text-anchor="middle" x="955" y="-163.5" font-family="Helvetica,sans-Serif" font-size="10.00">/Interact.h</text>
</a>
</g>
</g>
<!-- Node6&#45;&gt;Node18 -->
<g id="edge36" class="edge"><title>Node6&#45;&gt;Node18</title>
<path fill="none" stroke="midnightblue" d="M726.777,-466.473C763.233,-455.687 801.672,-442.683 817,-432 901.196,-373.316 938.937,-246.305 950.715,-197.578"/>
<polygon fill="midnightblue" stroke="midnightblue" points="725.687,-463.145 717.069,-469.308 727.649,-469.865 725.687,-463.145"/>
</g>
<!-- Node28 -->
<g id="node28" class="node"><title>Node28</title>
<g id="a_node28"><a xlink:href="_hero_8cpp.html" target="_top" xlink:title="E:/Dropbox/BI_FIT_CVUT\l/2. semestr/PA2/GameBook\l/Hero.cpp">
<polygon fill="none" stroke="black" points="577,-390.5 577,-431.5 717,-431.5 717,-390.5 577,-390.5"/>
<text text-anchor="start" x="585" y="-419.5" font-family="Helvetica,sans-Serif" font-size="10.00">E:/Dropbox/BI_FIT_CVUT</text>
<text text-anchor="start" x="585" y="-408.5" font-family="Helvetica,sans-Serif" font-size="10.00">/2. semestr/PA2/GameBook</text>
<text text-anchor="middle" x="647" y="-397.5" font-family="Helvetica,sans-Serif" font-size="10.00">/Hero.cpp</text>
</a>
</g>
</g>
<!-- Node6&#45;&gt;Node28 -->
<g id="edge37" class="edge"><title>Node6&#45;&gt;Node28</title>
<path fill="none" stroke="midnightblue" d="M647,-458.297C647,-449.301 647,-439.653 647,-431.506"/>
<polygon fill="midnightblue" stroke="midnightblue" points="643.5,-458.428 647,-468.428 650.5,-458.428 643.5,-458.428"/>
</g>
<!-- Node8 -->
<g id="node8" class="node"><title>Node8</title>
<g id="a_node8"><a xlink:href="_choice_8h.html" target="_top" xlink:title="E:/Dropbox/BI_FIT_CVUT\l/2. semestr/PA2/GameBook\l/Choice.h">
<polygon fill="none" stroke="black" points="196,-312.5 196,-353.5 336,-353.5 336,-312.5 196,-312.5"/>
<text text-anchor="start" x="204" y="-341.5" font-family="Helvetica,sans-Serif" font-size="10.00">E:/Dropbox/BI_FIT_CVUT</text>
<text text-anchor="start" x="204" y="-330.5" font-family="Helvetica,sans-Serif" font-size="10.00">/2. semestr/PA2/GameBook</text>
<text text-anchor="middle" x="266" y="-319.5" font-family="Helvetica,sans-Serif" font-size="10.00">/Choice.h</text>
</a>
</g>
</g>
<!-- Node7&#45;&gt;Node8 -->
<g id="edge7" class="edge"><title>Node7&#45;&gt;Node8</title>
<path fill="none" stroke="midnightblue" d="M412.136,-386.887C382.656,-376.219 348.038,-363.69 319.897,-353.506"/>
<polygon fill="midnightblue" stroke="midnightblue" points="411.326,-390.316 421.92,-390.428 413.708,-383.734 411.326,-390.316"/>
</g>
<!-- Node7&#45;&gt;Node10 -->
<g id="edge30" class="edge"><title>Node7&#45;&gt;Node10</title>
<path fill="none" stroke="midnightblue" d="M556.011,-390.491C602.892,-378.253 654.232,-363.12 661,-354 678.915,-329.859 657.394,-296.73 639.394,-275.845"/>
<polygon fill="midnightblue" stroke="midnightblue" points="554.898,-387.163 546.092,-393.055 556.65,-393.941 554.898,-387.163"/>
</g>
<!-- Node21 -->
<g id="node21" class="node"><title>Node21</title>
<g id="a_node21"><a xlink:href="_dialogue_n_c_p_8h.html" target="_top" xlink:title="E:/Dropbox/BI_FIT_CVUT\l/2. semestr/PA2/GameBook\l/DialogueNCP.h">
<polygon fill="none" stroke="black" points="708,-312.5 708,-353.5 848,-353.5 848,-312.5 708,-312.5"/>
<text text-anchor="start" x="716" y="-341.5" font-family="Helvetica,sans-Serif" font-size="10.00">E:/Dropbox/BI_FIT_CVUT</text>
<text text-anchor="start" x="716" y="-330.5" font-family="Helvetica,sans-Serif" font-size="10.00">/2. semestr/PA2/GameBook</text>
<text text-anchor="middle" x="778" y="-319.5" font-family="Helvetica,sans-Serif" font-size="10.00">/DialogueNCP.h</text>
</a>
</g>
</g>
<!-- Node7&#45;&gt;Node21 -->
<g id="edge23" class="edge"><title>Node7&#45;&gt;Node21</title>
<path fill="none" stroke="midnightblue" d="M555.93,-389.885C603.156,-378 662.398,-363.092 707.813,-351.663"/>
<polygon fill="midnightblue" stroke="midnightblue" points="554.887,-386.538 546.044,-392.373 556.596,-393.327 554.887,-386.538"/>
</g>
<!-- Node23 -->
<g id="node23" class="node"><title>Node23</title>
<g id="a_node23"><a xlink:href="_event_8cpp.html" target="_top" xlink:title="E:/Dropbox/BI_FIT_CVUT\l/2. semestr/PA2/GameBook\l/Event.cpp">
<polygon fill="none" stroke="black" points="354,-312.5 354,-353.5 494,-353.5 494,-312.5 354,-312.5"/>
<text text-anchor="start" x="362" y="-341.5" font-family="Helvetica,sans-Serif" font-size="10.00">E:/Dropbox/BI_FIT_CVUT</text>
<text text-anchor="start" x="362" y="-330.5" font-family="Helvetica,sans-Serif" font-size="10.00">/2. semestr/PA2/GameBook</text>
<text text-anchor="middle" x="424" y="-319.5" font-family="Helvetica,sans-Serif" font-size="10.00">/Event.cpp</text>
</a>
</g>
</g>
<!-- Node7&#45;&gt;Node23 -->
<g id="edge26" class="edge"><title>Node7&#45;&gt;Node23</title>
<path fill="none" stroke="midnightblue" d="M456.875,-382.048C450.387,-372.566 443.284,-362.185 437.346,-353.506"/>
<polygon fill="midnightblue" stroke="midnightblue" points="454.073,-384.151 462.609,-390.428 459.85,-380.199 454.073,-384.151"/>
</g>
<!-- Node24 -->
<g id="node24" class="node"><title>Node24</title>
<g id="a_node24"><a xlink:href="_fight_8h.html" target="_top" xlink:title="E:/Dropbox/BI_FIT_CVUT\l/2. semestr/PA2/GameBook\l/Fight.h">
<polygon fill="none" stroke="black" points="0,-312.5 0,-353.5 140,-353.5 140,-312.5 0,-312.5"/>
<text text-anchor="start" x="8" y="-341.5" font-family="Helvetica,sans-Serif" font-size="10.00">E:/Dropbox/BI_FIT_CVUT</text>
<text text-anchor="start" x="8" y="-330.5" font-family="Helvetica,sans-Serif" font-size="10.00">/2. semestr/PA2/GameBook</text>
<text text-anchor="middle" x="70" y="-319.5" font-family="Helvetica,sans-Serif" font-size="10.00">/Fight.h</text>
</a>
</g>
</g>
<!-- Node7&#45;&gt;Node24 -->
<g id="edge27" class="edge"><title>Node7&#45;&gt;Node24</title>
<path fill="none" stroke="midnightblue" d="M395.462,-394.924C320.889,-380.964 211.108,-360.414 140.076,-347.118"/>
<polygon fill="midnightblue" stroke="midnightblue" points="395.27,-398.449 405.744,-396.849 396.558,-391.568 395.27,-398.449"/>
</g>
<!-- Node26 -->
<g id="node26" class="node"><title>Node26</title>
<g id="a_node26"><a xlink:href="_trap_8h.html" target="_top" xlink:title="E:/Dropbox/BI_FIT_CVUT\l/2. semestr/PA2/GameBook\l/Trap.h">
<polygon fill="none" stroke="black" points="512,-312.5 512,-353.5 652,-353.5 652,-312.5 512,-312.5"/>
<text text-anchor="start" x="520" y="-341.5" font-family="Helvetica,sans-Serif" font-size="10.00">E:/Dropbox/BI_FIT_CVUT</text>
<text text-anchor="start" x="520" y="-330.5" font-family="Helvetica,sans-Serif" font-size="10.00">/2. semestr/PA2/GameBook</text>
<text text-anchor="middle" x="582" y="-319.5" font-family="Helvetica,sans-Serif" font-size="10.00">/Trap.h</text>
</a>
</g>
</g>
<!-- Node7&#45;&gt;Node26 -->
<g id="edge31" class="edge"><title>Node7&#45;&gt;Node26</title>
<path fill="none" stroke="midnightblue" d="M511.775,-384.35C525.831,-374.272 541.702,-362.893 554.795,-353.506"/>
<polygon fill="midnightblue" stroke="midnightblue" points="509.385,-381.757 503.298,-390.428 513.464,-387.446 509.385,-381.757"/>
</g>
<!-- Node9 -->
<g id="node9" class="node"><title>Node9</title>
<g id="a_node9"><a xlink:href="_choice_8cpp.html" target="_top" xlink:title="E:/Dropbox/BI_FIT_CVUT\l/2. semestr/PA2/GameBook\l/Choice.cpp">
<polygon fill="none" stroke="black" points="196,-234.5 196,-275.5 336,-275.5 336,-234.5 196,-234.5"/>
<text text-anchor="start" x="204" y="-263.5" font-family="Helvetica,sans-Serif" font-size="10.00">E:/Dropbox/BI_FIT_CVUT</text>
<text text-anchor="start" x="204" y="-252.5" font-family="Helvetica,sans-Serif" font-size="10.00">/2. semestr/PA2/GameBook</text>
<text text-anchor="middle" x="266" y="-241.5" font-family="Helvetica,sans-Serif" font-size="10.00">/Choice.cpp</text>
</a>
</g>
</g>
<!-- Node8&#45;&gt;Node9 -->
<g id="edge8" class="edge"><title>Node8&#45;&gt;Node9</title>
<path fill="none" stroke="midnightblue" d="M266,-302.297C266,-293.301 266,-283.653 266,-275.506"/>
<polygon fill="midnightblue" stroke="midnightblue" points="262.5,-302.428 266,-312.428 269.5,-302.428 262.5,-302.428"/>
</g>
<!-- Node8&#45;&gt;Node10 -->
<g id="edge9" class="edge"><title>Node8&#45;&gt;Node10</title>
<path fill="none" stroke="midnightblue" d="M345.951,-311.864C433.224,-293.219 457.509,-294.215 541,-276 543.903,-275.367 546.861,-274.703 549.846,-274.017"/>
<polygon fill="midnightblue" stroke="midnightblue" points="345.189,-308.448 336.154,-313.983 346.668,-315.29 345.189,-308.448"/>
</g>
<!-- Node11 -->
<g id="node11" class="node"><title>Node11</title>
<g id="a_node11"><a xlink:href="_game_8h.html" target="_top" xlink:title="E:/Dropbox/BI_FIT_CVUT\l/2. semestr/PA2/GameBook\l/Game.h">
<polygon fill="none" stroke="black" points="569,-78.5 569,-119.5 709,-119.5 709,-78.5 569,-78.5"/>
<text text-anchor="start" x="577" y="-107.5" font-family="Helvetica,sans-Serif" font-size="10.00">E:/Dropbox/BI_FIT_CVUT</text>
<text text-anchor="start" x="577" y="-96.5" font-family="Helvetica,sans-Serif" font-size="10.00">/2. semestr/PA2/GameBook</text>
<text text-anchor="middle" x="639" y="-85.5" font-family="Helvetica,sans-Serif" font-size="10.00">/Game.h</text>
</a>
</g>
</g>
<!-- Node10&#45;&gt;Node11 -->
<g id="edge10" class="edge"><title>Node10&#45;&gt;Node11</title>
<path fill="none" stroke="midnightblue" d="M629.22,-224.454C631.503,-215.992 633.674,-206.701 635,-198 639.105,-171.066 639.641,-139.518 639.466,-119.645"/>
<polygon fill="midnightblue" stroke="midnightblue" points="625.798,-223.694 626.429,-234.27 632.531,-225.609 625.798,-223.694"/>
</g>
<!-- Node10&#45;&gt;Node14 -->
<g id="edge13" class="edge"><title>Node10&#45;&gt;Node14</title>
<path fill="none" stroke="midnightblue" d="M553.298,-231.165C521.96,-220.437 484.985,-207.779 454.977,-197.506"/>
<polygon fill="midnightblue" stroke="midnightblue" points="552.235,-234.5 562.829,-234.428 554.502,-227.878 552.235,-234.5"/>
</g>
<!-- Node10&#45;&gt;Node16 -->
<g id="edge16" class="edge"><title>Node10&#45;&gt;Node16</title>
<path fill="none" stroke="midnightblue" d="M671.054,-230.049C693.398,-219.566 719.28,-207.424 740.422,-197.506"/>
<polygon fill="midnightblue" stroke="midnightblue" points="669.286,-227.012 661.719,-234.428 672.259,-233.349 669.286,-227.012"/>
</g>
<!-- Node10&#45;&gt;Node18 -->
<g id="edge19" class="edge"><title>Node10&#45;&gt;Node18</title>
<path fill="none" stroke="midnightblue" d="M699.987,-233.812C745.896,-223.167 826.047,-205.76 884.746,-193.099"/>
<polygon fill="midnightblue" stroke="midnightblue" points="699.122,-230.42 690.182,-236.106 700.717,-237.235 699.122,-230.42"/>
</g>
<!-- Node20 -->
<g id="node20" class="node"><title>Node20</title>
<g id="a_node20"><a xlink:href="_world_8cpp.html" target="_top" xlink:title="E:/Dropbox/BI_FIT_CVUT\l/2. semestr/PA2/GameBook\l/World.cpp">
<polygon fill="none" stroke="black" points="486,-156.5 486,-197.5 626,-197.5 626,-156.5 486,-156.5"/>
<text text-anchor="start" x="494" y="-185.5" font-family="Helvetica,sans-Serif" font-size="10.00">E:/Dropbox/BI_FIT_CVUT</text>
<text text-anchor="start" x="494" y="-174.5" font-family="Helvetica,sans-Serif" font-size="10.00">/2. semestr/PA2/GameBook</text>
<text text-anchor="middle" x="556" y="-163.5" font-family="Helvetica,sans-Serif" font-size="10.00">/World.cpp</text>
</a>
</g>
</g>
<!-- Node10&#45;&gt;Node20 -->
<g id="edge22" class="edge"><title>Node10&#45;&gt;Node20</title>
<path fill="none" stroke="midnightblue" d="M596.949,-226.627C588.834,-216.99 579.883,-206.362 572.426,-197.506"/>
<polygon fill="midnightblue" stroke="midnightblue" points="594.4,-229.033 603.518,-234.428 599.754,-224.524 594.4,-229.033"/>
</g>
<!-- Node12 -->
<g id="node12" class="node"><title>Node12</title>
<g id="a_node12"><a xlink:href="_game_8cpp.html" target="_top" xlink:title="E:/Dropbox/BI_FIT_CVUT\l/2. semestr/PA2/GameBook\l/Game.cpp">
<polygon fill="none" stroke="black" points="490,-0.5 490,-41.5 630,-41.5 630,-0.5 490,-0.5"/>
<text text-anchor="start" x="498" y="-29.5" font-family="Helvetica,sans-Serif" font-size="10.00">E:/Dropbox/BI_FIT_CVUT</text>
<text text-anchor="start" x="498" y="-18.5" font-family="Helvetica,sans-Serif" font-size="10.00">/2. semestr/PA2/GameBook</text>
<text text-anchor="middle" x="560" y="-7.5" font-family="Helvetica,sans-Serif" font-size="10.00">/Game.cpp</text>
</a>
</g>
</g>
<!-- Node11&#45;&gt;Node12 -->
<g id="edge11" class="edge"><title>Node11&#45;&gt;Node12</title>
<path fill="none" stroke="midnightblue" d="M611.445,-71.4916C601.194,-61.6294 589.757,-50.6273 580.276,-41.5056"/>
<polygon fill="midnightblue" stroke="midnightblue" points="609.022,-74.0175 618.656,-78.4281 613.875,-68.9729 609.022,-74.0175"/>
</g>
<!-- Node13 -->
<g id="node13" class="node"><title>Node13</title>
<g id="a_node13"><a xlink:href="main_8cpp.html" target="_top" xlink:title="E:/Dropbox/BI_FIT_CVUT\l/2. semestr/PA2/GameBook\l/main.cpp">
<polygon fill="none" stroke="black" points="648,-0.5 648,-41.5 788,-41.5 788,-0.5 648,-0.5"/>
<text text-anchor="start" x="656" y="-29.5" font-family="Helvetica,sans-Serif" font-size="10.00">E:/Dropbox/BI_FIT_CVUT</text>
<text text-anchor="start" x="656" y="-18.5" font-family="Helvetica,sans-Serif" font-size="10.00">/2. semestr/PA2/GameBook</text>
<text text-anchor="middle" x="718" y="-7.5" font-family="Helvetica,sans-Serif" font-size="10.00">/main.cpp</text>
</a>
</g>
</g>
<!-- Node11&#45;&gt;Node13 -->
<g id="edge12" class="edge"><title>Node11&#45;&gt;Node13</title>
<path fill="none" stroke="midnightblue" d="M666.555,-71.4916C676.806,-61.6294 688.243,-50.6273 697.724,-41.5056"/>
<polygon fill="midnightblue" stroke="midnightblue" points="664.125,-68.9729 659.344,-78.4281 668.978,-74.0175 664.125,-68.9729"/>
</g>
<!-- Node14&#45;&gt;Node11 -->
<g id="edge14" class="edge"><title>Node14&#45;&gt;Node11</title>
<path fill="none" stroke="midnightblue" d="M469.971,-153.304C504.085,-142.546 544.43,-129.823 577.147,-119.506"/>
<polygon fill="midnightblue" stroke="midnightblue" points="468.548,-150.083 460.063,-156.428 470.653,-156.758 468.548,-150.083"/>
</g>
<!-- Node15 -->
<g id="node15" class="node"><title>Node15</title>
<g id="a_node15"><a xlink:href="_shopping_8cpp.html" target="_top" xlink:title="E:/Dropbox/BI_FIT_CVUT\l/2. semestr/PA2/GameBook\l/Shopping.cpp">
<polygon fill="none" stroke="black" points="328,-78.5 328,-119.5 468,-119.5 468,-78.5 328,-78.5"/>
<text text-anchor="start" x="336" y="-107.5" font-family="Helvetica,sans-Serif" font-size="10.00">E:/Dropbox/BI_FIT_CVUT</text>
<text text-anchor="start" x="336" y="-96.5" font-family="Helvetica,sans-Serif" font-size="10.00">/2. semestr/PA2/GameBook</text>
<text text-anchor="middle" x="398" y="-85.5" font-family="Helvetica,sans-Serif" font-size="10.00">/Shopping.cpp</text>
</a>
</g>
</g>
<!-- Node14&#45;&gt;Node15 -->
<g id="edge15" class="edge"><title>Node14&#45;&gt;Node15</title>
<path fill="none" stroke="midnightblue" d="M398,-146.297C398,-137.301 398,-127.653 398,-119.506"/>
<polygon fill="midnightblue" stroke="midnightblue" points="394.5,-146.428 398,-156.428 401.5,-146.428 394.5,-146.428"/>
</g>
<!-- Node16&#45;&gt;Node11 -->
<g id="edge17" class="edge"><title>Node16&#45;&gt;Node11</title>
<path fill="none" stroke="midnightblue" d="M736.14,-151.627C716.599,-141.242 694.114,-129.292 675.701,-119.506"/>
<polygon fill="midnightblue" stroke="midnightblue" points="734.701,-154.826 745.174,-156.428 737.986,-148.644 734.701,-154.826"/>
</g>
<!-- Node17 -->
<g id="node17" class="node"><title>Node17</title>
<g id="a_node17"><a xlink:href="_inventory_browser_8cpp.html" target="_top" xlink:title="E:/Dropbox/BI_FIT_CVUT\l/2. semestr/PA2/GameBook\l/InventoryBrowser.cpp">
<polygon fill="none" stroke="black" points="727,-78.5 727,-119.5 867,-119.5 867,-78.5 727,-78.5"/>
<text text-anchor="start" x="735" y="-107.5" font-family="Helvetica,sans-Serif" font-size="10.00">E:/Dropbox/BI_FIT_CVUT</text>
<text text-anchor="start" x="735" y="-96.5" font-family="Helvetica,sans-Serif" font-size="10.00">/2. semestr/PA2/GameBook</text>
<text text-anchor="middle" x="797" y="-85.5" font-family="Helvetica,sans-Serif" font-size="10.00">/InventoryBrowser.cpp</text>
</a>
</g>
</g>
<!-- Node16&#45;&gt;Node17 -->
<g id="edge18" class="edge"><title>Node16&#45;&gt;Node17</title>
<path fill="none" stroke="midnightblue" d="M787.805,-146.59C789.597,-137.511 791.525,-127.742 793.15,-119.506"/>
<polygon fill="midnightblue" stroke="midnightblue" points="784.366,-145.94 785.863,-156.428 791.233,-147.295 784.366,-145.94"/>
</g>
<!-- Node18&#45;&gt;Node11 -->
<g id="edge20" class="edge"><title>Node18&#45;&gt;Node11</title>
<path fill="none" stroke="midnightblue" d="M875.025,-157.437C829.047,-146.682 770.225,-132.78 718,-120 715.114,-119.294 712.17,-118.569 709.197,-117.833"/>
<polygon fill="midnightblue" stroke="midnightblue" points="874.396,-160.884 884.93,-159.752 875.989,-154.068 874.396,-160.884"/>
</g>
<!-- Node19 -->
<g id="node19" class="node"><title>Node19</title>
<g id="a_node19"><a xlink:href="_interact_8cpp.html" target="_top" xlink:title="E:/Dropbox/BI_FIT_CVUT\l/2. semestr/PA2/GameBook\l/Interact.cpp">
<polygon fill="none" stroke="black" points="885,-78.5 885,-119.5 1025,-119.5 1025,-78.5 885,-78.5"/>
<text text-anchor="start" x="893" y="-107.5" font-family="Helvetica,sans-Serif" font-size="10.00">E:/Dropbox/BI_FIT_CVUT</text>
<text text-anchor="start" x="893" y="-96.5" font-family="Helvetica,sans-Serif" font-size="10.00">/2. semestr/PA2/GameBook</text>
<text text-anchor="middle" x="955" y="-85.5" font-family="Helvetica,sans-Serif" font-size="10.00">/Interact.cpp</text>
</a>
</g>
</g>
<!-- Node18&#45;&gt;Node19 -->
<g id="edge21" class="edge"><title>Node18&#45;&gt;Node19</title>
<path fill="none" stroke="midnightblue" d="M955,-146.297C955,-137.301 955,-127.653 955,-119.506"/>
<polygon fill="midnightblue" stroke="midnightblue" points="951.5,-146.428 955,-156.428 958.5,-146.428 951.5,-146.428"/>
</g>
<!-- Node21&#45;&gt;Node10 -->
<g id="edge25" class="edge"><title>Node21&#45;&gt;Node10</title>
<path fill="none" stroke="midnightblue" d="M728.206,-308.049C706.415,-297.566 681.172,-285.424 660.551,-275.506"/>
<polygon fill="midnightblue" stroke="midnightblue" points="726.782,-311.247 737.311,-312.428 729.817,-304.939 726.782,-311.247"/>
</g>
<!-- Node22 -->
<g id="node22" class="node"><title>Node22</title>
<g id="a_node22"><a xlink:href="_dialogue_n_c_p_8cpp.html" target="_top" xlink:title="E:/Dropbox/BI_FIT_CVUT\l/2. semestr/PA2/GameBook\l/DialogueNCP.cpp">
<polygon fill="none" stroke="black" points="708,-234.5 708,-275.5 848,-275.5 848,-234.5 708,-234.5"/>
<text text-anchor="start" x="716" y="-263.5" font-family="Helvetica,sans-Serif" font-size="10.00">E:/Dropbox/BI_FIT_CVUT</text>
<text text-anchor="start" x="716" y="-252.5" font-family="Helvetica,sans-Serif" font-size="10.00">/2. semestr/PA2/GameBook</text>
<text text-anchor="middle" x="778" y="-241.5" font-family="Helvetica,sans-Serif" font-size="10.00">/DialogueNCP.cpp</text>
</a>
</g>
</g>
<!-- Node21&#45;&gt;Node22 -->
<g id="edge24" class="edge"><title>Node21&#45;&gt;Node22</title>
<path fill="none" stroke="midnightblue" d="M778,-302.297C778,-293.301 778,-283.653 778,-275.506"/>
<polygon fill="midnightblue" stroke="midnightblue" points="774.5,-302.428 778,-312.428 781.5,-302.428 774.5,-302.428"/>
</g>
<!-- Node24&#45;&gt;Node10 -->
<g id="edge29" class="edge"><title>Node24&#45;&gt;Node10</title>
<path fill="none" stroke="midnightblue" d="M150.322,-317.529C162.587,-315.534 175.116,-313.618 187,-312 343.699,-290.664 385.261,-303.48 541,-276 543.926,-275.484 546.903,-274.918 549.904,-274.313"/>
<polygon fill="midnightblue" stroke="midnightblue" points="149.397,-314.135 140.102,-319.219 150.539,-321.041 149.397,-314.135"/>
</g>
<!-- Node25 -->
<g id="node25" class="node"><title>Node25</title>
<g id="a_node25"><a xlink:href="_fight_8cpp.html" target="_top" xlink:title="E:/Dropbox/BI_FIT_CVUT\l/2. semestr/PA2/GameBook\l/Fight.cpp">
<polygon fill="none" stroke="black" points="0,-234.5 0,-275.5 140,-275.5 140,-234.5 0,-234.5"/>
<text text-anchor="start" x="8" y="-263.5" font-family="Helvetica,sans-Serif" font-size="10.00">E:/Dropbox/BI_FIT_CVUT</text>
<text text-anchor="start" x="8" y="-252.5" font-family="Helvetica,sans-Serif" font-size="10.00">/2. semestr/PA2/GameBook</text>
<text text-anchor="middle" x="70" y="-241.5" font-family="Helvetica,sans-Serif" font-size="10.00">/Fight.cpp</text>
</a>
</g>
</g>
<!-- Node24&#45;&gt;Node25 -->
<g id="edge28" class="edge"><title>Node24&#45;&gt;Node25</title>
<path fill="none" stroke="midnightblue" d="M70,-302.297C70,-293.301 70,-283.653 70,-275.506"/>
<polygon fill="midnightblue" stroke="midnightblue" points="66.5001,-302.428 70,-312.428 73.5001,-302.428 66.5001,-302.428"/>
</g>
<!-- Node26&#45;&gt;Node10 -->
<g id="edge32" class="edge"><title>Node26&#45;&gt;Node10</title>
<path fill="none" stroke="midnightblue" d="M596.267,-303.466C600.929,-294.143 605.996,-284.007 610.247,-275.506"/>
<polygon fill="midnightblue" stroke="midnightblue" points="593.128,-301.919 591.786,-312.428 599.389,-305.049 593.128,-301.919"/>
</g>
<!-- Node27 -->
<g id="node27" class="node"><title>Node27</title>
<g id="a_node27"><a xlink:href="_trap_8cpp.html" target="_top" xlink:title="E:/Dropbox/BI_FIT_CVUT\l/2. semestr/PA2/GameBook\l/Trap.cpp">
<polygon fill="none" stroke="black" points="392,-234.5 392,-275.5 532,-275.5 532,-234.5 392,-234.5"/>
<text text-anchor="start" x="400" y="-263.5" font-family="Helvetica,sans-Serif" font-size="10.00">E:/Dropbox/BI_FIT_CVUT</text>
<text text-anchor="start" x="400" y="-252.5" font-family="Helvetica,sans-Serif" font-size="10.00">/2. semestr/PA2/GameBook</text>
<text text-anchor="middle" x="462" y="-241.5" font-family="Helvetica,sans-Serif" font-size="10.00">/Trap.cpp</text>
</a>
</g>
</g>
<!-- Node26&#45;&gt;Node27 -->
<g id="edge33" class="edge"><title>Node26&#45;&gt;Node27</title>
<path fill="none" stroke="midnightblue" d="M542.399,-306.919C526.266,-296.702 507.9,-285.07 492.798,-275.506"/>
<polygon fill="midnightblue" stroke="midnightblue" points="540.776,-310.034 551.097,-312.428 544.522,-304.121 540.776,-310.034"/>
</g>
<!-- Node29&#45;&gt;Node6 -->
<g id="edge40" class="edge"><title>Node29&#45;&gt;Node6</title>
<path fill="none" stroke="midnightblue" d="M751.499,-541.908C730.462,-531.458 706.147,-519.38 686.268,-509.506"/>
<polygon fill="midnightblue" stroke="midnightblue" points="750.086,-545.114 760.599,-546.428 753.2,-538.845 750.086,-545.114"/>
</g>
<!-- Node29&#45;&gt;Node10 -->
<g id="edge41" class="edge"><title>Node29&#45;&gt;Node10</title>
<path fill="none" stroke="midnightblue" d="M854.583,-540.901C866.358,-532.788 877.278,-522.559 884,-510 910.436,-460.604 917.468,-375.738 857,-312 807.431,-259.75 769.026,-292.839 699,-276 696.111,-275.305 693.165,-274.59 690.19,-273.862"/>
<polygon fill="midnightblue" stroke="midnightblue" points="852.454,-538.108 845.906,-546.437 856.219,-544.009 852.454,-538.108"/>
</g>
<!-- Node30 -->
<g id="node30" class="node"><title>Node30</title>
<g id="a_node30"><a xlink:href="_sword_8cpp.html" target="_top" xlink:title="E:/Dropbox/BI_FIT_CVUT\l/2. semestr/PA2/GameBook\l/Sword.cpp">
<polygon fill="none" stroke="black" points="735,-468.5 735,-509.5 875,-509.5 875,-468.5 735,-468.5"/>
<text text-anchor="start" x="743" y="-497.5" font-family="Helvetica,sans-Serif" font-size="10.00">E:/Dropbox/BI_FIT_CVUT</text>
<text text-anchor="start" x="743" y="-486.5" font-family="Helvetica,sans-Serif" font-size="10.00">/2. semestr/PA2/GameBook</text>
<text text-anchor="middle" x="805" y="-475.5" font-family="Helvetica,sans-Serif" font-size="10.00">/Sword.cpp</text>
</a>
</g>
</g>
<!-- Node29&#45;&gt;Node30 -->
<g id="edge42" class="edge"><title>Node29&#45;&gt;Node30</title>
<path fill="none" stroke="midnightblue" d="M801.954,-536.297C802.546,-527.301 803.181,-517.653 803.717,-509.506"/>
<polygon fill="midnightblue" stroke="midnightblue" points="798.452,-536.22 801.288,-546.428 805.437,-536.679 798.452,-536.22"/>
</g>
<!-- Node32&#45;&gt;Node6 -->
<g id="edge47" class="edge"><title>Node32&#45;&gt;Node6</title>
<path fill="none" stroke="midnightblue" d="M449.999,-544.051C490.086,-533.052 538.183,-519.856 576.818,-509.256"/>
<polygon fill="midnightblue" stroke="midnightblue" points="448.974,-540.703 440.257,-546.724 450.827,-547.453 448.974,-540.703"/>
</g>
<!-- Node32&#45;&gt;Node24 -->
<g id="edge49" class="edge"><title>Node32&#45;&gt;Node24</title>
<path fill="none" stroke="midnightblue" d="M333.074,-540.464C319.702,-531.05 304.559,-520.192 291,-510 217.879,-455.035 134.005,-386.746 93.8537,-353.719"/>
<polygon fill="midnightblue" stroke="midnightblue" points="331.374,-543.547 341.571,-546.421 335.392,-537.815 331.374,-543.547"/>
</g>
<!-- Node33 -->
<g id="node33" class="node"><title>Node33</title>
<g id="a_node33"><a xlink:href="_creature_8cpp.html" target="_top" xlink:title="E:/Dropbox/BI_FIT_CVUT\l/2. semestr/PA2/GameBook\l/Creature.cpp">
<polygon fill="none" stroke="black" points="300,-468.5 300,-509.5 440,-509.5 440,-468.5 300,-468.5"/>
<text text-anchor="start" x="308" y="-497.5" font-family="Helvetica,sans-Serif" font-size="10.00">E:/Dropbox/BI_FIT_CVUT</text>
<text text-anchor="start" x="308" y="-486.5" font-family="Helvetica,sans-Serif" font-size="10.00">/2. semestr/PA2/GameBook</text>
<text text-anchor="middle" x="370" y="-475.5" font-family="Helvetica,sans-Serif" font-size="10.00">/Creature.cpp</text>
</a>
</g>
</g>
<!-- Node32&#45;&gt;Node33 -->
<g id="edge48" class="edge"><title>Node32&#45;&gt;Node33</title>
<path fill="none" stroke="midnightblue" d="M370,-536.297C370,-527.301 370,-517.653 370,-509.506"/>
<polygon fill="midnightblue" stroke="midnightblue" points="366.5,-536.428 370,-546.428 373.5,-536.428 366.5,-536.428"/>
</g>
<!-- Node35&#45;&gt;Node2 -->
<g id="edge53" class="edge"><title>Node35&#45;&gt;Node2</title>
<path fill="none" stroke="midnightblue" d="M293.965,-776.748C321.401,-766.11 353.545,-753.646 379.696,-743.506"/>
<polygon fill="midnightblue" stroke="midnightblue" points="292.533,-773.55 284.475,-780.428 295.064,-780.076 292.533,-773.55"/>
</g>
<!-- Node35&#45;&gt;Node8 -->
<g id="edge54" class="edge"><title>Node35&#45;&gt;Node8</title>
<path fill="none" stroke="midnightblue" d="M234,-769.91C234,-738.868 234,-689.049 234,-646 234,-646 234,-646 234,-488 234,-438.847 249.82,-382.68 259.214,-353.663"/>
<polygon fill="midnightblue" stroke="midnightblue" points="230.5,-770.065 234,-780.065 237.5,-770.065 230.5,-770.065"/>
</g>
<!-- Node35&#45;&gt;Node24 -->
<g id="edge55" class="edge"><title>Node35&#45;&gt;Node24</title>
<path fill="none" stroke="midnightblue" d="M153.806,-792.786C119.369,-785.591 81.4943,-771.484 57,-744 27.4815,-710.878 38,-690.367 38,-646 38,-646 38,-646 38,-488 38,-438.847 53.8203,-382.68 63.2136,-353.663"/>
<polygon fill="midnightblue" stroke="midnightblue" points="153.407,-796.273 163.888,-794.721 154.727,-789.399 153.407,-796.273"/>
</g>
<!-- Node36 -->
<g id="node36" class="node"><title>Node36</title>
<g id="a_node36"><a xlink:href="_game_menus_8cpp.html" target="_top" xlink:title="E:/Dropbox/BI_FIT_CVUT\l/2. semestr/PA2/GameBook\l/GameMenus.cpp">
<polygon fill="none" stroke="black" points="66,-702.5 66,-743.5 206,-743.5 206,-702.5 66,-702.5"/>
<text text-anchor="start" x="74" y="-731.5" font-family="Helvetica,sans-Serif" font-size="10.00">E:/Dropbox/BI_FIT_CVUT</text>
<text text-anchor="start" x="74" y="-720.5" font-family="Helvetica,sans-Serif" font-size="10.00">/2. semestr/PA2/GameBook</text>
<text text-anchor="middle" x="136" y="-709.5" font-family="Helvetica,sans-Serif" font-size="10.00">/GameMenus.cpp</text>
</a>
</g>
</g>
<!-- Node35&#45;&gt;Node36 -->
<g id="edge56" class="edge"><title>Node35&#45;&gt;Node36</title>
<path fill="none" stroke="midnightblue" d="M200.557,-774.065C187.653,-764.057 173.143,-752.804 161.152,-743.506"/>
<polygon fill="midnightblue" stroke="midnightblue" points="198.715,-777.066 208.763,-780.428 203.005,-771.534 198.715,-777.066"/>
</g>
</g>
</svg>
