<?xml version="1.0" encoding="UTF-8" standalone="no"?>
<!DOCTYPE svg PUBLIC "-//W3C//DTD SVG 1.1//EN"
 "http://www.w3.org/Graphics/SVG/1.1/DTD/svg11.dtd">
<!-- Generated by graphviz version 2.38.0 (20140413.2041)
 -->
<!-- Title: E:/Dropbox/BI_FIT_CVUT/2. semestr/PA2/GameBook/Armour.h Pages: 1 -->
<svg width="410pt" height="274pt"
 viewBox="0.00 0.00 410.06 274.00" xmlns="http://www.w3.org/2000/svg" xmlns:xlink="http://www.w3.org/1999/xlink">
<g id="graph0" class="graph" transform="scale(1 1) rotate(0) translate(4 270)">
<title>E:/Dropbox/BI_FIT_CVUT/2. semestr/PA2/GameBook/Armour.h</title>
<!-- Node0 -->
<g id="node1" class="node"><title>Node0</title>
<polygon fill="#bfbfbf" stroke="black" points="42.0636,-224.5 42.0636,-265.5 182.064,-265.5 182.064,-224.5 42.0636,-224.5"/>
<text text-anchor="start" x="50.0636" y="-253.5" font-family="Helvetica,sans-Serif" font-size="10.00">E:/Dropbox/BI_FIT_CVUT</text>
<text text-anchor="start" x="50.0636" y="-242.5" font-family="Helvetica,sans-Serif" font-size="10.00">/2. semestr/PA2/GameBook</text>
<text text-anchor="middle" x="112.064" y="-231.5" font-family="Helvetica,sans-Serif" font-size="10.00">/Armour.h</text>
</g>
<!-- Node1 -->
<g id="node2" class="node"><title>Node1</title>
<g id="a_node2"><a xlink:href="_item_8h.html" target="_top" xlink:title="Item.h">
<polygon fill="none" stroke="black" points="90.0636,-168.5 90.0636,-187.5 134.064,-187.5 134.064,-168.5 90.0636,-168.5"/>
<text text-anchor="middle" x="112.064" y="-175.5" font-family="Helvetica,sans-Serif" font-size="10.00">Item.h</text>
</a>
</g>
</g>
<!-- Node0&#45;&gt;Node1 -->
<g id="edge1" class="edge"><title>Node0&#45;&gt;Node1</title>
<path fill="none" stroke="midnightblue" d="M112.064,-224.498C112.064,-216.065 112.064,-206.235 112.064,-197.874"/>
<polygon fill="midnightblue" stroke="midnightblue" points="115.564,-197.652 112.064,-187.652 108.564,-197.653 115.564,-197.652"/>
</g>
<!-- Node2 -->
<g id="node3" class="node"><title>Node2</title>
<polygon fill="none" stroke="#bfbfbf" points="54.0636,-56.5 54.0636,-75.5 108.064,-75.5 108.064,-56.5 54.0636,-56.5"/>
<text text-anchor="middle" x="81.0636" y="-63.5" font-family="Helvetica,sans-Serif" font-size="10.00">iostream</text>
</g>
<!-- Node1&#45;&gt;Node2 -->
<g id="edge2" class="edge"><title>Node1&#45;&gt;Node2</title>
<path fill="none" stroke="midnightblue" d="M109.631,-168.368C104.606,-150.537 92.9832,-109.295 86.213,-85.2717"/>
<polygon fill="midnightblue" stroke="midnightblue" points="89.5662,-84.2671 83.4849,-75.5914 82.8287,-86.1659 89.5662,-84.2671"/>
</g>
<!-- Node3 -->
<g id="node4" class="node"><title>Node3</title>
<polygon fill="none" stroke="#bfbfbf" points="60.5636,-0.5 60.5636,-19.5 101.564,-19.5 101.564,-0.5 60.5636,-0.5"/>
<text text-anchor="middle" x="81.0636" y="-7.5" font-family="Helvetica,sans-Serif" font-size="10.00">string</text>
</g>
<!-- Node1&#45;&gt;Node3 -->
<g id="edge3" class="edge"><title>Node1&#45;&gt;Node3</title>
<path fill="none" stroke="midnightblue" d="M89.874,-174.564C64.8934,-170.503 25.4055,-159.816 7.06364,-132 -17.7346,-94.3925 30.6994,-48.7431 60.3638,-25.7508"/>
<polygon fill="midnightblue" stroke="midnightblue" points="62.6158,-28.4367 68.5114,-19.6337 58.413,-22.8388 62.6158,-28.4367"/>
</g>
<!-- Node4 -->
<g id="node5" class="node"><title>Node4</title>
<g id="a_node5"><a xlink:href="_display_8h.html" target="_top" xlink:title="Display.h">
<polygon fill="none" stroke="black" points="154.564,-112.5 154.564,-131.5 211.564,-131.5 211.564,-112.5 154.564,-112.5"/>
<text text-anchor="middle" x="183.064" y="-119.5" font-family="Helvetica,sans-Serif" font-size="10.00">Display.h</text>
</a>
</g>
</g>
<!-- Node1&#45;&gt;Node4 -->
<g id="edge4" class="edge"><title>Node1&#45;&gt;Node4</title>
<path fill="none" stroke="midnightblue" d="M123.471,-168.324C134.172,-160.185 150.404,-147.839 163.226,-138.087"/>
<polygon fill="midnightblue" stroke="midnightblue" points="165.608,-140.673 171.449,-131.834 161.37,-135.102 165.608,-140.673"/>
</g>
<!-- Node9 -->
<g id="node10" class="node"><title>Node9</title>
<g id="a_node10"><a xlink:href="_equipment_8h.html" target="_top" xlink:title="Equipment.h">
<polygon fill="none" stroke="black" points="229.564,-112.5 229.564,-131.5 300.564,-131.5 300.564,-112.5 229.564,-112.5"/>
<text text-anchor="middle" x="265.064" y="-119.5" font-family="Helvetica,sans-Serif" font-size="10.00">Equipment.h</text>
</a>
</g>
</g>
<!-- Node1&#45;&gt;Node9 -->
<g id="edge14" class="edge"><title>Node1&#45;&gt;Node9</title>
<path fill="none" stroke="midnightblue" d="M134.311,-169.148C159.777,-160.16 201.768,-145.339 231.279,-134.924"/>
<polygon fill="midnightblue" stroke="midnightblue" points="232.501,-138.204 240.766,-131.576 230.171,-131.603 232.501,-138.204"/>
</g>
<!-- Node10 -->
<g id="node11" class="node"><title>Node10</title>
<g id="a_node11"><a xlink:href="_hero_stats_8h.html" target="_top" xlink:title="HeroStats.h">
<polygon fill="none" stroke="black" points="16.0636,-112.5 16.0636,-131.5 84.0636,-131.5 84.0636,-112.5 16.0636,-112.5"/>
<text text-anchor="middle" x="50.0636" y="-119.5" font-family="Helvetica,sans-Serif" font-size="10.00">HeroStats.h</text>
</a>
</g>
</g>
<!-- Node1&#45;&gt;Node10 -->
<g id="edge15" class="edge"><title>Node1&#45;&gt;Node10</title>
<path fill="none" stroke="midnightblue" d="M102.102,-168.324C92.9371,-160.341 79.1264,-148.313 68.0355,-138.653"/>
<polygon fill="midnightblue" stroke="midnightblue" points="70.0458,-135.762 60.2063,-131.834 65.4484,-141.041 70.0458,-135.762"/>
</g>
<!-- Node4&#45;&gt;Node2 -->
<g id="edge7" class="edge"><title>Node4&#45;&gt;Node2</title>
<path fill="none" stroke="midnightblue" d="M166.676,-112.324C150.392,-103.703 125.196,-90.3643 106.347,-80.3855"/>
<polygon fill="midnightblue" stroke="midnightblue" points="107.887,-77.2402 97.411,-75.6545 104.611,-83.4267 107.887,-77.2402"/>
</g>
<!-- Node4&#45;&gt;Node3 -->
<g id="edge6" class="edge"><title>Node4&#45;&gt;Node3</title>
<path fill="none" stroke="midnightblue" d="M175.06,-112.368C158.004,-93.9744 117.85,-50.6712 95.9481,-27.0519"/>
<polygon fill="midnightblue" stroke="midnightblue" points="98.3961,-24.5443 89.0302,-19.5914 93.2632,-29.3039 98.3961,-24.5443"/>
</g>
<!-- Node5 -->
<g id="node6" class="node"><title>Node5</title>
<polygon fill="none" stroke="#bfbfbf" points="360.064,-0.5 360.064,-19.5 402.064,-19.5 402.064,-0.5 360.064,-0.5"/>
<text text-anchor="middle" x="381.064" y="-7.5" font-family="Helvetica,sans-Serif" font-size="10.00">vector</text>
</g>
<!-- Node4&#45;&gt;Node5 -->
<g id="edge5" class="edge"><title>Node4&#45;&gt;Node5</title>
<path fill="none" stroke="midnightblue" d="M211.693,-114.201C214.854,-113.455 218.027,-112.71 221.064,-112 290.351,-95.8005 331.076,-130.297 377.064,-76 387.673,-63.474 387.535,-44.249 385.427,-29.9524"/>
<polygon fill="midnightblue" stroke="midnightblue" points="388.796,-28.9319 383.483,-19.7656 381.92,-30.2445 388.796,-28.9319"/>
</g>
<!-- Node6 -->
<g id="node7" class="node"><title>Node6</title>
<g id="a_node7"><a xlink:href="_actions_list_8h.html" target="_top" xlink:title="ActionsList.h">
<polygon fill="none" stroke="black" points="238.064,-0.5 238.064,-19.5 312.064,-19.5 312.064,-0.5 238.064,-0.5"/>
<text text-anchor="middle" x="275.064" y="-7.5" font-family="Helvetica,sans-Serif" font-size="10.00">ActionsList.h</text>
</a>
</g>
</g>
<!-- Node4&#45;&gt;Node6 -->
<g id="edge8" class="edge"><title>Node4&#45;&gt;Node6</title>
<path fill="none" stroke="midnightblue" d="M197.353,-112.432C210.042,-104.283 228.473,-91.0564 241.064,-76 252.912,-61.831 262.248,-42.8543 268.115,-29.0648"/>
<polygon fill="midnightblue" stroke="midnightblue" points="271.4,-30.2791 271.91,-19.6966 264.912,-27.6509 271.4,-30.2791"/>
</g>
<!-- Node7 -->
<g id="node8" class="node"><title>Node7</title>
<g id="a_node8"><a xlink:href="_errors_list_8h.html" target="_top" xlink:title="ErrorsList.h">
<polygon fill="none" stroke="black" points="164.564,-56.5 164.564,-75.5 231.564,-75.5 231.564,-56.5 164.564,-56.5"/>
<text text-anchor="middle" x="198.064" y="-63.5" font-family="Helvetica,sans-Serif" font-size="10.00">ErrorsList.h</text>
</a>
</g>
</g>
<!-- Node4&#45;&gt;Node7 -->
<g id="edge9" class="edge"><title>Node4&#45;&gt;Node7</title>
<path fill="none" stroke="midnightblue" d="M185.541,-112.083C187.55,-104.849 190.45,-94.4087 192.953,-85.3968"/>
<polygon fill="midnightblue" stroke="midnightblue" points="196.329,-86.323 195.633,-75.7511 189.584,-84.4495 196.329,-86.323"/>
</g>
<!-- Node8 -->
<g id="node9" class="node"><title>Node8</title>
<g id="a_node9"><a xlink:href="_game_menus_8h.html" target="_top" xlink:title="GameMenus.h">
<polygon fill="none" stroke="black" points="288.064,-56.5 288.064,-75.5 368.064,-75.5 368.064,-56.5 288.064,-56.5"/>
<text text-anchor="middle" x="328.064" y="-63.5" font-family="Helvetica,sans-Serif" font-size="10.00">GameMenus.h</text>
</a>
</g>
</g>
<!-- Node4&#45;&gt;Node8 -->
<g id="edge10" class="edge"><title>Node4&#45;&gt;Node8</title>
<path fill="none" stroke="midnightblue" d="M206.039,-112.444C230.221,-103.438 268.482,-89.1891 295.71,-79.049"/>
<polygon fill="midnightblue" stroke="midnightblue" points="297.046,-82.2864 305.195,-75.5164 294.603,-75.7265 297.046,-82.2864"/>
</g>
<!-- Node8&#45;&gt;Node3 -->
<g id="edge11" class="edge"><title>Node8&#45;&gt;Node3</title>
<path fill="none" stroke="midnightblue" d="M288.926,-56.4435C239.812,-45.706 156.6,-27.5139 111.804,-17.7206"/>
<polygon fill="midnightblue" stroke="midnightblue" points="112.326,-14.252 101.809,-15.5354 110.83,-21.0905 112.326,-14.252"/>
</g>
<!-- Node8&#45;&gt;Node5 -->
<g id="edge12" class="edge"><title>Node8&#45;&gt;Node5</title>
<path fill="none" stroke="midnightblue" d="M336.816,-56.083C344.533,-48.2195 355.968,-36.5688 365.28,-27.0813"/>
<polygon fill="midnightblue" stroke="midnightblue" points="367.968,-29.3396 372.475,-19.7511 362.972,-24.4363 367.968,-29.3396"/>
</g>
<!-- Node8&#45;&gt;Node6 -->
<g id="edge13" class="edge"><title>Node8&#45;&gt;Node6</title>
<path fill="none" stroke="midnightblue" d="M319.312,-56.083C311.594,-48.2195 300.159,-36.5688 290.847,-27.0813"/>
<polygon fill="midnightblue" stroke="midnightblue" points="293.155,-24.4363 283.653,-19.7511 288.159,-29.3396 293.155,-24.4363"/>
</g>
<!-- Node10&#45;&gt;Node3 -->
<g id="edge16" class="edge"><title>Node10&#45;&gt;Node3</title>
<path fill="none" stroke="midnightblue" d="M47.2203,-112.298C43.5316,-99.5493 38.3202,-75.2241 45.0636,-56 48.8488,-45.2094 56.4302,-35.084 63.6634,-27.1808"/>
<polygon fill="midnightblue" stroke="midnightblue" points="66.3892,-29.4005 70.9015,-19.8145 61.3962,-24.4943 66.3892,-29.4005"/>
</g>
</g>
</svg>
