<?xml version="1.0" encoding="UTF-8" standalone="no"?>
<!DOCTYPE svg PUBLIC "-//W3C//DTD SVG 1.1//EN"
 "http://www.w3.org/Graphics/SVG/1.1/DTD/svg11.dtd">
<!-- Generated by graphviz version 2.38.0 (20140413.2041)
 -->
<!-- Title: E:/Dropbox/BI_FIT_CVUT/2. semestr/PA2/GameBook/Choice.cpp Pages: 1 -->
<svg width="964pt" height="498pt"
 viewBox="0.00 0.00 964.00 498.00" xmlns="http://www.w3.org/2000/svg" xmlns:xlink="http://www.w3.org/1999/xlink">
<g id="graph0" class="graph" transform="scale(1 1) rotate(0) translate(4 494)">
<title>E:/Dropbox/BI_FIT_CVUT/2. semestr/PA2/GameBook/Choice.cpp</title>
<!-- Node0 -->
<g id="node1" class="node"><title>Node0</title>
<polygon fill="#bfbfbf" stroke="black" points="319,-448.5 319,-489.5 459,-489.5 459,-448.5 319,-448.5"/>
<text text-anchor="start" x="327" y="-477.5" font-family="Helvetica,sans-Serif" font-size="10.00">E:/Dropbox/BI_FIT_CVUT</text>
<text text-anchor="start" x="327" y="-466.5" font-family="Helvetica,sans-Serif" font-size="10.00">/2. semestr/PA2/GameBook</text>
<text text-anchor="middle" x="389" y="-455.5" font-family="Helvetica,sans-Serif" font-size="10.00">/Choice.cpp</text>
</g>
<!-- Node1 -->
<g id="node2" class="node"><title>Node1</title>
<g id="a_node2"><a xlink:href="_choice_8h.html" target="_top" xlink:title="Choice.h">
<polygon fill="none" stroke="black" points="361.5,-392.5 361.5,-411.5 416.5,-411.5 416.5,-392.5 361.5,-392.5"/>
<text text-anchor="middle" x="389" y="-399.5" font-family="Helvetica,sans-Serif" font-size="10.00">Choice.h</text>
</a>
</g>
</g>
<!-- Node0&#45;&gt;Node1 -->
<g id="edge1" class="edge"><title>Node0&#45;&gt;Node1</title>
<path fill="none" stroke="midnightblue" d="M389,-448.498C389,-440.065 389,-430.235 389,-421.874"/>
<polygon fill="midnightblue" stroke="midnightblue" points="392.5,-421.652 389,-411.652 385.5,-421.653 392.5,-421.652"/>
</g>
<!-- Node2 -->
<g id="node3" class="node"><title>Node2</title>
<polygon fill="none" stroke="#bfbfbf" points="309.5,-0.5 309.5,-19.5 350.5,-19.5 350.5,-0.5 309.5,-0.5"/>
<text text-anchor="middle" x="330" y="-7.5" font-family="Helvetica,sans-Serif" font-size="10.00">string</text>
</g>
<!-- Node1&#45;&gt;Node2 -->
<g id="edge2" class="edge"><title>Node1&#45;&gt;Node2</title>
<path fill="none" stroke="midnightblue" d="M361.336,-399.176C272.465,-392.569 0,-366.183 0,-291 0,-291 0,-291 0,-121 0,-82.8683 22.7434,-74.6553 56,-56 97.3341,-32.8136 236.813,-18.6979 299.29,-13.3974"/>
<polygon fill="midnightblue" stroke="midnightblue" points="299.649,-16.8797 309.326,-12.5659 299.071,-9.90363 299.649,-16.8797"/>
</g>
<!-- Node3 -->
<g id="node4" class="node"><title>Node3</title>
<g id="a_node4"><a xlink:href="_event_8h.html" target="_top" xlink:title="Event.h">
<polygon fill="none" stroke="black" points="364.5,-336.5 364.5,-355.5 413.5,-355.5 413.5,-336.5 364.5,-336.5"/>
<text text-anchor="middle" x="389" y="-343.5" font-family="Helvetica,sans-Serif" font-size="10.00">Event.h</text>
</a>
</g>
</g>
<!-- Node1&#45;&gt;Node3 -->
<g id="edge3" class="edge"><title>Node1&#45;&gt;Node3</title>
<path fill="none" stroke="midnightblue" d="M389,-392.083C389,-385.006 389,-374.861 389,-365.986"/>
<polygon fill="midnightblue" stroke="midnightblue" points="392.5,-365.751 389,-355.751 385.5,-365.751 392.5,-365.751"/>
</g>
<!-- Node10 -->
<g id="node11" class="node"><title>Node10</title>
<g id="a_node11"><a xlink:href="_game_menus_8h.html" target="_top" xlink:title="GameMenus.h">
<polygon fill="none" stroke="black" points="845,-56.5 845,-75.5 925,-75.5 925,-56.5 845,-56.5"/>
<text text-anchor="middle" x="885" y="-63.5" font-family="Helvetica,sans-Serif" font-size="10.00">GameMenus.h</text>
</a>
</g>
</g>
<!-- Node1&#45;&gt;Node10 -->
<g id="edge48" class="edge"><title>Node1&#45;&gt;Node10</title>
<path fill="none" stroke="midnightblue" d="M416.777,-400.281C515.565,-396.985 844,-379.38 844,-291 844,-291 844,-291 844,-177 844,-142.515 861.911,-105.562 874.057,-84.468"/>
<polygon fill="midnightblue" stroke="midnightblue" points="877.165,-86.0898 879.299,-75.7121 871.159,-82.4938 877.165,-86.0898"/>
</g>
<!-- Node3&#45;&gt;Node2 -->
<g id="edge4" class="edge"><title>Node3&#45;&gt;Node2</title>
<path fill="none" stroke="midnightblue" d="M364.318,-342.665C284.423,-334.432 38,-303.49 38,-235 38,-235 38,-235 38,-121 38,-84.0042 58.2817,-75.0431 90,-56 156.735,-15.9335 251.204,-10.1921 299.292,-10.1486"/>
<polygon fill="midnightblue" stroke="midnightblue" points="299.349,-13.6491 309.375,-10.2242 299.402,-6.64927 299.349,-13.6491"/>
</g>
<!-- Node4 -->
<g id="node5" class="node"><title>Node4</title>
<polygon fill="none" stroke="#bfbfbf" points="342.5,-280.5 342.5,-299.5 377.5,-299.5 377.5,-280.5 342.5,-280.5"/>
<text text-anchor="middle" x="360" y="-287.5" font-family="Helvetica,sans-Serif" font-size="10.00">map</text>
</g>
<!-- Node3&#45;&gt;Node4 -->
<g id="edge5" class="edge"><title>Node3&#45;&gt;Node4</title>
<path fill="none" stroke="midnightblue" d="M384.211,-336.083C380.242,-328.691 374.475,-317.953 369.565,-308.811"/>
<polygon fill="midnightblue" stroke="midnightblue" points="372.514,-306.905 364.7,-299.751 366.347,-310.217 372.514,-306.905"/>
</g>
<!-- Node5 -->
<g id="node6" class="node"><title>Node5</title>
<g id="a_node6"><a xlink:href="_display_8h.html" target="_top" xlink:title="Display.h">
<polygon fill="none" stroke="black" points="714.5,-112.5 714.5,-131.5 771.5,-131.5 771.5,-112.5 714.5,-112.5"/>
<text text-anchor="middle" x="743" y="-119.5" font-family="Helvetica,sans-Serif" font-size="10.00">Display.h</text>
</a>
</g>
</g>
<!-- Node3&#45;&gt;Node5 -->
<g id="edge6" class="edge"><title>Node3&#45;&gt;Node5</title>
<path fill="none" stroke="midnightblue" d="M413.76,-341.888C488.072,-331.992 706.609,-298.643 748,-244 770.661,-214.084 759.289,-167.059 750.328,-141.329"/>
<polygon fill="midnightblue" stroke="midnightblue" points="753.516,-139.862 746.741,-131.717 746.958,-142.31 753.516,-139.862"/>
</g>
<!-- Node11 -->
<g id="node12" class="node"><title>Node11</title>
<g id="a_node12"><a xlink:href="_hero_8h.html" target="_top" xlink:title="Hero.h">
<polygon fill="none" stroke="black" points="395.5,-280.5 395.5,-299.5 440.5,-299.5 440.5,-280.5 395.5,-280.5"/>
<text text-anchor="middle" x="418" y="-287.5" font-family="Helvetica,sans-Serif" font-size="10.00">Hero.h</text>
</a>
</g>
</g>
<!-- Node3&#45;&gt;Node11 -->
<g id="edge16" class="edge"><title>Node3&#45;&gt;Node11</title>
<path fill="none" stroke="midnightblue" d="M393.789,-336.083C397.758,-328.691 403.525,-317.953 408.435,-308.811"/>
<polygon fill="midnightblue" stroke="midnightblue" points="411.653,-310.217 413.3,-299.751 405.486,-306.905 411.653,-310.217"/>
</g>
<!-- Node5&#45;&gt;Node2 -->
<g id="edge8" class="edge"><title>Node5&#45;&gt;Node2</title>
<path fill="none" stroke="midnightblue" d="M749.481,-112.238C758.784,-98.5171 773.31,-71.8897 759,-56 732.396,-26.4593 454.77,-14.964 360.853,-11.9024"/>
<polygon fill="midnightblue" stroke="midnightblue" points="360.694,-8.39574 350.588,-11.5778 360.473,-15.3922 360.694,-8.39574"/>
</g>
<!-- Node6 -->
<g id="node7" class="node"><title>Node6</title>
<polygon fill="none" stroke="#bfbfbf" points="715,-0.5 715,-19.5 757,-19.5 757,-0.5 715,-0.5"/>
<text text-anchor="middle" x="736" y="-7.5" font-family="Helvetica,sans-Serif" font-size="10.00">vector</text>
</g>
<!-- Node5&#45;&gt;Node6 -->
<g id="edge7" class="edge"><title>Node5&#45;&gt;Node6</title>
<path fill="none" stroke="midnightblue" d="M758.113,-112.33C776.511,-100.563 803.865,-78.4211 793,-56 786.603,-42.7996 774.248,-32.3032 762.671,-24.7794"/>
<polygon fill="midnightblue" stroke="midnightblue" points="764.454,-21.7678 754.082,-19.6099 760.845,-27.7653 764.454,-21.7678"/>
</g>
<!-- Node7 -->
<g id="node8" class="node"><title>Node7</title>
<polygon fill="none" stroke="#bfbfbf" points="303,-56.5 303,-75.5 357,-75.5 357,-56.5 303,-56.5"/>
<text text-anchor="middle" x="330" y="-63.5" font-family="Helvetica,sans-Serif" font-size="10.00">iostream</text>
</g>
<!-- Node5&#45;&gt;Node7 -->
<g id="edge9" class="edge"><title>Node5&#45;&gt;Node7</title>
<path fill="none" stroke="midnightblue" d="M714.287,-117.246C641.371,-107.712 449.073,-82.5689 367.471,-71.8993"/>
<polygon fill="midnightblue" stroke="midnightblue" points="367.539,-68.3785 357.169,-70.5524 366.631,-75.3194 367.539,-68.3785"/>
</g>
<!-- Node8 -->
<g id="node9" class="node"><title>Node8</title>
<g id="a_node9"><a xlink:href="_actions_list_8h.html" target="_top" xlink:title="ActionsList.h">
<polygon fill="none" stroke="black" points="882,-0.5 882,-19.5 956,-19.5 956,-0.5 882,-0.5"/>
<text text-anchor="middle" x="919" y="-7.5" font-family="Helvetica,sans-Serif" font-size="10.00">ActionsList.h</text>
</a>
</g>
</g>
<!-- Node5&#45;&gt;Node8 -->
<g id="edge10" class="edge"><title>Node5&#45;&gt;Node8</title>
<path fill="none" stroke="midnightblue" d="M771.677,-118.515C819.933,-113.673 914.068,-101.173 934,-76 944.748,-62.4257 937.827,-42.5383 930.208,-28.3407"/>
<polygon fill="midnightblue" stroke="midnightblue" points="933.128,-26.4013 925.031,-19.5681 927.1,-29.9591 933.128,-26.4013"/>
</g>
<!-- Node9 -->
<g id="node10" class="node"><title>Node9</title>
<g id="a_node10"><a xlink:href="_errors_list_8h.html" target="_top" xlink:title="ErrorsList.h">
<polygon fill="none" stroke="black" points="683.5,-56.5 683.5,-75.5 750.5,-75.5 750.5,-56.5 683.5,-56.5"/>
<text text-anchor="middle" x="717" y="-63.5" font-family="Helvetica,sans-Serif" font-size="10.00">ErrorsList.h</text>
</a>
</g>
</g>
<!-- Node5&#45;&gt;Node9 -->
<g id="edge11" class="edge"><title>Node5&#45;&gt;Node9</title>
<path fill="none" stroke="midnightblue" d="M738.707,-112.083C735.148,-104.691 729.978,-93.9533 725.576,-84.8111"/>
<polygon fill="midnightblue" stroke="midnightblue" points="728.705,-83.2427 721.213,-75.7511 722.398,-86.2795 728.705,-83.2427"/>
</g>
<!-- Node5&#45;&gt;Node10 -->
<g id="edge12" class="edge"><title>Node5&#45;&gt;Node10</title>
<path fill="none" stroke="midnightblue" d="M765.5,-112.444C789.077,-103.478 826.322,-89.314 852.964,-79.1827"/>
<polygon fill="midnightblue" stroke="midnightblue" points="854.502,-82.3424 862.605,-75.5164 852.014,-75.7995 854.502,-82.3424"/>
</g>
<!-- Node10&#45;&gt;Node2 -->
<g id="edge13" class="edge"><title>Node10&#45;&gt;Node2</title>
<path fill="none" stroke="midnightblue" d="M844.696,-61.0517C828.614,-59.4777 809.931,-57.6509 793,-56 630.2,-40.1255 435.191,-21.2022 360.842,-13.9909"/>
<polygon fill="midnightblue" stroke="midnightblue" points="361.058,-10.4955 350.767,-13.0137 360.382,-17.4628 361.058,-10.4955"/>
</g>
<!-- Node10&#45;&gt;Node6 -->
<g id="edge14" class="edge"><title>Node10&#45;&gt;Node6</title>
<path fill="none" stroke="midnightblue" d="M861.391,-56.4435C835.811,-47.1732 794.9,-32.3464 766.808,-22.1652"/>
<polygon fill="midnightblue" stroke="midnightblue" points="767.684,-18.7601 757.09,-18.6433 765.299,-25.3413 767.684,-18.7601"/>
</g>
<!-- Node10&#45;&gt;Node8 -->
<g id="edge15" class="edge"><title>Node10&#45;&gt;Node8</title>
<path fill="none" stroke="midnightblue" d="M890.614,-56.083C895.367,-48.5341 902.318,-37.4948 908.152,-28.2298"/>
<polygon fill="midnightblue" stroke="midnightblue" points="911.124,-30.0783 913.49,-19.7511 905.2,-26.3486 911.124,-30.0783"/>
</g>
<!-- Node11&#45;&gt;Node2 -->
<g id="edge18" class="edge"><title>Node11&#45;&gt;Node2</title>
<path fill="none" stroke="midnightblue" d="M395.332,-282.386C392.207,-281.544 389.031,-280.725 386,-280 245.068,-246.299 76,-323.906 76,-179 76,-179 76,-179 76,-121 76,-24.7533 231.472,-11.7762 299.144,-10.6864"/>
<polygon fill="midnightblue" stroke="midnightblue" points="299.244,-14.1858 309.214,-10.6027 299.185,-7.18607 299.244,-14.1858"/>
</g>
<!-- Node11&#45;&gt;Node5 -->
<g id="edge28" class="edge"><title>Node11&#45;&gt;Node5</title>
<path fill="none" stroke="midnightblue" d="M440.793,-288.982C482.553,-287.985 572.923,-281.288 637,-244 681.286,-218.229 716.539,-167.249 732.96,-140.429"/>
<polygon fill="midnightblue" stroke="midnightblue" points="736.029,-142.115 738.139,-131.733 730.015,-138.533 736.029,-142.115"/>
</g>
<!-- Node11&#45;&gt;Node7 -->
<g id="edge17" class="edge"><title>Node11&#45;&gt;Node7</title>
<path fill="none" stroke="midnightblue" d="M415.885,-280.473C412.693,-267.942 406.241,-243.885 399,-224 380.218,-172.424 352.703,-113.71 338.774,-84.8869"/>
<polygon fill="midnightblue" stroke="midnightblue" points="341.821,-83.1495 334.298,-75.689 335.527,-86.2124 341.821,-83.1495"/>
</g>
<!-- Node11&#45;&gt;Node9 -->
<g id="edge27" class="edge"><title>Node11&#45;&gt;Node9</title>
<path fill="none" stroke="midnightblue" d="M440.771,-282.566C464.422,-275.296 501.958,-262.078 531,-244 605.341,-197.724 675.115,-118.243 703.555,-83.7672"/>
<polygon fill="midnightblue" stroke="midnightblue" points="706.559,-85.6217 710.163,-75.6587 701.132,-81.1995 706.559,-85.6217"/>
</g>
<!-- Node12 -->
<g id="node13" class="node"><title>Node12</title>
<polygon fill="none" stroke="#bfbfbf" points="689,-224.5 689,-243.5 739,-243.5 739,-224.5 689,-224.5"/>
<text text-anchor="middle" x="714" y="-231.5" font-family="Helvetica,sans-Serif" font-size="10.00">typeinfo</text>
</g>
<!-- Node11&#45;&gt;Node12 -->
<g id="edge19" class="edge"><title>Node11&#45;&gt;Node12</title>
<path fill="none" stroke="midnightblue" d="M440.767,-285.433C485.694,-278.302 588.877,-261.464 675,-244 676.264,-243.744 677.55,-243.477 678.848,-243.203"/>
<polygon fill="midnightblue" stroke="midnightblue" points="679.849,-246.567 688.868,-241.008 678.35,-239.729 679.849,-246.567"/>
</g>
<!-- Node13 -->
<g id="node14" class="node"><title>Node13</title>
<g id="a_node14"><a xlink:href="_creature_8h.html" target="_top" xlink:title="Creature.h">
<polygon fill="none" stroke="black" points="522,-168.5 522,-187.5 584,-187.5 584,-168.5 522,-168.5"/>
<text text-anchor="middle" x="553" y="-175.5" font-family="Helvetica,sans-Serif" font-size="10.00">Creature.h</text>
</a>
</g>
</g>
<!-- Node11&#45;&gt;Node13 -->
<g id="edge20" class="edge"><title>Node11&#45;&gt;Node13</title>
<path fill="none" stroke="midnightblue" d="M440.56,-281.368C459.973,-274 487.94,-261.398 508,-244 523.352,-230.685 535.999,-211.029 543.934,-196.821"/>
<polygon fill="midnightblue" stroke="midnightblue" points="547.231,-198.076 548.851,-187.606 541.055,-194.781 547.231,-198.076"/>
</g>
<!-- Node14 -->
<g id="node15" class="node"><title>Node14</title>
<g id="a_node15"><a xlink:href="_inventory_8h.html" target="_top" xlink:title="Inventory.h">
<polygon fill="none" stroke="black" points="432.5,-112.5 432.5,-131.5 495.5,-131.5 495.5,-112.5 432.5,-112.5"/>
<text text-anchor="middle" x="464" y="-119.5" font-family="Helvetica,sans-Serif" font-size="10.00">Inventory.h</text>
</a>
</g>
</g>
<!-- Node11&#45;&gt;Node14 -->
<g id="edge23" class="edge"><title>Node11&#45;&gt;Node14</title>
<path fill="none" stroke="midnightblue" d="M420.795,-280.406C423.703,-271.375 428.336,-256.738 432,-244 442.423,-207.765 453.418,-165.06 459.421,-141.304"/>
<polygon fill="midnightblue" stroke="midnightblue" points="462.831,-142.095 461.875,-131.543 456.042,-140.388 462.831,-142.095"/>
</g>
<!-- Node16 -->
<g id="node17" class="node"><title>Node16</title>
<g id="a_node17"><a xlink:href="_armour_8h.html" target="_top" xlink:title="Armour.h">
<polygon fill="none" stroke="black" points="334,-224.5 334,-243.5 390,-243.5 390,-224.5 334,-224.5"/>
<text text-anchor="middle" x="362" y="-231.5" font-family="Helvetica,sans-Serif" font-size="10.00">Armour.h</text>
</a>
</g>
</g>
<!-- Node11&#45;&gt;Node16 -->
<g id="edge29" class="edge"><title>Node11&#45;&gt;Node16</title>
<path fill="none" stroke="midnightblue" d="M409.003,-280.324C400.806,-272.42 388.494,-260.548 378.528,-250.938"/>
<polygon fill="midnightblue" stroke="midnightblue" points="380.789,-248.256 371.161,-243.834 375.93,-253.295 380.789,-248.256"/>
</g>
<!-- Node17 -->
<g id="node18" class="node"><title>Node17</title>
<g id="a_node18"><a xlink:href="_item_8h.html" target="_top" xlink:title="Item.h">
<polygon fill="none" stroke="black" points="268,-168.5 268,-187.5 312,-187.5 312,-168.5 268,-168.5"/>
<text text-anchor="middle" x="290" y="-175.5" font-family="Helvetica,sans-Serif" font-size="10.00">Item.h</text>
</a>
</g>
</g>
<!-- Node11&#45;&gt;Node17 -->
<g id="edge39" class="edge"><title>Node11&#45;&gt;Node17</title>
<path fill="none" stroke="midnightblue" d="M395.279,-282.592C392.162,-281.718 389.003,-280.835 386,-280 327.826,-263.826 291.604,-292.02 255,-244 243.069,-228.347 258.045,-208.085 271.941,-194.375"/>
<polygon fill="midnightblue" stroke="midnightblue" points="274.407,-196.862 279.372,-187.503 269.654,-191.723 274.407,-196.862"/>
</g>
<!-- Node18 -->
<g id="node19" class="node"><title>Node18</title>
<g id="a_node19"><a xlink:href="_equipment_8h.html" target="_top" xlink:title="Equipment.h">
<polygon fill="none" stroke="black" points="190.5,-112.5 190.5,-131.5 261.5,-131.5 261.5,-112.5 190.5,-112.5"/>
<text text-anchor="middle" x="226" y="-119.5" font-family="Helvetica,sans-Serif" font-size="10.00">Equipment.h</text>
</a>
</g>
</g>
<!-- Node11&#45;&gt;Node18 -->
<g id="edge40" class="edge"><title>Node11&#45;&gt;Node18</title>
<path fill="none" stroke="midnightblue" d="M395.29,-282.55C392.172,-281.683 389.009,-280.813 386,-280 324.391,-263.36 290.247,-290.927 247,-244 221.198,-216.002 221.174,-168.188 223.52,-141.826"/>
<polygon fill="midnightblue" stroke="midnightblue" points="227.023,-141.99 224.642,-131.667 220.066,-141.222 227.023,-141.99"/>
</g>
<!-- Node19 -->
<g id="node20" class="node"><title>Node19</title>
<g id="a_node20"><a xlink:href="_hero_stats_8h.html" target="_top" xlink:title="HeroStats.h">
<polygon fill="none" stroke="black" points="104,-112.5 104,-131.5 172,-131.5 172,-112.5 104,-112.5"/>
<text text-anchor="middle" x="138" y="-119.5" font-family="Helvetica,sans-Serif" font-size="10.00">HeroStats.h</text>
</a>
</g>
</g>
<!-- Node11&#45;&gt;Node19 -->
<g id="edge41" class="edge"><title>Node11&#45;&gt;Node19</title>
<path fill="none" stroke="midnightblue" d="M395.309,-282.479C392.188,-281.623 389.019,-280.775 386,-280 317.497,-262.421 290.47,-282.275 231,-244 190.303,-217.808 160.335,-167.389 146.504,-140.652"/>
<polygon fill="midnightblue" stroke="midnightblue" points="149.611,-139.039 142.005,-131.664 143.351,-142.173 149.611,-139.039"/>
</g>
<!-- Node20 -->
<g id="node21" class="node"><title>Node20</title>
<g id="a_node21"><a xlink:href="_sword_8h.html" target="_top" xlink:title="Sword.h">
<polygon fill="none" stroke="black" points="264,-224.5 264,-243.5 316,-243.5 316,-224.5 264,-224.5"/>
<text text-anchor="middle" x="290" y="-231.5" font-family="Helvetica,sans-Serif" font-size="10.00">Sword.h</text>
</a>
</g>
</g>
<!-- Node11&#45;&gt;Node20 -->
<g id="edge37" class="edge"><title>Node11&#45;&gt;Node20</title>
<path fill="none" stroke="midnightblue" d="M397.718,-280.444C376.653,-271.557 343.483,-257.563 319.514,-247.451"/>
<polygon fill="midnightblue" stroke="midnightblue" points="320.761,-244.179 310.187,-243.516 318.04,-250.628 320.761,-244.179"/>
</g>
<!-- Node21 -->
<g id="node22" class="node"><title>Node21</title>
<g id="a_node22"><a xlink:href="_stream_decoder_8h.html" target="_top" xlink:title="StreamDecoder.h">
<polygon fill="none" stroke="black" points="514,-112.5 514,-131.5 606,-131.5 606,-112.5 514,-112.5"/>
<text text-anchor="middle" x="560" y="-119.5" font-family="Helvetica,sans-Serif" font-size="10.00">StreamDecoder.h</text>
</a>
</g>
</g>
<!-- Node11&#45;&gt;Node21 -->
<g id="edge42" class="edge"><title>Node11&#45;&gt;Node21</title>
<path fill="none" stroke="midnightblue" d="M424.061,-280.455C438.565,-260.2 476.767,-207.972 513,-168 522.389,-157.642 533.683,-146.783 542.847,-138.327"/>
<polygon fill="midnightblue" stroke="midnightblue" points="545.211,-140.908 550.25,-131.589 540.499,-135.732 545.211,-140.908"/>
</g>
<!-- Node13&#45;&gt;Node2 -->
<g id="edge21" class="edge"><title>Node13&#45;&gt;Node2</title>
<path fill="none" stroke="midnightblue" d="M521.956,-171.644C493.989,-165.635 452.81,-153.747 423,-132 388.89,-107.116 391.858,-89.378 366,-56 358.633,-46.4905 350.245,-35.9872 343.42,-27.5213"/>
<polygon fill="midnightblue" stroke="midnightblue" points="345.993,-25.1364 336.982,-19.5635 340.551,-29.5392 345.993,-25.1364"/>
</g>
<!-- Node13&#45;&gt;Node5 -->
<g id="edge22" class="edge"><title>Node13&#45;&gt;Node5</title>
<path fill="none" stroke="midnightblue" d="M583.106,-168.444C616.008,-159.092 668.804,-144.087 704.649,-133.9"/>
<polygon fill="midnightblue" stroke="midnightblue" points="705.616,-137.264 714.279,-131.163 703.703,-130.53 705.616,-137.264"/>
</g>
<!-- Node14&#45;&gt;Node2 -->
<g id="edge26" class="edge"><title>Node14&#45;&gt;Node2</title>
<path fill="none" stroke="midnightblue" d="M456.5,-112.434C444.893,-99.4332 421.555,-74.3008 399,-56 384.833,-44.5052 367.653,-33.2927 353.979,-24.9353"/>
<polygon fill="midnightblue" stroke="midnightblue" points="355.529,-21.7832 345.153,-19.6371 351.926,-27.7848 355.529,-21.7832"/>
</g>
<!-- Node14&#45;&gt;Node6 -->
<g id="edge25" class="edge"><title>Node14&#45;&gt;Node6</title>
<path fill="none" stroke="midnightblue" d="M463.393,-112.389C462.918,-98.3858 464.209,-70.7616 480,-56 512.109,-25.9843 643.587,-15.5925 704.612,-12.3394"/>
<polygon fill="midnightblue" stroke="midnightblue" points="704.993,-15.8247 714.805,-11.8279 704.642,-8.83353 704.993,-15.8247"/>
</g>
<!-- Node15 -->
<g id="node16" class="node"><title>Node15</title>
<polygon fill="none" stroke="#bfbfbf" points="489,-56.5 489,-75.5 519,-75.5 519,-56.5 489,-56.5"/>
<text text-anchor="middle" x="504" y="-63.5" font-family="Helvetica,sans-Serif" font-size="10.00">set</text>
</g>
<!-- Node14&#45;&gt;Node15 -->
<g id="edge24" class="edge"><title>Node14&#45;&gt;Node15</title>
<path fill="none" stroke="midnightblue" d="M470.605,-112.083C476.255,-104.455 484.545,-93.2645 491.451,-83.9408"/>
<polygon fill="midnightblue" stroke="midnightblue" points="494.378,-85.87 497.518,-75.7511 488.753,-81.7034 494.378,-85.87"/>
</g>
<!-- Node16&#45;&gt;Node17 -->
<g id="edge30" class="edge"><title>Node16&#45;&gt;Node17</title>
<path fill="none" stroke="midnightblue" d="M350.432,-224.324C339.58,-216.185 323.119,-203.839 310.117,-194.087"/>
<polygon fill="midnightblue" stroke="midnightblue" points="311.879,-191.034 301.779,-187.834 307.679,-196.634 311.879,-191.034"/>
</g>
<!-- Node17&#45;&gt;Node2 -->
<g id="edge32" class="edge"><title>Node17&#45;&gt;Node2</title>
<path fill="none" stroke="midnightblue" d="M288.495,-168.436C285.302,-148.139 279.286,-95.8262 294,-56 298.057,-45.0197 305.925,-34.6766 313.273,-26.6818"/>
<polygon fill="midnightblue" stroke="midnightblue" points="315.782,-29.1221 320.288,-19.5331 310.786,-24.2194 315.782,-29.1221"/>
</g>
<!-- Node17&#45;&gt;Node5 -->
<g id="edge33" class="edge"><title>Node17&#45;&gt;Node5</title>
<path fill="none" stroke="midnightblue" d="M312.156,-174.359C384.25,-165.765 612.773,-138.524 704.424,-127.599"/>
<polygon fill="midnightblue" stroke="midnightblue" points="704.878,-131.069 714.393,-126.41 704.049,-124.118 704.878,-131.069"/>
</g>
<!-- Node17&#45;&gt;Node7 -->
<g id="edge31" class="edge"><title>Node17&#45;&gt;Node7</title>
<path fill="none" stroke="midnightblue" d="M293.139,-168.368C299.623,-150.537 314.62,-109.295 323.356,-85.2717"/>
<polygon fill="midnightblue" stroke="midnightblue" points="326.748,-86.1855 326.876,-75.5914 320.169,-83.7932 326.748,-86.1855"/>
</g>
<!-- Node17&#45;&gt;Node18 -->
<g id="edge34" class="edge"><title>Node17&#45;&gt;Node18</title>
<path fill="none" stroke="midnightblue" d="M279.717,-168.324C270.164,-160.263 255.72,-148.077 244.216,-138.369"/>
<polygon fill="midnightblue" stroke="midnightblue" points="246.37,-135.608 236.47,-131.834 241.856,-140.958 246.37,-135.608"/>
</g>
<!-- Node17&#45;&gt;Node19 -->
<g id="edge35" class="edge"><title>Node17&#45;&gt;Node19</title>
<path fill="none" stroke="midnightblue" d="M267.898,-169.148C242.598,-160.16 200.882,-145.339 171.564,-134.924"/>
<polygon fill="midnightblue" stroke="midnightblue" points="172.733,-131.625 162.139,-131.576 170.39,-138.221 172.733,-131.625"/>
</g>
<!-- Node19&#45;&gt;Node2 -->
<g id="edge36" class="edge"><title>Node19&#45;&gt;Node2</title>
<path fill="none" stroke="midnightblue" d="M153.066,-112.368C186.294,-93.3318 266.09,-47.6153 306.174,-24.6505"/>
<polygon fill="midnightblue" stroke="midnightblue" points="308.067,-27.5995 315.004,-19.5914 304.587,-21.5257 308.067,-27.5995"/>
</g>
<!-- Node20&#45;&gt;Node17 -->
<g id="edge38" class="edge"><title>Node20&#45;&gt;Node17</title>
<path fill="none" stroke="midnightblue" d="M290,-224.083C290,-217.006 290,-206.861 290,-197.986"/>
<polygon fill="midnightblue" stroke="midnightblue" points="293.5,-197.751 290,-187.751 286.5,-197.751 293.5,-197.751"/>
</g>
<!-- Node21&#45;&gt;Node2 -->
<g id="edge43" class="edge"><title>Node21&#45;&gt;Node2</title>
<path fill="none" stroke="midnightblue" d="M558.249,-112.33C554.934,-98.2421 546.361,-70.4988 528,-56 479.008,-17.3132 403.052,-10.6161 360.879,-10.1634"/>
<polygon fill="midnightblue" stroke="midnightblue" points="360.671,-6.66342 350.673,-10.1701 360.676,-13.6634 360.671,-6.66342"/>
</g>
<!-- Node21&#45;&gt;Node6 -->
<g id="edge45" class="edge"><title>Node21&#45;&gt;Node6</title>
<path fill="none" stroke="midnightblue" d="M574.965,-112.387C590.372,-103.461 615.024,-89.0191 636,-76 663.462,-58.9552 694.613,-38.5302 714.744,-25.1842"/>
<polygon fill="midnightblue" stroke="midnightblue" points="716.774,-28.0377 723.166,-19.5879 712.9,-22.2076 716.774,-28.0377"/>
</g>
<!-- Node21&#45;&gt;Node9 -->
<g id="edge47" class="edge"><title>Node21&#45;&gt;Node9</title>
<path fill="none" stroke="midnightblue" d="M584.877,-112.444C611.289,-103.359 653.215,-88.9388 682.742,-78.7831"/>
<polygon fill="midnightblue" stroke="midnightblue" points="683.921,-82.0787 692.239,-75.5164 681.645,-75.4593 683.921,-82.0787"/>
</g>
<!-- Node21&#45;&gt;Node15 -->
<g id="edge46" class="edge"><title>Node21&#45;&gt;Node15</title>
<path fill="none" stroke="midnightblue" d="M551.003,-112.324C542.806,-104.42 530.494,-92.5482 520.528,-82.9377"/>
<polygon fill="midnightblue" stroke="midnightblue" points="522.789,-80.2558 513.161,-75.8339 517.93,-85.2947 522.789,-80.2558"/>
</g>
<!-- Node22 -->
<g id="node23" class="node"><title>Node22</title>
<polygon fill="none" stroke="#bfbfbf" points="575,-56.5 575,-75.5 627,-75.5 627,-56.5 575,-56.5"/>
<text text-anchor="middle" x="601" y="-63.5" font-family="Helvetica,sans-Serif" font-size="10.00">sstream</text>
</g>
<!-- Node21&#45;&gt;Node22 -->
<g id="edge44" class="edge"><title>Node21&#45;&gt;Node22</title>
<path fill="none" stroke="midnightblue" d="M566.77,-112.083C572.562,-104.455 581.058,-93.2645 588.138,-83.9408"/>
<polygon fill="midnightblue" stroke="midnightblue" points="591.096,-85.8321 594.356,-75.7511 585.521,-81.5991 591.096,-85.8321"/>
</g>
</g>
</svg>
