<?xml version="1.0" encoding="UTF-8" standalone="no"?>
<!DOCTYPE svg PUBLIC "-//W3C//DTD SVG 1.1//EN"
 "http://www.w3.org/Graphics/SVG/1.1/DTD/svg11.dtd">
<!-- Generated by graphviz version 2.38.0 (20140413.2041)
 -->
<!-- Title: E:/Dropbox/BI_FIT_CVUT/2. semestr/PA2/GameBook/Creature.h Pages: 1 -->
<svg width="1106pt" height="596pt"
 viewBox="0.00 0.00 1105.96 596.00" xmlns="http://www.w3.org/2000/svg" xmlns:xlink="http://www.w3.org/1999/xlink">
<g id="graph0" class="graph" transform="scale(1 1) rotate(0) translate(4 592)">
<title>E:/Dropbox/BI_FIT_CVUT/2. semestr/PA2/GameBook/Creature.h</title>
<!-- Node8 -->
<g id="node1" class="node"><title>Node8</title>
<polygon fill="#bfbfbf" stroke="black" points="859.957,-546.5 859.957,-587.5 999.957,-587.5 999.957,-546.5 859.957,-546.5"/>
<text text-anchor="start" x="867.957" y="-575.5" font-family="Helvetica,sans-Serif" font-size="10.00">E:/Dropbox/BI_FIT_CVUT</text>
<text text-anchor="start" x="867.957" y="-564.5" font-family="Helvetica,sans-Serif" font-size="10.00">/2. semestr/PA2/GameBook</text>
<text text-anchor="middle" x="929.957" y="-553.5" font-family="Helvetica,sans-Serif" font-size="10.00">/Creature.h</text>
</g>
<!-- Node9 -->
<g id="node2" class="node"><title>Node9</title>
<g id="a_node2"><a xlink:href="_hero_8h.html" target="_top" xlink:title="E:/Dropbox/BI_FIT_CVUT\l/2. semestr/PA2/GameBook\l/Hero.h">
<polygon fill="none" stroke="black" points="437.957,-468.5 437.957,-509.5 577.957,-509.5 577.957,-468.5 437.957,-468.5"/>
<text text-anchor="start" x="445.957" y="-497.5" font-family="Helvetica,sans-Serif" font-size="10.00">E:/Dropbox/BI_FIT_CVUT</text>
<text text-anchor="start" x="445.957" y="-486.5" font-family="Helvetica,sans-Serif" font-size="10.00">/2. semestr/PA2/GameBook</text>
<text text-anchor="middle" x="507.957" y="-475.5" font-family="Helvetica,sans-Serif" font-size="10.00">/Hero.h</text>
</a>
</g>
</g>
<!-- Node8&#45;&gt;Node9 -->
<g id="edge1" class="edge"><title>Node8&#45;&gt;Node9</title>
<path fill="none" stroke="midnightblue" d="M849.483,-551.507C771.068,-537.385 653.04,-516.129 578.283,-502.665"/>
<polygon fill="midnightblue" stroke="midnightblue" points="849.336,-555.037 859.798,-553.365 850.577,-548.148 849.336,-555.037"/>
</g>
<!-- Node27 -->
<g id="node20" class="node"><title>Node27</title>
<g id="a_node20"><a xlink:href="_fight_8h.html" target="_top" xlink:title="E:/Dropbox/BI_FIT_CVUT\l/2. semestr/PA2/GameBook\l/Fight.h">
<polygon fill="none" stroke="black" points="723.957,-312.5 723.957,-353.5 863.957,-353.5 863.957,-312.5 723.957,-312.5"/>
<text text-anchor="start" x="731.957" y="-341.5" font-family="Helvetica,sans-Serif" font-size="10.00">E:/Dropbox/BI_FIT_CVUT</text>
<text text-anchor="start" x="731.957" y="-330.5" font-family="Helvetica,sans-Serif" font-size="10.00">/2. semestr/PA2/GameBook</text>
<text text-anchor="middle" x="793.957" y="-319.5" font-family="Helvetica,sans-Serif" font-size="10.00">/Fight.h</text>
</a>
</g>
</g>
<!-- Node8&#45;&gt;Node27 -->
<g id="edge35" class="edge"><title>Node8&#45;&gt;Node27</title>
<path fill="none" stroke="midnightblue" d="M913.142,-537.316C885.123,-489.518 829.586,-394.778 805.523,-353.73"/>
<polygon fill="midnightblue" stroke="midnightblue" points="910.285,-539.363 918.362,-546.22 916.324,-535.823 910.285,-539.363"/>
</g>
<!-- Node32 -->
<g id="node25" class="node"><title>Node32</title>
<g id="a_node25"><a xlink:href="_creature_8cpp.html" target="_top" xlink:title="E:/Dropbox/BI_FIT_CVUT\l/2. semestr/PA2/GameBook\l/Creature.cpp">
<polygon fill="none" stroke="black" points="957.957,-468.5 957.957,-509.5 1097.96,-509.5 1097.96,-468.5 957.957,-468.5"/>
<text text-anchor="start" x="965.957" y="-497.5" font-family="Helvetica,sans-Serif" font-size="10.00">E:/Dropbox/BI_FIT_CVUT</text>
<text text-anchor="start" x="965.957" y="-486.5" font-family="Helvetica,sans-Serif" font-size="10.00">/2. semestr/PA2/GameBook</text>
<text text-anchor="middle" x="1027.96" y="-475.5" font-family="Helvetica,sans-Serif" font-size="10.00">/Creature.cpp</text>
</a>
</g>
</g>
<!-- Node8&#45;&gt;Node32 -->
<g id="edge34" class="edge"><title>Node8&#45;&gt;Node32</title>
<path fill="none" stroke="midnightblue" d="M963.4,-540.065C976.304,-530.057 990.814,-518.804 1002.8,-509.506"/>
<polygon fill="midnightblue" stroke="midnightblue" points="960.952,-537.534 955.194,-546.428 965.241,-543.066 960.952,-537.534"/>
</g>
<!-- Node10 -->
<g id="node3" class="node"><title>Node10</title>
<g id="a_node3"><a xlink:href="_event_8h.html" target="_top" xlink:title="E:/Dropbox/BI_FIT_CVUT\l/2. semestr/PA2/GameBook\l/Event.h">
<polygon fill="none" stroke="black" points="358.957,-390.5 358.957,-431.5 498.957,-431.5 498.957,-390.5 358.957,-390.5"/>
<text text-anchor="start" x="366.957" y="-419.5" font-family="Helvetica,sans-Serif" font-size="10.00">E:/Dropbox/BI_FIT_CVUT</text>
<text text-anchor="start" x="366.957" y="-408.5" font-family="Helvetica,sans-Serif" font-size="10.00">/2. semestr/PA2/GameBook</text>
<text text-anchor="middle" x="428.957" y="-397.5" font-family="Helvetica,sans-Serif" font-size="10.00">/Event.h</text>
</a>
</g>
</g>
<!-- Node9&#45;&gt;Node10 -->
<g id="edge2" class="edge"><title>Node9&#45;&gt;Node10</title>
<path fill="none" stroke="midnightblue" d="M480.402,-461.492C470.151,-451.629 458.714,-440.627 449.232,-431.506"/>
<polygon fill="midnightblue" stroke="midnightblue" points="477.979,-464.017 487.612,-468.428 482.832,-458.973 477.979,-464.017"/>
</g>
<!-- Node17 -->
<g id="node10" class="node"><title>Node17</title>
<g id="a_node10"><a xlink:href="_shopping_8h.html" target="_top" xlink:title="E:/Dropbox/BI_FIT_CVUT\l/2. semestr/PA2/GameBook\l/Shopping.h">
<polygon fill="none" stroke="black" points="34.9569,-156.5 34.9569,-197.5 174.957,-197.5 174.957,-156.5 34.9569,-156.5"/>
<text text-anchor="start" x="42.9569" y="-185.5" font-family="Helvetica,sans-Serif" font-size="10.00">E:/Dropbox/BI_FIT_CVUT</text>
<text text-anchor="start" x="42.9569" y="-174.5" font-family="Helvetica,sans-Serif" font-size="10.00">/2. semestr/PA2/GameBook</text>
<text text-anchor="middle" x="104.957" y="-163.5" font-family="Helvetica,sans-Serif" font-size="10.00">/Shopping.h</text>
</a>
</g>
</g>
<!-- Node9&#45;&gt;Node17 -->
<g id="edge30" class="edge"><title>Node9&#45;&gt;Node17</title>
<path fill="none" stroke="midnightblue" d="M427.743,-483.565C323.951,-476.741 149.7,-461.276 92.9569,-432 9.60616,-388.996 -24.524,-316.572 19.9569,-234 28.3378,-218.442 43.1411,-206.494 58.0705,-197.709"/>
<polygon fill="midnightblue" stroke="midnightblue" points="427.666,-487.067 437.871,-484.218 428.117,-480.082 427.666,-487.067"/>
</g>
<!-- Node19 -->
<g id="node12" class="node"><title>Node19</title>
<g id="a_node12"><a xlink:href="_inventory_browser_8h.html" target="_top" xlink:title="E:/Dropbox/BI_FIT_CVUT\l/2. semestr/PA2/GameBook\l/InventoryBrowser.h">
<polygon fill="none" stroke="black" points="192.957,-156.5 192.957,-197.5 332.957,-197.5 332.957,-156.5 192.957,-156.5"/>
<text text-anchor="start" x="200.957" y="-185.5" font-family="Helvetica,sans-Serif" font-size="10.00">E:/Dropbox/BI_FIT_CVUT</text>
<text text-anchor="start" x="200.957" y="-174.5" font-family="Helvetica,sans-Serif" font-size="10.00">/2. semestr/PA2/GameBook</text>
<text text-anchor="middle" x="262.957" y="-163.5" font-family="Helvetica,sans-Serif" font-size="10.00">/InventoryBrowser.h</text>
</a>
</g>
</g>
<!-- Node9&#45;&gt;Node19 -->
<g id="edge31" class="edge"><title>Node9&#45;&gt;Node19</title>
<path fill="none" stroke="midnightblue" d="M427.545,-476.431C307.595,-457.344 90.9407,-415.179 44.9569,-354 12.9126,-311.367 12.2709,-276.144 44.9569,-234 45.5509,-233.234 129.239,-211.884 192.737,-195.773"/>
<polygon fill="midnightblue" stroke="midnightblue" points="427.358,-479.945 437.781,-478.041 428.446,-473.03 427.358,-479.945"/>
</g>
<!-- Node21 -->
<g id="node14" class="node"><title>Node21</title>
<g id="a_node14"><a xlink:href="_interact_8h.html" target="_top" xlink:title="E:/Dropbox/BI_FIT_CVUT\l/2. semestr/PA2/GameBook\l/Interact.h">
<polygon fill="none" stroke="black" points="576.957,-156.5 576.957,-197.5 716.957,-197.5 716.957,-156.5 576.957,-156.5"/>
<text text-anchor="start" x="584.957" y="-185.5" font-family="Helvetica,sans-Serif" font-size="10.00">E:/Dropbox/BI_FIT_CVUT</text>
<text text-anchor="start" x="584.957" y="-174.5" font-family="Helvetica,sans-Serif" font-size="10.00">/2. semestr/PA2/GameBook</text>
<text text-anchor="middle" x="646.957" y="-163.5" font-family="Helvetica,sans-Serif" font-size="10.00">/Interact.h</text>
</a>
</g>
</g>
<!-- Node9&#45;&gt;Node21 -->
<g id="edge32" class="edge"><title>Node9&#45;&gt;Node21</title>
<path fill="none" stroke="midnightblue" d="M588.045,-484.117C674.772,-475.113 809.23,-446.113 872.957,-354 903.3,-310.14 905.823,-276.003 872.957,-234 853.807,-209.526 776.141,-194.25 717.153,-185.952"/>
<polygon fill="midnightblue" stroke="midnightblue" points="587.59,-480.645 577.976,-485.095 588.267,-487.612 587.59,-480.645"/>
</g>
<!-- Node31 -->
<g id="node24" class="node"><title>Node31</title>
<g id="a_node24"><a xlink:href="_hero_8cpp.html" target="_top" xlink:title="E:/Dropbox/BI_FIT_CVUT\l/2. semestr/PA2/GameBook\l/Hero.cpp">
<polygon fill="none" stroke="black" points="516.957,-390.5 516.957,-431.5 656.957,-431.5 656.957,-390.5 516.957,-390.5"/>
<text text-anchor="start" x="524.957" y="-419.5" font-family="Helvetica,sans-Serif" font-size="10.00">E:/Dropbox/BI_FIT_CVUT</text>
<text text-anchor="start" x="524.957" y="-408.5" font-family="Helvetica,sans-Serif" font-size="10.00">/2. semestr/PA2/GameBook</text>
<text text-anchor="middle" x="586.957" y="-397.5" font-family="Helvetica,sans-Serif" font-size="10.00">/Hero.cpp</text>
</a>
</g>
</g>
<!-- Node9&#45;&gt;Node31 -->
<g id="edge33" class="edge"><title>Node9&#45;&gt;Node31</title>
<path fill="none" stroke="midnightblue" d="M535.512,-461.492C545.763,-451.629 557.199,-440.627 566.681,-431.506"/>
<polygon fill="midnightblue" stroke="midnightblue" points="533.081,-458.973 528.301,-468.428 537.934,-464.017 533.081,-458.973"/>
</g>
<!-- Node11 -->
<g id="node4" class="node"><title>Node11</title>
<g id="a_node4"><a xlink:href="_choice_8h.html" target="_top" xlink:title="E:/Dropbox/BI_FIT_CVUT\l/2. semestr/PA2/GameBook\l/Choice.h">
<polygon fill="none" stroke="black" points="53.9569,-312.5 53.9569,-353.5 193.957,-353.5 193.957,-312.5 53.9569,-312.5"/>
<text text-anchor="start" x="61.9569" y="-341.5" font-family="Helvetica,sans-Serif" font-size="10.00">E:/Dropbox/BI_FIT_CVUT</text>
<text text-anchor="start" x="61.9569" y="-330.5" font-family="Helvetica,sans-Serif" font-size="10.00">/2. semestr/PA2/GameBook</text>
<text text-anchor="middle" x="123.957" y="-319.5" font-family="Helvetica,sans-Serif" font-size="10.00">/Choice.h</text>
</a>
</g>
</g>
<!-- Node10&#45;&gt;Node11 -->
<g id="edge3" class="edge"><title>Node10&#45;&gt;Node11</title>
<path fill="none" stroke="midnightblue" d="M349.045,-390.303C305.789,-379.615 251.43,-366.141 202.957,-354 200.075,-353.278 197.134,-352.54 194.163,-351.793"/>
<polygon fill="midnightblue" stroke="midnightblue" points="348.396,-393.748 358.943,-392.748 350.075,-386.952 348.396,-393.748"/>
</g>
<!-- Node13 -->
<g id="node6" class="node"><title>Node13</title>
<g id="a_node6"><a xlink:href="_world_8h.html" target="_top" xlink:title="E:/Dropbox/BI_FIT_CVUT\l/2. semestr/PA2/GameBook\l/World.h">
<polygon fill="none" stroke="black" points="369.957,-234.5 369.957,-275.5 509.957,-275.5 509.957,-234.5 369.957,-234.5"/>
<text text-anchor="start" x="377.957" y="-263.5" font-family="Helvetica,sans-Serif" font-size="10.00">E:/Dropbox/BI_FIT_CVUT</text>
<text text-anchor="start" x="377.957" y="-252.5" font-family="Helvetica,sans-Serif" font-size="10.00">/2. semestr/PA2/GameBook</text>
<text text-anchor="middle" x="439.957" y="-241.5" font-family="Helvetica,sans-Serif" font-size="10.00">/World.h</text>
</a>
</g>
</g>
<!-- Node10&#45;&gt;Node13 -->
<g id="edge26" class="edge"><title>Node10&#45;&gt;Node13</title>
<path fill="none" stroke="midnightblue" d="M410.227,-381.501C405.615,-373 401.323,-363.427 398.957,-354 394.413,-335.895 393.156,-329.742 398.957,-312 403.338,-298.6 412.278,-285.751 420.696,-275.749"/>
<polygon fill="midnightblue" stroke="midnightblue" points="407.247,-383.34 415.28,-390.247 413.308,-379.838 407.247,-383.34"/>
</g>
<!-- Node24 -->
<g id="node17" class="node"><title>Node24</title>
<g id="a_node17"><a xlink:href="_dialogue_n_c_p_8h.html" target="_top" xlink:title="E:/Dropbox/BI_FIT_CVUT\l/2. semestr/PA2/GameBook\l/DialogueNCP.h">
<polygon fill="none" stroke="black" points="407.957,-312.5 407.957,-353.5 547.957,-353.5 547.957,-312.5 407.957,-312.5"/>
<text text-anchor="start" x="415.957" y="-341.5" font-family="Helvetica,sans-Serif" font-size="10.00">E:/Dropbox/BI_FIT_CVUT</text>
<text text-anchor="start" x="415.957" y="-330.5" font-family="Helvetica,sans-Serif" font-size="10.00">/2. semestr/PA2/GameBook</text>
<text text-anchor="middle" x="477.957" y="-319.5" font-family="Helvetica,sans-Serif" font-size="10.00">/DialogueNCP.h</text>
</a>
</g>
</g>
<!-- Node10&#45;&gt;Node24 -->
<g id="edge19" class="edge"><title>Node10&#45;&gt;Node24</title>
<path fill="none" stroke="midnightblue" d="M447.166,-381.757C453.229,-372.354 459.842,-362.096 465.381,-353.506"/>
<polygon fill="midnightblue" stroke="midnightblue" points="444.053,-380.127 441.576,-390.428 449.936,-383.92 444.053,-380.127"/>
</g>
<!-- Node26 -->
<g id="node19" class="node"><title>Node26</title>
<g id="a_node19"><a xlink:href="_event_8cpp.html" target="_top" xlink:title="E:/Dropbox/BI_FIT_CVUT\l/2. semestr/PA2/GameBook\l/Event.cpp">
<polygon fill="none" stroke="black" points="565.957,-312.5 565.957,-353.5 705.957,-353.5 705.957,-312.5 565.957,-312.5"/>
<text text-anchor="start" x="573.957" y="-341.5" font-family="Helvetica,sans-Serif" font-size="10.00">E:/Dropbox/BI_FIT_CVUT</text>
<text text-anchor="start" x="573.957" y="-330.5" font-family="Helvetica,sans-Serif" font-size="10.00">/2. semestr/PA2/GameBook</text>
<text text-anchor="middle" x="635.957" y="-319.5" font-family="Helvetica,sans-Serif" font-size="10.00">/Event.cpp</text>
</a>
</g>
</g>
<!-- Node10&#45;&gt;Node26 -->
<g id="edge22" class="edge"><title>Node10&#45;&gt;Node26</title>
<path fill="none" stroke="midnightblue" d="M491.908,-386.887C520.967,-376.219 555.09,-363.69 582.83,-353.506"/>
<polygon fill="midnightblue" stroke="midnightblue" points="490.445,-383.696 482.264,-390.428 492.858,-390.267 490.445,-383.696"/>
</g>
<!-- Node10&#45;&gt;Node27 -->
<g id="edge23" class="edge"><title>Node10&#45;&gt;Node27</title>
<path fill="none" stroke="midnightblue" d="M509.116,-389.835C601.027,-370.702 626.75,-372.807 714.957,-354 717.863,-353.38 720.823,-352.728 723.81,-352.052"/>
<polygon fill="midnightblue" stroke="midnightblue" points="508.165,-386.458 499.104,-391.948 509.611,-393.308 508.165,-386.458"/>
</g>
<!-- Node29 -->
<g id="node22" class="node"><title>Node29</title>
<g id="a_node22"><a xlink:href="_trap_8h.html" target="_top" xlink:title="E:/Dropbox/BI_FIT_CVUT\l/2. semestr/PA2/GameBook\l/Trap.h">
<polygon fill="none" stroke="black" points="211.957,-312.5 211.957,-353.5 351.957,-353.5 351.957,-312.5 211.957,-312.5"/>
<text text-anchor="start" x="219.957" y="-341.5" font-family="Helvetica,sans-Serif" font-size="10.00">E:/Dropbox/BI_FIT_CVUT</text>
<text text-anchor="start" x="219.957" y="-330.5" font-family="Helvetica,sans-Serif" font-size="10.00">/2. semestr/PA2/GameBook</text>
<text text-anchor="middle" x="281.957" y="-319.5" font-family="Helvetica,sans-Serif" font-size="10.00">/Trap.h</text>
</a>
</g>
</g>
<!-- Node10&#45;&gt;Node29 -->
<g id="edge27" class="edge"><title>Node10&#45;&gt;Node29</title>
<path fill="none" stroke="midnightblue" d="M382.086,-385.768C361.936,-375.35 338.699,-363.336 319.685,-353.506"/>
<polygon fill="midnightblue" stroke="midnightblue" points="380.61,-388.945 391.101,-390.428 383.825,-382.726 380.61,-388.945"/>
</g>
<!-- Node12 -->
<g id="node5" class="node"><title>Node12</title>
<g id="a_node5"><a xlink:href="_choice_8cpp.html" target="_top" xlink:title="E:/Dropbox/BI_FIT_CVUT\l/2. semestr/PA2/GameBook\l/Choice.cpp">
<polygon fill="none" stroke="black" points="53.9569,-234.5 53.9569,-275.5 193.957,-275.5 193.957,-234.5 53.9569,-234.5"/>
<text text-anchor="start" x="61.9569" y="-263.5" font-family="Helvetica,sans-Serif" font-size="10.00">E:/Dropbox/BI_FIT_CVUT</text>
<text text-anchor="start" x="61.9569" y="-252.5" font-family="Helvetica,sans-Serif" font-size="10.00">/2. semestr/PA2/GameBook</text>
<text text-anchor="middle" x="123.957" y="-241.5" font-family="Helvetica,sans-Serif" font-size="10.00">/Choice.cpp</text>
</a>
</g>
</g>
<!-- Node11&#45;&gt;Node12 -->
<g id="edge4" class="edge"><title>Node11&#45;&gt;Node12</title>
<path fill="none" stroke="midnightblue" d="M123.957,-302.297C123.957,-293.301 123.957,-283.653 123.957,-275.506"/>
<polygon fill="midnightblue" stroke="midnightblue" points="120.457,-302.428 123.957,-312.428 127.457,-302.428 120.457,-302.428"/>
</g>
<!-- Node11&#45;&gt;Node13 -->
<g id="edge5" class="edge"><title>Node11&#45;&gt;Node13</title>
<path fill="none" stroke="midnightblue" d="M203.981,-311.781C274.621,-294.935 293.94,-292.116 360.957,-276 363.846,-275.305 366.792,-274.59 369.767,-273.862"/>
<polygon fill="midnightblue" stroke="midnightblue" points="203.056,-308.404 194.147,-314.138 204.687,-315.211 203.056,-308.404"/>
</g>
<!-- Node14 -->
<g id="node7" class="node"><title>Node14</title>
<g id="a_node7"><a xlink:href="_game_8h.html" target="_top" xlink:title="E:/Dropbox/BI_FIT_CVUT\l/2. semestr/PA2/GameBook\l/Game.h">
<polygon fill="none" stroke="black" points="335.957,-78.5 335.957,-119.5 475.957,-119.5 475.957,-78.5 335.957,-78.5"/>
<text text-anchor="start" x="343.957" y="-107.5" font-family="Helvetica,sans-Serif" font-size="10.00">E:/Dropbox/BI_FIT_CVUT</text>
<text text-anchor="start" x="343.957" y="-96.5" font-family="Helvetica,sans-Serif" font-size="10.00">/2. semestr/PA2/GameBook</text>
<text text-anchor="middle" x="405.957" y="-85.5" font-family="Helvetica,sans-Serif" font-size="10.00">/Game.h</text>
</a>
</g>
</g>
<!-- Node13&#45;&gt;Node14 -->
<g id="edge6" class="edge"><title>Node13&#45;&gt;Node14</title>
<path fill="none" stroke="midnightblue" d="M421.589,-225.649C416.939,-217.094 412.536,-207.455 409.957,-198 402.742,-171.551 403.02,-139.609 404.22,-119.544"/>
<polygon fill="midnightblue" stroke="midnightblue" points="418.633,-227.529 426.658,-234.447 424.699,-224.035 418.633,-227.529"/>
</g>
<!-- Node13&#45;&gt;Node17 -->
<g id="edge9" class="edge"><title>Node13&#45;&gt;Node17</title>
<path fill="none" stroke="midnightblue" d="M359.878,-233.807C281.003,-216.095 259.166,-215.158 183.957,-198 181.06,-197.339 178.107,-196.652 175.127,-195.948"/>
<polygon fill="midnightblue" stroke="midnightblue" points="359.261,-237.256 369.787,-236.052 360.808,-230.429 359.261,-237.256"/>
</g>
<!-- Node13&#45;&gt;Node19 -->
<g id="edge12" class="edge"><title>Node13&#45;&gt;Node19</title>
<path fill="none" stroke="midnightblue" d="M385.154,-230.469C360.521,-219.892 331.794,-207.557 308.384,-197.506"/>
<polygon fill="midnightblue" stroke="midnightblue" points="383.805,-233.699 394.375,-234.428 386.567,-227.267 383.805,-233.699"/>
</g>
<!-- Node13&#45;&gt;Node21 -->
<g id="edge15" class="edge"><title>Node13&#45;&gt;Node21</title>
<path fill="none" stroke="midnightblue" d="M502.908,-230.887C531.967,-220.219 566.09,-207.69 593.83,-197.506"/>
<polygon fill="midnightblue" stroke="midnightblue" points="501.445,-227.696 493.264,-234.428 503.858,-234.267 501.445,-227.696"/>
</g>
<!-- Node23 -->
<g id="node16" class="node"><title>Node23</title>
<g id="a_node16"><a xlink:href="_world_8cpp.html" target="_top" xlink:title="E:/Dropbox/BI_FIT_CVUT\l/2. semestr/PA2/GameBook\l/World.cpp">
<polygon fill="none" stroke="black" points="418.957,-156.5 418.957,-197.5 558.957,-197.5 558.957,-156.5 418.957,-156.5"/>
<text text-anchor="start" x="426.957" y="-185.5" font-family="Helvetica,sans-Serif" font-size="10.00">E:/Dropbox/BI_FIT_CVUT</text>
<text text-anchor="start" x="426.957" y="-174.5" font-family="Helvetica,sans-Serif" font-size="10.00">/2. semestr/PA2/GameBook</text>
<text text-anchor="middle" x="488.957" y="-163.5" font-family="Helvetica,sans-Serif" font-size="10.00">/World.cpp</text>
</a>
</g>
</g>
<!-- Node13&#45;&gt;Node23 -->
<g id="edge18" class="edge"><title>Node13&#45;&gt;Node23</title>
<path fill="none" stroke="midnightblue" d="M458.166,-225.757C464.229,-216.354 470.842,-206.096 476.381,-197.506"/>
<polygon fill="midnightblue" stroke="midnightblue" points="455.053,-224.127 452.576,-234.428 460.936,-227.92 455.053,-224.127"/>
</g>
<!-- Node15 -->
<g id="node8" class="node"><title>Node15</title>
<g id="a_node8"><a xlink:href="_game_8cpp.html" target="_top" xlink:title="E:/Dropbox/BI_FIT_CVUT\l/2. semestr/PA2/GameBook\l/Game.cpp">
<polygon fill="none" stroke="black" points="256.957,-0.5 256.957,-41.5 396.957,-41.5 396.957,-0.5 256.957,-0.5"/>
<text text-anchor="start" x="264.957" y="-29.5" font-family="Helvetica,sans-Serif" font-size="10.00">E:/Dropbox/BI_FIT_CVUT</text>
<text text-anchor="start" x="264.957" y="-18.5" font-family="Helvetica,sans-Serif" font-size="10.00">/2. semestr/PA2/GameBook</text>
<text text-anchor="middle" x="326.957" y="-7.5" font-family="Helvetica,sans-Serif" font-size="10.00">/Game.cpp</text>
</a>
</g>
</g>
<!-- Node14&#45;&gt;Node15 -->
<g id="edge7" class="edge"><title>Node14&#45;&gt;Node15</title>
<path fill="none" stroke="midnightblue" d="M378.402,-71.4916C368.151,-61.6294 356.714,-50.6273 347.232,-41.5056"/>
<polygon fill="midnightblue" stroke="midnightblue" points="375.979,-74.0175 385.612,-78.4281 380.832,-68.9729 375.979,-74.0175"/>
</g>
<!-- Node16 -->
<g id="node9" class="node"><title>Node16</title>
<g id="a_node9"><a xlink:href="main_8cpp.html" target="_top" xlink:title="E:/Dropbox/BI_FIT_CVUT\l/2. semestr/PA2/GameBook\l/main.cpp">
<polygon fill="none" stroke="black" points="414.957,-0.5 414.957,-41.5 554.957,-41.5 554.957,-0.5 414.957,-0.5"/>
<text text-anchor="start" x="422.957" y="-29.5" font-family="Helvetica,sans-Serif" font-size="10.00">E:/Dropbox/BI_FIT_CVUT</text>
<text text-anchor="start" x="422.957" y="-18.5" font-family="Helvetica,sans-Serif" font-size="10.00">/2. semestr/PA2/GameBook</text>
<text text-anchor="middle" x="484.957" y="-7.5" font-family="Helvetica,sans-Serif" font-size="10.00">/main.cpp</text>
</a>
</g>
</g>
<!-- Node14&#45;&gt;Node16 -->
<g id="edge8" class="edge"><title>Node14&#45;&gt;Node16</title>
<path fill="none" stroke="midnightblue" d="M433.512,-71.4916C443.763,-61.6294 455.199,-50.6273 464.681,-41.5056"/>
<polygon fill="midnightblue" stroke="midnightblue" points="431.081,-68.9729 426.301,-78.4281 435.934,-74.0175 431.081,-68.9729"/>
</g>
<!-- Node17&#45;&gt;Node14 -->
<g id="edge10" class="edge"><title>Node17&#45;&gt;Node14</title>
<path fill="none" stroke="midnightblue" d="M184.978,-155.744C249.098,-139.564 266.391,-135.29 326.957,-120 329.838,-119.273 332.777,-118.53 335.747,-117.78"/>
<polygon fill="midnightblue" stroke="midnightblue" points="184.006,-152.379 175.167,-158.22 185.719,-159.166 184.006,-152.379"/>
</g>
<!-- Node18 -->
<g id="node11" class="node"><title>Node18</title>
<g id="a_node11"><a xlink:href="_shopping_8cpp.html" target="_top" xlink:title="E:/Dropbox/BI_FIT_CVUT\l/2. semestr/PA2/GameBook\l/Shopping.cpp">
<polygon fill="none" stroke="black" points="19.9569,-78.5 19.9569,-119.5 159.957,-119.5 159.957,-78.5 19.9569,-78.5"/>
<text text-anchor="start" x="27.9569" y="-107.5" font-family="Helvetica,sans-Serif" font-size="10.00">E:/Dropbox/BI_FIT_CVUT</text>
<text text-anchor="start" x="27.9569" y="-96.5" font-family="Helvetica,sans-Serif" font-size="10.00">/2. semestr/PA2/GameBook</text>
<text text-anchor="middle" x="89.9569" y="-85.5" font-family="Helvetica,sans-Serif" font-size="10.00">/Shopping.cpp</text>
</a>
</g>
</g>
<!-- Node17&#45;&gt;Node18 -->
<g id="edge11" class="edge"><title>Node17&#45;&gt;Node18</title>
<path fill="none" stroke="midnightblue" d="M99.1522,-146.59C97.3603,-137.511 95.4322,-127.742 93.8066,-119.506"/>
<polygon fill="midnightblue" stroke="midnightblue" points="95.7238,-147.295 101.094,-156.428 102.591,-145.94 95.7238,-147.295"/>
</g>
<!-- Node19&#45;&gt;Node14 -->
<g id="edge13" class="edge"><title>Node19&#45;&gt;Node14</title>
<path fill="none" stroke="midnightblue" d="M308.817,-151.627C328.357,-141.242 350.843,-129.292 369.256,-119.506"/>
<polygon fill="midnightblue" stroke="midnightblue" points="306.971,-148.644 299.783,-156.428 310.256,-154.826 306.971,-148.644"/>
</g>
<!-- Node20 -->
<g id="node13" class="node"><title>Node20</title>
<g id="a_node13"><a xlink:href="_inventory_browser_8cpp.html" target="_top" xlink:title="E:/Dropbox/BI_FIT_CVUT\l/2. semestr/PA2/GameBook\l/InventoryBrowser.cpp">
<polygon fill="none" stroke="black" points="177.957,-78.5 177.957,-119.5 317.957,-119.5 317.957,-78.5 177.957,-78.5"/>
<text text-anchor="start" x="185.957" y="-107.5" font-family="Helvetica,sans-Serif" font-size="10.00">E:/Dropbox/BI_FIT_CVUT</text>
<text text-anchor="start" x="185.957" y="-96.5" font-family="Helvetica,sans-Serif" font-size="10.00">/2. semestr/PA2/GameBook</text>
<text text-anchor="middle" x="247.957" y="-85.5" font-family="Helvetica,sans-Serif" font-size="10.00">/InventoryBrowser.cpp</text>
</a>
</g>
</g>
<!-- Node19&#45;&gt;Node20 -->
<g id="edge14" class="edge"><title>Node19&#45;&gt;Node20</title>
<path fill="none" stroke="midnightblue" d="M257.152,-146.59C255.36,-137.511 253.432,-127.742 251.807,-119.506"/>
<polygon fill="midnightblue" stroke="midnightblue" points="253.724,-147.295 259.094,-156.428 260.591,-145.94 253.724,-147.295"/>
</g>
<!-- Node21&#45;&gt;Node14 -->
<g id="edge16" class="edge"><title>Node21&#45;&gt;Node14</title>
<path fill="none" stroke="midnightblue" d="M574.986,-153.304C540.872,-142.546 500.527,-129.823 467.81,-119.506"/>
<polygon fill="midnightblue" stroke="midnightblue" points="574.304,-156.758 584.893,-156.428 576.409,-150.083 574.304,-156.758"/>
</g>
<!-- Node22 -->
<g id="node15" class="node"><title>Node22</title>
<g id="a_node15"><a xlink:href="_interact_8cpp.html" target="_top" xlink:title="E:/Dropbox/BI_FIT_CVUT\l/2. semestr/PA2/GameBook\l/Interact.cpp">
<polygon fill="none" stroke="black" points="576.957,-78.5 576.957,-119.5 716.957,-119.5 716.957,-78.5 576.957,-78.5"/>
<text text-anchor="start" x="584.957" y="-107.5" font-family="Helvetica,sans-Serif" font-size="10.00">E:/Dropbox/BI_FIT_CVUT</text>
<text text-anchor="start" x="584.957" y="-96.5" font-family="Helvetica,sans-Serif" font-size="10.00">/2. semestr/PA2/GameBook</text>
<text text-anchor="middle" x="646.957" y="-85.5" font-family="Helvetica,sans-Serif" font-size="10.00">/Interact.cpp</text>
</a>
</g>
</g>
<!-- Node21&#45;&gt;Node22 -->
<g id="edge17" class="edge"><title>Node21&#45;&gt;Node22</title>
<path fill="none" stroke="midnightblue" d="M646.957,-146.297C646.957,-137.301 646.957,-127.653 646.957,-119.506"/>
<polygon fill="midnightblue" stroke="midnightblue" points="643.457,-146.428 646.957,-156.428 650.457,-146.428 643.457,-146.428"/>
</g>
<!-- Node24&#45;&gt;Node13 -->
<g id="edge21" class="edge"><title>Node24&#45;&gt;Node13</title>
<path fill="none" stroke="midnightblue" d="M463.69,-303.466C459.028,-294.143 453.961,-284.007 449.71,-275.506"/>
<polygon fill="midnightblue" stroke="midnightblue" points="460.568,-305.049 468.171,-312.428 466.829,-301.919 460.568,-305.049"/>
</g>
<!-- Node25 -->
<g id="node18" class="node"><title>Node25</title>
<g id="a_node18"><a xlink:href="_dialogue_n_c_p_8cpp.html" target="_top" xlink:title="E:/Dropbox/BI_FIT_CVUT\l/2. semestr/PA2/GameBook\l/DialogueNCP.cpp">
<polygon fill="none" stroke="black" points="527.957,-234.5 527.957,-275.5 667.957,-275.5 667.957,-234.5 527.957,-234.5"/>
<text text-anchor="start" x="535.957" y="-263.5" font-family="Helvetica,sans-Serif" font-size="10.00">E:/Dropbox/BI_FIT_CVUT</text>
<text text-anchor="start" x="535.957" y="-252.5" font-family="Helvetica,sans-Serif" font-size="10.00">/2. semestr/PA2/GameBook</text>
<text text-anchor="middle" x="597.957" y="-241.5" font-family="Helvetica,sans-Serif" font-size="10.00">/DialogueNCP.cpp</text>
</a>
</g>
</g>
<!-- Node24&#45;&gt;Node25 -->
<g id="edge20" class="edge"><title>Node24&#45;&gt;Node25</title>
<path fill="none" stroke="midnightblue" d="M517.558,-306.919C533.691,-296.702 552.057,-285.07 567.159,-275.506"/>
<polygon fill="midnightblue" stroke="midnightblue" points="515.435,-304.121 508.86,-312.428 519.181,-310.034 515.435,-304.121"/>
</g>
<!-- Node27&#45;&gt;Node13 -->
<g id="edge25" class="edge"><title>Node27&#45;&gt;Node13</title>
<path fill="none" stroke="midnightblue" d="M714.006,-311.864C626.733,-293.219 602.448,-294.215 518.957,-276 516.054,-275.367 513.096,-274.703 510.111,-274.017"/>
<polygon fill="midnightblue" stroke="midnightblue" points="713.289,-315.29 723.803,-313.983 714.768,-308.448 713.289,-315.29"/>
</g>
<!-- Node28 -->
<g id="node21" class="node"><title>Node28</title>
<g id="a_node21"><a xlink:href="_fight_8cpp.html" target="_top" xlink:title="E:/Dropbox/BI_FIT_CVUT\l/2. semestr/PA2/GameBook\l/Fight.cpp">
<polygon fill="none" stroke="black" points="723.957,-234.5 723.957,-275.5 863.957,-275.5 863.957,-234.5 723.957,-234.5"/>
<text text-anchor="start" x="731.957" y="-263.5" font-family="Helvetica,sans-Serif" font-size="10.00">E:/Dropbox/BI_FIT_CVUT</text>
<text text-anchor="start" x="731.957" y="-252.5" font-family="Helvetica,sans-Serif" font-size="10.00">/2. semestr/PA2/GameBook</text>
<text text-anchor="middle" x="793.957" y="-241.5" font-family="Helvetica,sans-Serif" font-size="10.00">/Fight.cpp</text>
</a>
</g>
</g>
<!-- Node27&#45;&gt;Node28 -->
<g id="edge24" class="edge"><title>Node27&#45;&gt;Node28</title>
<path fill="none" stroke="midnightblue" d="M793.957,-302.297C793.957,-293.301 793.957,-283.653 793.957,-275.506"/>
<polygon fill="midnightblue" stroke="midnightblue" points="790.457,-302.428 793.957,-312.428 797.457,-302.428 790.457,-302.428"/>
</g>
<!-- Node29&#45;&gt;Node13 -->
<g id="edge28" class="edge"><title>Node29&#45;&gt;Node13</title>
<path fill="none" stroke="midnightblue" d="M331.75,-308.049C353.542,-297.566 378.785,-285.424 399.406,-275.506"/>
<polygon fill="midnightblue" stroke="midnightblue" points="330.14,-304.939 322.646,-312.428 333.175,-311.247 330.14,-304.939"/>
</g>
<!-- Node30 -->
<g id="node23" class="node"><title>Node30</title>
<g id="a_node23"><a xlink:href="_trap_8cpp.html" target="_top" xlink:title="E:/Dropbox/BI_FIT_CVUT\l/2. semestr/PA2/GameBook\l/Trap.cpp">
<polygon fill="none" stroke="black" points="211.957,-234.5 211.957,-275.5 351.957,-275.5 351.957,-234.5 211.957,-234.5"/>
<text text-anchor="start" x="219.957" y="-263.5" font-family="Helvetica,sans-Serif" font-size="10.00">E:/Dropbox/BI_FIT_CVUT</text>
<text text-anchor="start" x="219.957" y="-252.5" font-family="Helvetica,sans-Serif" font-size="10.00">/2. semestr/PA2/GameBook</text>
<text text-anchor="middle" x="281.957" y="-241.5" font-family="Helvetica,sans-Serif" font-size="10.00">/Trap.cpp</text>
</a>
</g>
</g>
<!-- Node29&#45;&gt;Node30 -->
<g id="edge29" class="edge"><title>Node29&#45;&gt;Node30</title>
<path fill="none" stroke="midnightblue" d="M281.957,-302.297C281.957,-293.301 281.957,-283.653 281.957,-275.506"/>
<polygon fill="midnightblue" stroke="midnightblue" points="278.457,-302.428 281.957,-312.428 285.457,-302.428 278.457,-302.428"/>
</g>
</g>
</svg>
