<?xml version="1.0" encoding="UTF-8" standalone="no"?>
<!DOCTYPE svg PUBLIC "-//W3C//DTD SVG 1.1//EN"
 "http://www.w3.org/Graphics/SVG/1.1/DTD/svg11.dtd">
<!-- Generated by graphviz version 2.38.0 (20140413.2041)
 -->
<!-- Title: E:/Dropbox/BI_FIT_CVUT/2. semestr/PA2/GameBook/Creature.cpp Pages: 1 -->
<svg width="368pt" height="274pt"
 viewBox="0.00 0.00 368.00 274.00" xmlns="http://www.w3.org/2000/svg" xmlns:xlink="http://www.w3.org/1999/xlink">
<g id="graph0" class="graph" transform="scale(1 1) rotate(0) translate(4 270)">
<title>E:/Dropbox/BI_FIT_CVUT/2. semestr/PA2/GameBook/Creature.cpp</title>
<!-- Node0 -->
<g id="node1" class="node"><title>Node0</title>
<polygon fill="#bfbfbf" stroke="black" points="0,-224.5 0,-265.5 140,-265.5 140,-224.5 0,-224.5"/>
<text text-anchor="start" x="8" y="-253.5" font-family="Helvetica,sans-Serif" font-size="10.00">E:/Dropbox/BI_FIT_CVUT</text>
<text text-anchor="start" x="8" y="-242.5" font-family="Helvetica,sans-Serif" font-size="10.00">/2. semestr/PA2/GameBook</text>
<text text-anchor="middle" x="70" y="-231.5" font-family="Helvetica,sans-Serif" font-size="10.00">/Creature.cpp</text>
</g>
<!-- Node1 -->
<g id="node2" class="node"><title>Node1</title>
<g id="a_node2"><a xlink:href="_creature_8h.html" target="_top" xlink:title="Creature.h">
<polygon fill="none" stroke="black" points="39,-168.5 39,-187.5 101,-187.5 101,-168.5 39,-168.5"/>
<text text-anchor="middle" x="70" y="-175.5" font-family="Helvetica,sans-Serif" font-size="10.00">Creature.h</text>
</a>
</g>
</g>
<!-- Node0&#45;&gt;Node1 -->
<g id="edge1" class="edge"><title>Node0&#45;&gt;Node1</title>
<path fill="none" stroke="midnightblue" d="M70,-224.498C70,-216.065 70,-206.235 70,-197.874"/>
<polygon fill="midnightblue" stroke="midnightblue" points="73.5001,-197.652 70,-187.652 66.5001,-197.653 73.5001,-197.652"/>
</g>
<!-- Node2 -->
<g id="node3" class="node"><title>Node2</title>
<polygon fill="none" stroke="#bfbfbf" points="1.5,-0.5 1.5,-19.5 42.5,-19.5 42.5,-0.5 1.5,-0.5"/>
<text text-anchor="middle" x="22" y="-7.5" font-family="Helvetica,sans-Serif" font-size="10.00">string</text>
</g>
<!-- Node1&#45;&gt;Node2 -->
<g id="edge2" class="edge"><title>Node1&#45;&gt;Node2</title>
<path fill="none" stroke="midnightblue" d="M65.0353,-168.445C55.4734,-151.476 34.6814,-112.075 26,-76 22.3173,-60.6967 21.4571,-42.8146 21.4387,-29.6845"/>
<polygon fill="midnightblue" stroke="midnightblue" points="24.9401,-29.6043 21.5893,-19.5533 17.9409,-29.5001 24.9401,-29.6043"/>
</g>
<!-- Node3 -->
<g id="node4" class="node"><title>Node3</title>
<g id="a_node4"><a xlink:href="_display_8h.html" target="_top" xlink:title="Display.h">
<polygon fill="none" stroke="black" points="127.5,-112.5 127.5,-131.5 184.5,-131.5 184.5,-112.5 127.5,-112.5"/>
<text text-anchor="middle" x="156" y="-119.5" font-family="Helvetica,sans-Serif" font-size="10.00">Display.h</text>
</a>
</g>
</g>
<!-- Node1&#45;&gt;Node3 -->
<g id="edge3" class="edge"><title>Node1&#45;&gt;Node3</title>
<path fill="none" stroke="midnightblue" d="M83.8174,-168.324C97.233,-159.9 117.824,-146.971 133.586,-137.074"/>
<polygon fill="midnightblue" stroke="midnightblue" points="135.609,-139.936 142.217,-131.655 131.887,-134.008 135.609,-139.936"/>
</g>
<!-- Node3&#45;&gt;Node2 -->
<g id="edge5" class="edge"><title>Node3&#45;&gt;Node2</title>
<path fill="none" stroke="midnightblue" d="M127.402,-117.06C101.344,-111.987 63.5789,-100.674 41,-76 29.4763,-63.4073 24.9124,-44.1912 23.1205,-29.9149"/>
<polygon fill="midnightblue" stroke="midnightblue" points="26.5872,-29.3882 22.1977,-19.7455 19.6159,-30.0209 26.5872,-29.3882"/>
</g>
<!-- Node4 -->
<g id="node5" class="node"><title>Node4</title>
<polygon fill="none" stroke="#bfbfbf" points="318,-0.5 318,-19.5 360,-19.5 360,-0.5 318,-0.5"/>
<text text-anchor="middle" x="339" y="-7.5" font-family="Helvetica,sans-Serif" font-size="10.00">vector</text>
</g>
<!-- Node3&#45;&gt;Node4 -->
<g id="edge4" class="edge"><title>Node3&#45;&gt;Node4</title>
<path fill="none" stroke="midnightblue" d="M184.561,-117.889C230.096,-112.293 315.963,-98.9267 335,-76 345.486,-63.3712 345.365,-44.16 343.295,-29.8946"/>
<polygon fill="midnightblue" stroke="midnightblue" points="346.672,-28.9146 341.382,-19.7346 339.793,-30.2095 346.672,-28.9146"/>
</g>
<!-- Node5 -->
<g id="node6" class="node"><title>Node5</title>
<polygon fill="none" stroke="#bfbfbf" points="50,-56.5 50,-75.5 104,-75.5 104,-56.5 50,-56.5"/>
<text text-anchor="middle" x="77" y="-63.5" font-family="Helvetica,sans-Serif" font-size="10.00">iostream</text>
</g>
<!-- Node3&#45;&gt;Node5 -->
<g id="edge6" class="edge"><title>Node3&#45;&gt;Node5</title>
<path fill="none" stroke="midnightblue" d="M143.307,-112.324C131.099,-103.979 112.422,-91.2122 97.9971,-81.3524"/>
<polygon fill="midnightblue" stroke="midnightblue" points="99.892,-78.4082 89.6612,-75.6545 95.9418,-84.1871 99.892,-78.4082"/>
</g>
<!-- Node6 -->
<g id="node7" class="node"><title>Node6</title>
<g id="a_node7"><a xlink:href="_actions_list_8h.html" target="_top" xlink:title="ActionsList.h">
<polygon fill="none" stroke="black" points="211,-0.5 211,-19.5 285,-19.5 285,-0.5 211,-0.5"/>
<text text-anchor="middle" x="248" y="-7.5" font-family="Helvetica,sans-Serif" font-size="10.00">ActionsList.h</text>
</a>
</g>
</g>
<!-- Node3&#45;&gt;Node6 -->
<g id="edge7" class="edge"><title>Node3&#45;&gt;Node6</title>
<path fill="none" stroke="midnightblue" d="M164.624,-112.263C173.3,-103.359 186.942,-89.0412 198,-76 211.466,-60.1191 225.865,-41.1692 235.736,-27.84"/>
<polygon fill="midnightblue" stroke="midnightblue" points="238.677,-29.7476 241.779,-19.6168 233.036,-25.6024 238.677,-29.7476"/>
</g>
<!-- Node7 -->
<g id="node8" class="node"><title>Node7</title>
<g id="a_node8"><a xlink:href="_errors_list_8h.html" target="_top" xlink:title="ErrorsList.h">
<polygon fill="none" stroke="black" points="122.5,-56.5 122.5,-75.5 189.5,-75.5 189.5,-56.5 122.5,-56.5"/>
<text text-anchor="middle" x="156" y="-63.5" font-family="Helvetica,sans-Serif" font-size="10.00">ErrorsList.h</text>
</a>
</g>
</g>
<!-- Node3&#45;&gt;Node7 -->
<g id="edge8" class="edge"><title>Node3&#45;&gt;Node7</title>
<path fill="none" stroke="midnightblue" d="M156,-112.083C156,-105.006 156,-94.8611 156,-85.9865"/>
<polygon fill="midnightblue" stroke="midnightblue" points="159.5,-85.751 156,-75.7511 152.5,-85.7511 159.5,-85.751"/>
</g>
<!-- Node8 -->
<g id="node9" class="node"><title>Node8</title>
<g id="a_node9"><a xlink:href="_game_menus_8h.html" target="_top" xlink:title="GameMenus.h">
<polygon fill="none" stroke="black" points="246,-56.5 246,-75.5 326,-75.5 326,-56.5 246,-56.5"/>
<text text-anchor="middle" x="286" y="-63.5" font-family="Helvetica,sans-Serif" font-size="10.00">GameMenus.h</text>
</a>
</g>
</g>
<!-- Node3&#45;&gt;Node8 -->
<g id="edge9" class="edge"><title>Node3&#45;&gt;Node8</title>
<path fill="none" stroke="midnightblue" d="M176.599,-112.444C197.993,-103.557 231.681,-89.5632 256.024,-79.4514"/>
<polygon fill="midnightblue" stroke="midnightblue" points="257.605,-82.5848 265.497,-75.5164 254.92,-76.1203 257.605,-82.5848"/>
</g>
<!-- Node8&#45;&gt;Node2 -->
<g id="edge10" class="edge"><title>Node8&#45;&gt;Node2</title>
<path fill="none" stroke="midnightblue" d="M245.904,-56.7986C192.934,-45.9637 100.765,-27.111 52.8763,-17.3156"/>
<polygon fill="midnightblue" stroke="midnightblue" points="53.3055,-13.831 42.8069,-15.256 51.9026,-20.689 53.3055,-13.831"/>
</g>
<!-- Node8&#45;&gt;Node4 -->
<g id="edge11" class="edge"><title>Node8&#45;&gt;Node4</title>
<path fill="none" stroke="midnightblue" d="M294.752,-56.083C302.47,-48.2195 313.905,-36.5688 323.217,-27.0813"/>
<polygon fill="midnightblue" stroke="midnightblue" points="325.904,-29.3396 330.411,-19.7511 320.908,-24.4363 325.904,-29.3396"/>
</g>
<!-- Node8&#45;&gt;Node6 -->
<g id="edge12" class="edge"><title>Node8&#45;&gt;Node6</title>
<path fill="none" stroke="midnightblue" d="M279.725,-56.083C274.358,-48.4554 266.482,-37.2645 259.921,-27.9408"/>
<polygon fill="midnightblue" stroke="midnightblue" points="262.775,-25.9149 254.158,-19.7511 257.051,-29.9434 262.775,-25.9149"/>
</g>
</g>
</svg>
