<?xml version="1.0" encoding="UTF-8" standalone="no"?>
<!DOCTYPE svg PUBLIC "-//W3C//DTD SVG 1.1//EN"
 "http://www.w3.org/Graphics/SVG/1.1/DTD/svg11.dtd">
<!-- Generated by graphviz version 2.38.0 (20140413.2041)
 -->
<!-- Title: E:/Dropbox/BI_FIT_CVUT/2. semestr/PA2/GameBook/DialogueNCP.h Pages: 1 -->
<svg width="884pt" height="442pt"
 viewBox="0.00 0.00 884.00 442.00" xmlns="http://www.w3.org/2000/svg" xmlns:xlink="http://www.w3.org/1999/xlink">
<g id="graph0" class="graph" transform="scale(1 1) rotate(0) translate(4 438)">
<title>E:/Dropbox/BI_FIT_CVUT/2. semestr/PA2/GameBook/DialogueNCP.h</title>
<!-- Node0 -->
<g id="node1" class="node"><title>Node0</title>
<polygon fill="#bfbfbf" stroke="black" points="112,-392.5 112,-433.5 252,-433.5 252,-392.5 112,-392.5"/>
<text text-anchor="start" x="120" y="-421.5" font-family="Helvetica,sans-Serif" font-size="10.00">E:/Dropbox/BI_FIT_CVUT</text>
<text text-anchor="start" x="120" y="-410.5" font-family="Helvetica,sans-Serif" font-size="10.00">/2. semestr/PA2/GameBook</text>
<text text-anchor="middle" x="182" y="-399.5" font-family="Helvetica,sans-Serif" font-size="10.00">/DialogueNCP.h</text>
</g>
<!-- Node1 -->
<g id="node2" class="node"><title>Node1</title>
<polygon fill="none" stroke="#bfbfbf" points="210.5,-0.5 210.5,-19.5 251.5,-19.5 251.5,-0.5 210.5,-0.5"/>
<text text-anchor="middle" x="231" y="-7.5" font-family="Helvetica,sans-Serif" font-size="10.00">string</text>
</g>
<!-- Node0&#45;&gt;Node1 -->
<g id="edge1" class="edge"><title>Node0&#45;&gt;Node1</title>
<path fill="none" stroke="midnightblue" d="M111.894,-395.463C60.6243,-378.716 0,-347.061 0,-291 0,-291 0,-291 0,-121 0,-33.4512 136.929,-15.508 199.94,-11.8859"/>
<polygon fill="midnightblue" stroke="midnightblue" points="200.275,-15.3738 210.093,-11.3904 199.934,-8.38213 200.275,-15.3738"/>
</g>
<!-- Node2 -->
<g id="node3" class="node"><title>Node2</title>
<g id="a_node3"><a xlink:href="_event_8h.html" target="_top" xlink:title="Event.h">
<polygon fill="none" stroke="black" points="340.5,-336.5 340.5,-355.5 389.5,-355.5 389.5,-336.5 340.5,-336.5"/>
<text text-anchor="middle" x="365" y="-343.5" font-family="Helvetica,sans-Serif" font-size="10.00">Event.h</text>
</a>
</g>
</g>
<!-- Node0&#45;&gt;Node2 -->
<g id="edge2" class="edge"><title>Node0&#45;&gt;Node2</title>
<path fill="none" stroke="midnightblue" d="M236.906,-392.498C267.526,-381.622 304.693,-368.421 331.087,-359.045"/>
<polygon fill="midnightblue" stroke="midnightblue" points="332.388,-362.298 340.64,-355.652 330.045,-355.701 332.388,-362.298"/>
</g>
<!-- Node2&#45;&gt;Node1 -->
<g id="edge3" class="edge"><title>Node2&#45;&gt;Node1</title>
<path fill="none" stroke="midnightblue" d="M340.422,-342.131C264.374,-332.58 38,-298.79 38,-235 38,-235 38,-235 38,-121 38,-47.2405 145.716,-22.2955 200.205,-14.3955"/>
<polygon fill="midnightblue" stroke="midnightblue" points="200.901,-17.8336 210.346,-13.0334 199.969,-10.8959 200.901,-17.8336"/>
</g>
<!-- Node3 -->
<g id="node4" class="node"><title>Node3</title>
<polygon fill="none" stroke="#bfbfbf" points="405.5,-280.5 405.5,-299.5 440.5,-299.5 440.5,-280.5 405.5,-280.5"/>
<text text-anchor="middle" x="423" y="-287.5" font-family="Helvetica,sans-Serif" font-size="10.00">map</text>
</g>
<!-- Node2&#45;&gt;Node3 -->
<g id="edge4" class="edge"><title>Node2&#45;&gt;Node3</title>
<path fill="none" stroke="midnightblue" d="M374.319,-336.324C382.893,-328.341 395.812,-316.313 406.188,-306.653"/>
<polygon fill="midnightblue" stroke="midnightblue" points="408.578,-309.21 413.512,-299.834 403.808,-304.086 408.578,-309.21"/>
</g>
<!-- Node4 -->
<g id="node5" class="node"><title>Node4</title>
<g id="a_node5"><a xlink:href="_display_8h.html" target="_top" xlink:title="Display.h">
<polygon fill="none" stroke="black" points="631.5,-112.5 631.5,-131.5 688.5,-131.5 688.5,-112.5 631.5,-112.5"/>
<text text-anchor="middle" x="660" y="-119.5" font-family="Helvetica,sans-Serif" font-size="10.00">Display.h</text>
</a>
</g>
</g>
<!-- Node2&#45;&gt;Node4 -->
<g id="edge5" class="edge"><title>Node2&#45;&gt;Node4</title>
<path fill="none" stroke="midnightblue" d="M389.605,-344.107C446.581,-340.678 588.537,-324.099 665,-244 688.835,-219.032 688.476,-201.699 681,-168 678.876,-158.426 674.493,-148.476 670.279,-140.374"/>
<polygon fill="midnightblue" stroke="midnightblue" points="673.298,-138.601 665.384,-131.557 667.178,-141.999 673.298,-138.601"/>
</g>
<!-- Node10 -->
<g id="node11" class="node"><title>Node10</title>
<g id="a_node11"><a xlink:href="_hero_8h.html" target="_top" xlink:title="Hero.h">
<polygon fill="none" stroke="black" points="342.5,-280.5 342.5,-299.5 387.5,-299.5 387.5,-280.5 342.5,-280.5"/>
<text text-anchor="middle" x="365" y="-287.5" font-family="Helvetica,sans-Serif" font-size="10.00">Hero.h</text>
</a>
</g>
</g>
<!-- Node2&#45;&gt;Node10 -->
<g id="edge15" class="edge"><title>Node2&#45;&gt;Node10</title>
<path fill="none" stroke="midnightblue" d="M365,-336.083C365,-329.006 365,-318.861 365,-309.986"/>
<polygon fill="midnightblue" stroke="midnightblue" points="368.5,-309.751 365,-299.751 361.5,-309.751 368.5,-309.751"/>
</g>
<!-- Node4&#45;&gt;Node1 -->
<g id="edge7" class="edge"><title>Node4&#45;&gt;Node1</title>
<path fill="none" stroke="midnightblue" d="M654.988,-112.464C646.01,-98.0474 625.697,-69.1623 600,-56 541.025,-25.7928 339.249,-15.0924 261.701,-12.0404"/>
<polygon fill="midnightblue" stroke="midnightblue" points="261.736,-8.5393 251.611,-11.6593 261.472,-15.5343 261.736,-8.5393"/>
</g>
<!-- Node5 -->
<g id="node6" class="node"><title>Node5</title>
<polygon fill="none" stroke="#bfbfbf" points="537,-0.5 537,-19.5 579,-19.5 579,-0.5 537,-0.5"/>
<text text-anchor="middle" x="558" y="-7.5" font-family="Helvetica,sans-Serif" font-size="10.00">vector</text>
</g>
<!-- Node4&#45;&gt;Node5 -->
<g id="edge6" class="edge"><title>Node4&#45;&gt;Node5</title>
<path fill="none" stroke="midnightblue" d="M658.44,-112.498C655.616,-99.1323 648.549,-72.9835 634,-56 621.773,-41.7275 603.834,-30.8067 588.454,-23.2997"/>
<polygon fill="midnightblue" stroke="midnightblue" points="589.829,-20.0796 579.283,-19.0672 586.896,-26.4355 589.829,-20.0796"/>
</g>
<!-- Node6 -->
<g id="node7" class="node"><title>Node6</title>
<polygon fill="none" stroke="#bfbfbf" points="822,-56.5 822,-75.5 876,-75.5 876,-56.5 822,-56.5"/>
<text text-anchor="middle" x="849" y="-63.5" font-family="Helvetica,sans-Serif" font-size="10.00">iostream</text>
</g>
<!-- Node4&#45;&gt;Node6 -->
<g id="edge8" class="edge"><title>Node4&#45;&gt;Node6</title>
<path fill="none" stroke="midnightblue" d="M688.705,-112.799C721.742,-103.359 776.078,-87.835 812.196,-77.5154"/>
<polygon fill="midnightblue" stroke="midnightblue" points="813.214,-80.8648 821.867,-74.7521 811.291,-74.1341 813.214,-80.8648"/>
</g>
<!-- Node7 -->
<g id="node8" class="node"><title>Node7</title>
<g id="a_node8"><a xlink:href="_actions_list_8h.html" target="_top" xlink:title="ActionsList.h">
<polygon fill="none" stroke="black" points="723,-0.5 723,-19.5 797,-19.5 797,-0.5 723,-0.5"/>
<text text-anchor="middle" x="760" y="-7.5" font-family="Helvetica,sans-Serif" font-size="10.00">ActionsList.h</text>
</a>
</g>
</g>
<!-- Node4&#45;&gt;Node7 -->
<g id="edge9" class="edge"><title>Node4&#45;&gt;Node7</title>
<path fill="none" stroke="midnightblue" d="M688.743,-118.641C716.075,-114.696 755.783,-104.156 775,-76 784.562,-61.9908 778.274,-42.7374 771.142,-28.8249"/>
<polygon fill="midnightblue" stroke="midnightblue" points="773.994,-26.759 766.014,-19.7897 767.906,-30.2142 773.994,-26.759"/>
</g>
<!-- Node8 -->
<g id="node9" class="node"><title>Node8</title>
<g id="a_node9"><a xlink:href="_errors_list_8h.html" target="_top" xlink:title="ErrorsList.h">
<polygon fill="none" stroke="black" points="524.5,-56.5 524.5,-75.5 591.5,-75.5 591.5,-56.5 524.5,-56.5"/>
<text text-anchor="middle" x="558" y="-63.5" font-family="Helvetica,sans-Serif" font-size="10.00">ErrorsList.h</text>
</a>
</g>
</g>
<!-- Node4&#45;&gt;Node8 -->
<g id="edge10" class="edge"><title>Node4&#45;&gt;Node8</title>
<path fill="none" stroke="midnightblue" d="M643.612,-112.324C627.329,-103.703 602.133,-90.3643 583.284,-80.3855"/>
<polygon fill="midnightblue" stroke="midnightblue" points="584.823,-77.2402 574.347,-75.6545 581.548,-83.4267 584.823,-77.2402"/>
</g>
<!-- Node9 -->
<g id="node10" class="node"><title>Node9</title>
<g id="a_node10"><a xlink:href="_game_menus_8h.html" target="_top" xlink:title="GameMenus.h">
<polygon fill="none" stroke="black" points="686,-56.5 686,-75.5 766,-75.5 766,-56.5 686,-56.5"/>
<text text-anchor="middle" x="726" y="-63.5" font-family="Helvetica,sans-Serif" font-size="10.00">GameMenus.h</text>
</a>
</g>
</g>
<!-- Node4&#45;&gt;Node9 -->
<g id="edge11" class="edge"><title>Node4&#45;&gt;Node9</title>
<path fill="none" stroke="midnightblue" d="M670.604,-112.324C680.456,-104.263 695.351,-92.0765 707.215,-82.3695"/>
<polygon fill="midnightblue" stroke="midnightblue" points="709.68,-84.8752 715.203,-75.8339 705.247,-79.4575 709.68,-84.8752"/>
</g>
<!-- Node9&#45;&gt;Node1 -->
<g id="edge12" class="edge"><title>Node9&#45;&gt;Node1</title>
<path fill="none" stroke="midnightblue" d="M685.911,-60.6267C589.787,-50.1404 347.798,-23.7416 261.865,-14.3671"/>
<polygon fill="midnightblue" stroke="midnightblue" points="262.04,-10.8655 251.719,-13.2603 261.281,-17.8242 262.04,-10.8655"/>
</g>
<!-- Node9&#45;&gt;Node5 -->
<g id="edge13" class="edge"><title>Node9&#45;&gt;Node5</title>
<path fill="none" stroke="midnightblue" d="M699.38,-56.4435C669.325,-46.7829 620.496,-31.088 588.814,-20.9046"/>
<polygon fill="midnightblue" stroke="midnightblue" points="589.768,-17.5347 579.176,-17.8067 587.625,-24.1989 589.768,-17.5347"/>
</g>
<!-- Node9&#45;&gt;Node7 -->
<g id="edge14" class="edge"><title>Node9&#45;&gt;Node7</title>
<path fill="none" stroke="midnightblue" d="M731.614,-56.083C736.367,-48.5341 743.318,-37.4948 749.152,-28.2298"/>
<polygon fill="midnightblue" stroke="midnightblue" points="752.124,-30.0783 754.49,-19.7511 746.2,-26.3486 752.124,-30.0783"/>
</g>
<!-- Node10&#45;&gt;Node1 -->
<g id="edge17" class="edge"><title>Node10&#45;&gt;Node1</title>
<path fill="none" stroke="midnightblue" d="M342.323,-285.412C274.194,-273.999 76,-235.906 76,-179 76,-179 76,-179 76,-121 76,-60.5394 155.402,-30.276 200.545,-17.9559"/>
<polygon fill="midnightblue" stroke="midnightblue" points="201.615,-21.2944 210.417,-15.3977 199.859,-14.5182 201.615,-21.2944"/>
</g>
<!-- Node10&#45;&gt;Node4 -->
<g id="edge27" class="edge"><title>Node10&#45;&gt;Node4</title>
<path fill="none" stroke="midnightblue" d="M387.594,-282.048C390.41,-281.298 393.261,-280.593 396,-280 450.426,-268.208 604.873,-283.627 644,-244 670.706,-216.953 667.842,-168.403 663.735,-141.763"/>
<polygon fill="midnightblue" stroke="midnightblue" points="667.165,-141.054 661.982,-131.813 660.271,-142.269 667.165,-141.054"/>
</g>
<!-- Node10&#45;&gt;Node6 -->
<g id="edge16" class="edge"><title>Node10&#45;&gt;Node6</title>
<path fill="none" stroke="midnightblue" d="M387.588,-282.019C390.405,-281.274 393.258,-280.578 396,-280 514.027,-255.115 556.362,-296.414 665,-244 744.157,-205.809 811.077,-120.595 837.229,-84.1114"/>
<polygon fill="midnightblue" stroke="midnightblue" points="840.35,-85.7585 843.243,-75.5663 834.625,-81.7296 840.35,-85.7585"/>
</g>
<!-- Node10&#45;&gt;Node8 -->
<g id="edge26" class="edge"><title>Node10&#45;&gt;Node8</title>
<path fill="none" stroke="midnightblue" d="M387.796,-282.365C430.288,-269.988 517.387,-244.57 518,-244 562.76,-202.382 562.651,-122.191 559.974,-85.7916"/>
<polygon fill="midnightblue" stroke="midnightblue" points="563.441,-85.2669 559.068,-75.6168 556.469,-85.8879 563.441,-85.2669"/>
</g>
<!-- Node11 -->
<g id="node12" class="node"><title>Node11</title>
<polygon fill="none" stroke="#bfbfbf" points="585,-224.5 585,-243.5 635,-243.5 635,-224.5 585,-224.5"/>
<text text-anchor="middle" x="610" y="-231.5" font-family="Helvetica,sans-Serif" font-size="10.00">typeinfo</text>
</g>
<!-- Node10&#45;&gt;Node11 -->
<g id="edge18" class="edge"><title>Node10&#45;&gt;Node11</title>
<path fill="none" stroke="midnightblue" d="M387.631,-282.204C390.44,-281.427 393.28,-280.673 396,-280 473.079,-260.915 493.419,-260.929 571,-244 572.26,-243.725 573.543,-243.443 574.838,-243.155"/>
<polygon fill="midnightblue" stroke="midnightblue" points="575.86,-246.513 584.845,-240.898 574.32,-239.684 575.86,-246.513"/>
</g>
<!-- Node12 -->
<g id="node13" class="node"><title>Node12</title>
<g id="a_node13"><a xlink:href="_creature_8h.html" target="_top" xlink:title="Creature.h">
<polygon fill="none" stroke="black" points="468,-168.5 468,-187.5 530,-187.5 530,-168.5 468,-168.5"/>
<text text-anchor="middle" x="499" y="-175.5" font-family="Helvetica,sans-Serif" font-size="10.00">Creature.h</text>
</a>
</g>
</g>
<!-- Node10&#45;&gt;Node12 -->
<g id="edge19" class="edge"><title>Node10&#45;&gt;Node12</title>
<path fill="none" stroke="midnightblue" d="M387.797,-282.159C425.39,-270.771 496.605,-248.71 500,-244 509.581,-230.707 507.973,-211.585 504.785,-197.521"/>
<polygon fill="midnightblue" stroke="midnightblue" points="508.072,-196.268 502.074,-187.535 501.317,-198.103 508.072,-196.268"/>
</g>
<!-- Node13 -->
<g id="node14" class="node"><title>Node13</title>
<g id="a_node14"><a xlink:href="_inventory_8h.html" target="_top" xlink:title="Inventory.h">
<polygon fill="none" stroke="black" points="190.5,-112.5 190.5,-131.5 253.5,-131.5 253.5,-112.5 190.5,-112.5"/>
<text text-anchor="middle" x="222" y="-119.5" font-family="Helvetica,sans-Serif" font-size="10.00">Inventory.h</text>
</a>
</g>
</g>
<!-- Node10&#45;&gt;Node13 -->
<g id="edge22" class="edge"><title>Node10&#45;&gt;Node13</title>
<path fill="none" stroke="midnightblue" d="M342.18,-282.865C321.667,-276.298 291.934,-264.026 273,-244 245.168,-214.564 231.401,-167.69 225.583,-141.772"/>
<polygon fill="midnightblue" stroke="midnightblue" points="228.966,-140.844 223.503,-131.766 222.112,-142.269 228.966,-140.844"/>
</g>
<!-- Node15 -->
<g id="node16" class="node"><title>Node15</title>
<g id="a_node16"><a xlink:href="_armour_8h.html" target="_top" xlink:title="Armour.h">
<polygon fill="none" stroke="black" points="365,-224.5 365,-243.5 421,-243.5 421,-224.5 365,-224.5"/>
<text text-anchor="middle" x="393" y="-231.5" font-family="Helvetica,sans-Serif" font-size="10.00">Armour.h</text>
</a>
</g>
</g>
<!-- Node10&#45;&gt;Node15 -->
<g id="edge28" class="edge"><title>Node10&#45;&gt;Node15</title>
<path fill="none" stroke="midnightblue" d="M369.624,-280.083C373.456,-272.691 379.024,-261.953 383.765,-252.811"/>
<polygon fill="midnightblue" stroke="midnightblue" points="386.966,-254.24 388.462,-243.751 380.752,-251.018 386.966,-254.24"/>
</g>
<!-- Node16 -->
<g id="node17" class="node"><title>Node16</title>
<g id="a_node17"><a xlink:href="_item_8h.html" target="_top" xlink:title="Item.h">
<polygon fill="none" stroke="black" points="401,-168.5 401,-187.5 445,-187.5 445,-168.5 401,-168.5"/>
<text text-anchor="middle" x="423" y="-175.5" font-family="Helvetica,sans-Serif" font-size="10.00">Item.h</text>
</a>
</g>
</g>
<!-- Node10&#45;&gt;Node16 -->
<g id="edge38" class="edge"><title>Node10&#45;&gt;Node16</title>
<path fill="none" stroke="midnightblue" d="M360.734,-280.433C354.911,-267.431 346.248,-242.298 356,-224 363.657,-209.633 378.165,-199.038 391.728,-191.75"/>
<polygon fill="midnightblue" stroke="midnightblue" points="393.459,-194.798 400.87,-187.227 390.355,-188.524 393.459,-194.798"/>
</g>
<!-- Node17 -->
<g id="node18" class="node"><title>Node17</title>
<g id="a_node18"><a xlink:href="_equipment_8h.html" target="_top" xlink:title="Equipment.h">
<polygon fill="none" stroke="black" points="382.5,-112.5 382.5,-131.5 453.5,-131.5 453.5,-112.5 382.5,-112.5"/>
<text text-anchor="middle" x="418" y="-119.5" font-family="Helvetica,sans-Serif" font-size="10.00">Equipment.h</text>
</a>
</g>
</g>
<!-- Node10&#45;&gt;Node17 -->
<g id="edge39" class="edge"><title>Node10&#45;&gt;Node17</title>
<path fill="none" stroke="midnightblue" d="M359.502,-280.093C352.443,-267.501 341.804,-243.816 348,-224 358.592,-190.121 384.984,-157.618 402.164,-139.012"/>
<polygon fill="midnightblue" stroke="midnightblue" points="404.755,-141.366 409.105,-131.705 399.68,-136.545 404.755,-141.366"/>
</g>
<!-- Node18 -->
<g id="node19" class="node"><title>Node18</title>
<g id="a_node19"><a xlink:href="_hero_stats_8h.html" target="_top" xlink:title="HeroStats.h">
<polygon fill="none" stroke="black" points="104,-112.5 104,-131.5 172,-131.5 172,-112.5 104,-112.5"/>
<text text-anchor="middle" x="138" y="-119.5" font-family="Helvetica,sans-Serif" font-size="10.00">HeroStats.h</text>
</a>
</g>
</g>
<!-- Node10&#45;&gt;Node18 -->
<g id="edge40" class="edge"><title>Node10&#45;&gt;Node18</title>
<path fill="none" stroke="midnightblue" d="M342.162,-282.704C318.922,-275.623 282.506,-262.627 255,-244 210.847,-214.1 170.191,-165.344 150.481,-139.807"/>
<polygon fill="midnightblue" stroke="midnightblue" points="153.246,-137.661 144.411,-131.812 147.67,-141.893 153.246,-137.661"/>
</g>
<!-- Node19 -->
<g id="node20" class="node"><title>Node19</title>
<g id="a_node20"><a xlink:href="_sword_8h.html" target="_top" xlink:title="Sword.h">
<polygon fill="none" stroke="black" points="439,-224.5 439,-243.5 491,-243.5 491,-224.5 439,-224.5"/>
<text text-anchor="middle" x="465" y="-231.5" font-family="Helvetica,sans-Serif" font-size="10.00">Sword.h</text>
</a>
</g>
</g>
<!-- Node10&#45;&gt;Node19 -->
<g id="edge36" class="edge"><title>Node10&#45;&gt;Node19</title>
<path fill="none" stroke="midnightblue" d="M381.067,-280.324C396.958,-271.743 421.507,-258.486 439.958,-248.522"/>
<polygon fill="midnightblue" stroke="midnightblue" points="441.837,-251.486 448.973,-243.655 438.511,-245.326 441.837,-251.486"/>
</g>
<!-- Node20 -->
<g id="node21" class="node"><title>Node20</title>
<g id="a_node21"><a xlink:href="_stream_decoder_8h.html" target="_top" xlink:title="StreamDecoder.h">
<polygon fill="none" stroke="black" points="272,-112.5 272,-131.5 364,-131.5 364,-112.5 272,-112.5"/>
<text text-anchor="middle" x="318" y="-119.5" font-family="Helvetica,sans-Serif" font-size="10.00">StreamDecoder.h</text>
</a>
</g>
</g>
<!-- Node10&#45;&gt;Node20 -->
<g id="edge41" class="edge"><title>Node10&#45;&gt;Node20</title>
<path fill="none" stroke="midnightblue" d="M342.173,-283.106C323.139,-276.852 297.228,-264.908 285,-244 267.947,-214.843 274.491,-200.101 285,-168 288.49,-157.34 295.573,-147.117 302.286,-139.117"/>
<polygon fill="midnightblue" stroke="midnightblue" points="304.904,-141.439 308.98,-131.66 299.695,-136.763 304.904,-141.439"/>
</g>
<!-- Node12&#45;&gt;Node1 -->
<g id="edge20" class="edge"><title>Node12&#45;&gt;Node1</title>
<path fill="none" stroke="midnightblue" d="M497.253,-168.168C494.459,-155.257 488.235,-130.732 478,-112 462.556,-83.735 459.431,-72.8816 432,-56 378.35,-22.9822 303.356,-14.097 261.799,-11.7663"/>
<polygon fill="midnightblue" stroke="midnightblue" points="261.895,-8.26711 251.742,-11.2951 261.568,-15.2594 261.895,-8.26711"/>
</g>
<!-- Node12&#45;&gt;Node4 -->
<g id="edge21" class="edge"><title>Node12&#45;&gt;Node4</title>
<path fill="none" stroke="midnightblue" d="M524.511,-168.444C551.596,-159.359 594.59,-144.939 624.869,-134.783"/>
<polygon fill="midnightblue" stroke="midnightblue" points="626.24,-138.015 634.608,-131.516 624.014,-131.378 626.24,-138.015"/>
</g>
<!-- Node13&#45;&gt;Node1 -->
<g id="edge25" class="edge"><title>Node13&#45;&gt;Node1</title>
<path fill="none" stroke="midnightblue" d="M217.279,-112.144C211.205,-99.6119 202,-75.9992 207,-56 209.439,-46.2452 214.437,-36.2896 219.243,-28.231"/>
<polygon fill="midnightblue" stroke="midnightblue" points="222.213,-30.0828 224.633,-19.768 216.309,-26.3225 222.213,-30.0828"/>
</g>
<!-- Node13&#45;&gt;Node5 -->
<g id="edge24" class="edge"><title>Node13&#45;&gt;Node5</title>
<path fill="none" stroke="midnightblue" d="M233.411,-112.374C252.538,-98.3486 292.744,-70.6936 331,-56 398.045,-30.2493 482.142,-18.5192 526.786,-13.785"/>
<polygon fill="midnightblue" stroke="midnightblue" points="527.396,-17.2413 536.993,-12.7527 526.691,-10.2768 527.396,-17.2413"/>
</g>
<!-- Node14 -->
<g id="node15" class="node"><title>Node14</title>
<polygon fill="none" stroke="#bfbfbf" points="216,-56.5 216,-75.5 246,-75.5 246,-56.5 216,-56.5"/>
<text text-anchor="middle" x="231" y="-63.5" font-family="Helvetica,sans-Serif" font-size="10.00">set</text>
</g>
<!-- Node13&#45;&gt;Node14 -->
<g id="edge23" class="edge"><title>Node13&#45;&gt;Node14</title>
<path fill="none" stroke="midnightblue" d="M223.486,-112.083C224.679,-104.927 226.394,-94.6353 227.885,-85.6911"/>
<polygon fill="midnightblue" stroke="midnightblue" points="231.35,-86.1904 229.541,-75.7511 224.445,-85.0396 231.35,-86.1904"/>
</g>
<!-- Node15&#45;&gt;Node16 -->
<g id="edge29" class="edge"><title>Node15&#45;&gt;Node16</title>
<path fill="none" stroke="midnightblue" d="M397.954,-224.083C402.104,-216.613 408.153,-205.724 413.267,-196.52"/>
<polygon fill="midnightblue" stroke="midnightblue" points="416.341,-198.192 418.138,-187.751 410.222,-194.793 416.341,-198.192"/>
</g>
<!-- Node16&#45;&gt;Node1 -->
<g id="edge31" class="edge"><title>Node16&#45;&gt;Node1</title>
<path fill="none" stroke="midnightblue" d="M434.775,-168.137C449.391,-155.976 471.319,-133.205 462,-112 447.193,-78.3068 433.285,-73.6679 401,-56 356.098,-31.4273 297.096,-19.7396 261.72,-14.5993"/>
<polygon fill="midnightblue" stroke="midnightblue" points="261.924,-11.0947 251.542,-13.2072 260.976,-18.0301 261.924,-11.0947"/>
</g>
<!-- Node16&#45;&gt;Node4 -->
<g id="edge32" class="edge"><title>Node16&#45;&gt;Node4</title>
<path fill="none" stroke="midnightblue" d="M445.064,-171.392C449.664,-170.249 454.486,-169.069 459,-168 515.338,-154.653 580.812,-140.189 621.332,-131.36"/>
<polygon fill="midnightblue" stroke="midnightblue" points="622.296,-134.732 631.323,-129.187 620.808,-127.892 622.296,-134.732"/>
</g>
<!-- Node16&#45;&gt;Node6 -->
<g id="edge30" class="edge"><title>Node16&#45;&gt;Node6</title>
<path fill="none" stroke="midnightblue" d="M445.01,-171.146C449.614,-170.021 454.452,-168.91 459,-168 563.9,-147.003 594.1,-161.268 697,-132 743.132,-118.879 793.805,-95.1908 823.434,-80.3224"/>
<polygon fill="midnightblue" stroke="midnightblue" points="825.308,-83.2961 832.638,-75.6462 822.137,-77.0553 825.308,-83.2961"/>
</g>
<!-- Node16&#45;&gt;Node17 -->
<g id="edge33" class="edge"><title>Node16&#45;&gt;Node17</title>
<path fill="none" stroke="midnightblue" d="M422.174,-168.083C421.519,-161.006 420.58,-150.861 419.758,-141.986"/>
<polygon fill="midnightblue" stroke="midnightblue" points="423.217,-141.386 418.81,-131.751 416.247,-142.031 423.217,-141.386"/>
</g>
<!-- Node16&#45;&gt;Node18 -->
<g id="edge34" class="edge"><title>Node16&#45;&gt;Node18</title>
<path fill="none" stroke="midnightblue" d="M400.946,-173.07C359.951,-165.729 268.997,-149.27 182.26,-132.216"/>
<polygon fill="midnightblue" stroke="midnightblue" points="182.742,-128.743 172.253,-130.242 181.387,-135.611 182.742,-128.743"/>
</g>
<!-- Node18&#45;&gt;Node1 -->
<g id="edge35" class="edge"><title>Node18&#45;&gt;Node1</title>
<path fill="none" stroke="midnightblue" d="M145.298,-112.368C160.781,-94.0547 197.14,-51.0489 217.166,-27.3624"/>
<polygon fill="midnightblue" stroke="midnightblue" points="219.953,-29.4877 223.736,-19.5914 214.607,-24.9682 219.953,-29.4877"/>
</g>
<!-- Node19&#45;&gt;Node16 -->
<g id="edge37" class="edge"><title>Node19&#45;&gt;Node16</title>
<path fill="none" stroke="midnightblue" d="M458.065,-224.083C452.071,-216.377 443.248,-205.033 435.952,-195.653"/>
<polygon fill="midnightblue" stroke="midnightblue" points="438.709,-193.496 429.806,-187.751 433.183,-197.793 438.709,-193.496"/>
</g>
<!-- Node20&#45;&gt;Node1 -->
<g id="edge42" class="edge"><title>Node20&#45;&gt;Node1</title>
<path fill="none" stroke="midnightblue" d="M311.173,-112.368C296.752,-94.135 262.973,-51.4257 244.189,-27.6752"/>
<polygon fill="midnightblue" stroke="midnightblue" points="246.744,-25.2636 237.795,-19.5914 241.253,-29.606 246.744,-25.2636"/>
</g>
<!-- Node20&#45;&gt;Node5 -->
<g id="edge44" class="edge"><title>Node20&#45;&gt;Node5</title>
<path fill="none" stroke="midnightblue" d="M336.832,-112.368C378.893,-93.0908 480.647,-46.4536 530.096,-23.7894"/>
<polygon fill="midnightblue" stroke="midnightblue" points="531.623,-26.9398 539.255,-19.5914 528.706,-20.5763 531.623,-26.9398"/>
</g>
<!-- Node20&#45;&gt;Node8 -->
<g id="edge46" class="edge"><title>Node20&#45;&gt;Node8</title>
<path fill="none" stroke="midnightblue" d="M356.029,-112.444C399.16,-102.739 469.355,-86.9452 514.595,-76.7661"/>
<polygon fill="midnightblue" stroke="midnightblue" points="515.421,-80.1678 524.409,-74.558 513.885,-73.3386 515.421,-80.1678"/>
</g>
<!-- Node20&#45;&gt;Node14 -->
<g id="edge45" class="edge"><title>Node20&#45;&gt;Node14</title>
<path fill="none" stroke="midnightblue" d="M304.022,-112.324C290.45,-103.9 269.62,-90.9709 253.675,-81.0741"/>
<polygon fill="midnightblue" stroke="midnightblue" points="255.286,-77.9544 244.943,-75.6545 251.594,-83.9019 255.286,-77.9544"/>
</g>
<!-- Node21 -->
<g id="node22" class="node"><title>Node21</title>
<polygon fill="none" stroke="#bfbfbf" points="340,-56.5 340,-75.5 392,-75.5 392,-56.5 340,-56.5"/>
<text text-anchor="middle" x="366" y="-63.5" font-family="Helvetica,sans-Serif" font-size="10.00">sstream</text>
</g>
<!-- Node20&#45;&gt;Node21 -->
<g id="edge43" class="edge"><title>Node20&#45;&gt;Node21</title>
<path fill="none" stroke="midnightblue" d="M325.926,-112.083C332.846,-104.298 343.065,-92.8015 351.452,-83.3665"/>
<polygon fill="midnightblue" stroke="midnightblue" points="354.194,-85.5505 358.221,-75.7511 348.962,-80.8999 354.194,-85.5505"/>
</g>
</g>
</svg>
