<?xml version="1.0" encoding="UTF-8" standalone="no"?>
<!DOCTYPE svg PUBLIC "-//W3C//DTD SVG 1.1//EN"
 "http://www.w3.org/Graphics/SVG/1.1/DTD/svg11.dtd">
<!-- Generated by graphviz version 2.38.0 (20140413.2041)
 -->
<!-- Title: E:/Dropbox/BI_FIT_CVUT/2. semestr/PA2/GameBook/Display.h Pages: 1 -->
<svg width="367pt" height="162pt"
 viewBox="0.00 0.00 366.50 162.00" xmlns="http://www.w3.org/2000/svg" xmlns:xlink="http://www.w3.org/1999/xlink">
<g id="graph0" class="graph" transform="scale(1 1) rotate(0) translate(4 158)">
<title>E:/Dropbox/BI_FIT_CVUT/2. semestr/PA2/GameBook/Display.h</title>
<!-- Node0 -->
<g id="node1" class="node"><title>Node0</title>
<polygon fill="#bfbfbf" stroke="black" points="102,-112.5 102,-153.5 242,-153.5 242,-112.5 102,-112.5"/>
<text text-anchor="start" x="110" y="-141.5" font-family="Helvetica,sans-Serif" font-size="10.00">E:/Dropbox/BI_FIT_CVUT</text>
<text text-anchor="start" x="110" y="-130.5" font-family="Helvetica,sans-Serif" font-size="10.00">/2. semestr/PA2/GameBook</text>
<text text-anchor="middle" x="172" y="-119.5" font-family="Helvetica,sans-Serif" font-size="10.00">/Display.h</text>
</g>
<!-- Node1 -->
<g id="node2" class="node"><title>Node1</title>
<polygon fill="none" stroke="#bfbfbf" points="0,-0.5 0,-19.5 42,-19.5 42,-0.5 0,-0.5"/>
<text text-anchor="middle" x="21" y="-7.5" font-family="Helvetica,sans-Serif" font-size="10.00">vector</text>
</g>
<!-- Node0&#45;&gt;Node1 -->
<g id="edge1" class="edge"><title>Node0&#45;&gt;Node1</title>
<path fill="none" stroke="midnightblue" d="M101.857,-117.149C77.8608,-108.786 52.8482,-95.8616 36,-76 25.1229,-63.1774 21.7587,-43.9922 20.8843,-29.7857"/>
<polygon fill="midnightblue" stroke="midnightblue" points="24.3803,-29.5818 20.6209,-19.6764 17.3827,-29.7642 24.3803,-29.5818"/>
</g>
<!-- Node2 -->
<g id="node3" class="node"><title>Node2</title>
<polygon fill="none" stroke="#bfbfbf" points="71.5,-0.5 71.5,-19.5 112.5,-19.5 112.5,-0.5 71.5,-0.5"/>
<text text-anchor="middle" x="92" y="-7.5" font-family="Helvetica,sans-Serif" font-size="10.00">string</text>
</g>
<!-- Node0&#45;&gt;Node2 -->
<g id="edge2" class="edge"><title>Node0&#45;&gt;Node2</title>
<path fill="none" stroke="midnightblue" d="M164.069,-112.407C157.213,-96.529 146.459,-73.929 134,-56 126.698,-45.4923 117.039,-34.9698 108.825,-26.745"/>
<polygon fill="midnightblue" stroke="midnightblue" points="111.126,-24.1005 101.516,-19.6388 106.246,-29.1193 111.126,-24.1005"/>
</g>
<!-- Node3 -->
<g id="node4" class="node"><title>Node3</title>
<polygon fill="none" stroke="#bfbfbf" points="219,-56.5 219,-75.5 273,-75.5 273,-56.5 219,-56.5"/>
<text text-anchor="middle" x="246" y="-63.5" font-family="Helvetica,sans-Serif" font-size="10.00">iostream</text>
</g>
<!-- Node0&#45;&gt;Node3 -->
<g id="edge3" class="edge"><title>Node0&#45;&gt;Node3</title>
<path fill="none" stroke="midnightblue" d="M194.202,-112.498C205.221,-102.82 218.335,-91.3002 228.611,-82.274"/>
<polygon fill="midnightblue" stroke="midnightblue" points="230.946,-84.8816 236.149,-75.6525 226.326,-79.6223 230.946,-84.8816"/>
</g>
<!-- Node4 -->
<g id="node5" class="node"><title>Node4</title>
<g id="a_node5"><a xlink:href="_actions_list_8h.html" target="_top" xlink:title="ActionsList.h">
<polygon fill="none" stroke="black" points="146,-0.5 146,-19.5 220,-19.5 220,-0.5 146,-0.5"/>
<text text-anchor="middle" x="183" y="-7.5" font-family="Helvetica,sans-Serif" font-size="10.00">ActionsList.h</text>
</a>
</g>
</g>
<!-- Node0&#45;&gt;Node4 -->
<g id="edge4" class="edge"><title>Node0&#45;&gt;Node4</title>
<path fill="none" stroke="midnightblue" d="M173.792,-112.29C175.865,-89.4795 179.256,-52.1888 181.293,-29.7807"/>
<polygon fill="midnightblue" stroke="midnightblue" points="184.801,-29.8506 182.22,-19.5748 177.829,-29.2168 184.801,-29.8506"/>
</g>
<!-- Node5 -->
<g id="node6" class="node"><title>Node5</title>
<g id="a_node6"><a xlink:href="_errors_list_8h.html" target="_top" xlink:title="ErrorsList.h">
<polygon fill="none" stroke="black" points="291.5,-56.5 291.5,-75.5 358.5,-75.5 358.5,-56.5 291.5,-56.5"/>
<text text-anchor="middle" x="325" y="-63.5" font-family="Helvetica,sans-Serif" font-size="10.00">ErrorsList.h</text>
</a>
</g>
</g>
<!-- Node0&#45;&gt;Node5 -->
<g id="edge5" class="edge"><title>Node0&#45;&gt;Node5</title>
<path fill="none" stroke="midnightblue" d="M217.905,-112.498C242.942,-101.861 273.213,-89.001 295.176,-79.6705"/>
<polygon fill="midnightblue" stroke="midnightblue" points="296.798,-82.784 304.633,-75.6525 294.061,-76.3413 296.798,-82.784"/>
</g>
<!-- Node6 -->
<g id="node7" class="node"><title>Node6</title>
<g id="a_node7"><a xlink:href="_game_menus_8h.html" target="_top" xlink:title="GameMenus.h">
<polygon fill="none" stroke="black" points="45,-56.5 45,-75.5 125,-75.5 125,-56.5 45,-56.5"/>
<text text-anchor="middle" x="85" y="-63.5" font-family="Helvetica,sans-Serif" font-size="10.00">GameMenus.h</text>
</a>
</g>
</g>
<!-- Node0&#45;&gt;Node6 -->
<g id="edge6" class="edge"><title>Node0&#45;&gt;Node6</title>
<path fill="none" stroke="midnightblue" d="M145.897,-112.498C132.687,-102.628 116.913,-90.8432 104.73,-81.7407"/>
<polygon fill="midnightblue" stroke="midnightblue" points="106.687,-78.8339 96.581,-75.6525 102.497,-84.4417 106.687,-78.8339"/>
</g>
<!-- Node6&#45;&gt;Node1 -->
<g id="edge8" class="edge"><title>Node6&#45;&gt;Node1</title>
<path fill="none" stroke="midnightblue" d="M74.7173,-56.324C65.1637,-48.2631 50.7203,-36.0765 39.2157,-26.3695"/>
<polygon fill="midnightblue" stroke="midnightblue" points="41.3698,-23.6076 31.4698,-19.8339 36.8557,-28.9577 41.3698,-23.6076"/>
</g>
<!-- Node6&#45;&gt;Node2 -->
<g id="edge7" class="edge"><title>Node6&#45;&gt;Node2</title>
<path fill="none" stroke="midnightblue" d="M86.1559,-56.083C87.0835,-48.9272 88.4176,-38.6353 89.5771,-29.6911"/>
<polygon fill="midnightblue" stroke="midnightblue" points="93.0509,-30.1181 90.8656,-19.7511 86.109,-29.2181 93.0509,-30.1181"/>
</g>
<!-- Node6&#45;&gt;Node4 -->
<g id="edge9" class="edge"><title>Node6&#45;&gt;Node4</title>
<path fill="none" stroke="midnightblue" d="M100.745,-56.324C116.319,-47.7428 140.377,-34.486 158.459,-24.5224"/>
<polygon fill="midnightblue" stroke="midnightblue" points="160.224,-27.546 167.294,-19.6545 156.846,-21.4152 160.224,-27.546"/>
</g>
</g>
</svg>
