<?xml version="1.0" encoding="UTF-8" standalone="no"?>
<!DOCTYPE svg PUBLIC "-//W3C//DTD SVG 1.1//EN"
 "http://www.w3.org/Graphics/SVG/1.1/DTD/svg11.dtd">
<!-- Generated by graphviz version 2.38.0 (20140413.2041)
 -->
<!-- Title: E:/Dropbox/BI_FIT_CVUT/2. semestr/PA2/GameBook/Display.h Pages: 1 -->
<svg width="1139pt" height="752pt"
 viewBox="0.00 0.00 1138.59 752.00" xmlns="http://www.w3.org/2000/svg" xmlns:xlink="http://www.w3.org/1999/xlink">
<g id="graph0" class="graph" transform="scale(1 1) rotate(0) translate(4 748)">
<title>E:/Dropbox/BI_FIT_CVUT/2. semestr/PA2/GameBook/Display.h</title>
<!-- Node7 -->
<g id="node1" class="node"><title>Node7</title>
<polygon fill="#bfbfbf" stroke="black" points="854.591,-702.5 854.591,-743.5 994.591,-743.5 994.591,-702.5 854.591,-702.5"/>
<text text-anchor="start" x="862.591" y="-731.5" font-family="Helvetica,sans-Serif" font-size="10.00">E:/Dropbox/BI_FIT_CVUT</text>
<text text-anchor="start" x="862.591" y="-720.5" font-family="Helvetica,sans-Serif" font-size="10.00">/2. semestr/PA2/GameBook</text>
<text text-anchor="middle" x="924.591" y="-709.5" font-family="Helvetica,sans-Serif" font-size="10.00">/Display.h</text>
</g>
<!-- Node8 -->
<g id="node2" class="node"><title>Node8</title>
<g id="a_node2"><a xlink:href="_item_8h.html" target="_top" xlink:title="E:/Dropbox/BI_FIT_CVUT\l/2. semestr/PA2/GameBook\l/Item.h">
<polygon fill="none" stroke="black" points="718.591,-624.5 718.591,-665.5 858.591,-665.5 858.591,-624.5 718.591,-624.5"/>
<text text-anchor="start" x="726.591" y="-653.5" font-family="Helvetica,sans-Serif" font-size="10.00">E:/Dropbox/BI_FIT_CVUT</text>
<text text-anchor="start" x="726.591" y="-642.5" font-family="Helvetica,sans-Serif" font-size="10.00">/2. semestr/PA2/GameBook</text>
<text text-anchor="middle" x="788.591" y="-631.5" font-family="Helvetica,sans-Serif" font-size="10.00">/Item.h</text>
</a>
</g>
</g>
<!-- Node7&#45;&gt;Node8 -->
<g id="edge1" class="edge"><title>Node7&#45;&gt;Node8</title>
<path fill="none" stroke="midnightblue" d="M880.723,-697.486C862.198,-687.134 840.928,-675.247 823.496,-665.506"/>
<polygon fill="midnightblue" stroke="midnightblue" points="879.131,-700.605 889.568,-702.428 882.545,-694.495 879.131,-700.605"/>
</g>
<!-- Node11 -->
<g id="node5" class="node"><title>Node11</title>
<g id="a_node5"><a xlink:href="_hero_8h.html" target="_top" xlink:title="E:/Dropbox/BI_FIT_CVUT\l/2. semestr/PA2/GameBook\l/Hero.h">
<polygon fill="none" stroke="black" points="775.591,-468.5 775.591,-509.5 915.591,-509.5 915.591,-468.5 775.591,-468.5"/>
<text text-anchor="start" x="783.591" y="-497.5" font-family="Helvetica,sans-Serif" font-size="10.00">E:/Dropbox/BI_FIT_CVUT</text>
<text text-anchor="start" x="783.591" y="-486.5" font-family="Helvetica,sans-Serif" font-size="10.00">/2. semestr/PA2/GameBook</text>
<text text-anchor="middle" x="845.591" y="-475.5" font-family="Helvetica,sans-Serif" font-size="10.00">/Hero.h</text>
</a>
</g>
</g>
<!-- Node7&#45;&gt;Node11 -->
<g id="edge49" class="edge"><title>Node7&#45;&gt;Node11</title>
<path fill="none" stroke="midnightblue" d="M921.011,-691.964C915.969,-656.056 904.908,-594.708 883.591,-546 877.938,-533.084 869.235,-519.972 861.584,-509.686"/>
<polygon fill="midnightblue" stroke="midnightblue" points="917.592,-692.801 922.387,-702.248 924.53,-691.873 917.592,-692.801"/>
</g>
<!-- Node12 -->
<g id="node6" class="node"><title>Node12</title>
<g id="a_node6"><a xlink:href="_event_8h.html" target="_top" xlink:title="E:/Dropbox/BI_FIT_CVUT\l/2. semestr/PA2/GameBook\l/Event.h">
<polygon fill="none" stroke="black" points="403.591,-390.5 403.591,-431.5 543.591,-431.5 543.591,-390.5 403.591,-390.5"/>
<text text-anchor="start" x="411.591" y="-419.5" font-family="Helvetica,sans-Serif" font-size="10.00">E:/Dropbox/BI_FIT_CVUT</text>
<text text-anchor="start" x="411.591" y="-408.5" font-family="Helvetica,sans-Serif" font-size="10.00">/2. semestr/PA2/GameBook</text>
<text text-anchor="middle" x="473.591" y="-397.5" font-family="Helvetica,sans-Serif" font-size="10.00">/Event.h</text>
</a>
</g>
</g>
<!-- Node7&#45;&gt;Node12 -->
<g id="edge44" class="edge"><title>Node7&#45;&gt;Node12</title>
<path fill="none" stroke="midnightblue" d="M844.343,-711.943C712.006,-693.748 456.355,-651.285 393.591,-588 355.567,-549.661 347.386,-514.644 374.591,-468 383.943,-451.966 399.774,-440.157 416.067,-431.631"/>
<polygon fill="midnightblue" stroke="midnightblue" points="844.049,-715.435 854.429,-713.316 844.993,-708.499 844.049,-715.435"/>
</g>
<!-- Node37 -->
<g id="node31" class="node"><title>Node37</title>
<g id="a_node31"><a xlink:href="_creature_8h.html" target="_top" xlink:title="E:/Dropbox/BI_FIT_CVUT\l/2. semestr/PA2/GameBook\l/Creature.h">
<polygon fill="none" stroke="black" points="952.591,-546.5 952.591,-587.5 1092.59,-587.5 1092.59,-546.5 952.591,-546.5"/>
<text text-anchor="start" x="960.591" y="-575.5" font-family="Helvetica,sans-Serif" font-size="10.00">E:/Dropbox/BI_FIT_CVUT</text>
<text text-anchor="start" x="960.591" y="-564.5" font-family="Helvetica,sans-Serif" font-size="10.00">/2. semestr/PA2/GameBook</text>
<text text-anchor="middle" x="1022.59" y="-553.5" font-family="Helvetica,sans-Serif" font-size="10.00">/Creature.h</text>
</a>
</g>
</g>
<!-- Node7&#45;&gt;Node37 -->
<g id="edge45" class="edge"><title>Node7&#45;&gt;Node37</title>
<path fill="none" stroke="midnightblue" d="M940.042,-693.642C951.097,-673.814 966.613,-646.892 981.591,-624 989.705,-611.598 999.487,-598.186 1007.46,-587.597"/>
<polygon fill="midnightblue" stroke="midnightblue" points="936.928,-692.041 935.146,-702.484 943.052,-695.432 936.928,-692.041"/>
</g>
<!-- Node39 -->
<g id="node33" class="node"><title>Node39</title>
<g id="a_node33"><a xlink:href="_display_8cpp.html" target="_top" xlink:title="E:/Dropbox/BI_FIT_CVUT\l/2. semestr/PA2/GameBook\l/Display.cpp">
<polygon fill="none" stroke="black" points="990.591,-624.5 990.591,-665.5 1130.59,-665.5 1130.59,-624.5 990.591,-624.5"/>
<text text-anchor="start" x="998.591" y="-653.5" font-family="Helvetica,sans-Serif" font-size="10.00">E:/Dropbox/BI_FIT_CVUT</text>
<text text-anchor="start" x="998.591" y="-642.5" font-family="Helvetica,sans-Serif" font-size="10.00">/2. semestr/PA2/GameBook</text>
<text text-anchor="middle" x="1060.59" y="-631.5" font-family="Helvetica,sans-Serif" font-size="10.00">/Display.cpp</text>
</a>
</g>
</g>
<!-- Node7&#45;&gt;Node39 -->
<g id="edge50" class="edge"><title>Node7&#45;&gt;Node39</title>
<path fill="none" stroke="midnightblue" d="M968.459,-697.486C986.984,-687.134 1008.25,-675.247 1025.69,-665.506"/>
<polygon fill="midnightblue" stroke="midnightblue" points="966.636,-694.495 959.614,-702.428 970.051,-700.605 966.636,-694.495"/>
</g>
<!-- Node9 -->
<g id="node3" class="node"><title>Node9</title>
<g id="a_node3"><a xlink:href="_armour_8h.html" target="_top" xlink:title="E:/Dropbox/BI_FIT_CVUT\l/2. semestr/PA2/GameBook\l/Armour.h">
<polygon fill="none" stroke="black" points="402.591,-546.5 402.591,-587.5 542.591,-587.5 542.591,-546.5 402.591,-546.5"/>
<text text-anchor="start" x="410.591" y="-575.5" font-family="Helvetica,sans-Serif" font-size="10.00">E:/Dropbox/BI_FIT_CVUT</text>
<text text-anchor="start" x="410.591" y="-564.5" font-family="Helvetica,sans-Serif" font-size="10.00">/2. semestr/PA2/GameBook</text>
<text text-anchor="middle" x="472.591" y="-553.5" font-family="Helvetica,sans-Serif" font-size="10.00">/Armour.h</text>
</a>
</g>
</g>
<!-- Node8&#45;&gt;Node9 -->
<g id="edge2" class="edge"><title>Node8&#45;&gt;Node9</title>
<path fill="none" stroke="midnightblue" d="M708.616,-625.437C662.638,-614.682 603.816,-600.78 551.591,-588 548.705,-587.294 545.761,-586.569 542.788,-585.833"/>
<polygon fill="midnightblue" stroke="midnightblue" points="707.987,-628.884 718.521,-627.752 709.58,-622.068 707.987,-628.884"/>
</g>
<!-- Node8&#45;&gt;Node11 -->
<g id="edge42" class="edge"><title>Node8&#45;&gt;Node11</title>
<path fill="none" stroke="midnightblue" d="M839.333,-618.791C850.657,-610.611 861.193,-600.378 867.591,-588 880.562,-562.906 868.307,-530.327 857.558,-509.786"/>
<polygon fill="midnightblue" stroke="midnightblue" points="837.349,-615.906 830.996,-624.385 841.25,-621.719 837.349,-615.906"/>
</g>
<!-- Node34 -->
<g id="node28" class="node"><title>Node34</title>
<g id="a_node28"><a xlink:href="_sword_8h.html" target="_top" xlink:title="E:/Dropbox/BI_FIT_CVUT\l/2. semestr/PA2/GameBook\l/Sword.h">
<polygon fill="none" stroke="black" points="560.591,-546.5 560.591,-587.5 700.591,-587.5 700.591,-546.5 560.591,-546.5"/>
<text text-anchor="start" x="568.591" y="-575.5" font-family="Helvetica,sans-Serif" font-size="10.00">E:/Dropbox/BI_FIT_CVUT</text>
<text text-anchor="start" x="568.591" y="-564.5" font-family="Helvetica,sans-Serif" font-size="10.00">/2. semestr/PA2/GameBook</text>
<text text-anchor="middle" x="630.591" y="-553.5" font-family="Helvetica,sans-Serif" font-size="10.00">/Sword.h</text>
</a>
</g>
</g>
<!-- Node8&#45;&gt;Node34 -->
<g id="edge38" class="edge"><title>Node8&#45;&gt;Node34</title>
<path fill="none" stroke="midnightblue" d="M738.797,-620.049C717.005,-609.566 691.763,-597.424 671.142,-587.506"/>
<polygon fill="midnightblue" stroke="midnightblue" points="737.373,-623.247 747.902,-624.428 740.407,-616.939 737.373,-623.247"/>
</g>
<!-- Node36 -->
<g id="node30" class="node"><title>Node36</title>
<g id="a_node30"><a xlink:href="_item_8cpp.html" target="_top" xlink:title="E:/Dropbox/BI_FIT_CVUT\l/2. semestr/PA2/GameBook\l/Item.cpp">
<polygon fill="none" stroke="black" points="718.591,-546.5 718.591,-587.5 858.591,-587.5 858.591,-546.5 718.591,-546.5"/>
<text text-anchor="start" x="726.591" y="-575.5" font-family="Helvetica,sans-Serif" font-size="10.00">E:/Dropbox/BI_FIT_CVUT</text>
<text text-anchor="start" x="726.591" y="-564.5" font-family="Helvetica,sans-Serif" font-size="10.00">/2. semestr/PA2/GameBook</text>
<text text-anchor="middle" x="788.591" y="-553.5" font-family="Helvetica,sans-Serif" font-size="10.00">/Item.cpp</text>
</a>
</g>
</g>
<!-- Node8&#45;&gt;Node36 -->
<g id="edge43" class="edge"><title>Node8&#45;&gt;Node36</title>
<path fill="none" stroke="midnightblue" d="M788.591,-614.297C788.591,-605.301 788.591,-595.653 788.591,-587.506"/>
<polygon fill="midnightblue" stroke="midnightblue" points="785.091,-614.428 788.591,-624.428 792.091,-614.428 785.091,-614.428"/>
</g>
<!-- Node10 -->
<g id="node4" class="node"><title>Node10</title>
<g id="a_node4"><a xlink:href="_armour_8cpp.html" target="_top" xlink:title="E:/Dropbox/BI_FIT_CVUT\l/2. semestr/PA2/GameBook\l/Armour.cpp">
<polygon fill="none" stroke="black" points="383.591,-468.5 383.591,-509.5 523.591,-509.5 523.591,-468.5 383.591,-468.5"/>
<text text-anchor="start" x="391.591" y="-497.5" font-family="Helvetica,sans-Serif" font-size="10.00">E:/Dropbox/BI_FIT_CVUT</text>
<text text-anchor="start" x="391.591" y="-486.5" font-family="Helvetica,sans-Serif" font-size="10.00">/2. semestr/PA2/GameBook</text>
<text text-anchor="middle" x="453.591" y="-475.5" font-family="Helvetica,sans-Serif" font-size="10.00">/Armour.cpp</text>
</a>
</g>
</g>
<!-- Node9&#45;&gt;Node10 -->
<g id="edge3" class="edge"><title>Node9&#45;&gt;Node10</title>
<path fill="none" stroke="midnightblue" d="M465.238,-536.59C462.969,-527.511 460.526,-517.742 458.467,-509.506"/>
<polygon fill="midnightblue" stroke="midnightblue" points="461.877,-537.576 467.698,-546.428 468.668,-535.878 461.877,-537.576"/>
</g>
<!-- Node9&#45;&gt;Node11 -->
<g id="edge4" class="edge"><title>Node9&#45;&gt;Node11</title>
<path fill="none" stroke="midnightblue" d="M552.73,-545.804C634.644,-527.84 718.168,-512.34 775.552,-502.126"/>
<polygon fill="midnightblue" stroke="midnightblue" points="551.761,-542.434 542.75,-548.007 553.27,-549.269 551.761,-542.434"/>
</g>
<!-- Node15 -->
<g id="node9" class="node"><title>Node15</title>
<g id="a_node9"><a xlink:href="_world_8h.html" target="_top" xlink:title="E:/Dropbox/BI_FIT_CVUT\l/2. semestr/PA2/GameBook\l/World.h">
<polygon fill="none" stroke="black" points="642.591,-234.5 642.591,-275.5 782.591,-275.5 782.591,-234.5 642.591,-234.5"/>
<text text-anchor="start" x="650.591" y="-263.5" font-family="Helvetica,sans-Serif" font-size="10.00">E:/Dropbox/BI_FIT_CVUT</text>
<text text-anchor="start" x="650.591" y="-252.5" font-family="Helvetica,sans-Serif" font-size="10.00">/2. semestr/PA2/GameBook</text>
<text text-anchor="middle" x="712.591" y="-241.5" font-family="Helvetica,sans-Serif" font-size="10.00">/World.h</text>
</a>
</g>
</g>
<!-- Node9&#45;&gt;Node15 -->
<g id="edge37" class="edge"><title>Node9&#45;&gt;Node15</title>
<path fill="none" stroke="midnightblue" d="M502.037,-539.44C511.919,-530.285 522.888,-519.854 532.591,-510 550.252,-492.063 553.322,-486.316 570.591,-468 619.317,-416.321 646.268,-415.037 682.591,-354 697.423,-329.076 705.53,-296.161 709.462,-275.535"/>
<polygon fill="midnightblue" stroke="midnightblue" points="499.382,-537.127 494.391,-546.473 504.121,-542.279 499.382,-537.127"/>
</g>
<!-- Node11&#45;&gt;Node12 -->
<g id="edge5" class="edge"><title>Node11&#45;&gt;Node12</title>
<path fill="none" stroke="midnightblue" d="M765.239,-471.584C699.255,-458.103 606.732,-439.201 543.711,-426.326"/>
<polygon fill="midnightblue" stroke="midnightblue" points="764.685,-475.043 775.183,-473.616 766.086,-468.185 764.685,-475.043"/>
</g>
<!-- Node19 -->
<g id="node13" class="node"><title>Node19</title>
<g id="a_node13"><a xlink:href="_shopping_8h.html" target="_top" xlink:title="E:/Dropbox/BI_FIT_CVUT\l/2. semestr/PA2/GameBook\l/Shopping.h">
<polygon fill="none" stroke="black" points="945.591,-156.5 945.591,-197.5 1085.59,-197.5 1085.59,-156.5 945.591,-156.5"/>
<text text-anchor="start" x="953.591" y="-185.5" font-family="Helvetica,sans-Serif" font-size="10.00">E:/Dropbox/BI_FIT_CVUT</text>
<text text-anchor="start" x="953.591" y="-174.5" font-family="Helvetica,sans-Serif" font-size="10.00">/2. semestr/PA2/GameBook</text>
<text text-anchor="middle" x="1015.59" y="-163.5" font-family="Helvetica,sans-Serif" font-size="10.00">/Shopping.h</text>
</a>
</g>
</g>
<!-- Node11&#45;&gt;Node19 -->
<g id="edge33" class="edge"><title>Node11&#45;&gt;Node19</title>
<path fill="none" stroke="midnightblue" d="M908.739,-463.616C923.233,-455.46 937.369,-445.032 947.591,-432 1004.36,-359.624 1013.89,-243.82 1015.38,-197.793"/>
<polygon fill="midnightblue" stroke="midnightblue" points="906.898,-460.63 899.699,-468.403 910.174,-466.816 906.898,-460.63"/>
</g>
<!-- Node21 -->
<g id="node15" class="node"><title>Node21</title>
<g id="a_node15"><a xlink:href="_inventory_browser_8h.html" target="_top" xlink:title="E:/Dropbox/BI_FIT_CVUT\l/2. semestr/PA2/GameBook\l/InventoryBrowser.h">
<polygon fill="none" stroke="black" points="399.591,-156.5 399.591,-197.5 539.591,-197.5 539.591,-156.5 399.591,-156.5"/>
<text text-anchor="start" x="407.591" y="-185.5" font-family="Helvetica,sans-Serif" font-size="10.00">E:/Dropbox/BI_FIT_CVUT</text>
<text text-anchor="start" x="407.591" y="-174.5" font-family="Helvetica,sans-Serif" font-size="10.00">/2. semestr/PA2/GameBook</text>
<text text-anchor="middle" x="469.591" y="-163.5" font-family="Helvetica,sans-Serif" font-size="10.00">/InventoryBrowser.h</text>
</a>
</g>
</g>
<!-- Node11&#45;&gt;Node21 -->
<g id="edge34" class="edge"><title>Node11&#45;&gt;Node21</title>
<path fill="none" stroke="midnightblue" d="M765.26,-473.593C752.996,-471.59 740.47,-469.654 728.591,-468 570.753,-446.025 121.116,-477.654 20.5909,-354 -85.0393,-224.067 248.426,-189.733 399.371,-180.929"/>
<polygon fill="midnightblue" stroke="midnightblue" points="765.042,-477.105 775.48,-475.288 766.187,-470.199 765.042,-477.105"/>
</g>
<!-- Node23 -->
<g id="node17" class="node"><title>Node23</title>
<g id="a_node17"><a xlink:href="_interact_8h.html" target="_top" xlink:title="E:/Dropbox/BI_FIT_CVUT\l/2. semestr/PA2/GameBook\l/Interact.h">
<polygon fill="none" stroke="black" points="780.591,-156.5 780.591,-197.5 920.591,-197.5 920.591,-156.5 780.591,-156.5"/>
<text text-anchor="start" x="788.591" y="-185.5" font-family="Helvetica,sans-Serif" font-size="10.00">E:/Dropbox/BI_FIT_CVUT</text>
<text text-anchor="start" x="788.591" y="-174.5" font-family="Helvetica,sans-Serif" font-size="10.00">/2. semestr/PA2/GameBook</text>
<text text-anchor="middle" x="850.591" y="-163.5" font-family="Helvetica,sans-Serif" font-size="10.00">/Interact.h</text>
</a>
</g>
</g>
<!-- Node11&#45;&gt;Node23 -->
<g id="edge35" class="edge"><title>Node11&#45;&gt;Node23</title>
<path fill="none" stroke="midnightblue" d="M893.869,-462.654C905.567,-454.36 916.903,-444.105 924.591,-432 962.238,-372.727 944.676,-346.046 949.591,-276 950.897,-257.379 958.995,-250.125 949.591,-234 940.239,-217.966 924.407,-206.157 908.115,-197.631"/>
<polygon fill="midnightblue" stroke="midnightblue" points="891.712,-459.886 885.333,-468.346 895.595,-465.71 891.712,-459.886"/>
</g>
<!-- Node33 -->
<g id="node27" class="node"><title>Node33</title>
<g id="a_node27"><a xlink:href="_hero_8cpp.html" target="_top" xlink:title="E:/Dropbox/BI_FIT_CVUT\l/2. semestr/PA2/GameBook\l/Hero.cpp">
<polygon fill="none" stroke="black" points="775.591,-390.5 775.591,-431.5 915.591,-431.5 915.591,-390.5 775.591,-390.5"/>
<text text-anchor="start" x="783.591" y="-419.5" font-family="Helvetica,sans-Serif" font-size="10.00">E:/Dropbox/BI_FIT_CVUT</text>
<text text-anchor="start" x="783.591" y="-408.5" font-family="Helvetica,sans-Serif" font-size="10.00">/2. semestr/PA2/GameBook</text>
<text text-anchor="middle" x="845.591" y="-397.5" font-family="Helvetica,sans-Serif" font-size="10.00">/Hero.cpp</text>
</a>
</g>
</g>
<!-- Node11&#45;&gt;Node33 -->
<g id="edge36" class="edge"><title>Node11&#45;&gt;Node33</title>
<path fill="none" stroke="midnightblue" d="M845.591,-458.297C845.591,-449.301 845.591,-439.653 845.591,-431.506"/>
<polygon fill="midnightblue" stroke="midnightblue" points="842.091,-458.428 845.591,-468.428 849.091,-458.428 842.091,-458.428"/>
</g>
<!-- Node13 -->
<g id="node7" class="node"><title>Node13</title>
<g id="a_node7"><a xlink:href="_choice_8h.html" target="_top" xlink:title="E:/Dropbox/BI_FIT_CVUT\l/2. semestr/PA2/GameBook\l/Choice.h">
<polygon fill="none" stroke="black" points="345.591,-312.5 345.591,-353.5 485.591,-353.5 485.591,-312.5 345.591,-312.5"/>
<text text-anchor="start" x="353.591" y="-341.5" font-family="Helvetica,sans-Serif" font-size="10.00">E:/Dropbox/BI_FIT_CVUT</text>
<text text-anchor="start" x="353.591" y="-330.5" font-family="Helvetica,sans-Serif" font-size="10.00">/2. semestr/PA2/GameBook</text>
<text text-anchor="middle" x="415.591" y="-319.5" font-family="Helvetica,sans-Serif" font-size="10.00">/Choice.h</text>
</a>
</g>
</g>
<!-- Node12&#45;&gt;Node13 -->
<g id="edge6" class="edge"><title>Node12&#45;&gt;Node13</title>
<path fill="none" stroke="midnightblue" d="M452.48,-382.338C445.184,-372.778 437.168,-362.273 430.477,-353.506"/>
<polygon fill="midnightblue" stroke="midnightblue" points="449.805,-384.602 458.654,-390.428 455.37,-380.355 449.805,-384.602"/>
</g>
<!-- Node12&#45;&gt;Node15 -->
<g id="edge29" class="edge"><title>Node12&#45;&gt;Node15</title>
<path fill="none" stroke="midnightblue" d="M553.778,-397.75C586.946,-389.6 624.201,-376.139 652.591,-354 678.863,-333.513 696.391,-298.051 705.404,-275.87"/>
<polygon fill="midnightblue" stroke="midnightblue" points="552.576,-394.436 543.63,-400.112 554.163,-401.254 552.576,-394.436"/>
</g>
<!-- Node26 -->
<g id="node20" class="node"><title>Node26</title>
<g id="a_node20"><a xlink:href="_dialogue_n_c_p_8h.html" target="_top" xlink:title="E:/Dropbox/BI_FIT_CVUT\l/2. semestr/PA2/GameBook\l/DialogueNCP.h">
<polygon fill="none" stroke="black" points="187.591,-312.5 187.591,-353.5 327.591,-353.5 327.591,-312.5 187.591,-312.5"/>
<text text-anchor="start" x="195.591" y="-341.5" font-family="Helvetica,sans-Serif" font-size="10.00">E:/Dropbox/BI_FIT_CVUT</text>
<text text-anchor="start" x="195.591" y="-330.5" font-family="Helvetica,sans-Serif" font-size="10.00">/2. semestr/PA2/GameBook</text>
<text text-anchor="middle" x="257.591" y="-319.5" font-family="Helvetica,sans-Serif" font-size="10.00">/DialogueNCP.h</text>
</a>
</g>
</g>
<!-- Node12&#45;&gt;Node26 -->
<g id="edge22" class="edge"><title>Node12&#45;&gt;Node26</title>
<path fill="none" stroke="midnightblue" d="M408.298,-387.026C377.89,-376.328 342.099,-363.734 313.028,-353.506"/>
<polygon fill="midnightblue" stroke="midnightblue" points="407.371,-390.411 417.966,-390.428 409.694,-383.807 407.371,-390.411"/>
</g>
<!-- Node28 -->
<g id="node22" class="node"><title>Node28</title>
<g id="a_node22"><a xlink:href="_event_8cpp.html" target="_top" xlink:title="E:/Dropbox/BI_FIT_CVUT\l/2. semestr/PA2/GameBook\l/Event.cpp">
<polygon fill="none" stroke="black" points="29.5909,-312.5 29.5909,-353.5 169.591,-353.5 169.591,-312.5 29.5909,-312.5"/>
<text text-anchor="start" x="37.5909" y="-341.5" font-family="Helvetica,sans-Serif" font-size="10.00">E:/Dropbox/BI_FIT_CVUT</text>
<text text-anchor="start" x="37.5909" y="-330.5" font-family="Helvetica,sans-Serif" font-size="10.00">/2. semestr/PA2/GameBook</text>
<text text-anchor="middle" x="99.5909" y="-319.5" font-family="Helvetica,sans-Serif" font-size="10.00">/Event.cpp</text>
</a>
</g>
</g>
<!-- Node12&#45;&gt;Node28 -->
<g id="edge25" class="edge"><title>Node12&#45;&gt;Node28</title>
<path fill="none" stroke="midnightblue" d="M393.233,-396.098C333.766,-385.482 250.884,-369.997 178.591,-354 175.69,-353.358 172.733,-352.687 169.75,-351.996"/>
<polygon fill="midnightblue" stroke="midnightblue" points="392.854,-399.585 403.312,-397.89 394.08,-392.693 392.854,-399.585"/>
</g>
<!-- Node29 -->
<g id="node23" class="node"><title>Node29</title>
<g id="a_node23"><a xlink:href="_fight_8h.html" target="_top" xlink:title="E:/Dropbox/BI_FIT_CVUT\l/2. semestr/PA2/GameBook\l/Fight.h">
<polygon fill="none" stroke="black" points="789.591,-312.5 789.591,-353.5 929.591,-353.5 929.591,-312.5 789.591,-312.5"/>
<text text-anchor="start" x="797.591" y="-341.5" font-family="Helvetica,sans-Serif" font-size="10.00">E:/Dropbox/BI_FIT_CVUT</text>
<text text-anchor="start" x="797.591" y="-330.5" font-family="Helvetica,sans-Serif" font-size="10.00">/2. semestr/PA2/GameBook</text>
<text text-anchor="middle" x="859.591" y="-319.5" font-family="Helvetica,sans-Serif" font-size="10.00">/Fight.h</text>
</a>
</g>
</g>
<!-- Node12&#45;&gt;Node29 -->
<g id="edge26" class="edge"><title>Node12&#45;&gt;Node29</title>
<path fill="none" stroke="midnightblue" d="M553.974,-394.173C623.503,-380.484 723.025,-360.889 789.399,-347.82"/>
<polygon fill="midnightblue" stroke="midnightblue" points="553.076,-390.783 543.94,-396.149 554.428,-397.651 553.076,-390.783"/>
</g>
<!-- Node31 -->
<g id="node25" class="node"><title>Node31</title>
<g id="a_node25"><a xlink:href="_trap_8h.html" target="_top" xlink:title="E:/Dropbox/BI_FIT_CVUT\l/2. semestr/PA2/GameBook\l/Trap.h">
<polygon fill="none" stroke="black" points="503.591,-312.5 503.591,-353.5 643.591,-353.5 643.591,-312.5 503.591,-312.5"/>
<text text-anchor="start" x="511.591" y="-341.5" font-family="Helvetica,sans-Serif" font-size="10.00">E:/Dropbox/BI_FIT_CVUT</text>
<text text-anchor="start" x="511.591" y="-330.5" font-family="Helvetica,sans-Serif" font-size="10.00">/2. semestr/PA2/GameBook</text>
<text text-anchor="middle" x="573.591" y="-319.5" font-family="Helvetica,sans-Serif" font-size="10.00">/Trap.h</text>
</a>
</g>
</g>
<!-- Node12&#45;&gt;Node31 -->
<g id="edge30" class="edge"><title>Node12&#45;&gt;Node31</title>
<path fill="none" stroke="midnightblue" d="M507.34,-384.35C520.602,-374.272 535.574,-362.893 547.926,-353.506"/>
<polygon fill="midnightblue" stroke="midnightblue" points="505.187,-381.591 499.343,-390.428 509.423,-387.164 505.187,-381.591"/>
</g>
<!-- Node14 -->
<g id="node8" class="node"><title>Node14</title>
<g id="a_node8"><a xlink:href="_choice_8cpp.html" target="_top" xlink:title="E:/Dropbox/BI_FIT_CVUT\l/2. semestr/PA2/GameBook\l/Choice.cpp">
<polygon fill="none" stroke="black" points="326.591,-234.5 326.591,-275.5 466.591,-275.5 466.591,-234.5 326.591,-234.5"/>
<text text-anchor="start" x="334.591" y="-263.5" font-family="Helvetica,sans-Serif" font-size="10.00">E:/Dropbox/BI_FIT_CVUT</text>
<text text-anchor="start" x="334.591" y="-252.5" font-family="Helvetica,sans-Serif" font-size="10.00">/2. semestr/PA2/GameBook</text>
<text text-anchor="middle" x="396.591" y="-241.5" font-family="Helvetica,sans-Serif" font-size="10.00">/Choice.cpp</text>
</a>
</g>
</g>
<!-- Node13&#45;&gt;Node14 -->
<g id="edge7" class="edge"><title>Node13&#45;&gt;Node14</title>
<path fill="none" stroke="midnightblue" d="M408.238,-302.59C405.969,-293.511 403.526,-283.742 401.467,-275.506"/>
<polygon fill="midnightblue" stroke="midnightblue" points="404.877,-303.576 410.698,-312.428 411.668,-301.878 404.877,-303.576"/>
</g>
<!-- Node13&#45;&gt;Node15 -->
<g id="edge8" class="edge"><title>Node13&#45;&gt;Node15</title>
<path fill="none" stroke="midnightblue" d="M495.506,-311.55C541.375,-299.813 598.432,-285.212 642.538,-273.926"/>
<polygon fill="midnightblue" stroke="midnightblue" points="494.42,-308.215 485.6,-314.085 496.155,-314.997 494.42,-308.215"/>
</g>
<!-- Node16 -->
<g id="node10" class="node"><title>Node16</title>
<g id="a_node10"><a xlink:href="_game_8h.html" target="_top" xlink:title="E:/Dropbox/BI_FIT_CVUT\l/2. semestr/PA2/GameBook\l/Game.h">
<polygon fill="none" stroke="black" points="629.591,-78.5 629.591,-119.5 769.591,-119.5 769.591,-78.5 629.591,-78.5"/>
<text text-anchor="start" x="637.591" y="-107.5" font-family="Helvetica,sans-Serif" font-size="10.00">E:/Dropbox/BI_FIT_CVUT</text>
<text text-anchor="start" x="637.591" y="-96.5" font-family="Helvetica,sans-Serif" font-size="10.00">/2. semestr/PA2/GameBook</text>
<text text-anchor="middle" x="699.591" y="-85.5" font-family="Helvetica,sans-Serif" font-size="10.00">/Game.h</text>
</a>
</g>
</g>
<!-- Node15&#45;&gt;Node16 -->
<g id="edge9" class="edge"><title>Node15&#45;&gt;Node16</title>
<path fill="none" stroke="midnightblue" d="M711.265,-224.372C710.274,-204.913 708.722,-178.913 706.591,-156 705.466,-143.903 703.788,-130.386 702.357,-119.663"/>
<polygon fill="midnightblue" stroke="midnightblue" points="707.774,-224.632 711.758,-234.449 714.765,-224.29 707.774,-224.632"/>
</g>
<!-- Node15&#45;&gt;Node19 -->
<g id="edge12" class="edge"><title>Node15&#45;&gt;Node19</title>
<path fill="none" stroke="midnightblue" d="M792.672,-233.731C849.423,-219.461 903.71,-205.893 945.458,-195.476"/>
<polygon fill="midnightblue" stroke="midnightblue" points="791.644,-230.38 782.799,-236.214 793.351,-237.169 791.644,-230.38"/>
</g>
<!-- Node15&#45;&gt;Node21 -->
<g id="edge15" class="edge"><title>Node15&#45;&gt;Node21</title>
<path fill="none" stroke="midnightblue" d="M640.466,-231.442C605.975,-220.655 565.087,-207.867 531.957,-197.506"/>
<polygon fill="midnightblue" stroke="midnightblue" points="639.423,-234.783 650.012,-234.428 641.513,-228.103 639.423,-234.783"/>
</g>
<!-- Node15&#45;&gt;Node23 -->
<g id="edge18" class="edge"><title>Node15&#45;&gt;Node23</title>
<path fill="none" stroke="midnightblue" d="M757.104,-229.486C775.901,-219.134 797.484,-207.247 815.173,-197.506"/>
<polygon fill="midnightblue" stroke="midnightblue" points="755.2,-226.538 748.129,-234.428 758.577,-232.67 755.2,-226.538"/>
</g>
<!-- Node25 -->
<g id="node19" class="node"><title>Node25</title>
<g id="a_node19"><a xlink:href="_world_8cpp.html" target="_top" xlink:title="E:/Dropbox/BI_FIT_CVUT\l/2. semestr/PA2/GameBook\l/World.cpp">
<polygon fill="none" stroke="black" points="557.591,-156.5 557.591,-197.5 697.591,-197.5 697.591,-156.5 557.591,-156.5"/>
<text text-anchor="start" x="565.591" y="-185.5" font-family="Helvetica,sans-Serif" font-size="10.00">E:/Dropbox/BI_FIT_CVUT</text>
<text text-anchor="start" x="565.591" y="-174.5" font-family="Helvetica,sans-Serif" font-size="10.00">/2. semestr/PA2/GameBook</text>
<text text-anchor="middle" x="627.591" y="-163.5" font-family="Helvetica,sans-Serif" font-size="10.00">/World.cpp</text>
</a>
</g>
</g>
<!-- Node15&#45;&gt;Node25 -->
<g id="edge21" class="edge"><title>Node15&#45;&gt;Node25</title>
<path fill="none" stroke="midnightblue" d="M682.943,-227.492C671.913,-217.629 659.608,-206.627 649.406,-197.506"/>
<polygon fill="midnightblue" stroke="midnightblue" points="680.914,-230.372 690.701,-234.428 685.579,-225.154 680.914,-230.372"/>
</g>
<!-- Node17 -->
<g id="node11" class="node"><title>Node17</title>
<g id="a_node11"><a xlink:href="_game_8cpp.html" target="_top" xlink:title="E:/Dropbox/BI_FIT_CVUT\l/2. semestr/PA2/GameBook\l/Game.cpp">
<polygon fill="none" stroke="black" points="550.591,-0.5 550.591,-41.5 690.591,-41.5 690.591,-0.5 550.591,-0.5"/>
<text text-anchor="start" x="558.591" y="-29.5" font-family="Helvetica,sans-Serif" font-size="10.00">E:/Dropbox/BI_FIT_CVUT</text>
<text text-anchor="start" x="558.591" y="-18.5" font-family="Helvetica,sans-Serif" font-size="10.00">/2. semestr/PA2/GameBook</text>
<text text-anchor="middle" x="620.591" y="-7.5" font-family="Helvetica,sans-Serif" font-size="10.00">/Game.cpp</text>
</a>
</g>
</g>
<!-- Node16&#45;&gt;Node17 -->
<g id="edge10" class="edge"><title>Node16&#45;&gt;Node17</title>
<path fill="none" stroke="midnightblue" d="M672.036,-71.4916C661.785,-61.6294 650.348,-50.6273 640.866,-41.5056"/>
<polygon fill="midnightblue" stroke="midnightblue" points="669.613,-74.0175 679.246,-78.4281 674.466,-68.9729 669.613,-74.0175"/>
</g>
<!-- Node18 -->
<g id="node12" class="node"><title>Node18</title>
<g id="a_node12"><a xlink:href="main_8cpp.html" target="_top" xlink:title="E:/Dropbox/BI_FIT_CVUT\l/2. semestr/PA2/GameBook\l/main.cpp">
<polygon fill="none" stroke="black" points="708.591,-0.5 708.591,-41.5 848.591,-41.5 848.591,-0.5 708.591,-0.5"/>
<text text-anchor="start" x="716.591" y="-29.5" font-family="Helvetica,sans-Serif" font-size="10.00">E:/Dropbox/BI_FIT_CVUT</text>
<text text-anchor="start" x="716.591" y="-18.5" font-family="Helvetica,sans-Serif" font-size="10.00">/2. semestr/PA2/GameBook</text>
<text text-anchor="middle" x="778.591" y="-7.5" font-family="Helvetica,sans-Serif" font-size="10.00">/main.cpp</text>
</a>
</g>
</g>
<!-- Node16&#45;&gt;Node18 -->
<g id="edge11" class="edge"><title>Node16&#45;&gt;Node18</title>
<path fill="none" stroke="midnightblue" d="M727.146,-71.4916C737.397,-61.6294 748.834,-50.6273 758.315,-41.5056"/>
<polygon fill="midnightblue" stroke="midnightblue" points="724.715,-68.9729 719.935,-78.4281 729.568,-74.0175 724.715,-68.9729"/>
</g>
<!-- Node19&#45;&gt;Node16 -->
<g id="edge13" class="edge"><title>Node19&#45;&gt;Node16</title>
<path fill="none" stroke="midnightblue" d="M935.452,-157.208C878.849,-143.908 808.034,-127.205 778.591,-120 775.705,-119.294 772.761,-118.569 769.788,-117.833"/>
<polygon fill="midnightblue" stroke="midnightblue" points="934.946,-160.685 945.482,-159.564 936.547,-153.87 934.946,-160.685"/>
</g>
<!-- Node20 -->
<g id="node14" class="node"><title>Node20</title>
<g id="a_node14"><a xlink:href="_shopping_8cpp.html" target="_top" xlink:title="E:/Dropbox/BI_FIT_CVUT\l/2. semestr/PA2/GameBook\l/Shopping.cpp">
<polygon fill="none" stroke="black" points="945.591,-78.5 945.591,-119.5 1085.59,-119.5 1085.59,-78.5 945.591,-78.5"/>
<text text-anchor="start" x="953.591" y="-107.5" font-family="Helvetica,sans-Serif" font-size="10.00">E:/Dropbox/BI_FIT_CVUT</text>
<text text-anchor="start" x="953.591" y="-96.5" font-family="Helvetica,sans-Serif" font-size="10.00">/2. semestr/PA2/GameBook</text>
<text text-anchor="middle" x="1015.59" y="-85.5" font-family="Helvetica,sans-Serif" font-size="10.00">/Shopping.cpp</text>
</a>
</g>
</g>
<!-- Node19&#45;&gt;Node20 -->
<g id="edge14" class="edge"><title>Node19&#45;&gt;Node20</title>
<path fill="none" stroke="midnightblue" d="M1015.59,-146.297C1015.59,-137.301 1015.59,-127.653 1015.59,-119.506"/>
<polygon fill="midnightblue" stroke="midnightblue" points="1012.09,-146.428 1015.59,-156.428 1019.09,-146.428 1012.09,-146.428"/>
</g>
<!-- Node21&#45;&gt;Node16 -->
<g id="edge16" class="edge"><title>Node21&#45;&gt;Node16</title>
<path fill="none" stroke="midnightblue" d="M538.696,-153.165C571.164,-142.437 609.471,-129.779 640.561,-119.506"/>
<polygon fill="midnightblue" stroke="midnightblue" points="537.219,-149.967 528.822,-156.428 539.415,-156.614 537.219,-149.967"/>
</g>
<!-- Node22 -->
<g id="node16" class="node"><title>Node22</title>
<g id="a_node16"><a xlink:href="_inventory_browser_8cpp.html" target="_top" xlink:title="E:/Dropbox/BI_FIT_CVUT\l/2. semestr/PA2/GameBook\l/InventoryBrowser.cpp">
<polygon fill="none" stroke="black" points="399.591,-78.5 399.591,-119.5 539.591,-119.5 539.591,-78.5 399.591,-78.5"/>
<text text-anchor="start" x="407.591" y="-107.5" font-family="Helvetica,sans-Serif" font-size="10.00">E:/Dropbox/BI_FIT_CVUT</text>
<text text-anchor="start" x="407.591" y="-96.5" font-family="Helvetica,sans-Serif" font-size="10.00">/2. semestr/PA2/GameBook</text>
<text text-anchor="middle" x="469.591" y="-85.5" font-family="Helvetica,sans-Serif" font-size="10.00">/InventoryBrowser.cpp</text>
</a>
</g>
</g>
<!-- Node21&#45;&gt;Node22 -->
<g id="edge17" class="edge"><title>Node21&#45;&gt;Node22</title>
<path fill="none" stroke="midnightblue" d="M469.591,-146.297C469.591,-137.301 469.591,-127.653 469.591,-119.506"/>
<polygon fill="midnightblue" stroke="midnightblue" points="466.091,-146.428 469.591,-156.428 473.091,-146.428 466.091,-146.428"/>
</g>
<!-- Node23&#45;&gt;Node16 -->
<g id="edge19" class="edge"><title>Node23&#45;&gt;Node16</title>
<path fill="none" stroke="midnightblue" d="M802.724,-151.908C781.962,-141.458 757.965,-129.38 738.345,-119.506"/>
<polygon fill="midnightblue" stroke="midnightblue" points="801.199,-155.059 811.705,-156.428 804.346,-148.806 801.199,-155.059"/>
</g>
<!-- Node24 -->
<g id="node18" class="node"><title>Node24</title>
<g id="a_node18"><a xlink:href="_interact_8cpp.html" target="_top" xlink:title="E:/Dropbox/BI_FIT_CVUT\l/2. semestr/PA2/GameBook\l/Interact.cpp">
<polygon fill="none" stroke="black" points="787.591,-78.5 787.591,-119.5 927.591,-119.5 927.591,-78.5 787.591,-78.5"/>
<text text-anchor="start" x="795.591" y="-107.5" font-family="Helvetica,sans-Serif" font-size="10.00">E:/Dropbox/BI_FIT_CVUT</text>
<text text-anchor="start" x="795.591" y="-96.5" font-family="Helvetica,sans-Serif" font-size="10.00">/2. semestr/PA2/GameBook</text>
<text text-anchor="middle" x="857.591" y="-85.5" font-family="Helvetica,sans-Serif" font-size="10.00">/Interact.cpp</text>
</a>
</g>
</g>
<!-- Node23&#45;&gt;Node24 -->
<g id="edge20" class="edge"><title>Node23&#45;&gt;Node24</title>
<path fill="none" stroke="midnightblue" d="M853.327,-146.297C854.155,-137.301 855.044,-127.653 855.794,-119.506"/>
<polygon fill="midnightblue" stroke="midnightblue" points="849.826,-146.149 852.394,-156.428 856.796,-146.791 849.826,-146.149"/>
</g>
<!-- Node26&#45;&gt;Node15 -->
<g id="edge24" class="edge"><title>Node26&#45;&gt;Node15</title>
<path fill="none" stroke="midnightblue" d="M337.742,-311.913C469.099,-288.234 506.068,-299.771 633.591,-276 636.512,-275.456 639.485,-274.866 642.482,-274.242"/>
<polygon fill="midnightblue" stroke="midnightblue" points="336.902,-308.509 327.7,-313.758 338.167,-315.393 336.902,-308.509"/>
</g>
<!-- Node27 -->
<g id="node21" class="node"><title>Node27</title>
<g id="a_node21"><a xlink:href="_dialogue_n_c_p_8cpp.html" target="_top" xlink:title="E:/Dropbox/BI_FIT_CVUT\l/2. semestr/PA2/GameBook\l/DialogueNCP.cpp">
<polygon fill="none" stroke="black" points="168.591,-234.5 168.591,-275.5 308.591,-275.5 308.591,-234.5 168.591,-234.5"/>
<text text-anchor="start" x="176.591" y="-263.5" font-family="Helvetica,sans-Serif" font-size="10.00">E:/Dropbox/BI_FIT_CVUT</text>
<text text-anchor="start" x="176.591" y="-252.5" font-family="Helvetica,sans-Serif" font-size="10.00">/2. semestr/PA2/GameBook</text>
<text text-anchor="middle" x="238.591" y="-241.5" font-family="Helvetica,sans-Serif" font-size="10.00">/DialogueNCP.cpp</text>
</a>
</g>
</g>
<!-- Node26&#45;&gt;Node27 -->
<g id="edge23" class="edge"><title>Node26&#45;&gt;Node27</title>
<path fill="none" stroke="midnightblue" d="M250.238,-302.59C247.969,-293.511 245.526,-283.742 243.467,-275.506"/>
<polygon fill="midnightblue" stroke="midnightblue" points="246.877,-303.576 252.698,-312.428 253.668,-301.878 246.877,-303.576"/>
</g>
<!-- Node29&#45;&gt;Node15 -->
<g id="edge28" class="edge"><title>Node29&#45;&gt;Node15</title>
<path fill="none" stroke="midnightblue" d="M812.72,-307.768C792.57,-297.35 769.333,-285.336 750.319,-275.506"/>
<polygon fill="midnightblue" stroke="midnightblue" points="811.244,-310.945 821.735,-312.428 814.459,-304.726 811.244,-310.945"/>
</g>
<!-- Node30 -->
<g id="node24" class="node"><title>Node30</title>
<g id="a_node24"><a xlink:href="_fight_8cpp.html" target="_top" xlink:title="E:/Dropbox/BI_FIT_CVUT\l/2. semestr/PA2/GameBook\l/Fight.cpp">
<polygon fill="none" stroke="black" points="800.591,-234.5 800.591,-275.5 940.591,-275.5 940.591,-234.5 800.591,-234.5"/>
<text text-anchor="start" x="808.591" y="-263.5" font-family="Helvetica,sans-Serif" font-size="10.00">E:/Dropbox/BI_FIT_CVUT</text>
<text text-anchor="start" x="808.591" y="-252.5" font-family="Helvetica,sans-Serif" font-size="10.00">/2. semestr/PA2/GameBook</text>
<text text-anchor="middle" x="870.591" y="-241.5" font-family="Helvetica,sans-Serif" font-size="10.00">/Fight.cpp</text>
</a>
</g>
</g>
<!-- Node29&#45;&gt;Node30 -->
<g id="edge27" class="edge"><title>Node29&#45;&gt;Node30</title>
<path fill="none" stroke="midnightblue" d="M863.89,-302.297C865.192,-293.301 866.588,-283.653 867.768,-275.506"/>
<polygon fill="midnightblue" stroke="midnightblue" points="860.392,-302.03 862.424,-312.428 867.32,-303.033 860.392,-302.03"/>
</g>
<!-- Node31&#45;&gt;Node15 -->
<g id="edge31" class="edge"><title>Node31&#45;&gt;Node15</title>
<path fill="none" stroke="midnightblue" d="M618.168,-307.627C637.162,-297.242 659.018,-285.292 676.916,-275.506"/>
<polygon fill="midnightblue" stroke="midnightblue" points="616.482,-304.56 609.387,-312.428 619.84,-310.702 616.482,-304.56"/>
</g>
<!-- Node32 -->
<g id="node26" class="node"><title>Node32</title>
<g id="a_node26"><a xlink:href="_trap_8cpp.html" target="_top" xlink:title="E:/Dropbox/BI_FIT_CVUT\l/2. semestr/PA2/GameBook\l/Trap.cpp">
<polygon fill="none" stroke="black" points="484.591,-234.5 484.591,-275.5 624.591,-275.5 624.591,-234.5 484.591,-234.5"/>
<text text-anchor="start" x="492.591" y="-263.5" font-family="Helvetica,sans-Serif" font-size="10.00">E:/Dropbox/BI_FIT_CVUT</text>
<text text-anchor="start" x="492.591" y="-252.5" font-family="Helvetica,sans-Serif" font-size="10.00">/2. semestr/PA2/GameBook</text>
<text text-anchor="middle" x="554.591" y="-241.5" font-family="Helvetica,sans-Serif" font-size="10.00">/Trap.cpp</text>
</a>
</g>
</g>
<!-- Node31&#45;&gt;Node32 -->
<g id="edge32" class="edge"><title>Node31&#45;&gt;Node32</title>
<path fill="none" stroke="midnightblue" d="M566.238,-302.59C563.969,-293.511 561.526,-283.742 559.467,-275.506"/>
<polygon fill="midnightblue" stroke="midnightblue" points="562.877,-303.576 568.698,-312.428 569.668,-301.878 562.877,-303.576"/>
</g>
<!-- Node34&#45;&gt;Node11 -->
<g id="edge39" class="edge"><title>Node34&#45;&gt;Node11</title>
<path fill="none" stroke="midnightblue" d="M695.582,-543.026C725.849,-532.328 761.474,-519.734 790.411,-509.506"/>
<polygon fill="midnightblue" stroke="midnightblue" points="694.221,-539.795 685.959,-546.428 696.554,-546.395 694.221,-539.795"/>
</g>
<!-- Node34&#45;&gt;Node15 -->
<g id="edge40" class="edge"><title>Node34&#45;&gt;Node15</title>
<path fill="none" stroke="midnightblue" d="M696.328,-541.224C709.201,-533.258 721.039,-523.013 728.591,-510 773.057,-433.377 738.056,-320.972 720.791,-275.834"/>
<polygon fill="midnightblue" stroke="midnightblue" points="694.241,-538.385 687.291,-546.382 697.711,-544.465 694.241,-538.385"/>
</g>
<!-- Node35 -->
<g id="node29" class="node"><title>Node35</title>
<g id="a_node29"><a xlink:href="_sword_8cpp.html" target="_top" xlink:title="E:/Dropbox/BI_FIT_CVUT\l/2. semestr/PA2/GameBook\l/Sword.cpp">
<polygon fill="none" stroke="black" points="579.591,-468.5 579.591,-509.5 719.591,-509.5 719.591,-468.5 579.591,-468.5"/>
<text text-anchor="start" x="587.591" y="-497.5" font-family="Helvetica,sans-Serif" font-size="10.00">E:/Dropbox/BI_FIT_CVUT</text>
<text text-anchor="start" x="587.591" y="-486.5" font-family="Helvetica,sans-Serif" font-size="10.00">/2. semestr/PA2/GameBook</text>
<text text-anchor="middle" x="649.591" y="-475.5" font-family="Helvetica,sans-Serif" font-size="10.00">/Sword.cpp</text>
</a>
</g>
</g>
<!-- Node34&#45;&gt;Node35 -->
<g id="edge41" class="edge"><title>Node34&#45;&gt;Node35</title>
<path fill="none" stroke="midnightblue" d="M637.943,-536.59C640.213,-527.511 642.655,-517.742 644.714,-509.506"/>
<polygon fill="midnightblue" stroke="midnightblue" points="634.514,-535.878 635.484,-546.428 641.305,-537.576 634.514,-535.878"/>
</g>
<!-- Node37&#45;&gt;Node11 -->
<g id="edge46" class="edge"><title>Node37&#45;&gt;Node11</title>
<path fill="none" stroke="midnightblue" d="M967.788,-542.469C943.155,-531.892 914.428,-519.557 891.018,-509.506"/>
<polygon fill="midnightblue" stroke="midnightblue" points="966.439,-545.699 977.009,-546.428 969.201,-539.267 966.439,-545.699"/>
</g>
<!-- Node37&#45;&gt;Node29 -->
<g id="edge48" class="edge"><title>Node37&#45;&gt;Node29</title>
<path fill="none" stroke="midnightblue" d="M988.213,-539.53C978.854,-530.948 969.426,-520.824 962.591,-510 932.72,-462.699 955.397,-436.698 924.591,-390 915.322,-375.95 901.572,-363.393 889.102,-353.748"/>
<polygon fill="midnightblue" stroke="midnightblue" points="986.173,-542.396 995.999,-546.358 990.788,-537.133 986.173,-542.396"/>
</g>
<!-- Node38 -->
<g id="node32" class="node"><title>Node38</title>
<g id="a_node32"><a xlink:href="_creature_8cpp.html" target="_top" xlink:title="E:/Dropbox/BI_FIT_CVUT\l/2. semestr/PA2/GameBook\l/Creature.cpp">
<polygon fill="none" stroke="black" points="971.591,-468.5 971.591,-509.5 1111.59,-509.5 1111.59,-468.5 971.591,-468.5"/>
<text text-anchor="start" x="979.591" y="-497.5" font-family="Helvetica,sans-Serif" font-size="10.00">E:/Dropbox/BI_FIT_CVUT</text>
<text text-anchor="start" x="979.591" y="-486.5" font-family="Helvetica,sans-Serif" font-size="10.00">/2. semestr/PA2/GameBook</text>
<text text-anchor="middle" x="1041.59" y="-475.5" font-family="Helvetica,sans-Serif" font-size="10.00">/Creature.cpp</text>
</a>
</g>
</g>
<!-- Node37&#45;&gt;Node38 -->
<g id="edge47" class="edge"><title>Node37&#45;&gt;Node38</title>
<path fill="none" stroke="midnightblue" d="M1029.94,-536.59C1032.21,-527.511 1034.66,-517.742 1036.71,-509.506"/>
<polygon fill="midnightblue" stroke="midnightblue" points="1026.51,-535.878 1027.48,-546.428 1033.3,-537.576 1026.51,-535.878"/>
</g>
</g>
</svg>
