<?xml version="1.0" encoding="UTF-8" standalone="no"?>
<!DOCTYPE svg PUBLIC "-//W3C//DTD SVG 1.1//EN"
 "http://www.w3.org/Graphics/SVG/1.1/DTD/svg11.dtd">
<!-- Generated by graphviz version 2.38.0 (20140413.2041)
 -->
<!-- Title: E:/Dropbox/BI_FIT_CVUT/2. semestr/PA2/GameBook/Display.cpp Pages: 1 -->
<svg width="367pt" height="218pt"
 viewBox="0.00 0.00 366.50 218.00" xmlns="http://www.w3.org/2000/svg" xmlns:xlink="http://www.w3.org/1999/xlink">
<g id="graph0" class="graph" transform="scale(1 1) rotate(0) translate(4 214)">
<title>E:/Dropbox/BI_FIT_CVUT/2. semestr/PA2/GameBook/Display.cpp</title>
<!-- Node0 -->
<g id="node1" class="node"><title>Node0</title>
<polygon fill="#bfbfbf" stroke="black" points="102,-168.5 102,-209.5 242,-209.5 242,-168.5 102,-168.5"/>
<text text-anchor="start" x="110" y="-197.5" font-family="Helvetica,sans-Serif" font-size="10.00">E:/Dropbox/BI_FIT_CVUT</text>
<text text-anchor="start" x="110" y="-186.5" font-family="Helvetica,sans-Serif" font-size="10.00">/2. semestr/PA2/GameBook</text>
<text text-anchor="middle" x="172" y="-175.5" font-family="Helvetica,sans-Serif" font-size="10.00">/Display.cpp</text>
</g>
<!-- Node1 -->
<g id="node2" class="node"><title>Node1</title>
<g id="a_node2"><a xlink:href="_display_8h.html" target="_top" xlink:title="Display.h">
<polygon fill="none" stroke="black" points="143.5,-112.5 143.5,-131.5 200.5,-131.5 200.5,-112.5 143.5,-112.5"/>
<text text-anchor="middle" x="172" y="-119.5" font-family="Helvetica,sans-Serif" font-size="10.00">Display.h</text>
</a>
</g>
</g>
<!-- Node0&#45;&gt;Node1 -->
<g id="edge1" class="edge"><title>Node0&#45;&gt;Node1</title>
<path fill="none" stroke="midnightblue" d="M172,-168.498C172,-160.065 172,-150.235 172,-141.874"/>
<polygon fill="midnightblue" stroke="midnightblue" points="175.5,-141.652 172,-131.652 168.5,-141.653 175.5,-141.652"/>
</g>
<!-- Node2 -->
<g id="node3" class="node"><title>Node2</title>
<polygon fill="none" stroke="#bfbfbf" points="0,-0.5 0,-19.5 42,-19.5 42,-0.5 0,-0.5"/>
<text text-anchor="middle" x="21" y="-7.5" font-family="Helvetica,sans-Serif" font-size="10.00">vector</text>
</g>
<!-- Node1&#45;&gt;Node2 -->
<g id="edge2" class="edge"><title>Node1&#45;&gt;Node2</title>
<path fill="none" stroke="midnightblue" d="M143.422,-119.511C112.442,-116.317 63.724,-106.422 36,-76 24.6742,-63.5719 21.3703,-44.3337 20.6322,-30.0074"/>
<polygon fill="midnightblue" stroke="midnightblue" points="24.1288,-29.7439 20.486,-19.795 17.1296,-29.8441 24.1288,-29.7439"/>
</g>
<!-- Node3 -->
<g id="node4" class="node"><title>Node3</title>
<polygon fill="none" stroke="#bfbfbf" points="71.5,-0.5 71.5,-19.5 112.5,-19.5 112.5,-0.5 71.5,-0.5"/>
<text text-anchor="middle" x="92" y="-7.5" font-family="Helvetica,sans-Serif" font-size="10.00">string</text>
</g>
<!-- Node1&#45;&gt;Node3 -->
<g id="edge3" class="edge"><title>Node1&#45;&gt;Node3</title>
<path fill="none" stroke="midnightblue" d="M167.656,-112.205C161.129,-99.3407 148.051,-74.8728 134,-56 126.359,-45.7366 116.678,-35.2299 108.536,-26.9526"/>
<polygon fill="midnightblue" stroke="midnightblue" points="110.88,-24.3469 101.319,-19.7805 105.945,-29.3121 110.88,-24.3469"/>
</g>
<!-- Node4 -->
<g id="node5" class="node"><title>Node4</title>
<polygon fill="none" stroke="#bfbfbf" points="219,-56.5 219,-75.5 273,-75.5 273,-56.5 219,-56.5"/>
<text text-anchor="middle" x="246" y="-63.5" font-family="Helvetica,sans-Serif" font-size="10.00">iostream</text>
</g>
<!-- Node1&#45;&gt;Node4 -->
<g id="edge4" class="edge"><title>Node1&#45;&gt;Node4</title>
<path fill="none" stroke="midnightblue" d="M183.889,-112.324C195.15,-104.107 212.287,-91.6017 225.709,-81.8069"/>
<polygon fill="midnightblue" stroke="midnightblue" points="227.88,-84.5559 233.894,-75.8339 223.753,-78.9014 227.88,-84.5559"/>
</g>
<!-- Node5 -->
<g id="node6" class="node"><title>Node5</title>
<g id="a_node6"><a xlink:href="_actions_list_8h.html" target="_top" xlink:title="ActionsList.h">
<polygon fill="none" stroke="black" points="146,-0.5 146,-19.5 220,-19.5 220,-0.5 146,-0.5"/>
<text text-anchor="middle" x="183" y="-7.5" font-family="Helvetica,sans-Serif" font-size="10.00">ActionsList.h</text>
</a>
</g>
</g>
<!-- Node1&#45;&gt;Node5 -->
<g id="edge5" class="edge"><title>Node1&#45;&gt;Node5</title>
<path fill="none" stroke="midnightblue" d="M172.863,-112.368C174.638,-94.617 178.733,-53.6664 181.14,-29.5974"/>
<polygon fill="midnightblue" stroke="midnightblue" points="184.628,-29.8901 182.141,-19.5914 177.663,-29.1935 184.628,-29.8901"/>
</g>
<!-- Node6 -->
<g id="node7" class="node"><title>Node6</title>
<g id="a_node7"><a xlink:href="_errors_list_8h.html" target="_top" xlink:title="ErrorsList.h">
<polygon fill="none" stroke="black" points="291.5,-56.5 291.5,-75.5 358.5,-75.5 358.5,-56.5 291.5,-56.5"/>
<text text-anchor="middle" x="325" y="-63.5" font-family="Helvetica,sans-Serif" font-size="10.00">ErrorsList.h</text>
</a>
</g>
</g>
<!-- Node1&#45;&gt;Node6 -->
<g id="edge6" class="edge"><title>Node1&#45;&gt;Node6</title>
<path fill="none" stroke="midnightblue" d="M196.243,-112.444C221.871,-103.399 262.485,-89.064 291.238,-78.9158"/>
<polygon fill="midnightblue" stroke="midnightblue" points="292.605,-82.1452 300.87,-75.5164 290.275,-75.5442 292.605,-82.1452"/>
</g>
<!-- Node7 -->
<g id="node8" class="node"><title>Node7</title>
<g id="a_node8"><a xlink:href="_game_menus_8h.html" target="_top" xlink:title="GameMenus.h">
<polygon fill="none" stroke="black" points="45,-56.5 45,-75.5 125,-75.5 125,-56.5 45,-56.5"/>
<text text-anchor="middle" x="85" y="-63.5" font-family="Helvetica,sans-Serif" font-size="10.00">GameMenus.h</text>
</a>
</g>
</g>
<!-- Node1&#45;&gt;Node7 -->
<g id="edge7" class="edge"><title>Node1&#45;&gt;Node7</title>
<path fill="none" stroke="midnightblue" d="M158.022,-112.324C144.45,-103.9 123.62,-90.9709 107.675,-81.0741"/>
<polygon fill="midnightblue" stroke="midnightblue" points="109.286,-77.9544 98.9434,-75.6545 105.594,-83.9019 109.286,-77.9544"/>
</g>
<!-- Node7&#45;&gt;Node2 -->
<g id="edge9" class="edge"><title>Node7&#45;&gt;Node2</title>
<path fill="none" stroke="midnightblue" d="M74.7173,-56.324C65.1637,-48.2631 50.7203,-36.0765 39.2157,-26.3695"/>
<polygon fill="midnightblue" stroke="midnightblue" points="41.3698,-23.6076 31.4698,-19.8339 36.8557,-28.9577 41.3698,-23.6076"/>
</g>
<!-- Node7&#45;&gt;Node3 -->
<g id="edge8" class="edge"><title>Node7&#45;&gt;Node3</title>
<path fill="none" stroke="midnightblue" d="M86.1559,-56.083C87.0835,-48.9272 88.4176,-38.6353 89.5771,-29.6911"/>
<polygon fill="midnightblue" stroke="midnightblue" points="93.0509,-30.1181 90.8656,-19.7511 86.109,-29.2181 93.0509,-30.1181"/>
</g>
<!-- Node7&#45;&gt;Node5 -->
<g id="edge10" class="edge"><title>Node7&#45;&gt;Node5</title>
<path fill="none" stroke="midnightblue" d="M100.745,-56.324C116.319,-47.7428 140.377,-34.486 158.459,-24.5224"/>
<polygon fill="midnightblue" stroke="midnightblue" points="160.224,-27.546 167.294,-19.6545 156.846,-21.4152 160.224,-27.546"/>
</g>
</g>
</svg>
