<?xml version="1.0" encoding="UTF-8" standalone="no"?>
<!DOCTYPE svg PUBLIC "-//W3C//DTD SVG 1.1//EN"
 "http://www.w3.org/Graphics/SVG/1.1/DTD/svg11.dtd">
<!-- Generated by graphviz version 2.38.0 (20140413.2041)
 -->
<!-- Title: E:/Dropbox/BI_FIT_CVUT/2. semestr/PA2/GameBook/Equipment.h Pages: 1 -->
<svg width="1245pt" height="752pt"
 viewBox="0.00 0.00 1245.07 752.00" xmlns="http://www.w3.org/2000/svg" xmlns:xlink="http://www.w3.org/1999/xlink">
<g id="graph0" class="graph" transform="scale(1 1) rotate(0) translate(4 748)">
<title>E:/Dropbox/BI_FIT_CVUT/2. semestr/PA2/GameBook/Equipment.h</title>
<!-- Node1 -->
<g id="node1" class="node"><title>Node1</title>
<polygon fill="#bfbfbf" stroke="black" points="743.074,-702.5 743.074,-743.5 883.074,-743.5 883.074,-702.5 743.074,-702.5"/>
<text text-anchor="start" x="751.074" y="-731.5" font-family="Helvetica,sans-Serif" font-size="10.00">E:/Dropbox/BI_FIT_CVUT</text>
<text text-anchor="start" x="751.074" y="-720.5" font-family="Helvetica,sans-Serif" font-size="10.00">/2. semestr/PA2/GameBook</text>
<text text-anchor="middle" x="813.074" y="-709.5" font-family="Helvetica,sans-Serif" font-size="10.00">/Equipment.h</text>
</g>
<!-- Node2 -->
<g id="node2" class="node"><title>Node2</title>
<g id="a_node2"><a xlink:href="_item_8h.html" target="_top" xlink:title="E:/Dropbox/BI_FIT_CVUT\l/2. semestr/PA2/GameBook\l/Item.h">
<polygon fill="none" stroke="black" points="743.074,-624.5 743.074,-665.5 883.074,-665.5 883.074,-624.5 743.074,-624.5"/>
<text text-anchor="start" x="751.074" y="-653.5" font-family="Helvetica,sans-Serif" font-size="10.00">E:/Dropbox/BI_FIT_CVUT</text>
<text text-anchor="start" x="751.074" y="-642.5" font-family="Helvetica,sans-Serif" font-size="10.00">/2. semestr/PA2/GameBook</text>
<text text-anchor="middle" x="813.074" y="-631.5" font-family="Helvetica,sans-Serif" font-size="10.00">/Item.h</text>
</a>
</g>
</g>
<!-- Node1&#45;&gt;Node2 -->
<g id="edge1" class="edge"><title>Node1&#45;&gt;Node2</title>
<path fill="none" stroke="midnightblue" d="M813.074,-692.297C813.074,-683.301 813.074,-673.653 813.074,-665.506"/>
<polygon fill="midnightblue" stroke="midnightblue" points="809.575,-692.428 813.074,-702.428 816.575,-692.428 809.575,-692.428"/>
</g>
<!-- Node5 -->
<g id="node5" class="node"><title>Node5</title>
<g id="a_node5"><a xlink:href="_hero_8h.html" target="_top" xlink:title="E:/Dropbox/BI_FIT_CVUT\l/2. semestr/PA2/GameBook\l/Hero.h">
<polygon fill="none" stroke="black" points="558.074,-468.5 558.074,-509.5 698.074,-509.5 698.074,-468.5 558.074,-468.5"/>
<text text-anchor="start" x="566.074" y="-497.5" font-family="Helvetica,sans-Serif" font-size="10.00">E:/Dropbox/BI_FIT_CVUT</text>
<text text-anchor="start" x="566.074" y="-486.5" font-family="Helvetica,sans-Serif" font-size="10.00">/2. semestr/PA2/GameBook</text>
<text text-anchor="middle" x="628.074" y="-475.5" font-family="Helvetica,sans-Serif" font-size="10.00">/Hero.h</text>
</a>
</g>
</g>
<!-- Node1&#45;&gt;Node5 -->
<g id="edge44" class="edge"><title>Node1&#45;&gt;Node5</title>
<path fill="none" stroke="midnightblue" d="M759.984,-697.716C718.327,-675.55 663.028,-638.533 636.074,-588 622.979,-563.449 623.317,-530.432 625.29,-509.683"/>
<polygon fill="midnightblue" stroke="midnightblue" points="758.429,-700.852 768.917,-702.355 761.655,-694.64 758.429,-700.852"/>
</g>
<!-- Node31 -->
<g id="node31" class="node"><title>Node31</title>
<g id="a_node31"><a xlink:href="_equipment_8cpp.html" target="_top" xlink:title="E:/Dropbox/BI_FIT_CVUT\l/2. semestr/PA2/GameBook\l/Equipment.cpp">
<polygon fill="none" stroke="black" points="901.074,-624.5 901.074,-665.5 1041.07,-665.5 1041.07,-624.5 901.074,-624.5"/>
<text text-anchor="start" x="909.074" y="-653.5" font-family="Helvetica,sans-Serif" font-size="10.00">E:/Dropbox/BI_FIT_CVUT</text>
<text text-anchor="start" x="909.074" y="-642.5" font-family="Helvetica,sans-Serif" font-size="10.00">/2. semestr/PA2/GameBook</text>
<text text-anchor="middle" x="971.074" y="-631.5" font-family="Helvetica,sans-Serif" font-size="10.00">/Equipment.cpp</text>
</a>
</g>
</g>
<!-- Node1&#45;&gt;Node31 -->
<g id="edge45" class="edge"><title>Node1&#45;&gt;Node31</title>
<path fill="none" stroke="midnightblue" d="M862.868,-698.049C884.66,-687.566 909.903,-675.424 930.523,-665.506"/>
<polygon fill="midnightblue" stroke="midnightblue" points="861.258,-694.939 853.763,-702.428 864.292,-701.247 861.258,-694.939"/>
</g>
<!-- Node3 -->
<g id="node3" class="node"><title>Node3</title>
<g id="a_node3"><a xlink:href="_armour_8h.html" target="_top" xlink:title="E:/Dropbox/BI_FIT_CVUT\l/2. semestr/PA2/GameBook\l/Armour.h">
<polygon fill="none" stroke="black" points="841.074,-546.5 841.074,-587.5 981.074,-587.5 981.074,-546.5 841.074,-546.5"/>
<text text-anchor="start" x="849.074" y="-575.5" font-family="Helvetica,sans-Serif" font-size="10.00">E:/Dropbox/BI_FIT_CVUT</text>
<text text-anchor="start" x="849.074" y="-564.5" font-family="Helvetica,sans-Serif" font-size="10.00">/2. semestr/PA2/GameBook</text>
<text text-anchor="middle" x="911.074" y="-553.5" font-family="Helvetica,sans-Serif" font-size="10.00">/Armour.h</text>
</a>
</g>
</g>
<!-- Node2&#45;&gt;Node3 -->
<g id="edge2" class="edge"><title>Node2&#45;&gt;Node3</title>
<path fill="none" stroke="midnightblue" d="M846.517,-618.065C859.421,-608.057 873.932,-596.804 885.922,-587.506"/>
<polygon fill="midnightblue" stroke="midnightblue" points="844.069,-615.534 838.312,-624.428 848.359,-621.066 844.069,-615.534"/>
</g>
<!-- Node2&#45;&gt;Node5 -->
<g id="edge42" class="edge"><title>Node2&#45;&gt;Node5</title>
<path fill="none" stroke="midnightblue" d="M814.764,-614.032C814.348,-592.656 810.274,-564.527 794.074,-546 769.95,-518.409 731.757,-504.385 698.085,-497.269"/>
<polygon fill="midnightblue" stroke="midnightblue" points="811.263,-614.189 814.702,-624.21 818.263,-614.231 811.263,-614.189"/>
</g>
<!-- Node28 -->
<g id="node28" class="node"><title>Node28</title>
<g id="a_node28"><a xlink:href="_sword_8h.html" target="_top" xlink:title="E:/Dropbox/BI_FIT_CVUT\l/2. semestr/PA2/GameBook\l/Sword.h">
<polygon fill="none" stroke="black" points="999.074,-546.5 999.074,-587.5 1139.07,-587.5 1139.07,-546.5 999.074,-546.5"/>
<text text-anchor="start" x="1007.07" y="-575.5" font-family="Helvetica,sans-Serif" font-size="10.00">E:/Dropbox/BI_FIT_CVUT</text>
<text text-anchor="start" x="1007.07" y="-564.5" font-family="Helvetica,sans-Serif" font-size="10.00">/2. semestr/PA2/GameBook</text>
<text text-anchor="middle" x="1069.07" y="-553.5" font-family="Helvetica,sans-Serif" font-size="10.00">/Sword.h</text>
</a>
</g>
</g>
<!-- Node2&#45;&gt;Node28 -->
<g id="edge38" class="edge"><title>Node2&#45;&gt;Node28</title>
<path fill="none" stroke="midnightblue" d="M888.593,-621.58C925.026,-610.764 968.32,-597.911 1003.37,-587.506"/>
<polygon fill="midnightblue" stroke="midnightblue" points="887.591,-618.227 879.001,-624.428 889.583,-624.937 887.591,-618.227"/>
</g>
<!-- Node30 -->
<g id="node30" class="node"><title>Node30</title>
<g id="a_node30"><a xlink:href="_item_8cpp.html" target="_top" xlink:title="E:/Dropbox/BI_FIT_CVUT\l/2. semestr/PA2/GameBook\l/Item.cpp">
<polygon fill="none" stroke="black" points="645.074,-546.5 645.074,-587.5 785.074,-587.5 785.074,-546.5 645.074,-546.5"/>
<text text-anchor="start" x="653.074" y="-575.5" font-family="Helvetica,sans-Serif" font-size="10.00">E:/Dropbox/BI_FIT_CVUT</text>
<text text-anchor="start" x="653.074" y="-564.5" font-family="Helvetica,sans-Serif" font-size="10.00">/2. semestr/PA2/GameBook</text>
<text text-anchor="middle" x="715.074" y="-553.5" font-family="Helvetica,sans-Serif" font-size="10.00">/Item.cpp</text>
</a>
</g>
</g>
<!-- Node2&#45;&gt;Node30 -->
<g id="edge43" class="edge"><title>Node2&#45;&gt;Node30</title>
<path fill="none" stroke="midnightblue" d="M779.632,-618.065C766.727,-608.057 752.217,-596.804 740.226,-587.506"/>
<polygon fill="midnightblue" stroke="midnightblue" points="777.79,-621.066 787.837,-624.428 782.08,-615.534 777.79,-621.066"/>
</g>
<!-- Node4 -->
<g id="node4" class="node"><title>Node4</title>
<g id="a_node4"><a xlink:href="_armour_8cpp.html" target="_top" xlink:title="E:/Dropbox/BI_FIT_CVUT\l/2. semestr/PA2/GameBook\l/Armour.cpp">
<polygon fill="none" stroke="black" points="841.074,-468.5 841.074,-509.5 981.074,-509.5 981.074,-468.5 841.074,-468.5"/>
<text text-anchor="start" x="849.074" y="-497.5" font-family="Helvetica,sans-Serif" font-size="10.00">E:/Dropbox/BI_FIT_CVUT</text>
<text text-anchor="start" x="849.074" y="-486.5" font-family="Helvetica,sans-Serif" font-size="10.00">/2. semestr/PA2/GameBook</text>
<text text-anchor="middle" x="911.074" y="-475.5" font-family="Helvetica,sans-Serif" font-size="10.00">/Armour.cpp</text>
</a>
</g>
</g>
<!-- Node3&#45;&gt;Node4 -->
<g id="edge3" class="edge"><title>Node3&#45;&gt;Node4</title>
<path fill="none" stroke="midnightblue" d="M911.074,-536.297C911.074,-527.301 911.074,-517.653 911.074,-509.506"/>
<polygon fill="midnightblue" stroke="midnightblue" points="907.575,-536.428 911.074,-546.428 914.575,-536.428 907.575,-536.428"/>
</g>
<!-- Node3&#45;&gt;Node5 -->
<g id="edge4" class="edge"><title>Node3&#45;&gt;Node5</title>
<path fill="none" stroke="midnightblue" d="M830.907,-544.471C789.211,-533.273 738.705,-519.71 698.522,-508.919"/>
<polygon fill="midnightblue" stroke="midnightblue" points="830.19,-547.902 840.756,-547.116 832.006,-541.142 830.19,-547.902"/>
</g>
<!-- Node9 -->
<g id="node9" class="node"><title>Node9</title>
<g id="a_node9"><a xlink:href="_world_8h.html" target="_top" xlink:title="E:/Dropbox/BI_FIT_CVUT\l/2. semestr/PA2/GameBook\l/World.h">
<polygon fill="none" stroke="black" points="629.074,-234.5 629.074,-275.5 769.074,-275.5 769.074,-234.5 629.074,-234.5"/>
<text text-anchor="start" x="637.074" y="-263.5" font-family="Helvetica,sans-Serif" font-size="10.00">E:/Dropbox/BI_FIT_CVUT</text>
<text text-anchor="start" x="637.074" y="-252.5" font-family="Helvetica,sans-Serif" font-size="10.00">/2. semestr/PA2/GameBook</text>
<text text-anchor="middle" x="699.074" y="-241.5" font-family="Helvetica,sans-Serif" font-size="10.00">/World.h</text>
</a>
</g>
</g>
<!-- Node3&#45;&gt;Node9 -->
<g id="edge37" class="edge"><title>Node3&#45;&gt;Node9</title>
<path fill="none" stroke="midnightblue" d="M961.816,-540.791C973.14,-532.611 983.676,-522.378 990.074,-510 1013.73,-464.23 1039.17,-383.86 974.074,-312 967.134,-304.338 848.485,-282.215 769.324,-268.177"/>
<polygon fill="midnightblue" stroke="midnightblue" points="959.833,-537.906 953.479,-546.385 963.733,-543.719 959.833,-537.906"/>
</g>
<!-- Node6 -->
<g id="node6" class="node"><title>Node6</title>
<g id="a_node6"><a xlink:href="_event_8h.html" target="_top" xlink:title="E:/Dropbox/BI_FIT_CVUT\l/2. semestr/PA2/GameBook\l/Event.h">
<polygon fill="none" stroke="black" points="558.074,-390.5 558.074,-431.5 698.074,-431.5 698.074,-390.5 558.074,-390.5"/>
<text text-anchor="start" x="566.074" y="-419.5" font-family="Helvetica,sans-Serif" font-size="10.00">E:/Dropbox/BI_FIT_CVUT</text>
<text text-anchor="start" x="566.074" y="-408.5" font-family="Helvetica,sans-Serif" font-size="10.00">/2. semestr/PA2/GameBook</text>
<text text-anchor="middle" x="628.074" y="-397.5" font-family="Helvetica,sans-Serif" font-size="10.00">/Event.h</text>
</a>
</g>
</g>
<!-- Node5&#45;&gt;Node6 -->
<g id="edge5" class="edge"><title>Node5&#45;&gt;Node6</title>
<path fill="none" stroke="midnightblue" d="M628.074,-458.297C628.074,-449.301 628.074,-439.653 628.074,-431.506"/>
<polygon fill="midnightblue" stroke="midnightblue" points="624.575,-458.428 628.074,-468.428 631.575,-458.428 624.575,-458.428"/>
</g>
<!-- Node13 -->
<g id="node13" class="node"><title>Node13</title>
<g id="a_node13"><a xlink:href="_shopping_8h.html" target="_top" xlink:title="E:/Dropbox/BI_FIT_CVUT\l/2. semestr/PA2/GameBook\l/Shopping.h">
<polygon fill="none" stroke="black" points="836.074,-156.5 836.074,-197.5 976.074,-197.5 976.074,-156.5 836.074,-156.5"/>
<text text-anchor="start" x="844.074" y="-185.5" font-family="Helvetica,sans-Serif" font-size="10.00">E:/Dropbox/BI_FIT_CVUT</text>
<text text-anchor="start" x="844.074" y="-174.5" font-family="Helvetica,sans-Serif" font-size="10.00">/2. semestr/PA2/GameBook</text>
<text text-anchor="middle" x="906.074" y="-163.5" font-family="Helvetica,sans-Serif" font-size="10.00">/Shopping.h</text>
</a>
</g>
</g>
<!-- Node5&#45;&gt;Node13 -->
<g id="edge33" class="edge"><title>Node5&#45;&gt;Node13</title>
<path fill="none" stroke="midnightblue" d="M708.461,-482.081C790.756,-471.243 914.748,-440.597 974.074,-354 1004.22,-310.002 996.836,-282.232 974.074,-234 967.025,-219.063 953.821,-206.762 940.91,-197.532"/>
<polygon fill="midnightblue" stroke="midnightblue" points="707.879,-478.627 698.389,-483.337 708.745,-485.573 707.879,-478.627"/>
</g>
<!-- Node15 -->
<g id="node15" class="node"><title>Node15</title>
<g id="a_node15"><a xlink:href="_inventory_browser_8h.html" target="_top" xlink:title="E:/Dropbox/BI_FIT_CVUT\l/2. semestr/PA2/GameBook\l/InventoryBrowser.h">
<polygon fill="none" stroke="black" points="452.074,-156.5 452.074,-197.5 592.074,-197.5 592.074,-156.5 452.074,-156.5"/>
<text text-anchor="start" x="460.074" y="-185.5" font-family="Helvetica,sans-Serif" font-size="10.00">E:/Dropbox/BI_FIT_CVUT</text>
<text text-anchor="start" x="460.074" y="-174.5" font-family="Helvetica,sans-Serif" font-size="10.00">/2. semestr/PA2/GameBook</text>
<text text-anchor="middle" x="522.074" y="-163.5" font-family="Helvetica,sans-Serif" font-size="10.00">/InventoryBrowser.h</text>
</a>
</g>
</g>
<!-- Node5&#45;&gt;Node15 -->
<g id="edge34" class="edge"><title>Node5&#45;&gt;Node15</title>
<path fill="none" stroke="midnightblue" d="M547.748,-477.427C423.664,-459.264 194.568,-417.815 146.074,-354 113.806,-311.536 110.704,-273.917 146.074,-234 190.166,-184.241 377.717,-210.183 443.074,-198 445.995,-197.456 448.968,-196.866 451.966,-196.242"/>
<polygon fill="midnightblue" stroke="midnightblue" points="547.56,-480.936 557.958,-478.904 548.562,-474.009 547.56,-480.936"/>
</g>
<!-- Node17 -->
<g id="node17" class="node"><title>Node17</title>
<g id="a_node17"><a xlink:href="_interact_8h.html" target="_top" xlink:title="E:/Dropbox/BI_FIT_CVUT\l/2. semestr/PA2/GameBook\l/Interact.h">
<polygon fill="none" stroke="black" points="294.074,-156.5 294.074,-197.5 434.074,-197.5 434.074,-156.5 294.074,-156.5"/>
<text text-anchor="start" x="302.074" y="-185.5" font-family="Helvetica,sans-Serif" font-size="10.00">E:/Dropbox/BI_FIT_CVUT</text>
<text text-anchor="start" x="302.074" y="-174.5" font-family="Helvetica,sans-Serif" font-size="10.00">/2. semestr/PA2/GameBook</text>
<text text-anchor="middle" x="364.074" y="-163.5" font-family="Helvetica,sans-Serif" font-size="10.00">/Interact.h</text>
</a>
</g>
</g>
<!-- Node5&#45;&gt;Node17 -->
<g id="edge35" class="edge"><title>Node5&#45;&gt;Node17</title>
<path fill="none" stroke="midnightblue" d="M547.554,-486.375C392.202,-482.402 63.3224,-469.599 29.0744,-432 -28.6705,-368.605 0.786962,-321.358 119.074,-234 169.791,-196.545 241.312,-183.531 293.993,-179.3"/>
<polygon fill="midnightblue" stroke="midnightblue" points="547.898,-489.884 557.982,-486.635 548.073,-482.886 547.898,-489.884"/>
</g>
<!-- Node27 -->
<g id="node27" class="node"><title>Node27</title>
<g id="a_node27"><a xlink:href="_hero_8cpp.html" target="_top" xlink:title="E:/Dropbox/BI_FIT_CVUT\l/2. semestr/PA2/GameBook\l/Hero.cpp">
<polygon fill="none" stroke="black" points="38.0744,-390.5 38.0744,-431.5 178.074,-431.5 178.074,-390.5 38.0744,-390.5"/>
<text text-anchor="start" x="46.0744" y="-419.5" font-family="Helvetica,sans-Serif" font-size="10.00">E:/Dropbox/BI_FIT_CVUT</text>
<text text-anchor="start" x="46.0744" y="-408.5" font-family="Helvetica,sans-Serif" font-size="10.00">/2. semestr/PA2/GameBook</text>
<text text-anchor="middle" x="108.074" y="-397.5" font-family="Helvetica,sans-Serif" font-size="10.00">/Hero.cpp</text>
</a>
</g>
</g>
<!-- Node5&#45;&gt;Node27 -->
<g id="edge36" class="edge"><title>Node5&#45;&gt;Node27</title>
<path fill="none" stroke="midnightblue" d="M547.717,-480.259C459.936,-471.203 315.38,-454.532 192.074,-432 187.503,-431.165 182.807,-430.238 178.083,-429.255"/>
<polygon fill="midnightblue" stroke="midnightblue" points="547.568,-483.762 557.872,-481.299 548.281,-476.798 547.568,-483.762"/>
</g>
<!-- Node7 -->
<g id="node7" class="node"><title>Node7</title>
<g id="a_node7"><a xlink:href="_choice_8h.html" target="_top" xlink:title="E:/Dropbox/BI_FIT_CVUT\l/2. semestr/PA2/GameBook\l/Choice.h">
<polygon fill="none" stroke="black" points="313.074,-312.5 313.074,-353.5 453.074,-353.5 453.074,-312.5 313.074,-312.5"/>
<text text-anchor="start" x="321.074" y="-341.5" font-family="Helvetica,sans-Serif" font-size="10.00">E:/Dropbox/BI_FIT_CVUT</text>
<text text-anchor="start" x="321.074" y="-330.5" font-family="Helvetica,sans-Serif" font-size="10.00">/2. semestr/PA2/GameBook</text>
<text text-anchor="middle" x="383.074" y="-319.5" font-family="Helvetica,sans-Serif" font-size="10.00">/Choice.h</text>
</a>
</g>
</g>
<!-- Node6&#45;&gt;Node7 -->
<g id="edge6" class="edge"><title>Node6&#45;&gt;Node7</title>
<path fill="none" stroke="midnightblue" d="M555.355,-387.442C520.581,-376.655 479.357,-363.867 445.954,-353.506"/>
<polygon fill="midnightblue" stroke="midnightblue" points="554.393,-390.808 564.981,-390.428 556.467,-384.122 554.393,-390.808"/>
</g>
<!-- Node6&#45;&gt;Node9 -->
<g id="edge29" class="edge"><title>Node6&#45;&gt;Node9</title>
<path fill="none" stroke="midnightblue" d="M634.314,-380.703C639.221,-360.697 647.078,-333.945 658.074,-312 664.552,-299.073 673.966,-285.96 682.14,-275.676"/>
<polygon fill="midnightblue" stroke="midnightblue" points="630.895,-379.953 632.015,-390.488 637.709,-381.553 630.895,-379.953"/>
</g>
<!-- Node20 -->
<g id="node20" class="node"><title>Node20</title>
<g id="a_node20"><a xlink:href="_dialogue_n_c_p_8h.html" target="_top" xlink:title="E:/Dropbox/BI_FIT_CVUT\l/2. semestr/PA2/GameBook\l/DialogueNCP.h">
<polygon fill="none" stroke="black" points="471.074,-312.5 471.074,-353.5 611.074,-353.5 611.074,-312.5 471.074,-312.5"/>
<text text-anchor="start" x="479.074" y="-341.5" font-family="Helvetica,sans-Serif" font-size="10.00">E:/Dropbox/BI_FIT_CVUT</text>
<text text-anchor="start" x="479.074" y="-330.5" font-family="Helvetica,sans-Serif" font-size="10.00">/2. semestr/PA2/GameBook</text>
<text text-anchor="middle" x="541.074" y="-319.5" font-family="Helvetica,sans-Serif" font-size="10.00">/DialogueNCP.h</text>
</a>
</g>
</g>
<!-- Node6&#45;&gt;Node20 -->
<g id="edge22" class="edge"><title>Node6&#45;&gt;Node20</title>
<path fill="none" stroke="midnightblue" d="M598.058,-383.779C586.684,-373.843 573.947,-362.716 563.403,-353.506"/>
<polygon fill="midnightblue" stroke="midnightblue" points="595.836,-386.485 605.67,-390.428 600.441,-381.213 595.836,-386.485"/>
</g>
<!-- Node22 -->
<g id="node22" class="node"><title>Node22</title>
<g id="a_node22"><a xlink:href="_event_8cpp.html" target="_top" xlink:title="E:/Dropbox/BI_FIT_CVUT\l/2. semestr/PA2/GameBook\l/Event.cpp">
<polygon fill="none" stroke="black" points="667.074,-312.5 667.074,-353.5 807.074,-353.5 807.074,-312.5 667.074,-312.5"/>
<text text-anchor="start" x="675.074" y="-341.5" font-family="Helvetica,sans-Serif" font-size="10.00">E:/Dropbox/BI_FIT_CVUT</text>
<text text-anchor="start" x="675.074" y="-330.5" font-family="Helvetica,sans-Serif" font-size="10.00">/2. semestr/PA2/GameBook</text>
<text text-anchor="middle" x="737.074" y="-319.5" font-family="Helvetica,sans-Serif" font-size="10.00">/Event.cpp</text>
</a>
</g>
</g>
<!-- Node6&#45;&gt;Node22 -->
<g id="edge25" class="edge"><title>Node6&#45;&gt;Node22</title>
<path fill="none" stroke="midnightblue" d="M664.453,-384.635C679.008,-374.487 695.509,-362.982 709.099,-353.506"/>
<polygon fill="midnightblue" stroke="midnightblue" points="662.346,-381.838 656.145,-390.428 666.349,-387.58 662.346,-381.838"/>
</g>
<!-- Node23 -->
<g id="node23" class="node"><title>Node23</title>
<g id="a_node23"><a xlink:href="_fight_8h.html" target="_top" xlink:title="E:/Dropbox/BI_FIT_CVUT\l/2. semestr/PA2/GameBook\l/Fight.h">
<polygon fill="none" stroke="black" points="825.074,-312.5 825.074,-353.5 965.074,-353.5 965.074,-312.5 825.074,-312.5"/>
<text text-anchor="start" x="833.074" y="-341.5" font-family="Helvetica,sans-Serif" font-size="10.00">E:/Dropbox/BI_FIT_CVUT</text>
<text text-anchor="start" x="833.074" y="-330.5" font-family="Helvetica,sans-Serif" font-size="10.00">/2. semestr/PA2/GameBook</text>
<text text-anchor="middle" x="895.074" y="-319.5" font-family="Helvetica,sans-Serif" font-size="10.00">/Fight.h</text>
</a>
</g>
</g>
<!-- Node6&#45;&gt;Node23 -->
<g id="edge26" class="edge"><title>Node6&#45;&gt;Node23</title>
<path fill="none" stroke="midnightblue" d="M706.838,-387.58C744.836,-376.764 789.991,-363.911 826.548,-353.506"/>
<polygon fill="midnightblue" stroke="midnightblue" points="705.493,-384.324 696.834,-390.428 707.41,-391.057 705.493,-384.324"/>
</g>
<!-- Node25 -->
<g id="node25" class="node"><title>Node25</title>
<g id="a_node25"><a xlink:href="_trap_8h.html" target="_top" xlink:title="E:/Dropbox/BI_FIT_CVUT\l/2. semestr/PA2/GameBook\l/Trap.h">
<polygon fill="none" stroke="black" points="155.074,-312.5 155.074,-353.5 295.074,-353.5 295.074,-312.5 155.074,-312.5"/>
<text text-anchor="start" x="163.074" y="-341.5" font-family="Helvetica,sans-Serif" font-size="10.00">E:/Dropbox/BI_FIT_CVUT</text>
<text text-anchor="start" x="163.074" y="-330.5" font-family="Helvetica,sans-Serif" font-size="10.00">/2. semestr/PA2/GameBook</text>
<text text-anchor="middle" x="225.074" y="-319.5" font-family="Helvetica,sans-Serif" font-size="10.00">/Trap.h</text>
</a>
</g>
</g>
<!-- Node6&#45;&gt;Node25 -->
<g id="edge30" class="edge"><title>Node6&#45;&gt;Node25</title>
<path fill="none" stroke="midnightblue" d="M548.05,-397.923C482.276,-387.577 386.792,-371.592 304.074,-354 301.168,-353.382 298.207,-352.731 295.22,-352.056"/>
<polygon fill="midnightblue" stroke="midnightblue" points="547.518,-401.382 557.939,-399.471 548.6,-394.467 547.518,-401.382"/>
</g>
<!-- Node8 -->
<g id="node8" class="node"><title>Node8</title>
<g id="a_node8"><a xlink:href="_choice_8cpp.html" target="_top" xlink:title="E:/Dropbox/BI_FIT_CVUT\l/2. semestr/PA2/GameBook\l/Choice.cpp">
<polygon fill="none" stroke="black" points="313.074,-234.5 313.074,-275.5 453.074,-275.5 453.074,-234.5 313.074,-234.5"/>
<text text-anchor="start" x="321.074" y="-263.5" font-family="Helvetica,sans-Serif" font-size="10.00">E:/Dropbox/BI_FIT_CVUT</text>
<text text-anchor="start" x="321.074" y="-252.5" font-family="Helvetica,sans-Serif" font-size="10.00">/2. semestr/PA2/GameBook</text>
<text text-anchor="middle" x="383.074" y="-241.5" font-family="Helvetica,sans-Serif" font-size="10.00">/Choice.cpp</text>
</a>
</g>
</g>
<!-- Node7&#45;&gt;Node8 -->
<g id="edge7" class="edge"><title>Node7&#45;&gt;Node8</title>
<path fill="none" stroke="midnightblue" d="M383.074,-302.297C383.074,-293.301 383.074,-283.653 383.074,-275.506"/>
<polygon fill="midnightblue" stroke="midnightblue" points="379.575,-302.428 383.074,-312.428 386.575,-302.428 379.575,-302.428"/>
</g>
<!-- Node7&#45;&gt;Node9 -->
<g id="edge8" class="edge"><title>Node7&#45;&gt;Node9</title>
<path fill="none" stroke="midnightblue" d="M463.098,-311.781C533.739,-294.935 553.058,-292.116 620.074,-276 622.963,-275.305 625.91,-274.59 628.885,-273.862"/>
<polygon fill="midnightblue" stroke="midnightblue" points="462.173,-308.404 453.264,-314.138 463.804,-315.211 462.173,-308.404"/>
</g>
<!-- Node10 -->
<g id="node10" class="node"><title>Node10</title>
<g id="a_node10"><a xlink:href="_game_8h.html" target="_top" xlink:title="E:/Dropbox/BI_FIT_CVUT\l/2. semestr/PA2/GameBook\l/Game.h">
<polygon fill="none" stroke="black" points="595.074,-78.5 595.074,-119.5 735.074,-119.5 735.074,-78.5 595.074,-78.5"/>
<text text-anchor="start" x="603.074" y="-107.5" font-family="Helvetica,sans-Serif" font-size="10.00">E:/Dropbox/BI_FIT_CVUT</text>
<text text-anchor="start" x="603.074" y="-96.5" font-family="Helvetica,sans-Serif" font-size="10.00">/2. semestr/PA2/GameBook</text>
<text text-anchor="middle" x="665.074" y="-85.5" font-family="Helvetica,sans-Serif" font-size="10.00">/Game.h</text>
</a>
</g>
</g>
<!-- Node9&#45;&gt;Node10 -->
<g id="edge9" class="edge"><title>Node9&#45;&gt;Node10</title>
<path fill="none" stroke="midnightblue" d="M680.707,-225.649C676.057,-217.094 671.654,-207.455 669.074,-198 661.86,-171.551 662.138,-139.609 663.337,-119.544"/>
<polygon fill="midnightblue" stroke="midnightblue" points="677.751,-227.529 685.775,-234.447 683.816,-224.035 677.751,-227.529"/>
</g>
<!-- Node9&#45;&gt;Node13 -->
<g id="edge12" class="edge"><title>Node9&#45;&gt;Node13</title>
<path fill="none" stroke="midnightblue" d="M762.026,-230.887C791.084,-220.219 825.208,-207.69 852.947,-197.506"/>
<polygon fill="midnightblue" stroke="midnightblue" points="760.563,-227.696 752.382,-234.428 762.976,-234.267 760.563,-227.696"/>
</g>
<!-- Node9&#45;&gt;Node15 -->
<g id="edge15" class="edge"><title>Node9&#45;&gt;Node15</title>
<path fill="none" stroke="midnightblue" d="M644.272,-230.469C619.639,-219.892 590.912,-207.557 567.502,-197.506"/>
<polygon fill="midnightblue" stroke="midnightblue" points="642.923,-233.699 653.493,-234.428 645.685,-227.267 642.923,-233.699"/>
</g>
<!-- Node9&#45;&gt;Node17 -->
<g id="edge18" class="edge"><title>Node9&#45;&gt;Node17</title>
<path fill="none" stroke="midnightblue" d="M618.996,-233.807C540.121,-216.095 518.283,-215.158 443.074,-198 440.178,-197.339 437.225,-196.652 434.244,-195.948"/>
<polygon fill="midnightblue" stroke="midnightblue" points="618.378,-237.256 628.905,-236.052 619.925,-230.429 618.378,-237.256"/>
</g>
<!-- Node19 -->
<g id="node19" class="node"><title>Node19</title>
<g id="a_node19"><a xlink:href="_world_8cpp.html" target="_top" xlink:title="E:/Dropbox/BI_FIT_CVUT\l/2. semestr/PA2/GameBook\l/World.cpp">
<polygon fill="none" stroke="black" points="678.074,-156.5 678.074,-197.5 818.074,-197.5 818.074,-156.5 678.074,-156.5"/>
<text text-anchor="start" x="686.074" y="-185.5" font-family="Helvetica,sans-Serif" font-size="10.00">E:/Dropbox/BI_FIT_CVUT</text>
<text text-anchor="start" x="686.074" y="-174.5" font-family="Helvetica,sans-Serif" font-size="10.00">/2. semestr/PA2/GameBook</text>
<text text-anchor="middle" x="748.074" y="-163.5" font-family="Helvetica,sans-Serif" font-size="10.00">/World.cpp</text>
</a>
</g>
</g>
<!-- Node9&#45;&gt;Node19 -->
<g id="edge21" class="edge"><title>Node9&#45;&gt;Node19</title>
<path fill="none" stroke="midnightblue" d="M717.284,-225.757C723.346,-216.354 729.96,-206.096 735.498,-197.506"/>
<polygon fill="midnightblue" stroke="midnightblue" points="714.17,-224.127 711.693,-234.428 720.054,-227.92 714.17,-224.127"/>
</g>
<!-- Node11 -->
<g id="node11" class="node"><title>Node11</title>
<g id="a_node11"><a xlink:href="_game_8cpp.html" target="_top" xlink:title="E:/Dropbox/BI_FIT_CVUT\l/2. semestr/PA2/GameBook\l/Game.cpp">
<polygon fill="none" stroke="black" points="516.074,-0.5 516.074,-41.5 656.074,-41.5 656.074,-0.5 516.074,-0.5"/>
<text text-anchor="start" x="524.074" y="-29.5" font-family="Helvetica,sans-Serif" font-size="10.00">E:/Dropbox/BI_FIT_CVUT</text>
<text text-anchor="start" x="524.074" y="-18.5" font-family="Helvetica,sans-Serif" font-size="10.00">/2. semestr/PA2/GameBook</text>
<text text-anchor="middle" x="586.074" y="-7.5" font-family="Helvetica,sans-Serif" font-size="10.00">/Game.cpp</text>
</a>
</g>
</g>
<!-- Node10&#45;&gt;Node11 -->
<g id="edge10" class="edge"><title>Node10&#45;&gt;Node11</title>
<path fill="none" stroke="midnightblue" d="M637.52,-71.4916C627.268,-61.6294 615.832,-50.6273 606.35,-41.5056"/>
<polygon fill="midnightblue" stroke="midnightblue" points="635.097,-74.0175 644.73,-78.4281 639.95,-68.9729 635.097,-74.0175"/>
</g>
<!-- Node12 -->
<g id="node12" class="node"><title>Node12</title>
<g id="a_node12"><a xlink:href="main_8cpp.html" target="_top" xlink:title="E:/Dropbox/BI_FIT_CVUT\l/2. semestr/PA2/GameBook\l/main.cpp">
<polygon fill="none" stroke="black" points="674.074,-0.5 674.074,-41.5 814.074,-41.5 814.074,-0.5 674.074,-0.5"/>
<text text-anchor="start" x="682.074" y="-29.5" font-family="Helvetica,sans-Serif" font-size="10.00">E:/Dropbox/BI_FIT_CVUT</text>
<text text-anchor="start" x="682.074" y="-18.5" font-family="Helvetica,sans-Serif" font-size="10.00">/2. semestr/PA2/GameBook</text>
<text text-anchor="middle" x="744.074" y="-7.5" font-family="Helvetica,sans-Serif" font-size="10.00">/main.cpp</text>
</a>
</g>
</g>
<!-- Node10&#45;&gt;Node12 -->
<g id="edge11" class="edge"><title>Node10&#45;&gt;Node12</title>
<path fill="none" stroke="midnightblue" d="M692.629,-71.4916C702.881,-61.6294 714.317,-50.6273 723.799,-41.5056"/>
<polygon fill="midnightblue" stroke="midnightblue" points="690.199,-68.9729 685.419,-78.4281 695.052,-74.0175 690.199,-68.9729"/>
</g>
<!-- Node13&#45;&gt;Node10 -->
<g id="edge13" class="edge"><title>Node13&#45;&gt;Node10</title>
<path fill="none" stroke="midnightblue" d="M834.104,-153.304C799.989,-142.546 759.644,-129.823 726.928,-119.506"/>
<polygon fill="midnightblue" stroke="midnightblue" points="833.421,-156.758 844.011,-156.428 835.527,-150.083 833.421,-156.758"/>
</g>
<!-- Node14 -->
<g id="node14" class="node"><title>Node14</title>
<g id="a_node14"><a xlink:href="_shopping_8cpp.html" target="_top" xlink:title="E:/Dropbox/BI_FIT_CVUT\l/2. semestr/PA2/GameBook\l/Shopping.cpp">
<polygon fill="none" stroke="black" points="836.074,-78.5 836.074,-119.5 976.074,-119.5 976.074,-78.5 836.074,-78.5"/>
<text text-anchor="start" x="844.074" y="-107.5" font-family="Helvetica,sans-Serif" font-size="10.00">E:/Dropbox/BI_FIT_CVUT</text>
<text text-anchor="start" x="844.074" y="-96.5" font-family="Helvetica,sans-Serif" font-size="10.00">/2. semestr/PA2/GameBook</text>
<text text-anchor="middle" x="906.074" y="-85.5" font-family="Helvetica,sans-Serif" font-size="10.00">/Shopping.cpp</text>
</a>
</g>
</g>
<!-- Node13&#45;&gt;Node14 -->
<g id="edge14" class="edge"><title>Node13&#45;&gt;Node14</title>
<path fill="none" stroke="midnightblue" d="M906.074,-146.297C906.074,-137.301 906.074,-127.653 906.074,-119.506"/>
<polygon fill="midnightblue" stroke="midnightblue" points="902.575,-146.428 906.074,-156.428 909.575,-146.428 902.575,-146.428"/>
</g>
<!-- Node15&#45;&gt;Node10 -->
<g id="edge16" class="edge"><title>Node15&#45;&gt;Node10</title>
<path fill="none" stroke="midnightblue" d="M567.935,-151.627C587.475,-141.242 609.96,-129.292 628.373,-119.506"/>
<polygon fill="midnightblue" stroke="midnightblue" points="566.088,-148.644 558.9,-156.428 569.373,-154.826 566.088,-148.644"/>
</g>
<!-- Node16 -->
<g id="node16" class="node"><title>Node16</title>
<g id="a_node16"><a xlink:href="_inventory_browser_8cpp.html" target="_top" xlink:title="E:/Dropbox/BI_FIT_CVUT\l/2. semestr/PA2/GameBook\l/InventoryBrowser.cpp">
<polygon fill="none" stroke="black" points="437.074,-78.5 437.074,-119.5 577.074,-119.5 577.074,-78.5 437.074,-78.5"/>
<text text-anchor="start" x="445.074" y="-107.5" font-family="Helvetica,sans-Serif" font-size="10.00">E:/Dropbox/BI_FIT_CVUT</text>
<text text-anchor="start" x="445.074" y="-96.5" font-family="Helvetica,sans-Serif" font-size="10.00">/2. semestr/PA2/GameBook</text>
<text text-anchor="middle" x="507.074" y="-85.5" font-family="Helvetica,sans-Serif" font-size="10.00">/InventoryBrowser.cpp</text>
</a>
</g>
</g>
<!-- Node15&#45;&gt;Node16 -->
<g id="edge17" class="edge"><title>Node15&#45;&gt;Node16</title>
<path fill="none" stroke="midnightblue" d="M516.27,-146.59C514.478,-137.511 512.55,-127.742 510.924,-119.506"/>
<polygon fill="midnightblue" stroke="midnightblue" points="512.841,-147.295 518.212,-156.428 519.709,-145.94 512.841,-147.295"/>
</g>
<!-- Node17&#45;&gt;Node10 -->
<g id="edge19" class="edge"><title>Node17&#45;&gt;Node10</title>
<path fill="none" stroke="midnightblue" d="M444.095,-155.744C508.216,-139.564 525.508,-135.29 586.074,-120 588.955,-119.273 591.895,-118.53 594.864,-117.78"/>
<polygon fill="midnightblue" stroke="midnightblue" points="443.124,-152.379 434.284,-158.22 444.837,-159.166 443.124,-152.379"/>
</g>
<!-- Node18 -->
<g id="node18" class="node"><title>Node18</title>
<g id="a_node18"><a xlink:href="_interact_8cpp.html" target="_top" xlink:title="E:/Dropbox/BI_FIT_CVUT\l/2. semestr/PA2/GameBook\l/Interact.cpp">
<polygon fill="none" stroke="black" points="279.074,-78.5 279.074,-119.5 419.074,-119.5 419.074,-78.5 279.074,-78.5"/>
<text text-anchor="start" x="287.074" y="-107.5" font-family="Helvetica,sans-Serif" font-size="10.00">E:/Dropbox/BI_FIT_CVUT</text>
<text text-anchor="start" x="287.074" y="-96.5" font-family="Helvetica,sans-Serif" font-size="10.00">/2. semestr/PA2/GameBook</text>
<text text-anchor="middle" x="349.074" y="-85.5" font-family="Helvetica,sans-Serif" font-size="10.00">/Interact.cpp</text>
</a>
</g>
</g>
<!-- Node17&#45;&gt;Node18 -->
<g id="edge20" class="edge"><title>Node17&#45;&gt;Node18</title>
<path fill="none" stroke="midnightblue" d="M358.27,-146.59C356.478,-137.511 354.55,-127.742 352.924,-119.506"/>
<polygon fill="midnightblue" stroke="midnightblue" points="354.841,-147.295 360.212,-156.428 361.709,-145.94 354.841,-147.295"/>
</g>
<!-- Node20&#45;&gt;Node9 -->
<g id="edge24" class="edge"><title>Node20&#45;&gt;Node9</title>
<path fill="none" stroke="midnightblue" d="M590.868,-308.049C612.66,-297.566 637.903,-285.424 658.523,-275.506"/>
<polygon fill="midnightblue" stroke="midnightblue" points="589.258,-304.939 581.763,-312.428 592.292,-311.247 589.258,-304.939"/>
</g>
<!-- Node21 -->
<g id="node21" class="node"><title>Node21</title>
<g id="a_node21"><a xlink:href="_dialogue_n_c_p_8cpp.html" target="_top" xlink:title="E:/Dropbox/BI_FIT_CVUT\l/2. semestr/PA2/GameBook\l/DialogueNCP.cpp">
<polygon fill="none" stroke="black" points="471.074,-234.5 471.074,-275.5 611.074,-275.5 611.074,-234.5 471.074,-234.5"/>
<text text-anchor="start" x="479.074" y="-263.5" font-family="Helvetica,sans-Serif" font-size="10.00">E:/Dropbox/BI_FIT_CVUT</text>
<text text-anchor="start" x="479.074" y="-252.5" font-family="Helvetica,sans-Serif" font-size="10.00">/2. semestr/PA2/GameBook</text>
<text text-anchor="middle" x="541.074" y="-241.5" font-family="Helvetica,sans-Serif" font-size="10.00">/DialogueNCP.cpp</text>
</a>
</g>
</g>
<!-- Node20&#45;&gt;Node21 -->
<g id="edge23" class="edge"><title>Node20&#45;&gt;Node21</title>
<path fill="none" stroke="midnightblue" d="M541.074,-302.297C541.074,-293.301 541.074,-283.653 541.074,-275.506"/>
<polygon fill="midnightblue" stroke="midnightblue" points="537.575,-302.428 541.074,-312.428 544.575,-302.428 537.575,-302.428"/>
</g>
<!-- Node23&#45;&gt;Node9 -->
<g id="edge28" class="edge"><title>Node23&#45;&gt;Node9</title>
<path fill="none" stroke="midnightblue" d="M835.109,-308.748C807.673,-298.11 775.529,-285.646 749.378,-275.506"/>
<polygon fill="midnightblue" stroke="midnightblue" points="834.011,-312.076 844.6,-312.428 836.541,-305.55 834.011,-312.076"/>
</g>
<!-- Node24 -->
<g id="node24" class="node"><title>Node24</title>
<g id="a_node24"><a xlink:href="_fight_8cpp.html" target="_top" xlink:title="E:/Dropbox/BI_FIT_CVUT\l/2. semestr/PA2/GameBook\l/Fight.cpp">
<polygon fill="none" stroke="black" points="825.074,-234.5 825.074,-275.5 965.074,-275.5 965.074,-234.5 825.074,-234.5"/>
<text text-anchor="start" x="833.074" y="-263.5" font-family="Helvetica,sans-Serif" font-size="10.00">E:/Dropbox/BI_FIT_CVUT</text>
<text text-anchor="start" x="833.074" y="-252.5" font-family="Helvetica,sans-Serif" font-size="10.00">/2. semestr/PA2/GameBook</text>
<text text-anchor="middle" x="895.074" y="-241.5" font-family="Helvetica,sans-Serif" font-size="10.00">/Fight.cpp</text>
</a>
</g>
</g>
<!-- Node23&#45;&gt;Node24 -->
<g id="edge27" class="edge"><title>Node23&#45;&gt;Node24</title>
<path fill="none" stroke="midnightblue" d="M895.074,-302.297C895.074,-293.301 895.074,-283.653 895.074,-275.506"/>
<polygon fill="midnightblue" stroke="midnightblue" points="891.575,-302.428 895.074,-312.428 898.575,-302.428 891.575,-302.428"/>
</g>
<!-- Node25&#45;&gt;Node9 -->
<g id="edge31" class="edge"><title>Node25&#45;&gt;Node9</title>
<path fill="none" stroke="midnightblue" d="M305.402,-311.892C444.958,-287.269 484.282,-300.808 620.074,-276 622.997,-275.466 625.972,-274.885 628.971,-274.269"/>
<polygon fill="midnightblue" stroke="midnightblue" points="304.4,-308.516 295.178,-313.731 305.64,-315.405 304.4,-308.516"/>
</g>
<!-- Node26 -->
<g id="node26" class="node"><title>Node26</title>
<g id="a_node26"><a xlink:href="_trap_8cpp.html" target="_top" xlink:title="E:/Dropbox/BI_FIT_CVUT\l/2. semestr/PA2/GameBook\l/Trap.cpp">
<polygon fill="none" stroke="black" points="155.074,-234.5 155.074,-275.5 295.074,-275.5 295.074,-234.5 155.074,-234.5"/>
<text text-anchor="start" x="163.074" y="-263.5" font-family="Helvetica,sans-Serif" font-size="10.00">E:/Dropbox/BI_FIT_CVUT</text>
<text text-anchor="start" x="163.074" y="-252.5" font-family="Helvetica,sans-Serif" font-size="10.00">/2. semestr/PA2/GameBook</text>
<text text-anchor="middle" x="225.074" y="-241.5" font-family="Helvetica,sans-Serif" font-size="10.00">/Trap.cpp</text>
</a>
</g>
</g>
<!-- Node25&#45;&gt;Node26 -->
<g id="edge32" class="edge"><title>Node25&#45;&gt;Node26</title>
<path fill="none" stroke="midnightblue" d="M225.074,-302.297C225.074,-293.301 225.074,-283.653 225.074,-275.506"/>
<polygon fill="midnightblue" stroke="midnightblue" points="221.575,-302.428 225.074,-312.428 228.575,-302.428 221.575,-302.428"/>
</g>
<!-- Node28&#45;&gt;Node5 -->
<g id="edge39" class="edge"><title>Node28&#45;&gt;Node5</title>
<path fill="none" stroke="midnightblue" d="M988.961,-545.861C882.175,-524.472 769.121,-508.249 698.158,-498.843"/>
<polygon fill="midnightblue" stroke="midnightblue" points="988.447,-549.328 998.942,-547.879 989.834,-542.467 988.447,-549.328"/>
</g>
<!-- Node28&#45;&gt;Node9 -->
<g id="edge40" class="edge"><title>Node28&#45;&gt;Node9</title>
<path fill="none" stroke="midnightblue" d="M1070.94,-536.063C1072.48,-482.091 1067.12,-368.82 1001.07,-312 996.653,-308.196 857.152,-283.424 769.316,-268.129"/>
<polygon fill="midnightblue" stroke="midnightblue" points="1067.43,-536.206 1070.54,-546.335 1074.42,-536.479 1067.43,-536.206"/>
</g>
<!-- Node29 -->
<g id="node29" class="node"><title>Node29</title>
<g id="a_node29"><a xlink:href="_sword_8cpp.html" target="_top" xlink:title="E:/Dropbox/BI_FIT_CVUT\l/2. semestr/PA2/GameBook\l/Sword.cpp">
<polygon fill="none" stroke="black" points="1097.07,-468.5 1097.07,-509.5 1237.07,-509.5 1237.07,-468.5 1097.07,-468.5"/>
<text text-anchor="start" x="1105.07" y="-497.5" font-family="Helvetica,sans-Serif" font-size="10.00">E:/Dropbox/BI_FIT_CVUT</text>
<text text-anchor="start" x="1105.07" y="-486.5" font-family="Helvetica,sans-Serif" font-size="10.00">/2. semestr/PA2/GameBook</text>
<text text-anchor="middle" x="1167.07" y="-475.5" font-family="Helvetica,sans-Serif" font-size="10.00">/Sword.cpp</text>
</a>
</g>
</g>
<!-- Node28&#45;&gt;Node29 -->
<g id="edge41" class="edge"><title>Node28&#45;&gt;Node29</title>
<path fill="none" stroke="midnightblue" d="M1102.52,-540.065C1115.42,-530.057 1129.93,-518.804 1141.92,-509.506"/>
<polygon fill="midnightblue" stroke="midnightblue" points="1100.07,-537.534 1094.31,-546.428 1104.36,-543.066 1100.07,-537.534"/>
</g>
</g>
</svg>
