<?xml version="1.0" encoding="UTF-8" standalone="no"?>
<!DOCTYPE svg PUBLIC "-//W3C//DTD SVG 1.1//EN"
 "http://www.w3.org/Graphics/SVG/1.1/DTD/svg11.dtd">
<!-- Generated by graphviz version 2.38.0 (20140413.2041)
 -->
<!-- Title: E:/Dropbox/BI_FIT_CVUT/2. semestr/PA2/GameBook/ErrorsList.h Pages: 1 -->
<svg width="1616pt" height="830pt"
 viewBox="0.00 0.00 1616.00 830.00" xmlns="http://www.w3.org/2000/svg" xmlns:xlink="http://www.w3.org/1999/xlink">
<g id="graph0" class="graph" transform="scale(1 1) rotate(0) translate(4 826)">
<title>E:/Dropbox/BI_FIT_CVUT/2. semestr/PA2/GameBook/ErrorsList.h</title>
<!-- Node1 -->
<g id="node1" class="node"><title>Node1</title>
<polygon fill="#bfbfbf" stroke="black" points="1136,-780.5 1136,-821.5 1276,-821.5 1276,-780.5 1136,-780.5"/>
<text text-anchor="start" x="1144" y="-809.5" font-family="Helvetica,sans-Serif" font-size="10.00">E:/Dropbox/BI_FIT_CVUT</text>
<text text-anchor="start" x="1144" y="-798.5" font-family="Helvetica,sans-Serif" font-size="10.00">/2. semestr/PA2/GameBook</text>
<text text-anchor="middle" x="1206" y="-787.5" font-family="Helvetica,sans-Serif" font-size="10.00">/ErrorsList.h</text>
</g>
<!-- Node2 -->
<g id="node2" class="node"><title>Node2</title>
<g id="a_node2"><a xlink:href="_display_8h.html" target="_top" xlink:title="E:/Dropbox/BI_FIT_CVUT\l/2. semestr/PA2/GameBook\l/Display.h">
<polygon fill="none" stroke="black" points="545,-702.5 545,-743.5 685,-743.5 685,-702.5 545,-702.5"/>
<text text-anchor="start" x="553" y="-731.5" font-family="Helvetica,sans-Serif" font-size="10.00">E:/Dropbox/BI_FIT_CVUT</text>
<text text-anchor="start" x="553" y="-720.5" font-family="Helvetica,sans-Serif" font-size="10.00">/2. semestr/PA2/GameBook</text>
<text text-anchor="middle" x="615" y="-709.5" font-family="Helvetica,sans-Serif" font-size="10.00">/Display.h</text>
</a>
</g>
</g>
<!-- Node1&#45;&gt;Node2 -->
<g id="edge1" class="edge"><title>Node1&#45;&gt;Node2</title>
<path fill="none" stroke="midnightblue" d="M1125.96,-789.707C1009.57,-774.74 795.49,-747.21 685.025,-733.005"/>
<polygon fill="midnightblue" stroke="midnightblue" points="1125.52,-793.179 1135.88,-790.983 1126.41,-786.236 1125.52,-793.179"/>
</g>
<!-- Node6 -->
<g id="node6" class="node"><title>Node6</title>
<g id="a_node6"><a xlink:href="_hero_8h.html" target="_top" xlink:title="E:/Dropbox/BI_FIT_CVUT\l/2. semestr/PA2/GameBook\l/Hero.h">
<polygon fill="none" stroke="black" points="424,-468.5 424,-509.5 564,-509.5 564,-468.5 424,-468.5"/>
<text text-anchor="start" x="432" y="-497.5" font-family="Helvetica,sans-Serif" font-size="10.00">E:/Dropbox/BI_FIT_CVUT</text>
<text text-anchor="start" x="432" y="-486.5" font-family="Helvetica,sans-Serif" font-size="10.00">/2. semestr/PA2/GameBook</text>
<text text-anchor="middle" x="494" y="-475.5" font-family="Helvetica,sans-Serif" font-size="10.00">/Hero.h</text>
</a>
</g>
</g>
<!-- Node1&#45;&gt;Node6 -->
<g id="edge52" class="edge"><title>Node1&#45;&gt;Node6</title>
<path fill="none" stroke="midnightblue" d="M1153.56,-776.249C1078.03,-742.13 934.169,-677.467 811,-624 715.496,-582.542 603.137,-535.44 541.116,-509.584"/>
<polygon fill="midnightblue" stroke="midnightblue" points="1152.31,-779.527 1162.87,-780.455 1155.2,-773.148 1152.31,-779.527"/>
</g>
<!-- Node10 -->
<g id="node10" class="node"><title>Node10</title>
<g id="a_node10"><a xlink:href="_world_8h.html" target="_top" xlink:title="E:/Dropbox/BI_FIT_CVUT\l/2. semestr/PA2/GameBook\l/World.h">
<polygon fill="none" stroke="black" points="842,-234.5 842,-275.5 982,-275.5 982,-234.5 842,-234.5"/>
<text text-anchor="start" x="850" y="-263.5" font-family="Helvetica,sans-Serif" font-size="10.00">E:/Dropbox/BI_FIT_CVUT</text>
<text text-anchor="start" x="850" y="-252.5" font-family="Helvetica,sans-Serif" font-size="10.00">/2. semestr/PA2/GameBook</text>
<text text-anchor="middle" x="912" y="-241.5" font-family="Helvetica,sans-Serif" font-size="10.00">/World.h</text>
</a>
</g>
</g>
<!-- Node1&#45;&gt;Node10 -->
<g id="edge60" class="edge"><title>Node1&#45;&gt;Node10</title>
<path fill="none" stroke="midnightblue" d="M1206,-769.91C1206,-738.868 1206,-689.049 1206,-646 1206,-646 1206,-646 1206,-410 1206,-365.633 1218.22,-343.519 1187,-312 1179.72,-304.655 1061.18,-282.429 982.135,-268.286"/>
<polygon fill="midnightblue" stroke="midnightblue" points="1202.5,-770.065 1206,-780.065 1209.5,-770.065 1202.5,-770.065"/>
</g>
<!-- Node35 -->
<g id="node35" class="node"><title>Node35</title>
<g id="a_node35"><a xlink:href="_stream_decoder_8h.html" target="_top" xlink:title="E:/Dropbox/BI_FIT_CVUT\l/2. semestr/PA2/GameBook\l/StreamDecoder.h">
<polygon fill="none" stroke="black" points="1234,-546.5 1234,-587.5 1374,-587.5 1374,-546.5 1234,-546.5"/>
<text text-anchor="start" x="1242" y="-575.5" font-family="Helvetica,sans-Serif" font-size="10.00">E:/Dropbox/BI_FIT_CVUT</text>
<text text-anchor="start" x="1242" y="-564.5" font-family="Helvetica,sans-Serif" font-size="10.00">/2. semestr/PA2/GameBook</text>
<text text-anchor="middle" x="1304" y="-553.5" font-family="Helvetica,sans-Serif" font-size="10.00">/StreamDecoder.h</text>
</a>
</g>
</g>
<!-- Node1&#45;&gt;Node35 -->
<g id="edge53" class="edge"><title>Node1&#45;&gt;Node35</title>
<path fill="none" stroke="midnightblue" d="M1218.37,-770.716C1238.64,-722.729 1278.4,-628.607 1295.67,-587.73"/>
<polygon fill="midnightblue" stroke="midnightblue" points="1215.02,-769.646 1214.36,-780.22 1221.47,-772.37 1215.02,-769.646"/>
</g>
<!-- Node37 -->
<g id="node37" class="node"><title>Node37</title>
<g id="a_node37"><a xlink:href="_i_ohandle_8h.html" target="_top" xlink:title="E:/Dropbox/BI_FIT_CVUT\l/2. semestr/PA2/GameBook\l/IOhandle.h">
<polygon fill="none" stroke="black" points="1370,-702.5 1370,-743.5 1510,-743.5 1510,-702.5 1370,-702.5"/>
<text text-anchor="start" x="1378" y="-731.5" font-family="Helvetica,sans-Serif" font-size="10.00">E:/Dropbox/BI_FIT_CVUT</text>
<text text-anchor="start" x="1378" y="-720.5" font-family="Helvetica,sans-Serif" font-size="10.00">/2. semestr/PA2/GameBook</text>
<text text-anchor="middle" x="1440" y="-709.5" font-family="Helvetica,sans-Serif" font-size="10.00">/IOhandle.h</text>
</a>
</g>
</g>
<!-- Node1&#45;&gt;Node37 -->
<g id="edge57" class="edge"><title>Node1&#45;&gt;Node37</title>
<path fill="none" stroke="midnightblue" d="M1275.88,-777.304C1309,-766.546 1348.18,-753.823 1379.94,-743.506"/>
<polygon fill="midnightblue" stroke="midnightblue" points="1274.69,-774.01 1266.26,-780.428 1276.85,-780.668 1274.69,-774.01"/>
</g>
<!-- Node3 -->
<g id="node3" class="node"><title>Node3</title>
<g id="a_node3"><a xlink:href="_item_8h.html" target="_top" xlink:title="E:/Dropbox/BI_FIT_CVUT\l/2. semestr/PA2/GameBook\l/Item.h">
<polygon fill="none" stroke="black" points="316,-624.5 316,-665.5 456,-665.5 456,-624.5 316,-624.5"/>
<text text-anchor="start" x="324" y="-653.5" font-family="Helvetica,sans-Serif" font-size="10.00">E:/Dropbox/BI_FIT_CVUT</text>
<text text-anchor="start" x="324" y="-642.5" font-family="Helvetica,sans-Serif" font-size="10.00">/2. semestr/PA2/GameBook</text>
<text text-anchor="middle" x="386" y="-631.5" font-family="Helvetica,sans-Serif" font-size="10.00">/Item.h</text>
</a>
</g>
</g>
<!-- Node2&#45;&gt;Node3 -->
<g id="edge2" class="edge"><title>Node2&#45;&gt;Node3</title>
<path fill="none" stroke="midnightblue" d="M546.195,-699.165C513.868,-688.437 475.728,-675.779 444.773,-665.506"/>
<polygon fill="midnightblue" stroke="midnightblue" points="545.433,-702.6 556.027,-702.428 547.638,-695.956 545.433,-702.6"/>
</g>
<!-- Node2&#45;&gt;Node6 -->
<g id="edge50" class="edge"><title>Node2&#45;&gt;Node6</title>
<path fill="none" stroke="midnightblue" d="M597.834,-693.737C592.621,-684.925 586.962,-675.124 582,-666 551.644,-610.178 518.944,-542.563 503.332,-509.76"/>
<polygon fill="midnightblue" stroke="midnightblue" points="594.929,-695.699 603.059,-702.493 600.94,-692.112 594.929,-695.699"/>
</g>
<!-- Node7 -->
<g id="node7" class="node"><title>Node7</title>
<g id="a_node7"><a xlink:href="_event_8h.html" target="_top" xlink:title="E:/Dropbox/BI_FIT_CVUT\l/2. semestr/PA2/GameBook\l/Event.h">
<polygon fill="none" stroke="black" points="528,-390.5 528,-431.5 668,-431.5 668,-390.5 528,-390.5"/>
<text text-anchor="start" x="536" y="-419.5" font-family="Helvetica,sans-Serif" font-size="10.00">E:/Dropbox/BI_FIT_CVUT</text>
<text text-anchor="start" x="536" y="-408.5" font-family="Helvetica,sans-Serif" font-size="10.00">/2. semestr/PA2/GameBook</text>
<text text-anchor="middle" x="598" y="-397.5" font-family="Helvetica,sans-Serif" font-size="10.00">/Event.h</text>
</a>
</g>
</g>
<!-- Node2&#45;&gt;Node7 -->
<g id="edge45" class="edge"><title>Node2&#45;&gt;Node7</title>
<path fill="none" stroke="midnightblue" d="M613.358,-692.063C609.905,-629.099 601.972,-484.437 599.08,-431.698"/>
<polygon fill="midnightblue" stroke="midnightblue" points="609.868,-692.343 613.911,-702.137 616.858,-691.96 609.868,-692.343"/>
</g>
<!-- Node32 -->
<g id="node32" class="node"><title>Node32</title>
<g id="a_node32"><a xlink:href="_creature_8h.html" target="_top" xlink:title="E:/Dropbox/BI_FIT_CVUT\l/2. semestr/PA2/GameBook\l/Creature.h">
<polygon fill="none" stroke="black" points="858,-546.5 858,-587.5 998,-587.5 998,-546.5 858,-546.5"/>
<text text-anchor="start" x="866" y="-575.5" font-family="Helvetica,sans-Serif" font-size="10.00">E:/Dropbox/BI_FIT_CVUT</text>
<text text-anchor="start" x="866" y="-564.5" font-family="Helvetica,sans-Serif" font-size="10.00">/2. semestr/PA2/GameBook</text>
<text text-anchor="middle" x="928" y="-553.5" font-family="Helvetica,sans-Serif" font-size="10.00">/Creature.h</text>
</a>
</g>
</g>
<!-- Node2&#45;&gt;Node32 -->
<g id="edge46" class="edge"><title>Node2&#45;&gt;Node32</title>
<path fill="none" stroke="midnightblue" d="M618.829,-692.343C623.268,-670.25 632.773,-641.068 653,-624 683.395,-598.352 786.855,-582.643 857.833,-574.626"/>
<polygon fill="midnightblue" stroke="midnightblue" points="615.375,-691.772 617.078,-702.23 622.268,-692.993 615.375,-691.772"/>
</g>
<!-- Node34 -->
<g id="node34" class="node"><title>Node34</title>
<g id="a_node34"><a xlink:href="_display_8cpp.html" target="_top" xlink:title="E:/Dropbox/BI_FIT_CVUT\l/2. semestr/PA2/GameBook\l/Display.cpp">
<polygon fill="none" stroke="black" points="662,-624.5 662,-665.5 802,-665.5 802,-624.5 662,-624.5"/>
<text text-anchor="start" x="670" y="-653.5" font-family="Helvetica,sans-Serif" font-size="10.00">E:/Dropbox/BI_FIT_CVUT</text>
<text text-anchor="start" x="670" y="-642.5" font-family="Helvetica,sans-Serif" font-size="10.00">/2. semestr/PA2/GameBook</text>
<text text-anchor="middle" x="732" y="-631.5" font-family="Helvetica,sans-Serif" font-size="10.00">/Display.cpp</text>
</a>
</g>
</g>
<!-- Node2&#45;&gt;Node34 -->
<g id="edge51" class="edge"><title>Node2&#45;&gt;Node34</title>
<path fill="none" stroke="midnightblue" d="M653.611,-696.919C669.34,-686.702 687.247,-675.07 701.972,-665.506"/>
<polygon fill="midnightblue" stroke="midnightblue" points="651.61,-694.046 645.13,-702.428 655.423,-699.916 651.61,-694.046"/>
</g>
<!-- Node4 -->
<g id="node4" class="node"><title>Node4</title>
<g id="a_node4"><a xlink:href="_armour_8h.html" target="_top" xlink:title="E:/Dropbox/BI_FIT_CVUT\l/2. semestr/PA2/GameBook\l/Armour.h">
<polygon fill="none" stroke="black" points="158,-546.5 158,-587.5 298,-587.5 298,-546.5 158,-546.5"/>
<text text-anchor="start" x="166" y="-575.5" font-family="Helvetica,sans-Serif" font-size="10.00">E:/Dropbox/BI_FIT_CVUT</text>
<text text-anchor="start" x="166" y="-564.5" font-family="Helvetica,sans-Serif" font-size="10.00">/2. semestr/PA2/GameBook</text>
<text text-anchor="middle" x="228" y="-553.5" font-family="Helvetica,sans-Serif" font-size="10.00">/Armour.h</text>
</a>
</g>
</g>
<!-- Node3&#45;&gt;Node4 -->
<g id="edge3" class="edge"><title>Node3&#45;&gt;Node4</title>
<path fill="none" stroke="midnightblue" d="M336.206,-620.049C314.415,-609.566 289.172,-597.424 268.551,-587.506"/>
<polygon fill="midnightblue" stroke="midnightblue" points="334.782,-623.247 345.311,-624.428 337.817,-616.939 334.782,-623.247"/>
</g>
<!-- Node3&#45;&gt;Node6 -->
<g id="edge43" class="edge"><title>Node3&#45;&gt;Node6</title>
<path fill="none" stroke="midnightblue" d="M432.743,-618.533C444.667,-610.152 456.5,-599.883 465,-588 481.929,-564.333 489.07,-530.77 492.015,-509.703"/>
<polygon fill="midnightblue" stroke="midnightblue" points="430.472,-615.84 424.091,-624.298 434.353,-621.665 430.472,-615.84"/>
</g>
<!-- Node29 -->
<g id="node29" class="node"><title>Node29</title>
<g id="a_node29"><a xlink:href="_sword_8h.html" target="_top" xlink:title="E:/Dropbox/BI_FIT_CVUT\l/2. semestr/PA2/GameBook\l/Sword.h">
<polygon fill="none" stroke="black" points="316,-546.5 316,-587.5 456,-587.5 456,-546.5 316,-546.5"/>
<text text-anchor="start" x="324" y="-575.5" font-family="Helvetica,sans-Serif" font-size="10.00">E:/Dropbox/BI_FIT_CVUT</text>
<text text-anchor="start" x="324" y="-564.5" font-family="Helvetica,sans-Serif" font-size="10.00">/2. semestr/PA2/GameBook</text>
<text text-anchor="middle" x="386" y="-553.5" font-family="Helvetica,sans-Serif" font-size="10.00">/Sword.h</text>
</a>
</g>
</g>
<!-- Node3&#45;&gt;Node29 -->
<g id="edge39" class="edge"><title>Node3&#45;&gt;Node29</title>
<path fill="none" stroke="midnightblue" d="M386,-614.297C386,-605.301 386,-595.653 386,-587.506"/>
<polygon fill="midnightblue" stroke="midnightblue" points="382.5,-614.428 386,-624.428 389.5,-614.428 382.5,-614.428"/>
</g>
<!-- Node31 -->
<g id="node31" class="node"><title>Node31</title>
<g id="a_node31"><a xlink:href="_item_8cpp.html" target="_top" xlink:title="E:/Dropbox/BI_FIT_CVUT\l/2. semestr/PA2/GameBook\l/Item.cpp">
<polygon fill="none" stroke="black" points="0,-546.5 0,-587.5 140,-587.5 140,-546.5 0,-546.5"/>
<text text-anchor="start" x="8" y="-575.5" font-family="Helvetica,sans-Serif" font-size="10.00">E:/Dropbox/BI_FIT_CVUT</text>
<text text-anchor="start" x="8" y="-564.5" font-family="Helvetica,sans-Serif" font-size="10.00">/2. semestr/PA2/GameBook</text>
<text text-anchor="middle" x="70" y="-553.5" font-family="Helvetica,sans-Serif" font-size="10.00">/Item.cpp</text>
</a>
</g>
</g>
<!-- Node3&#45;&gt;Node31 -->
<g id="edge44" class="edge"><title>Node3&#45;&gt;Node31</title>
<path fill="none" stroke="midnightblue" d="M306.025,-625.437C260.047,-614.682 201.225,-600.78 149,-588 146.114,-587.294 143.17,-586.569 140.197,-585.833"/>
<polygon fill="midnightblue" stroke="midnightblue" points="305.396,-628.884 315.93,-627.752 306.989,-622.068 305.396,-628.884"/>
</g>
<!-- Node5 -->
<g id="node5" class="node"><title>Node5</title>
<g id="a_node5"><a xlink:href="_armour_8cpp.html" target="_top" xlink:title="E:/Dropbox/BI_FIT_CVUT\l/2. semestr/PA2/GameBook\l/Armour.cpp">
<polygon fill="none" stroke="black" points="20,-468.5 20,-509.5 160,-509.5 160,-468.5 20,-468.5"/>
<text text-anchor="start" x="28" y="-497.5" font-family="Helvetica,sans-Serif" font-size="10.00">E:/Dropbox/BI_FIT_CVUT</text>
<text text-anchor="start" x="28" y="-486.5" font-family="Helvetica,sans-Serif" font-size="10.00">/2. semestr/PA2/GameBook</text>
<text text-anchor="middle" x="90" y="-475.5" font-family="Helvetica,sans-Serif" font-size="10.00">/Armour.cpp</text>
</a>
</g>
</g>
<!-- Node4&#45;&gt;Node5 -->
<g id="edge4" class="edge"><title>Node4&#45;&gt;Node5</title>
<path fill="none" stroke="midnightblue" d="M183.487,-541.486C164.69,-531.134 143.107,-519.247 125.418,-509.506"/>
<polygon fill="midnightblue" stroke="midnightblue" points="182.014,-544.67 192.462,-546.428 185.391,-538.538 182.014,-544.67"/>
</g>
<!-- Node4&#45;&gt;Node6 -->
<g id="edge5" class="edge"><title>Node4&#45;&gt;Node6</title>
<path fill="none" stroke="midnightblue" d="M306.468,-543.58C344.325,-532.764 389.31,-519.911 425.731,-509.506"/>
<polygon fill="midnightblue" stroke="midnightblue" points="305.155,-540.315 296.502,-546.428 307.078,-547.046 305.155,-540.315"/>
</g>
<!-- Node4&#45;&gt;Node10 -->
<g id="edge38" class="edge"><title>Node4&#45;&gt;Node10</title>
<path fill="none" stroke="midnightblue" d="M214.81,-536.828C211.6,-528.351 208.625,-518.959 207,-510 203.669,-491.633 202.482,-486.112 207,-468 226.01,-391.799 224.051,-354.646 290,-312 391.549,-246.333 713.557,-294.918 833,-276 835.934,-275.535 838.919,-275.012 841.926,-274.443"/>
<polygon fill="midnightblue" stroke="midnightblue" points="211.635,-538.312 218.62,-546.278 218.127,-535.695 211.635,-538.312"/>
</g>
<!-- Node6&#45;&gt;Node7 -->
<g id="edge6" class="edge"><title>Node6&#45;&gt;Node7</title>
<path fill="none" stroke="midnightblue" d="M529.1,-462.35C542.891,-452.272 558.462,-440.893 571.308,-431.506"/>
<polygon fill="midnightblue" stroke="midnightblue" points="526.791,-459.702 520.783,-468.428 530.922,-465.354 526.791,-459.702"/>
</g>
<!-- Node14 -->
<g id="node14" class="node"><title>Node14</title>
<g id="a_node14"><a xlink:href="_shopping_8h.html" target="_top" xlink:title="E:/Dropbox/BI_FIT_CVUT\l/2. semestr/PA2/GameBook\l/Shopping.h">
<polygon fill="none" stroke="black" points="477,-156.5 477,-197.5 617,-197.5 617,-156.5 477,-156.5"/>
<text text-anchor="start" x="485" y="-185.5" font-family="Helvetica,sans-Serif" font-size="10.00">E:/Dropbox/BI_FIT_CVUT</text>
<text text-anchor="start" x="485" y="-174.5" font-family="Helvetica,sans-Serif" font-size="10.00">/2. semestr/PA2/GameBook</text>
<text text-anchor="middle" x="547" y="-163.5" font-family="Helvetica,sans-Serif" font-size="10.00">/Shopping.h</text>
</a>
</g>
</g>
<!-- Node6&#45;&gt;Node14 -->
<g id="edge34" class="edge"><title>Node6&#45;&gt;Node14</title>
<path fill="none" stroke="midnightblue" d="M484.926,-458.683C476.739,-436.835 462.618,-407.814 441,-390 399.667,-355.942 357.713,-397.158 326,-354 294.419,-311.022 293.245,-276.09 326,-234 326,-234 412.059,-212.193 476.771,-195.796"/>
<polygon fill="midnightblue" stroke="midnightblue" points="481.64,-459.89 488.276,-468.15 488.24,-457.555 481.64,-459.89"/>
</g>
<!-- Node16 -->
<g id="node16" class="node"><title>Node16</title>
<g id="a_node16"><a xlink:href="_inventory_browser_8h.html" target="_top" xlink:title="E:/Dropbox/BI_FIT_CVUT\l/2. semestr/PA2/GameBook\l/InventoryBrowser.h">
<polygon fill="none" stroke="black" points="635,-156.5 635,-197.5 775,-197.5 775,-156.5 635,-156.5"/>
<text text-anchor="start" x="643" y="-185.5" font-family="Helvetica,sans-Serif" font-size="10.00">E:/Dropbox/BI_FIT_CVUT</text>
<text text-anchor="start" x="643" y="-174.5" font-family="Helvetica,sans-Serif" font-size="10.00">/2. semestr/PA2/GameBook</text>
<text text-anchor="middle" x="705" y="-163.5" font-family="Helvetica,sans-Serif" font-size="10.00">/InventoryBrowser.h</text>
</a>
</g>
</g>
<!-- Node6&#45;&gt;Node16 -->
<g id="edge35" class="edge"><title>Node6&#45;&gt;Node16</title>
<path fill="none" stroke="midnightblue" d="M494.061,-458.238C492.53,-436.724 487.034,-408.333 470,-390 434.698,-352.006 389.496,-395.95 359,-354 327.64,-310.861 323.898,-274.153 359,-234 398.405,-188.926 567.218,-209.365 626,-198 628.917,-197.436 631.887,-196.83 634.882,-196.193"/>
<polygon fill="midnightblue" stroke="midnightblue" points="490.576,-458.644 494.534,-468.472 497.569,-458.321 490.576,-458.644"/>
</g>
<!-- Node18 -->
<g id="node18" class="node"><title>Node18</title>
<g id="a_node18"><a xlink:href="_interact_8h.html" target="_top" xlink:title="E:/Dropbox/BI_FIT_CVUT\l/2. semestr/PA2/GameBook\l/Interact.h">
<polygon fill="none" stroke="black" points="319,-156.5 319,-197.5 459,-197.5 459,-156.5 319,-156.5"/>
<text text-anchor="start" x="327" y="-185.5" font-family="Helvetica,sans-Serif" font-size="10.00">E:/Dropbox/BI_FIT_CVUT</text>
<text text-anchor="start" x="327" y="-174.5" font-family="Helvetica,sans-Serif" font-size="10.00">/2. semestr/PA2/GameBook</text>
<text text-anchor="middle" x="389" y="-163.5" font-family="Helvetica,sans-Serif" font-size="10.00">/Interact.h</text>
</a>
</g>
</g>
<!-- Node6&#45;&gt;Node18 -->
<g id="edge36" class="edge"><title>Node6&#45;&gt;Node18</title>
<path fill="none" stroke="midnightblue" d="M413.843,-469.122C355.963,-455.108 287.239,-437.511 283,-432 256.898,-398.066 227.163,-350.471 300,-234 309.776,-218.367 325.692,-206.353 341.38,-197.535"/>
<polygon fill="midnightblue" stroke="midnightblue" points="413.223,-472.573 423.765,-471.515 414.864,-465.768 413.223,-472.573"/>
</g>
<!-- Node28 -->
<g id="node28" class="node"><title>Node28</title>
<g id="a_node28"><a xlink:href="_hero_8cpp.html" target="_top" xlink:title="E:/Dropbox/BI_FIT_CVUT\l/2. semestr/PA2/GameBook\l/Hero.cpp">
<polygon fill="none" stroke="black" points="292,-390.5 292,-431.5 432,-431.5 432,-390.5 292,-390.5"/>
<text text-anchor="start" x="300" y="-419.5" font-family="Helvetica,sans-Serif" font-size="10.00">E:/Dropbox/BI_FIT_CVUT</text>
<text text-anchor="start" x="300" y="-408.5" font-family="Helvetica,sans-Serif" font-size="10.00">/2. semestr/PA2/GameBook</text>
<text text-anchor="middle" x="362" y="-397.5" font-family="Helvetica,sans-Serif" font-size="10.00">/Hero.cpp</text>
</a>
</g>
</g>
<!-- Node6&#45;&gt;Node28 -->
<g id="edge37" class="edge"><title>Node6&#45;&gt;Node28</title>
<path fill="none" stroke="midnightblue" d="M450.931,-463.203C433.067,-452.918 412.644,-441.159 395.878,-431.506"/>
<polygon fill="midnightblue" stroke="midnightblue" points="449.594,-466.472 460.007,-468.428 453.087,-460.405 449.594,-466.472"/>
</g>
<!-- Node8 -->
<g id="node8" class="node"><title>Node8</title>
<g id="a_node8"><a xlink:href="_choice_8h.html" target="_top" xlink:title="E:/Dropbox/BI_FIT_CVUT\l/2. semestr/PA2/GameBook\l/Choice.h">
<polygon fill="none" stroke="black" points="368,-312.5 368,-353.5 508,-353.5 508,-312.5 368,-312.5"/>
<text text-anchor="start" x="376" y="-341.5" font-family="Helvetica,sans-Serif" font-size="10.00">E:/Dropbox/BI_FIT_CVUT</text>
<text text-anchor="start" x="376" y="-330.5" font-family="Helvetica,sans-Serif" font-size="10.00">/2. semestr/PA2/GameBook</text>
<text text-anchor="middle" x="438" y="-319.5" font-family="Helvetica,sans-Serif" font-size="10.00">/Choice.h</text>
</a>
</g>
</g>
<!-- Node7&#45;&gt;Node8 -->
<g id="edge7" class="edge"><title>Node7&#45;&gt;Node8</title>
<path fill="none" stroke="midnightblue" d="M547.576,-386.049C525.508,-375.566 499.946,-363.424 479.064,-353.506"/>
<polygon fill="midnightblue" stroke="midnightblue" points="546.262,-389.299 556.796,-390.428 549.265,-382.976 546.262,-389.299"/>
</g>
<!-- Node7&#45;&gt;Node10 -->
<g id="edge30" class="edge"><title>Node7&#45;&gt;Node10</title>
<path fill="none" stroke="midnightblue" d="M678.21,-403.953C726.152,-397.294 786.564,-383.316 833,-354 841.269,-348.779 876.598,-302.947 897.103,-275.848"/>
<polygon fill="midnightblue" stroke="midnightblue" points="677.639,-400.498 668.178,-405.266 678.548,-407.439 677.639,-400.498"/>
</g>
<!-- Node21 -->
<g id="node21" class="node"><title>Node21</title>
<g id="a_node21"><a xlink:href="_dialogue_n_c_p_8h.html" target="_top" xlink:title="E:/Dropbox/BI_FIT_CVUT\l/2. semestr/PA2/GameBook\l/DialogueNCP.h">
<polygon fill="none" stroke="black" points="684,-312.5 684,-353.5 824,-353.5 824,-312.5 684,-312.5"/>
<text text-anchor="start" x="692" y="-341.5" font-family="Helvetica,sans-Serif" font-size="10.00">E:/Dropbox/BI_FIT_CVUT</text>
<text text-anchor="start" x="692" y="-330.5" font-family="Helvetica,sans-Serif" font-size="10.00">/2. semestr/PA2/GameBook</text>
<text text-anchor="middle" x="754" y="-319.5" font-family="Helvetica,sans-Serif" font-size="10.00">/DialogueNCP.h</text>
</a>
</g>
</g>
<!-- Node7&#45;&gt;Node21 -->
<g id="edge23" class="edge"><title>Node7&#45;&gt;Node21</title>
<path fill="none" stroke="midnightblue" d="M647.452,-385.908C668.902,-375.458 693.693,-363.38 713.962,-353.506"/>
<polygon fill="midnightblue" stroke="midnightblue" points="645.631,-382.902 638.174,-390.428 648.697,-389.195 645.631,-382.902"/>
</g>
<!-- Node23 -->
<g id="node23" class="node"><title>Node23</title>
<g id="a_node23"><a xlink:href="_event_8cpp.html" target="_top" xlink:title="E:/Dropbox/BI_FIT_CVUT\l/2. semestr/PA2/GameBook\l/Event.cpp">
<polygon fill="none" stroke="black" points="880,-312.5 880,-353.5 1020,-353.5 1020,-312.5 880,-312.5"/>
<text text-anchor="start" x="888" y="-341.5" font-family="Helvetica,sans-Serif" font-size="10.00">E:/Dropbox/BI_FIT_CVUT</text>
<text text-anchor="start" x="888" y="-330.5" font-family="Helvetica,sans-Serif" font-size="10.00">/2. semestr/PA2/GameBook</text>
<text text-anchor="middle" x="950" y="-319.5" font-family="Helvetica,sans-Serif" font-size="10.00">/Event.cpp</text>
</a>
</g>
</g>
<!-- Node7&#45;&gt;Node23 -->
<g id="edge26" class="edge"><title>Node7&#45;&gt;Node23</title>
<path fill="none" stroke="midnightblue" d="M678.161,-393.855C731.481,-382.968 803.027,-368.073 866,-354 870.535,-352.986 875.204,-351.925 879.907,-350.842"/>
<polygon fill="midnightblue" stroke="midnightblue" points="677.185,-390.482 668.086,-395.909 678.583,-397.341 677.185,-390.482"/>
</g>
<!-- Node24 -->
<g id="node24" class="node"><title>Node24</title>
<g id="a_node24"><a xlink:href="_fight_8h.html" target="_top" xlink:title="E:/Dropbox/BI_FIT_CVUT\l/2. semestr/PA2/GameBook\l/Fight.h">
<polygon fill="none" stroke="black" points="1038,-312.5 1038,-353.5 1178,-353.5 1178,-312.5 1038,-312.5"/>
<text text-anchor="start" x="1046" y="-341.5" font-family="Helvetica,sans-Serif" font-size="10.00">E:/Dropbox/BI_FIT_CVUT</text>
<text text-anchor="start" x="1046" y="-330.5" font-family="Helvetica,sans-Serif" font-size="10.00">/2. semestr/PA2/GameBook</text>
<text text-anchor="middle" x="1108" y="-319.5" font-family="Helvetica,sans-Serif" font-size="10.00">/Fight.h</text>
</a>
</g>
</g>
<!-- Node7&#45;&gt;Node24 -->
<g id="edge27" class="edge"><title>Node7&#45;&gt;Node24</title>
<path fill="none" stroke="midnightblue" d="M678.26,-402.451C765.159,-393.609 907.621,-377.165 1029,-354 1031.92,-353.443 1034.89,-352.843 1037.89,-352.21"/>
<polygon fill="midnightblue" stroke="midnightblue" points="677.802,-398.98 668.204,-403.466 678.505,-405.944 677.802,-398.98"/>
</g>
<!-- Node26 -->
<g id="node26" class="node"><title>Node26</title>
<g id="a_node26"><a xlink:href="_trap_8h.html" target="_top" xlink:title="E:/Dropbox/BI_FIT_CVUT\l/2. semestr/PA2/GameBook\l/Trap.h">
<polygon fill="none" stroke="black" points="526,-312.5 526,-353.5 666,-353.5 666,-312.5 526,-312.5"/>
<text text-anchor="start" x="534" y="-341.5" font-family="Helvetica,sans-Serif" font-size="10.00">E:/Dropbox/BI_FIT_CVUT</text>
<text text-anchor="start" x="534" y="-330.5" font-family="Helvetica,sans-Serif" font-size="10.00">/2. semestr/PA2/GameBook</text>
<text text-anchor="middle" x="596" y="-319.5" font-family="Helvetica,sans-Serif" font-size="10.00">/Trap.h</text>
</a>
</g>
</g>
<!-- Node7&#45;&gt;Node26 -->
<g id="edge31" class="edge"><title>Node7&#45;&gt;Node26</title>
<path fill="none" stroke="midnightblue" d="M597.218,-380.297C596.982,-371.301 596.728,-361.653 596.513,-353.506"/>
<polygon fill="midnightblue" stroke="midnightblue" points="593.723,-380.524 597.485,-390.428 600.721,-380.339 593.723,-380.524"/>
</g>
<!-- Node9 -->
<g id="node9" class="node"><title>Node9</title>
<g id="a_node9"><a xlink:href="_choice_8cpp.html" target="_top" xlink:title="E:/Dropbox/BI_FIT_CVUT\l/2. semestr/PA2/GameBook\l/Choice.cpp">
<polygon fill="none" stroke="black" points="368,-234.5 368,-275.5 508,-275.5 508,-234.5 368,-234.5"/>
<text text-anchor="start" x="376" y="-263.5" font-family="Helvetica,sans-Serif" font-size="10.00">E:/Dropbox/BI_FIT_CVUT</text>
<text text-anchor="start" x="376" y="-252.5" font-family="Helvetica,sans-Serif" font-size="10.00">/2. semestr/PA2/GameBook</text>
<text text-anchor="middle" x="438" y="-241.5" font-family="Helvetica,sans-Serif" font-size="10.00">/Choice.cpp</text>
</a>
</g>
</g>
<!-- Node8&#45;&gt;Node9 -->
<g id="edge8" class="edge"><title>Node8&#45;&gt;Node9</title>
<path fill="none" stroke="midnightblue" d="M438,-302.297C438,-293.301 438,-283.653 438,-275.506"/>
<polygon fill="midnightblue" stroke="midnightblue" points="434.5,-302.428 438,-312.428 441.5,-302.428 434.5,-302.428"/>
</g>
<!-- Node8&#45;&gt;Node10 -->
<g id="edge9" class="edge"><title>Node8&#45;&gt;Node10</title>
<path fill="none" stroke="midnightblue" d="M518.328,-311.892C657.884,-287.269 697.207,-300.808 833,-276 835.923,-275.466 838.898,-274.885 841.896,-274.269"/>
<polygon fill="midnightblue" stroke="midnightblue" points="517.326,-308.516 508.104,-313.731 518.566,-315.405 517.326,-308.516"/>
</g>
<!-- Node11 -->
<g id="node11" class="node"><title>Node11</title>
<g id="a_node11"><a xlink:href="_game_8h.html" target="_top" xlink:title="E:/Dropbox/BI_FIT_CVUT\l/2. semestr/PA2/GameBook\l/Game.h">
<polygon fill="none" stroke="black" points="635,-78.5 635,-119.5 775,-119.5 775,-78.5 635,-78.5"/>
<text text-anchor="start" x="643" y="-107.5" font-family="Helvetica,sans-Serif" font-size="10.00">E:/Dropbox/BI_FIT_CVUT</text>
<text text-anchor="start" x="643" y="-96.5" font-family="Helvetica,sans-Serif" font-size="10.00">/2. semestr/PA2/GameBook</text>
<text text-anchor="middle" x="705" y="-85.5" font-family="Helvetica,sans-Serif" font-size="10.00">/Game.h</text>
</a>
</g>
</g>
<!-- Node10&#45;&gt;Node11 -->
<g id="edge10" class="edge"><title>Node10&#45;&gt;Node11</title>
<path fill="none" stroke="midnightblue" d="M933.275,-225.806C946.429,-204.682 958.021,-176.081 942,-156 897.084,-99.6994 854.026,-136.839 784,-120 781.111,-119.305 778.165,-118.59 775.19,-117.862"/>
<polygon fill="midnightblue" stroke="midnightblue" points="930.218,-224.083 927.618,-234.354 936.055,-227.946 930.218,-224.083"/>
</g>
<!-- Node10&#45;&gt;Node14 -->
<g id="edge13" class="edge"><title>Node10&#45;&gt;Node14</title>
<path fill="none" stroke="midnightblue" d="M831.841,-233.835C739.93,-214.702 714.206,-216.807 626,-198 623.094,-197.38 620.134,-196.728 617.147,-196.052"/>
<polygon fill="midnightblue" stroke="midnightblue" points="831.346,-237.308 841.853,-235.948 832.792,-230.458 831.346,-237.308"/>
</g>
<!-- Node10&#45;&gt;Node16 -->
<g id="edge16" class="edge"><title>Node10&#45;&gt;Node16</title>
<path fill="none" stroke="midnightblue" d="M849.048,-230.887C819.99,-220.219 785.866,-207.69 758.127,-197.506"/>
<polygon fill="midnightblue" stroke="midnightblue" points="848.099,-234.267 858.692,-234.428 850.511,-227.696 848.099,-234.267"/>
</g>
<!-- Node10&#45;&gt;Node18 -->
<g id="edge19" class="edge"><title>Node10&#45;&gt;Node18</title>
<path fill="none" stroke="midnightblue" d="M831.636,-233.907C670.58,-206.725 625.279,-225.506 468,-198 465.073,-197.488 462.095,-196.926 459.094,-196.324"/>
<polygon fill="midnightblue" stroke="midnightblue" points="831.457,-237.428 841.906,-235.676 832.645,-230.529 831.457,-237.428"/>
</g>
<!-- Node20 -->
<g id="node20" class="node"><title>Node20</title>
<g id="a_node20"><a xlink:href="_world_8cpp.html" target="_top" xlink:title="E:/Dropbox/BI_FIT_CVUT\l/2. semestr/PA2/GameBook\l/World.cpp">
<polygon fill="none" stroke="black" points="793,-156.5 793,-197.5 933,-197.5 933,-156.5 793,-156.5"/>
<text text-anchor="start" x="801" y="-185.5" font-family="Helvetica,sans-Serif" font-size="10.00">E:/Dropbox/BI_FIT_CVUT</text>
<text text-anchor="start" x="801" y="-174.5" font-family="Helvetica,sans-Serif" font-size="10.00">/2. semestr/PA2/GameBook</text>
<text text-anchor="middle" x="863" y="-163.5" font-family="Helvetica,sans-Serif" font-size="10.00">/World.cpp</text>
</a>
</g>
</g>
<!-- Node10&#45;&gt;Node20 -->
<g id="edge22" class="edge"><title>Node10&#45;&gt;Node20</title>
<path fill="none" stroke="midnightblue" d="M893.791,-225.757C887.728,-216.354 881.115,-206.096 875.576,-197.506"/>
<polygon fill="midnightblue" stroke="midnightblue" points="891.021,-227.92 899.381,-234.428 896.904,-224.127 891.021,-227.92"/>
</g>
<!-- Node12 -->
<g id="node12" class="node"><title>Node12</title>
<g id="a_node12"><a xlink:href="_game_8cpp.html" target="_top" xlink:title="E:/Dropbox/BI_FIT_CVUT\l/2. semestr/PA2/GameBook\l/Game.cpp">
<polygon fill="none" stroke="black" points="556,-0.5 556,-41.5 696,-41.5 696,-0.5 556,-0.5"/>
<text text-anchor="start" x="564" y="-29.5" font-family="Helvetica,sans-Serif" font-size="10.00">E:/Dropbox/BI_FIT_CVUT</text>
<text text-anchor="start" x="564" y="-18.5" font-family="Helvetica,sans-Serif" font-size="10.00">/2. semestr/PA2/GameBook</text>
<text text-anchor="middle" x="626" y="-7.5" font-family="Helvetica,sans-Serif" font-size="10.00">/Game.cpp</text>
</a>
</g>
</g>
<!-- Node11&#45;&gt;Node12 -->
<g id="edge11" class="edge"><title>Node11&#45;&gt;Node12</title>
<path fill="none" stroke="midnightblue" d="M677.445,-71.4916C667.194,-61.6294 655.757,-50.6273 646.276,-41.5056"/>
<polygon fill="midnightblue" stroke="midnightblue" points="675.022,-74.0175 684.656,-78.4281 679.875,-68.9729 675.022,-74.0175"/>
</g>
<!-- Node13 -->
<g id="node13" class="node"><title>Node13</title>
<g id="a_node13"><a xlink:href="main_8cpp.html" target="_top" xlink:title="E:/Dropbox/BI_FIT_CVUT\l/2. semestr/PA2/GameBook\l/main.cpp">
<polygon fill="none" stroke="black" points="714,-0.5 714,-41.5 854,-41.5 854,-0.5 714,-0.5"/>
<text text-anchor="start" x="722" y="-29.5" font-family="Helvetica,sans-Serif" font-size="10.00">E:/Dropbox/BI_FIT_CVUT</text>
<text text-anchor="start" x="722" y="-18.5" font-family="Helvetica,sans-Serif" font-size="10.00">/2. semestr/PA2/GameBook</text>
<text text-anchor="middle" x="784" y="-7.5" font-family="Helvetica,sans-Serif" font-size="10.00">/main.cpp</text>
</a>
</g>
</g>
<!-- Node11&#45;&gt;Node13 -->
<g id="edge12" class="edge"><title>Node11&#45;&gt;Node13</title>
<path fill="none" stroke="midnightblue" d="M732.555,-71.4916C742.806,-61.6294 754.243,-50.6273 763.724,-41.5056"/>
<polygon fill="midnightblue" stroke="midnightblue" points="730.125,-68.9729 725.344,-78.4281 734.978,-74.0175 730.125,-68.9729"/>
</g>
<!-- Node14&#45;&gt;Node11 -->
<g id="edge14" class="edge"><title>Node14&#45;&gt;Node11</title>
<path fill="none" stroke="midnightblue" d="M596.794,-152.049C618.585,-141.566 643.828,-129.424 664.449,-119.506"/>
<polygon fill="midnightblue" stroke="midnightblue" points="595.183,-148.939 587.689,-156.428 598.218,-155.247 595.183,-148.939"/>
</g>
<!-- Node15 -->
<g id="node15" class="node"><title>Node15</title>
<g id="a_node15"><a xlink:href="_shopping_8cpp.html" target="_top" xlink:title="E:/Dropbox/BI_FIT_CVUT\l/2. semestr/PA2/GameBook\l/Shopping.cpp">
<polygon fill="none" stroke="black" points="477,-78.5 477,-119.5 617,-119.5 617,-78.5 477,-78.5"/>
<text text-anchor="start" x="485" y="-107.5" font-family="Helvetica,sans-Serif" font-size="10.00">E:/Dropbox/BI_FIT_CVUT</text>
<text text-anchor="start" x="485" y="-96.5" font-family="Helvetica,sans-Serif" font-size="10.00">/2. semestr/PA2/GameBook</text>
<text text-anchor="middle" x="547" y="-85.5" font-family="Helvetica,sans-Serif" font-size="10.00">/Shopping.cpp</text>
</a>
</g>
</g>
<!-- Node14&#45;&gt;Node15 -->
<g id="edge15" class="edge"><title>Node14&#45;&gt;Node15</title>
<path fill="none" stroke="midnightblue" d="M547,-146.297C547,-137.301 547,-127.653 547,-119.506"/>
<polygon fill="midnightblue" stroke="midnightblue" points="543.5,-146.428 547,-156.428 550.5,-146.428 543.5,-146.428"/>
</g>
<!-- Node16&#45;&gt;Node11 -->
<g id="edge17" class="edge"><title>Node16&#45;&gt;Node11</title>
<path fill="none" stroke="midnightblue" d="M705,-146.297C705,-137.301 705,-127.653 705,-119.506"/>
<polygon fill="midnightblue" stroke="midnightblue" points="701.5,-146.428 705,-156.428 708.5,-146.428 701.5,-146.428"/>
</g>
<!-- Node17 -->
<g id="node17" class="node"><title>Node17</title>
<g id="a_node17"><a xlink:href="_inventory_browser_8cpp.html" target="_top" xlink:title="E:/Dropbox/BI_FIT_CVUT\l/2. semestr/PA2/GameBook\l/InventoryBrowser.cpp">
<polygon fill="none" stroke="black" points="793,-78.5 793,-119.5 933,-119.5 933,-78.5 793,-78.5"/>
<text text-anchor="start" x="801" y="-107.5" font-family="Helvetica,sans-Serif" font-size="10.00">E:/Dropbox/BI_FIT_CVUT</text>
<text text-anchor="start" x="801" y="-96.5" font-family="Helvetica,sans-Serif" font-size="10.00">/2. semestr/PA2/GameBook</text>
<text text-anchor="middle" x="863" y="-85.5" font-family="Helvetica,sans-Serif" font-size="10.00">/InventoryBrowser.cpp</text>
</a>
</g>
</g>
<!-- Node16&#45;&gt;Node17 -->
<g id="edge18" class="edge"><title>Node16&#45;&gt;Node17</title>
<path fill="none" stroke="midnightblue" d="M754.794,-152.049C776.585,-141.566 801.828,-129.424 822.449,-119.506"/>
<polygon fill="midnightblue" stroke="midnightblue" points="753.183,-148.939 745.689,-156.428 756.218,-155.247 753.183,-148.939"/>
</g>
<!-- Node18&#45;&gt;Node11 -->
<g id="edge20" class="edge"><title>Node18&#45;&gt;Node11</title>
<path fill="none" stroke="midnightblue" d="M469.024,-155.781C539.664,-138.935 558.983,-136.116 626,-120 628.889,-119.305 631.835,-118.59 634.81,-117.862"/>
<polygon fill="midnightblue" stroke="midnightblue" points="468.099,-152.404 459.19,-158.138 469.73,-159.211 468.099,-152.404"/>
</g>
<!-- Node19 -->
<g id="node19" class="node"><title>Node19</title>
<g id="a_node19"><a xlink:href="_interact_8cpp.html" target="_top" xlink:title="E:/Dropbox/BI_FIT_CVUT\l/2. semestr/PA2/GameBook\l/Interact.cpp">
<polygon fill="none" stroke="black" points="319,-78.5 319,-119.5 459,-119.5 459,-78.5 319,-78.5"/>
<text text-anchor="start" x="327" y="-107.5" font-family="Helvetica,sans-Serif" font-size="10.00">E:/Dropbox/BI_FIT_CVUT</text>
<text text-anchor="start" x="327" y="-96.5" font-family="Helvetica,sans-Serif" font-size="10.00">/2. semestr/PA2/GameBook</text>
<text text-anchor="middle" x="389" y="-85.5" font-family="Helvetica,sans-Serif" font-size="10.00">/Interact.cpp</text>
</a>
</g>
</g>
<!-- Node18&#45;&gt;Node19 -->
<g id="edge21" class="edge"><title>Node18&#45;&gt;Node19</title>
<path fill="none" stroke="midnightblue" d="M389,-146.297C389,-137.301 389,-127.653 389,-119.506"/>
<polygon fill="midnightblue" stroke="midnightblue" points="385.5,-146.428 389,-156.428 392.5,-146.428 385.5,-146.428"/>
</g>
<!-- Node21&#45;&gt;Node10 -->
<g id="edge25" class="edge"><title>Node21&#45;&gt;Node10</title>
<path fill="none" stroke="midnightblue" d="M803.794,-308.049C825.585,-297.566 850.828,-285.424 871.449,-275.506"/>
<polygon fill="midnightblue" stroke="midnightblue" points="802.183,-304.939 794.689,-312.428 805.218,-311.247 802.183,-304.939"/>
</g>
<!-- Node22 -->
<g id="node22" class="node"><title>Node22</title>
<g id="a_node22"><a xlink:href="_dialogue_n_c_p_8cpp.html" target="_top" xlink:title="E:/Dropbox/BI_FIT_CVUT\l/2. semestr/PA2/GameBook\l/DialogueNCP.cpp">
<polygon fill="none" stroke="black" points="684,-234.5 684,-275.5 824,-275.5 824,-234.5 684,-234.5"/>
<text text-anchor="start" x="692" y="-263.5" font-family="Helvetica,sans-Serif" font-size="10.00">E:/Dropbox/BI_FIT_CVUT</text>
<text text-anchor="start" x="692" y="-252.5" font-family="Helvetica,sans-Serif" font-size="10.00">/2. semestr/PA2/GameBook</text>
<text text-anchor="middle" x="754" y="-241.5" font-family="Helvetica,sans-Serif" font-size="10.00">/DialogueNCP.cpp</text>
</a>
</g>
</g>
<!-- Node21&#45;&gt;Node22 -->
<g id="edge24" class="edge"><title>Node21&#45;&gt;Node22</title>
<path fill="none" stroke="midnightblue" d="M754,-302.297C754,-293.301 754,-283.653 754,-275.506"/>
<polygon fill="midnightblue" stroke="midnightblue" points="750.5,-302.428 754,-312.428 757.5,-302.428 750.5,-302.428"/>
</g>
<!-- Node24&#45;&gt;Node10 -->
<g id="edge29" class="edge"><title>Node24&#45;&gt;Node10</title>
<path fill="none" stroke="midnightblue" d="M1048.03,-308.748C1020.6,-298.11 988.455,-285.646 962.304,-275.506"/>
<polygon fill="midnightblue" stroke="midnightblue" points="1046.94,-312.076 1057.53,-312.428 1049.47,-305.55 1046.94,-312.076"/>
</g>
<!-- Node25 -->
<g id="node25" class="node"><title>Node25</title>
<g id="a_node25"><a xlink:href="_fight_8cpp.html" target="_top" xlink:title="E:/Dropbox/BI_FIT_CVUT\l/2. semestr/PA2/GameBook\l/Fight.cpp">
<polygon fill="none" stroke="black" points="1038,-234.5 1038,-275.5 1178,-275.5 1178,-234.5 1038,-234.5"/>
<text text-anchor="start" x="1046" y="-263.5" font-family="Helvetica,sans-Serif" font-size="10.00">E:/Dropbox/BI_FIT_CVUT</text>
<text text-anchor="start" x="1046" y="-252.5" font-family="Helvetica,sans-Serif" font-size="10.00">/2. semestr/PA2/GameBook</text>
<text text-anchor="middle" x="1108" y="-241.5" font-family="Helvetica,sans-Serif" font-size="10.00">/Fight.cpp</text>
</a>
</g>
</g>
<!-- Node24&#45;&gt;Node25 -->
<g id="edge28" class="edge"><title>Node24&#45;&gt;Node25</title>
<path fill="none" stroke="midnightblue" d="M1108,-302.297C1108,-293.301 1108,-283.653 1108,-275.506"/>
<polygon fill="midnightblue" stroke="midnightblue" points="1104.5,-302.428 1108,-312.428 1111.5,-302.428 1104.5,-302.428"/>
</g>
<!-- Node26&#45;&gt;Node10 -->
<g id="edge32" class="edge"><title>Node26&#45;&gt;Node10</title>
<path fill="none" stroke="midnightblue" d="M676.024,-311.781C746.664,-294.935 765.983,-292.116 833,-276 835.889,-275.305 838.835,-274.59 841.81,-273.862"/>
<polygon fill="midnightblue" stroke="midnightblue" points="675.099,-308.404 666.19,-314.138 676.73,-315.211 675.099,-308.404"/>
</g>
<!-- Node27 -->
<g id="node27" class="node"><title>Node27</title>
<g id="a_node27"><a xlink:href="_trap_8cpp.html" target="_top" xlink:title="E:/Dropbox/BI_FIT_CVUT\l/2. semestr/PA2/GameBook\l/Trap.cpp">
<polygon fill="none" stroke="black" points="526,-234.5 526,-275.5 666,-275.5 666,-234.5 526,-234.5"/>
<text text-anchor="start" x="534" y="-263.5" font-family="Helvetica,sans-Serif" font-size="10.00">E:/Dropbox/BI_FIT_CVUT</text>
<text text-anchor="start" x="534" y="-252.5" font-family="Helvetica,sans-Serif" font-size="10.00">/2. semestr/PA2/GameBook</text>
<text text-anchor="middle" x="596" y="-241.5" font-family="Helvetica,sans-Serif" font-size="10.00">/Trap.cpp</text>
</a>
</g>
</g>
<!-- Node26&#45;&gt;Node27 -->
<g id="edge33" class="edge"><title>Node26&#45;&gt;Node27</title>
<path fill="none" stroke="midnightblue" d="M596,-302.297C596,-293.301 596,-283.653 596,-275.506"/>
<polygon fill="midnightblue" stroke="midnightblue" points="592.5,-302.428 596,-312.428 599.5,-302.428 592.5,-302.428"/>
</g>
<!-- Node29&#45;&gt;Node6 -->
<g id="edge40" class="edge"><title>Node29&#45;&gt;Node6</title>
<path fill="none" stroke="midnightblue" d="M422.045,-540.635C436.466,-530.487 452.816,-518.982 466.282,-509.506"/>
<polygon fill="midnightblue" stroke="midnightblue" points="419.977,-537.811 413.813,-546.428 424.005,-543.535 419.977,-537.811"/>
</g>
<!-- Node29&#45;&gt;Node10 -->
<g id="edge41" class="edge"><title>Node29&#45;&gt;Node10</title>
<path fill="none" stroke="midnightblue" d="M386.505,-536.402C385.369,-515.21 380.616,-487.15 365,-468 339.846,-437.154 304.764,-465.324 283,-432 248.48,-379.144 301.805,-338.723 359,-312 454.705,-267.283 728.744,-293.026 833,-276 835.932,-275.521 838.915,-274.986 841.92,-274.408"/>
<polygon fill="midnightblue" stroke="midnightblue" points="383.009,-536.588 386.807,-546.479 390.006,-536.379 383.009,-536.588"/>
</g>
<!-- Node30 -->
<g id="node30" class="node"><title>Node30</title>
<g id="a_node30"><a xlink:href="_sword_8cpp.html" target="_top" xlink:title="E:/Dropbox/BI_FIT_CVUT\l/2. semestr/PA2/GameBook\l/Sword.cpp">
<polygon fill="none" stroke="black" points="216,-468.5 216,-509.5 356,-509.5 356,-468.5 216,-468.5"/>
<text text-anchor="start" x="224" y="-497.5" font-family="Helvetica,sans-Serif" font-size="10.00">E:/Dropbox/BI_FIT_CVUT</text>
<text text-anchor="start" x="224" y="-486.5" font-family="Helvetica,sans-Serif" font-size="10.00">/2. semestr/PA2/GameBook</text>
<text text-anchor="middle" x="286" y="-475.5" font-family="Helvetica,sans-Serif" font-size="10.00">/Sword.cpp</text>
</a>
</g>
</g>
<!-- Node29&#45;&gt;Node30 -->
<g id="edge42" class="edge"><title>Node29&#45;&gt;Node30</title>
<path fill="none" stroke="midnightblue" d="M352.25,-540.35C338.989,-530.272 324.017,-518.893 311.665,-509.506"/>
<polygon fill="midnightblue" stroke="midnightblue" points="350.168,-543.164 360.248,-546.428 354.404,-537.591 350.168,-543.164"/>
</g>
<!-- Node32&#45;&gt;Node6 -->
<g id="edge47" class="edge"><title>Node32&#45;&gt;Node6</title>
<path fill="none" stroke="midnightblue" d="M847.874,-546.781C846.574,-546.515 845.282,-546.255 844,-546 747.43,-526.806 634.854,-509.73 564.002,-499.621"/>
<polygon fill="midnightblue" stroke="midnightblue" points="847.453,-550.269 857.96,-548.908 848.897,-543.42 847.453,-550.269"/>
</g>
<!-- Node32&#45;&gt;Node24 -->
<g id="edge49" class="edge"><title>Node32&#45;&gt;Node24</title>
<path fill="none" stroke="midnightblue" d="M928.601,-536.208C930.202,-515.769 934.754,-488.706 947,-468 977.36,-416.666 1034.9,-376.11 1072.33,-353.59"/>
<polygon fill="midnightblue" stroke="midnightblue" points="925.105,-536.034 928.007,-546.224 932.093,-536.448 925.105,-536.034"/>
</g>
<!-- Node33 -->
<g id="node33" class="node"><title>Node33</title>
<g id="a_node33"><a xlink:href="_creature_8cpp.html" target="_top" xlink:title="E:/Dropbox/BI_FIT_CVUT\l/2. semestr/PA2/GameBook\l/Creature.cpp">
<polygon fill="none" stroke="black" points="956,-468.5 956,-509.5 1096,-509.5 1096,-468.5 956,-468.5"/>
<text text-anchor="start" x="964" y="-497.5" font-family="Helvetica,sans-Serif" font-size="10.00">E:/Dropbox/BI_FIT_CVUT</text>
<text text-anchor="start" x="964" y="-486.5" font-family="Helvetica,sans-Serif" font-size="10.00">/2. semestr/PA2/GameBook</text>
<text text-anchor="middle" x="1026" y="-475.5" font-family="Helvetica,sans-Serif" font-size="10.00">/Creature.cpp</text>
</a>
</g>
</g>
<!-- Node32&#45;&gt;Node33 -->
<g id="edge48" class="edge"><title>Node32&#45;&gt;Node33</title>
<path fill="none" stroke="midnightblue" d="M961.443,-540.065C974.347,-530.057 988.857,-518.804 1000.85,-509.506"/>
<polygon fill="midnightblue" stroke="midnightblue" points="958.995,-537.534 953.237,-546.428 963.285,-543.066 958.995,-537.534"/>
</g>
<!-- Node35&#45;&gt;Node6 -->
<g id="edge54" class="edge"><title>Node35&#45;&gt;Node6</title>
<path fill="none" stroke="midnightblue" d="M1223.72,-558.468C1065.12,-543.587 714.027,-510.645 564.091,-496.576"/>
<polygon fill="midnightblue" stroke="midnightblue" points="1223.6,-561.972 1233.89,-559.422 1224.26,-555.003 1223.6,-561.972"/>
</g>
<!-- Node35&#45;&gt;Node10 -->
<g id="edge55" class="edge"><title>Node35&#45;&gt;Node10</title>
<path fill="none" stroke="midnightblue" d="M1280.09,-538.156C1273.73,-529.582 1267.41,-519.807 1263,-510 1226.04,-427.882 1284.75,-374.584 1220,-312 1217.84,-309.917 1072.25,-284.087 982.038,-268.245"/>
<polygon fill="midnightblue" stroke="midnightblue" points="1277.5,-540.528 1286.4,-546.286 1283.04,-536.239 1277.5,-540.528"/>
</g>
<!-- Node36 -->
<g id="node36" class="node"><title>Node36</title>
<g id="a_node36"><a xlink:href="_stream_decoder_8cpp.html" target="_top" xlink:title="E:/Dropbox/BI_FIT_CVUT\l/2. semestr/PA2/GameBook\l/StreamDecoder.cpp">
<polygon fill="none" stroke="black" points="1272,-468.5 1272,-509.5 1412,-509.5 1412,-468.5 1272,-468.5"/>
<text text-anchor="start" x="1280" y="-497.5" font-family="Helvetica,sans-Serif" font-size="10.00">E:/Dropbox/BI_FIT_CVUT</text>
<text text-anchor="start" x="1280" y="-486.5" font-family="Helvetica,sans-Serif" font-size="10.00">/2. semestr/PA2/GameBook</text>
<text text-anchor="middle" x="1342" y="-475.5" font-family="Helvetica,sans-Serif" font-size="10.00">/StreamDecoder.cpp</text>
</a>
</g>
</g>
<!-- Node35&#45;&gt;Node36 -->
<g id="edge56" class="edge"><title>Node35&#45;&gt;Node36</title>
<path fill="none" stroke="midnightblue" d="M1318.27,-537.466C1322.93,-528.143 1328,-518.007 1332.25,-509.506"/>
<polygon fill="midnightblue" stroke="midnightblue" points="1315.13,-535.919 1313.79,-546.428 1321.39,-539.049 1315.13,-535.919"/>
</g>
<!-- Node37&#45;&gt;Node10 -->
<g id="edge58" class="edge"><title>Node37&#45;&gt;Node10</title>
<path fill="none" stroke="midnightblue" d="M1440,-691.91C1440,-660.868 1440,-611.049 1440,-568 1440,-568 1440,-568 1440,-410 1440,-217.87 1218.47,-307.839 1029,-276 1013.86,-273.456 997.623,-270.699 982.21,-268.068"/>
<polygon fill="midnightblue" stroke="midnightblue" points="1436.5,-692.065 1440,-702.065 1443.5,-692.065 1436.5,-692.065"/>
</g>
<!-- Node38 -->
<g id="node38" class="node"><title>Node38</title>
<g id="a_node38"><a xlink:href="_i_ohandle_8cpp.html" target="_top" xlink:title="E:/Dropbox/BI_FIT_CVUT\l/2. semestr/PA2/GameBook\l/IOhandle.cpp">
<polygon fill="none" stroke="black" points="1468,-624.5 1468,-665.5 1608,-665.5 1608,-624.5 1468,-624.5"/>
<text text-anchor="start" x="1476" y="-653.5" font-family="Helvetica,sans-Serif" font-size="10.00">E:/Dropbox/BI_FIT_CVUT</text>
<text text-anchor="start" x="1476" y="-642.5" font-family="Helvetica,sans-Serif" font-size="10.00">/2. semestr/PA2/GameBook</text>
<text text-anchor="middle" x="1538" y="-631.5" font-family="Helvetica,sans-Serif" font-size="10.00">/IOhandle.cpp</text>
</a>
</g>
</g>
<!-- Node37&#45;&gt;Node38 -->
<g id="edge59" class="edge"><title>Node37&#45;&gt;Node38</title>
<path fill="none" stroke="midnightblue" d="M1473.44,-696.065C1486.35,-686.057 1500.86,-674.804 1512.85,-665.506"/>
<polygon fill="midnightblue" stroke="midnightblue" points="1470.99,-693.534 1465.24,-702.428 1475.28,-699.066 1470.99,-693.534"/>
</g>
</g>
</svg>
