<?xml version="1.0" encoding="UTF-8" standalone="no"?>
<!DOCTYPE svg PUBLIC "-//W3C//DTD SVG 1.1//EN"
 "http://www.w3.org/Graphics/SVG/1.1/DTD/svg11.dtd">
<!-- Generated by graphviz version 2.38.0 (20140413.2041)
 -->
<!-- Title: E:/Dropbox/BI_FIT_CVUT/2. semestr/PA2/GameBook/Event.cpp Pages: 1 -->
<svg width="838pt" height="442pt"
 viewBox="0.00 0.00 838.00 442.00" xmlns="http://www.w3.org/2000/svg" xmlns:xlink="http://www.w3.org/1999/xlink">
<g id="graph0" class="graph" transform="scale(1 1) rotate(0) translate(4 438)">
<title>E:/Dropbox/BI_FIT_CVUT/2. semestr/PA2/GameBook/Event.cpp</title>
<!-- Node0 -->
<g id="node1" class="node"><title>Node0</title>
<polygon fill="#bfbfbf" stroke="black" points="339,-392.5 339,-433.5 479,-433.5 479,-392.5 339,-392.5"/>
<text text-anchor="start" x="347" y="-421.5" font-family="Helvetica,sans-Serif" font-size="10.00">E:/Dropbox/BI_FIT_CVUT</text>
<text text-anchor="start" x="347" y="-410.5" font-family="Helvetica,sans-Serif" font-size="10.00">/2. semestr/PA2/GameBook</text>
<text text-anchor="middle" x="409" y="-399.5" font-family="Helvetica,sans-Serif" font-size="10.00">/Event.cpp</text>
</g>
<!-- Node1 -->
<g id="node2" class="node"><title>Node1</title>
<g id="a_node2"><a xlink:href="_event_8h.html" target="_top" xlink:title="Event.h">
<polygon fill="none" stroke="black" points="384.5,-336.5 384.5,-355.5 433.5,-355.5 433.5,-336.5 384.5,-336.5"/>
<text text-anchor="middle" x="409" y="-343.5" font-family="Helvetica,sans-Serif" font-size="10.00">Event.h</text>
</a>
</g>
</g>
<!-- Node0&#45;&gt;Node1 -->
<g id="edge1" class="edge"><title>Node0&#45;&gt;Node1</title>
<path fill="none" stroke="midnightblue" d="M409,-392.498C409,-384.065 409,-374.235 409,-365.874"/>
<polygon fill="midnightblue" stroke="midnightblue" points="412.5,-365.652 409,-355.652 405.5,-365.653 412.5,-365.652"/>
</g>
<!-- Node2 -->
<g id="node3" class="node"><title>Node2</title>
<polygon fill="none" stroke="#bfbfbf" points="537.5,-0.5 537.5,-19.5 578.5,-19.5 578.5,-0.5 537.5,-0.5"/>
<text text-anchor="middle" x="558" y="-7.5" font-family="Helvetica,sans-Serif" font-size="10.00">string</text>
</g>
<!-- Node1&#45;&gt;Node2 -->
<g id="edge2" class="edge"><title>Node1&#45;&gt;Node2</title>
<path fill="none" stroke="midnightblue" d="M433.764,-343.907C524.008,-339.263 830,-317.437 830,-235 830,-235 830,-235 830,-121 830,-84.8221 811.614,-75.2778 781,-56 720.511,-17.9093 634.088,-11.1855 588.637,-10.5155"/>
<polygon fill="midnightblue" stroke="midnightblue" points="588.55,-7.01509 578.53,-10.4581 588.51,-14.015 588.55,-7.01509"/>
</g>
<!-- Node3 -->
<g id="node4" class="node"><title>Node3</title>
<polygon fill="none" stroke="#bfbfbf" points="362.5,-280.5 362.5,-299.5 397.5,-299.5 397.5,-280.5 362.5,-280.5"/>
<text text-anchor="middle" x="380" y="-287.5" font-family="Helvetica,sans-Serif" font-size="10.00">map</text>
</g>
<!-- Node1&#45;&gt;Node3 -->
<g id="edge3" class="edge"><title>Node1&#45;&gt;Node3</title>
<path fill="none" stroke="midnightblue" d="M404.211,-336.083C400.242,-328.691 394.475,-317.953 389.565,-308.811"/>
<polygon fill="midnightblue" stroke="midnightblue" points="392.514,-306.905 384.7,-299.751 386.347,-310.217 392.514,-306.905"/>
</g>
<!-- Node4 -->
<g id="node5" class="node"><title>Node4</title>
<g id="a_node5"><a xlink:href="_display_8h.html" target="_top" xlink:title="Display.h">
<polygon fill="none" stroke="black" points="132.5,-112.5 132.5,-131.5 189.5,-131.5 189.5,-112.5 132.5,-112.5"/>
<text text-anchor="middle" x="161" y="-119.5" font-family="Helvetica,sans-Serif" font-size="10.00">Display.h</text>
</a>
</g>
</g>
<!-- Node1&#45;&gt;Node4 -->
<g id="edge4" class="edge"><title>Node1&#45;&gt;Node4</title>
<path fill="none" stroke="midnightblue" d="M384.394,-340.457C338.696,-330.781 240.267,-303.938 184,-244 157.865,-216.16 157,-168.283 158.867,-141.87"/>
<polygon fill="midnightblue" stroke="midnightblue" points="162.373,-141.966 159.803,-131.688 155.402,-141.326 162.373,-141.966"/>
</g>
<!-- Node10 -->
<g id="node11" class="node"><title>Node10</title>
<g id="a_node11"><a xlink:href="_hero_8h.html" target="_top" xlink:title="Hero.h">
<polygon fill="none" stroke="black" points="415.5,-280.5 415.5,-299.5 460.5,-299.5 460.5,-280.5 415.5,-280.5"/>
<text text-anchor="middle" x="438" y="-287.5" font-family="Helvetica,sans-Serif" font-size="10.00">Hero.h</text>
</a>
</g>
</g>
<!-- Node1&#45;&gt;Node10 -->
<g id="edge14" class="edge"><title>Node1&#45;&gt;Node10</title>
<path fill="none" stroke="midnightblue" d="M413.789,-336.083C417.758,-328.691 423.525,-317.953 428.435,-308.811"/>
<polygon fill="midnightblue" stroke="midnightblue" points="431.653,-310.217 433.3,-299.751 425.486,-306.905 431.653,-310.217"/>
</g>
<!-- Node4&#45;&gt;Node2 -->
<g id="edge6" class="edge"><title>Node4&#45;&gt;Node2</title>
<path fill="none" stroke="midnightblue" d="M160.887,-112.235C161.222,-98.009 164.141,-70.0726 181,-56 233.197,-12.4307 446.088,-9.85924 526.788,-10.5031"/>
<polygon fill="midnightblue" stroke="midnightblue" points="527.231,-14.0078 537.267,-10.6114 527.304,-7.00816 527.231,-14.0078"/>
</g>
<!-- Node5 -->
<g id="node6" class="node"><title>Node5</title>
<polygon fill="none" stroke="#bfbfbf" points="122,-0.5 122,-19.5 164,-19.5 164,-0.5 122,-0.5"/>
<text text-anchor="middle" x="143" y="-7.5" font-family="Helvetica,sans-Serif" font-size="10.00">vector</text>
</g>
<!-- Node4&#45;&gt;Node5 -->
<g id="edge5" class="edge"><title>Node4&#45;&gt;Node5</title>
<path fill="none" stroke="midnightblue" d="M157.978,-112.497C154.928,-103.54 150.346,-88.9633 148,-76 145.226,-60.6672 143.989,-43.0272 143.439,-29.996"/>
<polygon fill="midnightblue" stroke="midnightblue" points="146.934,-29.7853 143.111,-19.9045 139.938,-30.013 146.934,-29.7853"/>
</g>
<!-- Node6 -->
<g id="node7" class="node"><title>Node6</title>
<polygon fill="none" stroke="#bfbfbf" points="190,-56.5 190,-75.5 244,-75.5 244,-56.5 190,-56.5"/>
<text text-anchor="middle" x="217" y="-63.5" font-family="Helvetica,sans-Serif" font-size="10.00">iostream</text>
</g>
<!-- Node4&#45;&gt;Node6 -->
<g id="edge7" class="edge"><title>Node4&#45;&gt;Node6</title>
<path fill="none" stroke="midnightblue" d="M169.997,-112.324C178.194,-104.42 190.506,-92.5482 200.472,-82.9377"/>
<polygon fill="midnightblue" stroke="midnightblue" points="203.07,-85.2947 207.839,-75.8339 198.211,-80.2558 203.07,-85.2947"/>
</g>
<!-- Node7 -->
<g id="node8" class="node"><title>Node7</title>
<g id="a_node8"><a xlink:href="_actions_list_8h.html" target="_top" xlink:title="ActionsList.h">
<polygon fill="none" stroke="black" points="0,-0.5 0,-19.5 74,-19.5 74,-0.5 0,-0.5"/>
<text text-anchor="middle" x="37" y="-7.5" font-family="Helvetica,sans-Serif" font-size="10.00">ActionsList.h</text>
</a>
</g>
</g>
<!-- Node4&#45;&gt;Node7 -->
<g id="edge8" class="edge"><title>Node4&#45;&gt;Node7</title>
<path fill="none" stroke="midnightblue" d="M132.316,-116.76C92.063,-110.157 22.0363,-96.0588 7,-76 -4.34166,-60.8699 8.39311,-40.766 20.5929,-26.9439"/>
<polygon fill="midnightblue" stroke="midnightblue" points="23.1959,-29.2854 27.528,-19.6167 18.112,-24.4735 23.1959,-29.2854"/>
</g>
<!-- Node8 -->
<g id="node9" class="node"><title>Node8</title>
<g id="a_node9"><a xlink:href="_errors_list_8h.html" target="_top" xlink:title="ErrorsList.h">
<polygon fill="none" stroke="black" points="300.5,-56.5 300.5,-75.5 367.5,-75.5 367.5,-56.5 300.5,-56.5"/>
<text text-anchor="middle" x="334" y="-63.5" font-family="Helvetica,sans-Serif" font-size="10.00">ErrorsList.h</text>
</a>
</g>
</g>
<!-- Node4&#45;&gt;Node8 -->
<g id="edge9" class="edge"><title>Node4&#45;&gt;Node8</title>
<path fill="none" stroke="midnightblue" d="M188.412,-112.444C217.769,-103.28 264.519,-88.6876 297.096,-78.5192"/>
<polygon fill="midnightblue" stroke="midnightblue" points="298.213,-81.8371 306.716,-75.5164 296.127,-75.1551 298.213,-81.8371"/>
</g>
<!-- Node9 -->
<g id="node10" class="node"><title>Node9</title>
<g id="a_node10"><a xlink:href="_game_menus_8h.html" target="_top" xlink:title="GameMenus.h">
<polygon fill="none" stroke="black" points="16,-56.5 16,-75.5 96,-75.5 96,-56.5 16,-56.5"/>
<text text-anchor="middle" x="56" y="-63.5" font-family="Helvetica,sans-Serif" font-size="10.00">GameMenus.h</text>
</a>
</g>
</g>
<!-- Node4&#45;&gt;Node9 -->
<g id="edge10" class="edge"><title>Node4&#45;&gt;Node9</title>
<path fill="none" stroke="midnightblue" d="M144.13,-112.324C127.291,-103.664 101.193,-90.2424 81.762,-80.249"/>
<polygon fill="midnightblue" stroke="midnightblue" points="83.3218,-77.1155 72.8282,-75.6545 80.1204,-83.3405 83.3218,-77.1155"/>
</g>
<!-- Node9&#45;&gt;Node2 -->
<g id="edge11" class="edge"><title>Node9&#45;&gt;Node2</title>
<path fill="none" stroke="midnightblue" d="M96.2322,-60.6722C193.723,-50.1852 440.925,-23.5937 527.492,-14.2817"/>
<polygon fill="midnightblue" stroke="midnightblue" points="527.895,-17.7587 537.463,-13.2091 527.146,-10.7988 527.895,-17.7587"/>
</g>
<!-- Node9&#45;&gt;Node5 -->
<g id="edge12" class="edge"><title>Node9&#45;&gt;Node5</title>
<path fill="none" stroke="midnightblue" d="M69.9781,-56.324C83.5496,-47.9002 104.38,-34.9709 120.325,-25.0741"/>
<polygon fill="midnightblue" stroke="midnightblue" points="122.406,-27.9019 129.057,-19.6545 118.714,-21.9544 122.406,-27.9019"/>
</g>
<!-- Node9&#45;&gt;Node7 -->
<g id="edge13" class="edge"><title>Node9&#45;&gt;Node7</title>
<path fill="none" stroke="midnightblue" d="M52.8625,-56.083C50.3171,-48.8486 46.6438,-38.4087 43.4729,-29.3968"/>
<polygon fill="midnightblue" stroke="midnightblue" points="46.6998,-28.0225 40.0791,-19.7511 40.0966,-30.3459 46.6998,-28.0225"/>
</g>
<!-- Node10&#45;&gt;Node2 -->
<g id="edge16" class="edge"><title>Node10&#45;&gt;Node2</title>
<path fill="none" stroke="midnightblue" d="M460.683,-286.927C538.814,-279.172 792,-248.667 792,-179 792,-179 792,-179 792,-121 792,-32.3111 652.627,-14.9978 589.005,-11.7147"/>
<polygon fill="midnightblue" stroke="midnightblue" points="588.907,-8.20737 578.766,-11.2747 588.606,-15.2009 588.907,-8.20737"/>
</g>
<!-- Node10&#45;&gt;Node4 -->
<g id="edge26" class="edge"><title>Node10&#45;&gt;Node4</title>
<path fill="none" stroke="midnightblue" d="M415.345,-282.333C412.218,-281.499 409.038,-280.696 406,-280 317.112,-259.631 273.58,-302.947 204,-244 173.339,-218.025 164.537,-168.641 162.013,-141.69"/>
<polygon fill="midnightblue" stroke="midnightblue" points="165.498,-141.362 161.27,-131.647 158.517,-141.878 165.498,-141.362"/>
</g>
<!-- Node10&#45;&gt;Node6 -->
<g id="edge15" class="edge"><title>Node10&#45;&gt;Node6</title>
<path fill="none" stroke="midnightblue" d="M415.293,-282.541C412.174,-281.675 409.01,-280.807 406,-280 343.531,-263.243 315.349,-284.596 265,-244 216.914,-205.229 214.143,-123.57 215.621,-86.2925"/>
<polygon fill="midnightblue" stroke="midnightblue" points="219.141,-86.0377 216.199,-75.8596 212.152,-85.651 219.141,-86.0377"/>
</g>
<!-- Node10&#45;&gt;Node8 -->
<g id="edge25" class="edge"><title>Node10&#45;&gt;Node8</title>
<path fill="none" stroke="midnightblue" d="M433.923,-280.297C418.523,-247.425 363.697,-130.391 342.475,-85.0904"/>
<polygon fill="midnightblue" stroke="midnightblue" points="345.574,-83.4545 338.162,-75.8837 339.235,-86.4241 345.574,-83.4545"/>
</g>
<!-- Node11 -->
<g id="node12" class="node"><title>Node11</title>
<polygon fill="none" stroke="#bfbfbf" points="284,-224.5 284,-243.5 334,-243.5 334,-224.5 284,-224.5"/>
<text text-anchor="middle" x="309" y="-231.5" font-family="Helvetica,sans-Serif" font-size="10.00">typeinfo</text>
</g>
<!-- Node10&#45;&gt;Node11 -->
<g id="edge17" class="edge"><title>Node10&#45;&gt;Node11</title>
<path fill="none" stroke="midnightblue" d="M417.56,-280.444C396.33,-271.557 362.901,-257.563 338.745,-247.451"/>
<polygon fill="midnightblue" stroke="midnightblue" points="339.921,-244.149 329.345,-243.516 337.218,-250.606 339.921,-244.149"/>
</g>
<!-- Node12 -->
<g id="node13" class="node"><title>Node12</title>
<g id="a_node13"><a xlink:href="_creature_8h.html" target="_top" xlink:title="Creature.h">
<polygon fill="none" stroke="black" points="246,-168.5 246,-187.5 308,-187.5 308,-168.5 246,-168.5"/>
<text text-anchor="middle" x="277" y="-175.5" font-family="Helvetica,sans-Serif" font-size="10.00">Creature.h</text>
</a>
</g>
</g>
<!-- Node10&#45;&gt;Node12 -->
<g id="edge18" class="edge"><title>Node10&#45;&gt;Node12</title>
<path fill="none" stroke="midnightblue" d="M415.279,-282.592C412.162,-281.718 409.003,-280.835 406,-280 347.826,-263.826 311.604,-292.02 275,-244 264.965,-230.835 267.081,-211.427 270.721,-197.247"/>
<polygon fill="midnightblue" stroke="midnightblue" points="274.09,-198.197 273.626,-187.612 267.388,-196.176 274.09,-198.197"/>
</g>
<!-- Node13 -->
<g id="node14" class="node"><title>Node13</title>
<g id="a_node14"><a xlink:href="_inventory_8h.html" target="_top" xlink:title="Inventory.h">
<polygon fill="none" stroke="black" points="376.5,-112.5 376.5,-131.5 439.5,-131.5 439.5,-112.5 376.5,-112.5"/>
<text text-anchor="middle" x="408" y="-119.5" font-family="Helvetica,sans-Serif" font-size="10.00">Inventory.h</text>
</a>
</g>
</g>
<!-- Node10&#45;&gt;Node13 -->
<g id="edge21" class="edge"><title>Node10&#45;&gt;Node13</title>
<path fill="none" stroke="midnightblue" d="M434.875,-280.49C431.698,-271.527 426.848,-256.945 424,-244 416.136,-208.253 411.6,-165.657 409.481,-141.73"/>
<polygon fill="midnightblue" stroke="midnightblue" points="412.955,-141.268 408.631,-131.595 405.979,-141.853 412.955,-141.268"/>
</g>
<!-- Node15 -->
<g id="node16" class="node"><title>Node15</title>
<g id="a_node16"><a xlink:href="_armour_8h.html" target="_top" xlink:title="Armour.h">
<polygon fill="none" stroke="black" points="536,-224.5 536,-243.5 592,-243.5 592,-224.5 536,-224.5"/>
<text text-anchor="middle" x="564" y="-231.5" font-family="Helvetica,sans-Serif" font-size="10.00">Armour.h</text>
</a>
</g>
</g>
<!-- Node10&#45;&gt;Node15 -->
<g id="edge27" class="edge"><title>Node10&#45;&gt;Node15</title>
<path fill="none" stroke="midnightblue" d="M457.965,-280.444C478.609,-271.596 511.063,-257.687 534.632,-247.586"/>
<polygon fill="midnightblue" stroke="midnightblue" points="536.316,-250.673 544.128,-243.516 533.558,-244.239 536.316,-250.673"/>
</g>
<!-- Node16 -->
<g id="node17" class="node"><title>Node16</title>
<g id="a_node17"><a xlink:href="_item_8h.html" target="_top" xlink:title="Item.h">
<polygon fill="none" stroke="black" points="549,-168.5 549,-187.5 593,-187.5 593,-168.5 549,-168.5"/>
<text text-anchor="middle" x="571" y="-175.5" font-family="Helvetica,sans-Serif" font-size="10.00">Item.h</text>
</a>
</g>
</g>
<!-- Node10&#45;&gt;Node16 -->
<g id="edge37" class="edge"><title>Node10&#45;&gt;Node16</title>
<path fill="none" stroke="midnightblue" d="M460.585,-286.129C501.209,-280.451 583.972,-266.365 601,-244 612.454,-228.955 599.698,-208.835 587.463,-194.986"/>
<polygon fill="midnightblue" stroke="midnightblue" points="589.924,-192.495 580.506,-187.642 584.842,-197.309 589.924,-192.495"/>
</g>
<!-- Node17 -->
<g id="node18" class="node"><title>Node17</title>
<g id="a_node18"><a xlink:href="_equipment_8h.html" target="_top" xlink:title="Equipment.h">
<polygon fill="none" stroke="black" points="606.5,-112.5 606.5,-131.5 677.5,-131.5 677.5,-112.5 606.5,-112.5"/>
<text text-anchor="middle" x="642" y="-119.5" font-family="Helvetica,sans-Serif" font-size="10.00">Equipment.h</text>
</a>
</g>
</g>
<!-- Node10&#45;&gt;Node17 -->
<g id="edge38" class="edge"><title>Node10&#45;&gt;Node17</title>
<path fill="none" stroke="midnightblue" d="M460.769,-286.342C504.194,-280.804 596.456,-266.63 618,-244 644.369,-216.301 645.629,-168.369 643.978,-141.908"/>
<polygon fill="midnightblue" stroke="midnightblue" points="647.446,-141.381 643.126,-131.707 640.471,-141.964 647.446,-141.381"/>
</g>
<!-- Node18 -->
<g id="node19" class="node"><title>Node18</title>
<g id="a_node19"><a xlink:href="_hero_stats_8h.html" target="_top" xlink:title="HeroStats.h">
<polygon fill="none" stroke="black" points="696,-112.5 696,-131.5 764,-131.5 764,-112.5 696,-112.5"/>
<text text-anchor="middle" x="730" y="-119.5" font-family="Helvetica,sans-Serif" font-size="10.00">HeroStats.h</text>
</a>
</g>
</g>
<!-- Node10&#45;&gt;Node18 -->
<g id="edge39" class="edge"><title>Node10&#45;&gt;Node18</title>
<path fill="none" stroke="midnightblue" d="M460.741,-288.888C500.155,-287.673 582.363,-280.551 639,-244 679.163,-218.08 708.187,-167.924 721.629,-141.046"/>
<polygon fill="midnightblue" stroke="midnightblue" points="724.953,-142.211 726.148,-131.684 718.649,-139.168 724.953,-142.211"/>
</g>
<!-- Node19 -->
<g id="node20" class="node"><title>Node19</title>
<g id="a_node20"><a xlink:href="_sword_8h.html" target="_top" xlink:title="Sword.h">
<polygon fill="none" stroke="black" points="466,-224.5 466,-243.5 518,-243.5 518,-224.5 466,-224.5"/>
<text text-anchor="middle" x="492" y="-231.5" font-family="Helvetica,sans-Serif" font-size="10.00">Sword.h</text>
</a>
</g>
</g>
<!-- Node10&#45;&gt;Node19 -->
<g id="edge35" class="edge"><title>Node10&#45;&gt;Node19</title>
<path fill="none" stroke="midnightblue" d="M446.917,-280.083C454.78,-272.22 466.431,-260.569 475.919,-251.081"/>
<polygon fill="midnightblue" stroke="midnightblue" points="478.653,-253.297 483.249,-243.751 473.703,-248.347 478.653,-253.297"/>
</g>
<!-- Node20 -->
<g id="node21" class="node"><title>Node20</title>
<g id="a_node21"><a xlink:href="_stream_decoder_8h.html" target="_top" xlink:title="StreamDecoder.h">
<polygon fill="none" stroke="black" points="458,-112.5 458,-131.5 550,-131.5 550,-112.5 458,-112.5"/>
<text text-anchor="middle" x="504" y="-119.5" font-family="Helvetica,sans-Serif" font-size="10.00">StreamDecoder.h</text>
</a>
</g>
</g>
<!-- Node10&#45;&gt;Node20 -->
<g id="edge40" class="edge"><title>Node10&#45;&gt;Node20</title>
<path fill="none" stroke="midnightblue" d="M440.058,-280.452C443.181,-267.895 449.546,-243.806 457,-224 468.254,-194.097 484.556,-160.727 494.704,-140.818"/>
<polygon fill="midnightblue" stroke="midnightblue" points="497.921,-142.216 499.391,-131.724 491.699,-139.01 497.921,-142.216"/>
</g>
<!-- Node12&#45;&gt;Node2 -->
<g id="edge19" class="edge"><title>Node12&#45;&gt;Node2</title>
<path fill="none" stroke="midnightblue" d="M274.891,-168.25C270.129,-146.117 261.15,-87.4374 291,-56 322.898,-22.4057 463.947,-13.8663 527.166,-11.7152"/>
<polygon fill="midnightblue" stroke="midnightblue" points="527.432,-15.2087 537.32,-11.4024 527.217,-8.21205 527.432,-15.2087"/>
</g>
<!-- Node12&#45;&gt;Node4 -->
<g id="edge20" class="edge"><title>Node12&#45;&gt;Node4</title>
<path fill="none" stroke="midnightblue" d="M258.619,-168.444C239.784,-159.675 210.269,-145.935 188.621,-135.858"/>
<polygon fill="midnightblue" stroke="midnightblue" points="189.838,-132.564 179.295,-131.516 186.883,-138.91 189.838,-132.564"/>
</g>
<!-- Node13&#45;&gt;Node2 -->
<g id="edge24" class="edge"><title>Node13&#45;&gt;Node2</title>
<path fill="none" stroke="midnightblue" d="M412.036,-112.259C418.753,-98.5674 433.444,-71.9791 453,-56 474.975,-38.0445 505.187,-26.1026 527.564,-19.0613"/>
<polygon fill="midnightblue" stroke="midnightblue" points="528.659,-22.387 537.236,-16.167 526.652,-15.6809 528.659,-22.387"/>
</g>
<!-- Node13&#45;&gt;Node5 -->
<g id="edge23" class="edge"><title>Node13&#45;&gt;Node5</title>
<path fill="none" stroke="midnightblue" d="M406.302,-112.262C403.062,-98.0769 394.596,-70.1967 376,-56 344.698,-32.1024 230.204,-18.8014 174.23,-13.5978"/>
<polygon fill="midnightblue" stroke="midnightblue" points="174.448,-10.1034 164.175,-12.6919 173.82,-17.0752 174.448,-10.1034"/>
</g>
<!-- Node14 -->
<g id="node15" class="node"><title>Node14</title>
<polygon fill="none" stroke="#bfbfbf" points="462,-56.5 462,-75.5 492,-75.5 492,-56.5 462,-56.5"/>
<text text-anchor="middle" x="477" y="-63.5" font-family="Helvetica,sans-Serif" font-size="10.00">set</text>
</g>
<!-- Node13&#45;&gt;Node14 -->
<g id="edge22" class="edge"><title>Node13&#45;&gt;Node14</title>
<path fill="none" stroke="midnightblue" d="M419.086,-112.324C429.486,-104.185 445.261,-91.8395 457.722,-82.0874"/>
<polygon fill="midnightblue" stroke="midnightblue" points="459.994,-84.7533 465.712,-75.8339 455.68,-79.2407 459.994,-84.7533"/>
</g>
<!-- Node15&#45;&gt;Node16 -->
<g id="edge28" class="edge"><title>Node15&#45;&gt;Node16</title>
<path fill="none" stroke="midnightblue" d="M565.156,-224.083C566.084,-216.927 567.418,-206.635 568.577,-197.691"/>
<polygon fill="midnightblue" stroke="midnightblue" points="572.051,-198.118 569.866,-187.751 565.109,-197.218 572.051,-198.118"/>
</g>
<!-- Node16&#45;&gt;Node2 -->
<g id="edge30" class="edge"><title>Node16&#45;&gt;Node2</title>
<path fill="none" stroke="midnightblue" d="M572.846,-168.214C575.981,-154.927 583.374,-129.425 597,-112 617.553,-85.7158 664.478,-84.422 647,-56 634.353,-35.4342 609.078,-23.9214 588.684,-17.7011"/>
<polygon fill="midnightblue" stroke="midnightblue" points="589.421,-14.2736 578.85,-14.9834 587.556,-21.0207 589.421,-14.2736"/>
</g>
<!-- Node16&#45;&gt;Node4 -->
<g id="edge31" class="edge"><title>Node16&#45;&gt;Node4</title>
<path fill="none" stroke="midnightblue" d="M548.957,-174.097C482.534,-165.348 283.713,-139.162 199.435,-128.062"/>
<polygon fill="midnightblue" stroke="midnightblue" points="199.876,-124.59 189.505,-126.754 198.962,-131.53 199.876,-124.59"/>
</g>
<!-- Node16&#45;&gt;Node6 -->
<g id="edge29" class="edge"><title>Node16&#45;&gt;Node6</title>
<path fill="none" stroke="midnightblue" d="M548.895,-173.556C511.058,-167.346 431.699,-152.94 367,-132 322.361,-117.553 272.824,-94.6595 243.329,-80.2527"/>
<polygon fill="midnightblue" stroke="midnightblue" points="244.648,-77.0005 234.131,-75.7167 241.552,-83.2786 244.648,-77.0005"/>
</g>
<!-- Node16&#45;&gt;Node17 -->
<g id="edge32" class="edge"><title>Node16&#45;&gt;Node17</title>
<path fill="none" stroke="midnightblue" d="M582.407,-168.324C593.109,-160.185 609.341,-147.839 622.163,-138.087"/>
<polygon fill="midnightblue" stroke="midnightblue" points="624.544,-140.673 630.385,-131.834 620.307,-135.102 624.544,-140.673"/>
</g>
<!-- Node16&#45;&gt;Node18 -->
<g id="edge33" class="edge"><title>Node16&#45;&gt;Node18</title>
<path fill="none" stroke="midnightblue" d="M593.108,-169.492C619.595,-160.496 664.281,-145.32 695.364,-134.763"/>
<polygon fill="midnightblue" stroke="midnightblue" points="696.594,-138.042 704.938,-131.512 694.343,-131.414 696.594,-138.042"/>
</g>
<!-- Node18&#45;&gt;Node2 -->
<g id="edge34" class="edge"><title>Node18&#45;&gt;Node2</title>
<path fill="none" stroke="midnightblue" d="M725.367,-112.151C717.7,-98.3108 701.102,-71.523 680,-56 652.387,-35.6873 614.609,-23.6395 588.44,-17.1984"/>
<polygon fill="midnightblue" stroke="midnightblue" points="589.216,-13.7857 578.683,-14.9235 587.627,-20.6028 589.216,-13.7857"/>
</g>
<!-- Node19&#45;&gt;Node16 -->
<g id="edge36" class="edge"><title>Node19&#45;&gt;Node16</title>
<path fill="none" stroke="midnightblue" d="M504.693,-224.324C516.901,-215.979 535.578,-203.212 550.003,-193.352"/>
<polygon fill="midnightblue" stroke="midnightblue" points="552.058,-196.187 558.339,-187.655 548.108,-190.408 552.058,-196.187"/>
</g>
<!-- Node20&#45;&gt;Node2 -->
<g id="edge41" class="edge"><title>Node20&#45;&gt;Node2</title>
<path fill="none" stroke="midnightblue" d="M510.617,-112.41C517.17,-103.619 527.185,-89.3883 534,-76 541.674,-60.9245 548.159,-42.7978 552.446,-29.521"/>
<polygon fill="midnightblue" stroke="midnightblue" points="555.878,-30.2711 555.507,-19.6827 549.194,-28.1911 555.878,-30.2711"/>
</g>
<!-- Node20&#45;&gt;Node5 -->
<g id="edge43" class="edge"><title>Node20&#45;&gt;Node5</title>
<path fill="none" stroke="midnightblue" d="M506.769,-112.09C510.485,-98.1664 515.107,-71.2663 501,-56 478.931,-32.1166 257.126,-17.3715 174.127,-12.6535"/>
<polygon fill="midnightblue" stroke="midnightblue" points="174.221,-9.15339 164.042,-12.091 173.831,-16.1425 174.221,-9.15339"/>
</g>
<!-- Node20&#45;&gt;Node8 -->
<g id="edge45" class="edge"><title>Node20&#45;&gt;Node8</title>
<path fill="none" stroke="midnightblue" d="M477.063,-112.444C448.34,-103.32 402.671,-88.8133 370.679,-78.6509"/>
<polygon fill="midnightblue" stroke="midnightblue" points="371.401,-75.2081 360.811,-75.5164 369.282,-81.8797 371.401,-75.2081"/>
</g>
<!-- Node20&#45;&gt;Node14 -->
<g id="edge44" class="edge"><title>Node20&#45;&gt;Node14</title>
<path fill="none" stroke="midnightblue" d="M499.541,-112.083C495.846,-104.691 490.477,-93.9533 485.906,-84.8111"/>
<polygon fill="midnightblue" stroke="midnightblue" points="488.978,-83.1301 481.376,-75.7511 482.717,-86.2606 488.978,-83.1301"/>
</g>
<!-- Node21 -->
<g id="node22" class="node"><title>Node21</title>
<polygon fill="none" stroke="#bfbfbf" points="586,-56.5 586,-75.5 638,-75.5 638,-56.5 586,-56.5"/>
<text text-anchor="middle" x="612" y="-63.5" font-family="Helvetica,sans-Serif" font-size="10.00">sstream</text>
</g>
<!-- Node20&#45;&gt;Node21 -->
<g id="edge42" class="edge"><title>Node20&#45;&gt;Node21</title>
<path fill="none" stroke="midnightblue" d="M521.352,-112.324C538.672,-103.664 565.515,-90.2424 585.502,-80.249"/>
<polygon fill="midnightblue" stroke="midnightblue" points="587.312,-83.2572 594.691,-75.6545 584.181,-76.9962 587.312,-83.2572"/>
</g>
</g>
</svg>
