<?xml version="1.0" encoding="UTF-8" standalone="no"?>
<!DOCTYPE svg PUBLIC "-//W3C//DTD SVG 1.1//EN"
 "http://www.w3.org/Graphics/SVG/1.1/DTD/svg11.dtd">
<!-- Generated by graphviz version 2.38.0 (20140413.2041)
 -->
<!-- Title: E:/Dropbox/BI_FIT_CVUT/2. semestr/PA2/GameBook/Event.h Pages: 1 -->
<svg width="878pt" height="440pt"
 viewBox="0.00 0.00 878.00 440.00" xmlns="http://www.w3.org/2000/svg" xmlns:xlink="http://www.w3.org/1999/xlink">
<g id="graph0" class="graph" transform="scale(1 1) rotate(0) translate(4 436)">
<title>E:/Dropbox/BI_FIT_CVUT/2. semestr/PA2/GameBook/Event.h</title>
<!-- Node21 -->
<g id="node1" class="node"><title>Node21</title>
<polygon fill="#bfbfbf" stroke="black" points="365,-390.5 365,-431.5 505,-431.5 505,-390.5 365,-390.5"/>
<text text-anchor="start" x="373" y="-419.5" font-family="Helvetica,sans-Serif" font-size="10.00">E:/Dropbox/BI_FIT_CVUT</text>
<text text-anchor="start" x="373" y="-408.5" font-family="Helvetica,sans-Serif" font-size="10.00">/2. semestr/PA2/GameBook</text>
<text text-anchor="middle" x="435" y="-397.5" font-family="Helvetica,sans-Serif" font-size="10.00">/Event.h</text>
</g>
<!-- Node22 -->
<g id="node2" class="node"><title>Node22</title>
<g id="a_node2"><a xlink:href="_choice_8h.html" target="_top" xlink:title="E:/Dropbox/BI_FIT_CVUT\l/2. semestr/PA2/GameBook\l/Choice.h">
<polygon fill="none" stroke="black" points="60,-312.5 60,-353.5 200,-353.5 200,-312.5 60,-312.5"/>
<text text-anchor="start" x="68" y="-341.5" font-family="Helvetica,sans-Serif" font-size="10.00">E:/Dropbox/BI_FIT_CVUT</text>
<text text-anchor="start" x="68" y="-330.5" font-family="Helvetica,sans-Serif" font-size="10.00">/2. semestr/PA2/GameBook</text>
<text text-anchor="middle" x="130" y="-319.5" font-family="Helvetica,sans-Serif" font-size="10.00">/Choice.h</text>
</a>
</g>
</g>
<!-- Node21&#45;&gt;Node22 -->
<g id="edge1" class="edge"><title>Node21&#45;&gt;Node22</title>
<path fill="none" stroke="midnightblue" d="M355.088,-390.303C311.832,-379.615 257.473,-366.141 209,-354 206.118,-353.278 203.177,-352.54 200.207,-351.793"/>
<polygon fill="midnightblue" stroke="midnightblue" points="354.439,-393.748 364.987,-392.748 356.118,-386.952 354.439,-393.748"/>
</g>
<!-- Node24 -->
<g id="node4" class="node"><title>Node24</title>
<g id="a_node4"><a xlink:href="_world_8h.html" target="_top" xlink:title="E:/Dropbox/BI_FIT_CVUT\l/2. semestr/PA2/GameBook\l/World.h">
<polygon fill="none" stroke="black" points="316,-234.5 316,-275.5 456,-275.5 456,-234.5 316,-234.5"/>
<text text-anchor="start" x="324" y="-263.5" font-family="Helvetica,sans-Serif" font-size="10.00">E:/Dropbox/BI_FIT_CVUT</text>
<text text-anchor="start" x="324" y="-252.5" font-family="Helvetica,sans-Serif" font-size="10.00">/2. semestr/PA2/GameBook</text>
<text text-anchor="middle" x="386" y="-241.5" font-family="Helvetica,sans-Serif" font-size="10.00">/World.h</text>
</a>
</g>
</g>
<!-- Node21&#45;&gt;Node24 -->
<g id="edge24" class="edge"><title>Node21&#45;&gt;Node24</title>
<path fill="none" stroke="midnightblue" d="M417.648,-381.578C412.979,-372.963 408.311,-363.311 405,-354 395.651,-327.71 390.547,-295.727 388.045,-275.61"/>
<polygon fill="midnightblue" stroke="midnightblue" points="414.692,-383.461 422.652,-390.454 420.79,-380.024 414.692,-383.461"/>
</g>
<!-- Node35 -->
<g id="node15" class="node"><title>Node35</title>
<g id="a_node15"><a xlink:href="_dialogue_n_c_p_8h.html" target="_top" xlink:title="E:/Dropbox/BI_FIT_CVUT\l/2. semestr/PA2/GameBook\l/DialogueNCP.h">
<polygon fill="none" stroke="black" points="218,-312.5 218,-353.5 358,-353.5 358,-312.5 218,-312.5"/>
<text text-anchor="start" x="226" y="-341.5" font-family="Helvetica,sans-Serif" font-size="10.00">E:/Dropbox/BI_FIT_CVUT</text>
<text text-anchor="start" x="226" y="-330.5" font-family="Helvetica,sans-Serif" font-size="10.00">/2. semestr/PA2/GameBook</text>
<text text-anchor="middle" x="288" y="-319.5" font-family="Helvetica,sans-Serif" font-size="10.00">/DialogueNCP.h</text>
</a>
</g>
</g>
<!-- Node21&#45;&gt;Node35 -->
<g id="edge17" class="edge"><title>Node21&#45;&gt;Node35</title>
<path fill="none" stroke="midnightblue" d="M388.129,-385.768C367.979,-375.35 344.742,-363.336 325.728,-353.506"/>
<polygon fill="midnightblue" stroke="midnightblue" points="386.653,-388.945 397.144,-390.428 389.868,-382.726 386.653,-388.945"/>
</g>
<!-- Node37 -->
<g id="node17" class="node"><title>Node37</title>
<g id="a_node17"><a xlink:href="_event_8cpp.html" target="_top" xlink:title="E:/Dropbox/BI_FIT_CVUT\l/2. semestr/PA2/GameBook\l/Event.cpp">
<polygon fill="none" stroke="black" points="730,-312.5 730,-353.5 870,-353.5 870,-312.5 730,-312.5"/>
<text text-anchor="start" x="738" y="-341.5" font-family="Helvetica,sans-Serif" font-size="10.00">E:/Dropbox/BI_FIT_CVUT</text>
<text text-anchor="start" x="738" y="-330.5" font-family="Helvetica,sans-Serif" font-size="10.00">/2. semestr/PA2/GameBook</text>
<text text-anchor="middle" x="800" y="-319.5" font-family="Helvetica,sans-Serif" font-size="10.00">/Event.cpp</text>
</a>
</g>
</g>
<!-- Node21&#45;&gt;Node37 -->
<g id="edge20" class="edge"><title>Node21&#45;&gt;Node37</title>
<path fill="none" stroke="midnightblue" d="M515.267,-395.496C572.728,-384.817 651.84,-369.513 721,-354 723.899,-353.35 726.854,-352.672 729.836,-351.974"/>
<polygon fill="midnightblue" stroke="midnightblue" points="514.353,-392.106 505.157,-397.368 515.628,-398.988 514.353,-392.106"/>
</g>
<!-- Node38 -->
<g id="node18" class="node"><title>Node38</title>
<g id="a_node18"><a xlink:href="_fight_8h.html" target="_top" xlink:title="E:/Dropbox/BI_FIT_CVUT\l/2. semestr/PA2/GameBook\l/Fight.h">
<polygon fill="none" stroke="black" points="414,-312.5 414,-353.5 554,-353.5 554,-312.5 414,-312.5"/>
<text text-anchor="start" x="422" y="-341.5" font-family="Helvetica,sans-Serif" font-size="10.00">E:/Dropbox/BI_FIT_CVUT</text>
<text text-anchor="start" x="422" y="-330.5" font-family="Helvetica,sans-Serif" font-size="10.00">/2. semestr/PA2/GameBook</text>
<text text-anchor="middle" x="484" y="-319.5" font-family="Helvetica,sans-Serif" font-size="10.00">/Fight.h</text>
</a>
</g>
</g>
<!-- Node21&#45;&gt;Node38 -->
<g id="edge21" class="edge"><title>Node21&#45;&gt;Node38</title>
<path fill="none" stroke="midnightblue" d="M453.209,-381.757C459.272,-372.354 465.885,-362.096 471.424,-353.506"/>
<polygon fill="midnightblue" stroke="midnightblue" points="450.096,-380.127 447.619,-390.428 455.979,-383.92 450.096,-380.127"/>
</g>
<!-- Node40 -->
<g id="node20" class="node"><title>Node40</title>
<g id="a_node20"><a xlink:href="_trap_8h.html" target="_top" xlink:title="E:/Dropbox/BI_FIT_CVUT\l/2. semestr/PA2/GameBook\l/Trap.h">
<polygon fill="none" stroke="black" points="572,-312.5 572,-353.5 712,-353.5 712,-312.5 572,-312.5"/>
<text text-anchor="start" x="580" y="-341.5" font-family="Helvetica,sans-Serif" font-size="10.00">E:/Dropbox/BI_FIT_CVUT</text>
<text text-anchor="start" x="580" y="-330.5" font-family="Helvetica,sans-Serif" font-size="10.00">/2. semestr/PA2/GameBook</text>
<text text-anchor="middle" x="642" y="-319.5" font-family="Helvetica,sans-Serif" font-size="10.00">/Trap.h</text>
</a>
</g>
</g>
<!-- Node21&#45;&gt;Node40 -->
<g id="edge25" class="edge"><title>Node21&#45;&gt;Node40</title>
<path fill="none" stroke="midnightblue" d="M497.952,-386.887C527.01,-376.219 561.134,-363.69 588.873,-353.506"/>
<polygon fill="midnightblue" stroke="midnightblue" points="496.489,-383.696 488.308,-390.428 498.901,-390.267 496.489,-383.696"/>
</g>
<!-- Node23 -->
<g id="node3" class="node"><title>Node23</title>
<g id="a_node3"><a xlink:href="_choice_8cpp.html" target="_top" xlink:title="E:/Dropbox/BI_FIT_CVUT\l/2. semestr/PA2/GameBook\l/Choice.cpp">
<polygon fill="none" stroke="black" points="0,-234.5 0,-275.5 140,-275.5 140,-234.5 0,-234.5"/>
<text text-anchor="start" x="8" y="-263.5" font-family="Helvetica,sans-Serif" font-size="10.00">E:/Dropbox/BI_FIT_CVUT</text>
<text text-anchor="start" x="8" y="-252.5" font-family="Helvetica,sans-Serif" font-size="10.00">/2. semestr/PA2/GameBook</text>
<text text-anchor="middle" x="70" y="-241.5" font-family="Helvetica,sans-Serif" font-size="10.00">/Choice.cpp</text>
</a>
</g>
</g>
<!-- Node22&#45;&gt;Node23 -->
<g id="edge2" class="edge"><title>Node22&#45;&gt;Node23</title>
<path fill="none" stroke="midnightblue" d="M108.161,-304.338C100.614,-294.778 92.3209,-284.273 85.3991,-275.506"/>
<polygon fill="midnightblue" stroke="midnightblue" points="105.605,-306.748 114.549,-312.428 111.099,-302.41 105.605,-306.748"/>
</g>
<!-- Node22&#45;&gt;Node24 -->
<g id="edge3" class="edge"><title>Node22&#45;&gt;Node24</title>
<path fill="none" stroke="midnightblue" d="M205.518,-309.58C241.952,-298.764 285.246,-285.911 320.297,-275.506"/>
<polygon fill="midnightblue" stroke="midnightblue" points="204.517,-306.227 195.926,-312.428 206.509,-312.937 204.517,-306.227"/>
</g>
<!-- Node25 -->
<g id="node5" class="node"><title>Node25</title>
<g id="a_node5"><a xlink:href="_game_8h.html" target="_top" xlink:title="E:/Dropbox/BI_FIT_CVUT\l/2. semestr/PA2/GameBook\l/Game.h">
<polygon fill="none" stroke="black" points="218,-78.5 218,-119.5 358,-119.5 358,-78.5 218,-78.5"/>
<text text-anchor="start" x="226" y="-107.5" font-family="Helvetica,sans-Serif" font-size="10.00">E:/Dropbox/BI_FIT_CVUT</text>
<text text-anchor="start" x="226" y="-96.5" font-family="Helvetica,sans-Serif" font-size="10.00">/2. semestr/PA2/GameBook</text>
<text text-anchor="middle" x="288" y="-85.5" font-family="Helvetica,sans-Serif" font-size="10.00">/Game.h</text>
</a>
</g>
</g>
<!-- Node24&#45;&gt;Node25 -->
<g id="edge4" class="edge"><title>Node24&#45;&gt;Node25</title>
<path fill="none" stroke="midnightblue" d="M337.834,-228.582C326.136,-220.288 314.772,-210.051 307,-198 291.595,-174.115 288.13,-140.613 287.629,-119.619"/>
<polygon fill="midnightblue" stroke="midnightblue" points="336.104,-231.636 346.365,-234.277 339.991,-225.814 336.104,-231.636"/>
</g>
<!-- Node28 -->
<g id="node8" class="node"><title>Node28</title>
<g id="a_node8"><a xlink:href="_shopping_8h.html" target="_top" xlink:title="E:/Dropbox/BI_FIT_CVUT\l/2. semestr/PA2/GameBook\l/Shopping.h">
<polygon fill="none" stroke="black" points="120,-156.5 120,-197.5 260,-197.5 260,-156.5 120,-156.5"/>
<text text-anchor="start" x="128" y="-185.5" font-family="Helvetica,sans-Serif" font-size="10.00">E:/Dropbox/BI_FIT_CVUT</text>
<text text-anchor="start" x="128" y="-174.5" font-family="Helvetica,sans-Serif" font-size="10.00">/2. semestr/PA2/GameBook</text>
<text text-anchor="middle" x="190" y="-163.5" font-family="Helvetica,sans-Serif" font-size="10.00">/Shopping.h</text>
</a>
</g>
</g>
<!-- Node24&#45;&gt;Node28 -->
<g id="edge7" class="edge"><title>Node24&#45;&gt;Node28</title>
<path fill="none" stroke="midnightblue" d="M326.035,-230.748C298.599,-220.11 266.455,-207.646 240.304,-197.506"/>
<polygon fill="midnightblue" stroke="midnightblue" points="324.936,-234.076 335.525,-234.428 327.467,-227.55 324.936,-234.076"/>
</g>
<!-- Node30 -->
<g id="node10" class="node"><title>Node30</title>
<g id="a_node10"><a xlink:href="_inventory_browser_8h.html" target="_top" xlink:title="E:/Dropbox/BI_FIT_CVUT\l/2. semestr/PA2/GameBook\l/InventoryBrowser.h">
<polygon fill="none" stroke="black" points="316,-156.5 316,-197.5 456,-197.5 456,-156.5 316,-156.5"/>
<text text-anchor="start" x="324" y="-185.5" font-family="Helvetica,sans-Serif" font-size="10.00">E:/Dropbox/BI_FIT_CVUT</text>
<text text-anchor="start" x="324" y="-174.5" font-family="Helvetica,sans-Serif" font-size="10.00">/2. semestr/PA2/GameBook</text>
<text text-anchor="middle" x="386" y="-163.5" font-family="Helvetica,sans-Serif" font-size="10.00">/InventoryBrowser.h</text>
</a>
</g>
</g>
<!-- Node24&#45;&gt;Node30 -->
<g id="edge10" class="edge"><title>Node24&#45;&gt;Node30</title>
<path fill="none" stroke="midnightblue" d="M386,-224.297C386,-215.301 386,-205.653 386,-197.506"/>
<polygon fill="midnightblue" stroke="midnightblue" points="382.5,-224.428 386,-234.428 389.5,-224.428 382.5,-224.428"/>
</g>
<!-- Node32 -->
<g id="node12" class="node"><title>Node32</title>
<g id="a_node12"><a xlink:href="_interact_8h.html" target="_top" xlink:title="E:/Dropbox/BI_FIT_CVUT\l/2. semestr/PA2/GameBook\l/Interact.h">
<polygon fill="none" stroke="black" points="474,-156.5 474,-197.5 614,-197.5 614,-156.5 474,-156.5"/>
<text text-anchor="start" x="482" y="-185.5" font-family="Helvetica,sans-Serif" font-size="10.00">E:/Dropbox/BI_FIT_CVUT</text>
<text text-anchor="start" x="482" y="-174.5" font-family="Helvetica,sans-Serif" font-size="10.00">/2. semestr/PA2/GameBook</text>
<text text-anchor="middle" x="544" y="-163.5" font-family="Helvetica,sans-Serif" font-size="10.00">/Interact.h</text>
</a>
</g>
</g>
<!-- Node24&#45;&gt;Node32 -->
<g id="edge13" class="edge"><title>Node24&#45;&gt;Node32</title>
<path fill="none" stroke="midnightblue" d="M435.794,-230.049C457.585,-219.566 482.828,-207.424 503.449,-197.506"/>
<polygon fill="midnightblue" stroke="midnightblue" points="434.183,-226.939 426.689,-234.428 437.218,-233.247 434.183,-226.939"/>
</g>
<!-- Node34 -->
<g id="node14" class="node"><title>Node34</title>
<g id="a_node14"><a xlink:href="_world_8cpp.html" target="_top" xlink:title="E:/Dropbox/BI_FIT_CVUT\l/2. semestr/PA2/GameBook\l/World.cpp">
<polygon fill="none" stroke="black" points="632,-156.5 632,-197.5 772,-197.5 772,-156.5 632,-156.5"/>
<text text-anchor="start" x="640" y="-185.5" font-family="Helvetica,sans-Serif" font-size="10.00">E:/Dropbox/BI_FIT_CVUT</text>
<text text-anchor="start" x="640" y="-174.5" font-family="Helvetica,sans-Serif" font-size="10.00">/2. semestr/PA2/GameBook</text>
<text text-anchor="middle" x="702" y="-163.5" font-family="Helvetica,sans-Serif" font-size="10.00">/World.cpp</text>
</a>
</g>
</g>
<!-- Node24&#45;&gt;Node34 -->
<g id="edge16" class="edge"><title>Node24&#45;&gt;Node34</title>
<path fill="none" stroke="midnightblue" d="M466.024,-233.781C536.664,-216.935 555.983,-214.116 623,-198 625.889,-197.305 628.835,-196.59 631.81,-195.862"/>
<polygon fill="midnightblue" stroke="midnightblue" points="465.099,-230.404 456.19,-236.138 466.73,-237.211 465.099,-230.404"/>
</g>
<!-- Node26 -->
<g id="node6" class="node"><title>Node26</title>
<g id="a_node6"><a xlink:href="_game_8cpp.html" target="_top" xlink:title="E:/Dropbox/BI_FIT_CVUT\l/2. semestr/PA2/GameBook\l/Game.cpp">
<polygon fill="none" stroke="black" points="139,-0.5 139,-41.5 279,-41.5 279,-0.5 139,-0.5"/>
<text text-anchor="start" x="147" y="-29.5" font-family="Helvetica,sans-Serif" font-size="10.00">E:/Dropbox/BI_FIT_CVUT</text>
<text text-anchor="start" x="147" y="-18.5" font-family="Helvetica,sans-Serif" font-size="10.00">/2. semestr/PA2/GameBook</text>
<text text-anchor="middle" x="209" y="-7.5" font-family="Helvetica,sans-Serif" font-size="10.00">/Game.cpp</text>
</a>
</g>
</g>
<!-- Node25&#45;&gt;Node26 -->
<g id="edge5" class="edge"><title>Node25&#45;&gt;Node26</title>
<path fill="none" stroke="midnightblue" d="M260.445,-71.4916C250.194,-61.6294 238.757,-50.6273 229.276,-41.5056"/>
<polygon fill="midnightblue" stroke="midnightblue" points="258.022,-74.0175 267.656,-78.4281 262.875,-68.9729 258.022,-74.0175"/>
</g>
<!-- Node27 -->
<g id="node7" class="node"><title>Node27</title>
<g id="a_node7"><a xlink:href="main_8cpp.html" target="_top" xlink:title="E:/Dropbox/BI_FIT_CVUT\l/2. semestr/PA2/GameBook\l/main.cpp">
<polygon fill="none" stroke="black" points="297,-0.5 297,-41.5 437,-41.5 437,-0.5 297,-0.5"/>
<text text-anchor="start" x="305" y="-29.5" font-family="Helvetica,sans-Serif" font-size="10.00">E:/Dropbox/BI_FIT_CVUT</text>
<text text-anchor="start" x="305" y="-18.5" font-family="Helvetica,sans-Serif" font-size="10.00">/2. semestr/PA2/GameBook</text>
<text text-anchor="middle" x="367" y="-7.5" font-family="Helvetica,sans-Serif" font-size="10.00">/main.cpp</text>
</a>
</g>
</g>
<!-- Node25&#45;&gt;Node27 -->
<g id="edge6" class="edge"><title>Node25&#45;&gt;Node27</title>
<path fill="none" stroke="midnightblue" d="M315.555,-71.4916C325.806,-61.6294 337.243,-50.6273 346.724,-41.5056"/>
<polygon fill="midnightblue" stroke="midnightblue" points="313.125,-68.9729 308.344,-78.4281 317.978,-74.0175 313.125,-68.9729"/>
</g>
<!-- Node28&#45;&gt;Node25 -->
<g id="edge8" class="edge"><title>Node28&#45;&gt;Node25</title>
<path fill="none" stroke="midnightblue" d="M223.443,-150.065C236.347,-140.057 250.857,-128.804 262.848,-119.506"/>
<polygon fill="midnightblue" stroke="midnightblue" points="220.995,-147.534 215.237,-156.428 225.285,-153.066 220.995,-147.534"/>
</g>
<!-- Node29 -->
<g id="node9" class="node"><title>Node29</title>
<g id="a_node9"><a xlink:href="_shopping_8cpp.html" target="_top" xlink:title="E:/Dropbox/BI_FIT_CVUT\l/2. semestr/PA2/GameBook\l/Shopping.cpp">
<polygon fill="none" stroke="black" points="60,-78.5 60,-119.5 200,-119.5 200,-78.5 60,-78.5"/>
<text text-anchor="start" x="68" y="-107.5" font-family="Helvetica,sans-Serif" font-size="10.00">E:/Dropbox/BI_FIT_CVUT</text>
<text text-anchor="start" x="68" y="-96.5" font-family="Helvetica,sans-Serif" font-size="10.00">/2. semestr/PA2/GameBook</text>
<text text-anchor="middle" x="130" y="-85.5" font-family="Helvetica,sans-Serif" font-size="10.00">/Shopping.cpp</text>
</a>
</g>
</g>
<!-- Node28&#45;&gt;Node29 -->
<g id="edge9" class="edge"><title>Node28&#45;&gt;Node29</title>
<path fill="none" stroke="midnightblue" d="M168.161,-148.338C160.614,-138.778 152.321,-128.273 145.399,-119.506"/>
<polygon fill="midnightblue" stroke="midnightblue" points="165.605,-150.748 174.549,-156.428 171.099,-146.41 165.605,-150.748"/>
</g>
<!-- Node30&#45;&gt;Node25 -->
<g id="edge11" class="edge"><title>Node30&#45;&gt;Node25</title>
<path fill="none" stroke="midnightblue" d="M352.557,-150.065C339.653,-140.057 325.143,-128.804 313.152,-119.506"/>
<polygon fill="midnightblue" stroke="midnightblue" points="350.715,-153.066 360.763,-156.428 355.005,-147.534 350.715,-153.066"/>
</g>
<!-- Node31 -->
<g id="node11" class="node"><title>Node31</title>
<g id="a_node11"><a xlink:href="_inventory_browser_8cpp.html" target="_top" xlink:title="E:/Dropbox/BI_FIT_CVUT\l/2. semestr/PA2/GameBook\l/InventoryBrowser.cpp">
<polygon fill="none" stroke="black" points="376,-78.5 376,-119.5 516,-119.5 516,-78.5 376,-78.5"/>
<text text-anchor="start" x="384" y="-107.5" font-family="Helvetica,sans-Serif" font-size="10.00">E:/Dropbox/BI_FIT_CVUT</text>
<text text-anchor="start" x="384" y="-96.5" font-family="Helvetica,sans-Serif" font-size="10.00">/2. semestr/PA2/GameBook</text>
<text text-anchor="middle" x="446" y="-85.5" font-family="Helvetica,sans-Serif" font-size="10.00">/InventoryBrowser.cpp</text>
</a>
</g>
</g>
<!-- Node30&#45;&gt;Node31 -->
<g id="edge12" class="edge"><title>Node30&#45;&gt;Node31</title>
<path fill="none" stroke="midnightblue" d="M407.839,-148.338C415.386,-138.778 423.679,-128.273 430.601,-119.506"/>
<polygon fill="midnightblue" stroke="midnightblue" points="404.901,-146.41 401.451,-156.428 410.395,-150.748 404.901,-146.41"/>
</g>
<!-- Node32&#45;&gt;Node25 -->
<g id="edge14" class="edge"><title>Node32&#45;&gt;Node25</title>
<path fill="none" stroke="midnightblue" d="M468.482,-153.58C432.048,-142.764 388.754,-129.911 353.703,-119.506"/>
<polygon fill="midnightblue" stroke="midnightblue" points="467.491,-156.937 478.074,-156.428 469.483,-150.227 467.491,-156.937"/>
</g>
<!-- Node33 -->
<g id="node13" class="node"><title>Node33</title>
<g id="a_node13"><a xlink:href="_interact_8cpp.html" target="_top" xlink:title="E:/Dropbox/BI_FIT_CVUT\l/2. semestr/PA2/GameBook\l/Interact.cpp">
<polygon fill="none" stroke="black" points="534,-78.5 534,-119.5 674,-119.5 674,-78.5 534,-78.5"/>
<text text-anchor="start" x="542" y="-107.5" font-family="Helvetica,sans-Serif" font-size="10.00">E:/Dropbox/BI_FIT_CVUT</text>
<text text-anchor="start" x="542" y="-96.5" font-family="Helvetica,sans-Serif" font-size="10.00">/2. semestr/PA2/GameBook</text>
<text text-anchor="middle" x="604" y="-85.5" font-family="Helvetica,sans-Serif" font-size="10.00">/Interact.cpp</text>
</a>
</g>
</g>
<!-- Node32&#45;&gt;Node33 -->
<g id="edge15" class="edge"><title>Node32&#45;&gt;Node33</title>
<path fill="none" stroke="midnightblue" d="M565.839,-148.338C573.386,-138.778 581.679,-128.273 588.601,-119.506"/>
<polygon fill="midnightblue" stroke="midnightblue" points="562.901,-146.41 559.451,-156.428 568.395,-150.748 562.901,-146.41"/>
</g>
<!-- Node35&#45;&gt;Node24 -->
<g id="edge19" class="edge"><title>Node35&#45;&gt;Node24</title>
<path fill="none" stroke="midnightblue" d="M321.443,-306.065C334.347,-296.057 348.857,-284.804 360.848,-275.506"/>
<polygon fill="midnightblue" stroke="midnightblue" points="318.995,-303.534 313.237,-312.428 323.285,-309.066 318.995,-303.534"/>
</g>
<!-- Node36 -->
<g id="node16" class="node"><title>Node36</title>
<g id="a_node16"><a xlink:href="_dialogue_n_c_p_8cpp.html" target="_top" xlink:title="E:/Dropbox/BI_FIT_CVUT\l/2. semestr/PA2/GameBook\l/DialogueNCP.cpp">
<polygon fill="none" stroke="black" points="158,-234.5 158,-275.5 298,-275.5 298,-234.5 158,-234.5"/>
<text text-anchor="start" x="166" y="-263.5" font-family="Helvetica,sans-Serif" font-size="10.00">E:/Dropbox/BI_FIT_CVUT</text>
<text text-anchor="start" x="166" y="-252.5" font-family="Helvetica,sans-Serif" font-size="10.00">/2. semestr/PA2/GameBook</text>
<text text-anchor="middle" x="228" y="-241.5" font-family="Helvetica,sans-Serif" font-size="10.00">/DialogueNCP.cpp</text>
</a>
</g>
</g>
<!-- Node35&#45;&gt;Node36 -->
<g id="edge18" class="edge"><title>Node35&#45;&gt;Node36</title>
<path fill="none" stroke="midnightblue" d="M266.161,-304.338C258.614,-294.778 250.321,-284.273 243.399,-275.506"/>
<polygon fill="midnightblue" stroke="midnightblue" points="263.605,-306.748 272.549,-312.428 269.099,-302.41 263.605,-306.748"/>
</g>
<!-- Node38&#45;&gt;Node24 -->
<g id="edge23" class="edge"><title>Node38&#45;&gt;Node24</title>
<path fill="none" stroke="midnightblue" d="M450.557,-306.065C437.653,-296.057 423.143,-284.804 411.152,-275.506"/>
<polygon fill="midnightblue" stroke="midnightblue" points="448.715,-309.066 458.763,-312.428 453.005,-303.534 448.715,-309.066"/>
</g>
<!-- Node39 -->
<g id="node19" class="node"><title>Node39</title>
<g id="a_node19"><a xlink:href="_fight_8cpp.html" target="_top" xlink:title="E:/Dropbox/BI_FIT_CVUT\l/2. semestr/PA2/GameBook\l/Fight.cpp">
<polygon fill="none" stroke="black" points="474,-234.5 474,-275.5 614,-275.5 614,-234.5 474,-234.5"/>
<text text-anchor="start" x="482" y="-263.5" font-family="Helvetica,sans-Serif" font-size="10.00">E:/Dropbox/BI_FIT_CVUT</text>
<text text-anchor="start" x="482" y="-252.5" font-family="Helvetica,sans-Serif" font-size="10.00">/2. semestr/PA2/GameBook</text>
<text text-anchor="middle" x="544" y="-241.5" font-family="Helvetica,sans-Serif" font-size="10.00">/Fight.cpp</text>
</a>
</g>
</g>
<!-- Node38&#45;&gt;Node39 -->
<g id="edge22" class="edge"><title>Node38&#45;&gt;Node39</title>
<path fill="none" stroke="midnightblue" d="M505.839,-304.338C513.386,-294.778 521.679,-284.273 528.601,-275.506"/>
<polygon fill="midnightblue" stroke="midnightblue" points="502.901,-302.41 499.451,-312.428 508.395,-306.748 502.901,-302.41"/>
</g>
<!-- Node40&#45;&gt;Node24 -->
<g id="edge26" class="edge"><title>Node40&#45;&gt;Node24</title>
<path fill="none" stroke="midnightblue" d="M566.482,-309.58C530.048,-298.764 486.754,-285.911 451.703,-275.506"/>
<polygon fill="midnightblue" stroke="midnightblue" points="565.491,-312.937 576.074,-312.428 567.483,-306.227 565.491,-312.937"/>
</g>
<!-- Node41 -->
<g id="node21" class="node"><title>Node41</title>
<g id="a_node21"><a xlink:href="_trap_8cpp.html" target="_top" xlink:title="E:/Dropbox/BI_FIT_CVUT\l/2. semestr/PA2/GameBook\l/Trap.cpp">
<polygon fill="none" stroke="black" points="632,-234.5 632,-275.5 772,-275.5 772,-234.5 632,-234.5"/>
<text text-anchor="start" x="640" y="-263.5" font-family="Helvetica,sans-Serif" font-size="10.00">E:/Dropbox/BI_FIT_CVUT</text>
<text text-anchor="start" x="640" y="-252.5" font-family="Helvetica,sans-Serif" font-size="10.00">/2. semestr/PA2/GameBook</text>
<text text-anchor="middle" x="702" y="-241.5" font-family="Helvetica,sans-Serif" font-size="10.00">/Trap.cpp</text>
</a>
</g>
</g>
<!-- Node40&#45;&gt;Node41 -->
<g id="edge27" class="edge"><title>Node40&#45;&gt;Node41</title>
<path fill="none" stroke="midnightblue" d="M663.839,-304.338C671.386,-294.778 679.679,-284.273 686.601,-275.506"/>
<polygon fill="midnightblue" stroke="midnightblue" points="660.901,-302.41 657.451,-312.428 666.395,-306.748 660.901,-302.41"/>
</g>
</g>
</svg>
