<?xml version="1.0" encoding="UTF-8" standalone="no"?>
<!DOCTYPE svg PUBLIC "-//W3C//DTD SVG 1.1//EN"
 "http://www.w3.org/Graphics/SVG/1.1/DTD/svg11.dtd">
<!-- Generated by graphviz version 2.38.0 (20140413.2041)
 -->
<!-- Title: E:/Dropbox/BI_FIT_CVUT/2. semestr/PA2/GameBook/Fight.cpp Pages: 1 -->
<svg width="851pt" height="498pt"
 viewBox="0.00 0.00 851.00 498.00" xmlns="http://www.w3.org/2000/svg" xmlns:xlink="http://www.w3.org/1999/xlink">
<g id="graph0" class="graph" transform="scale(1 1) rotate(0) translate(4 494)">
<title>E:/Dropbox/BI_FIT_CVUT/2. semestr/PA2/GameBook/Fight.cpp</title>
<!-- Node0 -->
<g id="node1" class="node"><title>Node0</title>
<polygon fill="#bfbfbf" stroke="black" points="699,-448.5 699,-489.5 839,-489.5 839,-448.5 699,-448.5"/>
<text text-anchor="start" x="707" y="-477.5" font-family="Helvetica,sans-Serif" font-size="10.00">E:/Dropbox/BI_FIT_CVUT</text>
<text text-anchor="start" x="707" y="-466.5" font-family="Helvetica,sans-Serif" font-size="10.00">/2. semestr/PA2/GameBook</text>
<text text-anchor="middle" x="769" y="-455.5" font-family="Helvetica,sans-Serif" font-size="10.00">/Fight.cpp</text>
</g>
<!-- Node1 -->
<g id="node2" class="node"><title>Node1</title>
<g id="a_node2"><a xlink:href="_fight_8h.html" target="_top" xlink:title="Fight.h">
<polygon fill="none" stroke="black" points="745.5,-392.5 745.5,-411.5 792.5,-411.5 792.5,-392.5 745.5,-392.5"/>
<text text-anchor="middle" x="769" y="-399.5" font-family="Helvetica,sans-Serif" font-size="10.00">Fight.h</text>
</a>
</g>
</g>
<!-- Node0&#45;&gt;Node1 -->
<g id="edge1" class="edge"><title>Node0&#45;&gt;Node1</title>
<path fill="none" stroke="midnightblue" d="M769,-448.498C769,-440.065 769,-430.235 769,-421.874"/>
<polygon fill="midnightblue" stroke="midnightblue" points="772.5,-421.652 769,-411.652 765.5,-421.653 772.5,-421.652"/>
</g>
<!-- Node2 -->
<g id="node3" class="node"><title>Node2</title>
<g id="a_node3"><a xlink:href="_creature_8h.html" target="_top" xlink:title="Creature.h">
<polygon fill="none" stroke="black" points="711,-168.5 711,-187.5 773,-187.5 773,-168.5 711,-168.5"/>
<text text-anchor="middle" x="742" y="-175.5" font-family="Helvetica,sans-Serif" font-size="10.00">Creature.h</text>
</a>
</g>
</g>
<!-- Node1&#45;&gt;Node2 -->
<g id="edge2" class="edge"><title>Node1&#45;&gt;Node2</title>
<path fill="none" stroke="midnightblue" d="M767.942,-392.297C763.969,-359.633 749.889,-243.866 744.306,-197.957"/>
<polygon fill="midnightblue" stroke="midnightblue" points="747.762,-197.388 743.08,-187.884 740.813,-198.233 747.762,-197.388"/>
</g>
<!-- Node9 -->
<g id="node10" class="node"><title>Node9</title>
<g id="a_node10"><a xlink:href="_game_menus_8h.html" target="_top" xlink:title="GameMenus.h">
<polygon fill="none" stroke="black" points="732,-56.5 732,-75.5 812,-75.5 812,-56.5 732,-56.5"/>
<text text-anchor="middle" x="772" y="-63.5" font-family="Helvetica,sans-Serif" font-size="10.00">GameMenus.h</text>
</a>
</g>
</g>
<!-- Node1&#45;&gt;Node9 -->
<g id="edge48" class="edge"><title>Node1&#45;&gt;Node9</title>
<path fill="none" stroke="midnightblue" d="M774.284,-392.231C784.725,-374.043 807,-330.601 807,-291 807,-291 807,-291 807,-177 807,-143.072 791.693,-105.911 781.325,-84.631"/>
<polygon fill="midnightblue" stroke="midnightblue" points="784.362,-82.8822 776.72,-75.544 778.118,-86.0463 784.362,-82.8822"/>
</g>
<!-- Node10 -->
<g id="node11" class="node"><title>Node10</title>
<g id="a_node11"><a xlink:href="_event_8h.html" target="_top" xlink:title="Event.h">
<polygon fill="none" stroke="black" points="652.5,-336.5 652.5,-355.5 701.5,-355.5 701.5,-336.5 652.5,-336.5"/>
<text text-anchor="middle" x="677" y="-343.5" font-family="Helvetica,sans-Serif" font-size="10.00">Event.h</text>
</a>
</g>
</g>
<!-- Node1&#45;&gt;Node10 -->
<g id="edge14" class="edge"><title>Node1&#45;&gt;Node10</title>
<path fill="none" stroke="midnightblue" d="M754.219,-392.324C739.733,-383.822 717.427,-370.729 700.507,-360.797"/>
<polygon fill="midnightblue" stroke="midnightblue" points="702.141,-357.698 691.745,-355.655 698.597,-363.735 702.141,-357.698"/>
</g>
<!-- Node3 -->
<g id="node4" class="node"><title>Node3</title>
<polygon fill="none" stroke="#bfbfbf" points="179.5,-0.5 179.5,-19.5 220.5,-19.5 220.5,-0.5 179.5,-0.5"/>
<text text-anchor="middle" x="200" y="-7.5" font-family="Helvetica,sans-Serif" font-size="10.00">string</text>
</g>
<!-- Node2&#45;&gt;Node3 -->
<g id="edge3" class="edge"><title>Node2&#45;&gt;Node3</title>
<path fill="none" stroke="midnightblue" d="M737.084,-168.313C723.511,-145.267 682.985,-82.5249 630,-56 559.76,-20.8368 316.95,-13.0914 230.697,-11.4357"/>
<polygon fill="midnightblue" stroke="midnightblue" points="230.576,-7.93309 220.515,-11.255 230.451,-14.932 230.576,-7.93309"/>
</g>
<!-- Node4 -->
<g id="node5" class="node"><title>Node4</title>
<g id="a_node5"><a xlink:href="_display_8h.html" target="_top" xlink:title="Display.h">
<polygon fill="none" stroke="black" points="608.5,-112.5 608.5,-131.5 665.5,-131.5 665.5,-112.5 608.5,-112.5"/>
<text text-anchor="middle" x="637" y="-119.5" font-family="Helvetica,sans-Serif" font-size="10.00">Display.h</text>
</a>
</g>
</g>
<!-- Node2&#45;&gt;Node4 -->
<g id="edge4" class="edge"><title>Node2&#45;&gt;Node4</title>
<path fill="none" stroke="midnightblue" d="M725.13,-168.324C708.291,-159.664 682.193,-146.242 662.762,-136.249"/>
<polygon fill="midnightblue" stroke="midnightblue" points="664.322,-133.116 653.828,-131.655 661.12,-139.341 664.322,-133.116"/>
</g>
<!-- Node4&#45;&gt;Node3 -->
<g id="edge6" class="edge"><title>Node4&#45;&gt;Node3</title>
<path fill="none" stroke="midnightblue" d="M635.845,-112.117C633.462,-97.7232 626.565,-69.5501 608,-56 548.031,-12.2297 315.389,-9.89965 230.891,-10.5479"/>
<polygon fill="midnightblue" stroke="midnightblue" points="230.626,-7.05025 220.661,-10.6471 230.694,-14.0499 230.626,-7.05025"/>
</g>
<!-- Node5 -->
<g id="node6" class="node"><title>Node5</title>
<polygon fill="none" stroke="#bfbfbf" points="528,-0.5 528,-19.5 570,-19.5 570,-0.5 528,-0.5"/>
<text text-anchor="middle" x="549" y="-7.5" font-family="Helvetica,sans-Serif" font-size="10.00">vector</text>
</g>
<!-- Node4&#45;&gt;Node5 -->
<g id="edge5" class="edge"><title>Node4&#45;&gt;Node5</title>
<path fill="none" stroke="midnightblue" d="M640.755,-112.221C645.799,-98.9424 652.943,-73.4518 642,-56 628.57,-34.5828 601.74,-23.1084 580.335,-17.1204"/>
<polygon fill="midnightblue" stroke="midnightblue" points="580.898,-13.6528 570.345,-14.6021 579.186,-20.4404 580.898,-13.6528"/>
</g>
<!-- Node6 -->
<g id="node7" class="node"><title>Node6</title>
<polygon fill="none" stroke="#bfbfbf" points="460,-56.5 460,-75.5 514,-75.5 514,-56.5 460,-56.5"/>
<text text-anchor="middle" x="487" y="-63.5" font-family="Helvetica,sans-Serif" font-size="10.00">iostream</text>
</g>
<!-- Node4&#45;&gt;Node6 -->
<g id="edge7" class="edge"><title>Node4&#45;&gt;Node6</title>
<path fill="none" stroke="midnightblue" d="M613.232,-112.444C588.107,-103.399 548.289,-89.064 520.1,-78.9158"/>
<polygon fill="midnightblue" stroke="midnightblue" points="521.251,-75.6106 510.657,-75.5164 518.88,-82.1968 521.251,-75.6106"/>
</g>
<!-- Node7 -->
<g id="node8" class="node"><title>Node7</title>
<g id="a_node8"><a xlink:href="_actions_list_8h.html" target="_top" xlink:title="ActionsList.h">
<polygon fill="none" stroke="black" points="769,-0.5 769,-19.5 843,-19.5 843,-0.5 769,-0.5"/>
<text text-anchor="middle" x="806" y="-7.5" font-family="Helvetica,sans-Serif" font-size="10.00">ActionsList.h</text>
</a>
</g>
</g>
<!-- Node4&#45;&gt;Node7 -->
<g id="edge8" class="edge"><title>Node4&#45;&gt;Node7</title>
<path fill="none" stroke="midnightblue" d="M665.758,-118.226C712.586,-113.05 802.015,-100.187 821,-76 831.69,-62.3803 824.779,-42.5005 817.179,-28.3171"/>
<polygon fill="midnightblue" stroke="midnightblue" points="820.107,-26.3928 812.014,-19.5548 814.077,-29.947 820.107,-26.3928"/>
</g>
<!-- Node8 -->
<g id="node9" class="node"><title>Node8</title>
<g id="a_node9"><a xlink:href="_errors_list_8h.html" target="_top" xlink:title="ErrorsList.h">
<polygon fill="none" stroke="black" points="532.5,-56.5 532.5,-75.5 599.5,-75.5 599.5,-56.5 532.5,-56.5"/>
<text text-anchor="middle" x="566" y="-63.5" font-family="Helvetica,sans-Serif" font-size="10.00">ErrorsList.h</text>
</a>
</g>
</g>
<!-- Node4&#45;&gt;Node8 -->
<g id="edge9" class="edge"><title>Node4&#45;&gt;Node8</title>
<path fill="none" stroke="midnightblue" d="M625.593,-112.324C614.891,-104.185 598.659,-91.8395 585.837,-82.0874"/>
<polygon fill="midnightblue" stroke="midnightblue" points="587.693,-79.1018 577.615,-75.8339 583.456,-84.6734 587.693,-79.1018"/>
</g>
<!-- Node4&#45;&gt;Node9 -->
<g id="edge10" class="edge"><title>Node4&#45;&gt;Node9</title>
<path fill="none" stroke="midnightblue" d="M658.391,-112.444C680.707,-103.517 715.903,-89.4387 741.208,-79.3168"/>
<polygon fill="midnightblue" stroke="midnightblue" points="742.724,-82.4801 750.709,-75.5164 740.124,-75.9807 742.724,-82.4801"/>
</g>
<!-- Node9&#45;&gt;Node3 -->
<g id="edge11" class="edge"><title>Node9&#45;&gt;Node3</title>
<path fill="none" stroke="midnightblue" d="M731.947,-57.9651C727.253,-57.2473 722.526,-56.5729 718,-56 534.107,-32.7244 311.945,-17.8357 231.221,-12.8547"/>
<polygon fill="midnightblue" stroke="midnightblue" points="230.983,-9.33368 220.788,-12.2177 230.556,-16.3207 230.983,-9.33368"/>
</g>
<!-- Node9&#45;&gt;Node5 -->
<g id="edge12" class="edge"><title>Node9&#45;&gt;Node5</title>
<path fill="none" stroke="midnightblue" d="M736.665,-56.4435C693.416,-45.9706 620.881,-28.4061 579.806,-18.4598"/>
<polygon fill="midnightblue" stroke="midnightblue" points="580.621,-15.056 570.078,-16.1041 578.974,-21.8594 580.621,-15.056"/>
</g>
<!-- Node9&#45;&gt;Node7 -->
<g id="edge13" class="edge"><title>Node9&#45;&gt;Node7</title>
<path fill="none" stroke="midnightblue" d="M777.614,-56.083C782.367,-48.5341 789.318,-37.4948 795.152,-28.2298"/>
<polygon fill="midnightblue" stroke="midnightblue" points="798.124,-30.0783 800.49,-19.7511 792.2,-26.3486 798.124,-30.0783"/>
</g>
<!-- Node10&#45;&gt;Node3 -->
<g id="edge15" class="edge"><title>Node10&#45;&gt;Node3</title>
<path fill="none" stroke="midnightblue" d="M652.102,-343.641C529.963,-336.649 0,-302.427 0,-235 0,-235 0,-235 0,-121 0,-44.6823 113.19,-20.9372 169.265,-13.8563"/>
<polygon fill="midnightblue" stroke="midnightblue" points="169.82,-17.3154 179.35,-12.6853 169.013,-10.3622 169.82,-17.3154"/>
</g>
<!-- Node10&#45;&gt;Node4 -->
<g id="edge17" class="edge"><title>Node10&#45;&gt;Node4</title>
<path fill="none" stroke="midnightblue" d="M676.534,-336.426C675.355,-316.532 671.775,-265.749 664,-224 658.533,-194.642 648.94,-161.301 642.784,-141.224"/>
<polygon fill="midnightblue" stroke="midnightblue" points="646.083,-140.048 639.765,-131.544 639.401,-142.133 646.083,-140.048"/>
</g>
<!-- Node11 -->
<g id="node12" class="node"><title>Node11</title>
<polygon fill="none" stroke="#bfbfbf" points="705.5,-280.5 705.5,-299.5 740.5,-299.5 740.5,-280.5 705.5,-280.5"/>
<text text-anchor="middle" x="723" y="-287.5" font-family="Helvetica,sans-Serif" font-size="10.00">map</text>
</g>
<!-- Node10&#45;&gt;Node11 -->
<g id="edge16" class="edge"><title>Node10&#45;&gt;Node11</title>
<path fill="none" stroke="midnightblue" d="M684.596,-336.083C691.227,-328.298 701.021,-316.801 709.058,-307.367"/>
<polygon fill="midnightblue" stroke="midnightblue" points="711.725,-309.633 715.545,-299.751 706.396,-305.094 711.725,-309.633"/>
</g>
<!-- Node12 -->
<g id="node13" class="node"><title>Node12</title>
<g id="a_node13"><a xlink:href="_hero_8h.html" target="_top" xlink:title="Hero.h">
<polygon fill="none" stroke="black" points="421.5,-280.5 421.5,-299.5 466.5,-299.5 466.5,-280.5 421.5,-280.5"/>
<text text-anchor="middle" x="444" y="-287.5" font-family="Helvetica,sans-Serif" font-size="10.00">Hero.h</text>
</a>
</g>
</g>
<!-- Node10&#45;&gt;Node12 -->
<g id="edge18" class="edge"><title>Node10&#45;&gt;Node12</title>
<path fill="none" stroke="midnightblue" d="M652.065,-339.221C609.717,-329.407 523.765,-309.486 476.669,-298.571"/>
<polygon fill="midnightblue" stroke="midnightblue" points="477.217,-295.106 466.685,-296.258 475.637,-301.925 477.217,-295.106"/>
</g>
<!-- Node12&#45;&gt;Node2 -->
<g id="edge22" class="edge"><title>Node12&#45;&gt;Node2</title>
<path fill="none" stroke="midnightblue" d="M466.692,-287.991C507.927,-285.389 597.07,-276.186 664,-244 688.931,-232.011 712.608,-210.293 727.199,-195.281"/>
<polygon fill="midnightblue" stroke="midnightblue" points="730.003,-197.41 734.321,-187.735 724.912,-192.605 730.003,-197.41"/>
</g>
<!-- Node12&#45;&gt;Node3 -->
<g id="edge20" class="edge"><title>Node12&#45;&gt;Node3</title>
<path fill="none" stroke="midnightblue" d="M421.302,-287.8C335.8,-282.67 38,-259.056 38,-179 38,-179 38,-179 38,-121 38,-58.105 122.609,-28.6664 169.535,-17.1757"/>
<polygon fill="midnightblue" stroke="midnightblue" points="170.531,-20.5377 179.483,-14.8699 168.951,-13.7185 170.531,-20.5377"/>
</g>
<!-- Node12&#45;&gt;Node4 -->
<g id="edge28" class="edge"><title>Node12&#45;&gt;Node4</title>
<path fill="none" stroke="midnightblue" d="M466.846,-283.666C490.378,-277.293 527.164,-264.796 553,-244 589.052,-214.98 616.111,-166.519 628.875,-140.608"/>
<polygon fill="midnightblue" stroke="midnightblue" points="632.035,-142.111 633.189,-131.58 625.719,-139.093 632.035,-142.111"/>
</g>
<!-- Node12&#45;&gt;Node6 -->
<g id="edge19" class="edge"><title>Node12&#45;&gt;Node6</title>
<path fill="none" stroke="midnightblue" d="M448.322,-280.444C459.751,-257.281 490.601,-191.118 501,-132 503.781,-116.19 499.41,-98.3762 494.836,-85.4008"/>
<polygon fill="midnightblue" stroke="midnightblue" points="497.985,-83.8414 491.098,-75.7896 491.461,-86.3783 497.985,-83.8414"/>
</g>
<!-- Node12&#45;&gt;Node8 -->
<g id="edge27" class="edge"><title>Node12&#45;&gt;Node8</title>
<path fill="none" stroke="midnightblue" d="M452.857,-280.287C461.329,-271.628 474.099,-257.696 483,-244 518.226,-189.796 546.98,-118.269 559.393,-85.2013"/>
<polygon fill="midnightblue" stroke="midnightblue" points="562.779,-86.1354 562.962,-75.5421 556.213,-83.7093 562.779,-86.1354"/>
</g>
<!-- Node13 -->
<g id="node14" class="node"><title>Node13</title>
<polygon fill="none" stroke="#bfbfbf" points="605,-224.5 605,-243.5 655,-243.5 655,-224.5 605,-224.5"/>
<text text-anchor="middle" x="630" y="-231.5" font-family="Helvetica,sans-Serif" font-size="10.00">typeinfo</text>
</g>
<!-- Node12&#45;&gt;Node13 -->
<g id="edge21" class="edge"><title>Node12&#45;&gt;Node13</title>
<path fill="none" stroke="midnightblue" d="M466.807,-282.379C498.817,-273.085 557.351,-256.092 594.925,-245.183"/>
<polygon fill="midnightblue" stroke="midnightblue" points="596.3,-248.429 604.927,-242.279 594.348,-241.706 596.3,-248.429"/>
</g>
<!-- Node14 -->
<g id="node15" class="node"><title>Node14</title>
<g id="a_node15"><a xlink:href="_inventory_8h.html" target="_top" xlink:title="Inventory.h">
<polygon fill="none" stroke="black" points="190.5,-112.5 190.5,-131.5 253.5,-131.5 253.5,-112.5 190.5,-112.5"/>
<text text-anchor="middle" x="222" y="-119.5" font-family="Helvetica,sans-Serif" font-size="10.00">Inventory.h</text>
</a>
</g>
</g>
<!-- Node12&#45;&gt;Node14 -->
<g id="edge23" class="edge"><title>Node12&#45;&gt;Node14</title>
<path fill="none" stroke="midnightblue" d="M421.364,-287.836C370.376,-284.695 249.024,-274.148 224,-244 199.931,-215.001 208.609,-167.235 215.961,-141.238"/>
<polygon fill="midnightblue" stroke="midnightblue" points="219.347,-142.134 218.931,-131.547 212.654,-140.083 219.347,-142.134"/>
</g>
<!-- Node16 -->
<g id="node17" class="node"><title>Node16</title>
<g id="a_node17"><a xlink:href="_armour_8h.html" target="_top" xlink:title="Armour.h">
<polygon fill="none" stroke="black" points="303,-224.5 303,-243.5 359,-243.5 359,-224.5 303,-224.5"/>
<text text-anchor="middle" x="331" y="-231.5" font-family="Helvetica,sans-Serif" font-size="10.00">Armour.h</text>
</a>
</g>
</g>
<!-- Node12&#45;&gt;Node16 -->
<g id="edge29" class="edge"><title>Node12&#45;&gt;Node16</title>
<path fill="none" stroke="midnightblue" d="M426.095,-280.444C407.746,-271.675 378.995,-257.935 357.906,-247.858"/>
<polygon fill="midnightblue" stroke="midnightblue" points="359.353,-244.67 348.821,-243.516 356.335,-250.986 359.353,-244.67"/>
</g>
<!-- Node17 -->
<g id="node18" class="node"><title>Node17</title>
<g id="a_node18"><a xlink:href="_item_8h.html" target="_top" xlink:title="Item.h">
<polygon fill="none" stroke="black" points="293,-168.5 293,-187.5 337,-187.5 337,-168.5 293,-168.5"/>
<text text-anchor="middle" x="315" y="-175.5" font-family="Helvetica,sans-Serif" font-size="10.00">Item.h</text>
</a>
</g>
</g>
<!-- Node12&#45;&gt;Node17 -->
<g id="edge39" class="edge"><title>Node12&#45;&gt;Node17</title>
<path fill="none" stroke="midnightblue" d="M433.684,-280.157C419.077,-267.64 391.522,-244.045 368,-224 356.372,-214.091 343.288,-202.981 333.029,-194.28"/>
<polygon fill="midnightblue" stroke="midnightblue" points="335.06,-191.414 325.17,-187.616 330.533,-196.753 335.06,-191.414"/>
</g>
<!-- Node18 -->
<g id="node19" class="node"><title>Node18</title>
<g id="a_node19"><a xlink:href="_equipment_8h.html" target="_top" xlink:title="Equipment.h">
<polygon fill="none" stroke="black" points="310.5,-112.5 310.5,-131.5 381.5,-131.5 381.5,-112.5 310.5,-112.5"/>
<text text-anchor="middle" x="346" y="-119.5" font-family="Helvetica,sans-Serif" font-size="10.00">Equipment.h</text>
</a>
</g>
</g>
<!-- Node12&#45;&gt;Node18 -->
<g id="edge40" class="edge"><title>Node12&#45;&gt;Node18</title>
<path fill="none" stroke="midnightblue" d="M438.731,-280.075C423.105,-253.606 376.822,-175.209 356.16,-140.21"/>
<polygon fill="midnightblue" stroke="midnightblue" points="359.156,-138.4 351.058,-131.568 353.128,-141.959 359.156,-138.4"/>
</g>
<!-- Node19 -->
<g id="node20" class="node"><title>Node19</title>
<g id="a_node20"><a xlink:href="_hero_stats_8h.html" target="_top" xlink:title="HeroStats.h">
<polygon fill="none" stroke="black" points="66,-112.5 66,-131.5 134,-131.5 134,-112.5 66,-112.5"/>
<text text-anchor="middle" x="100" y="-119.5" font-family="Helvetica,sans-Serif" font-size="10.00">HeroStats.h</text>
</a>
</g>
</g>
<!-- Node12&#45;&gt;Node19 -->
<g id="edge41" class="edge"><title>Node12&#45;&gt;Node19</title>
<path fill="none" stroke="midnightblue" d="M421.45,-289.269C377.774,-288.841 279.805,-283.182 210,-244 164.579,-218.505 127.764,-167.405 110.548,-140.496"/>
<polygon fill="midnightblue" stroke="midnightblue" points="113.371,-138.406 105.113,-131.768 107.429,-142.107 113.371,-138.406"/>
</g>
<!-- Node20 -->
<g id="node21" class="node"><title>Node20</title>
<g id="a_node21"><a xlink:href="_sword_8h.html" target="_top" xlink:title="Sword.h">
<polygon fill="none" stroke="black" points="233,-224.5 233,-243.5 285,-243.5 285,-224.5 233,-224.5"/>
<text text-anchor="middle" x="259" y="-231.5" font-family="Helvetica,sans-Serif" font-size="10.00">Sword.h</text>
</a>
</g>
</g>
<!-- Node12&#45;&gt;Node20 -->
<g id="edge37" class="edge"><title>Node12&#45;&gt;Node20</title>
<path fill="none" stroke="midnightblue" d="M421.315,-282.379C389.83,-273.188 332.545,-256.467 295.136,-245.548"/>
<polygon fill="midnightblue" stroke="midnightblue" points="295.73,-242.075 285.15,-242.633 293.769,-248.795 295.73,-242.075"/>
</g>
<!-- Node21 -->
<g id="node22" class="node"><title>Node21</title>
<g id="a_node22"><a xlink:href="_stream_decoder_8h.html" target="_top" xlink:title="StreamDecoder.h">
<polygon fill="none" stroke="black" points="400,-112.5 400,-131.5 492,-131.5 492,-112.5 400,-112.5"/>
<text text-anchor="middle" x="446" y="-119.5" font-family="Helvetica,sans-Serif" font-size="10.00">StreamDecoder.h</text>
</a>
</g>
</g>
<!-- Node12&#45;&gt;Node21 -->
<g id="edge42" class="edge"><title>Node12&#45;&gt;Node21</title>
<path fill="none" stroke="midnightblue" d="M444.108,-280.075C444.422,-253.945 445.347,-177.211 445.776,-141.577"/>
<polygon fill="midnightblue" stroke="midnightblue" points="449.276,-141.61 445.897,-131.568 442.276,-141.525 449.276,-141.61"/>
</g>
<!-- Node14&#45;&gt;Node3 -->
<g id="edge26" class="edge"><title>Node14&#45;&gt;Node3</title>
<path fill="none" stroke="midnightblue" d="M220.274,-112.368C216.723,-94.617 208.533,-53.6664 203.719,-29.5974"/>
<polygon fill="midnightblue" stroke="midnightblue" points="207.112,-28.7108 201.718,-19.5914 200.247,-30.0837 207.112,-28.7108"/>
</g>
<!-- Node14&#45;&gt;Node5 -->
<g id="edge25" class="edge"><title>Node14&#45;&gt;Node5</title>
<path fill="none" stroke="midnightblue" d="M224.052,-112.163C227.875,-97.8336 237.527,-69.7518 257,-56 298.574,-26.6401 451.166,-15.7577 517.669,-12.3487"/>
<polygon fill="midnightblue" stroke="midnightblue" points="518.124,-15.8307 527.942,-11.8469 517.783,-8.83904 518.124,-15.8307"/>
</g>
<!-- Node15 -->
<g id="node16" class="node"><title>Node15</title>
<polygon fill="none" stroke="#bfbfbf" points="266,-56.5 266,-75.5 296,-75.5 296,-56.5 266,-56.5"/>
<text text-anchor="middle" x="281" y="-63.5" font-family="Helvetica,sans-Serif" font-size="10.00">set</text>
</g>
<!-- Node14&#45;&gt;Node15 -->
<g id="edge24" class="edge"><title>Node14&#45;&gt;Node15</title>
<path fill="none" stroke="midnightblue" d="M231.479,-112.324C240.201,-104.341 253.343,-92.3128 263.898,-82.6529"/>
<polygon fill="midnightblue" stroke="midnightblue" points="266.334,-85.1674 271.348,-75.8339 261.608,-80.0036 266.334,-85.1674"/>
</g>
<!-- Node16&#45;&gt;Node17 -->
<g id="edge30" class="edge"><title>Node16&#45;&gt;Node17</title>
<path fill="none" stroke="midnightblue" d="M328.358,-224.083C326.214,-216.849 323.121,-206.409 320.451,-197.397"/>
<polygon fill="midnightblue" stroke="midnightblue" points="323.79,-196.345 317.593,-187.751 317.078,-198.333 323.79,-196.345"/>
</g>
<!-- Node17&#45;&gt;Node3 -->
<g id="edge32" class="edge"><title>Node17&#45;&gt;Node3</title>
<path fill="none" stroke="midnightblue" d="M292.884,-176.915C261.941,-175.455 206.645,-167.665 181,-132 158.643,-100.908 177.145,-53.6789 190.083,-28.4049"/>
<polygon fill="midnightblue" stroke="midnightblue" points="193.17,-30.0534 194.832,-19.5897 187.008,-26.7331 193.17,-30.0534"/>
</g>
<!-- Node17&#45;&gt;Node4 -->
<g id="edge33" class="edge"><title>Node17&#45;&gt;Node4</title>
<path fill="none" stroke="midnightblue" d="M337.132,-173.288C391.192,-164.222 530.496,-140.861 598.501,-129.456"/>
<polygon fill="midnightblue" stroke="midnightblue" points="599.106,-132.904 608.389,-127.798 597.948,-126 599.106,-132.904"/>
</g>
<!-- Node17&#45;&gt;Node6 -->
<g id="edge31" class="edge"><title>Node17&#45;&gt;Node6</title>
<path fill="none" stroke="midnightblue" d="M309.184,-168.428C300.844,-154.968 287.865,-128.692 301,-112 310.226,-100.275 398.078,-82.8495 449.676,-73.4953"/>
<polygon fill="midnightblue" stroke="midnightblue" points="450.562,-76.8924 459.787,-71.6815 449.326,-70.0024 450.562,-76.8924"/>
</g>
<!-- Node17&#45;&gt;Node18 -->
<g id="edge34" class="edge"><title>Node17&#45;&gt;Node18</title>
<path fill="none" stroke="midnightblue" d="M320.119,-168.083C324.408,-160.613 330.658,-149.724 335.942,-140.52"/>
<polygon fill="midnightblue" stroke="midnightblue" points="339.033,-142.166 340.976,-131.751 332.962,-138.681 339.033,-142.166"/>
</g>
<!-- Node17&#45;&gt;Node19 -->
<g id="edge35" class="edge"><title>Node17&#45;&gt;Node19</title>
<path fill="none" stroke="midnightblue" d="M292.801,-171.424C257.79,-162.631 189.09,-145.376 143.866,-134.017"/>
<polygon fill="midnightblue" stroke="midnightblue" points="144.584,-130.589 134.032,-131.548 142.878,-137.378 144.584,-130.589"/>
</g>
<!-- Node19&#45;&gt;Node3 -->
<g id="edge36" class="edge"><title>Node19&#45;&gt;Node3</title>
<path fill="none" stroke="midnightblue" d="M105.645,-112.115C114.086,-99.138 130.848,-74.5314 148,-56 158.01,-45.1846 170.457,-34.3368 180.663,-26.0024"/>
<polygon fill="midnightblue" stroke="midnightblue" points="182.984,-28.6281 188.606,-19.6485 178.611,-23.1617 182.984,-28.6281"/>
</g>
<!-- Node20&#45;&gt;Node17 -->
<g id="edge38" class="edge"><title>Node20&#45;&gt;Node17</title>
<path fill="none" stroke="midnightblue" d="M267.997,-224.324C276.194,-216.42 288.506,-204.548 298.472,-194.938"/>
<polygon fill="midnightblue" stroke="midnightblue" points="301.07,-197.295 305.839,-187.834 296.211,-192.256 301.07,-197.295"/>
</g>
<!-- Node21&#45;&gt;Node3 -->
<g id="edge43" class="edge"><title>Node21&#45;&gt;Node3</title>
<path fill="none" stroke="midnightblue" d="M425.281,-112.47C404.338,-103.725 371.139,-89.5298 343,-76 325.8,-67.7297 322.229,-64.21 305,-56 280.116,-44.1422 251.301,-31.8957 230.16,-23.1778"/>
<polygon fill="midnightblue" stroke="midnightblue" points="231.319,-19.8704 220.738,-19.3169 228.664,-26.3476 231.319,-19.8704"/>
</g>
<!-- Node21&#45;&gt;Node5 -->
<g id="edge45" class="edge"><title>Node21&#45;&gt;Node5</title>
<path fill="none" stroke="midnightblue" d="M444.06,-112.083C441.665,-98.6239 439.224,-72.9009 451,-56 466.407,-33.8876 495.475,-22.4145 517.968,-16.6074"/>
<polygon fill="midnightblue" stroke="midnightblue" points="518.824,-20.0016 527.767,-14.3201 517.233,-13.1848 518.824,-20.0016"/>
</g>
<!-- Node21&#45;&gt;Node8 -->
<g id="edge47" class="edge"><title>Node21&#45;&gt;Node8</title>
<path fill="none" stroke="midnightblue" d="M465.014,-112.444C484.588,-103.636 515.308,-89.8116 537.729,-79.722"/>
<polygon fill="midnightblue" stroke="midnightblue" points="539.392,-82.8119 547.075,-75.5164 536.519,-76.4284 539.392,-82.8119"/>
</g>
<!-- Node21&#45;&gt;Node15 -->
<g id="edge46" class="edge"><title>Node21&#45;&gt;Node15</title>
<path fill="none" stroke="midnightblue" d="M419.855,-112.444C388.505,-102.183 336.358,-85.1171 305.675,-75.0755"/>
<polygon fill="midnightblue" stroke="midnightblue" points="306.746,-71.7434 296.153,-71.9593 304.569,-78.3962 306.746,-71.7434"/>
</g>
<!-- Node22 -->
<g id="node23" class="node"><title>Node22</title>
<polygon fill="none" stroke="#bfbfbf" points="352,-56.5 352,-75.5 404,-75.5 404,-56.5 352,-56.5"/>
<text text-anchor="middle" x="378" y="-63.5" font-family="Helvetica,sans-Serif" font-size="10.00">sstream</text>
</g>
<!-- Node21&#45;&gt;Node22 -->
<g id="edge44" class="edge"><title>Node21&#45;&gt;Node22</title>
<path fill="none" stroke="midnightblue" d="M435.075,-112.324C424.825,-104.185 409.279,-91.8395 396.999,-82.0874"/>
<polygon fill="midnightblue" stroke="midnightblue" points="399.132,-79.3119 389.124,-75.8339 394.779,-84.7937 399.132,-79.3119"/>
</g>
</g>
</svg>
