<?xml version="1.0" encoding="UTF-8" standalone="no"?>
<!DOCTYPE svg PUBLIC "-//W3C//DTD SVG 1.1//EN"
 "http://www.w3.org/Graphics/SVG/1.1/DTD/svg11.dtd">
<!-- Generated by graphviz version 2.38.0 (20140413.2041)
 -->
<!-- Title: E:/Dropbox/BI_FIT_CVUT/2. semestr/PA2/GameBook/GameMenus.h Pages: 1 -->
<svg width="1306pt" height="830pt"
 viewBox="0.00 0.00 1306.00 830.00" xmlns="http://www.w3.org/2000/svg" xmlns:xlink="http://www.w3.org/1999/xlink">
<g id="graph0" class="graph" transform="scale(1 1) rotate(0) translate(4 826)">
<title>E:/Dropbox/BI_FIT_CVUT/2. semestr/PA2/GameBook/GameMenus.h</title>
<!-- Node4 -->
<g id="node1" class="node"><title>Node4</title>
<polygon fill="#bfbfbf" stroke="black" points="852,-780.5 852,-821.5 992,-821.5 992,-780.5 852,-780.5"/>
<text text-anchor="start" x="860" y="-809.5" font-family="Helvetica,sans-Serif" font-size="10.00">E:/Dropbox/BI_FIT_CVUT</text>
<text text-anchor="start" x="860" y="-798.5" font-family="Helvetica,sans-Serif" font-size="10.00">/2. semestr/PA2/GameBook</text>
<text text-anchor="middle" x="922" y="-787.5" font-family="Helvetica,sans-Serif" font-size="10.00">/GameMenus.h</text>
</g>
<!-- Node5 -->
<g id="node2" class="node"><title>Node5</title>
<g id="a_node2"><a xlink:href="_display_8h.html" target="_top" xlink:title="E:/Dropbox/BI_FIT_CVUT\l/2. semestr/PA2/GameBook\l/Display.h">
<polygon fill="none" stroke="black" points="595,-702.5 595,-743.5 735,-743.5 735,-702.5 595,-702.5"/>
<text text-anchor="start" x="603" y="-731.5" font-family="Helvetica,sans-Serif" font-size="10.00">E:/Dropbox/BI_FIT_CVUT</text>
<text text-anchor="start" x="603" y="-720.5" font-family="Helvetica,sans-Serif" font-size="10.00">/2. semestr/PA2/GameBook</text>
<text text-anchor="middle" x="665" y="-709.5" font-family="Helvetica,sans-Serif" font-size="10.00">/Display.h</text>
</a>
</g>
</g>
<!-- Node4&#45;&gt;Node5 -->
<g id="edge1" class="edge"><title>Node4&#45;&gt;Node5</title>
<path fill="none" stroke="midnightblue" d="M846.187,-777.58C809.611,-766.764 766.148,-753.911 730.96,-743.506"/>
<polygon fill="midnightblue" stroke="midnightblue" points="845.234,-780.949 855.816,-780.428 847.219,-774.236 845.234,-780.949"/>
</g>
<!-- Node11 -->
<g id="node8" class="node"><title>Node11</title>
<g id="a_node8"><a xlink:href="_choice_8h.html" target="_top" xlink:title="E:/Dropbox/BI_FIT_CVUT\l/2. semestr/PA2/GameBook\l/Choice.h">
<polygon fill="none" stroke="black" points="336,-312.5 336,-353.5 476,-353.5 476,-312.5 336,-312.5"/>
<text text-anchor="start" x="344" y="-341.5" font-family="Helvetica,sans-Serif" font-size="10.00">E:/Dropbox/BI_FIT_CVUT</text>
<text text-anchor="start" x="344" y="-330.5" font-family="Helvetica,sans-Serif" font-size="10.00">/2. semestr/PA2/GameBook</text>
<text text-anchor="middle" x="406" y="-319.5" font-family="Helvetica,sans-Serif" font-size="10.00">/Choice.h</text>
</a>
</g>
</g>
<!-- Node4&#45;&gt;Node11 -->
<g id="edge52" class="edge"><title>Node4&#45;&gt;Node11</title>
<path fill="none" stroke="midnightblue" d="M841.887,-795.022C617.649,-780.028 0,-731.01 0,-646 0,-646 0,-646 0,-488 0,-417.043 219.541,-367.168 335.744,-345.74"/>
<polygon fill="midnightblue" stroke="midnightblue" points="841.734,-798.52 851.943,-795.69 842.197,-791.535 841.734,-798.52"/>
</g>
<!-- Node27 -->
<g id="node24" class="node"><title>Node27</title>
<g id="a_node24"><a xlink:href="_fight_8h.html" target="_top" xlink:title="E:/Dropbox/BI_FIT_CVUT\l/2. semestr/PA2/GameBook\l/Fight.h">
<polygon fill="none" stroke="black" points="1082,-312.5 1082,-353.5 1222,-353.5 1222,-312.5 1082,-312.5"/>
<text text-anchor="start" x="1090" y="-341.5" font-family="Helvetica,sans-Serif" font-size="10.00">E:/Dropbox/BI_FIT_CVUT</text>
<text text-anchor="start" x="1090" y="-330.5" font-family="Helvetica,sans-Serif" font-size="10.00">/2. semestr/PA2/GameBook</text>
<text text-anchor="middle" x="1152" y="-319.5" font-family="Helvetica,sans-Serif" font-size="10.00">/Fight.h</text>
</a>
</g>
</g>
<!-- Node4&#45;&gt;Node27 -->
<g id="edge53" class="edge"><title>Node4&#45;&gt;Node27</title>
<path fill="none" stroke="midnightblue" d="M1000.69,-776.847C1059.58,-754.11 1130,-712.929 1130,-646 1130,-646 1130,-646 1130,-488 1130,-439.386 1140.88,-383 1147.33,-353.806"/>
<polygon fill="midnightblue" stroke="midnightblue" points="999.116,-773.697 990.972,-780.474 1001.56,-780.255 999.116,-773.697"/>
</g>
<!-- Node38 -->
<g id="node35" class="node"><title>Node38</title>
<g id="a_node35"><a xlink:href="_game_menus_8cpp.html" target="_top" xlink:title="E:/Dropbox/BI_FIT_CVUT\l/2. semestr/PA2/GameBook\l/GameMenus.cpp">
<polygon fill="none" stroke="black" points="1158,-702.5 1158,-743.5 1298,-743.5 1298,-702.5 1158,-702.5"/>
<text text-anchor="start" x="1166" y="-731.5" font-family="Helvetica,sans-Serif" font-size="10.00">E:/Dropbox/BI_FIT_CVUT</text>
<text text-anchor="start" x="1166" y="-720.5" font-family="Helvetica,sans-Serif" font-size="10.00">/2. semestr/PA2/GameBook</text>
<text text-anchor="middle" x="1228" y="-709.5" font-family="Helvetica,sans-Serif" font-size="10.00">/GameMenus.cpp</text>
</a>
</g>
</g>
<!-- Node4&#45;&gt;Node38 -->
<g id="edge54" class="edge"><title>Node4&#45;&gt;Node38</title>
<path fill="none" stroke="midnightblue" d="M1002.01,-780.129C1050.35,-768.121 1111.4,-752.959 1157.86,-741.42"/>
<polygon fill="midnightblue" stroke="midnightblue" points="1001.06,-776.757 992.203,-782.564 1002.75,-783.55 1001.06,-776.757"/>
</g>
<!-- Node6 -->
<g id="node3" class="node"><title>Node6</title>
<g id="a_node3"><a xlink:href="_item_8h.html" target="_top" xlink:title="E:/Dropbox/BI_FIT_CVUT\l/2. semestr/PA2/GameBook\l/Item.h">
<polygon fill="none" stroke="black" points="350,-624.5 350,-665.5 490,-665.5 490,-624.5 350,-624.5"/>
<text text-anchor="start" x="358" y="-653.5" font-family="Helvetica,sans-Serif" font-size="10.00">E:/Dropbox/BI_FIT_CVUT</text>
<text text-anchor="start" x="358" y="-642.5" font-family="Helvetica,sans-Serif" font-size="10.00">/2. semestr/PA2/GameBook</text>
<text text-anchor="middle" x="420" y="-631.5" font-family="Helvetica,sans-Serif" font-size="10.00">/Item.h</text>
</a>
</g>
</g>
<!-- Node5&#45;&gt;Node6 -->
<g id="edge2" class="edge"><title>Node5&#45;&gt;Node6</title>
<path fill="none" stroke="midnightblue" d="M592.281,-699.442C557.506,-688.655 516.282,-675.867 482.88,-665.506"/>
<polygon fill="midnightblue" stroke="midnightblue" points="591.318,-702.808 601.906,-702.428 593.392,-696.122 591.318,-702.808"/>
</g>
<!-- Node9 -->
<g id="node6" class="node"><title>Node9</title>
<g id="a_node6"><a xlink:href="_hero_8h.html" target="_top" xlink:title="E:/Dropbox/BI_FIT_CVUT\l/2. semestr/PA2/GameBook\l/Hero.h">
<polygon fill="none" stroke="black" points="388,-468.5 388,-509.5 528,-509.5 528,-468.5 388,-468.5"/>
<text text-anchor="start" x="396" y="-497.5" font-family="Helvetica,sans-Serif" font-size="10.00">E:/Dropbox/BI_FIT_CVUT</text>
<text text-anchor="start" x="396" y="-486.5" font-family="Helvetica,sans-Serif" font-size="10.00">/2. semestr/PA2/GameBook</text>
<text text-anchor="middle" x="458" y="-475.5" font-family="Helvetica,sans-Serif" font-size="10.00">/Hero.h</text>
</a>
</g>
</g>
<!-- Node5&#45;&gt;Node9 -->
<g id="edge50" class="edge"><title>Node5&#45;&gt;Node9</title>
<path fill="none" stroke="midnightblue" d="M586.267,-698.366C568.477,-690.258 550.794,-679.664 537,-666 491.552,-620.981 469.945,-545.167 461.903,-509.571"/>
<polygon fill="midnightblue" stroke="midnightblue" points="584.992,-701.628 595.56,-702.383 587.77,-695.202 584.992,-701.628"/>
</g>
<!-- Node10 -->
<g id="node7" class="node"><title>Node10</title>
<g id="a_node7"><a xlink:href="_event_8h.html" target="_top" xlink:title="E:/Dropbox/BI_FIT_CVUT\l/2. semestr/PA2/GameBook\l/Event.h">
<polygon fill="none" stroke="black" points="637,-390.5 637,-431.5 777,-431.5 777,-390.5 637,-390.5"/>
<text text-anchor="start" x="645" y="-419.5" font-family="Helvetica,sans-Serif" font-size="10.00">E:/Dropbox/BI_FIT_CVUT</text>
<text text-anchor="start" x="645" y="-408.5" font-family="Helvetica,sans-Serif" font-size="10.00">/2. semestr/PA2/GameBook</text>
<text text-anchor="middle" x="707" y="-397.5" font-family="Helvetica,sans-Serif" font-size="10.00">/Event.h</text>
</a>
</g>
</g>
<!-- Node5&#45;&gt;Node10 -->
<g id="edge45" class="edge"><title>Node5&#45;&gt;Node10</title>
<path fill="none" stroke="midnightblue" d="M683.329,-693.638C687.978,-685.083 692.39,-675.447 695,-666 718.391,-581.32 712.668,-474.808 708.959,-431.575"/>
<polygon fill="midnightblue" stroke="midnightblue" points="680.219,-692.024 678.265,-702.437 686.286,-695.516 680.219,-692.024"/>
</g>
<!-- Node35 -->
<g id="node32" class="node"><title>Node35</title>
<g id="a_node32"><a xlink:href="_creature_8h.html" target="_top" xlink:title="E:/Dropbox/BI_FIT_CVUT\l/2. semestr/PA2/GameBook\l/Creature.h">
<polygon fill="none" stroke="black" points="833,-546.5 833,-587.5 973,-587.5 973,-546.5 833,-546.5"/>
<text text-anchor="start" x="841" y="-575.5" font-family="Helvetica,sans-Serif" font-size="10.00">E:/Dropbox/BI_FIT_CVUT</text>
<text text-anchor="start" x="841" y="-564.5" font-family="Helvetica,sans-Serif" font-size="10.00">/2. semestr/PA2/GameBook</text>
<text text-anchor="middle" x="903" y="-553.5" font-family="Helvetica,sans-Serif" font-size="10.00">/Creature.h</text>
</a>
</g>
</g>
<!-- Node5&#45;&gt;Node35 -->
<g id="edge46" class="edge"><title>Node5&#45;&gt;Node35</title>
<path fill="none" stroke="midnightblue" d="M703.569,-697.043C750.76,-666.508 829.674,-615.446 872.727,-587.588"/>
<polygon fill="midnightblue" stroke="midnightblue" points="701.637,-694.125 695.143,-702.496 705.44,-700.002 701.637,-694.125"/>
</g>
<!-- Node37 -->
<g id="node34" class="node"><title>Node37</title>
<g id="a_node34"><a xlink:href="_display_8cpp.html" target="_top" xlink:title="E:/Dropbox/BI_FIT_CVUT\l/2. semestr/PA2/GameBook\l/Display.cpp">
<polygon fill="none" stroke="black" points="546,-624.5 546,-665.5 686,-665.5 686,-624.5 546,-624.5"/>
<text text-anchor="start" x="554" y="-653.5" font-family="Helvetica,sans-Serif" font-size="10.00">E:/Dropbox/BI_FIT_CVUT</text>
<text text-anchor="start" x="554" y="-642.5" font-family="Helvetica,sans-Serif" font-size="10.00">/2. semestr/PA2/GameBook</text>
<text text-anchor="middle" x="616" y="-631.5" font-family="Helvetica,sans-Serif" font-size="10.00">/Display.cpp</text>
</a>
</g>
</g>
<!-- Node5&#45;&gt;Node37 -->
<g id="edge51" class="edge"><title>Node5&#45;&gt;Node37</title>
<path fill="none" stroke="midnightblue" d="M646.791,-693.757C640.728,-684.354 634.115,-674.096 628.576,-665.506"/>
<polygon fill="midnightblue" stroke="midnightblue" points="644.021,-695.92 652.381,-702.428 649.904,-692.127 644.021,-695.92"/>
</g>
<!-- Node7 -->
<g id="node4" class="node"><title>Node7</title>
<g id="a_node4"><a xlink:href="_armour_8h.html" target="_top" xlink:title="E:/Dropbox/BI_FIT_CVUT\l/2. semestr/PA2/GameBook\l/Armour.h">
<polygon fill="none" stroke="black" points="546,-546.5 546,-587.5 686,-587.5 686,-546.5 546,-546.5"/>
<text text-anchor="start" x="554" y="-575.5" font-family="Helvetica,sans-Serif" font-size="10.00">E:/Dropbox/BI_FIT_CVUT</text>
<text text-anchor="start" x="554" y="-564.5" font-family="Helvetica,sans-Serif" font-size="10.00">/2. semestr/PA2/GameBook</text>
<text text-anchor="middle" x="616" y="-553.5" font-family="Helvetica,sans-Serif" font-size="10.00">/Armour.h</text>
</a>
</g>
</g>
<!-- Node6&#45;&gt;Node7 -->
<g id="edge3" class="edge"><title>Node6&#45;&gt;Node7</title>
<path fill="none" stroke="midnightblue" d="M479.965,-620.748C507.401,-610.11 539.545,-597.646 565.696,-587.506"/>
<polygon fill="midnightblue" stroke="midnightblue" points="478.533,-617.55 470.475,-624.428 481.064,-624.076 478.533,-617.55"/>
</g>
<!-- Node6&#45;&gt;Node9 -->
<g id="edge43" class="edge"><title>Node6&#45;&gt;Node9</title>
<path fill="none" stroke="midnightblue" d="M430.775,-614.702C433.687,-606.165 436.673,-596.773 439,-588 446.11,-561.198 451.754,-529.617 454.988,-509.701"/>
<polygon fill="midnightblue" stroke="midnightblue" points="427.436,-613.649 427.435,-624.244 434.042,-615.962 427.436,-613.649"/>
</g>
<!-- Node32 -->
<g id="node29" class="node"><title>Node32</title>
<g id="a_node29"><a xlink:href="_sword_8h.html" target="_top" xlink:title="E:/Dropbox/BI_FIT_CVUT\l/2. semestr/PA2/GameBook\l/Sword.h">
<polygon fill="none" stroke="black" points="128,-546.5 128,-587.5 268,-587.5 268,-546.5 128,-546.5"/>
<text text-anchor="start" x="136" y="-575.5" font-family="Helvetica,sans-Serif" font-size="10.00">E:/Dropbox/BI_FIT_CVUT</text>
<text text-anchor="start" x="136" y="-564.5" font-family="Helvetica,sans-Serif" font-size="10.00">/2. semestr/PA2/GameBook</text>
<text text-anchor="middle" x="198" y="-553.5" font-family="Helvetica,sans-Serif" font-size="10.00">/Sword.h</text>
</a>
</g>
</g>
<!-- Node6&#45;&gt;Node32 -->
<g id="edge39" class="edge"><title>Node6&#45;&gt;Node32</title>
<path fill="none" stroke="midnightblue" d="M353.298,-621.165C321.96,-610.437 284.985,-597.779 254.977,-587.506"/>
<polygon fill="midnightblue" stroke="midnightblue" points="352.235,-624.5 362.829,-624.428 354.502,-617.878 352.235,-624.5"/>
</g>
<!-- Node34 -->
<g id="node31" class="node"><title>Node34</title>
<g id="a_node31"><a xlink:href="_item_8cpp.html" target="_top" xlink:title="E:/Dropbox/BI_FIT_CVUT\l/2. semestr/PA2/GameBook\l/Item.cpp">
<polygon fill="none" stroke="black" points="290,-546.5 290,-587.5 430,-587.5 430,-546.5 290,-546.5"/>
<text text-anchor="start" x="298" y="-575.5" font-family="Helvetica,sans-Serif" font-size="10.00">E:/Dropbox/BI_FIT_CVUT</text>
<text text-anchor="start" x="298" y="-564.5" font-family="Helvetica,sans-Serif" font-size="10.00">/2. semestr/PA2/GameBook</text>
<text text-anchor="middle" x="360" y="-553.5" font-family="Helvetica,sans-Serif" font-size="10.00">/Item.cpp</text>
</a>
</g>
</g>
<!-- Node6&#45;&gt;Node34 -->
<g id="edge44" class="edge"><title>Node6&#45;&gt;Node34</title>
<path fill="none" stroke="midnightblue" d="M398.161,-616.338C390.614,-606.778 382.321,-596.273 375.399,-587.506"/>
<polygon fill="midnightblue" stroke="midnightblue" points="395.605,-618.748 404.549,-624.428 401.099,-614.41 395.605,-618.748"/>
</g>
<!-- Node8 -->
<g id="node5" class="node"><title>Node8</title>
<g id="a_node5"><a xlink:href="_armour_8cpp.html" target="_top" xlink:title="E:/Dropbox/BI_FIT_CVUT\l/2. semestr/PA2/GameBook\l/Armour.cpp">
<polygon fill="none" stroke="black" points="546,-468.5 546,-509.5 686,-509.5 686,-468.5 546,-468.5"/>
<text text-anchor="start" x="554" y="-497.5" font-family="Helvetica,sans-Serif" font-size="10.00">E:/Dropbox/BI_FIT_CVUT</text>
<text text-anchor="start" x="554" y="-486.5" font-family="Helvetica,sans-Serif" font-size="10.00">/2. semestr/PA2/GameBook</text>
<text text-anchor="middle" x="616" y="-475.5" font-family="Helvetica,sans-Serif" font-size="10.00">/Armour.cpp</text>
</a>
</g>
</g>
<!-- Node7&#45;&gt;Node8 -->
<g id="edge4" class="edge"><title>Node7&#45;&gt;Node8</title>
<path fill="none" stroke="midnightblue" d="M616,-536.297C616,-527.301 616,-517.653 616,-509.506"/>
<polygon fill="midnightblue" stroke="midnightblue" points="612.5,-536.428 616,-546.428 619.5,-536.428 612.5,-536.428"/>
</g>
<!-- Node7&#45;&gt;Node9 -->
<g id="edge5" class="edge"><title>Node7&#45;&gt;Node9</title>
<path fill="none" stroke="midnightblue" d="M566.206,-542.049C544.415,-531.566 519.172,-519.424 498.551,-509.506"/>
<polygon fill="midnightblue" stroke="midnightblue" points="564.782,-545.247 575.311,-546.428 567.817,-538.939 564.782,-545.247"/>
</g>
<!-- Node13 -->
<g id="node10" class="node"><title>Node13</title>
<g id="a_node10"><a xlink:href="_world_8h.html" target="_top" xlink:title="E:/Dropbox/BI_FIT_CVUT\l/2. semestr/PA2/GameBook\l/World.h">
<polygon fill="none" stroke="black" points="652,-234.5 652,-275.5 792,-275.5 792,-234.5 652,-234.5"/>
<text text-anchor="start" x="660" y="-263.5" font-family="Helvetica,sans-Serif" font-size="10.00">E:/Dropbox/BI_FIT_CVUT</text>
<text text-anchor="start" x="660" y="-252.5" font-family="Helvetica,sans-Serif" font-size="10.00">/2. semestr/PA2/GameBook</text>
<text text-anchor="middle" x="722" y="-241.5" font-family="Helvetica,sans-Serif" font-size="10.00">/World.h</text>
</a>
</g>
</g>
<!-- Node7&#45;&gt;Node13 -->
<g id="edge38" class="edge"><title>Node7&#45;&gt;Node13</title>
<path fill="none" stroke="midnightblue" d="M668.53,-541.855C731.886,-509.416 835.092,-445.117 877,-354 884.8,-337.041 887.725,-327.278 877,-312 857.684,-284.484 823.446,-270.429 792.054,-263.276"/>
<polygon fill="midnightblue" stroke="midnightblue" points="666.841,-538.787 659.483,-546.41 669.989,-545.039 666.841,-538.787"/>
</g>
<!-- Node9&#45;&gt;Node10 -->
<g id="edge6" class="edge"><title>Node9&#45;&gt;Node10</title>
<path fill="none" stroke="midnightblue" d="M531.906,-465.442C567.249,-454.655 609.146,-441.867 643.094,-431.506"/>
<polygon fill="midnightblue" stroke="midnightblue" points="530.666,-462.161 522.124,-468.428 532.71,-468.856 530.666,-462.161"/>
</g>
<!-- Node17 -->
<g id="node14" class="node"><title>Node17</title>
<g id="a_node14"><a xlink:href="_shopping_8h.html" target="_top" xlink:title="E:/Dropbox/BI_FIT_CVUT\l/2. semestr/PA2/GameBook\l/Shopping.h">
<polygon fill="none" stroke="black" points="200,-156.5 200,-197.5 340,-197.5 340,-156.5 200,-156.5"/>
<text text-anchor="start" x="208" y="-185.5" font-family="Helvetica,sans-Serif" font-size="10.00">E:/Dropbox/BI_FIT_CVUT</text>
<text text-anchor="start" x="208" y="-174.5" font-family="Helvetica,sans-Serif" font-size="10.00">/2. semestr/PA2/GameBook</text>
<text text-anchor="middle" x="270" y="-163.5" font-family="Helvetica,sans-Serif" font-size="10.00">/Shopping.h</text>
</a>
</g>
</g>
<!-- Node9&#45;&gt;Node17 -->
<g id="edge34" class="edge"><title>Node9&#45;&gt;Node17</title>
<path fill="none" stroke="midnightblue" d="M377.916,-474.976C329.13,-465.345 273.16,-450.676 257,-432 198.494,-364.384 240.68,-244.81 260.868,-197.784"/>
<polygon fill="midnightblue" stroke="midnightblue" points="377.401,-478.441 387.882,-476.895 378.724,-471.567 377.401,-478.441"/>
</g>
<!-- Node19 -->
<g id="node16" class="node"><title>Node19</title>
<g id="a_node16"><a xlink:href="_inventory_browser_8h.html" target="_top" xlink:title="E:/Dropbox/BI_FIT_CVUT\l/2. semestr/PA2/GameBook\l/InventoryBrowser.h">
<polygon fill="none" stroke="black" points="358,-156.5 358,-197.5 498,-197.5 498,-156.5 358,-156.5"/>
<text text-anchor="start" x="366" y="-185.5" font-family="Helvetica,sans-Serif" font-size="10.00">E:/Dropbox/BI_FIT_CVUT</text>
<text text-anchor="start" x="366" y="-174.5" font-family="Helvetica,sans-Serif" font-size="10.00">/2. semestr/PA2/GameBook</text>
<text text-anchor="middle" x="428" y="-163.5" font-family="Helvetica,sans-Serif" font-size="10.00">/InventoryBrowser.h</text>
</a>
</g>
</g>
<!-- Node9&#45;&gt;Node19 -->
<g id="edge35" class="edge"><title>Node9&#45;&gt;Node19</title>
<path fill="none" stroke="midnightblue" d="M377.704,-481.575C344.664,-474.502 309.416,-460.273 289,-432 265.297,-399.175 213.179,-351.255 294,-234 302.729,-221.336 333.571,-208.025 363.467,-197.558"/>
<polygon fill="midnightblue" stroke="midnightblue" points="377.384,-485.078 387.868,-483.548 378.718,-478.206 377.384,-485.078"/>
</g>
<!-- Node21 -->
<g id="node18" class="node"><title>Node21</title>
<g id="a_node18"><a xlink:href="_interact_8h.html" target="_top" xlink:title="E:/Dropbox/BI_FIT_CVUT\l/2. semestr/PA2/GameBook\l/Interact.h">
<polygon fill="none" stroke="black" points="584,-156.5 584,-197.5 724,-197.5 724,-156.5 584,-156.5"/>
<text text-anchor="start" x="592" y="-185.5" font-family="Helvetica,sans-Serif" font-size="10.00">E:/Dropbox/BI_FIT_CVUT</text>
<text text-anchor="start" x="592" y="-174.5" font-family="Helvetica,sans-Serif" font-size="10.00">/2. semestr/PA2/GameBook</text>
<text text-anchor="middle" x="654" y="-163.5" font-family="Helvetica,sans-Serif" font-size="10.00">/Interact.h</text>
</a>
</g>
</g>
<!-- Node9&#45;&gt;Node21 -->
<g id="edge36" class="edge"><title>Node9&#45;&gt;Node21</title>
<path fill="none" stroke="midnightblue" d="M462.667,-458.114C464.26,-436.778 462.58,-408.665 447,-390 411.318,-347.253 360.238,-398.673 327,-354 295.164,-311.211 292.618,-274.771 327,-234 335.262,-224.203 490.126,-200.956 583.729,-187.7"/>
<polygon fill="midnightblue" stroke="midnightblue" points="459.164,-457.965 461.63,-468.269 466.128,-458.676 459.164,-457.965"/>
</g>
<!-- Node31 -->
<g id="node28" class="node"><title>Node31</title>
<g id="a_node28"><a xlink:href="_hero_8cpp.html" target="_top" xlink:title="E:/Dropbox/BI_FIT_CVUT\l/2. semestr/PA2/GameBook\l/Hero.cpp">
<polygon fill="none" stroke="black" points="298,-390.5 298,-431.5 438,-431.5 438,-390.5 298,-390.5"/>
<text text-anchor="start" x="306" y="-419.5" font-family="Helvetica,sans-Serif" font-size="10.00">E:/Dropbox/BI_FIT_CVUT</text>
<text text-anchor="start" x="306" y="-408.5" font-family="Helvetica,sans-Serif" font-size="10.00">/2. semestr/PA2/GameBook</text>
<text text-anchor="middle" x="368" y="-397.5" font-family="Helvetica,sans-Serif" font-size="10.00">/Hero.cpp</text>
</a>
</g>
</g>
<!-- Node9&#45;&gt;Node31 -->
<g id="edge37" class="edge"><title>Node9&#45;&gt;Node31</title>
<path fill="none" stroke="midnightblue" d="M426.948,-461.779C415.183,-451.843 402.006,-440.716 391.099,-431.506"/>
<polygon fill="midnightblue" stroke="midnightblue" points="424.924,-464.65 434.823,-468.428 429.441,-459.302 424.924,-464.65"/>
</g>
<!-- Node10&#45;&gt;Node11 -->
<g id="edge7" class="edge"><title>Node10&#45;&gt;Node11</title>
<path fill="none" stroke="midnightblue" d="M626.576,-389.731C584.414,-379.1 531.916,-365.856 485,-354 482.119,-353.272 479.18,-352.529 476.21,-351.778"/>
<polygon fill="midnightblue" stroke="midnightblue" points="625.957,-393.184 636.509,-392.235 627.668,-386.396 625.957,-393.184"/>
</g>
<!-- Node10&#45;&gt;Node13 -->
<g id="edge30" class="edge"><title>Node10&#45;&gt;Node13</title>
<path fill="none" stroke="midnightblue" d="M709.887,-380.365C712.883,-349.606 717.485,-302.358 720.068,-275.832"/>
<polygon fill="midnightblue" stroke="midnightblue" points="706.386,-380.204 708.9,-390.496 713.353,-380.882 706.386,-380.204"/>
</g>
<!-- Node24 -->
<g id="node21" class="node"><title>Node24</title>
<g id="a_node21"><a xlink:href="_dialogue_n_c_p_8h.html" target="_top" xlink:title="E:/Dropbox/BI_FIT_CVUT\l/2. semestr/PA2/GameBook\l/DialogueNCP.h">
<polygon fill="none" stroke="black" points="494,-312.5 494,-353.5 634,-353.5 634,-312.5 494,-312.5"/>
<text text-anchor="start" x="502" y="-341.5" font-family="Helvetica,sans-Serif" font-size="10.00">E:/Dropbox/BI_FIT_CVUT</text>
<text text-anchor="start" x="502" y="-330.5" font-family="Helvetica,sans-Serif" font-size="10.00">/2. semestr/PA2/GameBook</text>
<text text-anchor="middle" x="564" y="-319.5" font-family="Helvetica,sans-Serif" font-size="10.00">/DialogueNCP.h</text>
</a>
</g>
</g>
<!-- Node10&#45;&gt;Node24 -->
<g id="edge23" class="edge"><title>Node10&#45;&gt;Node24</title>
<path fill="none" stroke="midnightblue" d="M661.14,-385.627C641.599,-375.242 619.114,-363.292 600.701,-353.506"/>
<polygon fill="midnightblue" stroke="midnightblue" points="659.701,-388.826 670.174,-390.428 662.986,-382.644 659.701,-388.826"/>
</g>
<!-- Node26 -->
<g id="node23" class="node"><title>Node26</title>
<g id="a_node23"><a xlink:href="_event_8cpp.html" target="_top" xlink:title="E:/Dropbox/BI_FIT_CVUT\l/2. semestr/PA2/GameBook\l/Event.cpp">
<polygon fill="none" stroke="black" points="728,-312.5 728,-353.5 868,-353.5 868,-312.5 728,-312.5"/>
<text text-anchor="start" x="736" y="-341.5" font-family="Helvetica,sans-Serif" font-size="10.00">E:/Dropbox/BI_FIT_CVUT</text>
<text text-anchor="start" x="736" y="-330.5" font-family="Helvetica,sans-Serif" font-size="10.00">/2. semestr/PA2/GameBook</text>
<text text-anchor="middle" x="798" y="-319.5" font-family="Helvetica,sans-Serif" font-size="10.00">/Event.cpp</text>
</a>
</g>
</g>
<!-- Node10&#45;&gt;Node26 -->
<g id="edge26" class="edge"><title>Node10&#45;&gt;Node26</title>
<path fill="none" stroke="midnightblue" d="M738.397,-383.779C750.293,-373.843 763.616,-362.716 774.645,-353.506"/>
<polygon fill="midnightblue" stroke="midnightblue" points="735.867,-381.332 730.435,-390.428 740.354,-386.704 735.867,-381.332"/>
</g>
<!-- Node10&#45;&gt;Node27 -->
<g id="edge27" class="edge"><title>Node10&#45;&gt;Node27</title>
<path fill="none" stroke="midnightblue" d="M787.412,-399.959C861.83,-390.132 975.372,-373.779 1073,-354 1075.91,-353.41 1078.88,-352.782 1081.87,-352.127"/>
<polygon fill="midnightblue" stroke="midnightblue" points="786.636,-396.531 777.177,-401.302 787.547,-403.471 786.636,-396.531"/>
</g>
<!-- Node29 -->
<g id="node26" class="node"><title>Node29</title>
<g id="a_node26"><a xlink:href="_trap_8h.html" target="_top" xlink:title="E:/Dropbox/BI_FIT_CVUT\l/2. semestr/PA2/GameBook\l/Trap.h">
<polygon fill="none" stroke="black" points="924,-312.5 924,-353.5 1064,-353.5 1064,-312.5 924,-312.5"/>
<text text-anchor="start" x="932" y="-341.5" font-family="Helvetica,sans-Serif" font-size="10.00">E:/Dropbox/BI_FIT_CVUT</text>
<text text-anchor="start" x="932" y="-330.5" font-family="Helvetica,sans-Serif" font-size="10.00">/2. semestr/PA2/GameBook</text>
<text text-anchor="middle" x="994" y="-319.5" font-family="Helvetica,sans-Serif" font-size="10.00">/Trap.h</text>
</a>
</g>
</g>
<!-- Node10&#45;&gt;Node29 -->
<g id="edge31" class="edge"><title>Node10&#45;&gt;Node29</title>
<path fill="none" stroke="midnightblue" d="M787.041,-388.804C829.899,-377.455 882.214,-363.602 923.522,-352.663"/>
<polygon fill="midnightblue" stroke="midnightblue" points="785.979,-385.465 777.208,-391.408 787.771,-392.232 785.979,-385.465"/>
</g>
<!-- Node12 -->
<g id="node9" class="node"><title>Node12</title>
<g id="a_node9"><a xlink:href="_choice_8cpp.html" target="_top" xlink:title="E:/Dropbox/BI_FIT_CVUT\l/2. semestr/PA2/GameBook\l/Choice.cpp">
<polygon fill="none" stroke="black" points="336,-234.5 336,-275.5 476,-275.5 476,-234.5 336,-234.5"/>
<text text-anchor="start" x="344" y="-263.5" font-family="Helvetica,sans-Serif" font-size="10.00">E:/Dropbox/BI_FIT_CVUT</text>
<text text-anchor="start" x="344" y="-252.5" font-family="Helvetica,sans-Serif" font-size="10.00">/2. semestr/PA2/GameBook</text>
<text text-anchor="middle" x="406" y="-241.5" font-family="Helvetica,sans-Serif" font-size="10.00">/Choice.cpp</text>
</a>
</g>
</g>
<!-- Node11&#45;&gt;Node12 -->
<g id="edge8" class="edge"><title>Node11&#45;&gt;Node12</title>
<path fill="none" stroke="midnightblue" d="M406,-302.297C406,-293.301 406,-283.653 406,-275.506"/>
<polygon fill="midnightblue" stroke="midnightblue" points="402.5,-302.428 406,-312.428 409.5,-302.428 402.5,-302.428"/>
</g>
<!-- Node11&#45;&gt;Node13 -->
<g id="edge9" class="edge"><title>Node11&#45;&gt;Node13</title>
<path fill="none" stroke="midnightblue" d="M486.024,-311.781C556.664,-294.935 575.983,-292.116 643,-276 645.889,-275.305 648.835,-274.59 651.81,-273.862"/>
<polygon fill="midnightblue" stroke="midnightblue" points="485.099,-308.404 476.19,-314.138 486.73,-315.211 485.099,-308.404"/>
</g>
<!-- Node14 -->
<g id="node11" class="node"><title>Node14</title>
<g id="a_node11"><a xlink:href="_game_8h.html" target="_top" xlink:title="E:/Dropbox/BI_FIT_CVUT\l/2. semestr/PA2/GameBook\l/Game.h">
<polygon fill="none" stroke="black" points="486,-78.5 486,-119.5 626,-119.5 626,-78.5 486,-78.5"/>
<text text-anchor="start" x="494" y="-107.5" font-family="Helvetica,sans-Serif" font-size="10.00">E:/Dropbox/BI_FIT_CVUT</text>
<text text-anchor="start" x="494" y="-96.5" font-family="Helvetica,sans-Serif" font-size="10.00">/2. semestr/PA2/GameBook</text>
<text text-anchor="middle" x="556" y="-85.5" font-family="Helvetica,sans-Serif" font-size="10.00">/Game.h</text>
</a>
</g>
</g>
<!-- Node13&#45;&gt;Node14 -->
<g id="edge10" class="edge"><title>Node13&#45;&gt;Node14</title>
<path fill="none" stroke="midnightblue" d="M642.238,-231.252C612.978,-221.373 584.635,-209.458 575,-198 556.485,-175.981 553.993,-141.312 554.529,-119.656"/>
<polygon fill="midnightblue" stroke="midnightblue" points="641.155,-234.58 651.748,-234.385 643.345,-227.931 641.155,-234.58"/>
</g>
<!-- Node13&#45;&gt;Node17 -->
<g id="edge13" class="edge"><title>Node13&#45;&gt;Node17</title>
<path fill="none" stroke="midnightblue" d="M641.943,-233.928C511.826,-210.382 475.24,-221.611 349,-198 346.08,-197.454 343.107,-196.863 340.11,-196.237"/>
<polygon fill="midnightblue" stroke="midnightblue" points="641.422,-237.391 651.89,-235.763 642.691,-230.507 641.422,-237.391"/>
</g>
<!-- Node13&#45;&gt;Node19 -->
<g id="edge16" class="edge"><title>Node13&#45;&gt;Node19</title>
<path fill="none" stroke="midnightblue" d="M642.218,-233.376C597.162,-221.729 541.369,-207.306 498.019,-196.1"/>
<polygon fill="midnightblue" stroke="midnightblue" points="641.395,-236.778 651.953,-235.893 643.147,-230.001 641.395,-236.778"/>
</g>
<!-- Node13&#45;&gt;Node21 -->
<g id="edge19" class="edge"><title>Node13&#45;&gt;Node21</title>
<path fill="none" stroke="midnightblue" d="M697.767,-226.916C689.076,-217.203 679.455,-206.45 671.452,-197.506"/>
<polygon fill="midnightblue" stroke="midnightblue" points="695.212,-229.309 704.488,-234.428 700.429,-224.642 695.212,-229.309"/>
</g>
<!-- Node23 -->
<g id="node20" class="node"><title>Node23</title>
<g id="a_node20"><a xlink:href="_world_8cpp.html" target="_top" xlink:title="E:/Dropbox/BI_FIT_CVUT\l/2. semestr/PA2/GameBook\l/World.cpp">
<polygon fill="none" stroke="black" points="742,-156.5 742,-197.5 882,-197.5 882,-156.5 742,-156.5"/>
<text text-anchor="start" x="750" y="-185.5" font-family="Helvetica,sans-Serif" font-size="10.00">E:/Dropbox/BI_FIT_CVUT</text>
<text text-anchor="start" x="750" y="-174.5" font-family="Helvetica,sans-Serif" font-size="10.00">/2. semestr/PA2/GameBook</text>
<text text-anchor="middle" x="812" y="-163.5" font-family="Helvetica,sans-Serif" font-size="10.00">/World.cpp</text>
</a>
</g>
</g>
<!-- Node13&#45;&gt;Node23 -->
<g id="edge22" class="edge"><title>Node13&#45;&gt;Node23</title>
<path fill="none" stroke="midnightblue" d="M753.052,-227.779C764.817,-217.843 777.994,-206.716 788.901,-197.506"/>
<polygon fill="midnightblue" stroke="midnightblue" points="750.559,-225.302 745.177,-234.428 755.076,-230.65 750.559,-225.302"/>
</g>
<!-- Node15 -->
<g id="node12" class="node"><title>Node15</title>
<g id="a_node12"><a xlink:href="_game_8cpp.html" target="_top" xlink:title="E:/Dropbox/BI_FIT_CVUT\l/2. semestr/PA2/GameBook\l/Game.cpp">
<polygon fill="none" stroke="black" points="407,-0.5 407,-41.5 547,-41.5 547,-0.5 407,-0.5"/>
<text text-anchor="start" x="415" y="-29.5" font-family="Helvetica,sans-Serif" font-size="10.00">E:/Dropbox/BI_FIT_CVUT</text>
<text text-anchor="start" x="415" y="-18.5" font-family="Helvetica,sans-Serif" font-size="10.00">/2. semestr/PA2/GameBook</text>
<text text-anchor="middle" x="477" y="-7.5" font-family="Helvetica,sans-Serif" font-size="10.00">/Game.cpp</text>
</a>
</g>
</g>
<!-- Node14&#45;&gt;Node15 -->
<g id="edge11" class="edge"><title>Node14&#45;&gt;Node15</title>
<path fill="none" stroke="midnightblue" d="M528.445,-71.4916C518.194,-61.6294 506.757,-50.6273 497.276,-41.5056"/>
<polygon fill="midnightblue" stroke="midnightblue" points="526.022,-74.0175 535.656,-78.4281 530.875,-68.9729 526.022,-74.0175"/>
</g>
<!-- Node16 -->
<g id="node13" class="node"><title>Node16</title>
<g id="a_node13"><a xlink:href="main_8cpp.html" target="_top" xlink:title="E:/Dropbox/BI_FIT_CVUT\l/2. semestr/PA2/GameBook\l/main.cpp">
<polygon fill="none" stroke="black" points="565,-0.5 565,-41.5 705,-41.5 705,-0.5 565,-0.5"/>
<text text-anchor="start" x="573" y="-29.5" font-family="Helvetica,sans-Serif" font-size="10.00">E:/Dropbox/BI_FIT_CVUT</text>
<text text-anchor="start" x="573" y="-18.5" font-family="Helvetica,sans-Serif" font-size="10.00">/2. semestr/PA2/GameBook</text>
<text text-anchor="middle" x="635" y="-7.5" font-family="Helvetica,sans-Serif" font-size="10.00">/main.cpp</text>
</a>
</g>
</g>
<!-- Node14&#45;&gt;Node16 -->
<g id="edge12" class="edge"><title>Node14&#45;&gt;Node16</title>
<path fill="none" stroke="midnightblue" d="M583.555,-71.4916C593.806,-61.6294 605.243,-50.6273 614.724,-41.5056"/>
<polygon fill="midnightblue" stroke="midnightblue" points="581.125,-68.9729 576.344,-78.4281 585.978,-74.0175 581.125,-68.9729"/>
</g>
<!-- Node17&#45;&gt;Node14 -->
<g id="edge14" class="edge"><title>Node17&#45;&gt;Node14</title>
<path fill="none" stroke="midnightblue" d="M350.129,-154.707C392.829,-143.36 444.868,-129.532 485.942,-118.617"/>
<polygon fill="midnightblue" stroke="midnightblue" points="349.095,-151.36 340.33,-157.311 350.893,-158.125 349.095,-151.36"/>
</g>
<!-- Node18 -->
<g id="node15" class="node"><title>Node18</title>
<g id="a_node15"><a xlink:href="_shopping_8cpp.html" target="_top" xlink:title="E:/Dropbox/BI_FIT_CVUT\l/2. semestr/PA2/GameBook\l/Shopping.cpp">
<polygon fill="none" stroke="black" points="170,-78.5 170,-119.5 310,-119.5 310,-78.5 170,-78.5"/>
<text text-anchor="start" x="178" y="-107.5" font-family="Helvetica,sans-Serif" font-size="10.00">E:/Dropbox/BI_FIT_CVUT</text>
<text text-anchor="start" x="178" y="-96.5" font-family="Helvetica,sans-Serif" font-size="10.00">/2. semestr/PA2/GameBook</text>
<text text-anchor="middle" x="240" y="-85.5" font-family="Helvetica,sans-Serif" font-size="10.00">/Shopping.cpp</text>
</a>
</g>
</g>
<!-- Node17&#45;&gt;Node18 -->
<g id="edge15" class="edge"><title>Node17&#45;&gt;Node18</title>
<path fill="none" stroke="midnightblue" d="M258.506,-146.882C254.89,-137.721 250.986,-127.83 247.7,-119.506"/>
<polygon fill="midnightblue" stroke="midnightblue" points="255.347,-148.412 262.274,-156.428 261.858,-145.841 255.347,-148.412"/>
</g>
<!-- Node19&#45;&gt;Node14 -->
<g id="edge17" class="edge"><title>Node19&#45;&gt;Node14</title>
<path fill="none" stroke="midnightblue" d="M469.764,-151.203C487.086,-140.918 506.891,-129.159 523.149,-119.506"/>
<polygon fill="midnightblue" stroke="midnightblue" points="467.775,-148.313 460.963,-156.428 471.349,-154.332 467.775,-148.313"/>
</g>
<!-- Node20 -->
<g id="node17" class="node"><title>Node20</title>
<g id="a_node17"><a xlink:href="_inventory_browser_8cpp.html" target="_top" xlink:title="E:/Dropbox/BI_FIT_CVUT\l/2. semestr/PA2/GameBook\l/InventoryBrowser.cpp">
<polygon fill="none" stroke="black" points="328,-78.5 328,-119.5 468,-119.5 468,-78.5 328,-78.5"/>
<text text-anchor="start" x="336" y="-107.5" font-family="Helvetica,sans-Serif" font-size="10.00">E:/Dropbox/BI_FIT_CVUT</text>
<text text-anchor="start" x="336" y="-96.5" font-family="Helvetica,sans-Serif" font-size="10.00">/2. semestr/PA2/GameBook</text>
<text text-anchor="middle" x="398" y="-85.5" font-family="Helvetica,sans-Serif" font-size="10.00">/InventoryBrowser.cpp</text>
</a>
</g>
</g>
<!-- Node19&#45;&gt;Node20 -->
<g id="edge18" class="edge"><title>Node19&#45;&gt;Node20</title>
<path fill="none" stroke="midnightblue" d="M416.506,-146.882C412.89,-137.721 408.986,-127.83 405.7,-119.506"/>
<polygon fill="midnightblue" stroke="midnightblue" points="413.347,-148.412 420.274,-156.428 419.858,-145.841 413.347,-148.412"/>
</g>
<!-- Node21&#45;&gt;Node14 -->
<g id="edge20" class="edge"><title>Node21&#45;&gt;Node14</title>
<path fill="none" stroke="midnightblue" d="M620.557,-150.065C607.653,-140.057 593.143,-128.804 581.152,-119.506"/>
<polygon fill="midnightblue" stroke="midnightblue" points="618.715,-153.066 628.763,-156.428 623.005,-147.534 618.715,-153.066"/>
</g>
<!-- Node22 -->
<g id="node19" class="node"><title>Node22</title>
<g id="a_node19"><a xlink:href="_interact_8cpp.html" target="_top" xlink:title="E:/Dropbox/BI_FIT_CVUT\l/2. semestr/PA2/GameBook\l/Interact.cpp">
<polygon fill="none" stroke="black" points="644,-78.5 644,-119.5 784,-119.5 784,-78.5 644,-78.5"/>
<text text-anchor="start" x="652" y="-107.5" font-family="Helvetica,sans-Serif" font-size="10.00">E:/Dropbox/BI_FIT_CVUT</text>
<text text-anchor="start" x="652" y="-96.5" font-family="Helvetica,sans-Serif" font-size="10.00">/2. semestr/PA2/GameBook</text>
<text text-anchor="middle" x="714" y="-85.5" font-family="Helvetica,sans-Serif" font-size="10.00">/Interact.cpp</text>
</a>
</g>
</g>
<!-- Node21&#45;&gt;Node22 -->
<g id="edge21" class="edge"><title>Node21&#45;&gt;Node22</title>
<path fill="none" stroke="midnightblue" d="M675.839,-148.338C683.386,-138.778 691.679,-128.273 698.601,-119.506"/>
<polygon fill="midnightblue" stroke="midnightblue" points="672.901,-146.41 669.451,-156.428 678.395,-150.748 672.901,-146.41"/>
</g>
<!-- Node24&#45;&gt;Node13 -->
<g id="edge25" class="edge"><title>Node24&#45;&gt;Node13</title>
<path fill="none" stroke="midnightblue" d="M613.794,-308.049C635.585,-297.566 660.828,-285.424 681.449,-275.506"/>
<polygon fill="midnightblue" stroke="midnightblue" points="612.183,-304.939 604.689,-312.428 615.218,-311.247 612.183,-304.939"/>
</g>
<!-- Node25 -->
<g id="node22" class="node"><title>Node25</title>
<g id="a_node22"><a xlink:href="_dialogue_n_c_p_8cpp.html" target="_top" xlink:title="E:/Dropbox/BI_FIT_CVUT\l/2. semestr/PA2/GameBook\l/DialogueNCP.cpp">
<polygon fill="none" stroke="black" points="494,-234.5 494,-275.5 634,-275.5 634,-234.5 494,-234.5"/>
<text text-anchor="start" x="502" y="-263.5" font-family="Helvetica,sans-Serif" font-size="10.00">E:/Dropbox/BI_FIT_CVUT</text>
<text text-anchor="start" x="502" y="-252.5" font-family="Helvetica,sans-Serif" font-size="10.00">/2. semestr/PA2/GameBook</text>
<text text-anchor="middle" x="564" y="-241.5" font-family="Helvetica,sans-Serif" font-size="10.00">/DialogueNCP.cpp</text>
</a>
</g>
</g>
<!-- Node24&#45;&gt;Node25 -->
<g id="edge24" class="edge"><title>Node24&#45;&gt;Node25</title>
<path fill="none" stroke="midnightblue" d="M564,-302.297C564,-293.301 564,-283.653 564,-275.506"/>
<polygon fill="midnightblue" stroke="midnightblue" points="560.5,-302.428 564,-312.428 567.5,-302.428 560.5,-302.428"/>
</g>
<!-- Node27&#45;&gt;Node13 -->
<g id="edge29" class="edge"><title>Node27&#45;&gt;Node13</title>
<path fill="none" stroke="midnightblue" d="M1071.95,-311.866C969.278,-291.037 861.141,-274.881 792.262,-265.318"/>
<polygon fill="midnightblue" stroke="midnightblue" points="1071.37,-315.32 1081.86,-313.897 1072.77,-308.462 1071.37,-315.32"/>
</g>
<!-- Node28 -->
<g id="node25" class="node"><title>Node28</title>
<g id="a_node25"><a xlink:href="_fight_8cpp.html" target="_top" xlink:title="E:/Dropbox/BI_FIT_CVUT\l/2. semestr/PA2/GameBook\l/Fight.cpp">
<polygon fill="none" stroke="black" points="1082,-234.5 1082,-275.5 1222,-275.5 1222,-234.5 1082,-234.5"/>
<text text-anchor="start" x="1090" y="-263.5" font-family="Helvetica,sans-Serif" font-size="10.00">E:/Dropbox/BI_FIT_CVUT</text>
<text text-anchor="start" x="1090" y="-252.5" font-family="Helvetica,sans-Serif" font-size="10.00">/2. semestr/PA2/GameBook</text>
<text text-anchor="middle" x="1152" y="-241.5" font-family="Helvetica,sans-Serif" font-size="10.00">/Fight.cpp</text>
</a>
</g>
</g>
<!-- Node27&#45;&gt;Node28 -->
<g id="edge28" class="edge"><title>Node27&#45;&gt;Node28</title>
<path fill="none" stroke="midnightblue" d="M1152,-302.297C1152,-293.301 1152,-283.653 1152,-275.506"/>
<polygon fill="midnightblue" stroke="midnightblue" points="1148.5,-302.428 1152,-312.428 1155.5,-302.428 1148.5,-302.428"/>
</g>
<!-- Node29&#45;&gt;Node13 -->
<g id="edge32" class="edge"><title>Node29&#45;&gt;Node13</title>
<path fill="none" stroke="midnightblue" d="M914.255,-309.718C875.443,-298.874 829.21,-285.956 791.809,-275.506"/>
<polygon fill="midnightblue" stroke="midnightblue" points="913.38,-313.108 923.953,-312.428 915.264,-306.366 913.38,-313.108"/>
</g>
<!-- Node30 -->
<g id="node27" class="node"><title>Node30</title>
<g id="a_node27"><a xlink:href="_trap_8cpp.html" target="_top" xlink:title="E:/Dropbox/BI_FIT_CVUT\l/2. semestr/PA2/GameBook\l/Trap.cpp">
<polygon fill="none" stroke="black" points="924,-234.5 924,-275.5 1064,-275.5 1064,-234.5 924,-234.5"/>
<text text-anchor="start" x="932" y="-263.5" font-family="Helvetica,sans-Serif" font-size="10.00">E:/Dropbox/BI_FIT_CVUT</text>
<text text-anchor="start" x="932" y="-252.5" font-family="Helvetica,sans-Serif" font-size="10.00">/2. semestr/PA2/GameBook</text>
<text text-anchor="middle" x="994" y="-241.5" font-family="Helvetica,sans-Serif" font-size="10.00">/Trap.cpp</text>
</a>
</g>
</g>
<!-- Node29&#45;&gt;Node30 -->
<g id="edge33" class="edge"><title>Node29&#45;&gt;Node30</title>
<path fill="none" stroke="midnightblue" d="M994,-302.297C994,-293.301 994,-283.653 994,-275.506"/>
<polygon fill="midnightblue" stroke="midnightblue" points="990.5,-302.428 994,-312.428 997.5,-302.428 990.5,-302.428"/>
</g>
<!-- Node32&#45;&gt;Node9 -->
<g id="edge40" class="edge"><title>Node32&#45;&gt;Node9</title>
<path fill="none" stroke="midnightblue" d="M274.698,-543.58C311.701,-532.764 355.671,-519.911 391.27,-509.506"/>
<polygon fill="midnightblue" stroke="midnightblue" points="273.573,-540.263 264.956,-546.428 275.537,-546.982 273.573,-540.263"/>
</g>
<!-- Node32&#45;&gt;Node13 -->
<g id="edge41" class="edge"><title>Node32&#45;&gt;Node13</title>
<path fill="none" stroke="midnightblue" d="M204.097,-536.536C214.156,-496.083 238.377,-424.446 289,-390 419.747,-301.034 503.976,-429.38 643,-354 675.659,-336.292 699.78,-298.886 712.301,-275.753"/>
<polygon fill="midnightblue" stroke="midnightblue" points="200.672,-535.81 201.784,-546.347 207.485,-537.417 200.672,-535.81"/>
</g>
<!-- Node33 -->
<g id="node30" class="node"><title>Node33</title>
<g id="a_node30"><a xlink:href="_sword_8cpp.html" target="_top" xlink:title="E:/Dropbox/BI_FIT_CVUT\l/2. semestr/PA2/GameBook\l/Sword.cpp">
<polygon fill="none" stroke="black" points="28,-468.5 28,-509.5 168,-509.5 168,-468.5 28,-468.5"/>
<text text-anchor="start" x="36" y="-497.5" font-family="Helvetica,sans-Serif" font-size="10.00">E:/Dropbox/BI_FIT_CVUT</text>
<text text-anchor="start" x="36" y="-486.5" font-family="Helvetica,sans-Serif" font-size="10.00">/2. semestr/PA2/GameBook</text>
<text text-anchor="middle" x="98" y="-475.5" font-family="Helvetica,sans-Serif" font-size="10.00">/Sword.cpp</text>
</a>
</g>
</g>
<!-- Node32&#45;&gt;Node33 -->
<g id="edge42" class="edge"><title>Node32&#45;&gt;Node33</title>
<path fill="none" stroke="midnightblue" d="M164.25,-540.35C150.989,-530.272 136.017,-518.893 123.665,-509.506"/>
<polygon fill="midnightblue" stroke="midnightblue" points="162.168,-543.164 172.248,-546.428 166.404,-537.591 162.168,-543.164"/>
</g>
<!-- Node35&#45;&gt;Node9 -->
<g id="edge47" class="edge"><title>Node35&#45;&gt;Node9</title>
<path fill="none" stroke="midnightblue" d="M822.588,-555.959C748.17,-546.132 634.628,-529.779 537,-510 534.088,-509.41 531.122,-508.782 528.131,-508.127"/>
<polygon fill="midnightblue" stroke="midnightblue" points="822.453,-559.471 832.823,-557.302 823.364,-552.531 822.453,-559.471"/>
</g>
<!-- Node35&#45;&gt;Node27 -->
<g id="edge49" class="edge"><title>Node35&#45;&gt;Node27</title>
<path fill="none" stroke="midnightblue" d="M983.415,-555.037C1014.78,-547.119 1048.9,-533.483 1073,-510 1113.58,-470.461 1090.96,-440.822 1116,-390 1122.23,-377.351 1130.7,-364.04 1137.86,-353.57"/>
<polygon fill="midnightblue" stroke="midnightblue" points="982.276,-551.71 973.347,-557.412 983.884,-558.523 982.276,-551.71"/>
</g>
<!-- Node36 -->
<g id="node33" class="node"><title>Node36</title>
<g id="a_node33"><a xlink:href="_creature_8cpp.html" target="_top" xlink:title="E:/Dropbox/BI_FIT_CVUT\l/2. semestr/PA2/GameBook\l/Creature.cpp">
<polygon fill="none" stroke="black" points="924,-468.5 924,-509.5 1064,-509.5 1064,-468.5 924,-468.5"/>
<text text-anchor="start" x="932" y="-497.5" font-family="Helvetica,sans-Serif" font-size="10.00">E:/Dropbox/BI_FIT_CVUT</text>
<text text-anchor="start" x="932" y="-486.5" font-family="Helvetica,sans-Serif" font-size="10.00">/2. semestr/PA2/GameBook</text>
<text text-anchor="middle" x="994" y="-475.5" font-family="Helvetica,sans-Serif" font-size="10.00">/Creature.cpp</text>
</a>
</g>
</g>
<!-- Node35&#45;&gt;Node36 -->
<g id="edge48" class="edge"><title>Node35&#45;&gt;Node36</title>
<path fill="none" stroke="midnightblue" d="M934.397,-539.779C946.293,-529.843 959.616,-518.716 970.645,-509.506"/>
<polygon fill="midnightblue" stroke="midnightblue" points="931.867,-537.332 926.435,-546.428 936.354,-542.704 931.867,-537.332"/>
</g>
</g>
</svg>
