<?xml version="1.0" encoding="UTF-8" standalone="no"?>
<!DOCTYPE svg PUBLIC "-//W3C//DTD SVG 1.1//EN"
 "http://www.w3.org/Graphics/SVG/1.1/DTD/svg11.dtd">
<!-- Generated by graphviz version 2.38.0 (20140413.2041)
 -->
<!-- Title: E:/Dropbox/BI_FIT_CVUT/2. semestr/PA2/GameBook/GameMenus.cpp Pages: 1 -->
<svg width="202pt" height="162pt"
 viewBox="0.00 0.00 201.50 162.00" xmlns="http://www.w3.org/2000/svg" xmlns:xlink="http://www.w3.org/1999/xlink">
<g id="graph0" class="graph" transform="scale(1 1) rotate(0) translate(4 158)">
<title>E:/Dropbox/BI_FIT_CVUT/2. semestr/PA2/GameBook/GameMenus.cpp</title>
<!-- Node0 -->
<g id="node1" class="node"><title>Node0</title>
<polygon fill="#bfbfbf" stroke="black" points="10.5,-112.5 10.5,-153.5 150.5,-153.5 150.5,-112.5 10.5,-112.5"/>
<text text-anchor="start" x="18.5" y="-141.5" font-family="Helvetica,sans-Serif" font-size="10.00">E:/Dropbox/BI_FIT_CVUT</text>
<text text-anchor="start" x="18.5" y="-130.5" font-family="Helvetica,sans-Serif" font-size="10.00">/2. semestr/PA2/GameBook</text>
<text text-anchor="middle" x="80.5" y="-119.5" font-family="Helvetica,sans-Serif" font-size="10.00">/GameMenus.cpp</text>
</g>
<!-- Node1 -->
<g id="node2" class="node"><title>Node1</title>
<g id="a_node2"><a xlink:href="_game_menus_8h.html" target="_top" xlink:title="GameMenus.h">
<polygon fill="none" stroke="black" points="40.5,-56.5 40.5,-75.5 120.5,-75.5 120.5,-56.5 40.5,-56.5"/>
<text text-anchor="middle" x="80.5" y="-63.5" font-family="Helvetica,sans-Serif" font-size="10.00">GameMenus.h</text>
</a>
</g>
</g>
<!-- Node0&#45;&gt;Node1 -->
<g id="edge1" class="edge"><title>Node0&#45;&gt;Node1</title>
<path fill="none" stroke="midnightblue" d="M80.5,-112.498C80.5,-104.065 80.5,-94.2351 80.5,-85.874"/>
<polygon fill="midnightblue" stroke="midnightblue" points="84.0001,-85.6525 80.5,-75.6525 77.0001,-85.6525 84.0001,-85.6525"/>
</g>
<!-- Node2 -->
<g id="node3" class="node"><title>Node2</title>
<polygon fill="none" stroke="#bfbfbf" points="0,-0.5 0,-19.5 41,-19.5 41,-0.5 0,-0.5"/>
<text text-anchor="middle" x="20.5" y="-7.5" font-family="Helvetica,sans-Serif" font-size="10.00">string</text>
</g>
<!-- Node1&#45;&gt;Node2 -->
<g id="edge2" class="edge"><title>Node1&#45;&gt;Node2</title>
<path fill="none" stroke="midnightblue" d="M70.86,-56.324C61.9904,-48.3414 48.6253,-36.3128 37.8921,-26.6529"/>
<polygon fill="midnightblue" stroke="midnightblue" points="40.0898,-23.922 30.3154,-19.8339 35.407,-29.1251 40.0898,-23.922"/>
</g>
<!-- Node3 -->
<g id="node4" class="node"><title>Node3</title>
<polygon fill="none" stroke="#bfbfbf" points="59.5,-0.5 59.5,-19.5 101.5,-19.5 101.5,-0.5 59.5,-0.5"/>
<text text-anchor="middle" x="80.5" y="-7.5" font-family="Helvetica,sans-Serif" font-size="10.00">vector</text>
</g>
<!-- Node1&#45;&gt;Node3 -->
<g id="edge3" class="edge"><title>Node1&#45;&gt;Node3</title>
<path fill="none" stroke="midnightblue" d="M80.5,-56.083C80.5,-49.0059 80.5,-38.8611 80.5,-29.9865"/>
<polygon fill="midnightblue" stroke="midnightblue" points="84.0001,-29.751 80.5,-19.7511 77.0001,-29.7511 84.0001,-29.751"/>
</g>
<!-- Node4 -->
<g id="node5" class="node"><title>Node4</title>
<g id="a_node5"><a xlink:href="_actions_list_8h.html" target="_top" xlink:title="ActionsList.h">
<polygon fill="none" stroke="black" points="119.5,-0.5 119.5,-19.5 193.5,-19.5 193.5,-0.5 119.5,-0.5"/>
<text text-anchor="middle" x="156.5" y="-7.5" font-family="Helvetica,sans-Serif" font-size="10.00">ActionsList.h</text>
</a>
</g>
</g>
<!-- Node1&#45;&gt;Node4 -->
<g id="edge4" class="edge"><title>Node1&#45;&gt;Node4</title>
<path fill="none" stroke="midnightblue" d="M92.7107,-56.324C104.276,-48.1066 121.875,-35.6017 135.661,-25.8069"/>
<polygon fill="midnightblue" stroke="midnightblue" points="137.943,-28.4791 144.067,-19.8339 133.888,-22.7729 137.943,-28.4791"/>
</g>
</g>
</svg>
