<?xml version="1.0" encoding="UTF-8" standalone="no"?>
<!DOCTYPE svg PUBLIC "-//W3C//DTD SVG 1.1//EN"
 "http://www.w3.org/Graphics/SVG/1.1/DTD/svg11.dtd">
<!-- Generated by graphviz version 2.38.0 (20140413.2041)
 -->
<!-- Title: E:/Dropbox/BI_FIT_CVUT/2. semestr/PA2/GameBook/Game.h Pages: 1 -->
<svg width="306pt" height="128pt"
 viewBox="0.00 0.00 306.00 128.00" xmlns="http://www.w3.org/2000/svg" xmlns:xlink="http://www.w3.org/1999/xlink">
<g id="graph0" class="graph" transform="scale(1 1) rotate(0) translate(4 124)">
<title>E:/Dropbox/BI_FIT_CVUT/2. semestr/PA2/GameBook/Game.h</title>
<!-- Node34 -->
<g id="node1" class="node"><title>Node34</title>
<polygon fill="#bfbfbf" stroke="black" points="79,-78.5 79,-119.5 219,-119.5 219,-78.5 79,-78.5"/>
<text text-anchor="start" x="87" y="-107.5" font-family="Helvetica,sans-Serif" font-size="10.00">E:/Dropbox/BI_FIT_CVUT</text>
<text text-anchor="start" x="87" y="-96.5" font-family="Helvetica,sans-Serif" font-size="10.00">/2. semestr/PA2/GameBook</text>
<text text-anchor="middle" x="149" y="-85.5" font-family="Helvetica,sans-Serif" font-size="10.00">/Game.h</text>
</g>
<!-- Node35 -->
<g id="node2" class="node"><title>Node35</title>
<g id="a_node2"><a xlink:href="_game_8cpp.html" target="_top" xlink:title="E:/Dropbox/BI_FIT_CVUT\l/2. semestr/PA2/GameBook\l/Game.cpp">
<polygon fill="none" stroke="black" points="0,-0.5 0,-41.5 140,-41.5 140,-0.5 0,-0.5"/>
<text text-anchor="start" x="8" y="-29.5" font-family="Helvetica,sans-Serif" font-size="10.00">E:/Dropbox/BI_FIT_CVUT</text>
<text text-anchor="start" x="8" y="-18.5" font-family="Helvetica,sans-Serif" font-size="10.00">/2. semestr/PA2/GameBook</text>
<text text-anchor="middle" x="70" y="-7.5" font-family="Helvetica,sans-Serif" font-size="10.00">/Game.cpp</text>
</a>
</g>
</g>
<!-- Node34&#45;&gt;Node35 -->
<g id="edge1" class="edge"><title>Node34&#45;&gt;Node35</title>
<path fill="none" stroke="midnightblue" d="M121.445,-71.4916C111.194,-61.6294 99.7574,-50.6273 90.2755,-41.5056"/>
<polygon fill="midnightblue" stroke="midnightblue" points="119.022,-74.0175 128.656,-78.4281 123.875,-68.9729 119.022,-74.0175"/>
</g>
<!-- Node36 -->
<g id="node3" class="node"><title>Node36</title>
<g id="a_node3"><a xlink:href="main_8cpp.html" target="_top" xlink:title="E:/Dropbox/BI_FIT_CVUT\l/2. semestr/PA2/GameBook\l/main.cpp">
<polygon fill="none" stroke="black" points="158,-0.5 158,-41.5 298,-41.5 298,-0.5 158,-0.5"/>
<text text-anchor="start" x="166" y="-29.5" font-family="Helvetica,sans-Serif" font-size="10.00">E:/Dropbox/BI_FIT_CVUT</text>
<text text-anchor="start" x="166" y="-18.5" font-family="Helvetica,sans-Serif" font-size="10.00">/2. semestr/PA2/GameBook</text>
<text text-anchor="middle" x="228" y="-7.5" font-family="Helvetica,sans-Serif" font-size="10.00">/main.cpp</text>
</a>
</g>
</g>
<!-- Node34&#45;&gt;Node36 -->
<g id="edge2" class="edge"><title>Node34&#45;&gt;Node36</title>
<path fill="none" stroke="midnightblue" d="M176.555,-71.4916C186.806,-61.6294 198.243,-50.6273 207.724,-41.5056"/>
<polygon fill="midnightblue" stroke="midnightblue" points="174.125,-68.9729 169.344,-78.4281 178.978,-74.0175 174.125,-68.9729"/>
</g>
</g>
</svg>
