<?xml version="1.0" encoding="UTF-8" standalone="no"?>
<!DOCTYPE svg PUBLIC "-//W3C//DTD SVG 1.1//EN"
 "http://www.w3.org/Graphics/SVG/1.1/DTD/svg11.dtd">
<!-- Generated by graphviz version 2.38.0 (20140413.2041)
 -->
<!-- Title: E:/Dropbox/BI_FIT_CVUT/2. semestr/PA2/GameBook/Hero.cpp Pages: 1 -->
<svg width="794pt" height="386pt"
 viewBox="0.00 0.00 793.73 386.00" xmlns="http://www.w3.org/2000/svg" xmlns:xlink="http://www.w3.org/1999/xlink">
<g id="graph0" class="graph" transform="scale(1 1) rotate(0) translate(4 382)">
<title>E:/Dropbox/BI_FIT_CVUT/2. semestr/PA2/GameBook/Hero.cpp</title>
<!-- Node0 -->
<g id="node1" class="node"><title>Node0</title>
<polygon fill="#bfbfbf" stroke="black" points="258,-336.5 258,-377.5 398,-377.5 398,-336.5 258,-336.5"/>
<text text-anchor="start" x="266" y="-365.5" font-family="Helvetica,sans-Serif" font-size="10.00">E:/Dropbox/BI_FIT_CVUT</text>
<text text-anchor="start" x="266" y="-354.5" font-family="Helvetica,sans-Serif" font-size="10.00">/2. semestr/PA2/GameBook</text>
<text text-anchor="middle" x="328" y="-343.5" font-family="Helvetica,sans-Serif" font-size="10.00">/Hero.cpp</text>
</g>
<!-- Node1 -->
<g id="node2" class="node"><title>Node1</title>
<g id="a_node2"><a xlink:href="_hero_8h.html" target="_top" xlink:title="Hero.h">
<polygon fill="none" stroke="black" points="305.5,-280.5 305.5,-299.5 350.5,-299.5 350.5,-280.5 305.5,-280.5"/>
<text text-anchor="middle" x="328" y="-287.5" font-family="Helvetica,sans-Serif" font-size="10.00">Hero.h</text>
</a>
</g>
</g>
<!-- Node0&#45;&gt;Node1 -->
<g id="edge1" class="edge"><title>Node0&#45;&gt;Node1</title>
<path fill="none" stroke="midnightblue" d="M328,-336.498C328,-328.065 328,-318.235 328,-309.874"/>
<polygon fill="midnightblue" stroke="midnightblue" points="331.5,-309.652 328,-299.652 324.5,-309.653 331.5,-309.652"/>
</g>
<!-- Node2 -->
<g id="node3" class="node"><title>Node2</title>
<polygon fill="none" stroke="#bfbfbf" points="155,-56.5 155,-75.5 209,-75.5 209,-56.5 155,-56.5"/>
<text text-anchor="middle" x="182" y="-63.5" font-family="Helvetica,sans-Serif" font-size="10.00">iostream</text>
</g>
<!-- Node1&#45;&gt;Node2 -->
<g id="edge2" class="edge"><title>Node1&#45;&gt;Node2</title>
<path fill="none" stroke="midnightblue" d="M305.493,-289.683C271.999,-289.322 209.887,-283.053 181,-244 145.877,-196.516 164.057,-120.563 175.3,-85.6536"/>
<polygon fill="midnightblue" stroke="midnightblue" points="178.728,-86.4441 178.63,-75.8498 172.1,-84.1926 178.728,-86.4441"/>
</g>
<!-- Node3 -->
<g id="node4" class="node"><title>Node3</title>
<polygon fill="none" stroke="#bfbfbf" points="233.5,-0.5 233.5,-19.5 274.5,-19.5 274.5,-0.5 233.5,-0.5"/>
<text text-anchor="middle" x="254" y="-7.5" font-family="Helvetica,sans-Serif" font-size="10.00">string</text>
</g>
<!-- Node1&#45;&gt;Node3 -->
<g id="edge3" class="edge"><title>Node1&#45;&gt;Node3</title>
<path fill="none" stroke="midnightblue" d="M305.297,-287.123C248.469,-282.123 101.599,-267.258 59,-244 24.7564,-225.304 0,-218.015 0,-179 0,-179 0,-179 0,-121 0,-24.7533 155.472,-11.7762 223.144,-10.6864"/>
<polygon fill="midnightblue" stroke="midnightblue" points="223.244,-14.1858 233.214,-10.6027 223.185,-7.18607 223.244,-14.1858"/>
</g>
<!-- Node4 -->
<g id="node5" class="node"><title>Node4</title>
<polygon fill="none" stroke="#bfbfbf" points="84,-224.5 84,-243.5 134,-243.5 134,-224.5 84,-224.5"/>
<text text-anchor="middle" x="109" y="-231.5" font-family="Helvetica,sans-Serif" font-size="10.00">typeinfo</text>
</g>
<!-- Node1&#45;&gt;Node4 -->
<g id="edge4" class="edge"><title>Node1&#45;&gt;Node4</title>
<path fill="none" stroke="midnightblue" d="M305.388,-283.424C267.165,-274 189.519,-254.854 144.148,-243.667"/>
<polygon fill="midnightblue" stroke="midnightblue" points="144.714,-240.202 134.167,-241.206 143.038,-246.998 144.714,-240.202"/>
</g>
<!-- Node5 -->
<g id="node6" class="node"><title>Node5</title>
<g id="a_node6"><a xlink:href="_creature_8h.html" target="_top" xlink:title="Creature.h">
<polygon fill="none" stroke="black" points="372,-168.5 372,-187.5 434,-187.5 434,-168.5 372,-168.5"/>
<text text-anchor="middle" x="403" y="-175.5" font-family="Helvetica,sans-Serif" font-size="10.00">Creature.h</text>
</a>
</g>
</g>
<!-- Node1&#45;&gt;Node5 -->
<g id="edge5" class="edge"><title>Node1&#45;&gt;Node5</title>
<path fill="none" stroke="midnightblue" d="M350.227,-280.392C365.77,-273.139 385.549,-261.172 396,-244 404.39,-230.214 405.62,-211.69 405.055,-197.944"/>
<polygon fill="midnightblue" stroke="midnightblue" points="408.526,-197.435 404.276,-187.73 401.546,-197.968 408.526,-197.435"/>
</g>
<!-- Node6 -->
<g id="node7" class="node"><title>Node6</title>
<g id="a_node7"><a xlink:href="_display_8h.html" target="_top" xlink:title="Display.h">
<polygon fill="none" stroke="black" points="356.5,-112.5 356.5,-131.5 413.5,-131.5 413.5,-112.5 356.5,-112.5"/>
<text text-anchor="middle" x="385" y="-119.5" font-family="Helvetica,sans-Serif" font-size="10.00">Display.h</text>
</a>
</g>
</g>
<!-- Node1&#45;&gt;Node6 -->
<g id="edge22" class="edge"><title>Node1&#45;&gt;Node6</title>
<path fill="none" stroke="midnightblue" d="M350.85,-281.456C369.704,-274.282 396.165,-261.911 414,-244 433.777,-224.139 436.367,-215.232 443,-188 445.104,-179.364 446.91,-175.983 443,-168 436.477,-154.684 423.904,-144.177 412.127,-136.676"/>
<polygon fill="midnightblue" stroke="midnightblue" points="413.782,-133.589 403.389,-131.529 410.229,-139.621 413.782,-133.589"/>
</g>
<!-- Node9 -->
<g id="node10" class="node"><title>Node9</title>
<g id="a_node10"><a xlink:href="_errors_list_8h.html" target="_top" xlink:title="ErrorsList.h">
<polygon fill="none" stroke="black" points="477.5,-56.5 477.5,-75.5 544.5,-75.5 544.5,-56.5 477.5,-56.5"/>
<text text-anchor="middle" x="511" y="-63.5" font-family="Helvetica,sans-Serif" font-size="10.00">ErrorsList.h</text>
</a>
</g>
</g>
<!-- Node1&#45;&gt;Node9 -->
<g id="edge21" class="edge"><title>Node1&#45;&gt;Node9</title>
<path fill="none" stroke="midnightblue" d="M350.895,-284.92C375.164,-279.494 413.206,-267.688 437,-244 482.579,-198.624 501.501,-120.994 508.048,-85.5866"/>
<polygon fill="midnightblue" stroke="midnightblue" points="511.508,-86.1178 509.757,-75.6687 504.61,-84.9292 511.508,-86.1178"/>
</g>
<!-- Node11 -->
<g id="node12" class="node"><title>Node11</title>
<g id="a_node12"><a xlink:href="_inventory_8h.html" target="_top" xlink:title="Inventory.h">
<polygon fill="none" stroke="black" points="713.5,-112.5 713.5,-131.5 776.5,-131.5 776.5,-112.5 713.5,-112.5"/>
<text text-anchor="middle" x="745" y="-119.5" font-family="Helvetica,sans-Serif" font-size="10.00">Inventory.h</text>
</a>
</g>
</g>
<!-- Node1&#45;&gt;Node11 -->
<g id="edge17" class="edge"><title>Node1&#45;&gt;Node11</title>
<path fill="none" stroke="midnightblue" d="M350.693,-286.897C391.144,-282.591 477.855,-270.819 546,-244 617.149,-215.999 691.769,-163.342 725.91,-137.734"/>
<polygon fill="midnightblue" stroke="midnightblue" points="728.208,-140.384 734.062,-131.553 723.978,-134.806 728.208,-140.384"/>
</g>
<!-- Node13 -->
<g id="node14" class="node"><title>Node13</title>
<g id="a_node14"><a xlink:href="_armour_8h.html" target="_top" xlink:title="Armour.h">
<polygon fill="none" stroke="black" points="190,-224.5 190,-243.5 246,-243.5 246,-224.5 190,-224.5"/>
<text text-anchor="middle" x="218" y="-231.5" font-family="Helvetica,sans-Serif" font-size="10.00">Armour.h</text>
</a>
</g>
</g>
<!-- Node1&#45;&gt;Node13 -->
<g id="edge23" class="edge"><title>Node1&#45;&gt;Node13</title>
<path fill="none" stroke="midnightblue" d="M310.327,-280.324C292.606,-271.625 265.097,-258.12 244.712,-248.113"/>
<polygon fill="midnightblue" stroke="midnightblue" points="246.149,-244.919 235.63,-243.655 243.064,-251.203 246.149,-244.919"/>
</g>
<!-- Node14 -->
<g id="node15" class="node"><title>Node14</title>
<g id="a_node15"><a xlink:href="_item_8h.html" target="_top" xlink:title="Item.h">
<polygon fill="none" stroke="black" points="219,-168.5 219,-187.5 263,-187.5 263,-168.5 219,-168.5"/>
<text text-anchor="middle" x="241" y="-175.5" font-family="Helvetica,sans-Serif" font-size="10.00">Item.h</text>
</a>
</g>
</g>
<!-- Node1&#45;&gt;Node14 -->
<g id="edge33" class="edge"><title>Node1&#45;&gt;Node14</title>
<path fill="none" stroke="midnightblue" d="M321.173,-280.368C306.752,-262.135 272.973,-219.426 254.189,-195.675"/>
<polygon fill="midnightblue" stroke="midnightblue" points="256.744,-193.264 247.795,-187.591 251.253,-197.606 256.744,-193.264"/>
</g>
<!-- Node15 -->
<g id="node16" class="node"><title>Node15</title>
<g id="a_node16"><a xlink:href="_equipment_8h.html" target="_top" xlink:title="Equipment.h">
<polygon fill="none" stroke="black" points="228.5,-112.5 228.5,-131.5 299.5,-131.5 299.5,-112.5 228.5,-112.5"/>
<text text-anchor="middle" x="264" y="-119.5" font-family="Helvetica,sans-Serif" font-size="10.00">Equipment.h</text>
</a>
</g>
</g>
<!-- Node1&#45;&gt;Node15 -->
<g id="edge34" class="edge"><title>Node1&#45;&gt;Node15</title>
<path fill="none" stroke="midnightblue" d="M338.17,-280.457C351.335,-268.295 371.625,-245.12 363,-224 347.525,-186.106 310.224,-154.736 286.085,-137.462"/>
<polygon fill="midnightblue" stroke="midnightblue" points="287.763,-134.367 277.551,-131.547 283.776,-140.12 287.763,-134.367"/>
</g>
<!-- Node16 -->
<g id="node17" class="node"><title>Node16</title>
<g id="a_node17"><a xlink:href="_hero_stats_8h.html" target="_top" xlink:title="HeroStats.h">
<polygon fill="none" stroke="black" points="28,-112.5 28,-131.5 96,-131.5 96,-112.5 28,-112.5"/>
<text text-anchor="middle" x="62" y="-119.5" font-family="Helvetica,sans-Serif" font-size="10.00">HeroStats.h</text>
</a>
</g>
</g>
<!-- Node1&#45;&gt;Node16 -->
<g id="edge35" class="edge"><title>Node1&#45;&gt;Node16</title>
<path fill="none" stroke="midnightblue" d="M305.182,-288.318C248.969,-286.134 106.124,-277.349 75,-244 49.1423,-216.294 53.1383,-168.008 57.847,-141.585"/>
<polygon fill="midnightblue" stroke="midnightblue" points="61.2901,-142.216 59.8237,-131.723 54.4266,-140.84 61.2901,-142.216"/>
</g>
<!-- Node17 -->
<g id="node18" class="node"><title>Node17</title>
<g id="a_node18"><a xlink:href="_sword_8h.html" target="_top" xlink:title="Sword.h">
<polygon fill="none" stroke="black" points="302,-224.5 302,-243.5 354,-243.5 354,-224.5 302,-224.5"/>
<text text-anchor="middle" x="328" y="-231.5" font-family="Helvetica,sans-Serif" font-size="10.00">Sword.h</text>
</a>
</g>
</g>
<!-- Node1&#45;&gt;Node17 -->
<g id="edge31" class="edge"><title>Node1&#45;&gt;Node17</title>
<path fill="none" stroke="midnightblue" d="M328,-280.083C328,-273.006 328,-262.861 328,-253.986"/>
<polygon fill="midnightblue" stroke="midnightblue" points="331.5,-253.751 328,-243.751 324.5,-253.751 331.5,-253.751"/>
</g>
<!-- Node18 -->
<g id="node19" class="node"><title>Node18</title>
<g id="a_node19"><a xlink:href="_stream_decoder_8h.html" target="_top" xlink:title="StreamDecoder.h">
<polygon fill="none" stroke="black" points="560,-112.5 560,-131.5 652,-131.5 652,-112.5 560,-112.5"/>
<text text-anchor="middle" x="606" y="-119.5" font-family="Helvetica,sans-Serif" font-size="10.00">StreamDecoder.h</text>
</a>
</g>
</g>
<!-- Node1&#45;&gt;Node18 -->
<g id="edge36" class="edge"><title>Node1&#45;&gt;Node18</title>
<path fill="none" stroke="midnightblue" d="M350.575,-288.811C388.852,-287.454 467.53,-280.091 521,-244 559.697,-217.88 586.31,-167.808 598.478,-140.996"/>
<polygon fill="midnightblue" stroke="midnightblue" points="601.762,-142.223 602.555,-131.658 595.346,-139.422 601.762,-142.223"/>
</g>
<!-- Node5&#45;&gt;Node3 -->
<g id="edge6" class="edge"><title>Node5&#45;&gt;Node3</title>
<path fill="none" stroke="midnightblue" d="M390.886,-168.293C379.168,-159.639 361.154,-145.712 347,-132 312.897,-98.9619 280.966,-52.8827 264.878,-28.2117"/>
<polygon fill="midnightblue" stroke="midnightblue" points="267.693,-26.118 259.341,-19.5993 261.805,-29.9036 267.693,-26.118"/>
</g>
<!-- Node5&#45;&gt;Node6 -->
<g id="edge7" class="edge"><title>Node5&#45;&gt;Node6</title>
<path fill="none" stroke="midnightblue" d="M400.028,-168.083C397.616,-160.849 394.136,-150.409 391.132,-141.397"/>
<polygon fill="midnightblue" stroke="midnightblue" points="394.4,-140.131 387.917,-131.751 387.759,-142.345 394.4,-140.131"/>
</g>
<!-- Node6&#45;&gt;Node2 -->
<g id="edge10" class="edge"><title>Node6&#45;&gt;Node2</title>
<path fill="none" stroke="midnightblue" d="M356.346,-113.378C320.353,-103.803 258.529,-87.3575 218.997,-76.8414"/>
<polygon fill="midnightblue" stroke="midnightblue" points="219.775,-73.4269 209.211,-74.2385 217.975,-80.1916 219.775,-73.4269"/>
</g>
<!-- Node6&#45;&gt;Node3 -->
<g id="edge9" class="edge"><title>Node6&#45;&gt;Node3</title>
<path fill="none" stroke="midnightblue" d="M372.781,-112.373C360.464,-103.553 341.036,-89.2998 325,-76 305.645,-59.947 284.514,-40.3092 270.381,-26.8466"/>
<polygon fill="midnightblue" stroke="midnightblue" points="272.576,-24.1018 262.935,-19.7073 267.731,-29.1545 272.576,-24.1018"/>
</g>
<!-- Node7 -->
<g id="node8" class="node"><title>Node7</title>
<polygon fill="none" stroke="#bfbfbf" points="544,-0.5 544,-19.5 586,-19.5 586,-0.5 544,-0.5"/>
<text text-anchor="middle" x="565" y="-7.5" font-family="Helvetica,sans-Serif" font-size="10.00">vector</text>
</g>
<!-- Node6&#45;&gt;Node7 -->
<g id="edge8" class="edge"><title>Node6&#45;&gt;Node7</title>
<path fill="none" stroke="midnightblue" d="M394.675,-112.206C409.625,-98.9085 439.591,-73.3932 468,-56 489.264,-42.9811 514.916,-31.2365 534.498,-23.0125"/>
<polygon fill="midnightblue" stroke="midnightblue" points="535.941,-26.2033 543.853,-19.1565 533.273,-19.7315 535.941,-26.2033"/>
</g>
<!-- Node8 -->
<g id="node9" class="node"><title>Node8</title>
<g id="a_node9"><a xlink:href="_actions_list_8h.html" target="_top" xlink:title="ActionsList.h">
<polygon fill="none" stroke="black" points="310,-0.5 310,-19.5 384,-19.5 384,-0.5 310,-0.5"/>
<text text-anchor="middle" x="347" y="-7.5" font-family="Helvetica,sans-Serif" font-size="10.00">ActionsList.h</text>
</a>
</g>
</g>
<!-- Node6&#45;&gt;Node8 -->
<g id="edge11" class="edge"><title>Node6&#45;&gt;Node8</title>
<path fill="none" stroke="midnightblue" d="M368.666,-112.387C356.045,-104.72 339.503,-92.2127 332,-76 325.023,-60.9241 330.574,-42.3363 336.804,-28.905"/>
<polygon fill="midnightblue" stroke="midnightblue" points="340.035,-30.2751 341.504,-19.7826 333.812,-27.0689 340.035,-30.2751"/>
</g>
<!-- Node6&#45;&gt;Node9 -->
<g id="edge12" class="edge"><title>Node6&#45;&gt;Node9</title>
<path fill="none" stroke="midnightblue" d="M404.965,-112.444C425.609,-103.596 458.063,-89.6875 481.632,-79.5865"/>
<polygon fill="midnightblue" stroke="midnightblue" points="483.316,-82.6727 491.128,-75.5164 480.558,-76.2387 483.316,-82.6727"/>
</g>
<!-- Node10 -->
<g id="node11" class="node"><title>Node10</title>
<g id="a_node11"><a xlink:href="_game_menus_8h.html" target="_top" xlink:title="GameMenus.h">
<polygon fill="none" stroke="black" points="341,-56.5 341,-75.5 421,-75.5 421,-56.5 341,-56.5"/>
<text text-anchor="middle" x="381" y="-63.5" font-family="Helvetica,sans-Serif" font-size="10.00">GameMenus.h</text>
</a>
</g>
</g>
<!-- Node6&#45;&gt;Node10 -->
<g id="edge13" class="edge"><title>Node6&#45;&gt;Node10</title>
<path fill="none" stroke="midnightblue" d="M384.339,-112.083C383.815,-105.006 383.064,-94.8611 382.406,-85.9865"/>
<polygon fill="midnightblue" stroke="midnightblue" points="385.877,-85.4652 381.648,-75.7511 378.897,-85.9823 385.877,-85.4652"/>
</g>
<!-- Node10&#45;&gt;Node3 -->
<g id="edge14" class="edge"><title>Node10&#45;&gt;Node3</title>
<path fill="none" stroke="midnightblue" d="M360.876,-56.4435C339.976,-47.5566 307.065,-33.5632 283.284,-23.4514"/>
<polygon fill="midnightblue" stroke="midnightblue" points="284.602,-20.2085 274.029,-19.5164 281.862,-26.6504 284.602,-20.2085"/>
</g>
<!-- Node10&#45;&gt;Node7 -->
<g id="edge15" class="edge"><title>Node10&#45;&gt;Node7</title>
<path fill="none" stroke="midnightblue" d="M410.155,-56.4435C443.95,-46.5255 499.417,-30.2473 533.984,-20.1025"/>
<polygon fill="midnightblue" stroke="midnightblue" points="535.384,-23.3393 543.994,-17.1649 533.413,-16.6226 535.384,-23.3393"/>
</g>
<!-- Node10&#45;&gt;Node8 -->
<g id="edge16" class="edge"><title>Node10&#45;&gt;Node8</title>
<path fill="none" stroke="midnightblue" d="M375.386,-56.083C370.633,-48.5341 363.682,-37.4948 357.848,-28.2298"/>
<polygon fill="midnightblue" stroke="midnightblue" points="360.8,-26.3486 352.51,-19.7511 354.876,-30.0783 360.8,-26.3486"/>
</g>
<!-- Node11&#45;&gt;Node3 -->
<g id="edge20" class="edge"><title>Node11&#45;&gt;Node3</title>
<path fill="none" stroke="midnightblue" d="M748.923,-112.093C754.379,-98.1721 762.096,-71.2765 748,-56 714.21,-19.3797 350.376,-26.6955 301,-20 295.682,-19.2789 290.056,-18.3487 284.615,-17.3608"/>
<polygon fill="midnightblue" stroke="midnightblue" points="284.99,-13.8693 274.511,-15.4299 283.676,-20.7448 284.99,-13.8693"/>
</g>
<!-- Node11&#45;&gt;Node7 -->
<g id="edge19" class="edge"><title>Node11&#45;&gt;Node7</title>
<path fill="none" stroke="midnightblue" d="M755.998,-112.412C771.368,-99.3841 795.812,-74.2158 781,-56 758.061,-27.7893 650.358,-16.6723 596.224,-12.8105"/>
<polygon fill="midnightblue" stroke="midnightblue" points="596.365,-9.31213 586.152,-12.1319 595.894,-16.2963 596.365,-9.31213"/>
</g>
<!-- Node12 -->
<g id="node13" class="node"><title>Node12</title>
<polygon fill="none" stroke="#bfbfbf" points="709,-56.5 709,-75.5 739,-75.5 739,-56.5 709,-56.5"/>
<text text-anchor="middle" x="724" y="-63.5" font-family="Helvetica,sans-Serif" font-size="10.00">set</text>
</g>
<!-- Node11&#45;&gt;Node12 -->
<g id="edge18" class="edge"><title>Node11&#45;&gt;Node12</title>
<path fill="none" stroke="midnightblue" d="M741.532,-112.083C738.688,-104.77 734.571,-94.1814 731.04,-85.1034"/>
<polygon fill="midnightblue" stroke="midnightblue" points="734.29,-83.8025 727.403,-75.7511 727.766,-86.3397 734.29,-83.8025"/>
</g>
<!-- Node13&#45;&gt;Node14 -->
<g id="edge24" class="edge"><title>Node13&#45;&gt;Node14</title>
<path fill="none" stroke="midnightblue" d="M221.798,-224.083C224.913,-216.77 229.423,-206.181 233.289,-197.103"/>
<polygon fill="midnightblue" stroke="midnightblue" points="236.574,-198.323 237.273,-187.751 230.134,-195.58 236.574,-198.323"/>
</g>
<!-- Node14&#45;&gt;Node2 -->
<g id="edge25" class="edge"><title>Node14&#45;&gt;Node2</title>
<path fill="none" stroke="midnightblue" d="M236.37,-168.368C226.72,-150.376 204.286,-108.55 191.454,-84.6267"/>
<polygon fill="midnightblue" stroke="midnightblue" points="194.419,-82.7495 186.608,-75.5914 188.25,-86.0582 194.419,-82.7495"/>
</g>
<!-- Node14&#45;&gt;Node3 -->
<g id="edge26" class="edge"><title>Node14&#45;&gt;Node3</title>
<path fill="none" stroke="midnightblue" d="M224.841,-168.398C190.648,-149.053 116.444,-100.334 146,-56 163.132,-30.3019 198.013,-19.2556 223.515,-14.5219"/>
<polygon fill="midnightblue" stroke="midnightblue" points="224.143,-17.9657 233.45,-12.9031 223.018,-11.0568 224.143,-17.9657"/>
</g>
<!-- Node14&#45;&gt;Node6 -->
<g id="edge27" class="edge"><title>Node14&#45;&gt;Node6</title>
<path fill="none" stroke="midnightblue" d="M263.184,-168.681C287.074,-159.722 325.316,-145.382 352.576,-135.159"/>
<polygon fill="midnightblue" stroke="midnightblue" points="353.941,-138.385 362.076,-131.597 351.484,-131.831 353.941,-138.385"/>
</g>
<!-- Node14&#45;&gt;Node15 -->
<g id="edge28" class="edge"><title>Node14&#45;&gt;Node15</title>
<path fill="none" stroke="midnightblue" d="M244.798,-168.083C247.913,-160.77 252.423,-150.181 256.289,-141.103"/>
<polygon fill="midnightblue" stroke="midnightblue" points="259.574,-142.323 260.273,-131.751 253.134,-139.58 259.574,-142.323"/>
</g>
<!-- Node14&#45;&gt;Node16 -->
<g id="edge29" class="edge"><title>Node14&#45;&gt;Node16</title>
<path fill="none" stroke="midnightblue" d="M218.691,-170.27C188.966,-161.303 135.936,-145.305 99.8838,-134.429"/>
<polygon fill="midnightblue" stroke="midnightblue" points="100.784,-131.044 90.1988,-131.507 98.7617,-137.746 100.784,-131.044"/>
</g>
<!-- Node16&#45;&gt;Node3 -->
<g id="edge30" class="edge"><title>Node16&#45;&gt;Node3</title>
<path fill="none" stroke="midnightblue" d="M66.0365,-112.473C73.0378,-98.5901 88.7458,-71.1352 110,-56 144.258,-31.6047 192.192,-20.1086 223.169,-14.9277"/>
<polygon fill="midnightblue" stroke="midnightblue" points="224.022,-18.3374 233.368,-13.3477 222.95,-11.4199 224.022,-18.3374"/>
</g>
<!-- Node17&#45;&gt;Node14 -->
<g id="edge32" class="edge"><title>Node17&#45;&gt;Node14</title>
<path fill="none" stroke="midnightblue" d="M314.022,-224.324C300.45,-215.9 279.62,-202.971 263.675,-193.074"/>
<polygon fill="midnightblue" stroke="midnightblue" points="265.286,-189.954 254.943,-187.655 261.594,-195.902 265.286,-189.954"/>
</g>
<!-- Node18&#45;&gt;Node3 -->
<g id="edge37" class="edge"><title>Node18&#45;&gt;Node3</title>
<path fill="none" stroke="midnightblue" d="M601.568,-112.066C593.873,-97.5991 576.579,-69.3232 553,-56 454.5,-0.342925 412.59,-38.6442 301,-20 295.707,-19.1156 290.093,-18.1046 284.656,-17.0871"/>
<polygon fill="midnightblue" stroke="midnightblue" points="285.032,-13.5956 274.553,-15.154 283.717,-20.4709 285.032,-13.5956"/>
</g>
<!-- Node18&#45;&gt;Node7 -->
<g id="edge39" class="edge"><title>Node18&#45;&gt;Node7</title>
<path fill="none" stroke="midnightblue" d="M623.121,-112.398C644.348,-100.533 676.107,-78.0961 662,-56 647.619,-33.4755 618.74,-22.0538 596.215,-16.3706"/>
<polygon fill="midnightblue" stroke="midnightblue" points="596.914,-12.9403 586.388,-14.1439 595.367,-19.7673 596.914,-12.9403"/>
</g>
<!-- Node18&#45;&gt;Node9 -->
<g id="edge41" class="edge"><title>Node18&#45;&gt;Node9</title>
<path fill="none" stroke="midnightblue" d="M590.737,-112.324C575.779,-103.822 552.745,-90.7288 535.273,-80.7975"/>
<polygon fill="midnightblue" stroke="midnightblue" points="536.649,-77.5534 526.226,-75.6545 533.19,-83.639 536.649,-77.5534"/>
</g>
<!-- Node18&#45;&gt;Node12 -->
<g id="edge40" class="edge"><title>Node18&#45;&gt;Node12</title>
<path fill="none" stroke="midnightblue" d="M624.697,-112.444C644.963,-103.169 677.382,-88.3338 699.63,-78.1522"/>
<polygon fill="midnightblue" stroke="midnightblue" points="701.13,-81.3149 708.767,-73.971 698.218,-74.9497 701.13,-81.3149"/>
</g>
<!-- Node19 -->
<g id="node20" class="node"><title>Node19</title>
<polygon fill="none" stroke="#bfbfbf" points="601,-56.5 601,-75.5 653,-75.5 653,-56.5 601,-56.5"/>
<text text-anchor="middle" x="627" y="-63.5" font-family="Helvetica,sans-Serif" font-size="10.00">sstream</text>
</g>
<!-- Node18&#45;&gt;Node19 -->
<g id="edge38" class="edge"><title>Node18&#45;&gt;Node19</title>
<path fill="none" stroke="midnightblue" d="M609.468,-112.083C612.312,-104.77 616.429,-94.1814 619.96,-85.1034"/>
<polygon fill="midnightblue" stroke="midnightblue" points="623.234,-86.3397 623.597,-75.7511 616.71,-83.8025 623.234,-86.3397"/>
</g>
</g>
</svg>
