<?xml version="1.0" encoding="UTF-8" standalone="no"?>
<!DOCTYPE svg PUBLIC "-//W3C//DTD SVG 1.1//EN"
 "http://www.w3.org/Graphics/SVG/1.1/DTD/svg11.dtd">
<!-- Generated by graphviz version 2.38.0 (20140413.2041)
 -->
<!-- Title: E:/Dropbox/BI_FIT_CVUT/2. semestr/PA2/GameBook/IOhandle.h Pages: 1 -->
<svg width="345pt" height="106pt"
 viewBox="0.00 0.00 345.00 106.00" xmlns="http://www.w3.org/2000/svg" xmlns:xlink="http://www.w3.org/1999/xlink">
<g id="graph0" class="graph" transform="scale(1 1) rotate(0) translate(4 102)">
<title>E:/Dropbox/BI_FIT_CVUT/2. semestr/PA2/GameBook/IOhandle.h</title>
<!-- Node0 -->
<g id="node1" class="node"><title>Node0</title>
<polygon fill="#bfbfbf" stroke="black" points="88.5,-56.5 88.5,-97.5 228.5,-97.5 228.5,-56.5 88.5,-56.5"/>
<text text-anchor="start" x="96.5" y="-85.5" font-family="Helvetica,sans-Serif" font-size="10.00">E:/Dropbox/BI_FIT_CVUT</text>
<text text-anchor="start" x="96.5" y="-74.5" font-family="Helvetica,sans-Serif" font-size="10.00">/2. semestr/PA2/GameBook</text>
<text text-anchor="middle" x="158.5" y="-63.5" font-family="Helvetica,sans-Serif" font-size="10.00">/IOhandle.h</text>
</g>
<!-- Node1 -->
<g id="node2" class="node"><title>Node1</title>
<polygon fill="none" stroke="#bfbfbf" points="0,-0.5 0,-19.5 49,-19.5 49,-0.5 0,-0.5"/>
<text text-anchor="middle" x="24.5" y="-7.5" font-family="Helvetica,sans-Serif" font-size="10.00">fstream</text>
</g>
<!-- Node0&#45;&gt;Node1 -->
<g id="edge1" class="edge"><title>Node0&#45;&gt;Node1</title>
<path fill="none" stroke="midnightblue" d="M118.296,-56.4979C96.6644,-46.0051 70.5717,-33.3482 51.4044,-24.0507"/>
<polygon fill="midnightblue" stroke="midnightblue" points="52.8623,-20.8679 42.3374,-19.6525 49.8072,-27.166 52.8623,-20.8679"/>
</g>
<!-- Node2 -->
<g id="node3" class="node"><title>Node2</title>
<polygon fill="none" stroke="#bfbfbf" points="67.5,-0.5 67.5,-19.5 119.5,-19.5 119.5,-0.5 67.5,-0.5"/>
<text text-anchor="middle" x="93.5" y="-7.5" font-family="Helvetica,sans-Serif" font-size="10.00">sstream</text>
</g>
<!-- Node0&#45;&gt;Node2 -->
<g id="edge2" class="edge"><title>Node0&#45;&gt;Node2</title>
<path fill="none" stroke="midnightblue" d="M138.998,-56.4979C129.511,-47.0113 118.256,-35.7557 109.313,-26.8131"/>
<polygon fill="midnightblue" stroke="midnightblue" points="111.698,-24.2487 102.152,-19.6525 106.749,-29.1985 111.698,-24.2487"/>
</g>
<!-- Node3 -->
<g id="node4" class="node"><title>Node3</title>
<polygon fill="none" stroke="#bfbfbf" points="138,-0.5 138,-19.5 179,-19.5 179,-0.5 138,-0.5"/>
<text text-anchor="middle" x="158.5" y="-7.5" font-family="Helvetica,sans-Serif" font-size="10.00">string</text>
</g>
<!-- Node0&#45;&gt;Node3 -->
<g id="edge3" class="edge"><title>Node0&#45;&gt;Node3</title>
<path fill="none" stroke="midnightblue" d="M158.5,-56.4979C158.5,-48.0653 158.5,-38.2351 158.5,-29.874"/>
<polygon fill="midnightblue" stroke="midnightblue" points="162,-29.6525 158.5,-19.6525 155,-29.6525 162,-29.6525"/>
</g>
<!-- Node4 -->
<g id="node5" class="node"><title>Node4</title>
<polygon fill="none" stroke="#bfbfbf" points="197.5,-0.5 197.5,-19.5 251.5,-19.5 251.5,-0.5 197.5,-0.5"/>
<text text-anchor="middle" x="224.5" y="-7.5" font-family="Helvetica,sans-Serif" font-size="10.00">iostream</text>
</g>
<!-- Node0&#45;&gt;Node4 -->
<g id="edge4" class="edge"><title>Node0&#45;&gt;Node4</title>
<path fill="none" stroke="midnightblue" d="M178.302,-56.4979C187.935,-47.0113 199.363,-35.7557 208.444,-26.8131"/>
<polygon fill="midnightblue" stroke="midnightblue" points="211.045,-29.1631 215.714,-19.6525 206.134,-24.1757 211.045,-29.1631"/>
</g>
<!-- Node5 -->
<g id="node6" class="node"><title>Node5</title>
<g id="a_node6"><a xlink:href="_errors_list_8h.html" target="_top" xlink:title="ErrorsList.h">
<polygon fill="none" stroke="black" points="270,-0.5 270,-19.5 337,-19.5 337,-0.5 270,-0.5"/>
<text text-anchor="middle" x="303.5" y="-7.5" font-family="Helvetica,sans-Serif" font-size="10.00">ErrorsList.h</text>
</a>
</g>
</g>
<!-- Node0&#45;&gt;Node5 -->
<g id="edge5" class="edge"><title>Node0&#45;&gt;Node5</title>
<path fill="none" stroke="midnightblue" d="M202.005,-56.4979C225.625,-45.9093 254.162,-33.1169 274.953,-23.7968"/>
<polygon fill="midnightblue" stroke="midnightblue" points="276.505,-26.9369 284.198,-19.6525 273.641,-20.5493 276.505,-26.9369"/>
</g>
</g>
</svg>
