<?xml version="1.0" encoding="UTF-8" standalone="no"?>
<!DOCTYPE svg PUBLIC "-//W3C//DTD SVG 1.1//EN"
 "http://www.w3.org/Graphics/SVG/1.1/DTD/svg11.dtd">
<!-- Generated by graphviz version 2.38.0 (20140413.2041)
 -->
<!-- Title: E:/Dropbox/BI_FIT_CVUT/2. semestr/PA2/GameBook/IOhandle.cpp Pages: 1 -->
<svg width="345pt" height="162pt"
 viewBox="0.00 0.00 345.00 162.00" xmlns="http://www.w3.org/2000/svg" xmlns:xlink="http://www.w3.org/1999/xlink">
<g id="graph0" class="graph" transform="scale(1 1) rotate(0) translate(4 158)">
<title>E:/Dropbox/BI_FIT_CVUT/2. semestr/PA2/GameBook/IOhandle.cpp</title>
<!-- Node0 -->
<g id="node1" class="node"><title>Node0</title>
<polygon fill="#bfbfbf" stroke="black" points="88.5,-112.5 88.5,-153.5 228.5,-153.5 228.5,-112.5 88.5,-112.5"/>
<text text-anchor="start" x="96.5" y="-141.5" font-family="Helvetica,sans-Serif" font-size="10.00">E:/Dropbox/BI_FIT_CVUT</text>
<text text-anchor="start" x="96.5" y="-130.5" font-family="Helvetica,sans-Serif" font-size="10.00">/2. semestr/PA2/GameBook</text>
<text text-anchor="middle" x="158.5" y="-119.5" font-family="Helvetica,sans-Serif" font-size="10.00">/IOhandle.cpp</text>
</g>
<!-- Node1 -->
<g id="node2" class="node"><title>Node1</title>
<g id="a_node2"><a xlink:href="_i_ohandle_8h.html" target="_top" xlink:title="IOhandle.h">
<polygon fill="none" stroke="black" points="127,-56.5 127,-75.5 190,-75.5 190,-56.5 127,-56.5"/>
<text text-anchor="middle" x="158.5" y="-63.5" font-family="Helvetica,sans-Serif" font-size="10.00">IOhandle.h</text>
</a>
</g>
</g>
<!-- Node0&#45;&gt;Node1 -->
<g id="edge1" class="edge"><title>Node0&#45;&gt;Node1</title>
<path fill="none" stroke="midnightblue" d="M158.5,-112.498C158.5,-104.065 158.5,-94.2351 158.5,-85.874"/>
<polygon fill="midnightblue" stroke="midnightblue" points="162,-85.6525 158.5,-75.6525 155,-85.6525 162,-85.6525"/>
</g>
<!-- Node2 -->
<g id="node3" class="node"><title>Node2</title>
<polygon fill="none" stroke="#bfbfbf" points="0,-0.5 0,-19.5 49,-19.5 49,-0.5 0,-0.5"/>
<text text-anchor="middle" x="24.5" y="-7.5" font-family="Helvetica,sans-Serif" font-size="10.00">fstream</text>
</g>
<!-- Node1&#45;&gt;Node2 -->
<g id="edge2" class="edge"><title>Node1&#45;&gt;Node2</title>
<path fill="none" stroke="midnightblue" d="M137.267,-56.4435C115.116,-47.5171 80.1813,-33.4387 55.064,-23.3168"/>
<polygon fill="midnightblue" stroke="midnightblue" points="56.2168,-20.0079 45.6334,-19.5164 53.6003,-26.5006 56.2168,-20.0079"/>
</g>
<!-- Node3 -->
<g id="node4" class="node"><title>Node3</title>
<polygon fill="none" stroke="#bfbfbf" points="67.5,-0.5 67.5,-19.5 119.5,-19.5 119.5,-0.5 67.5,-0.5"/>
<text text-anchor="middle" x="93.5" y="-7.5" font-family="Helvetica,sans-Serif" font-size="10.00">sstream</text>
</g>
<!-- Node1&#45;&gt;Node3 -->
<g id="edge3" class="edge"><title>Node1&#45;&gt;Node3</title>
<path fill="none" stroke="midnightblue" d="M148.057,-56.324C138.354,-48.2631 123.685,-36.0765 112,-26.3695"/>
<polygon fill="midnightblue" stroke="midnightblue" points="114.062,-23.532 104.133,-19.8339 109.589,-28.9163 114.062,-23.532"/>
</g>
<!-- Node4 -->
<g id="node5" class="node"><title>Node4</title>
<polygon fill="none" stroke="#bfbfbf" points="138,-0.5 138,-19.5 179,-19.5 179,-0.5 138,-0.5"/>
<text text-anchor="middle" x="158.5" y="-7.5" font-family="Helvetica,sans-Serif" font-size="10.00">string</text>
</g>
<!-- Node1&#45;&gt;Node4 -->
<g id="edge4" class="edge"><title>Node1&#45;&gt;Node4</title>
<path fill="none" stroke="midnightblue" d="M158.5,-56.083C158.5,-49.0059 158.5,-38.8611 158.5,-29.9865"/>
<polygon fill="midnightblue" stroke="midnightblue" points="162,-29.751 158.5,-19.7511 155,-29.7511 162,-29.751"/>
</g>
<!-- Node5 -->
<g id="node6" class="node"><title>Node5</title>
<polygon fill="none" stroke="#bfbfbf" points="197.5,-0.5 197.5,-19.5 251.5,-19.5 251.5,-0.5 197.5,-0.5"/>
<text text-anchor="middle" x="224.5" y="-7.5" font-family="Helvetica,sans-Serif" font-size="10.00">iostream</text>
</g>
<!-- Node1&#45;&gt;Node5 -->
<g id="edge5" class="edge"><title>Node1&#45;&gt;Node5</title>
<path fill="none" stroke="midnightblue" d="M169.104,-56.324C178.956,-48.2631 193.851,-36.0765 205.715,-26.3695"/>
<polygon fill="midnightblue" stroke="midnightblue" points="208.18,-28.8752 213.703,-19.8339 203.747,-23.4575 208.18,-28.8752"/>
</g>
<!-- Node6 -->
<g id="node7" class="node"><title>Node6</title>
<g id="a_node7"><a xlink:href="_errors_list_8h.html" target="_top" xlink:title="ErrorsList.h">
<polygon fill="none" stroke="black" points="270,-0.5 270,-19.5 337,-19.5 337,-0.5 270,-0.5"/>
<text text-anchor="middle" x="303.5" y="-7.5" font-family="Helvetica,sans-Serif" font-size="10.00">ErrorsList.h</text>
</a>
</g>
</g>
<!-- Node1&#45;&gt;Node6 -->
<g id="edge6" class="edge"><title>Node1&#45;&gt;Node6</title>
<path fill="none" stroke="midnightblue" d="M181.476,-56.4435C205.657,-47.4381 243.918,-33.1891 271.146,-23.049"/>
<polygon fill="midnightblue" stroke="midnightblue" points="272.482,-26.2864 280.632,-19.5164 270.039,-19.7265 272.482,-26.2864"/>
</g>
</g>
</svg>
