<?xml version="1.0" encoding="UTF-8" standalone="no"?>
<!DOCTYPE svg PUBLIC "-//W3C//DTD SVG 1.1//EN"
 "http://www.w3.org/Graphics/SVG/1.1/DTD/svg11.dtd">
<!-- Generated by graphviz version 2.38.0 (20140413.2041)
 -->
<!-- Title: E:/Dropbox/BI_FIT_CVUT/2. semestr/PA2/GameBook/Interact.cpp Pages: 1 -->
<svg width="1302pt" height="610pt"
 viewBox="0.00 0.00 1301.50 610.00" xmlns="http://www.w3.org/2000/svg" xmlns:xlink="http://www.w3.org/1999/xlink">
<g id="graph0" class="graph" transform="scale(1 1) rotate(0) translate(4 606)">
<title>E:/Dropbox/BI_FIT_CVUT/2. semestr/PA2/GameBook/Interact.cpp</title>
<!-- Node0 -->
<g id="node1" class="node"><title>Node0</title>
<polygon fill="#bfbfbf" stroke="black" points="479.5,-560.5 479.5,-601.5 619.5,-601.5 619.5,-560.5 479.5,-560.5"/>
<text text-anchor="start" x="487.5" y="-589.5" font-family="Helvetica,sans-Serif" font-size="10.00">E:/Dropbox/BI_FIT_CVUT</text>
<text text-anchor="start" x="487.5" y="-578.5" font-family="Helvetica,sans-Serif" font-size="10.00">/2. semestr/PA2/GameBook</text>
<text text-anchor="middle" x="549.5" y="-567.5" font-family="Helvetica,sans-Serif" font-size="10.00">/Interact.cpp</text>
</g>
<!-- Node1 -->
<g id="node2" class="node"><title>Node1</title>
<g id="a_node2"><a xlink:href="_interact_8h.html" target="_top" xlink:title="Interact.h">
<polygon fill="none" stroke="black" points="521,-504.5 521,-523.5 578,-523.5 578,-504.5 521,-504.5"/>
<text text-anchor="middle" x="549.5" y="-511.5" font-family="Helvetica,sans-Serif" font-size="10.00">Interact.h</text>
</a>
</g>
</g>
<!-- Node0&#45;&gt;Node1 -->
<g id="edge1" class="edge"><title>Node0&#45;&gt;Node1</title>
<path fill="none" stroke="midnightblue" d="M549.5,-560.498C549.5,-552.065 549.5,-542.235 549.5,-533.874"/>
<polygon fill="midnightblue" stroke="midnightblue" points="553,-533.652 549.5,-523.652 546,-533.653 553,-533.652"/>
</g>
<!-- Node2 -->
<g id="node3" class="node"><title>Node2</title>
<g id="a_node3"><a xlink:href="_hero_8h.html" target="_top" xlink:title="Hero.h">
<polygon fill="none" stroke="black" points="840,-280.5 840,-299.5 885,-299.5 885,-280.5 840,-280.5"/>
<text text-anchor="middle" x="862.5" y="-287.5" font-family="Helvetica,sans-Serif" font-size="10.00">Hero.h</text>
</a>
</g>
</g>
<!-- Node1&#45;&gt;Node2 -->
<g id="edge2" class="edge"><title>Node1&#45;&gt;Node2</title>
<path fill="none" stroke="midnightblue" d="M578.16,-510.855C666.733,-503.575 933.2,-476.576 984.5,-412 1018.89,-368.714 939.557,-324.69 893.129,-303.679"/>
<polygon fill="midnightblue" stroke="midnightblue" points="894.336,-300.386 883.774,-299.554 891.512,-306.791 894.336,-300.386"/>
</g>
<!-- Node21 -->
<g id="node22" class="node"><title>Node21</title>
<g id="a_node22"><a xlink:href="_storyline_8h.html" target="_top" xlink:title="Storyline.h">
<polygon fill="none" stroke="black" points="0,-56.5 0,-75.5 63,-75.5 63,-56.5 0,-56.5"/>
<text text-anchor="middle" x="31.5" y="-63.5" font-family="Helvetica,sans-Serif" font-size="10.00">Storyline.h</text>
</a>
</g>
</g>
<!-- Node1&#45;&gt;Node21 -->
<g id="edge43" class="edge"><title>Node1&#45;&gt;Node21</title>
<path fill="none" stroke="midnightblue" d="M520.789,-512.951C413.536,-512.01 42.5,-501.625 42.5,-403 42.5,-403 42.5,-403 42.5,-177 42.5,-144.788 37.7719,-107.532 34.5153,-85.692"/>
<polygon fill="midnightblue" stroke="midnightblue" points="37.9303,-84.8736 32.9381,-75.5287 31.0131,-85.9472 37.9303,-84.8736"/>
</g>
<!-- Node22 -->
<g id="node23" class="node"><title>Node22</title>
<g id="a_node23"><a xlink:href="_world_8h.html" target="_top" xlink:title="World.h">
<polygon fill="none" stroke="black" points="524.5,-448.5 524.5,-467.5 574.5,-467.5 574.5,-448.5 524.5,-448.5"/>
<text text-anchor="middle" x="549.5" y="-455.5" font-family="Helvetica,sans-Serif" font-size="10.00">World.h</text>
</a>
</g>
</g>
<!-- Node1&#45;&gt;Node22 -->
<g id="edge46" class="edge"><title>Node1&#45;&gt;Node22</title>
<path fill="none" stroke="midnightblue" d="M549.5,-504.083C549.5,-497.006 549.5,-486.861 549.5,-477.986"/>
<polygon fill="midnightblue" stroke="midnightblue" points="553,-477.751 549.5,-467.751 546,-477.751 553,-477.751"/>
</g>
<!-- Node3 -->
<g id="node4" class="node"><title>Node3</title>
<polygon fill="none" stroke="#bfbfbf" points="695.5,-56.5 695.5,-75.5 749.5,-75.5 749.5,-56.5 695.5,-56.5"/>
<text text-anchor="middle" x="722.5" y="-63.5" font-family="Helvetica,sans-Serif" font-size="10.00">iostream</text>
</g>
<!-- Node2&#45;&gt;Node3 -->
<g id="edge3" class="edge"><title>Node2&#45;&gt;Node3</title>
<path fill="none" stroke="midnightblue" d="M839.924,-286.776C813.334,-282.893 769.839,-272.351 746.5,-244 708.607,-197.968 714.095,-121.241 719.176,-85.8904"/>
<polygon fill="midnightblue" stroke="midnightblue" points="722.7,-86.019 720.82,-75.5922 715.787,-84.9152 722.7,-86.019"/>
</g>
<!-- Node4 -->
<g id="node5" class="node"><title>Node4</title>
<polygon fill="none" stroke="#bfbfbf" points="750,-0.5 750,-19.5 791,-19.5 791,-0.5 750,-0.5"/>
<text text-anchor="middle" x="770.5" y="-7.5" font-family="Helvetica,sans-Serif" font-size="10.00">string</text>
</g>
<!-- Node2&#45;&gt;Node4 -->
<g id="edge4" class="edge"><title>Node2&#45;&gt;Node4</title>
<path fill="none" stroke="midnightblue" d="M885.244,-287.422C938.561,-283.311 1069.66,-270.686 1103.5,-244 1131.42,-221.981 1141.5,-201.098 1128.5,-168 1077.56,-38.284 878.006,-15.6503 801.024,-11.7721"/>
<polygon fill="midnightblue" stroke="midnightblue" points="801.144,-8.2741 791.003,-11.3401 800.843,-15.2676 801.144,-8.2741"/>
</g>
<!-- Node5 -->
<g id="node6" class="node"><title>Node5</title>
<polygon fill="none" stroke="#bfbfbf" points="837.5,-224.5 837.5,-243.5 887.5,-243.5 887.5,-224.5 837.5,-224.5"/>
<text text-anchor="middle" x="862.5" y="-231.5" font-family="Helvetica,sans-Serif" font-size="10.00">typeinfo</text>
</g>
<!-- Node2&#45;&gt;Node5 -->
<g id="edge5" class="edge"><title>Node2&#45;&gt;Node5</title>
<path fill="none" stroke="midnightblue" d="M862.5,-280.083C862.5,-273.006 862.5,-262.861 862.5,-253.986"/>
<polygon fill="midnightblue" stroke="midnightblue" points="866,-253.751 862.5,-243.751 859,-253.751 866,-253.751"/>
</g>
<!-- Node6 -->
<g id="node7" class="node"><title>Node6</title>
<g id="a_node7"><a xlink:href="_creature_8h.html" target="_top" xlink:title="Creature.h">
<polygon fill="none" stroke="black" points="1057.5,-168.5 1057.5,-187.5 1119.5,-187.5 1119.5,-168.5 1057.5,-168.5"/>
<text text-anchor="middle" x="1088.5" y="-175.5" font-family="Helvetica,sans-Serif" font-size="10.00">Creature.h</text>
</a>
</g>
</g>
<!-- Node2&#45;&gt;Node6 -->
<g id="edge6" class="edge"><title>Node2&#45;&gt;Node6</title>
<path fill="none" stroke="midnightblue" d="M885.245,-287.79C936.495,-284.552 1058.55,-273.814 1084.5,-244 1095.28,-231.617 1095.12,-212.373 1092.96,-198.033"/>
<polygon fill="midnightblue" stroke="midnightblue" points="1096.31,-196.957 1090.97,-187.809 1089.44,-198.293 1096.31,-196.957"/>
</g>
<!-- Node7 -->
<g id="node8" class="node"><title>Node7</title>
<g id="a_node8"><a xlink:href="_display_8h.html" target="_top" xlink:title="Display.h">
<polygon fill="none" stroke="black" points="902,-112.5 902,-131.5 959,-131.5 959,-112.5 902,-112.5"/>
<text text-anchor="middle" x="930.5" y="-119.5" font-family="Helvetica,sans-Serif" font-size="10.00">Display.h</text>
</a>
</g>
</g>
<!-- Node2&#45;&gt;Node7 -->
<g id="edge23" class="edge"><title>Node2&#45;&gt;Node7</title>
<path fill="none" stroke="midnightblue" d="M876.393,-280.497C888.049,-272.571 904.101,-259.639 912.5,-244 930.109,-211.21 932.044,-166.611 931.513,-141.736"/>
<polygon fill="midnightblue" stroke="midnightblue" points="935.003,-141.388 931.128,-131.527 928.008,-141.652 935.003,-141.388"/>
</g>
<!-- Node10 -->
<g id="node11" class="node"><title>Node10</title>
<g id="a_node11"><a xlink:href="_errors_list_8h.html" target="_top" xlink:title="ErrorsList.h">
<polygon fill="none" stroke="black" points="534,-56.5 534,-75.5 601,-75.5 601,-56.5 534,-56.5"/>
<text text-anchor="middle" x="567.5" y="-63.5" font-family="Helvetica,sans-Serif" font-size="10.00">ErrorsList.h</text>
</a>
</g>
</g>
<!-- Node2&#45;&gt;Node10 -->
<g id="edge22" class="edge"><title>Node2&#45;&gt;Node10</title>
<path fill="none" stroke="midnightblue" d="M839.891,-288.467C801.076,-286.605 720.449,-278.514 663.5,-244 607.679,-210.169 591.458,-193.102 568.5,-132 562.973,-117.292 563.162,-99.3575 564.484,-86.0559"/>
<polygon fill="midnightblue" stroke="midnightblue" points="568.005,-86.1244 565.823,-75.7567 561.063,-85.2222 568.005,-86.1244"/>
</g>
<!-- Node12 -->
<g id="node13" class="node"><title>Node12</title>
<g id="a_node13"><a xlink:href="_inventory_8h.html" target="_top" xlink:title="Inventory.h">
<polygon fill="none" stroke="black" points="578,-112.5 578,-131.5 641,-131.5 641,-112.5 578,-112.5"/>
<text text-anchor="middle" x="609.5" y="-119.5" font-family="Helvetica,sans-Serif" font-size="10.00">Inventory.h</text>
</a>
</g>
</g>
<!-- Node2&#45;&gt;Node12 -->
<g id="edge18" class="edge"><title>Node2&#45;&gt;Node12</title>
<path fill="none" stroke="midnightblue" d="M839.867,-288.337C804.237,-286.243 734.312,-277.77 687.5,-244 650.801,-217.525 626.997,-167.975 616.205,-141.232"/>
<polygon fill="midnightblue" stroke="midnightblue" points="619.352,-139.666 612.486,-131.597 612.822,-142.187 619.352,-139.666"/>
</g>
<!-- Node14 -->
<g id="node15" class="node"><title>Node14</title>
<g id="a_node15"><a xlink:href="_armour_8h.html" target="_top" xlink:title="Armour.h">
<polygon fill="none" stroke="black" points="1019.5,-224.5 1019.5,-243.5 1075.5,-243.5 1075.5,-224.5 1019.5,-224.5"/>
<text text-anchor="middle" x="1047.5" y="-231.5" font-family="Helvetica,sans-Serif" font-size="10.00">Armour.h</text>
</a>
</g>
</g>
<!-- Node2&#45;&gt;Node14 -->
<g id="edge24" class="edge"><title>Node2&#45;&gt;Node14</title>
<path fill="none" stroke="midnightblue" d="M885.185,-282.379C916.14,-273.343 972.037,-257.027 1009.46,-246.103"/>
<polygon fill="midnightblue" stroke="midnightblue" points="1010.87,-249.338 1019.49,-243.176 1008.91,-242.618 1010.87,-249.338"/>
</g>
<!-- Node15 -->
<g id="node16" class="node"><title>Node15</title>
<g id="a_node16"><a xlink:href="_item_8h.html" target="_top" xlink:title="Item.h">
<polygon fill="none" stroke="black" points="866.5,-168.5 866.5,-187.5 910.5,-187.5 910.5,-168.5 866.5,-168.5"/>
<text text-anchor="middle" x="888.5" y="-175.5" font-family="Helvetica,sans-Serif" font-size="10.00">Item.h</text>
</a>
</g>
</g>
<!-- Node2&#45;&gt;Node15 -->
<g id="edge34" class="edge"><title>Node2&#45;&gt;Node15</title>
<path fill="none" stroke="midnightblue" d="M871.788,-280.395C880.081,-272.025 891.644,-258.483 896.5,-244 901.583,-228.841 898.668,-210.722 895.007,-197.47"/>
<polygon fill="midnightblue" stroke="midnightblue" points="898.259,-196.142 891.917,-187.654 891.582,-198.244 898.259,-196.142"/>
</g>
<!-- Node16 -->
<g id="node17" class="node"><title>Node16</title>
<g id="a_node17"><a xlink:href="_equipment_8h.html" target="_top" xlink:title="Equipment.h">
<polygon fill="none" stroke="black" points="736,-112.5 736,-131.5 807,-131.5 807,-112.5 736,-112.5"/>
<text text-anchor="middle" x="771.5" y="-119.5" font-family="Helvetica,sans-Serif" font-size="10.00">Equipment.h</text>
</a>
</g>
</g>
<!-- Node2&#45;&gt;Node16 -->
<g id="edge35" class="edge"><title>Node2&#45;&gt;Node16</title>
<path fill="none" stroke="midnightblue" d="M839.624,-286.346C814.836,-282.113 776.43,-271.295 758.5,-244 737.895,-212.634 752.142,-166.542 762.797,-141.26"/>
<polygon fill="midnightblue" stroke="midnightblue" points="766.139,-142.359 767.031,-131.802 759.75,-139.499 766.139,-142.359"/>
</g>
<!-- Node17 -->
<g id="node18" class="node"><title>Node17</title>
<g id="a_node18"><a xlink:href="_hero_stats_8h.html" target="_top" xlink:title="HeroStats.h">
<polygon fill="none" stroke="black" points="977.5,-112.5 977.5,-131.5 1045.5,-131.5 1045.5,-112.5 977.5,-112.5"/>
<text text-anchor="middle" x="1011.5" y="-119.5" font-family="Helvetica,sans-Serif" font-size="10.00">HeroStats.h</text>
</a>
</g>
</g>
<!-- Node2&#45;&gt;Node17 -->
<g id="edge36" class="edge"><title>Node2&#45;&gt;Node17</title>
<path fill="none" stroke="midnightblue" d="M879.483,-280.498C894.364,-272.485 915.979,-259.424 931.5,-244 963.371,-212.329 989.676,-166.03 1002.69,-140.877"/>
<polygon fill="midnightblue" stroke="midnightblue" points="1005.9,-142.281 1007.3,-131.778 999.658,-139.121 1005.9,-142.281"/>
</g>
<!-- Node18 -->
<g id="node19" class="node"><title>Node18</title>
<g id="a_node19"><a xlink:href="_sword_8h.html" target="_top" xlink:title="Sword.h">
<polygon fill="none" stroke="black" points="767.5,-224.5 767.5,-243.5 819.5,-243.5 819.5,-224.5 767.5,-224.5"/>
<text text-anchor="middle" x="793.5" y="-231.5" font-family="Helvetica,sans-Serif" font-size="10.00">Sword.h</text>
</a>
</g>
</g>
<!-- Node2&#45;&gt;Node18 -->
<g id="edge32" class="edge"><title>Node2&#45;&gt;Node18</title>
<path fill="none" stroke="midnightblue" d="M851.414,-280.324C841.014,-272.185 825.239,-259.839 812.778,-250.087"/>
<polygon fill="midnightblue" stroke="midnightblue" points="814.82,-247.241 804.788,-243.834 810.506,-252.753 814.82,-247.241"/>
</g>
<!-- Node19 -->
<g id="node20" class="node"><title>Node19</title>
<g id="a_node20"><a xlink:href="_stream_decoder_8h.html" target="_top" xlink:title="StreamDecoder.h">
<polygon fill="none" stroke="black" points="309.5,-112.5 309.5,-131.5 401.5,-131.5 401.5,-112.5 309.5,-112.5"/>
<text text-anchor="middle" x="355.5" y="-119.5" font-family="Helvetica,sans-Serif" font-size="10.00">StreamDecoder.h</text>
</a>
</g>
</g>
<!-- Node2&#45;&gt;Node19 -->
<g id="edge37" class="edge"><title>Node2&#45;&gt;Node19</title>
<path fill="none" stroke="midnightblue" d="M839.831,-289.343C785.426,-289.438 643.929,-285.346 535.5,-244 501.136,-230.897 414.412,-167.339 375.242,-137.955"/>
<polygon fill="midnightblue" stroke="midnightblue" points="376.883,-134.809 366.789,-131.59 372.672,-140.401 376.883,-134.809"/>
</g>
<!-- Node6&#45;&gt;Node4 -->
<g id="edge7" class="edge"><title>Node6&#45;&gt;Node4</title>
<path fill="none" stroke="midnightblue" d="M1085.91,-168.363C1081.47,-154.814 1071.22,-128.417 1054.5,-112 982.763,-41.5628 858.751,-19.964 801.326,-13.5706"/>
<polygon fill="midnightblue" stroke="midnightblue" points="801.391,-10.0588 791.085,-12.5149 800.674,-17.0219 801.391,-10.0588"/>
</g>
<!-- Node6&#45;&gt;Node7 -->
<g id="edge8" class="edge"><title>Node6&#45;&gt;Node7</title>
<path fill="none" stroke="midnightblue" d="M1063.46,-168.444C1036.88,-159.359 994.691,-144.939 964.977,-134.783"/>
<polygon fill="midnightblue" stroke="midnightblue" points="966.013,-131.439 955.418,-131.516 963.749,-138.062 966.013,-131.439"/>
</g>
<!-- Node7&#45;&gt;Node3 -->
<g id="edge11" class="edge"><title>Node7&#45;&gt;Node3</title>
<path fill="none" stroke="midnightblue" d="M901.578,-113.492C864.43,-103.847 799.915,-87.098 759.304,-76.5549"/>
<polygon fill="midnightblue" stroke="midnightblue" points="760.084,-73.1415 749.526,-74.0163 758.325,-79.9169 760.084,-73.1415"/>
</g>
<!-- Node7&#45;&gt;Node4 -->
<g id="edge10" class="edge"><title>Node7&#45;&gt;Node4</title>
<path fill="none" stroke="midnightblue" d="M926.815,-112.167C920.632,-98.3495 906.909,-71.5918 887.5,-56 862,-35.5156 826.116,-23.5733 800.828,-17.2036"/>
<polygon fill="midnightblue" stroke="midnightblue" points="801.573,-13.783 791.035,-14.8803 799.957,-20.594 801.573,-13.783"/>
</g>
<!-- Node8 -->
<g id="node9" class="node"><title>Node8</title>
<polygon fill="none" stroke="#bfbfbf" points="469.5,-0.5 469.5,-19.5 511.5,-19.5 511.5,-0.5 469.5,-0.5"/>
<text text-anchor="middle" x="490.5" y="-7.5" font-family="Helvetica,sans-Serif" font-size="10.00">vector</text>
</g>
<!-- Node7&#45;&gt;Node8 -->
<g id="edge9" class="edge"><title>Node7&#45;&gt;Node8</title>
<path fill="none" stroke="midnightblue" d="M911.558,-112.44C880.296,-98.6344 815.667,-71.4427 758.5,-56 674.483,-33.304 572.396,-19.9512 521.903,-14.261"/>
<polygon fill="midnightblue" stroke="midnightblue" points="521.972,-10.7475 511.649,-13.1315 521.206,-17.7054 521.972,-10.7475"/>
</g>
<!-- Node9 -->
<g id="node10" class="node"><title>Node9</title>
<g id="a_node10"><a xlink:href="_actions_list_8h.html" target="_top" xlink:title="ActionsList.h">
<polygon fill="none" stroke="black" points="1146.5,-0.5 1146.5,-19.5 1220.5,-19.5 1220.5,-0.5 1146.5,-0.5"/>
<text text-anchor="middle" x="1183.5" y="-7.5" font-family="Helvetica,sans-Serif" font-size="10.00">ActionsList.h</text>
</a>
</g>
</g>
<!-- Node7&#45;&gt;Node9 -->
<g id="edge12" class="edge"><title>Node7&#45;&gt;Node9</title>
<path fill="none" stroke="midnightblue" d="M950.352,-112.368C994.783,-93.0507 1102.4,-46.2592 1154.41,-23.6481"/>
<polygon fill="midnightblue" stroke="midnightblue" points="1155.96,-26.7885 1163.74,-19.5914 1153.17,-20.369 1155.96,-26.7885"/>
</g>
<!-- Node7&#45;&gt;Node10 -->
<g id="edge13" class="edge"><title>Node7&#45;&gt;Node10</title>
<path fill="none" stroke="midnightblue" d="M901.713,-116.718C838.371,-107.295 686.582,-84.7147 611.328,-73.5199"/>
<polygon fill="midnightblue" stroke="midnightblue" points="611.641,-70.028 601.235,-72.0184 610.611,-76.9518 611.641,-70.028"/>
</g>
<!-- Node11 -->
<g id="node12" class="node"><title>Node11</title>
<g id="a_node12"><a xlink:href="_game_menus_8h.html" target="_top" xlink:title="GameMenus.h">
<polygon fill="none" stroke="black" points="1177.5,-56.5 1177.5,-75.5 1257.5,-75.5 1257.5,-56.5 1177.5,-56.5"/>
<text text-anchor="middle" x="1217.5" y="-63.5" font-family="Helvetica,sans-Serif" font-size="10.00">GameMenus.h</text>
</a>
</g>
</g>
<!-- Node7&#45;&gt;Node11 -->
<g id="edge14" class="edge"><title>Node7&#45;&gt;Node11</title>
<path fill="none" stroke="midnightblue" d="M959.097,-114.053C962.264,-113.336 965.447,-112.637 968.5,-112 1005.67,-104.245 1106.19,-86.4428 1167.55,-75.6994"/>
<polygon fill="midnightblue" stroke="midnightblue" points="1168.17,-79.1445 1177.41,-73.9738 1166.96,-72.2492 1168.17,-79.1445"/>
</g>
<!-- Node11&#45;&gt;Node4 -->
<g id="edge15" class="edge"><title>Node11&#45;&gt;Node4</title>
<path fill="none" stroke="midnightblue" d="M1177.44,-60.1603C1089.43,-49.5288 880.788,-24.3234 801.66,-14.7643"/>
<polygon fill="midnightblue" stroke="midnightblue" points="801.728,-11.2471 791.38,-13.5224 800.888,-18.1966 801.728,-11.2471"/>
</g>
<!-- Node11&#45;&gt;Node8 -->
<g id="edge16" class="edge"><title>Node11&#45;&gt;Node8</title>
<path fill="none" stroke="midnightblue" d="M1177.38,-62.0198C1047.19,-52.3499 638.237,-21.9736 521.747,-13.321"/>
<polygon fill="midnightblue" stroke="midnightblue" points="521.941,-9.82585 511.71,-12.5754 521.423,-16.8066 521.941,-9.82585"/>
</g>
<!-- Node11&#45;&gt;Node9 -->
<g id="edge17" class="edge"><title>Node11&#45;&gt;Node9</title>
<path fill="none" stroke="midnightblue" d="M1211.89,-56.083C1207.13,-48.5341 1200.18,-37.4948 1194.35,-28.2298"/>
<polygon fill="midnightblue" stroke="midnightblue" points="1197.3,-26.3486 1189.01,-19.7511 1191.38,-30.0783 1197.3,-26.3486"/>
</g>
<!-- Node12&#45;&gt;Node4 -->
<g id="edge21" class="edge"><title>Node12&#45;&gt;Node4</title>
<path fill="none" stroke="midnightblue" d="M618.479,-112.329C632.353,-99.1926 660.158,-73.8846 686.5,-56 704.349,-43.8813 725.811,-32.4322 742.573,-24.1151"/>
<polygon fill="midnightblue" stroke="midnightblue" points="744.381,-27.1273 751.836,-19.5987 741.313,-20.8353 744.381,-27.1273"/>
</g>
<!-- Node12&#45;&gt;Node8 -->
<g id="edge20" class="edge"><title>Node12&#45;&gt;Node8</title>
<path fill="none" stroke="midnightblue" d="M612.427,-112.082C616.25,-98.6217 621.175,-72.897 609.5,-56 589.905,-27.6409 549.976,-17.1347 521.788,-13.2537"/>
<polygon fill="midnightblue" stroke="midnightblue" points="521.964,-9.75062 511.626,-12.0673 521.153,-16.7034 521.964,-9.75062"/>
</g>
<!-- Node13 -->
<g id="node14" class="node"><title>Node13</title>
<polygon fill="none" stroke="#bfbfbf" points="271.5,-56.5 271.5,-75.5 301.5,-75.5 301.5,-56.5 271.5,-56.5"/>
<text text-anchor="middle" x="286.5" y="-63.5" font-family="Helvetica,sans-Serif" font-size="10.00">set</text>
</g>
<!-- Node12&#45;&gt;Node13 -->
<g id="edge19" class="edge"><title>Node12&#45;&gt;Node13</title>
<path fill="none" stroke="midnightblue" d="M577.941,-115.724C513.965,-105.028 370.125,-80.9807 311.793,-71.2286"/>
<polygon fill="midnightblue" stroke="midnightblue" points="312.065,-67.7255 301.625,-69.5286 310.911,-74.6297 312.065,-67.7255"/>
</g>
<!-- Node14&#45;&gt;Node15 -->
<g id="edge25" class="edge"><title>Node14&#45;&gt;Node15</title>
<path fill="none" stroke="midnightblue" d="M1022.31,-224.444C994.613,-215.038 950.081,-199.914 920.077,-189.724"/>
<polygon fill="midnightblue" stroke="midnightblue" points="921.098,-186.375 910.504,-186.473 918.847,-193.003 921.098,-186.375"/>
</g>
<!-- Node15&#45;&gt;Node3 -->
<g id="edge26" class="edge"><title>Node15&#45;&gt;Node3</title>
<path fill="none" stroke="midnightblue" d="M880.164,-168.148C867.242,-154.773 841.179,-129.159 815.5,-112 796.069,-99.0161 772.328,-87.5923 753.696,-79.5037"/>
<polygon fill="midnightblue" stroke="midnightblue" points="755.042,-76.2726 744.469,-75.5874 752.307,-82.7162 755.042,-76.2726"/>
</g>
<!-- Node15&#45;&gt;Node4 -->
<g id="edge27" class="edge"><title>Node15&#45;&gt;Node4</title>
<path fill="none" stroke="midnightblue" d="M882.26,-168.162C873.423,-155.65 856.75,-132.062 842.5,-112 821.508,-82.4459 796.991,-48.0868 782.661,-28.0214"/>
<polygon fill="midnightblue" stroke="midnightblue" points="785.334,-25.7425 776.674,-19.6395 779.638,-29.8112 785.334,-25.7425"/>
</g>
<!-- Node15&#45;&gt;Node7 -->
<g id="edge28" class="edge"><title>Node15&#45;&gt;Node7</title>
<path fill="none" stroke="midnightblue" d="M895.435,-168.083C901.429,-160.377 910.252,-149.033 917.548,-139.653"/>
<polygon fill="midnightblue" stroke="midnightblue" points="920.317,-141.793 923.694,-131.751 914.791,-137.496 920.317,-141.793"/>
</g>
<!-- Node15&#45;&gt;Node16 -->
<g id="edge29" class="edge"><title>Node15&#45;&gt;Node16</title>
<path fill="none" stroke="midnightblue" d="M869.961,-168.444C850.877,-159.636 820.925,-145.812 799.064,-135.722"/>
<polygon fill="midnightblue" stroke="midnightblue" points="800.499,-132.529 789.952,-131.516 797.565,-138.885 800.499,-132.529"/>
</g>
<!-- Node15&#45;&gt;Node17 -->
<g id="edge30" class="edge"><title>Node15&#45;&gt;Node17</title>
<path fill="none" stroke="midnightblue" d="M907.99,-168.444C928.142,-159.596 959.823,-145.687 982.831,-135.586"/>
<polygon fill="midnightblue" stroke="midnightblue" points="984.352,-138.741 992.101,-131.516 981.538,-132.332 984.352,-138.741"/>
</g>
<!-- Node17&#45;&gt;Node4 -->
<g id="edge31" class="edge"><title>Node17&#45;&gt;Node4</title>
<path fill="none" stroke="midnightblue" d="M1000.26,-112.357C982.19,-98.7994 945.19,-72.3916 910.5,-56 874.317,-38.9031 829.956,-25.872 800.997,-18.3375"/>
<polygon fill="midnightblue" stroke="midnightblue" points="801.623,-14.8853 791.068,-15.813 799.898,-21.6694 801.623,-14.8853"/>
</g>
<!-- Node18&#45;&gt;Node15 -->
<g id="edge33" class="edge"><title>Node18&#45;&gt;Node15</title>
<path fill="none" stroke="midnightblue" d="M808.763,-224.324C823.721,-215.822 846.755,-202.729 864.227,-192.797"/>
<polygon fill="midnightblue" stroke="midnightblue" points="866.31,-195.639 873.274,-187.655 862.851,-189.553 866.31,-195.639"/>
</g>
<!-- Node19&#45;&gt;Node4 -->
<g id="edge38" class="edge"><title>Node19&#45;&gt;Node4</title>
<path fill="none" stroke="midnightblue" d="M350.837,-112.153C344.262,-98.3149 334.538,-71.5304 348.5,-56 374.62,-26.9464 647.14,-15.1457 739.834,-11.9529"/>
<polygon fill="midnightblue" stroke="midnightblue" points="740.095,-15.4462 749.972,-11.6136 739.861,-8.45013 740.095,-15.4462"/>
</g>
<!-- Node19&#45;&gt;Node8 -->
<g id="edge40" class="edge"><title>Node19&#45;&gt;Node8</title>
<path fill="none" stroke="midnightblue" d="M323.254,-112.492C288.662,-101.808 241.362,-81.7182 262.5,-56 287.049,-26.132 402.623,-15.7641 459.176,-12.439"/>
<polygon fill="midnightblue" stroke="midnightblue" points="459.542,-15.9242 469.335,-11.8805 459.157,-8.93477 459.542,-15.9242"/>
</g>
<!-- Node19&#45;&gt;Node10 -->
<g id="edge42" class="edge"><title>Node19&#45;&gt;Node10</title>
<path fill="none" stroke="midnightblue" d="M389.092,-112.444C425.687,-103.122 484.338,-88.1828 524.326,-77.9972"/>
<polygon fill="midnightblue" stroke="midnightblue" points="525.239,-81.3766 534.065,-75.5164 523.511,-74.5932 525.239,-81.3766"/>
</g>
<!-- Node19&#45;&gt;Node13 -->
<g id="edge41" class="edge"><title>Node19&#45;&gt;Node13</title>
<path fill="none" stroke="midnightblue" d="M344.414,-112.324C334.014,-104.185 318.239,-91.8395 305.778,-82.0874"/>
<polygon fill="midnightblue" stroke="midnightblue" points="307.82,-79.2407 297.788,-75.8339 303.506,-84.7533 307.82,-79.2407"/>
</g>
<!-- Node20 -->
<g id="node21" class="node"><title>Node20</title>
<polygon fill="none" stroke="#bfbfbf" points="357.5,-56.5 357.5,-75.5 409.5,-75.5 409.5,-56.5 357.5,-56.5"/>
<text text-anchor="middle" x="383.5" y="-63.5" font-family="Helvetica,sans-Serif" font-size="10.00">sstream</text>
</g>
<!-- Node19&#45;&gt;Node20 -->
<g id="edge39" class="edge"><title>Node19&#45;&gt;Node20</title>
<path fill="none" stroke="midnightblue" d="M360.124,-112.083C363.956,-104.691 369.524,-93.9533 374.265,-84.8111"/>
<polygon fill="midnightblue" stroke="midnightblue" points="377.466,-86.2398 378.962,-75.7511 371.252,-83.0175 377.466,-86.2398"/>
</g>
<!-- Node21&#45;&gt;Node4 -->
<g id="edge45" class="edge"><title>Node21&#45;&gt;Node4</title>
<path fill="none" stroke="midnightblue" d="M63.3823,-61.2947C79.0658,-59.5458 98.2596,-57.5153 115.5,-56 355.513,-34.9051 645.738,-17.966 739.616,-12.7021"/>
<polygon fill="midnightblue" stroke="midnightblue" points="740.039,-16.184 749.828,-12.1322 739.649,-9.1949 740.039,-16.184"/>
</g>
<!-- Node21&#45;&gt;Node8 -->
<g id="edge44" class="edge"><title>Node21&#45;&gt;Node8</title>
<path fill="none" stroke="midnightblue" d="M63.1123,-58.4497C67.9208,-57.5593 72.8338,-56.7094 77.5,-56 219.301,-34.4425 390.012,-19.2229 459.153,-13.5028"/>
<polygon fill="midnightblue" stroke="midnightblue" points="459.677,-16.9717 469.358,-12.6668 459.105,-9.99509 459.677,-16.9717"/>
</g>
<!-- Node22&#45;&gt;Node3 -->
<g id="edge47" class="edge"><title>Node22&#45;&gt;Node3</title>
<path fill="none" stroke="midnightblue" d="M545.777,-448.158C535.186,-421.643 507.114,-340.873 530.5,-280 548.909,-232.083 662.238,-123.158 705.626,-82.5998"/>
<polygon fill="midnightblue" stroke="midnightblue" points="708.163,-85.0196 713.099,-75.6447 703.394,-79.8955 708.163,-85.0196"/>
</g>
<!-- Node22&#45;&gt;Node4 -->
<g id="edge48" class="edge"><title>Node22&#45;&gt;Node4</title>
<path fill="none" stroke="midnightblue" d="M524.485,-455.879C434.067,-451.159 129.5,-429.16 129.5,-347 129.5,-347 129.5,-347 129.5,-121 129.5,-67.2443 180.564,-73.1814 231.5,-56 326.792,-23.8568 639.959,-13.999 739.698,-11.6366"/>
<polygon fill="midnightblue" stroke="midnightblue" points="739.812,-15.135 749.729,-11.4075 739.652,-8.13685 739.812,-15.135"/>
</g>
<!-- Node22&#45;&gt;Node8 -->
<g id="edge49" class="edge"><title>Node22&#45;&gt;Node8</title>
<path fill="none" stroke="midnightblue" d="M524.309,-455.926C436.562,-451.978 147.922,-437.174 115.5,-412 91.1759,-393.114 91.5,-377.795 91.5,-347 91.5,-347 91.5,-347 91.5,-121 91.5,-90.2048 91.3288,-75.0814 115.5,-56 168.464,-14.1884 378.659,-10.5209 459.028,-10.6897"/>
<polygon fill="midnightblue" stroke="midnightblue" points="459.462,-14.1915 469.477,-10.7354 459.492,-7.19158 459.462,-14.1915"/>
</g>
<!-- Node22&#45;&gt;Node10 -->
<g id="edge59" class="edge"><title>Node22&#45;&gt;Node10</title>
<path fill="none" stroke="midnightblue" d="M536.297,-448.46C524.658,-440.33 507.966,-427.116 497.5,-412 479.97,-386.681 473.5,-377.795 473.5,-347 473.5,-347 473.5,-347 473.5,-233 473.5,-170.904 523.921,-110.723 550.908,-82.9604"/>
<polygon fill="midnightblue" stroke="midnightblue" points="553.553,-85.2646 558.143,-75.7158 548.6,-80.318 553.553,-85.2646"/>
</g>
<!-- Node22&#45;&gt;Node13 -->
<g id="edge51" class="edge"><title>Node22&#45;&gt;Node13</title>
<path fill="none" stroke="midnightblue" d="M524.287,-457.889C457.572,-458.812 281.5,-451.361 281.5,-347 281.5,-347 281.5,-347 281.5,-177 281.5,-144.915 283.649,-107.62 285.129,-85.7371"/>
<polygon fill="midnightblue" stroke="midnightblue" points="288.635,-85.7729 285.846,-75.5518 281.653,-85.2813 288.635,-85.7729"/>
</g>
<!-- Node22&#45;&gt;Node14 -->
<g id="edge60" class="edge"><title>Node22&#45;&gt;Node14</title>
<path fill="none" stroke="midnightblue" d="M574.514,-455.79C619.544,-452.875 716.539,-443.199 791.5,-412 891.212,-370.5 991.282,-285.9 1030.36,-250.804"/>
<polygon fill="midnightblue" stroke="midnightblue" points="1033.1,-253.043 1038.16,-243.731 1028.4,-247.86 1033.1,-253.043"/>
</g>
<!-- Node22&#45;&gt;Node18 -->
<g id="edge61" class="edge"><title>Node22&#45;&gt;Node18</title>
<path fill="none" stroke="midnightblue" d="M574.72,-455.458C626.923,-451.719 744.156,-440.303 770.5,-412 811.269,-368.2 803.62,-289.769 797.4,-253.872"/>
<polygon fill="midnightblue" stroke="midnightblue" points="800.794,-252.984 795.494,-243.81 793.917,-254.287 800.794,-252.984"/>
</g>
<!-- Node22&#45;&gt;Node19 -->
<g id="edge58" class="edge"><title>Node22&#45;&gt;Node19</title>
<path fill="none" stroke="midnightblue" d="M524.448,-456.383C464.837,-453.453 319.5,-437.074 319.5,-347 319.5,-347 319.5,-347 319.5,-233 319.5,-198.982 335.244,-161.85 345.909,-140.6"/>
<polygon fill="midnightblue" stroke="midnightblue" points="349.12,-142.012 350.645,-131.527 342.915,-138.772 349.12,-142.012"/>
</g>
<!-- Node23 -->
<g id="node24" class="node"><title>Node23</title>
<polygon fill="none" stroke="#bfbfbf" points="540,-280.5 540,-299.5 575,-299.5 575,-280.5 540,-280.5"/>
<text text-anchor="middle" x="557.5" y="-287.5" font-family="Helvetica,sans-Serif" font-size="10.00">map</text>
</g>
<!-- Node22&#45;&gt;Node23 -->
<g id="edge50" class="edge"><title>Node22&#45;&gt;Node23</title>
<path fill="none" stroke="midnightblue" d="M549.93,-448.075C551.189,-421.945 554.887,-345.211 556.605,-309.577"/>
<polygon fill="midnightblue" stroke="midnightblue" points="560.102,-309.725 557.087,-299.568 553.11,-309.388 560.102,-309.725"/>
</g>
<!-- Node24 -->
<g id="node25" class="node"><title>Node24</title>
<g id="a_node25"><a xlink:href="_i_ohandle_8h.html" target="_top" xlink:title="IOhandle.h">
<polygon fill="none" stroke="black" points="420,-112.5 420,-131.5 483,-131.5 483,-112.5 420,-112.5"/>
<text text-anchor="middle" x="451.5" y="-119.5" font-family="Helvetica,sans-Serif" font-size="10.00">IOhandle.h</text>
</a>
</g>
</g>
<!-- Node22&#45;&gt;Node24 -->
<g id="edge52" class="edge"><title>Node22&#45;&gt;Node24</title>
<path fill="none" stroke="midnightblue" d="M524.492,-451.954C503.207,-446.211 473.865,-434.54 459.5,-412 403.816,-324.627 432.73,-190.258 446.018,-141.489"/>
<polygon fill="midnightblue" stroke="midnightblue" points="449.429,-142.289 448.792,-131.713 442.695,-140.378 449.429,-142.289"/>
</g>
<!-- Node26 -->
<g id="node27" class="node"><title>Node26</title>
<g id="a_node27"><a xlink:href="_event_8h.html" target="_top" xlink:title="Event.h">
<polygon fill="none" stroke="black" points="665,-336.5 665,-355.5 714,-355.5 714,-336.5 665,-336.5"/>
<text text-anchor="middle" x="689.5" y="-343.5" font-family="Helvetica,sans-Serif" font-size="10.00">Event.h</text>
</a>
</g>
</g>
<!-- Node22&#45;&gt;Node26 -->
<g id="edge62" class="edge"><title>Node22&#45;&gt;Node26</title>
<path fill="none" stroke="midnightblue" d="M574.669,-454.117C601.758,-449.697 644.334,-438.73 669.5,-412 681.251,-399.519 686.106,-380.288 688.107,-365.978"/>
<polygon fill="midnightblue" stroke="midnightblue" points="691.614,-366.09 689.178,-355.779 684.653,-365.359 691.614,-366.09"/>
</g>
<!-- Node27 -->
<g id="node28" class="node"><title>Node27</title>
<g id="a_node28"><a xlink:href="_choice_8h.html" target="_top" xlink:title="Choice.h">
<polygon fill="none" stroke="black" points="921,-392.5 921,-411.5 976,-411.5 976,-392.5 921,-392.5"/>
<text text-anchor="middle" x="948.5" y="-399.5" font-family="Helvetica,sans-Serif" font-size="10.00">Choice.h</text>
</a>
</g>
</g>
<!-- Node22&#45;&gt;Node27 -->
<g id="edge67" class="edge"><title>Node22&#45;&gt;Node27</title>
<path fill="none" stroke="midnightblue" d="M574.667,-454.876C632.337,-449.795 778.6,-435.701 910.797,-411.93"/>
<polygon fill="midnightblue" stroke="midnightblue" points="911.482,-415.362 920.693,-410.127 910.228,-408.476 911.482,-415.362"/>
</g>
<!-- Node28 -->
<g id="node29" class="node"><title>Node28</title>
<g id="a_node29"><a xlink:href="_dialogue_n_c_p_8h.html" target="_top" xlink:title="DialogueNCP.h">
<polygon fill="none" stroke="black" points="578,-392.5 578,-411.5 661,-411.5 661,-392.5 578,-392.5"/>
<text text-anchor="middle" x="619.5" y="-399.5" font-family="Helvetica,sans-Serif" font-size="10.00">DialogueNCP.h</text>
</a>
</g>
</g>
<!-- Node22&#45;&gt;Node28 -->
<g id="edge71" class="edge"><title>Node22&#45;&gt;Node28</title>
<path fill="none" stroke="midnightblue" d="M560.747,-448.324C571.297,-440.185 587.301,-427.839 599.942,-418.087"/>
<polygon fill="midnightblue" stroke="midnightblue" points="602.269,-420.713 608.049,-411.834 597.993,-415.171 602.269,-420.713"/>
</g>
<!-- Node29 -->
<g id="node30" class="node"><title>Node29</title>
<g id="a_node30"><a xlink:href="_fight_8h.html" target="_top" xlink:title="Fight.h">
<polygon fill="none" stroke="black" points="856,-392.5 856,-411.5 903,-411.5 903,-392.5 856,-392.5"/>
<text text-anchor="middle" x="879.5" y="-399.5" font-family="Helvetica,sans-Serif" font-size="10.00">Fight.h</text>
</a>
</g>
</g>
<!-- Node22&#45;&gt;Node29 -->
<g id="edge74" class="edge"><title>Node22&#45;&gt;Node29</title>
<path fill="none" stroke="midnightblue" d="M574.615,-453.816C625.293,-447.24 743.331,-431.158 841.5,-412 842.956,-411.716 844.44,-411.415 845.937,-411.101"/>
<polygon fill="midnightblue" stroke="midnightblue" points="846.838,-414.487 855.846,-408.91 845.327,-407.652 846.838,-414.487"/>
</g>
<!-- Node30 -->
<g id="node31" class="node"><title>Node30</title>
<g id="a_node31"><a xlink:href="_trap_8h.html" target="_top" xlink:title="Trap.h">
<polygon fill="none" stroke="black" points="717.5,-392.5 717.5,-411.5 761.5,-411.5 761.5,-392.5 717.5,-392.5"/>
<text text-anchor="middle" x="739.5" y="-399.5" font-family="Helvetica,sans-Serif" font-size="10.00">Trap.h</text>
</a>
</g>
</g>
<!-- Node22&#45;&gt;Node30 -->
<g id="edge78" class="edge"><title>Node22&#45;&gt;Node30</title>
<path fill="none" stroke="midnightblue" d="M574.731,-449.829C608.963,-440.1 670.131,-422.715 707.537,-412.084"/>
<polygon fill="midnightblue" stroke="midnightblue" points="708.753,-415.377 717.415,-409.277 706.839,-408.644 708.753,-415.377"/>
</g>
<!-- Node24&#45;&gt;Node3 -->
<g id="edge56" class="edge"><title>Node24&#45;&gt;Node3</title>
<path fill="none" stroke="midnightblue" d="M483.118,-114.7C533.382,-104.684 631.309,-85.1709 685.023,-74.4677"/>
<polygon fill="midnightblue" stroke="midnightblue" points="686.026,-77.8367 695.149,-72.45 684.658,-70.9717 686.026,-77.8367"/>
</g>
<!-- Node24&#45;&gt;Node4 -->
<g id="edge55" class="edge"><title>Node24&#45;&gt;Node4</title>
<path fill="none" stroke="midnightblue" d="M458.527,-112.184C470.453,-97.8864 496.137,-69.8485 524.5,-56 596.137,-21.023 691.562,-13.0703 739.8,-11.3694"/>
<polygon fill="midnightblue" stroke="midnightblue" points="740.008,-14.865 749.904,-11.0818 739.809,-7.86785 740.008,-14.865"/>
</g>
<!-- Node24&#45;&gt;Node10 -->
<g id="edge57" class="edge"><title>Node24&#45;&gt;Node10</title>
<path fill="none" stroke="midnightblue" d="M469.881,-112.444C488.716,-103.675 518.231,-89.9355 539.879,-79.8579"/>
<polygon fill="midnightblue" stroke="midnightblue" points="541.617,-82.9098 549.205,-75.5164 538.662,-76.5637 541.617,-82.9098"/>
</g>
<!-- Node24&#45;&gt;Node20 -->
<g id="edge54" class="edge"><title>Node24&#45;&gt;Node20</title>
<path fill="none" stroke="midnightblue" d="M440.575,-112.324C430.325,-104.185 414.779,-91.8395 402.499,-82.0874"/>
<polygon fill="midnightblue" stroke="midnightblue" points="404.632,-79.3119 394.624,-75.8339 400.279,-84.7937 404.632,-79.3119"/>
</g>
<!-- Node25 -->
<g id="node26" class="node"><title>Node25</title>
<polygon fill="none" stroke="#bfbfbf" points="428,-56.5 428,-75.5 477,-75.5 477,-56.5 428,-56.5"/>
<text text-anchor="middle" x="452.5" y="-63.5" font-family="Helvetica,sans-Serif" font-size="10.00">fstream</text>
</g>
<!-- Node24&#45;&gt;Node25 -->
<g id="edge53" class="edge"><title>Node24&#45;&gt;Node25</title>
<path fill="none" stroke="midnightblue" d="M451.665,-112.083C451.796,-105.006 451.984,-94.8611 452.148,-85.9865"/>
<polygon fill="midnightblue" stroke="midnightblue" points="455.652,-85.8142 452.338,-75.7511 448.653,-85.6845 455.652,-85.8142"/>
</g>
<!-- Node26&#45;&gt;Node2 -->
<g id="edge66" class="edge"><title>Node26&#45;&gt;Node2</title>
<path fill="none" stroke="midnightblue" d="M714.287,-337.263C744.768,-327.749 796.583,-311.575 830.167,-301.092"/>
<polygon fill="midnightblue" stroke="midnightblue" points="831.458,-304.356 839.961,-298.035 829.372,-297.674 831.458,-304.356"/>
</g>
<!-- Node26&#45;&gt;Node4 -->
<g id="edge63" class="edge"><title>Node26&#45;&gt;Node4</title>
<path fill="none" stroke="midnightblue" d="M676.834,-336.299C657.335,-323.124 618.543,-297.765 583.5,-280 545.809,-260.893 533.193,-263.103 495.5,-244 437.843,-214.779 427.927,-199.53 371.5,-168 340.615,-150.742 327.054,-155.38 300.5,-132 272.156,-107.044 237.002,-83.8569 262.5,-56 278.701,-38.3004 631.811,-18.305 739.56,-12.5969"/>
<polygon fill="midnightblue" stroke="midnightblue" points="739.967,-16.0804 749.77,-12.06 739.6,-9.09009 739.967,-16.0804"/>
</g>
<!-- Node26&#45;&gt;Node7 -->
<g id="edge65" class="edge"><title>Node26&#45;&gt;Node7</title>
<path fill="none" stroke="midnightblue" d="M692.594,-336.396C700.603,-315.097 723.839,-259.104 758.5,-224 799.707,-182.266 861.673,-151.546 898.895,-135.534"/>
<polygon fill="midnightblue" stroke="midnightblue" points="900.39,-138.702 908.248,-131.596 897.674,-132.25 900.39,-138.702"/>
</g>
<!-- Node26&#45;&gt;Node23 -->
<g id="edge64" class="edge"><title>Node26&#45;&gt;Node23</title>
<path fill="none" stroke="midnightblue" d="M668.584,-336.444C645.966,-327.191 609.816,-312.402 584.933,-302.223"/>
<polygon fill="midnightblue" stroke="midnightblue" points="585.935,-298.851 575.355,-298.304 583.285,-305.33 585.935,-298.851"/>
</g>
<!-- Node27&#45;&gt;Node4 -->
<g id="edge68" class="edge"><title>Node27&#45;&gt;Node4</title>
<path fill="none" stroke="midnightblue" d="M976.095,-399.923C1042.5,-396.87 1209.05,-386.315 1254.5,-356 1282.53,-337.307 1293.5,-324.69 1293.5,-291 1293.5,-291 1293.5,-291 1293.5,-121 1293.5,-89.7179 1291.71,-74.5253 1266.5,-56 1228.99,-28.4292 903.516,-15.3982 801.17,-11.957"/>
<polygon fill="midnightblue" stroke="midnightblue" points="801.274,-8.45863 791.165,-11.6274 801.044,-15.4548 801.274,-8.45863"/>
</g>
<!-- Node27&#45;&gt;Node11 -->
<g id="edge70" class="edge"><title>Node27&#45;&gt;Node11</title>
<path fill="none" stroke="midnightblue" d="M976.25,-400.074C1039.68,-397.421 1192.76,-387.804 1231.5,-356 1255.3,-336.46 1255.5,-321.795 1255.5,-291 1255.5,-291 1255.5,-291 1255.5,-177 1255.5,-142.813 1238.9,-105.764 1227.64,-84.5707"/>
<polygon fill="midnightblue" stroke="midnightblue" points="1230.68,-82.832 1222.78,-75.769 1224.55,-86.2151 1230.68,-82.832"/>
</g>
<!-- Node27&#45;&gt;Node26 -->
<g id="edge69" class="edge"><title>Node27&#45;&gt;Node26</title>
<path fill="none" stroke="midnightblue" d="M920.647,-394.103C917.564,-393.376 914.468,-392.662 911.5,-392 845.405,-377.268 767.784,-361.995 724.047,-353.574"/>
<polygon fill="midnightblue" stroke="midnightblue" points="724.685,-350.133 714.204,-351.684 723.365,-357.007 724.685,-350.133"/>
</g>
<!-- Node28&#45;&gt;Node4 -->
<g id="edge72" class="edge"><title>Node28&#45;&gt;Node4</title>
<path fill="none" stroke="midnightblue" d="M596.096,-392.465C496.417,-354.946 118.304,-200.13 250.5,-56 267.153,-37.8437 630.887,-18.0552 739.895,-12.5148"/>
<polygon fill="midnightblue" stroke="midnightblue" points="740.104,-16.0088 749.915,-12.0093 739.751,-9.01765 740.104,-16.0088"/>
</g>
<!-- Node28&#45;&gt;Node26 -->
<g id="edge73" class="edge"><title>Node28&#45;&gt;Node26</title>
<path fill="none" stroke="midnightblue" d="M630.747,-392.324C641.297,-384.185 657.301,-371.839 669.942,-362.087"/>
<polygon fill="midnightblue" stroke="midnightblue" points="672.269,-364.713 678.049,-355.834 667.993,-359.171 672.269,-364.713"/>
</g>
<!-- Node29&#45;&gt;Node6 -->
<g id="edge75" class="edge"><title>Node29&#45;&gt;Node6</title>
<path fill="none" stroke="midnightblue" d="M903.123,-392.881C931.55,-382.889 977.354,-366.019 992.5,-356 1050.95,-317.334 1076.83,-308.808 1103.5,-244 1109.82,-228.638 1104.35,-210.085 1098.32,-196.739"/>
<polygon fill="midnightblue" stroke="midnightblue" points="1101.39,-195.059 1093.78,-187.688 1095.13,-198.196 1101.39,-195.059"/>
</g>
<!-- Node29&#45;&gt;Node11 -->
<g id="edge77" class="edge"><title>Node29&#45;&gt;Node11</title>
<path fill="none" stroke="midnightblue" d="M903.268,-393.917C980.203,-370.909 1217.5,-299.273 1217.5,-291 1217.5,-291 1217.5,-291 1217.5,-177 1217.5,-144.948 1217.5,-107.643 1217.5,-85.7489"/>
<polygon fill="midnightblue" stroke="midnightblue" points="1221,-85.5577 1217.5,-75.5578 1214,-85.5578 1221,-85.5577"/>
</g>
<!-- Node29&#45;&gt;Node26 -->
<g id="edge76" class="edge"><title>Node29&#45;&gt;Node26</title>
<path fill="none" stroke="midnightblue" d="M855.821,-394.27C822.581,-384.823 761.889,-367.574 723.734,-356.73"/>
<polygon fill="midnightblue" stroke="midnightblue" points="724.657,-353.353 714.081,-353.986 722.743,-360.087 724.657,-353.353"/>
</g>
<!-- Node30&#45;&gt;Node26 -->
<g id="edge79" class="edge"><title>Node30&#45;&gt;Node26</title>
<path fill="none" stroke="midnightblue" d="M731.244,-392.083C724.035,-384.298 713.39,-372.801 704.654,-363.367"/>
<polygon fill="midnightblue" stroke="midnightblue" points="706.965,-360.711 697.603,-355.751 701.829,-365.467 706.965,-360.711"/>
</g>
</g>
</svg>
