<?xml version="1.0" encoding="UTF-8" standalone="no"?>
<!DOCTYPE svg PUBLIC "-//W3C//DTD SVG 1.1//EN"
 "http://www.w3.org/Graphics/SVG/1.1/DTD/svg11.dtd">
<!-- Generated by graphviz version 2.38.0 (20140413.2041)
 -->
<!-- Title: E:/Dropbox/BI_FIT_CVUT/2. semestr/PA2/GameBook/Inventory.h Pages: 1 -->
<svg width="159pt" height="106pt"
 viewBox="0.00 0.00 158.50 106.00" xmlns="http://www.w3.org/2000/svg" xmlns:xlink="http://www.w3.org/1999/xlink">
<g id="graph0" class="graph" transform="scale(1 1) rotate(0) translate(4 102)">
<title>E:/Dropbox/BI_FIT_CVUT/2. semestr/PA2/GameBook/Inventory.h</title>
<!-- Node0 -->
<g id="node1" class="node"><title>Node0</title>
<polygon fill="#bfbfbf" stroke="black" points="0,-56.5 0,-97.5 140,-97.5 140,-56.5 0,-56.5"/>
<text text-anchor="start" x="8" y="-85.5" font-family="Helvetica,sans-Serif" font-size="10.00">E:/Dropbox/BI_FIT_CVUT</text>
<text text-anchor="start" x="8" y="-74.5" font-family="Helvetica,sans-Serif" font-size="10.00">/2. semestr/PA2/GameBook</text>
<text text-anchor="middle" x="70" y="-63.5" font-family="Helvetica,sans-Serif" font-size="10.00">/Inventory.h</text>
</g>
<!-- Node1 -->
<g id="node2" class="node"><title>Node1</title>
<polygon fill="none" stroke="#bfbfbf" points="1,-0.5 1,-19.5 31,-19.5 31,-0.5 1,-0.5"/>
<text text-anchor="middle" x="16" y="-7.5" font-family="Helvetica,sans-Serif" font-size="10.00">set</text>
</g>
<!-- Node0&#45;&gt;Node1 -->
<g id="edge1" class="edge"><title>Node0&#45;&gt;Node1</title>
<path fill="none" stroke="midnightblue" d="M53.7982,-56.4979C46.0763,-47.2029 36.9435,-36.2097 29.5896,-27.3579"/>
<polygon fill="midnightblue" stroke="midnightblue" points="32.2706,-25.1078 23.1882,-19.6525 26.8863,-29.581 32.2706,-25.1078"/>
</g>
<!-- Node2 -->
<g id="node3" class="node"><title>Node2</title>
<polygon fill="none" stroke="#bfbfbf" points="49,-0.5 49,-19.5 91,-19.5 91,-0.5 49,-0.5"/>
<text text-anchor="middle" x="70" y="-7.5" font-family="Helvetica,sans-Serif" font-size="10.00">vector</text>
</g>
<!-- Node0&#45;&gt;Node2 -->
<g id="edge2" class="edge"><title>Node0&#45;&gt;Node2</title>
<path fill="none" stroke="midnightblue" d="M70,-56.4979C70,-48.0653 70,-38.2351 70,-29.874"/>
<polygon fill="midnightblue" stroke="midnightblue" points="73.5001,-29.6525 70,-19.6525 66.5001,-29.6525 73.5001,-29.6525"/>
</g>
<!-- Node3 -->
<g id="node4" class="node"><title>Node3</title>
<polygon fill="none" stroke="#bfbfbf" points="109.5,-0.5 109.5,-19.5 150.5,-19.5 150.5,-0.5 109.5,-0.5"/>
<text text-anchor="middle" x="130" y="-7.5" font-family="Helvetica,sans-Serif" font-size="10.00">string</text>
</g>
<!-- Node0&#45;&gt;Node3 -->
<g id="edge3" class="edge"><title>Node0&#45;&gt;Node3</title>
<path fill="none" stroke="midnightblue" d="M88.002,-56.4979C96.6704,-47.1071 106.939,-35.9829 115.153,-27.0848"/>
<polygon fill="midnightblue" stroke="midnightblue" points="117.802,-29.3745 122.013,-19.6525 112.658,-24.6266 117.802,-29.3745"/>
</g>
</g>
</svg>
