<?xml version="1.0" encoding="UTF-8" standalone="no"?>
<!DOCTYPE svg PUBLIC "-//W3C//DTD SVG 1.1//EN"
 "http://www.w3.org/Graphics/SVG/1.1/DTD/svg11.dtd">
<!-- Generated by graphviz version 2.38.0 (20140413.2041)
 -->
<!-- Title: E:/Dropbox/BI_FIT_CVUT/2. semestr/PA2/GameBook/InventoryBrowser.h Pages: 1 -->
<svg width="1327pt" height="554pt"
 viewBox="0.00 0.00 1327.01 554.00" xmlns="http://www.w3.org/2000/svg" xmlns:xlink="http://www.w3.org/1999/xlink">
<g id="graph0" class="graph" transform="scale(1 1) rotate(0) translate(4 550)">
<title>E:/Dropbox/BI_FIT_CVUT/2. semestr/PA2/GameBook/InventoryBrowser.h</title>
<!-- Node0 -->
<g id="node1" class="node"><title>Node0</title>
<polygon fill="#bfbfbf" stroke="black" points="771.012,-504.5 771.012,-545.5 911.012,-545.5 911.012,-504.5 771.012,-504.5"/>
<text text-anchor="start" x="779.012" y="-533.5" font-family="Helvetica,sans-Serif" font-size="10.00">E:/Dropbox/BI_FIT_CVUT</text>
<text text-anchor="start" x="779.012" y="-522.5" font-family="Helvetica,sans-Serif" font-size="10.00">/2. semestr/PA2/GameBook</text>
<text text-anchor="middle" x="841.012" y="-511.5" font-family="Helvetica,sans-Serif" font-size="10.00">/InventoryBrowser.h</text>
</g>
<!-- Node1 -->
<g id="node2" class="node"><title>Node1</title>
<polygon fill="none" stroke="#bfbfbf" points="883.512,-0.5 883.512,-19.5 924.512,-19.5 924.512,-0.5 883.512,-0.5"/>
<text text-anchor="middle" x="904.012" y="-7.5" font-family="Helvetica,sans-Serif" font-size="10.00">string</text>
</g>
<!-- Node0&#45;&gt;Node1 -->
<g id="edge1" class="edge"><title>Node0&#45;&gt;Node1</title>
<path fill="none" stroke="midnightblue" d="M911.029,-520.788C1043.8,-512.777 1319.01,-486.143 1319.01,-403 1319.01,-403 1319.01,-403 1319.01,-121 1319.01,-87.0792 1307.58,-74.2843 1279.01,-56 1222.18,-19.6267 1014.34,-12.6529 935.038,-11.3165"/>
<polygon fill="midnightblue" stroke="midnightblue" points="934.782,-7.81244 924.731,-11.1629 934.678,-14.8117 934.782,-7.81244"/>
</g>
<!-- Node2 -->
<g id="node3" class="node"><title>Node2</title>
<g id="a_node3"><a xlink:href="_world_8h.html" target="_top" xlink:title="World.h">
<polygon fill="none" stroke="black" points="816.012,-448.5 816.012,-467.5 866.012,-467.5 866.012,-448.5 816.012,-448.5"/>
<text text-anchor="middle" x="841.012" y="-455.5" font-family="Helvetica,sans-Serif" font-size="10.00">World.h</text>
</a>
</g>
</g>
<!-- Node0&#45;&gt;Node2 -->
<g id="edge2" class="edge"><title>Node0&#45;&gt;Node2</title>
<path fill="none" stroke="midnightblue" d="M841.012,-504.498C841.012,-496.065 841.012,-486.235 841.012,-477.874"/>
<polygon fill="midnightblue" stroke="midnightblue" points="844.512,-477.652 841.012,-467.652 837.512,-477.653 844.512,-477.652"/>
</g>
<!-- Node21 -->
<g id="node22" class="node"><title>Node21</title>
<g id="a_node22"><a xlink:href="_hero_8h.html" target="_top" xlink:title="Hero.h">
<polygon fill="none" stroke="black" points="612.512,-280.5 612.512,-299.5 657.512,-299.5 657.512,-280.5 612.512,-280.5"/>
<text text-anchor="middle" x="635.012" y="-287.5" font-family="Helvetica,sans-Serif" font-size="10.00">Hero.h</text>
</a>
</g>
</g>
<!-- Node0&#45;&gt;Node21 -->
<g id="edge76" class="edge"><title>Node0&#45;&gt;Node21</title>
<path fill="none" stroke="midnightblue" d="M823.449,-504.135C783.397,-458.833 685.943,-348.606 649.277,-307.135"/>
<polygon fill="midnightblue" stroke="midnightblue" points="651.849,-304.76 642.603,-299.586 646.605,-309.396 651.849,-304.76"/>
</g>
<!-- Node2&#45;&gt;Node1 -->
<g id="edge4" class="edge"><title>Node2&#45;&gt;Node1</title>
<path fill="none" stroke="midnightblue" d="M866.197,-456.045C949.86,-452.62 1214.67,-439.66 1240.01,-412 1276.35,-372.334 1243.01,-344.794 1243.01,-291 1243.01,-291 1243.01,-291 1243.01,-121 1243.01,-56.5365 1018.43,-24.1374 934.854,-14.3124"/>
<polygon fill="midnightblue" stroke="midnightblue" points="935.041,-10.811 924.708,-13.1497 934.244,-17.7655 935.041,-10.811"/>
</g>
<!-- Node3 -->
<g id="node4" class="node"><title>Node3</title>
<polygon fill="none" stroke="#bfbfbf" points="534.012,-56.5 534.012,-75.5 588.012,-75.5 588.012,-56.5 534.012,-56.5"/>
<text text-anchor="middle" x="561.012" y="-63.5" font-family="Helvetica,sans-Serif" font-size="10.00">iostream</text>
</g>
<!-- Node2&#45;&gt;Node3 -->
<g id="edge3" class="edge"><title>Node2&#45;&gt;Node3</title>
<path fill="none" stroke="midnightblue" d="M815.94,-455.489C728.891,-449.568 445.012,-424.329 445.012,-347 445.012,-347 445.012,-347 445.012,-289 445.012,-203.249 513.838,-117.883 545.46,-83.1878"/>
<polygon fill="midnightblue" stroke="midnightblue" points="548.042,-85.5508 552.293,-75.8462 542.918,-80.7816 548.042,-85.5508"/>
</g>
<!-- Node4 -->
<g id="node5" class="node"><title>Node4</title>
<polygon fill="none" stroke="#bfbfbf" points="404.012,-0.5 404.012,-19.5 446.012,-19.5 446.012,-0.5 404.012,-0.5"/>
<text text-anchor="middle" x="425.012" y="-7.5" font-family="Helvetica,sans-Serif" font-size="10.00">vector</text>
</g>
<!-- Node2&#45;&gt;Node4 -->
<g id="edge5" class="edge"><title>Node2&#45;&gt;Node4</title>
<path fill="none" stroke="midnightblue" d="M815.928,-456.66C706.461,-454.981 270.166,-446.232 138.012,-412 72.7708,-395.1 1.01211,-414.395 1.01211,-347 1.01211,-347 1.01211,-347 1.01211,-121 1.01211,-90.9022 -3.03634,-75.3558 20.0121,-56 48.5146,-32.064 303.843,-17.0716 393.81,-12.4939"/>
<polygon fill="midnightblue" stroke="midnightblue" points="394.123,-15.9827 403.936,-11.9873 393.774,-8.99143 394.123,-15.9827"/>
</g>
<!-- Node5 -->
<g id="node6" class="node"><title>Node5</title>
<polygon fill="none" stroke="#bfbfbf" points="1141.51,-280.5 1141.51,-299.5 1176.51,-299.5 1176.51,-280.5 1141.51,-280.5"/>
<text text-anchor="middle" x="1159.01" y="-287.5" font-family="Helvetica,sans-Serif" font-size="10.00">map</text>
</g>
<!-- Node2&#45;&gt;Node5 -->
<g id="edge6" class="edge"><title>Node2&#45;&gt;Node5</title>
<path fill="none" stroke="midnightblue" d="M866.446,-456.45C929.157,-454.569 1088.86,-446.432 1127.01,-412 1156.09,-385.76 1160.08,-336.484 1159.9,-309.621"/>
<polygon fill="midnightblue" stroke="midnightblue" points="1163.4,-309.513 1159.63,-299.612 1156.4,-309.704 1163.4,-309.513"/>
</g>
<!-- Node6 -->
<g id="node7" class="node"><title>Node6</title>
<polygon fill="none" stroke="#bfbfbf" points="367.012,-56.5 367.012,-75.5 397.012,-75.5 397.012,-56.5 367.012,-56.5"/>
<text text-anchor="middle" x="382.012" y="-63.5" font-family="Helvetica,sans-Serif" font-size="10.00">set</text>
</g>
<!-- Node2&#45;&gt;Node6 -->
<g id="edge7" class="edge"><title>Node2&#45;&gt;Node6</title>
<path fill="none" stroke="midnightblue" d="M815.859,-457.419C707.872,-458.558 289.012,-455.955 289.012,-347 289.012,-347 289.012,-347 289.012,-289 289.012,-246.162 348.665,-129.543 372.42,-84.8028"/>
<polygon fill="midnightblue" stroke="midnightblue" points="375.645,-86.194 377.272,-75.7249 369.472,-82.8941 375.645,-86.194"/>
</g>
<!-- Node7 -->
<g id="node8" class="node"><title>Node7</title>
<g id="a_node8"><a xlink:href="_i_ohandle_8h.html" target="_top" xlink:title="IOhandle.h">
<polygon fill="none" stroke="black" points="87.5121,-112.5 87.5121,-131.5 150.512,-131.5 150.512,-112.5 87.5121,-112.5"/>
<text text-anchor="middle" x="119.012" y="-119.5" font-family="Helvetica,sans-Serif" font-size="10.00">IOhandle.h</text>
</a>
</g>
</g>
<!-- Node2&#45;&gt;Node7 -->
<g id="edge8" class="edge"><title>Node2&#45;&gt;Node7</title>
<path fill="none" stroke="midnightblue" d="M815.736,-456.75C699.616,-455.414 220.592,-447.756 165.012,-412 137.418,-394.248 130.012,-379.811 130.012,-347 130.012,-347 130.012,-347 130.012,-233 130.012,-200.788 125.284,-163.532 122.027,-141.692"/>
<polygon fill="midnightblue" stroke="midnightblue" points="125.442,-140.874 120.45,-131.529 118.525,-141.947 125.442,-140.874"/>
</g>
<!-- Node10 -->
<g id="node11" class="node"><title>Node10</title>
<g id="a_node11"><a xlink:href="_errors_list_8h.html" target="_top" xlink:title="ErrorsList.h">
<polygon fill="none" stroke="black" points="205.512,-56.5 205.512,-75.5 272.512,-75.5 272.512,-56.5 205.512,-56.5"/>
<text text-anchor="middle" x="239.012" y="-63.5" font-family="Helvetica,sans-Serif" font-size="10.00">ErrorsList.h</text>
</a>
</g>
</g>
<!-- Node2&#45;&gt;Node10 -->
<g id="edge20" class="edge"><title>Node2&#45;&gt;Node10</title>
<path fill="none" stroke="midnightblue" d="M815.944,-457.148C717.525,-457.415 357.889,-455.344 254.012,-412 213.304,-395.014 179.012,-391.11 179.012,-347 179.012,-347 179.012,-347 179.012,-177 179.012,-139.883 205.666,-103.378 223.444,-83.1581"/>
<polygon fill="midnightblue" stroke="midnightblue" points="226.249,-85.2762 230.416,-75.5349 221.084,-80.552 226.249,-85.2762"/>
</g>
<!-- Node11 -->
<g id="node12" class="node"><title>Node11</title>
<g id="a_node12"><a xlink:href="_stream_decoder_8h.html" target="_top" xlink:title="StreamDecoder.h">
<polygon fill="none" stroke="black" points="245.012,-112.5 245.012,-131.5 337.012,-131.5 337.012,-112.5 245.012,-112.5"/>
<text text-anchor="middle" x="291.012" y="-119.5" font-family="Helvetica,sans-Serif" font-size="10.00">StreamDecoder.h</text>
</a>
</g>
</g>
<!-- Node2&#45;&gt;Node11 -->
<g id="edge14" class="edge"><title>Node2&#45;&gt;Node11</title>
<path fill="none" stroke="midnightblue" d="M815.669,-456.571C711.35,-454.593 318.575,-444.994 275.012,-412 250.463,-393.407 251.012,-377.795 251.012,-347 251.012,-347 251.012,-347 251.012,-233 251.012,-198.617 268.486,-161.631 280.336,-140.503"/>
<polygon fill="midnightblue" stroke="midnightblue" points="283.436,-142.133 285.45,-131.731 277.389,-138.607 283.436,-142.133"/>
</g>
<!-- Node12 -->
<g id="node13" class="node"><title>Node12</title>
<g id="a_node13"><a xlink:href="_armour_8h.html" target="_top" xlink:title="Armour.h">
<polygon fill="none" stroke="black" points="769.012,-224.5 769.012,-243.5 825.012,-243.5 825.012,-224.5 769.012,-224.5"/>
<text text-anchor="middle" x="797.012" y="-231.5" font-family="Helvetica,sans-Serif" font-size="10.00">Armour.h</text>
</a>
</g>
</g>
<!-- Node2&#45;&gt;Node12 -->
<g id="edge21" class="edge"><title>Node2&#45;&gt;Node12</title>
<path fill="none" stroke="midnightblue" d="M837.983,-448.468C834.883,-439.487 830.095,-424.891 827.012,-412 813.388,-355.036 803.6,-286.325 799.358,-253.809"/>
<polygon fill="midnightblue" stroke="midnightblue" points="802.787,-253.032 798.049,-243.556 795.844,-253.919 802.787,-253.032"/>
</g>
<!-- Node19 -->
<g id="node20" class="node"><title>Node19</title>
<g id="a_node20"><a xlink:href="_sword_8h.html" target="_top" xlink:title="Sword.h">
<polygon fill="none" stroke="black" points="881.012,-224.5 881.012,-243.5 933.012,-243.5 933.012,-224.5 881.012,-224.5"/>
<text text-anchor="middle" x="907.012" y="-231.5" font-family="Helvetica,sans-Serif" font-size="10.00">Sword.h</text>
</a>
</g>
</g>
<!-- Node2&#45;&gt;Node19 -->
<g id="edge38" class="edge"><title>Node2&#45;&gt;Node19</title>
<path fill="none" stroke="midnightblue" d="M843.575,-448.163C847.209,-435.654 854.075,-412.068 860.012,-392 874.899,-341.679 892.731,-282.374 901.537,-253.15"/>
<polygon fill="midnightblue" stroke="midnightblue" points="904.91,-254.088 904.445,-243.504 898.208,-252.068 904.91,-254.088"/>
</g>
<!-- Node20 -->
<g id="node21" class="node"><title>Node20</title>
<g id="a_node21"><a xlink:href="_event_8h.html" target="_top" xlink:title="Event.h">
<polygon fill="none" stroke="black" points="1027.51,-336.5 1027.51,-355.5 1076.51,-355.5 1076.51,-336.5 1027.51,-336.5"/>
<text text-anchor="middle" x="1052.01" y="-343.5" font-family="Helvetica,sans-Serif" font-size="10.00">Event.h</text>
</a>
</g>
</g>
<!-- Node2&#45;&gt;Node20 -->
<g id="edge40" class="edge"><title>Node2&#45;&gt;Node20</title>
<path fill="none" stroke="midnightblue" d="M866.23,-453.19C896.815,-447.722 949.101,-435.595 988.012,-412 1008.65,-399.488 1027.39,-378.842 1039.18,-364.178"/>
<polygon fill="midnightblue" stroke="midnightblue" points="1042.21,-365.99 1045.59,-355.947 1036.68,-361.693 1042.21,-365.99"/>
</g>
<!-- Node25 -->
<g id="node26" class="node"><title>Node25</title>
<g id="a_node26"><a xlink:href="_choice_8h.html" target="_top" xlink:title="Choice.h">
<polygon fill="none" stroke="black" points="1175.51,-392.5 1175.51,-411.5 1230.51,-411.5 1230.51,-392.5 1175.51,-392.5"/>
<text text-anchor="middle" x="1203.01" y="-399.5" font-family="Helvetica,sans-Serif" font-size="10.00">Choice.h</text>
</a>
</g>
</g>
<!-- Node2&#45;&gt;Node25 -->
<g id="edge63" class="edge"><title>Node2&#45;&gt;Node25</title>
<path fill="none" stroke="midnightblue" d="M866.414,-454.053C920.689,-447.62 1051.91,-431.335 1161.01,-412 1162.48,-411.74 1163.98,-411.465 1165.49,-411.18"/>
<polygon fill="midnightblue" stroke="midnightblue" points="1166.38,-414.571 1175.5,-409.188 1165.01,-407.705 1166.38,-414.571"/>
</g>
<!-- Node26 -->
<g id="node27" class="node"><title>Node26</title>
<g id="a_node27"><a xlink:href="_dialogue_n_c_p_8h.html" target="_top" xlink:title="DialogueNCP.h">
<polygon fill="none" stroke="black" points="1035.51,-392.5 1035.51,-411.5 1118.51,-411.5 1118.51,-392.5 1035.51,-392.5"/>
<text text-anchor="middle" x="1077.01" y="-399.5" font-family="Helvetica,sans-Serif" font-size="10.00">DialogueNCP.h</text>
</a>
</g>
</g>
<!-- Node2&#45;&gt;Node26 -->
<g id="edge67" class="edge"><title>Node2&#45;&gt;Node26</title>
<path fill="none" stroke="midnightblue" d="M866.268,-451.221C905.204,-442.312 980.533,-425.076 1029.78,-413.807"/>
<polygon fill="midnightblue" stroke="midnightblue" points="1030.6,-417.21 1039.57,-411.568 1029.04,-410.386 1030.6,-417.21"/>
</g>
<!-- Node27 -->
<g id="node28" class="node"><title>Node27</title>
<g id="a_node28"><a xlink:href="_fight_8h.html" target="_top" xlink:title="Fight.h">
<polygon fill="none" stroke="black" points="869.512,-392.5 869.512,-411.5 916.512,-411.5 916.512,-392.5 869.512,-392.5"/>
<text text-anchor="middle" x="893.012" y="-399.5" font-family="Helvetica,sans-Serif" font-size="10.00">Fight.h</text>
</a>
</g>
</g>
<!-- Node2&#45;&gt;Node27 -->
<g id="edge70" class="edge"><title>Node2&#45;&gt;Node27</title>
<path fill="none" stroke="midnightblue" d="M849.599,-448.083C857.171,-440.22 868.39,-428.569 877.526,-419.081"/>
<polygon fill="midnightblue" stroke="midnightblue" points="880.17,-421.382 884.585,-411.751 875.128,-416.527 880.17,-421.382"/>
</g>
<!-- Node28 -->
<g id="node29" class="node"><title>Node28</title>
<g id="a_node29"><a xlink:href="_trap_8h.html" target="_top" xlink:title="Trap.h">
<polygon fill="none" stroke="black" points="935.012,-392.5 935.012,-411.5 979.012,-411.5 979.012,-392.5 935.012,-392.5"/>
<text text-anchor="middle" x="957.012" y="-399.5" font-family="Helvetica,sans-Serif" font-size="10.00">Trap.h</text>
</a>
</g>
</g>
<!-- Node2&#45;&gt;Node28 -->
<g id="edge74" class="edge"><title>Node2&#45;&gt;Node28</title>
<path fill="none" stroke="midnightblue" d="M859.393,-448.444C878.229,-439.675 907.743,-425.935 929.391,-415.858"/>
<polygon fill="midnightblue" stroke="midnightblue" points="931.129,-418.91 938.718,-411.516 928.175,-412.564 931.129,-418.91"/>
</g>
<!-- Node7&#45;&gt;Node1 -->
<g id="edge11" class="edge"><title>Node7&#45;&gt;Node1</title>
<path fill="none" stroke="midnightblue" d="M116.866,-112.342C113.954,-98.2721 110.72,-70.5537 126.012,-56 153.533,-29.8086 731.858,-14.932 873.101,-11.681"/>
<polygon fill="midnightblue" stroke="midnightblue" points="873.315,-15.1772 883.232,-11.4506 873.155,-8.17896 873.315,-15.1772"/>
</g>
<!-- Node7&#45;&gt;Node3 -->
<g id="edge12" class="edge"><title>Node7&#45;&gt;Node3</title>
<path fill="none" stroke="midnightblue" d="M150.8,-117.116C230.512,-107.378 438.602,-81.9551 523.811,-71.5449"/>
<polygon fill="midnightblue" stroke="midnightblue" points="524.312,-75.0099 533.813,-70.3229 523.463,-68.0615 524.312,-75.0099"/>
</g>
<!-- Node8 -->
<g id="node9" class="node"><title>Node8</title>
<polygon fill="none" stroke="#bfbfbf" points="29.5121,-56.5 29.5121,-75.5 78.5121,-75.5 78.5121,-56.5 29.5121,-56.5"/>
<text text-anchor="middle" x="54.0121" y="-63.5" font-family="Helvetica,sans-Serif" font-size="10.00">fstream</text>
</g>
<!-- Node7&#45;&gt;Node8 -->
<g id="edge9" class="edge"><title>Node7&#45;&gt;Node8</title>
<path fill="none" stroke="midnightblue" d="M108.569,-112.324C98.8659,-104.263 84.1968,-92.0765 72.5124,-82.3695"/>
<polygon fill="midnightblue" stroke="midnightblue" points="74.574,-79.532 64.6455,-75.8339 70.1009,-84.9163 74.574,-79.532"/>
</g>
<!-- Node9 -->
<g id="node10" class="node"><title>Node9</title>
<polygon fill="none" stroke="#bfbfbf" points="135.012,-56.5 135.012,-75.5 187.012,-75.5 187.012,-56.5 135.012,-56.5"/>
<text text-anchor="middle" x="161.012" y="-63.5" font-family="Helvetica,sans-Serif" font-size="10.00">sstream</text>
</g>
<!-- Node7&#45;&gt;Node9 -->
<g id="edge10" class="edge"><title>Node7&#45;&gt;Node9</title>
<path fill="none" stroke="midnightblue" d="M125.948,-112.083C131.941,-104.377 140.764,-93.0333 148.06,-83.6531"/>
<polygon fill="midnightblue" stroke="midnightblue" points="150.829,-85.7934 154.206,-75.7511 145.304,-81.4958 150.829,-85.7934"/>
</g>
<!-- Node7&#45;&gt;Node10 -->
<g id="edge13" class="edge"><title>Node7&#45;&gt;Node10</title>
<path fill="none" stroke="midnightblue" d="M138.026,-112.444C157.6,-103.636 188.32,-89.8116 210.741,-79.722"/>
<polygon fill="midnightblue" stroke="midnightblue" points="212.404,-82.8119 220.087,-75.5164 209.531,-76.4284 212.404,-82.8119"/>
</g>
<!-- Node11&#45;&gt;Node1 -->
<g id="edge15" class="edge"><title>Node11&#45;&gt;Node1</title>
<path fill="none" stroke="midnightblue" d="M296.81,-112.344C307.141,-97.7471 330.27,-68.597 358.012,-56 450.971,-13.7895 771.983,-10.7281 873.193,-10.8395"/>
<polygon fill="midnightblue" stroke="midnightblue" points="873.351,-14.3398 883.359,-10.8626 873.367,-7.33982 873.351,-14.3398"/>
</g>
<!-- Node11&#45;&gt;Node4 -->
<g id="edge17" class="edge"><title>Node11&#45;&gt;Node4</title>
<path fill="none" stroke="midnightblue" d="M293.521,-112.282C297.856,-98.6201 307.96,-72.0729 325.012,-56 344.506,-37.625 372.783,-25.8542 394.298,-18.9791"/>
<polygon fill="midnightblue" stroke="midnightblue" points="395.382,-22.3079 403.949,-16.0743 393.365,-15.6049 395.382,-22.3079"/>
</g>
<!-- Node11&#45;&gt;Node6 -->
<g id="edge18" class="edge"><title>Node11&#45;&gt;Node6</title>
<path fill="none" stroke="midnightblue" d="M305.633,-112.324C319.961,-103.822 342.025,-90.7288 358.761,-80.7975"/>
<polygon fill="midnightblue" stroke="midnightblue" points="360.614,-83.7677 367.428,-75.6545 357.042,-77.7478 360.614,-83.7677"/>
</g>
<!-- Node11&#45;&gt;Node9 -->
<g id="edge16" class="edge"><title>Node11&#45;&gt;Node9</title>
<path fill="none" stroke="midnightblue" d="M270.413,-112.444C249.019,-103.557 215.331,-89.5632 190.988,-79.4514"/>
<polygon fill="midnightblue" stroke="midnightblue" points="192.092,-76.1203 181.515,-75.5164 189.407,-82.5848 192.092,-76.1203"/>
</g>
<!-- Node11&#45;&gt;Node10 -->
<g id="edge19" class="edge"><title>Node11&#45;&gt;Node10</title>
<path fill="none" stroke="midnightblue" d="M282.425,-112.083C274.853,-104.22 263.634,-92.5688 254.498,-83.0813"/>
<polygon fill="midnightblue" stroke="midnightblue" points="256.897,-80.5266 247.439,-75.7511 251.854,-85.3821 256.897,-80.5266"/>
</g>
<!-- Node13 -->
<g id="node14" class="node"><title>Node13</title>
<g id="a_node14"><a xlink:href="_item_8h.html" target="_top" xlink:title="Item.h">
<polygon fill="none" stroke="black" points="669.012,-168.5 669.012,-187.5 713.012,-187.5 713.012,-168.5 669.012,-168.5"/>
<text text-anchor="middle" x="691.012" y="-175.5" font-family="Helvetica,sans-Serif" font-size="10.00">Item.h</text>
</a>
</g>
</g>
<!-- Node12&#45;&gt;Node13 -->
<g id="edge22" class="edge"><title>Node12&#45;&gt;Node13</title>
<path fill="none" stroke="midnightblue" d="M779.981,-224.324C762.982,-215.664 736.636,-202.242 717.019,-192.249"/>
<polygon fill="midnightblue" stroke="midnightblue" points="718.5,-189.075 708.001,-187.655 715.322,-195.312 718.5,-189.075"/>
</g>
<!-- Node13&#45;&gt;Node1 -->
<g id="edge24" class="edge"><title>Node13&#45;&gt;Node1</title>
<path fill="none" stroke="midnightblue" d="M713.311,-170.305C735.176,-163.068 768.804,-150.09 794.012,-132 835.92,-101.927 873.749,-53.5932 892.18,-28.0663"/>
<polygon fill="midnightblue" stroke="midnightblue" points="895.134,-29.9512 898.065,-19.7696 889.424,-25.9015 895.134,-29.9512"/>
</g>
<!-- Node13&#45;&gt;Node3 -->
<g id="edge23" class="edge"><title>Node13&#45;&gt;Node3</title>
<path fill="none" stroke="midnightblue" d="M690.321,-168.269C688.793,-154.591 683.973,-128.022 669.012,-112 650.294,-91.9549 621.278,-80.5365 598.033,-74.2209"/>
<polygon fill="midnightblue" stroke="midnightblue" points="598.696,-70.7789 588.145,-71.7409 596.993,-77.5686 598.696,-70.7789"/>
</g>
<!-- Node14 -->
<g id="node15" class="node"><title>Node14</title>
<g id="a_node15"><a xlink:href="_display_8h.html" target="_top" xlink:title="Display.h">
<polygon fill="none" stroke="black" points="842.512,-112.5 842.512,-131.5 899.512,-131.5 899.512,-112.5 842.512,-112.5"/>
<text text-anchor="middle" x="871.012" y="-119.5" font-family="Helvetica,sans-Serif" font-size="10.00">Display.h</text>
</a>
</g>
</g>
<!-- Node13&#45;&gt;Node14 -->
<g id="edge25" class="edge"><title>Node13&#45;&gt;Node14</title>
<path fill="none" stroke="midnightblue" d="M713.084,-170.379C742.86,-161.446 796.352,-145.398 832.749,-134.479"/>
<polygon fill="midnightblue" stroke="midnightblue" points="833.955,-137.771 842.528,-131.545 831.944,-131.066 833.955,-137.771"/>
</g>
<!-- Node17 -->
<g id="node18" class="node"><title>Node17</title>
<g id="a_node18"><a xlink:href="_equipment_8h.html" target="_top" xlink:title="Equipment.h">
<polygon fill="none" stroke="black" points="589.512,-112.5 589.512,-131.5 660.512,-131.5 660.512,-112.5 589.512,-112.5"/>
<text text-anchor="middle" x="625.012" y="-119.5" font-family="Helvetica,sans-Serif" font-size="10.00">Equipment.h</text>
</a>
</g>
</g>
<!-- Node13&#45;&gt;Node17 -->
<g id="edge35" class="edge"><title>Node13&#45;&gt;Node17</title>
<path fill="none" stroke="midnightblue" d="M680.408,-168.324C670.556,-160.263 655.661,-148.077 643.797,-138.369"/>
<polygon fill="midnightblue" stroke="midnightblue" points="645.765,-135.457 635.809,-131.834 641.332,-140.875 645.765,-135.457"/>
</g>
<!-- Node18 -->
<g id="node19" class="node"><title>Node18</title>
<g id="a_node19"><a xlink:href="_hero_stats_8h.html" target="_top" xlink:title="HeroStats.h">
<polygon fill="none" stroke="black" points="717.012,-112.5 717.012,-131.5 785.012,-131.5 785.012,-112.5 717.012,-112.5"/>
<text text-anchor="middle" x="751.012" y="-119.5" font-family="Helvetica,sans-Serif" font-size="10.00">HeroStats.h</text>
</a>
</g>
</g>
<!-- Node13&#45;&gt;Node18 -->
<g id="edge36" class="edge"><title>Node13&#45;&gt;Node18</title>
<path fill="none" stroke="midnightblue" d="M700.652,-168.324C709.522,-160.341 722.887,-148.313 733.62,-138.653"/>
<polygon fill="midnightblue" stroke="midnightblue" points="736.105,-141.125 741.197,-131.834 731.422,-135.922 736.105,-141.125"/>
</g>
<!-- Node14&#45;&gt;Node1 -->
<g id="edge27" class="edge"><title>Node14&#45;&gt;Node1</title>
<path fill="none" stroke="midnightblue" d="M873.602,-112.368C878.951,-94.5366 891.324,-53.2953 898.531,-29.2717"/>
<polygon fill="midnightblue" stroke="midnightblue" points="901.914,-30.1754 901.435,-19.5914 895.209,-28.1639 901.914,-30.1754"/>
</g>
<!-- Node14&#45;&gt;Node3 -->
<g id="edge28" class="edge"><title>Node14&#45;&gt;Node3</title>
<path fill="none" stroke="midnightblue" d="M842.404,-116.017C786.152,-106.218 661.181,-84.4487 598.453,-73.522"/>
<polygon fill="midnightblue" stroke="midnightblue" points="598.669,-70.007 588.217,-71.7389 597.468,-76.9032 598.669,-70.007"/>
</g>
<!-- Node14&#45;&gt;Node4 -->
<g id="edge26" class="edge"><title>Node14&#45;&gt;Node4</title>
<path fill="none" stroke="midnightblue" d="M842.434,-113.952C762.785,-94.3072 538.739,-39.0493 456.12,-18.6722"/>
<polygon fill="midnightblue" stroke="midnightblue" points="456.864,-15.2511 446.317,-16.2546 455.188,-22.0475 456.864,-15.2511"/>
</g>
<!-- Node14&#45;&gt;Node10 -->
<g id="edge30" class="edge"><title>Node14&#45;&gt;Node10</title>
<path fill="none" stroke="midnightblue" d="M842.152,-117.381C827.709,-115.633 809.951,-113.577 794.012,-112 694.893,-102.192 395.738,-79.0165 282.807,-70.3488"/>
<polygon fill="midnightblue" stroke="midnightblue" points="283.025,-66.8553 272.787,-69.5803 282.49,-73.8348 283.025,-66.8553"/>
</g>
<!-- Node15 -->
<g id="node16" class="node"><title>Node15</title>
<g id="a_node16"><a xlink:href="_actions_list_8h.html" target="_top" xlink:title="ActionsList.h">
<polygon fill="none" stroke="black" points="1140.01,-0.5 1140.01,-19.5 1214.01,-19.5 1214.01,-0.5 1140.01,-0.5"/>
<text text-anchor="middle" x="1177.01" y="-7.5" font-family="Helvetica,sans-Serif" font-size="10.00">ActionsList.h</text>
</a>
</g>
</g>
<!-- Node14&#45;&gt;Node15 -->
<g id="edge29" class="edge"><title>Node14&#45;&gt;Node15</title>
<path fill="none" stroke="midnightblue" d="M899.759,-115.535C934.901,-108.418 995.882,-94.6485 1046.01,-76 1084.84,-61.5574 1127.38,-39.1219 1153.14,-24.7482"/>
<polygon fill="midnightblue" stroke="midnightblue" points="1155.15,-27.6295 1162.14,-19.6675 1151.71,-21.5328 1155.15,-27.6295"/>
</g>
<!-- Node16 -->
<g id="node17" class="node"><title>Node16</title>
<g id="a_node17"><a xlink:href="_game_menus_8h.html" target="_top" xlink:title="GameMenus.h">
<polygon fill="none" stroke="black" points="957.012,-56.5 957.012,-75.5 1037.01,-75.5 1037.01,-56.5 957.012,-56.5"/>
<text text-anchor="middle" x="997.012" y="-63.5" font-family="Helvetica,sans-Serif" font-size="10.00">GameMenus.h</text>
</a>
</g>
</g>
<!-- Node14&#45;&gt;Node16 -->
<g id="edge31" class="edge"><title>Node14&#45;&gt;Node16</title>
<path fill="none" stroke="midnightblue" d="M890.977,-112.444C911.621,-103.596 944.075,-89.6875 967.644,-79.5865"/>
<polygon fill="midnightblue" stroke="midnightblue" points="969.328,-82.6727 977.14,-75.5164 966.57,-76.2387 969.328,-82.6727"/>
</g>
<!-- Node16&#45;&gt;Node1 -->
<g id="edge32" class="edge"><title>Node16&#45;&gt;Node1</title>
<path fill="none" stroke="midnightblue" d="M982.07,-56.324C967.427,-47.8215 944.878,-34.7288 927.774,-24.7975"/>
<polygon fill="midnightblue" stroke="midnightblue" points="929.322,-21.6491 918.917,-19.6545 925.808,-27.7027 929.322,-21.6491"/>
</g>
<!-- Node16&#45;&gt;Node4 -->
<g id="edge33" class="edge"><title>Node16&#45;&gt;Node4</title>
<path fill="none" stroke="midnightblue" d="M956.79,-61.2028C848.575,-50.9867 552.89,-23.0724 456.121,-13.9368"/>
<polygon fill="midnightblue" stroke="midnightblue" points="456.382,-10.446 446.097,-12.9905 455.724,-17.415 456.382,-10.446"/>
</g>
<!-- Node16&#45;&gt;Node15 -->
<g id="edge34" class="edge"><title>Node16&#45;&gt;Node15</title>
<path fill="none" stroke="midnightblue" d="M1025.53,-56.4435C1056.08,-47.2801 1104.72,-32.6876 1138.61,-22.5192"/>
<polygon fill="midnightblue" stroke="midnightblue" points="1140.05,-25.7424 1148.62,-19.5164 1138.04,-19.0376 1140.05,-25.7424"/>
</g>
<!-- Node18&#45;&gt;Node1 -->
<g id="edge37" class="edge"><title>Node18&#45;&gt;Node1</title>
<path fill="none" stroke="midnightblue" d="M755.61,-112.283C763.203,-98.623 779.576,-72.0781 800.012,-56 821.903,-38.7779 851.389,-26.8414 873.375,-19.6117"/>
<polygon fill="midnightblue" stroke="midnightblue" points="874.703,-22.8631 883.196,-16.5286 872.607,-16.1844 874.703,-22.8631"/>
</g>
<!-- Node19&#45;&gt;Node13 -->
<g id="edge39" class="edge"><title>Node19&#45;&gt;Node13</title>
<path fill="none" stroke="midnightblue" d="M880.957,-226.486C841.36,-216.587 766.109,-197.774 723.166,-187.038"/>
<polygon fill="midnightblue" stroke="midnightblue" points="723.791,-183.587 713.24,-184.557 722.093,-190.378 723.791,-183.587"/>
</g>
<!-- Node20&#45;&gt;Node1 -->
<g id="edge41" class="edge"><title>Node20&#45;&gt;Node1</title>
<path fill="none" stroke="midnightblue" d="M1055.11,-336.289C1061.39,-317.856 1075.01,-273.435 1075.01,-235 1075.01,-235 1075.01,-235 1075.01,-121 1075.01,-89.3663 1069.61,-77.0724 1046.01,-56 1014.82,-28.1407 966.37,-17.5218 934.914,-13.4789"/>
<polygon fill="midnightblue" stroke="midnightblue" points="935.279,-9.99792 924.947,-12.3445 934.487,-16.953 935.279,-9.99792"/>
</g>
<!-- Node20&#45;&gt;Node5 -->
<g id="edge42" class="edge"><title>Node20&#45;&gt;Node5</title>
<path fill="none" stroke="midnightblue" d="M1069.2,-336.324C1086.36,-327.664 1112.96,-314.242 1132.76,-304.249"/>
<polygon fill="midnightblue" stroke="midnightblue" points="1134.51,-307.285 1141.86,-299.655 1131.36,-301.035 1134.51,-307.285"/>
</g>
<!-- Node20&#45;&gt;Node14 -->
<g id="edge43" class="edge"><title>Node20&#45;&gt;Node14</title>
<path fill="none" stroke="midnightblue" d="M1048.16,-336.346C1035.68,-308.986 993.902,-222.93 939.012,-168 926.573,-155.552 910.18,-144.582 896.606,-136.59"/>
<polygon fill="midnightblue" stroke="midnightblue" points="898.166,-133.451 887.743,-131.551 894.707,-139.536 898.166,-133.451"/>
</g>
<!-- Node20&#45;&gt;Node21 -->
<g id="edge44" class="edge"><title>Node20&#45;&gt;Node21</title>
<path fill="none" stroke="midnightblue" d="M1027.48,-341.824C956.14,-332.585 748.661,-305.717 667.808,-295.247"/>
<polygon fill="midnightblue" stroke="midnightblue" points="668.074,-291.752 657.708,-293.939 667.175,-298.694 668.074,-291.752"/>
</g>
<!-- Node21&#45;&gt;Node1 -->
<g id="edge46" class="edge"><title>Node21&#45;&gt;Node1</title>
<path fill="none" stroke="midnightblue" d="M612.443,-280.484C596.25,-273.215 575.214,-261.189 563.012,-244 513.668,-174.488 468.4,-119.732 525.012,-56 548.037,-30.0791 786.746,-16.4635 873.073,-12.3585"/>
<polygon fill="midnightblue" stroke="midnightblue" points="873.459,-15.8444 883.285,-11.8837 873.133,-8.85198 873.459,-15.8444"/>
</g>
<!-- Node21&#45;&gt;Node3 -->
<g id="edge45" class="edge"><title>Node21&#45;&gt;Node3</title>
<path fill="none" stroke="midnightblue" d="M616.376,-280.44C602.405,-272.949 584.178,-260.655 575.012,-244 546.704,-192.563 552.769,-119.685 557.73,-85.7453"/>
<polygon fill="midnightblue" stroke="midnightblue" points="561.195,-86.2424 559.318,-75.8151 554.282,-85.1366 561.195,-86.2424"/>
</g>
<!-- Node21&#45;&gt;Node10 -->
<g id="edge55" class="edge"><title>Node21&#45;&gt;Node10</title>
<path fill="none" stroke="midnightblue" d="M612.393,-287.191C571.21,-283.304 481.802,-272.112 412.012,-244 326.01,-209.358 280.629,-213.277 236.012,-132 228.205,-117.779 230.101,-99.058 233.271,-85.3613"/>
<polygon fill="midnightblue" stroke="midnightblue" points="236.669,-86.2045 235.925,-75.6359 229.916,-84.3617 236.669,-86.2045"/>
</g>
<!-- Node21&#45;&gt;Node11 -->
<g id="edge62" class="edge"><title>Node21&#45;&gt;Node11</title>
<path fill="none" stroke="midnightblue" d="M612.372,-286.531C576.47,-281.96 504.921,-270.156 450.012,-244 391.548,-216.15 333.797,-164.571 306.81,-138.682"/>
<polygon fill="midnightblue" stroke="midnightblue" points="309.064,-135.992 299.456,-131.527 304.183,-141.009 309.064,-135.992"/>
</g>
<!-- Node21&#45;&gt;Node12 -->
<g id="edge57" class="edge"><title>Node21&#45;&gt;Node12</title>
<path fill="none" stroke="midnightblue" d="M657.538,-281.492C684.524,-272.496 730.053,-257.32 761.723,-246.763"/>
<polygon fill="midnightblue" stroke="midnightblue" points="763.097,-249.995 771.477,-243.512 760.883,-243.354 763.097,-249.995"/>
</g>
<!-- Node21&#45;&gt;Node13 -->
<g id="edge59" class="edge"><title>Node21&#45;&gt;Node13</title>
<path fill="none" stroke="midnightblue" d="M636.427,-280.162C638.747,-267.244 644.122,-242.709 654.012,-224 659.613,-213.404 667.957,-202.975 675.304,-194.83"/>
<polygon fill="midnightblue" stroke="midnightblue" points="677.875,-197.204 682.18,-187.523 672.778,-192.407 677.875,-197.204"/>
</g>
<!-- Node21&#45;&gt;Node14 -->
<g id="edge56" class="edge"><title>Node21&#45;&gt;Node14</title>
<path fill="none" stroke="midnightblue" d="M654.307,-280.417C672.367,-272.063 699.818,-258.531 722.012,-244 773.08,-210.563 827.352,-163.027 854.097,-138.687"/>
<polygon fill="midnightblue" stroke="midnightblue" points="856.77,-140.985 861.774,-131.647 852.039,-135.826 856.77,-140.985"/>
</g>
<!-- Node21&#45;&gt;Node17 -->
<g id="edge60" class="edge"><title>Node21&#45;&gt;Node17</title>
<path fill="none" stroke="midnightblue" d="M619.229,-280.467C606.809,-272.769 590.407,-260.179 583.012,-244 566.537,-207.955 593.36,-163.45 611.178,-139.736"/>
<polygon fill="midnightblue" stroke="midnightblue" points="614.041,-141.756 617.456,-131.726 608.532,-137.437 614.041,-141.756"/>
</g>
<!-- Node21&#45;&gt;Node18 -->
<g id="edge61" class="edge"><title>Node21&#45;&gt;Node18</title>
<path fill="none" stroke="midnightblue" d="M634.176,-280.473C632.543,-258.864 631.306,-201.311 660.012,-168 673.118,-152.792 692.576,-142.209 710.14,-135.145"/>
<polygon fill="midnightblue" stroke="midnightblue" points="711.518,-138.367 719.651,-131.576 709.059,-131.813 711.518,-138.367"/>
</g>
<!-- Node21&#45;&gt;Node19 -->
<g id="edge58" class="edge"><title>Node21&#45;&gt;Node19</title>
<path fill="none" stroke="midnightblue" d="M657.779,-284.816C699.397,-277.117 790.513,-260.022 867.012,-244 868.266,-243.737 869.542,-243.467 870.829,-243.192"/>
<polygon fill="midnightblue" stroke="midnightblue" points="871.763,-246.57 880.786,-241.018 870.27,-239.731 871.763,-246.57"/>
</g>
<!-- Node22 -->
<g id="node23" class="node"><title>Node22</title>
<polygon fill="none" stroke="#bfbfbf" points="663.012,-224.5 663.012,-243.5 713.012,-243.5 713.012,-224.5 663.012,-224.5"/>
<text text-anchor="middle" x="688.012" y="-231.5" font-family="Helvetica,sans-Serif" font-size="10.00">typeinfo</text>
</g>
<!-- Node21&#45;&gt;Node22 -->
<g id="edge47" class="edge"><title>Node21&#45;&gt;Node22</title>
<path fill="none" stroke="midnightblue" d="M643.764,-280.083C651.482,-272.22 662.917,-260.569 672.229,-251.081"/>
<polygon fill="midnightblue" stroke="midnightblue" points="674.916,-253.34 679.423,-243.751 669.92,-248.436 674.916,-253.34"/>
</g>
<!-- Node23 -->
<g id="node24" class="node"><title>Node23</title>
<g id="a_node24"><a xlink:href="_creature_8h.html" target="_top" xlink:title="Creature.h">
<polygon fill="none" stroke="black" points="868.012,-168.5 868.012,-187.5 930.012,-187.5 930.012,-168.5 868.012,-168.5"/>
<text text-anchor="middle" x="899.012" y="-175.5" font-family="Helvetica,sans-Serif" font-size="10.00">Creature.h</text>
</a>
</g>
</g>
<!-- Node21&#45;&gt;Node23 -->
<g id="edge48" class="edge"><title>Node21&#45;&gt;Node23</title>
<path fill="none" stroke="midnightblue" d="M657.639,-287.946C696.136,-285.301 775.853,-276.067 834.012,-244 855.539,-232.131 874.692,-211.013 886.536,-196.073"/>
<polygon fill="midnightblue" stroke="midnightblue" points="889.636,-197.78 892.921,-187.707 884.071,-193.533 889.636,-197.78"/>
</g>
<!-- Node24 -->
<g id="node25" class="node"><title>Node24</title>
<g id="a_node25"><a xlink:href="_inventory_8h.html" target="_top" xlink:title="Inventory.h">
<polygon fill="none" stroke="black" points="393.512,-112.5 393.512,-131.5 456.512,-131.5 456.512,-112.5 393.512,-112.5"/>
<text text-anchor="middle" x="425.012" y="-119.5" font-family="Helvetica,sans-Serif" font-size="10.00">Inventory.h</text>
</a>
</g>
</g>
<!-- Node21&#45;&gt;Node24 -->
<g id="edge51" class="edge"><title>Node21&#45;&gt;Node24</title>
<path fill="none" stroke="midnightblue" d="M612.317,-289.139C577.15,-288.124 509.35,-281.082 469.012,-244 439.626,-216.986 429.827,-168.783 426.588,-142.096"/>
<polygon fill="midnightblue" stroke="midnightblue" points="430.035,-141.395 425.539,-131.801 423.071,-142.104 430.035,-141.395"/>
</g>
<!-- Node23&#45;&gt;Node1 -->
<g id="edge49" class="edge"><title>Node23&#45;&gt;Node1</title>
<path fill="none" stroke="midnightblue" d="M901.247,-168.449C903.474,-159.453 906.74,-144.844 908.012,-132 911.59,-95.8707 908.518,-53.4086 906.142,-29.6088"/>
<polygon fill="midnightblue" stroke="midnightblue" points="909.608,-29.1044 905.063,-19.5338 902.648,-29.8496 909.608,-29.1044"/>
</g>
<!-- Node23&#45;&gt;Node14 -->
<g id="edge50" class="edge"><title>Node23&#45;&gt;Node14</title>
<path fill="none" stroke="midnightblue" d="M894.388,-168.083C890.556,-160.691 884.988,-149.953 880.247,-140.811"/>
<polygon fill="midnightblue" stroke="midnightblue" points="883.26,-139.018 875.55,-131.751 877.046,-142.24 883.26,-139.018"/>
</g>
<!-- Node24&#45;&gt;Node1 -->
<g id="edge54" class="edge"><title>Node24&#45;&gt;Node1</title>
<path fill="none" stroke="midnightblue" d="M430.246,-112.423C439.607,-97.9453 460.718,-68.9702 487.012,-56 555.047,-22.4396 788.587,-13.6991 873.14,-11.6084"/>
<polygon fill="midnightblue" stroke="midnightblue" points="873.457,-15.102 883.373,-11.3703 873.295,-8.10394 873.457,-15.102"/>
</g>
<!-- Node24&#45;&gt;Node4 -->
<g id="edge53" class="edge"><title>Node24&#45;&gt;Node4</title>
<path fill="none" stroke="midnightblue" d="M425.012,-112.368C425.012,-94.617 425.012,-53.6664 425.012,-29.5974"/>
<polygon fill="midnightblue" stroke="midnightblue" points="428.512,-29.5914 425.012,-19.5914 421.512,-29.5915 428.512,-29.5914"/>
</g>
<!-- Node24&#45;&gt;Node6 -->
<g id="edge52" class="edge"><title>Node24&#45;&gt;Node6</title>
<path fill="none" stroke="midnightblue" d="M417.912,-112.083C411.775,-104.377 402.742,-93.0333 395.273,-83.6531"/>
<polygon fill="midnightblue" stroke="midnightblue" points="397.948,-81.3936 388.981,-75.7511 392.472,-85.7542 397.948,-81.3936"/>
</g>
<!-- Node25&#45;&gt;Node1 -->
<g id="edge64" class="edge"><title>Node25&#45;&gt;Node1</title>
<path fill="none" stroke="midnightblue" d="M1215.2,-392.241C1237.14,-375.35 1281.01,-335.949 1281.01,-291 1281.01,-291 1281.01,-291 1281.01,-121 1281.01,-90.2048 1281.11,-75.1703 1257.01,-56 1207.59,-16.6862 1011.97,-11.4652 935.181,-10.9568"/>
<polygon fill="midnightblue" stroke="midnightblue" points="934.761,-7.45504 924.746,-10.9124 934.731,-14.455 934.761,-7.45504"/>
</g>
<!-- Node25&#45;&gt;Node16 -->
<g id="edge66" class="edge"><title>Node25&#45;&gt;Node16</title>
<path fill="none" stroke="midnightblue" d="M1203.46,-392.313C1204.18,-371.749 1203.98,-318.902 1186.01,-280 1145.35,-191.957 1056.03,-113.777 1016.5,-82.0402"/>
<polygon fill="midnightblue" stroke="midnightblue" points="1018.44,-79.1129 1008.42,-75.6521 1014.09,-84.6022 1018.44,-79.1129"/>
</g>
<!-- Node25&#45;&gt;Node20 -->
<g id="edge65" class="edge"><title>Node25&#45;&gt;Node20</title>
<path fill="none" stroke="midnightblue" d="M1179.09,-392.444C1153.79,-383.399 1113.71,-369.064 1085.33,-358.916"/>
<polygon fill="midnightblue" stroke="midnightblue" points="1086.42,-355.588 1075.83,-355.516 1084.06,-362.179 1086.42,-355.588"/>
</g>
<!-- Node26&#45;&gt;Node1 -->
<g id="edge68" class="edge"><title>Node26&#45;&gt;Node1</title>
<path fill="none" stroke="midnightblue" d="M1080.33,-392.15C1089.25,-367.588 1113.01,-296.338 1113.01,-235 1113.01,-235 1113.01,-235 1113.01,-121 1113.01,-41.4821 993.075,-19.3148 934.914,-13.2401"/>
<polygon fill="midnightblue" stroke="midnightblue" points="935.102,-9.74227 924.816,-12.2829 934.441,-16.711 935.102,-9.74227"/>
</g>
<!-- Node26&#45;&gt;Node20 -->
<g id="edge69" class="edge"><title>Node26&#45;&gt;Node20</title>
<path fill="none" stroke="midnightblue" d="M1072.88,-392.083C1069.5,-384.77 1064.6,-374.181 1060.39,-365.103"/>
<polygon fill="midnightblue" stroke="midnightblue" points="1063.44,-363.355 1056.06,-355.751 1057.09,-366.296 1063.44,-363.355"/>
</g>
<!-- Node27&#45;&gt;Node16 -->
<g id="edge73" class="edge"><title>Node27&#45;&gt;Node16</title>
<path fill="none" stroke="midnightblue" d="M911.476,-392.393C941.846,-376.812 999.012,-340.86 999.012,-291 999.012,-291 999.012,-291 999.012,-177 999.012,-144.943 998.152,-107.639 997.56,-85.747"/>
<polygon fill="midnightblue" stroke="midnightblue" points="1001.05,-85.4544 997.274,-75.5568 994.056,-85.6513 1001.05,-85.4544"/>
</g>
<!-- Node27&#45;&gt;Node20 -->
<g id="edge72" class="edge"><title>Node27&#45;&gt;Node20</title>
<path fill="none" stroke="midnightblue" d="M916.816,-392.916C943.513,-383.849 987.05,-369.063 1017.48,-358.727"/>
<polygon fill="midnightblue" stroke="midnightblue" points="1018.92,-361.937 1027.26,-355.407 1016.66,-355.309 1018.92,-361.937"/>
</g>
<!-- Node27&#45;&gt;Node23 -->
<g id="edge71" class="edge"><title>Node27&#45;&gt;Node23</title>
<path fill="none" stroke="midnightblue" d="M896.732,-392.368C906.565,-369.019 933.106,-302.431 942.012,-244 943.352,-235.213 945.32,-232.25 942.012,-224 937.332,-212.328 928.021,-201.969 919.256,-194.141"/>
<polygon fill="midnightblue" stroke="midnightblue" points="921.436,-191.401 911.51,-187.698 916.96,-196.783 921.436,-191.401"/>
</g>
<!-- Node28&#45;&gt;Node20 -->
<g id="edge75" class="edge"><title>Node28&#45;&gt;Node20</title>
<path fill="none" stroke="midnightblue" d="M972.276,-392.324C987.234,-383.822 1010.27,-370.729 1027.74,-360.797"/>
<polygon fill="midnightblue" stroke="midnightblue" points="1029.82,-363.639 1036.79,-355.655 1026.36,-357.553 1029.82,-363.639"/>
</g>
</g>
</svg>
