<?xml version="1.0" encoding="UTF-8" standalone="no"?>
<!DOCTYPE svg PUBLIC "-//W3C//DTD SVG 1.1//EN"
 "http://www.w3.org/Graphics/SVG/1.1/DTD/svg11.dtd">
<!-- Generated by graphviz version 2.38.0 (20140413.2041)
 -->
<!-- Title: E:/Dropbox/BI_FIT_CVUT/2. semestr/PA2/GameBook/Inventory.h Pages: 1 -->
<svg width="1108pt" height="596pt"
 viewBox="0.00 0.00 1108.13 596.00" xmlns="http://www.w3.org/2000/svg" xmlns:xlink="http://www.w3.org/1999/xlink">
<g id="graph0" class="graph" transform="scale(1 1) rotate(0) translate(4 592)">
<title>E:/Dropbox/BI_FIT_CVUT/2. semestr/PA2/GameBook/Inventory.h</title>
<!-- Node4 -->
<g id="node1" class="node"><title>Node4</title>
<polygon fill="#bfbfbf" stroke="black" points="881.127,-546.5 881.127,-587.5 1021.13,-587.5 1021.13,-546.5 881.127,-546.5"/>
<text text-anchor="start" x="889.127" y="-575.5" font-family="Helvetica,sans-Serif" font-size="10.00">E:/Dropbox/BI_FIT_CVUT</text>
<text text-anchor="start" x="889.127" y="-564.5" font-family="Helvetica,sans-Serif" font-size="10.00">/2. semestr/PA2/GameBook</text>
<text text-anchor="middle" x="951.127" y="-553.5" font-family="Helvetica,sans-Serif" font-size="10.00">/Inventory.h</text>
</g>
<!-- Node5 -->
<g id="node2" class="node"><title>Node5</title>
<g id="a_node2"><a xlink:href="_hero_8h.html" target="_top" xlink:title="E:/Dropbox/BI_FIT_CVUT\l/2. semestr/PA2/GameBook\l/Hero.h">
<polygon fill="none" stroke="black" points="802.127,-468.5 802.127,-509.5 942.127,-509.5 942.127,-468.5 802.127,-468.5"/>
<text text-anchor="start" x="810.127" y="-497.5" font-family="Helvetica,sans-Serif" font-size="10.00">E:/Dropbox/BI_FIT_CVUT</text>
<text text-anchor="start" x="810.127" y="-486.5" font-family="Helvetica,sans-Serif" font-size="10.00">/2. semestr/PA2/GameBook</text>
<text text-anchor="middle" x="872.127" y="-475.5" font-family="Helvetica,sans-Serif" font-size="10.00">/Hero.h</text>
</a>
</g>
</g>
<!-- Node4&#45;&gt;Node5 -->
<g id="edge1" class="edge"><title>Node4&#45;&gt;Node5</title>
<path fill="none" stroke="midnightblue" d="M923.573,-539.492C913.321,-529.629 901.885,-518.627 892.403,-509.506"/>
<polygon fill="midnightblue" stroke="midnightblue" points="921.15,-542.017 930.783,-546.428 926.003,-536.973 921.15,-542.017"/>
</g>
<!-- Node28 -->
<g id="node25" class="node"><title>Node28</title>
<g id="a_node25"><a xlink:href="_inventory_8cpp.html" target="_top" xlink:title="E:/Dropbox/BI_FIT_CVUT\l/2. semestr/PA2/GameBook\l/Inventory.cpp">
<polygon fill="none" stroke="black" points="960.127,-468.5 960.127,-509.5 1100.13,-509.5 1100.13,-468.5 960.127,-468.5"/>
<text text-anchor="start" x="968.127" y="-497.5" font-family="Helvetica,sans-Serif" font-size="10.00">E:/Dropbox/BI_FIT_CVUT</text>
<text text-anchor="start" x="968.127" y="-486.5" font-family="Helvetica,sans-Serif" font-size="10.00">/2. semestr/PA2/GameBook</text>
<text text-anchor="middle" x="1030.13" y="-475.5" font-family="Helvetica,sans-Serif" font-size="10.00">/Inventory.cpp</text>
</a>
</g>
</g>
<!-- Node4&#45;&gt;Node28 -->
<g id="edge34" class="edge"><title>Node4&#45;&gt;Node28</title>
<path fill="none" stroke="midnightblue" d="M978.682,-539.492C988.934,-529.629 1000.37,-518.627 1009.85,-509.506"/>
<polygon fill="midnightblue" stroke="midnightblue" points="976.252,-536.973 971.472,-546.428 981.105,-542.017 976.252,-536.973"/>
</g>
<!-- Node6 -->
<g id="node3" class="node"><title>Node6</title>
<g id="a_node3"><a xlink:href="_event_8h.html" target="_top" xlink:title="E:/Dropbox/BI_FIT_CVUT\l/2. semestr/PA2/GameBook\l/Event.h">
<polygon fill="none" stroke="black" points="448.127,-390.5 448.127,-431.5 588.127,-431.5 588.127,-390.5 448.127,-390.5"/>
<text text-anchor="start" x="456.127" y="-419.5" font-family="Helvetica,sans-Serif" font-size="10.00">E:/Dropbox/BI_FIT_CVUT</text>
<text text-anchor="start" x="456.127" y="-408.5" font-family="Helvetica,sans-Serif" font-size="10.00">/2. semestr/PA2/GameBook</text>
<text text-anchor="middle" x="518.127" y="-397.5" font-family="Helvetica,sans-Serif" font-size="10.00">/Event.h</text>
</a>
</g>
</g>
<!-- Node5&#45;&gt;Node6 -->
<g id="edge2" class="edge"><title>Node5&#45;&gt;Node6</title>
<path fill="none" stroke="midnightblue" d="M791.749,-470.744C730.486,-457.591 646.956,-439.658 588.356,-427.077"/>
<polygon fill="midnightblue" stroke="midnightblue" points="791.253,-474.217 801.765,-472.894 792.723,-467.373 791.253,-474.217"/>
</g>
<!-- Node13 -->
<g id="node10" class="node"><title>Node13</title>
<g id="a_node10"><a xlink:href="_shopping_8h.html" target="_top" xlink:title="E:/Dropbox/BI_FIT_CVUT\l/2. semestr/PA2/GameBook\l/Shopping.h">
<polygon fill="none" stroke="black" points="181.127,-156.5 181.127,-197.5 321.127,-197.5 321.127,-156.5 181.127,-156.5"/>
<text text-anchor="start" x="189.127" y="-185.5" font-family="Helvetica,sans-Serif" font-size="10.00">E:/Dropbox/BI_FIT_CVUT</text>
<text text-anchor="start" x="189.127" y="-174.5" font-family="Helvetica,sans-Serif" font-size="10.00">/2. semestr/PA2/GameBook</text>
<text text-anchor="middle" x="251.127" y="-163.5" font-family="Helvetica,sans-Serif" font-size="10.00">/Shopping.h</text>
</a>
</g>
</g>
<!-- Node5&#45;&gt;Node13 -->
<g id="edge30" class="edge"><title>Node5&#45;&gt;Node13</title>
<path fill="none" stroke="midnightblue" d="M792.026,-488.117C599.931,-486.5 121.811,-470.601 25.1274,-354 -8.9152,-312.945 -7.73834,-276.003 25.1274,-234 44.2768,-209.526 121.943,-194.25 180.931,-185.952"/>
<polygon fill="midnightblue" stroke="midnightblue" points="792.033,-491.617 802.059,-488.191 792.085,-484.617 792.033,-491.617"/>
</g>
<!-- Node15 -->
<g id="node12" class="node"><title>Node15</title>
<g id="a_node12"><a xlink:href="_inventory_browser_8h.html" target="_top" xlink:title="E:/Dropbox/BI_FIT_CVUT\l/2. semestr/PA2/GameBook\l/InventoryBrowser.h">
<polygon fill="none" stroke="black" points="565.127,-156.5 565.127,-197.5 705.127,-197.5 705.127,-156.5 565.127,-156.5"/>
<text text-anchor="start" x="573.127" y="-185.5" font-family="Helvetica,sans-Serif" font-size="10.00">E:/Dropbox/BI_FIT_CVUT</text>
<text text-anchor="start" x="573.127" y="-174.5" font-family="Helvetica,sans-Serif" font-size="10.00">/2. semestr/PA2/GameBook</text>
<text text-anchor="middle" x="635.127" y="-163.5" font-family="Helvetica,sans-Serif" font-size="10.00">/InventoryBrowser.h</text>
</a>
</g>
</g>
<!-- Node5&#45;&gt;Node15 -->
<g id="edge31" class="edge"><title>Node5&#45;&gt;Node15</title>
<path fill="none" stroke="midnightblue" d="M874.079,-457.987C877.312,-398.215 880.919,-267.197 853.127,-234 848.197,-228.111 767.069,-208.327 705.215,-193.94"/>
<polygon fill="midnightblue" stroke="midnightblue" points="870.567,-458.094 873.488,-468.279 877.556,-458.496 870.567,-458.094"/>
</g>
<!-- Node17 -->
<g id="node14" class="node"><title>Node17</title>
<g id="a_node14"><a xlink:href="_interact_8h.html" target="_top" xlink:title="E:/Dropbox/BI_FIT_CVUT\l/2. semestr/PA2/GameBook\l/Interact.h">
<polygon fill="none" stroke="black" points="738.127,-156.5 738.127,-197.5 878.127,-197.5 878.127,-156.5 738.127,-156.5"/>
<text text-anchor="start" x="746.127" y="-185.5" font-family="Helvetica,sans-Serif" font-size="10.00">E:/Dropbox/BI_FIT_CVUT</text>
<text text-anchor="start" x="746.127" y="-174.5" font-family="Helvetica,sans-Serif" font-size="10.00">/2. semestr/PA2/GameBook</text>
<text text-anchor="middle" x="808.127" y="-163.5" font-family="Helvetica,sans-Serif" font-size="10.00">/Interact.h</text>
</a>
</g>
</g>
<!-- Node5&#45;&gt;Node17 -->
<g id="edge32" class="edge"><title>Node5&#45;&gt;Node17</title>
<path fill="none" stroke="midnightblue" d="M882.799,-458.751C898.931,-409.342 923.866,-307.552 886.127,-234 878.289,-218.723 864.131,-206.674 850.008,-197.728"/>
<polygon fill="midnightblue" stroke="midnightblue" points="879.4,-457.876 879.516,-468.47 886.032,-460.116 879.4,-457.876"/>
</g>
<!-- Node27 -->
<g id="node24" class="node"><title>Node27</title>
<g id="a_node24"><a xlink:href="_hero_8cpp.html" target="_top" xlink:title="E:/Dropbox/BI_FIT_CVUT\l/2. semestr/PA2/GameBook\l/Hero.cpp">
<polygon fill="none" stroke="black" points="938.127,-390.5 938.127,-431.5 1078.13,-431.5 1078.13,-390.5 938.127,-390.5"/>
<text text-anchor="start" x="946.127" y="-419.5" font-family="Helvetica,sans-Serif" font-size="10.00">E:/Dropbox/BI_FIT_CVUT</text>
<text text-anchor="start" x="946.127" y="-408.5" font-family="Helvetica,sans-Serif" font-size="10.00">/2. semestr/PA2/GameBook</text>
<text text-anchor="middle" x="1008.13" y="-397.5" font-family="Helvetica,sans-Serif" font-size="10.00">/Hero.cpp</text>
</a>
</g>
</g>
<!-- Node5&#45;&gt;Node27 -->
<g id="edge33" class="edge"><title>Node5&#45;&gt;Node27</title>
<path fill="none" stroke="midnightblue" d="M915.995,-463.486C934.52,-453.134 955.79,-441.247 973.223,-431.506"/>
<polygon fill="midnightblue" stroke="midnightblue" points="914.173,-460.495 907.151,-468.428 917.588,-466.605 914.173,-460.495"/>
</g>
<!-- Node7 -->
<g id="node4" class="node"><title>Node7</title>
<g id="a_node4"><a xlink:href="_choice_8h.html" target="_top" xlink:title="E:/Dropbox/BI_FIT_CVUT\l/2. semestr/PA2/GameBook\l/Choice.h">
<polygon fill="none" stroke="black" points="546.127,-312.5 546.127,-353.5 686.127,-353.5 686.127,-312.5 546.127,-312.5"/>
<text text-anchor="start" x="554.127" y="-341.5" font-family="Helvetica,sans-Serif" font-size="10.00">E:/Dropbox/BI_FIT_CVUT</text>
<text text-anchor="start" x="554.127" y="-330.5" font-family="Helvetica,sans-Serif" font-size="10.00">/2. semestr/PA2/GameBook</text>
<text text-anchor="middle" x="616.127" y="-319.5" font-family="Helvetica,sans-Serif" font-size="10.00">/Choice.h</text>
</a>
</g>
</g>
<!-- Node6&#45;&gt;Node7 -->
<g id="edge3" class="edge"><title>Node6&#45;&gt;Node7</title>
<path fill="none" stroke="midnightblue" d="M551.57,-384.065C564.474,-374.057 578.985,-362.804 590.976,-353.506"/>
<polygon fill="midnightblue" stroke="midnightblue" points="549.122,-381.534 543.365,-390.428 553.412,-387.066 549.122,-381.534"/>
</g>
<!-- Node9 -->
<g id="node6" class="node"><title>Node9</title>
<g id="a_node6"><a xlink:href="_world_8h.html" target="_top" xlink:title="E:/Dropbox/BI_FIT_CVUT\l/2. semestr/PA2/GameBook\l/World.h">
<polygon fill="none" stroke="black" points="388.127,-234.5 388.127,-275.5 528.127,-275.5 528.127,-234.5 388.127,-234.5"/>
<text text-anchor="start" x="396.127" y="-263.5" font-family="Helvetica,sans-Serif" font-size="10.00">E:/Dropbox/BI_FIT_CVUT</text>
<text text-anchor="start" x="396.127" y="-252.5" font-family="Helvetica,sans-Serif" font-size="10.00">/2. semestr/PA2/GameBook</text>
<text text-anchor="middle" x="458.127" y="-241.5" font-family="Helvetica,sans-Serif" font-size="10.00">/World.h</text>
</a>
</g>
</g>
<!-- Node6&#45;&gt;Node9 -->
<g id="edge26" class="edge"><title>Node6&#45;&gt;Node9</title>
<path fill="none" stroke="midnightblue" d="M515.804,-380.404C513.425,-360.419 508.652,-333.81 499.127,-312 493.389,-298.86 484.126,-285.835 475.856,-275.658"/>
<polygon fill="midnightblue" stroke="midnightblue" points="512.336,-380.895 516.868,-390.471 519.297,-380.159 512.336,-380.895"/>
</g>
<!-- Node20 -->
<g id="node17" class="node"><title>Node20</title>
<g id="a_node17"><a xlink:href="_dialogue_n_c_p_8h.html" target="_top" xlink:title="E:/Dropbox/BI_FIT_CVUT\l/2. semestr/PA2/GameBook\l/DialogueNCP.h">
<polygon fill="none" stroke="black" points="704.127,-312.5 704.127,-353.5 844.127,-353.5 844.127,-312.5 704.127,-312.5"/>
<text text-anchor="start" x="712.127" y="-341.5" font-family="Helvetica,sans-Serif" font-size="10.00">E:/Dropbox/BI_FIT_CVUT</text>
<text text-anchor="start" x="712.127" y="-330.5" font-family="Helvetica,sans-Serif" font-size="10.00">/2. semestr/PA2/GameBook</text>
<text text-anchor="middle" x="774.127" y="-319.5" font-family="Helvetica,sans-Serif" font-size="10.00">/DialogueNCP.h</text>
</a>
</g>
</g>
<!-- Node6&#45;&gt;Node20 -->
<g id="edge19" class="edge"><title>Node6&#45;&gt;Node20</title>
<path fill="none" stroke="midnightblue" d="M593.646,-387.58C630.079,-376.764 673.373,-363.911 708.424,-353.506"/>
<polygon fill="midnightblue" stroke="midnightblue" points="592.644,-384.227 584.054,-390.428 594.636,-390.937 592.644,-384.227"/>
</g>
<!-- Node22 -->
<g id="node19" class="node"><title>Node22</title>
<g id="a_node19"><a xlink:href="_event_8cpp.html" target="_top" xlink:title="E:/Dropbox/BI_FIT_CVUT\l/2. semestr/PA2/GameBook\l/Event.cpp">
<polygon fill="none" stroke="black" points="350.127,-312.5 350.127,-353.5 490.127,-353.5 490.127,-312.5 350.127,-312.5"/>
<text text-anchor="start" x="358.127" y="-341.5" font-family="Helvetica,sans-Serif" font-size="10.00">E:/Dropbox/BI_FIT_CVUT</text>
<text text-anchor="start" x="358.127" y="-330.5" font-family="Helvetica,sans-Serif" font-size="10.00">/2. semestr/PA2/GameBook</text>
<text text-anchor="middle" x="420.127" y="-319.5" font-family="Helvetica,sans-Serif" font-size="10.00">/Event.cpp</text>
</a>
</g>
</g>
<!-- Node6&#45;&gt;Node22 -->
<g id="edge22" class="edge"><title>Node6&#45;&gt;Node22</title>
<path fill="none" stroke="midnightblue" d="M484.685,-384.065C471.78,-374.057 457.27,-362.804 445.279,-353.506"/>
<polygon fill="midnightblue" stroke="midnightblue" points="482.843,-387.066 492.89,-390.428 487.133,-381.534 482.843,-387.066"/>
</g>
<!-- Node23 -->
<g id="node20" class="node"><title>Node23</title>
<g id="a_node20"><a xlink:href="_fight_8h.html" target="_top" xlink:title="E:/Dropbox/BI_FIT_CVUT\l/2. semestr/PA2/GameBook\l/Fight.h">
<polygon fill="none" stroke="black" points="34.1274,-312.5 34.1274,-353.5 174.127,-353.5 174.127,-312.5 34.1274,-312.5"/>
<text text-anchor="start" x="42.1274" y="-341.5" font-family="Helvetica,sans-Serif" font-size="10.00">E:/Dropbox/BI_FIT_CVUT</text>
<text text-anchor="start" x="42.1274" y="-330.5" font-family="Helvetica,sans-Serif" font-size="10.00">/2. semestr/PA2/GameBook</text>
<text text-anchor="middle" x="104.127" y="-319.5" font-family="Helvetica,sans-Serif" font-size="10.00">/Fight.h</text>
</a>
</g>
</g>
<!-- Node6&#45;&gt;Node23 -->
<g id="edge23" class="edge"><title>Node6&#45;&gt;Node23</title>
<path fill="none" stroke="midnightblue" d="M437.651,-398.45C369.573,-388.225 269.583,-372.138 183.127,-354 180.22,-353.39 177.257,-352.745 174.269,-352.076"/>
<polygon fill="midnightblue" stroke="midnightblue" points="437.469,-401.961 447.877,-399.977 438.504,-395.038 437.469,-401.961"/>
</g>
<!-- Node25 -->
<g id="node22" class="node"><title>Node25</title>
<g id="a_node22"><a xlink:href="_trap_8h.html" target="_top" xlink:title="E:/Dropbox/BI_FIT_CVUT\l/2. semestr/PA2/GameBook\l/Trap.h">
<polygon fill="none" stroke="black" points="192.127,-312.5 192.127,-353.5 332.127,-353.5 332.127,-312.5 192.127,-312.5"/>
<text text-anchor="start" x="200.127" y="-341.5" font-family="Helvetica,sans-Serif" font-size="10.00">E:/Dropbox/BI_FIT_CVUT</text>
<text text-anchor="start" x="200.127" y="-330.5" font-family="Helvetica,sans-Serif" font-size="10.00">/2. semestr/PA2/GameBook</text>
<text text-anchor="middle" x="262.127" y="-319.5" font-family="Helvetica,sans-Serif" font-size="10.00">/Trap.h</text>
</a>
</g>
</g>
<!-- Node6&#45;&gt;Node25 -->
<g id="edge27" class="edge"><title>Node6&#45;&gt;Node25</title>
<path fill="none" stroke="midnightblue" d="M442.609,-387.58C406.176,-376.764 362.882,-363.911 327.83,-353.506"/>
<polygon fill="midnightblue" stroke="midnightblue" points="441.618,-390.937 452.201,-390.428 443.611,-384.227 441.618,-390.937"/>
</g>
<!-- Node8 -->
<g id="node5" class="node"><title>Node8</title>
<g id="a_node5"><a xlink:href="_choice_8cpp.html" target="_top" xlink:title="E:/Dropbox/BI_FIT_CVUT\l/2. semestr/PA2/GameBook\l/Choice.cpp">
<polygon fill="none" stroke="black" points="546.127,-234.5 546.127,-275.5 686.127,-275.5 686.127,-234.5 546.127,-234.5"/>
<text text-anchor="start" x="554.127" y="-263.5" font-family="Helvetica,sans-Serif" font-size="10.00">E:/Dropbox/BI_FIT_CVUT</text>
<text text-anchor="start" x="554.127" y="-252.5" font-family="Helvetica,sans-Serif" font-size="10.00">/2. semestr/PA2/GameBook</text>
<text text-anchor="middle" x="616.127" y="-241.5" font-family="Helvetica,sans-Serif" font-size="10.00">/Choice.cpp</text>
</a>
</g>
</g>
<!-- Node7&#45;&gt;Node8 -->
<g id="edge4" class="edge"><title>Node7&#45;&gt;Node8</title>
<path fill="none" stroke="midnightblue" d="M616.127,-302.297C616.127,-293.301 616.127,-283.653 616.127,-275.506"/>
<polygon fill="midnightblue" stroke="midnightblue" points="612.628,-302.428 616.127,-312.428 619.628,-302.428 612.628,-302.428"/>
</g>
<!-- Node7&#45;&gt;Node9 -->
<g id="edge5" class="edge"><title>Node7&#45;&gt;Node9</title>
<path fill="none" stroke="midnightblue" d="M566.334,-308.049C544.542,-297.566 519.299,-285.424 498.678,-275.506"/>
<polygon fill="midnightblue" stroke="midnightblue" points="564.91,-311.247 575.438,-312.428 567.944,-304.939 564.91,-311.247"/>
</g>
<!-- Node10 -->
<g id="node7" class="node"><title>Node10</title>
<g id="a_node7"><a xlink:href="_game_8h.html" target="_top" xlink:title="E:/Dropbox/BI_FIT_CVUT\l/2. semestr/PA2/GameBook\l/Game.h">
<polygon fill="none" stroke="black" points="422.127,-78.5 422.127,-119.5 562.127,-119.5 562.127,-78.5 422.127,-78.5"/>
<text text-anchor="start" x="430.127" y="-107.5" font-family="Helvetica,sans-Serif" font-size="10.00">E:/Dropbox/BI_FIT_CVUT</text>
<text text-anchor="start" x="430.127" y="-96.5" font-family="Helvetica,sans-Serif" font-size="10.00">/2. semestr/PA2/GameBook</text>
<text text-anchor="middle" x="492.127" y="-85.5" font-family="Helvetica,sans-Serif" font-size="10.00">/Game.h</text>
</a>
</g>
</g>
<!-- Node9&#45;&gt;Node10 -->
<g id="edge6" class="edge"><title>Node9&#45;&gt;Node10</title>
<path fill="none" stroke="midnightblue" d="M476.495,-225.649C481.145,-217.094 485.548,-207.455 488.127,-198 495.342,-171.551 495.064,-139.609 493.864,-119.544"/>
<polygon fill="midnightblue" stroke="midnightblue" points="473.385,-224.035 471.427,-234.447 479.451,-227.529 473.385,-224.035"/>
</g>
<!-- Node9&#45;&gt;Node13 -->
<g id="edge9" class="edge"><title>Node9&#45;&gt;Node13</title>
<path fill="none" stroke="midnightblue" d="M395.176,-230.887C366.117,-220.219 331.994,-207.69 304.254,-197.506"/>
<polygon fill="midnightblue" stroke="midnightblue" points="394.226,-234.267 404.82,-234.428 396.639,-227.696 394.226,-234.267"/>
</g>
<!-- Node9&#45;&gt;Node15 -->
<g id="edge12" class="edge"><title>Node9&#45;&gt;Node15</title>
<path fill="none" stroke="midnightblue" d="M512.93,-230.469C537.563,-219.892 566.29,-207.557 589.7,-197.506"/>
<polygon fill="midnightblue" stroke="midnightblue" points="511.517,-227.267 503.709,-234.428 514.279,-233.699 511.517,-227.267"/>
</g>
<!-- Node9&#45;&gt;Node17 -->
<g id="edge15" class="edge"><title>Node9&#45;&gt;Node17</title>
<path fill="none" stroke="midnightblue" d="M538.205,-233.8C617.056,-215.982 638.604,-213.715 714.127,-198 721.886,-196.386 730.002,-194.682 738.076,-192.977"/>
<polygon fill="midnightblue" stroke="midnightblue" points="537.273,-230.423 528.297,-236.052 538.824,-237.249 537.273,-230.423"/>
</g>
<!-- Node19 -->
<g id="node16" class="node"><title>Node19</title>
<g id="a_node16"><a xlink:href="_world_8cpp.html" target="_top" xlink:title="E:/Dropbox/BI_FIT_CVUT\l/2. semestr/PA2/GameBook\l/World.cpp">
<polygon fill="none" stroke="black" points="339.127,-156.5 339.127,-197.5 479.127,-197.5 479.127,-156.5 339.127,-156.5"/>
<text text-anchor="start" x="347.127" y="-185.5" font-family="Helvetica,sans-Serif" font-size="10.00">E:/Dropbox/BI_FIT_CVUT</text>
<text text-anchor="start" x="347.127" y="-174.5" font-family="Helvetica,sans-Serif" font-size="10.00">/2. semestr/PA2/GameBook</text>
<text text-anchor="middle" x="409.127" y="-163.5" font-family="Helvetica,sans-Serif" font-size="10.00">/World.cpp</text>
</a>
</g>
</g>
<!-- Node9&#45;&gt;Node19 -->
<g id="edge18" class="edge"><title>Node9&#45;&gt;Node19</title>
<path fill="none" stroke="midnightblue" d="M439.918,-225.757C433.856,-216.354 427.242,-206.096 421.703,-197.506"/>
<polygon fill="midnightblue" stroke="midnightblue" points="437.148,-227.92 445.509,-234.428 443.032,-224.127 437.148,-227.92"/>
</g>
<!-- Node11 -->
<g id="node8" class="node"><title>Node11</title>
<g id="a_node8"><a xlink:href="_game_8cpp.html" target="_top" xlink:title="E:/Dropbox/BI_FIT_CVUT\l/2. semestr/PA2/GameBook\l/Game.cpp">
<polygon fill="none" stroke="black" points="343.127,-0.5 343.127,-41.5 483.127,-41.5 483.127,-0.5 343.127,-0.5"/>
<text text-anchor="start" x="351.127" y="-29.5" font-family="Helvetica,sans-Serif" font-size="10.00">E:/Dropbox/BI_FIT_CVUT</text>
<text text-anchor="start" x="351.127" y="-18.5" font-family="Helvetica,sans-Serif" font-size="10.00">/2. semestr/PA2/GameBook</text>
<text text-anchor="middle" x="413.127" y="-7.5" font-family="Helvetica,sans-Serif" font-size="10.00">/Game.cpp</text>
</a>
</g>
</g>
<!-- Node10&#45;&gt;Node11 -->
<g id="edge7" class="edge"><title>Node10&#45;&gt;Node11</title>
<path fill="none" stroke="midnightblue" d="M464.573,-71.4916C454.321,-61.6294 442.885,-50.6273 433.403,-41.5056"/>
<polygon fill="midnightblue" stroke="midnightblue" points="462.15,-74.0175 471.783,-78.4281 467.003,-68.9729 462.15,-74.0175"/>
</g>
<!-- Node12 -->
<g id="node9" class="node"><title>Node12</title>
<g id="a_node9"><a xlink:href="main_8cpp.html" target="_top" xlink:title="E:/Dropbox/BI_FIT_CVUT\l/2. semestr/PA2/GameBook\l/main.cpp">
<polygon fill="none" stroke="black" points="501.127,-0.5 501.127,-41.5 641.127,-41.5 641.127,-0.5 501.127,-0.5"/>
<text text-anchor="start" x="509.127" y="-29.5" font-family="Helvetica,sans-Serif" font-size="10.00">E:/Dropbox/BI_FIT_CVUT</text>
<text text-anchor="start" x="509.127" y="-18.5" font-family="Helvetica,sans-Serif" font-size="10.00">/2. semestr/PA2/GameBook</text>
<text text-anchor="middle" x="571.127" y="-7.5" font-family="Helvetica,sans-Serif" font-size="10.00">/main.cpp</text>
</a>
</g>
</g>
<!-- Node10&#45;&gt;Node12 -->
<g id="edge8" class="edge"><title>Node10&#45;&gt;Node12</title>
<path fill="none" stroke="midnightblue" d="M519.682,-71.4916C529.934,-61.6294 541.37,-50.6273 550.852,-41.5056"/>
<polygon fill="midnightblue" stroke="midnightblue" points="517.252,-68.9729 512.472,-78.4281 522.105,-74.0175 517.252,-68.9729"/>
</g>
<!-- Node13&#45;&gt;Node10 -->
<g id="edge10" class="edge"><title>Node13&#45;&gt;Node10</title>
<path fill="none" stroke="midnightblue" d="M323.098,-153.304C357.213,-142.546 397.557,-129.823 430.274,-119.506"/>
<polygon fill="midnightblue" stroke="midnightblue" points="321.675,-150.083 313.191,-156.428 323.781,-156.758 321.675,-150.083"/>
</g>
<!-- Node14 -->
<g id="node11" class="node"><title>Node14</title>
<g id="a_node11"><a xlink:href="_shopping_8cpp.html" target="_top" xlink:title="E:/Dropbox/BI_FIT_CVUT\l/2. semestr/PA2/GameBook\l/Shopping.cpp">
<polygon fill="none" stroke="black" points="181.127,-78.5 181.127,-119.5 321.127,-119.5 321.127,-78.5 181.127,-78.5"/>
<text text-anchor="start" x="189.127" y="-107.5" font-family="Helvetica,sans-Serif" font-size="10.00">E:/Dropbox/BI_FIT_CVUT</text>
<text text-anchor="start" x="189.127" y="-96.5" font-family="Helvetica,sans-Serif" font-size="10.00">/2. semestr/PA2/GameBook</text>
<text text-anchor="middle" x="251.127" y="-85.5" font-family="Helvetica,sans-Serif" font-size="10.00">/Shopping.cpp</text>
</a>
</g>
</g>
<!-- Node13&#45;&gt;Node14 -->
<g id="edge11" class="edge"><title>Node13&#45;&gt;Node14</title>
<path fill="none" stroke="midnightblue" d="M251.127,-146.297C251.127,-137.301 251.127,-127.653 251.127,-119.506"/>
<polygon fill="midnightblue" stroke="midnightblue" points="247.628,-146.428 251.127,-156.428 254.628,-146.428 247.628,-146.428"/>
</g>
<!-- Node15&#45;&gt;Node10 -->
<g id="edge13" class="edge"><title>Node15&#45;&gt;Node10</title>
<path fill="none" stroke="midnightblue" d="M589.267,-151.627C569.727,-141.242 547.242,-129.292 528.829,-119.506"/>
<polygon fill="midnightblue" stroke="midnightblue" points="587.828,-154.826 598.301,-156.428 591.114,-148.644 587.828,-154.826"/>
</g>
<!-- Node16 -->
<g id="node13" class="node"><title>Node16</title>
<g id="a_node13"><a xlink:href="_inventory_browser_8cpp.html" target="_top" xlink:title="E:/Dropbox/BI_FIT_CVUT\l/2. semestr/PA2/GameBook\l/InventoryBrowser.cpp">
<polygon fill="none" stroke="black" points="580.127,-78.5 580.127,-119.5 720.127,-119.5 720.127,-78.5 580.127,-78.5"/>
<text text-anchor="start" x="588.127" y="-107.5" font-family="Helvetica,sans-Serif" font-size="10.00">E:/Dropbox/BI_FIT_CVUT</text>
<text text-anchor="start" x="588.127" y="-96.5" font-family="Helvetica,sans-Serif" font-size="10.00">/2. semestr/PA2/GameBook</text>
<text text-anchor="middle" x="650.127" y="-85.5" font-family="Helvetica,sans-Serif" font-size="10.00">/InventoryBrowser.cpp</text>
</a>
</g>
</g>
<!-- Node15&#45;&gt;Node16 -->
<g id="edge14" class="edge"><title>Node15&#45;&gt;Node16</title>
<path fill="none" stroke="midnightblue" d="M640.932,-146.59C642.724,-137.511 644.652,-127.742 646.278,-119.506"/>
<polygon fill="midnightblue" stroke="midnightblue" points="637.493,-145.94 638.99,-156.428 644.36,-147.295 637.493,-145.94"/>
</g>
<!-- Node17&#45;&gt;Node10 -->
<g id="edge16" class="edge"><title>Node17&#45;&gt;Node10</title>
<path fill="none" stroke="midnightblue" d="M728.152,-157.437C682.174,-146.682 623.352,-132.78 571.127,-120 568.241,-119.294 565.297,-118.569 562.324,-117.833"/>
<polygon fill="midnightblue" stroke="midnightblue" points="727.524,-160.884 738.058,-159.752 729.117,-154.068 727.524,-160.884"/>
</g>
<!-- Node18 -->
<g id="node15" class="node"><title>Node18</title>
<g id="a_node15"><a xlink:href="_interact_8cpp.html" target="_top" xlink:title="E:/Dropbox/BI_FIT_CVUT\l/2. semestr/PA2/GameBook\l/Interact.cpp">
<polygon fill="none" stroke="black" points="738.127,-78.5 738.127,-119.5 878.127,-119.5 878.127,-78.5 738.127,-78.5"/>
<text text-anchor="start" x="746.127" y="-107.5" font-family="Helvetica,sans-Serif" font-size="10.00">E:/Dropbox/BI_FIT_CVUT</text>
<text text-anchor="start" x="746.127" y="-96.5" font-family="Helvetica,sans-Serif" font-size="10.00">/2. semestr/PA2/GameBook</text>
<text text-anchor="middle" x="808.127" y="-85.5" font-family="Helvetica,sans-Serif" font-size="10.00">/Interact.cpp</text>
</a>
</g>
</g>
<!-- Node17&#45;&gt;Node18 -->
<g id="edge17" class="edge"><title>Node17&#45;&gt;Node18</title>
<path fill="none" stroke="midnightblue" d="M808.127,-146.297C808.127,-137.301 808.127,-127.653 808.127,-119.506"/>
<polygon fill="midnightblue" stroke="midnightblue" points="804.628,-146.428 808.127,-156.428 811.628,-146.428 804.628,-146.428"/>
</g>
<!-- Node20&#45;&gt;Node9 -->
<g id="edge21" class="edge"><title>Node20&#45;&gt;Node9</title>
<path fill="none" stroke="midnightblue" d="M694.104,-311.781C623.463,-294.935 604.144,-292.116 537.127,-276 534.239,-275.305 531.292,-274.59 528.317,-273.862"/>
<polygon fill="midnightblue" stroke="midnightblue" points="693.397,-315.211 703.938,-314.138 695.029,-308.404 693.397,-315.211"/>
</g>
<!-- Node21 -->
<g id="node18" class="node"><title>Node21</title>
<g id="a_node18"><a xlink:href="_dialogue_n_c_p_8cpp.html" target="_top" xlink:title="E:/Dropbox/BI_FIT_CVUT\l/2. semestr/PA2/GameBook\l/DialogueNCP.cpp">
<polygon fill="none" stroke="black" points="704.127,-234.5 704.127,-275.5 844.127,-275.5 844.127,-234.5 704.127,-234.5"/>
<text text-anchor="start" x="712.127" y="-263.5" font-family="Helvetica,sans-Serif" font-size="10.00">E:/Dropbox/BI_FIT_CVUT</text>
<text text-anchor="start" x="712.127" y="-252.5" font-family="Helvetica,sans-Serif" font-size="10.00">/2. semestr/PA2/GameBook</text>
<text text-anchor="middle" x="774.127" y="-241.5" font-family="Helvetica,sans-Serif" font-size="10.00">/DialogueNCP.cpp</text>
</a>
</g>
</g>
<!-- Node20&#45;&gt;Node21 -->
<g id="edge20" class="edge"><title>Node20&#45;&gt;Node21</title>
<path fill="none" stroke="midnightblue" d="M774.127,-302.297C774.127,-293.301 774.127,-283.653 774.127,-275.506"/>
<polygon fill="midnightblue" stroke="midnightblue" points="770.628,-302.428 774.127,-312.428 777.628,-302.428 770.628,-302.428"/>
</g>
<!-- Node23&#45;&gt;Node9 -->
<g id="edge25" class="edge"><title>Node23&#45;&gt;Node9</title>
<path fill="none" stroke="midnightblue" d="M184.382,-311.759C259.283,-294.805 334.564,-279.716 387.854,-269.364"/>
<polygon fill="midnightblue" stroke="midnightblue" points="183.272,-308.422 174.297,-314.053 184.825,-315.247 183.272,-308.422"/>
</g>
<!-- Node24 -->
<g id="node21" class="node"><title>Node24</title>
<g id="a_node21"><a xlink:href="_fight_8cpp.html" target="_top" xlink:title="E:/Dropbox/BI_FIT_CVUT\l/2. semestr/PA2/GameBook\l/Fight.cpp">
<polygon fill="none" stroke="black" points="34.1274,-234.5 34.1274,-275.5 174.127,-275.5 174.127,-234.5 34.1274,-234.5"/>
<text text-anchor="start" x="42.1274" y="-263.5" font-family="Helvetica,sans-Serif" font-size="10.00">E:/Dropbox/BI_FIT_CVUT</text>
<text text-anchor="start" x="42.1274" y="-252.5" font-family="Helvetica,sans-Serif" font-size="10.00">/2. semestr/PA2/GameBook</text>
<text text-anchor="middle" x="104.127" y="-241.5" font-family="Helvetica,sans-Serif" font-size="10.00">/Fight.cpp</text>
</a>
</g>
</g>
<!-- Node23&#45;&gt;Node24 -->
<g id="edge24" class="edge"><title>Node23&#45;&gt;Node24</title>
<path fill="none" stroke="midnightblue" d="M104.127,-302.297C104.127,-293.301 104.127,-283.653 104.127,-275.506"/>
<polygon fill="midnightblue" stroke="midnightblue" points="100.628,-302.428 104.127,-312.428 107.628,-302.428 100.628,-302.428"/>
</g>
<!-- Node25&#45;&gt;Node9 -->
<g id="edge28" class="edge"><title>Node25&#45;&gt;Node9</title>
<path fill="none" stroke="midnightblue" d="M322.093,-308.748C349.529,-298.11 381.672,-285.646 407.824,-275.506"/>
<polygon fill="midnightblue" stroke="midnightblue" points="320.661,-305.55 312.602,-312.428 323.191,-312.076 320.661,-305.55"/>
</g>
<!-- Node26 -->
<g id="node23" class="node"><title>Node26</title>
<g id="a_node23"><a xlink:href="_trap_8cpp.html" target="_top" xlink:title="E:/Dropbox/BI_FIT_CVUT\l/2. semestr/PA2/GameBook\l/Trap.cpp">
<polygon fill="none" stroke="black" points="192.127,-234.5 192.127,-275.5 332.127,-275.5 332.127,-234.5 192.127,-234.5"/>
<text text-anchor="start" x="200.127" y="-263.5" font-family="Helvetica,sans-Serif" font-size="10.00">E:/Dropbox/BI_FIT_CVUT</text>
<text text-anchor="start" x="200.127" y="-252.5" font-family="Helvetica,sans-Serif" font-size="10.00">/2. semestr/PA2/GameBook</text>
<text text-anchor="middle" x="262.127" y="-241.5" font-family="Helvetica,sans-Serif" font-size="10.00">/Trap.cpp</text>
</a>
</g>
</g>
<!-- Node25&#45;&gt;Node26 -->
<g id="edge29" class="edge"><title>Node25&#45;&gt;Node26</title>
<path fill="none" stroke="midnightblue" d="M262.127,-302.297C262.127,-293.301 262.127,-283.653 262.127,-275.506"/>
<polygon fill="midnightblue" stroke="midnightblue" points="258.628,-302.428 262.127,-312.428 265.628,-302.428 258.628,-302.428"/>
</g>
</g>
</svg>
