<?xml version="1.0" encoding="UTF-8" standalone="no"?>
<!DOCTYPE svg PUBLIC "-//W3C//DTD SVG 1.1//EN"
 "http://www.w3.org/Graphics/SVG/1.1/DTD/svg11.dtd">
<!-- Generated by graphviz version 2.38.0 (20140413.2041)
 -->
<!-- Title: E:/Dropbox/BI_FIT_CVUT/2. semestr/PA2/GameBook/Inventory.cpp Pages: 1 -->
<svg width="159pt" height="162pt"
 viewBox="0.00 0.00 158.50 162.00" xmlns="http://www.w3.org/2000/svg" xmlns:xlink="http://www.w3.org/1999/xlink">
<g id="graph0" class="graph" transform="scale(1 1) rotate(0) translate(4 158)">
<title>E:/Dropbox/BI_FIT_CVUT/2. semestr/PA2/GameBook/Inventory.cpp</title>
<!-- Node0 -->
<g id="node1" class="node"><title>Node0</title>
<polygon fill="#bfbfbf" stroke="black" points="0,-112.5 0,-153.5 140,-153.5 140,-112.5 0,-112.5"/>
<text text-anchor="start" x="8" y="-141.5" font-family="Helvetica,sans-Serif" font-size="10.00">E:/Dropbox/BI_FIT_CVUT</text>
<text text-anchor="start" x="8" y="-130.5" font-family="Helvetica,sans-Serif" font-size="10.00">/2. semestr/PA2/GameBook</text>
<text text-anchor="middle" x="70" y="-119.5" font-family="Helvetica,sans-Serif" font-size="10.00">/Inventory.cpp</text>
</g>
<!-- Node1 -->
<g id="node2" class="node"><title>Node1</title>
<g id="a_node2"><a xlink:href="_inventory_8h.html" target="_top" xlink:title="Inventory.h">
<polygon fill="none" stroke="black" points="38.5,-56.5 38.5,-75.5 101.5,-75.5 101.5,-56.5 38.5,-56.5"/>
<text text-anchor="middle" x="70" y="-63.5" font-family="Helvetica,sans-Serif" font-size="10.00">Inventory.h</text>
</a>
</g>
</g>
<!-- Node0&#45;&gt;Node1 -->
<g id="edge1" class="edge"><title>Node0&#45;&gt;Node1</title>
<path fill="none" stroke="midnightblue" d="M70,-112.498C70,-104.065 70,-94.2351 70,-85.874"/>
<polygon fill="midnightblue" stroke="midnightblue" points="73.5001,-85.6525 70,-75.6525 66.5001,-85.6525 73.5001,-85.6525"/>
</g>
<!-- Node2 -->
<g id="node3" class="node"><title>Node2</title>
<polygon fill="none" stroke="#bfbfbf" points="1,-0.5 1,-19.5 31,-19.5 31,-0.5 1,-0.5"/>
<text text-anchor="middle" x="16" y="-7.5" font-family="Helvetica,sans-Serif" font-size="10.00">set</text>
</g>
<!-- Node1&#45;&gt;Node2 -->
<g id="edge2" class="edge"><title>Node1&#45;&gt;Node2</title>
<path fill="none" stroke="midnightblue" d="M61.083,-56.083C53.2195,-48.2195 41.5688,-36.5688 32.0813,-27.0813"/>
<polygon fill="midnightblue" stroke="midnightblue" points="34.2971,-24.3473 24.7511,-19.7511 29.3473,-29.2971 34.2971,-24.3473"/>
</g>
<!-- Node3 -->
<g id="node4" class="node"><title>Node3</title>
<polygon fill="none" stroke="#bfbfbf" points="49,-0.5 49,-19.5 91,-19.5 91,-0.5 49,-0.5"/>
<text text-anchor="middle" x="70" y="-7.5" font-family="Helvetica,sans-Serif" font-size="10.00">vector</text>
</g>
<!-- Node1&#45;&gt;Node3 -->
<g id="edge3" class="edge"><title>Node1&#45;&gt;Node3</title>
<path fill="none" stroke="midnightblue" d="M70,-56.083C70,-49.0059 70,-38.8611 70,-29.9865"/>
<polygon fill="midnightblue" stroke="midnightblue" points="73.5001,-29.751 70,-19.7511 66.5001,-29.7511 73.5001,-29.751"/>
</g>
<!-- Node4 -->
<g id="node5" class="node"><title>Node4</title>
<polygon fill="none" stroke="#bfbfbf" points="109.5,-0.5 109.5,-19.5 150.5,-19.5 150.5,-0.5 109.5,-0.5"/>
<text text-anchor="middle" x="130" y="-7.5" font-family="Helvetica,sans-Serif" font-size="10.00">string</text>
</g>
<!-- Node1&#45;&gt;Node4 -->
<g id="edge4" class="edge"><title>Node1&#45;&gt;Node4</title>
<path fill="none" stroke="midnightblue" d="M79.64,-56.324C88.5096,-48.3414 101.875,-36.3128 112.608,-26.6529"/>
<polygon fill="midnightblue" stroke="midnightblue" points="115.093,-29.1251 120.185,-19.8339 110.41,-23.922 115.093,-29.1251"/>
</g>
</g>
</svg>
