<?xml version="1.0" encoding="UTF-8" standalone="no"?>
<!DOCTYPE svg PUBLIC "-//W3C//DTD SVG 1.1//EN"
 "http://www.w3.org/Graphics/SVG/1.1/DTD/svg11.dtd">
<!-- Generated by graphviz version 2.38.0 (20140413.2041)
 -->
<!-- Title: E:/Dropbox/BI_FIT_CVUT/2. semestr/PA2/GameBook/Item.h Pages: 1 -->
<svg width="409pt" height="218pt"
 viewBox="0.00 0.00 409.39 218.00" xmlns="http://www.w3.org/2000/svg" xmlns:xlink="http://www.w3.org/1999/xlink">
<g id="graph0" class="graph" transform="scale(1 1) rotate(0) translate(4 214)">
<title>E:/Dropbox/BI_FIT_CVUT/2. semestr/PA2/GameBook/Item.h</title>
<!-- Node0 -->
<g id="node1" class="node"><title>Node0</title>
<polygon fill="#bfbfbf" stroke="black" points="41.39,-168.5 41.39,-209.5 181.39,-209.5 181.39,-168.5 41.39,-168.5"/>
<text text-anchor="start" x="49.39" y="-197.5" font-family="Helvetica,sans-Serif" font-size="10.00">E:/Dropbox/BI_FIT_CVUT</text>
<text text-anchor="start" x="49.39" y="-186.5" font-family="Helvetica,sans-Serif" font-size="10.00">/2. semestr/PA2/GameBook</text>
<text text-anchor="middle" x="111.39" y="-175.5" font-family="Helvetica,sans-Serif" font-size="10.00">/Item.h</text>
</g>
<!-- Node1 -->
<g id="node2" class="node"><title>Node1</title>
<polygon fill="none" stroke="#bfbfbf" points="53.39,-56.5 53.39,-75.5 107.39,-75.5 107.39,-56.5 53.39,-56.5"/>
<text text-anchor="middle" x="80.39" y="-63.5" font-family="Helvetica,sans-Serif" font-size="10.00">iostream</text>
</g>
<!-- Node0&#45;&gt;Node1 -->
<g id="edge1" class="edge"><title>Node0&#45;&gt;Node1</title>
<path fill="none" stroke="midnightblue" d="M106.553,-168.295C102.763,-152.94 97.3223,-131.094 92.39,-112 90.1377,-103.281 87.5739,-93.6311 85.3959,-85.5106"/>
<polygon fill="midnightblue" stroke="midnightblue" points="88.7112,-84.3617 82.7305,-75.6163 81.9521,-86.1825 88.7112,-84.3617"/>
</g>
<!-- Node2 -->
<g id="node3" class="node"><title>Node2</title>
<polygon fill="none" stroke="#bfbfbf" points="59.89,-0.5 59.89,-19.5 100.89,-19.5 100.89,-0.5 59.89,-0.5"/>
<text text-anchor="middle" x="80.39" y="-7.5" font-family="Helvetica,sans-Serif" font-size="10.00">string</text>
</g>
<!-- Node0&#45;&gt;Node2 -->
<g id="edge2" class="edge"><title>Node0&#45;&gt;Node2</title>
<path fill="none" stroke="midnightblue" d="M49.0902,-168.427C32.303,-159.986 16.1158,-148.21 6.38999,-132 -16.6715,-93.5642 30.478,-48.6104 59.6502,-25.8413"/>
<polygon fill="midnightblue" stroke="midnightblue" points="61.8104,-28.5959 67.6788,-19.7747 57.5903,-23.011 61.8104,-28.5959"/>
</g>
<!-- Node3 -->
<g id="node4" class="node"><title>Node3</title>
<g id="a_node4"><a xlink:href="_display_8h.html" target="_top" xlink:title="Display.h">
<polygon fill="none" stroke="black" points="153.89,-112.5 153.89,-131.5 210.89,-131.5 210.89,-112.5 153.89,-112.5"/>
<text text-anchor="middle" x="182.39" y="-119.5" font-family="Helvetica,sans-Serif" font-size="10.00">Display.h</text>
</a>
</g>
</g>
<!-- Node0&#45;&gt;Node3 -->
<g id="edge3" class="edge"><title>Node0&#45;&gt;Node3</title>
<path fill="none" stroke="midnightblue" d="M132.692,-168.498C143.159,-158.915 155.598,-147.528 165.412,-138.543"/>
<polygon fill="midnightblue" stroke="midnightblue" points="167.926,-140.987 172.939,-131.652 163.2,-135.824 167.926,-140.987"/>
</g>
<!-- Node8 -->
<g id="node9" class="node"><title>Node8</title>
<g id="a_node9"><a xlink:href="_equipment_8h.html" target="_top" xlink:title="Equipment.h">
<polygon fill="none" stroke="black" points="228.89,-112.5 228.89,-131.5 299.89,-131.5 299.89,-112.5 228.89,-112.5"/>
<text text-anchor="middle" x="264.39" y="-119.5" font-family="Helvetica,sans-Serif" font-size="10.00">Equipment.h</text>
</a>
</g>
</g>
<!-- Node0&#45;&gt;Node8 -->
<g id="edge13" class="edge"><title>Node0&#45;&gt;Node8</title>
<path fill="none" stroke="midnightblue" d="M157.295,-168.498C182.332,-157.861 212.603,-145.001 234.566,-135.67"/>
<polygon fill="midnightblue" stroke="midnightblue" points="236.188,-138.784 244.023,-131.652 233.451,-132.341 236.188,-138.784"/>
</g>
<!-- Node9 -->
<g id="node10" class="node"><title>Node9</title>
<g id="a_node10"><a xlink:href="_hero_stats_8h.html" target="_top" xlink:title="HeroStats.h">
<polygon fill="none" stroke="black" points="15.39,-112.5 15.39,-131.5 83.39,-131.5 83.39,-112.5 15.39,-112.5"/>
<text text-anchor="middle" x="49.39" y="-119.5" font-family="Helvetica,sans-Serif" font-size="10.00">HeroStats.h</text>
</a>
</g>
</g>
<!-- Node0&#45;&gt;Node9 -->
<g id="edge14" class="edge"><title>Node0&#45;&gt;Node9</title>
<path fill="none" stroke="midnightblue" d="M92.7879,-168.498C83.8306,-159.107 73.2198,-147.983 64.7324,-139.085"/>
<polygon fill="midnightblue" stroke="midnightblue" points="67.0779,-136.473 57.6431,-131.652 62.0126,-141.304 67.0779,-136.473"/>
</g>
<!-- Node3&#45;&gt;Node1 -->
<g id="edge6" class="edge"><title>Node3&#45;&gt;Node1</title>
<path fill="none" stroke="midnightblue" d="M166.002,-112.324C149.719,-103.703 124.523,-90.3643 105.674,-80.3855"/>
<polygon fill="midnightblue" stroke="midnightblue" points="107.213,-77.2402 96.7374,-75.6545 103.938,-83.4267 107.213,-77.2402"/>
</g>
<!-- Node3&#45;&gt;Node2 -->
<g id="edge5" class="edge"><title>Node3&#45;&gt;Node2</title>
<path fill="none" stroke="midnightblue" d="M174.386,-112.368C157.33,-93.9744 117.176,-50.6712 95.2745,-27.0519"/>
<polygon fill="midnightblue" stroke="midnightblue" points="97.7224,-24.5443 88.3566,-19.5914 92.5896,-29.3039 97.7224,-24.5443"/>
</g>
<!-- Node4 -->
<g id="node5" class="node"><title>Node4</title>
<polygon fill="none" stroke="#bfbfbf" points="359.39,-0.5 359.39,-19.5 401.39,-19.5 401.39,-0.5 359.39,-0.5"/>
<text text-anchor="middle" x="380.39" y="-7.5" font-family="Helvetica,sans-Serif" font-size="10.00">vector</text>
</g>
<!-- Node3&#45;&gt;Node4 -->
<g id="edge4" class="edge"><title>Node3&#45;&gt;Node4</title>
<path fill="none" stroke="midnightblue" d="M211.02,-114.201C214.181,-113.455 217.353,-112.71 220.39,-112 289.677,-95.8005 330.402,-130.297 376.39,-76 386.999,-63.474 386.861,-44.249 384.754,-29.9524"/>
<polygon fill="midnightblue" stroke="midnightblue" points="388.122,-28.9319 382.809,-19.7656 381.246,-30.2445 388.122,-28.9319"/>
</g>
<!-- Node5 -->
<g id="node6" class="node"><title>Node5</title>
<g id="a_node6"><a xlink:href="_actions_list_8h.html" target="_top" xlink:title="ActionsList.h">
<polygon fill="none" stroke="black" points="237.39,-0.5 237.39,-19.5 311.39,-19.5 311.39,-0.5 237.39,-0.5"/>
<text text-anchor="middle" x="274.39" y="-7.5" font-family="Helvetica,sans-Serif" font-size="10.00">ActionsList.h</text>
</a>
</g>
</g>
<!-- Node3&#45;&gt;Node5 -->
<g id="edge7" class="edge"><title>Node3&#45;&gt;Node5</title>
<path fill="none" stroke="midnightblue" d="M196.679,-112.432C209.368,-104.283 227.799,-91.0564 240.39,-76 252.238,-61.831 261.574,-42.8543 267.442,-29.0648"/>
<polygon fill="midnightblue" stroke="midnightblue" points="270.726,-30.2791 271.237,-19.6966 264.238,-27.6509 270.726,-30.2791"/>
</g>
<!-- Node6 -->
<g id="node7" class="node"><title>Node6</title>
<g id="a_node7"><a xlink:href="_errors_list_8h.html" target="_top" xlink:title="ErrorsList.h">
<polygon fill="none" stroke="black" points="163.89,-56.5 163.89,-75.5 230.89,-75.5 230.89,-56.5 163.89,-56.5"/>
<text text-anchor="middle" x="197.39" y="-63.5" font-family="Helvetica,sans-Serif" font-size="10.00">ErrorsList.h</text>
</a>
</g>
</g>
<!-- Node3&#45;&gt;Node6 -->
<g id="edge8" class="edge"><title>Node3&#45;&gt;Node6</title>
<path fill="none" stroke="midnightblue" d="M184.867,-112.083C186.876,-104.849 189.776,-94.4087 192.28,-85.3968"/>
<polygon fill="midnightblue" stroke="midnightblue" points="195.655,-86.323 194.959,-75.7511 188.91,-84.4495 195.655,-86.323"/>
</g>
<!-- Node7 -->
<g id="node8" class="node"><title>Node7</title>
<g id="a_node8"><a xlink:href="_game_menus_8h.html" target="_top" xlink:title="GameMenus.h">
<polygon fill="none" stroke="black" points="287.39,-56.5 287.39,-75.5 367.39,-75.5 367.39,-56.5 287.39,-56.5"/>
<text text-anchor="middle" x="327.39" y="-63.5" font-family="Helvetica,sans-Serif" font-size="10.00">GameMenus.h</text>
</a>
</g>
</g>
<!-- Node3&#45;&gt;Node7 -->
<g id="edge9" class="edge"><title>Node3&#45;&gt;Node7</title>
<path fill="none" stroke="midnightblue" d="M205.366,-112.444C229.547,-103.438 267.808,-89.1891 295.036,-79.049"/>
<polygon fill="midnightblue" stroke="midnightblue" points="296.372,-82.2864 304.522,-75.5164 293.929,-75.7265 296.372,-82.2864"/>
</g>
<!-- Node7&#45;&gt;Node2 -->
<g id="edge10" class="edge"><title>Node7&#45;&gt;Node2</title>
<path fill="none" stroke="midnightblue" d="M288.252,-56.4435C239.138,-45.706 155.926,-27.5139 111.131,-17.7206"/>
<polygon fill="midnightblue" stroke="midnightblue" points="111.652,-14.252 101.135,-15.5354 110.157,-21.0905 111.652,-14.252"/>
</g>
<!-- Node7&#45;&gt;Node4 -->
<g id="edge11" class="edge"><title>Node7&#45;&gt;Node4</title>
<path fill="none" stroke="midnightblue" d="M336.142,-56.083C343.86,-48.2195 355.295,-36.5688 364.607,-27.0813"/>
<polygon fill="midnightblue" stroke="midnightblue" points="367.294,-29.3396 371.801,-19.7511 362.298,-24.4363 367.294,-29.3396"/>
</g>
<!-- Node7&#45;&gt;Node5 -->
<g id="edge12" class="edge"><title>Node7&#45;&gt;Node5</title>
<path fill="none" stroke="midnightblue" d="M318.638,-56.083C310.92,-48.2195 299.485,-36.5688 290.173,-27.0813"/>
<polygon fill="midnightblue" stroke="midnightblue" points="292.482,-24.4363 282.979,-19.7511 287.486,-29.3396 292.482,-24.4363"/>
</g>
<!-- Node9&#45;&gt;Node2 -->
<g id="edge15" class="edge"><title>Node9&#45;&gt;Node2</title>
<path fill="none" stroke="midnightblue" d="M46.5466,-112.298C42.858,-99.5493 37.6465,-75.2241 44.39,-56 48.1751,-45.2094 55.7565,-35.084 62.9898,-27.1808"/>
<polygon fill="midnightblue" stroke="midnightblue" points="65.7156,-29.4005 70.2278,-19.8145 60.7226,-24.4943 65.7156,-29.4005"/>
</g>
</g>
</svg>
