<?xml version="1.0" encoding="UTF-8" standalone="no"?>
<!DOCTYPE svg PUBLIC "-//W3C//DTD SVG 1.1//EN"
 "http://www.w3.org/Graphics/SVG/1.1/DTD/svg11.dtd">
<!-- Generated by graphviz version 2.38.0 (20140413.2041)
 -->
<!-- Title: E:/Dropbox/BI_FIT_CVUT/2. semestr/PA2/GameBook/Item.h Pages: 1 -->
<svg width="1305pt" height="674pt"
 viewBox="0.00 0.00 1305.00 674.00" xmlns="http://www.w3.org/2000/svg" xmlns:xlink="http://www.w3.org/1999/xlink">
<g id="graph0" class="graph" transform="scale(1 1) rotate(0) translate(4 670)">
<title>E:/Dropbox/BI_FIT_CVUT/2. semestr/PA2/GameBook/Item.h</title>
<!-- Node10 -->
<g id="node1" class="node"><title>Node10</title>
<polygon fill="#bfbfbf" stroke="black" points="855,-624.5 855,-665.5 995,-665.5 995,-624.5 855,-624.5"/>
<text text-anchor="start" x="863" y="-653.5" font-family="Helvetica,sans-Serif" font-size="10.00">E:/Dropbox/BI_FIT_CVUT</text>
<text text-anchor="start" x="863" y="-642.5" font-family="Helvetica,sans-Serif" font-size="10.00">/2. semestr/PA2/GameBook</text>
<text text-anchor="middle" x="925" y="-631.5" font-family="Helvetica,sans-Serif" font-size="10.00">/Item.h</text>
</g>
<!-- Node11 -->
<g id="node2" class="node"><title>Node11</title>
<g id="a_node2"><a xlink:href="_armour_8h.html" target="_top" xlink:title="E:/Dropbox/BI_FIT_CVUT\l/2. semestr/PA2/GameBook\l/Armour.h">
<polygon fill="none" stroke="black" points="904,-546.5 904,-587.5 1044,-587.5 1044,-546.5 904,-546.5"/>
<text text-anchor="start" x="912" y="-575.5" font-family="Helvetica,sans-Serif" font-size="10.00">E:/Dropbox/BI_FIT_CVUT</text>
<text text-anchor="start" x="912" y="-564.5" font-family="Helvetica,sans-Serif" font-size="10.00">/2. semestr/PA2/GameBook</text>
<text text-anchor="middle" x="974" y="-553.5" font-family="Helvetica,sans-Serif" font-size="10.00">/Armour.h</text>
</a>
</g>
</g>
<!-- Node10&#45;&gt;Node11 -->
<g id="edge1" class="edge"><title>Node10&#45;&gt;Node11</title>
<path fill="none" stroke="midnightblue" d="M943.209,-615.757C949.272,-606.354 955.885,-596.096 961.424,-587.506"/>
<polygon fill="midnightblue" stroke="midnightblue" points="940.096,-614.127 937.619,-624.428 945.979,-617.92 940.096,-614.127"/>
</g>
<!-- Node13 -->
<g id="node4" class="node"><title>Node13</title>
<g id="a_node4"><a xlink:href="_hero_8h.html" target="_top" xlink:title="E:/Dropbox/BI_FIT_CVUT\l/2. semestr/PA2/GameBook\l/Hero.h">
<polygon fill="none" stroke="black" points="806,-468.5 806,-509.5 946,-509.5 946,-468.5 806,-468.5"/>
<text text-anchor="start" x="814" y="-497.5" font-family="Helvetica,sans-Serif" font-size="10.00">E:/Dropbox/BI_FIT_CVUT</text>
<text text-anchor="start" x="814" y="-486.5" font-family="Helvetica,sans-Serif" font-size="10.00">/2. semestr/PA2/GameBook</text>
<text text-anchor="middle" x="876" y="-475.5" font-family="Helvetica,sans-Serif" font-size="10.00">/Hero.h</text>
</a>
</g>
</g>
<!-- Node10&#45;&gt;Node13 -->
<g id="edge41" class="edge"><title>Node10&#45;&gt;Node13</title>
<path fill="none" stroke="midnightblue" d="M907.648,-615.578C902.979,-606.963 898.311,-597.311 895,-588 885.651,-561.71 880.547,-529.727 878.045,-509.61"/>
<polygon fill="midnightblue" stroke="midnightblue" points="904.692,-617.461 912.652,-624.454 910.79,-614.024 904.692,-617.461"/>
</g>
<!-- Node36 -->
<g id="node27" class="node"><title>Node36</title>
<g id="a_node27"><a xlink:href="_sword_8h.html" target="_top" xlink:title="E:/Dropbox/BI_FIT_CVUT\l/2. semestr/PA2/GameBook\l/Sword.h">
<polygon fill="none" stroke="black" points="373,-546.5 373,-587.5 513,-587.5 513,-546.5 373,-546.5"/>
<text text-anchor="start" x="381" y="-575.5" font-family="Helvetica,sans-Serif" font-size="10.00">E:/Dropbox/BI_FIT_CVUT</text>
<text text-anchor="start" x="381" y="-564.5" font-family="Helvetica,sans-Serif" font-size="10.00">/2. semestr/PA2/GameBook</text>
<text text-anchor="middle" x="443" y="-553.5" font-family="Helvetica,sans-Serif" font-size="10.00">/Sword.h</text>
</a>
</g>
</g>
<!-- Node10&#45;&gt;Node36 -->
<g id="edge37" class="edge"><title>Node10&#45;&gt;Node36</title>
<path fill="none" stroke="midnightblue" d="M845.03,-631.391C752.438,-616.791 601.383,-592.973 513.172,-579.064"/>
<polygon fill="midnightblue" stroke="midnightblue" points="844.49,-634.849 854.913,-632.949 845.58,-627.934 844.49,-634.849"/>
</g>
<!-- Node38 -->
<g id="node29" class="node"><title>Node38</title>
<g id="a_node29"><a xlink:href="_item_8cpp.html" target="_top" xlink:title="E:/Dropbox/BI_FIT_CVUT\l/2. semestr/PA2/GameBook\l/Item.cpp">
<polygon fill="none" stroke="black" points="1062,-546.5 1062,-587.5 1202,-587.5 1202,-546.5 1062,-546.5"/>
<text text-anchor="start" x="1070" y="-575.5" font-family="Helvetica,sans-Serif" font-size="10.00">E:/Dropbox/BI_FIT_CVUT</text>
<text text-anchor="start" x="1070" y="-564.5" font-family="Helvetica,sans-Serif" font-size="10.00">/2. semestr/PA2/GameBook</text>
<text text-anchor="middle" x="1132" y="-553.5" font-family="Helvetica,sans-Serif" font-size="10.00">/Item.cpp</text>
</a>
</g>
</g>
<!-- Node10&#45;&gt;Node38 -->
<g id="edge42" class="edge"><title>Node10&#45;&gt;Node38</title>
<path fill="none" stroke="midnightblue" d="M987.952,-620.887C1017.01,-610.219 1051.13,-597.69 1078.87,-587.506"/>
<polygon fill="midnightblue" stroke="midnightblue" points="986.489,-617.696 978.308,-624.428 988.901,-624.267 986.489,-617.696"/>
</g>
<!-- Node12 -->
<g id="node3" class="node"><title>Node12</title>
<g id="a_node3"><a xlink:href="_armour_8cpp.html" target="_top" xlink:title="E:/Dropbox/BI_FIT_CVUT\l/2. semestr/PA2/GameBook\l/Armour.cpp">
<polygon fill="none" stroke="black" points="1157,-468.5 1157,-509.5 1297,-509.5 1297,-468.5 1157,-468.5"/>
<text text-anchor="start" x="1165" y="-497.5" font-family="Helvetica,sans-Serif" font-size="10.00">E:/Dropbox/BI_FIT_CVUT</text>
<text text-anchor="start" x="1165" y="-486.5" font-family="Helvetica,sans-Serif" font-size="10.00">/2. semestr/PA2/GameBook</text>
<text text-anchor="middle" x="1227" y="-475.5" font-family="Helvetica,sans-Serif" font-size="10.00">/Armour.cpp</text>
</a>
</g>
</g>
<!-- Node11&#45;&gt;Node12 -->
<g id="edge2" class="edge"><title>Node11&#45;&gt;Node12</title>
<path fill="none" stroke="midnightblue" d="M1049.09,-543.442C1085,-532.655 1127.57,-519.867 1162.07,-509.506"/>
<polygon fill="midnightblue" stroke="midnightblue" points="1047.72,-540.199 1039.15,-546.428 1049.74,-546.903 1047.72,-540.199"/>
</g>
<!-- Node11&#45;&gt;Node13 -->
<g id="edge3" class="edge"><title>Node11&#45;&gt;Node13</title>
<path fill="none" stroke="midnightblue" d="M940.557,-540.065C927.653,-530.057 913.143,-518.804 901.152,-509.506"/>
<polygon fill="midnightblue" stroke="midnightblue" points="938.715,-543.066 948.763,-546.428 943.005,-537.534 938.715,-543.066"/>
</g>
<!-- Node17 -->
<g id="node8" class="node"><title>Node17</title>
<g id="a_node8"><a xlink:href="_world_8h.html" target="_top" xlink:title="E:/Dropbox/BI_FIT_CVUT\l/2. semestr/PA2/GameBook\l/World.h">
<polygon fill="none" stroke="black" points="550,-234.5 550,-275.5 690,-275.5 690,-234.5 550,-234.5"/>
<text text-anchor="start" x="558" y="-263.5" font-family="Helvetica,sans-Serif" font-size="10.00">E:/Dropbox/BI_FIT_CVUT</text>
<text text-anchor="start" x="558" y="-252.5" font-family="Helvetica,sans-Serif" font-size="10.00">/2. semestr/PA2/GameBook</text>
<text text-anchor="middle" x="620" y="-241.5" font-family="Helvetica,sans-Serif" font-size="10.00">/World.h</text>
</a>
</g>
</g>
<!-- Node11&#45;&gt;Node17 -->
<g id="edge36" class="edge"><title>Node11&#45;&gt;Node17</title>
<path fill="none" stroke="midnightblue" d="M997.603,-538.506C1038.42,-487.567 1112.39,-377.731 1053,-312 999.991,-253.327 776.869,-289.74 699,-276 696.074,-275.484 693.097,-274.918 690.096,-274.313"/>
<polygon fill="midnightblue" stroke="midnightblue" points="994.733,-536.488 991.123,-546.448 1000.16,-540.913 994.733,-536.488"/>
</g>
<!-- Node14 -->
<g id="node5" class="node"><title>Node14</title>
<g id="a_node5"><a xlink:href="_event_8h.html" target="_top" xlink:title="E:/Dropbox/BI_FIT_CVUT\l/2. semestr/PA2/GameBook\l/Event.h">
<polygon fill="none" stroke="black" points="588,-390.5 588,-431.5 728,-431.5 728,-390.5 588,-390.5"/>
<text text-anchor="start" x="596" y="-419.5" font-family="Helvetica,sans-Serif" font-size="10.00">E:/Dropbox/BI_FIT_CVUT</text>
<text text-anchor="start" x="596" y="-408.5" font-family="Helvetica,sans-Serif" font-size="10.00">/2. semestr/PA2/GameBook</text>
<text text-anchor="middle" x="658" y="-397.5" font-family="Helvetica,sans-Serif" font-size="10.00">/Event.h</text>
</a>
</g>
</g>
<!-- Node13&#45;&gt;Node14 -->
<g id="edge4" class="edge"><title>Node13&#45;&gt;Node14</title>
<path fill="none" stroke="midnightblue" d="M810.102,-465.026C779.413,-454.328 743.291,-441.734 713.95,-431.506"/>
<polygon fill="midnightblue" stroke="midnightblue" points="809.265,-468.441 819.86,-468.428 811.569,-461.831 809.265,-468.441"/>
</g>
<!-- Node21 -->
<g id="node12" class="node"><title>Node21</title>
<g id="a_node12"><a xlink:href="_shopping_8h.html" target="_top" xlink:title="E:/Dropbox/BI_FIT_CVUT\l/2. semestr/PA2/GameBook\l/Shopping.h">
<polygon fill="none" stroke="black" points="900,-156.5 900,-197.5 1040,-197.5 1040,-156.5 900,-156.5"/>
<text text-anchor="start" x="908" y="-185.5" font-family="Helvetica,sans-Serif" font-size="10.00">E:/Dropbox/BI_FIT_CVUT</text>
<text text-anchor="start" x="908" y="-174.5" font-family="Helvetica,sans-Serif" font-size="10.00">/2. semestr/PA2/GameBook</text>
<text text-anchor="middle" x="970" y="-163.5" font-family="Helvetica,sans-Serif" font-size="10.00">/Shopping.h</text>
</a>
</g>
</g>
<!-- Node13&#45;&gt;Node21 -->
<g id="edge32" class="edge"><title>Node13&#45;&gt;Node21</title>
<path fill="none" stroke="midnightblue" d="M955.694,-466.447C977.932,-458.021 1001.14,-446.749 1020,-432 1053.41,-405.867 1061.66,-394.266 1075,-354 1091.77,-303.365 1104.62,-279.632 1077,-234 1067.17,-217.767 1050.92,-206.013 1034.02,-197.6"/>
<polygon fill="midnightblue" stroke="midnightblue" points="954.441,-463.179 946.239,-469.886 956.833,-469.757 954.441,-463.179"/>
</g>
<!-- Node23 -->
<g id="node14" class="node"><title>Node23</title>
<g id="a_node14"><a xlink:href="_inventory_browser_8h.html" target="_top" xlink:title="E:/Dropbox/BI_FIT_CVUT\l/2. semestr/PA2/GameBook\l/InventoryBrowser.h">
<polygon fill="none" stroke="black" points="727,-156.5 727,-197.5 867,-197.5 867,-156.5 727,-156.5"/>
<text text-anchor="start" x="735" y="-185.5" font-family="Helvetica,sans-Serif" font-size="10.00">E:/Dropbox/BI_FIT_CVUT</text>
<text text-anchor="start" x="735" y="-174.5" font-family="Helvetica,sans-Serif" font-size="10.00">/2. semestr/PA2/GameBook</text>
<text text-anchor="middle" x="797" y="-163.5" font-family="Helvetica,sans-Serif" font-size="10.00">/InventoryBrowser.h</text>
</a>
</g>
</g>
<!-- Node13&#45;&gt;Node23 -->
<g id="edge33" class="edge"><title>Node13&#45;&gt;Node23</title>
<path fill="none" stroke="midnightblue" d="M930.986,-463.861C973.188,-441.973 1028.28,-405.265 1053,-354 1076.16,-305.959 1086.44,-275.547 1053,-234 1052.25,-233.071 942.562,-209.314 867.025,-193.045"/>
<polygon fill="midnightblue" stroke="midnightblue" points="929.269,-460.807 921.921,-468.44 932.425,-467.055 929.269,-460.807"/>
</g>
<!-- Node25 -->
<g id="node16" class="node"><title>Node25</title>
<g id="a_node16"><a xlink:href="_interact_8h.html" target="_top" xlink:title="E:/Dropbox/BI_FIT_CVUT\l/2. semestr/PA2/GameBook\l/Interact.h">
<polygon fill="none" stroke="black" points="343,-156.5 343,-197.5 483,-197.5 483,-156.5 343,-156.5"/>
<text text-anchor="start" x="351" y="-185.5" font-family="Helvetica,sans-Serif" font-size="10.00">E:/Dropbox/BI_FIT_CVUT</text>
<text text-anchor="start" x="351" y="-174.5" font-family="Helvetica,sans-Serif" font-size="10.00">/2. semestr/PA2/GameBook</text>
<text text-anchor="middle" x="413" y="-163.5" font-family="Helvetica,sans-Serif" font-size="10.00">/Interact.h</text>
</a>
</g>
</g>
<!-- Node13&#45;&gt;Node25 -->
<g id="edge34" class="edge"><title>Node13&#45;&gt;Node25</title>
<path fill="none" stroke="midnightblue" d="M795.847,-483.81C637.911,-473.691 295.642,-441.902 225,-354 191.591,-312.428 193.122,-276.758 225,-234 239.453,-214.615 295.715,-199.505 342.958,-189.892"/>
<polygon fill="midnightblue" stroke="midnightblue" points="795.779,-487.313 805.978,-484.446 796.217,-480.326 795.779,-487.313"/>
</g>
<!-- Node35 -->
<g id="node26" class="node"><title>Node35</title>
<g id="a_node26"><a xlink:href="_hero_8cpp.html" target="_top" xlink:title="E:/Dropbox/BI_FIT_CVUT\l/2. semestr/PA2/GameBook\l/Hero.cpp">
<polygon fill="none" stroke="black" points="806,-390.5 806,-431.5 946,-431.5 946,-390.5 806,-390.5"/>
<text text-anchor="start" x="814" y="-419.5" font-family="Helvetica,sans-Serif" font-size="10.00">E:/Dropbox/BI_FIT_CVUT</text>
<text text-anchor="start" x="814" y="-408.5" font-family="Helvetica,sans-Serif" font-size="10.00">/2. semestr/PA2/GameBook</text>
<text text-anchor="middle" x="876" y="-397.5" font-family="Helvetica,sans-Serif" font-size="10.00">/Hero.cpp</text>
</a>
</g>
</g>
<!-- Node13&#45;&gt;Node35 -->
<g id="edge35" class="edge"><title>Node13&#45;&gt;Node35</title>
<path fill="none" stroke="midnightblue" d="M876,-458.297C876,-449.301 876,-439.653 876,-431.506"/>
<polygon fill="midnightblue" stroke="midnightblue" points="872.5,-458.428 876,-468.428 879.5,-458.428 872.5,-458.428"/>
</g>
<!-- Node15 -->
<g id="node6" class="node"><title>Node15</title>
<g id="a_node6"><a xlink:href="_choice_8h.html" target="_top" xlink:title="E:/Dropbox/BI_FIT_CVUT\l/2. semestr/PA2/GameBook\l/Choice.h">
<polygon fill="none" stroke="black" points="392,-312.5 392,-353.5 532,-353.5 532,-312.5 392,-312.5"/>
<text text-anchor="start" x="400" y="-341.5" font-family="Helvetica,sans-Serif" font-size="10.00">E:/Dropbox/BI_FIT_CVUT</text>
<text text-anchor="start" x="400" y="-330.5" font-family="Helvetica,sans-Serif" font-size="10.00">/2. semestr/PA2/GameBook</text>
<text text-anchor="middle" x="462" y="-319.5" font-family="Helvetica,sans-Serif" font-size="10.00">/Choice.h</text>
</a>
</g>
</g>
<!-- Node14&#45;&gt;Node15 -->
<g id="edge5" class="edge"><title>Node14&#45;&gt;Node15</title>
<path fill="none" stroke="midnightblue" d="M598.035,-386.748C570.599,-376.11 538.455,-363.646 512.304,-353.506"/>
<polygon fill="midnightblue" stroke="midnightblue" points="596.936,-390.076 607.525,-390.428 599.467,-383.55 596.936,-390.076"/>
</g>
<!-- Node14&#45;&gt;Node17 -->
<g id="edge28" class="edge"><title>Node14&#45;&gt;Node17</title>
<path fill="none" stroke="midnightblue" d="M607.258,-384.791C595.934,-376.611 585.398,-366.378 579,-354 570.429,-337.418 573.199,-329.742 579,-312 583.381,-298.6 592.321,-285.751 600.739,-275.749"/>
<polygon fill="midnightblue" stroke="midnightblue" points="605.341,-387.719 615.595,-390.385 609.242,-381.906 605.341,-387.719"/>
</g>
<!-- Node28 -->
<g id="node19" class="node"><title>Node28</title>
<g id="a_node19"><a xlink:href="_dialogue_n_c_p_8h.html" target="_top" xlink:title="E:/Dropbox/BI_FIT_CVUT\l/2. semestr/PA2/GameBook\l/DialogueNCP.h">
<polygon fill="none" stroke="black" points="588,-312.5 588,-353.5 728,-353.5 728,-312.5 588,-312.5"/>
<text text-anchor="start" x="596" y="-341.5" font-family="Helvetica,sans-Serif" font-size="10.00">E:/Dropbox/BI_FIT_CVUT</text>
<text text-anchor="start" x="596" y="-330.5" font-family="Helvetica,sans-Serif" font-size="10.00">/2. semestr/PA2/GameBook</text>
<text text-anchor="middle" x="658" y="-319.5" font-family="Helvetica,sans-Serif" font-size="10.00">/DialogueNCP.h</text>
</a>
</g>
</g>
<!-- Node14&#45;&gt;Node28 -->
<g id="edge21" class="edge"><title>Node14&#45;&gt;Node28</title>
<path fill="none" stroke="midnightblue" d="M658,-380.297C658,-371.301 658,-361.653 658,-353.506"/>
<polygon fill="midnightblue" stroke="midnightblue" points="654.5,-380.428 658,-390.428 661.5,-380.428 654.5,-380.428"/>
</g>
<!-- Node30 -->
<g id="node21" class="node"><title>Node30</title>
<g id="a_node21"><a xlink:href="_event_8cpp.html" target="_top" xlink:title="E:/Dropbox/BI_FIT_CVUT\l/2. semestr/PA2/GameBook\l/Event.cpp">
<polygon fill="none" stroke="black" points="746,-312.5 746,-353.5 886,-353.5 886,-312.5 746,-312.5"/>
<text text-anchor="start" x="754" y="-341.5" font-family="Helvetica,sans-Serif" font-size="10.00">E:/Dropbox/BI_FIT_CVUT</text>
<text text-anchor="start" x="754" y="-330.5" font-family="Helvetica,sans-Serif" font-size="10.00">/2. semestr/PA2/GameBook</text>
<text text-anchor="middle" x="816" y="-319.5" font-family="Helvetica,sans-Serif" font-size="10.00">/Event.cpp</text>
</a>
</g>
</g>
<!-- Node14&#45;&gt;Node30 -->
<g id="edge24" class="edge"><title>Node14&#45;&gt;Node30</title>
<path fill="none" stroke="midnightblue" d="M707.794,-386.049C729.585,-375.566 754.828,-363.424 775.449,-353.506"/>
<polygon fill="midnightblue" stroke="midnightblue" points="706.183,-382.939 698.689,-390.428 709.218,-389.247 706.183,-382.939"/>
</g>
<!-- Node31 -->
<g id="node22" class="node"><title>Node31</title>
<g id="a_node22"><a xlink:href="_fight_8h.html" target="_top" xlink:title="E:/Dropbox/BI_FIT_CVUT\l/2. semestr/PA2/GameBook\l/Fight.h">
<polygon fill="none" stroke="black" points="904,-312.5 904,-353.5 1044,-353.5 1044,-312.5 904,-312.5"/>
<text text-anchor="start" x="912" y="-341.5" font-family="Helvetica,sans-Serif" font-size="10.00">E:/Dropbox/BI_FIT_CVUT</text>
<text text-anchor="start" x="912" y="-330.5" font-family="Helvetica,sans-Serif" font-size="10.00">/2. semestr/PA2/GameBook</text>
<text text-anchor="middle" x="974" y="-319.5" font-family="Helvetica,sans-Serif" font-size="10.00">/Fight.h</text>
</a>
</g>
</g>
<!-- Node14&#45;&gt;Node31 -->
<g id="edge25" class="edge"><title>Node14&#45;&gt;Node31</title>
<path fill="none" stroke="midnightblue" d="M737.975,-391.437C783.953,-380.682 842.775,-366.78 895,-354 897.886,-353.294 900.83,-352.569 903.803,-351.833"/>
<polygon fill="midnightblue" stroke="midnightblue" points="737.011,-388.068 728.07,-393.752 738.604,-394.884 737.011,-388.068"/>
</g>
<!-- Node33 -->
<g id="node24" class="node"><title>Node33</title>
<g id="a_node24"><a xlink:href="_trap_8h.html" target="_top" xlink:title="E:/Dropbox/BI_FIT_CVUT\l/2. semestr/PA2/GameBook\l/Trap.h">
<polygon fill="none" stroke="black" points="234,-312.5 234,-353.5 374,-353.5 374,-312.5 234,-312.5"/>
<text text-anchor="start" x="242" y="-341.5" font-family="Helvetica,sans-Serif" font-size="10.00">E:/Dropbox/BI_FIT_CVUT</text>
<text text-anchor="start" x="242" y="-330.5" font-family="Helvetica,sans-Serif" font-size="10.00">/2. semestr/PA2/GameBook</text>
<text text-anchor="middle" x="304" y="-319.5" font-family="Helvetica,sans-Serif" font-size="10.00">/Trap.h</text>
</a>
</g>
</g>
<!-- Node14&#45;&gt;Node33 -->
<g id="edge29" class="edge"><title>Node14&#45;&gt;Node33</title>
<path fill="none" stroke="midnightblue" d="M577.698,-394.682C522.741,-383.946 448.288,-368.903 383,-354 380.103,-353.339 377.15,-352.652 374.17,-351.947"/>
<polygon fill="midnightblue" stroke="midnightblue" points="577.241,-398.159 587.726,-396.636 578.58,-391.288 577.241,-398.159"/>
</g>
<!-- Node16 -->
<g id="node7" class="node"><title>Node16</title>
<g id="a_node7"><a xlink:href="_choice_8cpp.html" target="_top" xlink:title="E:/Dropbox/BI_FIT_CVUT\l/2. semestr/PA2/GameBook\l/Choice.cpp">
<polygon fill="none" stroke="black" points="392,-234.5 392,-275.5 532,-275.5 532,-234.5 392,-234.5"/>
<text text-anchor="start" x="400" y="-263.5" font-family="Helvetica,sans-Serif" font-size="10.00">E:/Dropbox/BI_FIT_CVUT</text>
<text text-anchor="start" x="400" y="-252.5" font-family="Helvetica,sans-Serif" font-size="10.00">/2. semestr/PA2/GameBook</text>
<text text-anchor="middle" x="462" y="-241.5" font-family="Helvetica,sans-Serif" font-size="10.00">/Choice.cpp</text>
</a>
</g>
</g>
<!-- Node15&#45;&gt;Node16 -->
<g id="edge6" class="edge"><title>Node15&#45;&gt;Node16</title>
<path fill="none" stroke="midnightblue" d="M462,-302.297C462,-293.301 462,-283.653 462,-275.506"/>
<polygon fill="midnightblue" stroke="midnightblue" points="458.5,-302.428 462,-312.428 465.5,-302.428 458.5,-302.428"/>
</g>
<!-- Node15&#45;&gt;Node17 -->
<g id="edge7" class="edge"><title>Node15&#45;&gt;Node17</title>
<path fill="none" stroke="midnightblue" d="M511.794,-308.049C533.585,-297.566 558.828,-285.424 579.449,-275.506"/>
<polygon fill="midnightblue" stroke="midnightblue" points="510.183,-304.939 502.689,-312.428 513.218,-311.247 510.183,-304.939"/>
</g>
<!-- Node18 -->
<g id="node9" class="node"><title>Node18</title>
<g id="a_node9"><a xlink:href="_game_8h.html" target="_top" xlink:title="E:/Dropbox/BI_FIT_CVUT\l/2. semestr/PA2/GameBook\l/Game.h">
<polygon fill="none" stroke="black" points="584,-78.5 584,-119.5 724,-119.5 724,-78.5 584,-78.5"/>
<text text-anchor="start" x="592" y="-107.5" font-family="Helvetica,sans-Serif" font-size="10.00">E:/Dropbox/BI_FIT_CVUT</text>
<text text-anchor="start" x="592" y="-96.5" font-family="Helvetica,sans-Serif" font-size="10.00">/2. semestr/PA2/GameBook</text>
<text text-anchor="middle" x="654" y="-85.5" font-family="Helvetica,sans-Serif" font-size="10.00">/Game.h</text>
</a>
</g>
</g>
<!-- Node17&#45;&gt;Node18 -->
<g id="edge8" class="edge"><title>Node17&#45;&gt;Node18</title>
<path fill="none" stroke="midnightblue" d="M638.367,-225.649C643.018,-217.094 647.421,-207.455 650,-198 657.215,-171.551 656.937,-139.609 655.737,-119.544"/>
<polygon fill="midnightblue" stroke="midnightblue" points="635.258,-224.035 633.299,-234.447 641.324,-227.529 635.258,-224.035"/>
</g>
<!-- Node17&#45;&gt;Node21 -->
<g id="edge11" class="edge"><title>Node17&#45;&gt;Node21</title>
<path fill="none" stroke="midnightblue" d="M700.077,-233.8C778.929,-215.982 800.476,-213.715 876,-198 883.759,-196.386 891.875,-194.682 899.948,-192.977"/>
<polygon fill="midnightblue" stroke="midnightblue" points="699.145,-230.423 690.17,-236.052 700.697,-237.249 699.145,-230.423"/>
</g>
<!-- Node17&#45;&gt;Node23 -->
<g id="edge14" class="edge"><title>Node17&#45;&gt;Node23</title>
<path fill="none" stroke="midnightblue" d="M674.803,-230.469C699.435,-219.892 728.163,-207.557 751.573,-197.506"/>
<polygon fill="midnightblue" stroke="midnightblue" points="673.39,-227.267 665.582,-234.428 676.152,-233.699 673.39,-227.267"/>
</g>
<!-- Node17&#45;&gt;Node25 -->
<g id="edge17" class="edge"><title>Node17&#45;&gt;Node25</title>
<path fill="none" stroke="midnightblue" d="M557.048,-230.887C527.99,-220.219 493.866,-207.69 466.127,-197.506"/>
<polygon fill="midnightblue" stroke="midnightblue" points="556.099,-234.267 566.692,-234.428 558.511,-227.696 556.099,-234.267"/>
</g>
<!-- Node27 -->
<g id="node18" class="node"><title>Node27</title>
<g id="a_node18"><a xlink:href="_world_8cpp.html" target="_top" xlink:title="E:/Dropbox/BI_FIT_CVUT\l/2. semestr/PA2/GameBook\l/World.cpp">
<polygon fill="none" stroke="black" points="501,-156.5 501,-197.5 641,-197.5 641,-156.5 501,-156.5"/>
<text text-anchor="start" x="509" y="-185.5" font-family="Helvetica,sans-Serif" font-size="10.00">E:/Dropbox/BI_FIT_CVUT</text>
<text text-anchor="start" x="509" y="-174.5" font-family="Helvetica,sans-Serif" font-size="10.00">/2. semestr/PA2/GameBook</text>
<text text-anchor="middle" x="571" y="-163.5" font-family="Helvetica,sans-Serif" font-size="10.00">/World.cpp</text>
</a>
</g>
</g>
<!-- Node17&#45;&gt;Node27 -->
<g id="edge20" class="edge"><title>Node17&#45;&gt;Node27</title>
<path fill="none" stroke="midnightblue" d="M601.791,-225.757C595.728,-216.354 589.115,-206.096 583.576,-197.506"/>
<polygon fill="midnightblue" stroke="midnightblue" points="599.021,-227.92 607.381,-234.428 604.904,-224.127 599.021,-227.92"/>
</g>
<!-- Node19 -->
<g id="node10" class="node"><title>Node19</title>
<g id="a_node10"><a xlink:href="_game_8cpp.html" target="_top" xlink:title="E:/Dropbox/BI_FIT_CVUT\l/2. semestr/PA2/GameBook\l/Game.cpp">
<polygon fill="none" stroke="black" points="505,-0.5 505,-41.5 645,-41.5 645,-0.5 505,-0.5"/>
<text text-anchor="start" x="513" y="-29.5" font-family="Helvetica,sans-Serif" font-size="10.00">E:/Dropbox/BI_FIT_CVUT</text>
<text text-anchor="start" x="513" y="-18.5" font-family="Helvetica,sans-Serif" font-size="10.00">/2. semestr/PA2/GameBook</text>
<text text-anchor="middle" x="575" y="-7.5" font-family="Helvetica,sans-Serif" font-size="10.00">/Game.cpp</text>
</a>
</g>
</g>
<!-- Node18&#45;&gt;Node19 -->
<g id="edge9" class="edge"><title>Node18&#45;&gt;Node19</title>
<path fill="none" stroke="midnightblue" d="M626.445,-71.4916C616.194,-61.6294 604.757,-50.6273 595.276,-41.5056"/>
<polygon fill="midnightblue" stroke="midnightblue" points="624.022,-74.0175 633.656,-78.4281 628.875,-68.9729 624.022,-74.0175"/>
</g>
<!-- Node20 -->
<g id="node11" class="node"><title>Node20</title>
<g id="a_node11"><a xlink:href="main_8cpp.html" target="_top" xlink:title="E:/Dropbox/BI_FIT_CVUT\l/2. semestr/PA2/GameBook\l/main.cpp">
<polygon fill="none" stroke="black" points="663,-0.5 663,-41.5 803,-41.5 803,-0.5 663,-0.5"/>
<text text-anchor="start" x="671" y="-29.5" font-family="Helvetica,sans-Serif" font-size="10.00">E:/Dropbox/BI_FIT_CVUT</text>
<text text-anchor="start" x="671" y="-18.5" font-family="Helvetica,sans-Serif" font-size="10.00">/2. semestr/PA2/GameBook</text>
<text text-anchor="middle" x="733" y="-7.5" font-family="Helvetica,sans-Serif" font-size="10.00">/main.cpp</text>
</a>
</g>
</g>
<!-- Node18&#45;&gt;Node20 -->
<g id="edge10" class="edge"><title>Node18&#45;&gt;Node20</title>
<path fill="none" stroke="midnightblue" d="M681.555,-71.4916C691.806,-61.6294 703.243,-50.6273 712.724,-41.5056"/>
<polygon fill="midnightblue" stroke="midnightblue" points="679.125,-68.9729 674.344,-78.4281 683.978,-74.0175 679.125,-68.9729"/>
</g>
<!-- Node21&#45;&gt;Node18 -->
<g id="edge12" class="edge"><title>Node21&#45;&gt;Node18</title>
<path fill="none" stroke="midnightblue" d="M890.025,-157.437C844.047,-146.682 785.225,-132.78 733,-120 730.114,-119.294 727.17,-118.569 724.197,-117.833"/>
<polygon fill="midnightblue" stroke="midnightblue" points="889.396,-160.884 899.93,-159.752 890.989,-154.068 889.396,-160.884"/>
</g>
<!-- Node22 -->
<g id="node13" class="node"><title>Node22</title>
<g id="a_node13"><a xlink:href="_shopping_8cpp.html" target="_top" xlink:title="E:/Dropbox/BI_FIT_CVUT\l/2. semestr/PA2/GameBook\l/Shopping.cpp">
<polygon fill="none" stroke="black" points="900,-78.5 900,-119.5 1040,-119.5 1040,-78.5 900,-78.5"/>
<text text-anchor="start" x="908" y="-107.5" font-family="Helvetica,sans-Serif" font-size="10.00">E:/Dropbox/BI_FIT_CVUT</text>
<text text-anchor="start" x="908" y="-96.5" font-family="Helvetica,sans-Serif" font-size="10.00">/2. semestr/PA2/GameBook</text>
<text text-anchor="middle" x="970" y="-85.5" font-family="Helvetica,sans-Serif" font-size="10.00">/Shopping.cpp</text>
</a>
</g>
</g>
<!-- Node21&#45;&gt;Node22 -->
<g id="edge13" class="edge"><title>Node21&#45;&gt;Node22</title>
<path fill="none" stroke="midnightblue" d="M970,-146.297C970,-137.301 970,-127.653 970,-119.506"/>
<polygon fill="midnightblue" stroke="midnightblue" points="966.5,-146.428 970,-156.428 973.5,-146.428 966.5,-146.428"/>
</g>
<!-- Node23&#45;&gt;Node18 -->
<g id="edge15" class="edge"><title>Node23&#45;&gt;Node18</title>
<path fill="none" stroke="midnightblue" d="M751.14,-151.627C731.599,-141.242 709.114,-129.292 690.701,-119.506"/>
<polygon fill="midnightblue" stroke="midnightblue" points="749.701,-154.826 760.174,-156.428 752.986,-148.644 749.701,-154.826"/>
</g>
<!-- Node24 -->
<g id="node15" class="node"><title>Node24</title>
<g id="a_node15"><a xlink:href="_inventory_browser_8cpp.html" target="_top" xlink:title="E:/Dropbox/BI_FIT_CVUT\l/2. semestr/PA2/GameBook\l/InventoryBrowser.cpp">
<polygon fill="none" stroke="black" points="742,-78.5 742,-119.5 882,-119.5 882,-78.5 742,-78.5"/>
<text text-anchor="start" x="750" y="-107.5" font-family="Helvetica,sans-Serif" font-size="10.00">E:/Dropbox/BI_FIT_CVUT</text>
<text text-anchor="start" x="750" y="-96.5" font-family="Helvetica,sans-Serif" font-size="10.00">/2. semestr/PA2/GameBook</text>
<text text-anchor="middle" x="812" y="-85.5" font-family="Helvetica,sans-Serif" font-size="10.00">/InventoryBrowser.cpp</text>
</a>
</g>
</g>
<!-- Node23&#45;&gt;Node24 -->
<g id="edge16" class="edge"><title>Node23&#45;&gt;Node24</title>
<path fill="none" stroke="midnightblue" d="M802.805,-146.59C804.597,-137.511 806.525,-127.742 808.15,-119.506"/>
<polygon fill="midnightblue" stroke="midnightblue" points="799.366,-145.94 800.863,-156.428 806.233,-147.295 799.366,-145.94"/>
</g>
<!-- Node25&#45;&gt;Node18 -->
<g id="edge18" class="edge"><title>Node25&#45;&gt;Node18</title>
<path fill="none" stroke="midnightblue" d="M484.971,-153.304C519.085,-142.546 559.43,-129.823 592.147,-119.506"/>
<polygon fill="midnightblue" stroke="midnightblue" points="483.548,-150.083 475.063,-156.428 485.653,-156.758 483.548,-150.083"/>
</g>
<!-- Node26 -->
<g id="node17" class="node"><title>Node26</title>
<g id="a_node17"><a xlink:href="_interact_8cpp.html" target="_top" xlink:title="E:/Dropbox/BI_FIT_CVUT\l/2. semestr/PA2/GameBook\l/Interact.cpp">
<polygon fill="none" stroke="black" points="343,-78.5 343,-119.5 483,-119.5 483,-78.5 343,-78.5"/>
<text text-anchor="start" x="351" y="-107.5" font-family="Helvetica,sans-Serif" font-size="10.00">E:/Dropbox/BI_FIT_CVUT</text>
<text text-anchor="start" x="351" y="-96.5" font-family="Helvetica,sans-Serif" font-size="10.00">/2. semestr/PA2/GameBook</text>
<text text-anchor="middle" x="413" y="-85.5" font-family="Helvetica,sans-Serif" font-size="10.00">/Interact.cpp</text>
</a>
</g>
</g>
<!-- Node25&#45;&gt;Node26 -->
<g id="edge19" class="edge"><title>Node25&#45;&gt;Node26</title>
<path fill="none" stroke="midnightblue" d="M413,-146.297C413,-137.301 413,-127.653 413,-119.506"/>
<polygon fill="midnightblue" stroke="midnightblue" points="409.5,-146.428 413,-156.428 416.5,-146.428 409.5,-146.428"/>
</g>
<!-- Node28&#45;&gt;Node17 -->
<g id="edge23" class="edge"><title>Node28&#45;&gt;Node17</title>
<path fill="none" stroke="midnightblue" d="M643.733,-303.466C639.071,-294.143 634.004,-284.007 629.753,-275.506"/>
<polygon fill="midnightblue" stroke="midnightblue" points="640.611,-305.049 648.214,-312.428 646.872,-301.919 640.611,-305.049"/>
</g>
<!-- Node29 -->
<g id="node20" class="node"><title>Node29</title>
<g id="a_node20"><a xlink:href="_dialogue_n_c_p_8cpp.html" target="_top" xlink:title="E:/Dropbox/BI_FIT_CVUT\l/2. semestr/PA2/GameBook\l/DialogueNCP.cpp">
<polygon fill="none" stroke="black" points="708,-234.5 708,-275.5 848,-275.5 848,-234.5 708,-234.5"/>
<text text-anchor="start" x="716" y="-263.5" font-family="Helvetica,sans-Serif" font-size="10.00">E:/Dropbox/BI_FIT_CVUT</text>
<text text-anchor="start" x="716" y="-252.5" font-family="Helvetica,sans-Serif" font-size="10.00">/2. semestr/PA2/GameBook</text>
<text text-anchor="middle" x="778" y="-241.5" font-family="Helvetica,sans-Serif" font-size="10.00">/DialogueNCP.cpp</text>
</a>
</g>
</g>
<!-- Node28&#45;&gt;Node29 -->
<g id="edge22" class="edge"><title>Node28&#45;&gt;Node29</title>
<path fill="none" stroke="midnightblue" d="M697.601,-306.919C713.734,-296.702 732.1,-285.07 747.202,-275.506"/>
<polygon fill="midnightblue" stroke="midnightblue" points="695.478,-304.121 688.903,-312.428 699.224,-310.034 695.478,-304.121"/>
</g>
<!-- Node31&#45;&gt;Node17 -->
<g id="edge27" class="edge"><title>Node31&#45;&gt;Node17</title>
<path fill="none" stroke="midnightblue" d="M894.049,-311.864C806.776,-293.219 782.491,-294.215 699,-276 696.097,-275.367 693.139,-274.703 690.154,-274.017"/>
<polygon fill="midnightblue" stroke="midnightblue" points="893.332,-315.29 903.846,-313.983 894.811,-308.448 893.332,-315.29"/>
</g>
<!-- Node32 -->
<g id="node23" class="node"><title>Node32</title>
<g id="a_node23"><a xlink:href="_fight_8cpp.html" target="_top" xlink:title="E:/Dropbox/BI_FIT_CVUT\l/2. semestr/PA2/GameBook\l/Fight.cpp">
<polygon fill="none" stroke="black" points="904,-234.5 904,-275.5 1044,-275.5 1044,-234.5 904,-234.5"/>
<text text-anchor="start" x="912" y="-263.5" font-family="Helvetica,sans-Serif" font-size="10.00">E:/Dropbox/BI_FIT_CVUT</text>
<text text-anchor="start" x="912" y="-252.5" font-family="Helvetica,sans-Serif" font-size="10.00">/2. semestr/PA2/GameBook</text>
<text text-anchor="middle" x="974" y="-241.5" font-family="Helvetica,sans-Serif" font-size="10.00">/Fight.cpp</text>
</a>
</g>
</g>
<!-- Node31&#45;&gt;Node32 -->
<g id="edge26" class="edge"><title>Node31&#45;&gt;Node32</title>
<path fill="none" stroke="midnightblue" d="M974,-302.297C974,-293.301 974,-283.653 974,-275.506"/>
<polygon fill="midnightblue" stroke="midnightblue" points="970.5,-302.428 974,-312.428 977.5,-302.428 970.5,-302.428"/>
</g>
<!-- Node33&#45;&gt;Node17 -->
<g id="edge30" class="edge"><title>Node33&#45;&gt;Node17</title>
<path fill="none" stroke="midnightblue" d="M384.024,-311.781C454.664,-294.935 473.983,-292.116 541,-276 543.889,-275.305 546.835,-274.59 549.81,-273.862"/>
<polygon fill="midnightblue" stroke="midnightblue" points="383.099,-308.404 374.19,-314.138 384.73,-315.211 383.099,-308.404"/>
</g>
<!-- Node34 -->
<g id="node25" class="node"><title>Node34</title>
<g id="a_node25"><a xlink:href="_trap_8cpp.html" target="_top" xlink:title="E:/Dropbox/BI_FIT_CVUT\l/2. semestr/PA2/GameBook\l/Trap.cpp">
<polygon fill="none" stroke="black" points="234,-234.5 234,-275.5 374,-275.5 374,-234.5 234,-234.5"/>
<text text-anchor="start" x="242" y="-263.5" font-family="Helvetica,sans-Serif" font-size="10.00">E:/Dropbox/BI_FIT_CVUT</text>
<text text-anchor="start" x="242" y="-252.5" font-family="Helvetica,sans-Serif" font-size="10.00">/2. semestr/PA2/GameBook</text>
<text text-anchor="middle" x="304" y="-241.5" font-family="Helvetica,sans-Serif" font-size="10.00">/Trap.cpp</text>
</a>
</g>
</g>
<!-- Node33&#45;&gt;Node34 -->
<g id="edge31" class="edge"><title>Node33&#45;&gt;Node34</title>
<path fill="none" stroke="midnightblue" d="M304,-302.297C304,-293.301 304,-283.653 304,-275.506"/>
<polygon fill="midnightblue" stroke="midnightblue" points="300.5,-302.428 304,-312.428 307.5,-302.428 300.5,-302.428"/>
</g>
<!-- Node36&#45;&gt;Node13 -->
<g id="edge38" class="edge"><title>Node36&#45;&gt;Node13</title>
<path fill="none" stroke="midnightblue" d="M523.211,-551.921C604.29,-537.691 728.348,-515.916 805.691,-502.341"/>
<polygon fill="midnightblue" stroke="midnightblue" points="522.295,-548.529 513.05,-553.705 523.505,-555.423 522.295,-548.529"/>
</g>
<!-- Node36&#45;&gt;Node17 -->
<g id="edge39" class="edge"><title>Node36&#45;&gt;Node17</title>
<path fill="none" stroke="midnightblue" d="M394.374,-541.579C309.682,-495.991 150.889,-395.033 225,-312 272.062,-259.272 471.474,-288.701 541,-276 543.923,-275.466 546.898,-274.885 549.896,-274.269"/>
<polygon fill="midnightblue" stroke="midnightblue" points="392.849,-544.733 403.321,-546.339 396.136,-538.553 392.849,-544.733"/>
</g>
<!-- Node37 -->
<g id="node28" class="node"><title>Node37</title>
<g id="a_node28"><a xlink:href="_sword_8cpp.html" target="_top" xlink:title="E:/Dropbox/BI_FIT_CVUT\l/2. semestr/PA2/GameBook\l/Sword.cpp">
<polygon fill="none" stroke="black" points="0,-468.5 0,-509.5 140,-509.5 140,-468.5 0,-468.5"/>
<text text-anchor="start" x="8" y="-497.5" font-family="Helvetica,sans-Serif" font-size="10.00">E:/Dropbox/BI_FIT_CVUT</text>
<text text-anchor="start" x="8" y="-486.5" font-family="Helvetica,sans-Serif" font-size="10.00">/2. semestr/PA2/GameBook</text>
<text text-anchor="middle" x="70" y="-475.5" font-family="Helvetica,sans-Serif" font-size="10.00">/Sword.cpp</text>
</a>
</g>
</g>
<!-- Node36&#45;&gt;Node37 -->
<g id="edge40" class="edge"><title>Node36&#45;&gt;Node37</title>
<path fill="none" stroke="midnightblue" d="M362.897,-551.421C304.786,-540.615 224.365,-525.187 154,-510 149.457,-509.02 144.783,-507.983 140.076,-506.919"/>
<polygon fill="midnightblue" stroke="midnightblue" points="362.282,-554.866 372.753,-553.249 363.559,-547.983 362.282,-554.866"/>
</g>
</g>
</svg>
