<?xml version="1.0" encoding="UTF-8" standalone="no"?>
<!DOCTYPE svg PUBLIC "-//W3C//DTD SVG 1.1//EN"
 "http://www.w3.org/Graphics/SVG/1.1/DTD/svg11.dtd">
<!-- Generated by graphviz version 2.38.0 (20140413.2041)
 -->
<!-- Title: E:/Dropbox/BI_FIT_CVUT/2. semestr/PA2/GameBook/Shopping.h Pages: 1 -->
<svg width="1395pt" height="554pt"
 viewBox="0.00 0.00 1395.02 554.00" xmlns="http://www.w3.org/2000/svg" xmlns:xlink="http://www.w3.org/1999/xlink">
<g id="graph0" class="graph" transform="scale(1 1) rotate(0) translate(4 550)">
<title>E:/Dropbox/BI_FIT_CVUT/2. semestr/PA2/GameBook/Shopping.h</title>
<!-- Node0 -->
<g id="node1" class="node"><title>Node0</title>
<polygon fill="#bfbfbf" stroke="black" points="1138.02,-504.5 1138.02,-545.5 1278.02,-545.5 1278.02,-504.5 1138.02,-504.5"/>
<text text-anchor="start" x="1146.02" y="-533.5" font-family="Helvetica,sans-Serif" font-size="10.00">E:/Dropbox/BI_FIT_CVUT</text>
<text text-anchor="start" x="1146.02" y="-522.5" font-family="Helvetica,sans-Serif" font-size="10.00">/2. semestr/PA2/GameBook</text>
<text text-anchor="middle" x="1208.02" y="-511.5" font-family="Helvetica,sans-Serif" font-size="10.00">/Shopping.h</text>
</g>
<!-- Node1 -->
<g id="node2" class="node"><title>Node1</title>
<polygon fill="none" stroke="#bfbfbf" points="1028.02,-56.5 1028.02,-75.5 1080.02,-75.5 1080.02,-56.5 1028.02,-56.5"/>
<text text-anchor="middle" x="1054.02" y="-63.5" font-family="Helvetica,sans-Serif" font-size="10.00">sstream</text>
</g>
<!-- Node0&#45;&gt;Node1 -->
<g id="edge1" class="edge"><title>Node0&#45;&gt;Node1</title>
<path fill="none" stroke="midnightblue" d="M1209.11,-504.369C1210.66,-470.009 1212.37,-396.832 1203.02,-336 1186.27,-226.949 1160.46,-201.559 1096.02,-112 1088.55,-101.613 1078.88,-91.0987 1070.7,-82.8479"/>
<polygon fill="midnightblue" stroke="midnightblue" points="1073.02,-80.2232 1063.44,-75.709 1068.12,-85.2152 1073.02,-80.2232"/>
</g>
<!-- Node2 -->
<g id="node3" class="node"><title>Node2</title>
<polygon fill="none" stroke="#bfbfbf" points="1166.02,-0.5 1166.02,-19.5 1208.02,-19.5 1208.02,-0.5 1166.02,-0.5"/>
<text text-anchor="middle" x="1187.02" y="-7.5" font-family="Helvetica,sans-Serif" font-size="10.00">vector</text>
</g>
<!-- Node0&#45;&gt;Node2 -->
<g id="edge2" class="edge"><title>Node0&#45;&gt;Node2</title>
<path fill="none" stroke="midnightblue" d="M1278.25,-506.687C1328.4,-489.636 1387.02,-457.953 1387.02,-403 1387.02,-403 1387.02,-403 1387.02,-121 1387.02,-44.8684 1274.38,-21.0533 1218.17,-13.9084"/>
<polygon fill="midnightblue" stroke="midnightblue" points="1218.38,-10.4101 1208.05,-12.7251 1217.57,-17.3628 1218.38,-10.4101"/>
</g>
<!-- Node3 -->
<g id="node4" class="node"><title>Node3</title>
<polygon fill="none" stroke="#bfbfbf" points="351.52,-0.5 351.52,-19.5 392.52,-19.5 392.52,-0.5 351.52,-0.5"/>
<text text-anchor="middle" x="372.02" y="-7.5" font-family="Helvetica,sans-Serif" font-size="10.00">string</text>
</g>
<!-- Node0&#45;&gt;Node3 -->
<g id="edge3" class="edge"><title>Node0&#45;&gt;Node3</title>
<path fill="none" stroke="midnightblue" d="M1206.04,-504.296C1197.46,-423.025 1160.58,-115.328 1089.02,-56 1035.61,-11.7197 533.439,-10.4176 402.906,-10.8352"/>
<polygon fill="midnightblue" stroke="midnightblue" points="402.783,-7.33556 392.797,-10.8736 402.81,-14.3355 402.783,-7.33556"/>
</g>
<!-- Node4 -->
<g id="node5" class="node"><title>Node4</title>
<polygon fill="none" stroke="#bfbfbf" points="1253.02,-56.5 1253.02,-75.5 1283.02,-75.5 1283.02,-56.5 1253.02,-56.5"/>
<text text-anchor="middle" x="1268.02" y="-63.5" font-family="Helvetica,sans-Serif" font-size="10.00">set</text>
</g>
<!-- Node0&#45;&gt;Node4 -->
<g id="edge4" class="edge"><title>Node0&#45;&gt;Node4</title>
<path fill="none" stroke="midnightblue" d="M1259.32,-504.403C1299.64,-485.274 1349.02,-451.87 1349.02,-403 1349.02,-403 1349.02,-403 1349.02,-177 1349.02,-136.445 1312.88,-100.989 1288.88,-81.9149"/>
<polygon fill="midnightblue" stroke="midnightblue" points="1290.75,-78.9379 1280.68,-75.6497 1286.5,-84.501 1290.75,-78.9379"/>
</g>
<!-- Node5 -->
<g id="node6" class="node"><title>Node5</title>
<g id="a_node6"><a xlink:href="_hero_8h.html" target="_top" xlink:title="Hero.h">
<polygon fill="none" stroke="black" points="604.52,-280.5 604.52,-299.5 649.52,-299.5 649.52,-280.5 604.52,-280.5"/>
<text text-anchor="middle" x="627.02" y="-287.5" font-family="Helvetica,sans-Serif" font-size="10.00">Hero.h</text>
</a>
</g>
</g>
<!-- Node0&#45;&gt;Node5 -->
<g id="edge5" class="edge"><title>Node0&#45;&gt;Node5</title>
<path fill="none" stroke="midnightblue" d="M1158.99,-504.335C1042.73,-457.712 752.985,-341.516 657.834,-303.357"/>
<polygon fill="midnightblue" stroke="midnightblue" points="659.064,-300.08 648.48,-299.606 656.458,-306.577 659.064,-300.08"/>
</g>
<!-- Node20 -->
<g id="node21" class="node"><title>Node20</title>
<g id="a_node21"><a xlink:href="_world_8h.html" target="_top" xlink:title="World.h">
<polygon fill="none" stroke="black" points="413.02,-448.5 413.02,-467.5 463.02,-467.5 463.02,-448.5 413.02,-448.5"/>
<text text-anchor="middle" x="438.02" y="-455.5" font-family="Helvetica,sans-Serif" font-size="10.00">World.h</text>
</a>
</g>
</g>
<!-- Node0&#45;&gt;Node20 -->
<g id="edge46" class="edge"><title>Node0&#45;&gt;Node20</title>
<path fill="none" stroke="midnightblue" d="M1137.99,-518.088C978.207,-504.6 591.433,-471.95 473.043,-461.956"/>
<polygon fill="midnightblue" stroke="midnightblue" points="473.33,-458.468 463.071,-461.115 472.741,-465.444 473.33,-458.468"/>
</g>
<!-- Node5&#45;&gt;Node3 -->
<g id="edge7" class="edge"><title>Node5&#45;&gt;Node3</title>
<path fill="none" stroke="midnightblue" d="M629.226,-280.198C635.643,-252.402 651.513,-165.191 613.02,-112 562.883,-42.7179 455.903,-20.7039 402.983,-13.9121"/>
<polygon fill="midnightblue" stroke="midnightblue" points="403.193,-10.4126 392.851,-12.7146 402.371,-17.3642 403.193,-10.4126"/>
</g>
<!-- Node6 -->
<g id="node7" class="node"><title>Node6</title>
<polygon fill="none" stroke="#bfbfbf" points="726.02,-56.5 726.02,-75.5 780.02,-75.5 780.02,-56.5 726.02,-56.5"/>
<text text-anchor="middle" x="753.02" y="-63.5" font-family="Helvetica,sans-Serif" font-size="10.00">iostream</text>
</g>
<!-- Node5&#45;&gt;Node6 -->
<g id="edge6" class="edge"><title>Node5&#45;&gt;Node6</title>
<path fill="none" stroke="midnightblue" d="M649.921,-285.657C673.938,-280.862 710.804,-269.592 730.02,-244 765.627,-196.58 760.852,-121.148 756.171,-86.0821"/>
<polygon fill="midnightblue" stroke="midnightblue" points="759.58,-85.212 754.646,-75.8364 752.657,-86.2428 759.58,-85.212"/>
</g>
<!-- Node7 -->
<g id="node8" class="node"><title>Node7</title>
<polygon fill="none" stroke="#bfbfbf" points="655.02,-224.5 655.02,-243.5 705.02,-243.5 705.02,-224.5 655.02,-224.5"/>
<text text-anchor="middle" x="680.02" y="-231.5" font-family="Helvetica,sans-Serif" font-size="10.00">typeinfo</text>
</g>
<!-- Node5&#45;&gt;Node7 -->
<g id="edge8" class="edge"><title>Node5&#45;&gt;Node7</title>
<path fill="none" stroke="midnightblue" d="M635.772,-280.083C643.49,-272.22 654.925,-260.569 664.237,-251.081"/>
<polygon fill="midnightblue" stroke="midnightblue" points="666.925,-253.34 671.431,-243.751 661.929,-248.436 666.925,-253.34"/>
</g>
<!-- Node8 -->
<g id="node9" class="node"><title>Node8</title>
<g id="a_node9"><a xlink:href="_creature_8h.html" target="_top" xlink:title="Creature.h">
<polygon fill="none" stroke="black" points="338.02,-168.5 338.02,-187.5 400.02,-187.5 400.02,-168.5 338.02,-168.5"/>
<text text-anchor="middle" x="369.02" y="-175.5" font-family="Helvetica,sans-Serif" font-size="10.00">Creature.h</text>
</a>
</g>
</g>
<!-- Node5&#45;&gt;Node8 -->
<g id="edge9" class="edge"><title>Node5&#45;&gt;Node8</title>
<path fill="none" stroke="midnightblue" d="M605.983,-280.417C585.499,-271.855 553.647,-257.993 527.02,-244 511.839,-236.022 509.499,-231.386 494.02,-224 465.812,-210.54 432.442,-198.721 407.279,-190.577"/>
<polygon fill="midnightblue" stroke="midnightblue" points="408.314,-187.233 397.723,-187.533 406.189,-193.903 408.314,-187.233"/>
</g>
<!-- Node9 -->
<g id="node10" class="node"><title>Node9</title>
<g id="a_node10"><a xlink:href="_display_8h.html" target="_top" xlink:title="Display.h">
<polygon fill="none" stroke="black" points="419.52,-112.5 419.52,-131.5 476.52,-131.5 476.52,-112.5 419.52,-112.5"/>
<text text-anchor="middle" x="448.02" y="-119.5" font-family="Helvetica,sans-Serif" font-size="10.00">Display.h</text>
</a>
</g>
</g>
<!-- Node5&#45;&gt;Node9 -->
<g id="edge26" class="edge"><title>Node5&#45;&gt;Node9</title>
<path fill="none" stroke="midnightblue" d="M617.513,-280.165C604.051,-267.658 578.663,-244.075 557.02,-224 524.46,-193.797 486.401,-158.543 464.962,-138.688"/>
<polygon fill="midnightblue" stroke="midnightblue" points="467.07,-135.87 457.355,-131.643 462.314,-141.006 467.07,-135.87"/>
</g>
<!-- Node11 -->
<g id="node12" class="node"><title>Node11</title>
<g id="a_node12"><a xlink:href="_errors_list_8h.html" target="_top" xlink:title="ErrorsList.h">
<polygon fill="none" stroke="black" points="798.52,-56.5 798.52,-75.5 865.52,-75.5 865.52,-56.5 798.52,-56.5"/>
<text text-anchor="middle" x="832.02" y="-63.5" font-family="Helvetica,sans-Serif" font-size="10.00">ErrorsList.h</text>
</a>
</g>
</g>
<!-- Node5&#45;&gt;Node11 -->
<g id="edge25" class="edge"><title>Node5&#45;&gt;Node11</title>
<path fill="none" stroke="midnightblue" d="M649.707,-286.038C676.668,-281.43 721.575,-270.174 750.02,-244 798.144,-199.718 820.324,-121.532 828.318,-85.7849"/>
<polygon fill="midnightblue" stroke="midnightblue" points="831.792,-86.2736 830.43,-75.7667 824.942,-84.8297 831.792,-86.2736"/>
</g>
<!-- Node13 -->
<g id="node14" class="node"><title>Node13</title>
<g id="a_node14"><a xlink:href="_inventory_8h.html" target="_top" xlink:title="Inventory.h">
<polygon fill="none" stroke="black" points="1181.52,-112.5 1181.52,-131.5 1244.52,-131.5 1244.52,-112.5 1181.52,-112.5"/>
<text text-anchor="middle" x="1213.02" y="-119.5" font-family="Helvetica,sans-Serif" font-size="10.00">Inventory.h</text>
</a>
</g>
</g>
<!-- Node5&#45;&gt;Node13 -->
<g id="edge21" class="edge"><title>Node5&#45;&gt;Node13</title>
<path fill="none" stroke="midnightblue" d="M649.75,-285.69C691.708,-279.342 783.985,-264.268 860.02,-244 981.285,-211.675 1121.15,-158.987 1182.04,-135.262"/>
<polygon fill="midnightblue" stroke="midnightblue" points="1183.42,-138.481 1191.45,-131.577 1180.86,-131.962 1183.42,-138.481"/>
</g>
<!-- Node14 -->
<g id="node15" class="node"><title>Node14</title>
<g id="a_node15"><a xlink:href="_armour_8h.html" target="_top" xlink:title="Armour.h">
<polygon fill="none" stroke="black" points="429.02,-224.5 429.02,-243.5 485.02,-243.5 485.02,-224.5 429.02,-224.5"/>
<text text-anchor="middle" x="457.02" y="-231.5" font-family="Helvetica,sans-Serif" font-size="10.00">Armour.h</text>
</a>
</g>
</g>
<!-- Node5&#45;&gt;Node14 -->
<g id="edge27" class="edge"><title>Node5&#45;&gt;Node14</title>
<path fill="none" stroke="midnightblue" d="M604.446,-281.829C576.207,-272.859 527.481,-257.382 493.82,-246.689"/>
<polygon fill="midnightblue" stroke="midnightblue" points="494.487,-243.229 483.897,-243.537 492.368,-249.9 494.487,-243.229"/>
</g>
<!-- Node15 -->
<g id="node16" class="node"><title>Node15</title>
<g id="a_node16"><a xlink:href="_item_8h.html" target="_top" xlink:title="Item.h">
<polygon fill="none" stroke="black" points="430.02,-168.5 430.02,-187.5 474.02,-187.5 474.02,-168.5 430.02,-168.5"/>
<text text-anchor="middle" x="452.02" y="-175.5" font-family="Helvetica,sans-Serif" font-size="10.00">Item.h</text>
</a>
</g>
</g>
<!-- Node5&#45;&gt;Node15 -->
<g id="edge37" class="edge"><title>Node5&#45;&gt;Node15</title>
<path fill="none" stroke="midnightblue" d="M614.171,-280.436C595.227,-267.86 558.63,-243.747 527.02,-224 510.012,-213.375 490.591,-201.736 475.774,-192.957"/>
<polygon fill="midnightblue" stroke="midnightblue" points="477.164,-189.713 466.774,-187.64 473.604,-195.74 477.164,-189.713"/>
</g>
<!-- Node16 -->
<g id="node17" class="node"><title>Node16</title>
<g id="a_node17"><a xlink:href="_equipment_8h.html" target="_top" xlink:title="Equipment.h">
<polygon fill="none" stroke="black" points="533.52,-112.5 533.52,-131.5 604.52,-131.5 604.52,-112.5 533.52,-112.5"/>
<text text-anchor="middle" x="569.02" y="-119.5" font-family="Helvetica,sans-Serif" font-size="10.00">Equipment.h</text>
</a>
</g>
</g>
<!-- Node5&#45;&gt;Node16 -->
<g id="edge38" class="edge"><title>Node5&#45;&gt;Node16</title>
<path fill="none" stroke="midnightblue" d="M649.624,-283.169C680.335,-273.997 729.728,-254.084 714.02,-224 690.723,-179.38 637.727,-150.467 602.671,-135.457"/>
<polygon fill="midnightblue" stroke="midnightblue" points="603.878,-132.168 593.299,-131.59 601.208,-138.639 603.878,-132.168"/>
</g>
<!-- Node17 -->
<g id="node18" class="node"><title>Node17</title>
<g id="a_node18"><a xlink:href="_hero_stats_8h.html" target="_top" xlink:title="HeroStats.h">
<polygon fill="none" stroke="black" points="257.02,-112.5 257.02,-131.5 325.02,-131.5 325.02,-112.5 257.02,-112.5"/>
<text text-anchor="middle" x="291.02" y="-119.5" font-family="Helvetica,sans-Serif" font-size="10.00">HeroStats.h</text>
</a>
</g>
</g>
<!-- Node5&#45;&gt;Node17 -->
<g id="edge39" class="edge"><title>Node5&#45;&gt;Node17</title>
<path fill="none" stroke="midnightblue" d="M604.485,-287.969C545.87,-284.883 390.397,-274.004 350.02,-244 316.208,-218.873 300.76,-169.143 294.579,-141.913"/>
<polygon fill="midnightblue" stroke="midnightblue" points="297.931,-140.838 292.471,-131.758 291.077,-142.261 297.931,-140.838"/>
</g>
<!-- Node18 -->
<g id="node19" class="node"><title>Node18</title>
<g id="a_node19"><a xlink:href="_sword_8h.html" target="_top" xlink:title="Sword.h">
<polygon fill="none" stroke="black" points="359.02,-224.5 359.02,-243.5 411.02,-243.5 411.02,-224.5 359.02,-224.5"/>
<text text-anchor="middle" x="385.02" y="-231.5" font-family="Helvetica,sans-Serif" font-size="10.00">Sword.h</text>
</a>
</g>
</g>
<!-- Node5&#45;&gt;Node18 -->
<g id="edge35" class="edge"><title>Node5&#45;&gt;Node18</title>
<path fill="none" stroke="midnightblue" d="M604.291,-284.351C567.759,-276.816 493.502,-261.243 421.104,-244.193"/>
<polygon fill="midnightblue" stroke="midnightblue" points="421.905,-240.786 411.367,-241.888 420.292,-247.598 421.905,-240.786"/>
</g>
<!-- Node19 -->
<g id="node20" class="node"><title>Node19</title>
<g id="a_node20"><a xlink:href="_stream_decoder_8h.html" target="_top" xlink:title="StreamDecoder.h">
<polygon fill="none" stroke="black" points="995.02,-112.5 995.02,-131.5 1087.02,-131.5 1087.02,-112.5 995.02,-112.5"/>
<text text-anchor="middle" x="1041.02" y="-119.5" font-family="Helvetica,sans-Serif" font-size="10.00">StreamDecoder.h</text>
</a>
</g>
</g>
<!-- Node5&#45;&gt;Node19 -->
<g id="edge40" class="edge"><title>Node5&#45;&gt;Node19</title>
<path fill="none" stroke="midnightblue" d="M649.669,-285.917C686.803,-280.4 762.551,-267.19 823.02,-244 899.401,-214.709 981.813,-162.723 1019.73,-137.513"/>
<polygon fill="midnightblue" stroke="midnightblue" points="1022.02,-140.188 1028.38,-131.71 1018.12,-134.375 1022.02,-140.188"/>
</g>
<!-- Node8&#45;&gt;Node3 -->
<g id="edge10" class="edge"><title>Node8&#45;&gt;Node3</title>
<path fill="none" stroke="midnightblue" d="M369.182,-168.075C369.654,-141.945 371.041,-65.2106 371.685,-29.577"/>
<polygon fill="midnightblue" stroke="midnightblue" points="375.184,-29.6298 371.866,-19.5681 368.185,-29.5032 375.184,-29.6298"/>
</g>
<!-- Node8&#45;&gt;Node9 -->
<g id="edge11" class="edge"><title>Node8&#45;&gt;Node9</title>
<path fill="none" stroke="midnightblue" d="M381.713,-168.324C393.922,-159.979 412.599,-147.212 427.023,-137.352"/>
<polygon fill="midnightblue" stroke="midnightblue" points="429.079,-140.187 435.359,-131.655 425.128,-134.408 429.079,-140.187"/>
</g>
<!-- Node9&#45;&gt;Node2 -->
<g id="edge12" class="edge"><title>Node9&#45;&gt;Node2</title>
<path fill="none" stroke="midnightblue" d="M476.801,-112.62C525.722,-98.6989 628.414,-70.87 717.02,-56 880.753,-28.5221 1079.6,-16.3559 1155.51,-12.4728"/>
<polygon fill="midnightblue" stroke="midnightblue" points="1155.99,-15.9535 1165.8,-11.9592 1155.64,-8.96219 1155.99,-15.9535"/>
</g>
<!-- Node9&#45;&gt;Node3 -->
<g id="edge13" class="edge"><title>Node9&#45;&gt;Node3</title>
<path fill="none" stroke="midnightblue" d="M442.583,-112.499C434.546,-99.9994 418.944,-75.9821 405.02,-56 398.431,-46.5437 390.839,-36.158 384.6,-27.749"/>
<polygon fill="midnightblue" stroke="midnightblue" points="387.257,-25.4584 378.471,-19.5376 381.648,-29.6452 387.257,-25.4584"/>
</g>
<!-- Node9&#45;&gt;Node6 -->
<g id="edge14" class="edge"><title>Node9&#45;&gt;Node6</title>
<path fill="none" stroke="midnightblue" d="M476.673,-114.852C481.458,-113.869 486.375,-112.885 491.02,-112 570.806,-96.8037 664.708,-81.235 715.615,-72.987"/>
<polygon fill="midnightblue" stroke="midnightblue" points="716.492,-76.3909 725.805,-71.3409 715.375,-69.4805 716.492,-76.3909"/>
</g>
<!-- Node10 -->
<g id="node11" class="node"><title>Node10</title>
<g id="a_node11"><a xlink:href="_actions_list_8h.html" target="_top" xlink:title="ActionsList.h">
<polygon fill="none" stroke="black" points="130.02,-0.5 130.02,-19.5 204.02,-19.5 204.02,-0.5 130.02,-0.5"/>
<text text-anchor="middle" x="167.02" y="-7.5" font-family="Helvetica,sans-Serif" font-size="10.00">ActionsList.h</text>
</a>
</g>
</g>
<!-- Node9&#45;&gt;Node10 -->
<g id="edge15" class="edge"><title>Node9&#45;&gt;Node10</title>
<path fill="none" stroke="midnightblue" d="M419.365,-119.098C361.325,-114.733 232.463,-102.289 198.02,-76 183.29,-64.7568 175.225,-44.7436 171.045,-29.8847"/>
<polygon fill="midnightblue" stroke="midnightblue" points="174.342,-28.635 168.56,-19.7573 167.544,-30.3033 174.342,-28.635"/>
</g>
<!-- Node9&#45;&gt;Node11 -->
<g id="edge16" class="edge"><title>Node9&#45;&gt;Node11</title>
<path fill="none" stroke="midnightblue" d="M476.561,-117.514C544.029,-109.232 712.735,-88.2568 788.248,-75.9865"/>
<polygon fill="midnightblue" stroke="midnightblue" points="788.977,-79.4133 798.265,-74.3151 787.825,-72.5088 788.977,-79.4133"/>
</g>
<!-- Node12 -->
<g id="node13" class="node"><title>Node12</title>
<g id="a_node13"><a xlink:href="_game_menus_8h.html" target="_top" xlink:title="GameMenus.h">
<polygon fill="none" stroke="black" points="207.02,-56.5 207.02,-75.5 287.02,-75.5 287.02,-56.5 207.02,-56.5"/>
<text text-anchor="middle" x="247.02" y="-63.5" font-family="Helvetica,sans-Serif" font-size="10.00">GameMenus.h</text>
</a>
</g>
</g>
<!-- Node9&#45;&gt;Node12 -->
<g id="edge17" class="edge"><title>Node9&#45;&gt;Node12</title>
<path fill="none" stroke="midnightblue" d="M419.222,-113.263C385.043,-104.081 327.778,-88.6961 288.747,-78.2102"/>
<polygon fill="midnightblue" stroke="midnightblue" points="289.316,-74.7388 278.75,-75.5243 287.499,-81.4991 289.316,-74.7388"/>
</g>
<!-- Node12&#45;&gt;Node2 -->
<g id="edge19" class="edge"><title>Node12&#45;&gt;Node2</title>
<path fill="none" stroke="midnightblue" d="M287.11,-62.697C444.044,-53.6816 1014.93,-20.8863 1155.55,-12.8076"/>
<polygon fill="midnightblue" stroke="midnightblue" points="1155.87,-16.2953 1165.65,-12.2274 1155.47,-9.30679 1155.87,-16.2953"/>
</g>
<!-- Node12&#45;&gt;Node3 -->
<g id="edge18" class="edge"><title>Node12&#45;&gt;Node3</title>
<path fill="none" stroke="midnightblue" d="M266.827,-56.4435C287.307,-47.5961 319.503,-33.6875 342.885,-23.5865"/>
<polygon fill="midnightblue" stroke="midnightblue" points="344.514,-26.6953 352.306,-19.5164 341.738,-20.2692 344.514,-26.6953"/>
</g>
<!-- Node12&#45;&gt;Node10 -->
<g id="edge20" class="edge"><title>Node12&#45;&gt;Node10</title>
<path fill="none" stroke="midnightblue" d="M234.167,-56.324C221.804,-47.979 202.89,-35.2122 188.283,-25.3524"/>
<polygon fill="midnightblue" stroke="midnightblue" points="190.089,-22.3483 179.842,-19.6545 186.172,-28.1503 190.089,-22.3483"/>
</g>
<!-- Node13&#45;&gt;Node2 -->
<g id="edge23" class="edge"><title>Node13&#45;&gt;Node2</title>
<path fill="none" stroke="midnightblue" d="M1211.72,-112.097C1209.81,-99.5091 1205.92,-75.8306 1201.02,-56 1198.81,-47.0527 1195.84,-37.2669 1193.2,-29.1128"/>
<polygon fill="midnightblue" stroke="midnightblue" points="1196.49,-27.9251 1190.01,-19.5411 1189.85,-30.1347 1196.49,-27.9251"/>
</g>
<!-- Node13&#45;&gt;Node3 -->
<g id="edge24" class="edge"><title>Node13&#45;&gt;Node3</title>
<path fill="none" stroke="midnightblue" d="M1204.8,-112.255C1190.31,-97.5229 1158.59,-68.175 1125.02,-56 1056.39,-31.108 536.032,-15.4384 402.944,-11.8104"/>
<polygon fill="midnightblue" stroke="midnightblue" points="402.747,-8.30393 392.656,-11.533 402.558,-15.3014 402.747,-8.30393"/>
</g>
<!-- Node13&#45;&gt;Node4 -->
<g id="edge22" class="edge"><title>Node13&#45;&gt;Node4</title>
<path fill="none" stroke="midnightblue" d="M1222.1,-112.083C1230.19,-104.141 1242.22,-92.3354 1251.93,-82.7973"/>
<polygon fill="midnightblue" stroke="midnightblue" points="1254.42,-85.2545 1259.11,-75.7511 1249.52,-80.2595 1254.42,-85.2545"/>
</g>
<!-- Node14&#45;&gt;Node15 -->
<g id="edge28" class="edge"><title>Node14&#45;&gt;Node15</title>
<path fill="none" stroke="midnightblue" d="M456.195,-224.083C455.539,-217.006 454.6,-206.861 453.778,-197.986"/>
<polygon fill="midnightblue" stroke="midnightblue" points="457.238,-197.386 452.831,-187.751 450.268,-198.031 457.238,-197.386"/>
</g>
<!-- Node15&#45;&gt;Node3 -->
<g id="edge30" class="edge"><title>Node15&#45;&gt;Node3</title>
<path fill="none" stroke="midnightblue" d="M441.643,-168.359C432.174,-159.963 418.414,-146.404 410.02,-132 390.601,-98.6749 379.966,-54.3017 375.185,-29.6035"/>
<polygon fill="midnightblue" stroke="midnightblue" points="378.626,-28.9614 373.39,-19.7506 371.739,-30.216 378.626,-28.9614"/>
</g>
<!-- Node15&#45;&gt;Node6 -->
<g id="edge29" class="edge"><title>Node15&#45;&gt;Node6</title>
<path fill="none" stroke="midnightblue" d="M458.944,-168.223C470.695,-153.982 496.012,-126.023 524.02,-112 540.973,-103.512 655.552,-83.3803 715.938,-73.1687"/>
<polygon fill="midnightblue" stroke="midnightblue" points="716.564,-76.6126 725.844,-71.5003 715.402,-69.7098 716.564,-76.6126"/>
</g>
<!-- Node15&#45;&gt;Node9 -->
<g id="edge31" class="edge"><title>Node15&#45;&gt;Node9</title>
<path fill="none" stroke="midnightblue" d="M451.36,-168.083C450.836,-161.006 450.084,-150.861 449.427,-141.986"/>
<polygon fill="midnightblue" stroke="midnightblue" points="452.898,-141.465 448.669,-131.751 445.917,-141.982 452.898,-141.465"/>
</g>
<!-- Node15&#45;&gt;Node16 -->
<g id="edge32" class="edge"><title>Node15&#45;&gt;Node16</title>
<path fill="none" stroke="midnightblue" d="M470.559,-168.444C489.643,-159.636 519.595,-145.812 541.456,-135.722"/>
<polygon fill="midnightblue" stroke="midnightblue" points="542.955,-138.885 550.568,-131.516 540.022,-132.529 542.955,-138.885"/>
</g>
<!-- Node15&#45;&gt;Node17 -->
<g id="edge33" class="edge"><title>Node15&#45;&gt;Node17</title>
<path fill="none" stroke="midnightblue" d="M429.972,-169.605C403.239,-160.639 357.848,-145.414 326.249,-134.816"/>
<polygon fill="midnightblue" stroke="midnightblue" points="327.109,-131.413 316.515,-131.551 324.883,-138.049 327.109,-131.413"/>
</g>
<!-- Node17&#45;&gt;Node3 -->
<g id="edge34" class="edge"><title>Node17&#45;&gt;Node3</title>
<path fill="none" stroke="midnightblue" d="M297.376,-112.368C310.803,-94.135 342.252,-51.4257 359.741,-27.6752"/>
<polygon fill="midnightblue" stroke="midnightblue" points="362.583,-29.7192 365.694,-19.5914 356.946,-25.5685 362.583,-29.7192"/>
</g>
<!-- Node18&#45;&gt;Node15 -->
<g id="edge36" class="edge"><title>Node18&#45;&gt;Node15</title>
<path fill="none" stroke="midnightblue" d="M395.785,-224.324C405.786,-216.263 420.907,-204.077 432.951,-194.369"/>
<polygon fill="midnightblue" stroke="midnightblue" points="435.47,-196.834 441.06,-187.834 431.077,-191.384 435.47,-196.834"/>
</g>
<!-- Node19&#45;&gt;Node1 -->
<g id="edge42" class="edge"><title>Node19&#45;&gt;Node1</title>
<path fill="none" stroke="midnightblue" d="M1043.17,-112.083C1044.89,-104.927 1047.37,-94.6353 1049.52,-85.6911"/>
<polygon fill="midnightblue" stroke="midnightblue" points="1052.98,-86.2925 1051.91,-75.7511 1046.17,-84.6541 1052.98,-86.2925"/>
</g>
<!-- Node19&#45;&gt;Node2 -->
<g id="edge43" class="edge"><title>Node19&#45;&gt;Node2</title>
<path fill="none" stroke="midnightblue" d="M1052.48,-112.368C1077.32,-93.6531 1136.38,-49.1509 1167.33,-25.8324"/>
<polygon fill="midnightblue" stroke="midnightblue" points="1169.74,-28.4044 1175.62,-19.5914 1165.52,-22.8135 1169.74,-28.4044"/>
</g>
<!-- Node19&#45;&gt;Node3 -->
<g id="edge41" class="edge"><title>Node19&#45;&gt;Node3</title>
<path fill="none" stroke="midnightblue" d="M1035.95,-112.332C1026.87,-97.7153 1006.27,-68.5372 980.02,-56 927.684,-31.0081 519.284,-15.8246 402.887,-11.9739"/>
<polygon fill="midnightblue" stroke="midnightblue" points="402.665,-8.46491 392.556,-11.6367 402.437,-15.4612 402.665,-8.46491"/>
</g>
<!-- Node19&#45;&gt;Node4 -->
<g id="edge44" class="edge"><title>Node19&#45;&gt;Node4</title>
<path fill="none" stroke="midnightblue" d="M1076.99,-112.444C1123.35,-101.414 1202.78,-82.5204 1243.04,-72.9417"/>
<polygon fill="midnightblue" stroke="midnightblue" points="1243.93,-76.3285 1252.85,-70.6092 1242.31,-69.5186 1243.93,-76.3285"/>
</g>
<!-- Node19&#45;&gt;Node11 -->
<g id="edge45" class="edge"><title>Node19&#45;&gt;Node11</title>
<path fill="none" stroke="midnightblue" d="M1007.9,-112.444C971.903,-103.142 914.25,-88.246 874.835,-78.062"/>
<polygon fill="midnightblue" stroke="midnightblue" points="875.54,-74.6294 864.982,-75.5164 873.789,-81.4068 875.54,-74.6294"/>
</g>
<!-- Node20&#45;&gt;Node2 -->
<g id="edge49" class="edge"><title>Node20&#45;&gt;Node2</title>
<path fill="none" stroke="midnightblue" d="M463.292,-456.26C572.114,-452.922 997.65,-438.283 1051.02,-412 1215.89,-330.807 1259.23,-256.826 1292.02,-76 1293.61,-67.2537 1296.91,-63.4208 1292.02,-56 1275.78,-31.3712 1242.96,-20.1706 1218.31,-15.1085"/>
<polygon fill="midnightblue" stroke="midnightblue" points="1218.79,-11.6374 1208.32,-13.2936 1217.54,-18.5247 1218.79,-11.6374"/>
</g>
<!-- Node20&#45;&gt;Node3 -->
<g id="edge48" class="edge"><title>Node20&#45;&gt;Node3</title>
<path fill="none" stroke="midnightblue" d="M412.808,-455.9C327.046,-451.941 50.2462,-437.295 20.0204,-412 -3.0611,-392.684 1.02037,-377.098 1.02037,-347 1.02037,-347 1.02037,-347 1.02037,-121 1.02037,-78.8691 32.1156,-74.3914 70.0204,-56 117.456,-32.9841 273.523,-18.5658 340.754,-13.2808"/>
<polygon fill="midnightblue" stroke="midnightblue" points="341.421,-16.74 351.123,-12.4832 340.884,-9.76063 341.421,-16.74"/>
</g>
<!-- Node20&#45;&gt;Node4 -->
<g id="edge51" class="edge"><title>Node20&#45;&gt;Node4</title>
<path fill="none" stroke="midnightblue" d="M463.314,-456.232C569.325,-452.858 974.7,-438.323 1025.02,-412 1060.57,-393.403 1235.39,-168.037 1253.02,-132 1260.18,-117.371 1264,-99.2006 1265.99,-85.7934"/>
<polygon fill="midnightblue" stroke="midnightblue" points="1269.47,-86.1972 1267.26,-75.834 1262.52,-85.3092 1269.47,-86.1972"/>
</g>
<!-- Node20&#45;&gt;Node6 -->
<g id="edge47" class="edge"><title>Node20&#45;&gt;Node6</title>
<path fill="none" stroke="midnightblue" d="M463.248,-456.286C559.363,-453.358 899.123,-441.02 937.02,-412 961.47,-393.277 961.02,-377.795 961.02,-347 961.02,-347 961.02,-347 961.02,-289 961.02,-184.652 837.133,-109.141 780.581,-80.1078"/>
<polygon fill="midnightblue" stroke="midnightblue" points="781.986,-76.8972 771.479,-75.539 778.846,-83.1533 781.986,-76.8972"/>
</g>
<!-- Node20&#45;&gt;Node11 -->
<g id="edge59" class="edge"><title>Node20&#45;&gt;Node11</title>
<path fill="none" stroke="midnightblue" d="M463.075,-456.738C562.389,-455.037 923.02,-442.298 923.02,-347 923.02,-347 923.02,-347 923.02,-289 923.02,-207.173 869.435,-120.204 844.504,-84.1681"/>
<polygon fill="midnightblue" stroke="midnightblue" points="847.196,-81.9129 838.565,-75.7677 841.48,-85.9537 847.196,-81.9129"/>
</g>
<!-- Node20&#45;&gt;Node14 -->
<g id="edge60" class="edge"><title>Node20&#45;&gt;Node14</title>
<path fill="none" stroke="midnightblue" d="M438.765,-448.297C441.561,-415.633 451.469,-299.866 455.398,-253.957"/>
<polygon fill="midnightblue" stroke="midnightblue" points="458.894,-254.146 456.26,-243.884 451.92,-253.549 458.894,-254.146"/>
</g>
<!-- Node20&#45;&gt;Node18 -->
<g id="edge61" class="edge"><title>Node20&#45;&gt;Node18</title>
<path fill="none" stroke="midnightblue" d="M435.943,-448.297C428.128,-415.563 400.389,-299.375 389.477,-253.666"/>
<polygon fill="midnightblue" stroke="midnightblue" points="392.868,-252.798 387.141,-243.884 386.059,-254.423 392.868,-252.798"/>
</g>
<!-- Node20&#45;&gt;Node19 -->
<g id="edge58" class="edge"><title>Node20&#45;&gt;Node19</title>
<path fill="none" stroke="midnightblue" d="M463.29,-456.32C566.417,-453.363 952.125,-440.473 998.02,-412 1026.65,-394.239 1037.02,-380.69 1037.02,-347 1037.02,-347 1037.02,-347 1037.02,-233 1037.02,-200.927 1038.74,-163.628 1039.92,-141.741"/>
<polygon fill="midnightblue" stroke="midnightblue" points="1043.43,-141.735 1040.5,-131.554 1036.44,-141.341 1043.43,-141.735"/>
</g>
<!-- Node21 -->
<g id="node22" class="node"><title>Node21</title>
<polygon fill="none" stroke="#bfbfbf" points="115.52,-280.5 115.52,-299.5 150.52,-299.5 150.52,-280.5 115.52,-280.5"/>
<text text-anchor="middle" x="133.02" y="-287.5" font-family="Helvetica,sans-Serif" font-size="10.00">map</text>
</g>
<!-- Node20&#45;&gt;Node21 -->
<g id="edge50" class="edge"><title>Node20&#45;&gt;Node21</title>
<path fill="none" stroke="midnightblue" d="M412.761,-456.418C351.296,-454.472 196.31,-446.207 160.02,-412 131.915,-385.508 129.945,-336.703 131.28,-309.883"/>
<polygon fill="midnightblue" stroke="midnightblue" points="134.795,-309.788 132.016,-299.564 127.813,-309.29 134.795,-309.788"/>
</g>
<!-- Node22 -->
<g id="node23" class="node"><title>Node22</title>
<g id="a_node23"><a xlink:href="_i_ohandle_8h.html" target="_top" xlink:title="IOhandle.h">
<polygon fill="none" stroke="black" points="913.52,-112.5 913.52,-131.5 976.52,-131.5 976.52,-112.5 913.52,-112.5"/>
<text text-anchor="middle" x="945.02" y="-119.5" font-family="Helvetica,sans-Serif" font-size="10.00">IOhandle.h</text>
</a>
</g>
</g>
<!-- Node20&#45;&gt;Node22 -->
<g id="edge52" class="edge"><title>Node20&#45;&gt;Node22</title>
<path fill="none" stroke="midnightblue" d="M463.082,-456.462C563.57,-454.094 933.882,-443.296 975.02,-412 999.529,-393.355 999.02,-377.795 999.02,-347 999.02,-347 999.02,-347 999.02,-289 999.02,-232.612 970.495,-170.501 954.909,-140.773"/>
<polygon fill="midnightblue" stroke="midnightblue" points="957.829,-138.814 950.004,-131.671 951.667,-142.134 957.829,-138.814"/>
</g>
<!-- Node24 -->
<g id="node25" class="node"><title>Node24</title>
<g id="a_node25"><a xlink:href="_event_8h.html" target="_top" xlink:title="Event.h">
<polygon fill="none" stroke="black" points="215.52,-336.5 215.52,-355.5 264.52,-355.5 264.52,-336.5 215.52,-336.5"/>
<text text-anchor="middle" x="240.02" y="-343.5" font-family="Helvetica,sans-Serif" font-size="10.00">Event.h</text>
</a>
</g>
</g>
<!-- Node20&#45;&gt;Node24 -->
<g id="edge62" class="edge"><title>Node20&#45;&gt;Node24</title>
<path fill="none" stroke="midnightblue" d="M414.68,-448.424C393.184,-440.173 360.683,-426.798 334.02,-412 306.737,-396.858 277.501,-375.79 259.007,-361.791"/>
<polygon fill="midnightblue" stroke="midnightblue" points="260.915,-358.844 250.847,-355.544 256.66,-364.402 260.915,-358.844"/>
</g>
<!-- Node25 -->
<g id="node26" class="node"><title>Node25</title>
<g id="a_node26"><a xlink:href="_choice_8h.html" target="_top" xlink:title="Choice.h">
<polygon fill="none" stroke="black" points="169.52,-392.5 169.52,-411.5 224.52,-411.5 224.52,-392.5 169.52,-392.5"/>
<text text-anchor="middle" x="197.02" y="-399.5" font-family="Helvetica,sans-Serif" font-size="10.00">Choice.h</text>
</a>
</g>
</g>
<!-- Node20&#45;&gt;Node25 -->
<g id="edge67" class="edge"><title>Node20&#45;&gt;Node25</title>
<path fill="none" stroke="midnightblue" d="M412.857,-451.631C376.035,-443.736 305.073,-428.373 234.794,-412.141"/>
<polygon fill="midnightblue" stroke="midnightblue" points="235.417,-408.693 224.885,-409.846 233.838,-415.512 235.417,-408.693"/>
</g>
<!-- Node26 -->
<g id="node27" class="node"><title>Node26</title>
<g id="a_node27"><a xlink:href="_dialogue_n_c_p_8h.html" target="_top" xlink:title="DialogueNCP.h">
<polygon fill="none" stroke="black" points="29.5204,-392.5 29.5204,-411.5 112.52,-411.5 112.52,-392.5 29.5204,-392.5"/>
<text text-anchor="middle" x="71.0204" y="-399.5" font-family="Helvetica,sans-Serif" font-size="10.00">DialogueNCP.h</text>
</a>
</g>
</g>
<!-- Node20&#45;&gt;Node26 -->
<g id="edge71" class="edge"><title>Node20&#45;&gt;Node26</title>
<path fill="none" stroke="midnightblue" d="M413.007,-453.516C360.159,-446.126 233.263,-428.223 127.02,-412 125.56,-411.777 124.079,-411.549 122.584,-411.318"/>
<polygon fill="midnightblue" stroke="midnightblue" points="123.02,-407.844 112.599,-409.756 121.938,-414.76 123.02,-407.844"/>
</g>
<!-- Node27 -->
<g id="node28" class="node"><title>Node27</title>
<g id="a_node28"><a xlink:href="_fight_8h.html" target="_top" xlink:title="Fight.h">
<polygon fill="none" stroke="black" points="343.52,-392.5 343.52,-411.5 390.52,-411.5 390.52,-392.5 343.52,-392.5"/>
<text text-anchor="middle" x="367.02" y="-399.5" font-family="Helvetica,sans-Serif" font-size="10.00">Fight.h</text>
</a>
</g>
</g>
<!-- Node20&#45;&gt;Node27 -->
<g id="edge74" class="edge"><title>Node20&#45;&gt;Node27</title>
<path fill="none" stroke="midnightblue" d="M426.613,-448.324C415.912,-440.185 399.68,-427.839 386.858,-418.087"/>
<polygon fill="midnightblue" stroke="midnightblue" points="388.714,-415.102 378.635,-411.834 384.476,-420.673 388.714,-415.102"/>
</g>
<!-- Node28 -->
<g id="node29" class="node"><title>Node28</title>
<g id="a_node29"><a xlink:href="_trap_8h.html" target="_top" xlink:title="Trap.h">
<polygon fill="none" stroke="black" points="243.02,-392.5 243.02,-411.5 287.02,-411.5 287.02,-392.5 243.02,-392.5"/>
<text text-anchor="middle" x="265.02" y="-399.5" font-family="Helvetica,sans-Serif" font-size="10.00">Trap.h</text>
</a>
</g>
</g>
<!-- Node20&#45;&gt;Node28 -->
<g id="edge78" class="edge"><title>Node20&#45;&gt;Node28</title>
<path fill="none" stroke="midnightblue" d="M412.865,-449.148C382.206,-439.578 330.364,-423.396 296.928,-412.96"/>
<polygon fill="midnightblue" stroke="midnightblue" points="297.774,-409.557 287.186,-409.919 295.689,-416.239 297.774,-409.557"/>
</g>
<!-- Node22&#45;&gt;Node1 -->
<g id="edge54" class="edge"><title>Node22&#45;&gt;Node1</title>
<path fill="none" stroke="midnightblue" d="M962.533,-112.324C980.093,-103.625 1007.35,-90.1202 1027.55,-80.113"/>
<polygon fill="midnightblue" stroke="midnightblue" points="1029.14,-83.23 1036.55,-75.6545 1026.04,-76.9575 1029.14,-83.23"/>
</g>
<!-- Node22&#45;&gt;Node3 -->
<g id="edge55" class="edge"><title>Node22&#45;&gt;Node3</title>
<path fill="none" stroke="midnightblue" d="M938.738,-112.361C927.583,-97.79 902.767,-68.6777 874.02,-56 788.835,-18.432 498.403,-12.2268 402.806,-11.2024"/>
<polygon fill="midnightblue" stroke="midnightblue" points="402.677,-7.70113 392.644,-11.1056 402.61,-14.7008 402.677,-7.70113"/>
</g>
<!-- Node22&#45;&gt;Node6 -->
<g id="edge56" class="edge"><title>Node22&#45;&gt;Node6</title>
<path fill="none" stroke="midnightblue" d="M914.597,-112.444C880.769,-102.929 826.13,-87.5622 789.896,-77.3713"/>
<polygon fill="midnightblue" stroke="midnightblue" points="790.771,-73.9816 780.197,-74.6433 788.876,-80.7201 790.771,-73.9816"/>
</g>
<!-- Node22&#45;&gt;Node11 -->
<g id="edge57" class="edge"><title>Node22&#45;&gt;Node11</title>
<path fill="none" stroke="midnightblue" d="M927.115,-112.444C908.766,-103.675 880.015,-89.9355 858.927,-79.8579"/>
<polygon fill="midnightblue" stroke="midnightblue" points="860.374,-76.6703 849.842,-75.5164 857.355,-82.9862 860.374,-76.6703"/>
</g>
<!-- Node23 -->
<g id="node24" class="node"><title>Node23</title>
<polygon fill="none" stroke="#bfbfbf" points="922.52,-56.5 922.52,-75.5 971.52,-75.5 971.52,-56.5 922.52,-56.5"/>
<text text-anchor="middle" x="947.02" y="-63.5" font-family="Helvetica,sans-Serif" font-size="10.00">fstream</text>
</g>
<!-- Node22&#45;&gt;Node23 -->
<g id="edge53" class="edge"><title>Node22&#45;&gt;Node23</title>
<path fill="none" stroke="midnightblue" d="M945.351,-112.083C945.613,-105.006 945.988,-94.8611 946.317,-85.9865"/>
<polygon fill="midnightblue" stroke="midnightblue" points="949.824,-85.8738 946.696,-75.7511 942.828,-85.6147 949.824,-85.8738"/>
</g>
<!-- Node24&#45;&gt;Node3 -->
<g id="edge63" class="edge"><title>Node24&#45;&gt;Node3</title>
<path fill="none" stroke="midnightblue" d="M234.391,-336.416C219.29,-312.535 179.02,-242.864 179.02,-179 179.02,-179 179.02,-179 179.02,-121 179.02,-90.9022 176.407,-76.9466 198.02,-56 236.831,-18.386 302.781,-11.0711 341.377,-10.2736"/>
<polygon fill="midnightblue" stroke="midnightblue" points="341.517,-13.7728 351.492,-10.2017 341.467,-6.77298 341.517,-13.7728"/>
</g>
<!-- Node24&#45;&gt;Node5 -->
<g id="edge66" class="edge"><title>Node24&#45;&gt;Node5</title>
<path fill="none" stroke="midnightblue" d="M264.523,-341.581C331.648,-332.215 518.538,-306.137 594.396,-295.552"/>
<polygon fill="midnightblue" stroke="midnightblue" points="594.919,-299.013 604.339,-294.165 593.952,-292.08 594.919,-299.013"/>
</g>
<!-- Node24&#45;&gt;Node9 -->
<g id="edge65" class="edge"><title>Node24&#45;&gt;Node9</title>
<path fill="none" stroke="midnightblue" d="M242.005,-336.248C248.882,-307.85 274.329,-217.261 329.02,-168 351.522,-147.732 384.056,-136.266 409.421,-129.988"/>
<polygon fill="midnightblue" stroke="midnightblue" points="410.492,-133.333 419.452,-127.679 408.922,-126.511 410.492,-133.333"/>
</g>
<!-- Node24&#45;&gt;Node21 -->
<g id="edge64" class="edge"><title>Node24&#45;&gt;Node21</title>
<path fill="none" stroke="midnightblue" d="M222.829,-336.324C205.67,-327.664 179.075,-314.242 159.273,-304.249"/>
<polygon fill="midnightblue" stroke="midnightblue" points="160.674,-301.035 150.169,-299.655 157.52,-307.285 160.674,-301.035"/>
</g>
<!-- Node25&#45;&gt;Node3 -->
<g id="edge68" class="edge"><title>Node25&#45;&gt;Node3</title>
<path fill="none" stroke="midnightblue" d="M169.183,-393.977C126.311,-381.298 49.0204,-350.226 49.0204,-291 49.0204,-291 49.0204,-291 49.0204,-121 49.0204,-81.0766 75.7923,-74.7846 111.02,-56 186.589,-15.7047 290.352,-10.2232 341.283,-10.2275"/>
<polygon fill="midnightblue" stroke="midnightblue" points="341.295,-13.7276 351.321,-10.3011 341.347,-6.72778 341.295,-13.7276"/>
</g>
<!-- Node25&#45;&gt;Node12 -->
<g id="edge70" class="edge"><title>Node25&#45;&gt;Node12</title>
<path fill="none" stroke="midnightblue" d="M193.258,-392.176C182.716,-366.358 154.343,-288.702 165.02,-224 173.579,-172.137 175.517,-156.795 203.02,-112 209.849,-100.879 219.883,-90.3394 228.645,-82.26"/>
<polygon fill="midnightblue" stroke="midnightblue" points="231.026,-84.8273 236.207,-75.5855 226.393,-79.5794 231.026,-84.8273"/>
</g>
<!-- Node25&#45;&gt;Node24 -->
<g id="edge69" class="edge"><title>Node25&#45;&gt;Node24</title>
<path fill="none" stroke="midnightblue" d="M204.121,-392.083C210.257,-384.377 219.29,-373.033 226.76,-363.653"/>
<polygon fill="midnightblue" stroke="midnightblue" points="229.561,-365.754 233.052,-355.751 224.085,-361.394 229.561,-365.754"/>
</g>
<!-- Node26&#45;&gt;Node3 -->
<g id="edge72" class="edge"><title>Node26&#45;&gt;Node3</title>
<path fill="none" stroke="midnightblue" d="M70.8496,-392.427C70.4818,-349.069 74.8172,-152.248 180.02,-56 203.387,-34.6224 293.257,-20.641 341.305,-14.5305"/>
<polygon fill="midnightblue" stroke="midnightblue" points="341.946,-17.9781 351.442,-13.2794 341.088,-11.0308 341.946,-17.9781"/>
</g>
<!-- Node26&#45;&gt;Node24 -->
<g id="edge73" class="edge"><title>Node26&#45;&gt;Node24</title>
<path fill="none" stroke="midnightblue" d="M97.7989,-392.444C126.941,-383.132 173.629,-368.214 205.504,-358.029"/>
<polygon fill="midnightblue" stroke="midnightblue" points="206.831,-361.279 215.292,-354.902 204.701,-354.611 206.831,-361.279"/>
</g>
<!-- Node27&#45;&gt;Node8 -->
<g id="edge75" class="edge"><title>Node27&#45;&gt;Node8</title>
<path fill="none" stroke="midnightblue" d="M364.431,-392.433C357.025,-366.687 337.095,-287.842 350.02,-224 351.913,-214.649 355.812,-204.827 359.588,-196.753"/>
<polygon fill="midnightblue" stroke="midnightblue" points="362.808,-198.138 364.145,-187.628 356.545,-195.011 362.808,-198.138"/>
</g>
<!-- Node27&#45;&gt;Node12 -->
<g id="edge77" class="edge"><title>Node27&#45;&gt;Node12</title>
<path fill="none" stroke="midnightblue" d="M361.509,-392.166C341.396,-359.35 271.874,-240.741 248.02,-132 244.654,-116.653 244.653,-98.7744 245.353,-85.6569"/>
<polygon fill="midnightblue" stroke="midnightblue" points="248.854,-85.7638 246.082,-75.5382 241.872,-85.261 248.854,-85.7638"/>
</g>
<!-- Node27&#45;&gt;Node24 -->
<g id="edge76" class="edge"><title>Node27&#45;&gt;Node24</title>
<path fill="none" stroke="midnightblue" d="M346.897,-392.444C325.996,-383.557 293.086,-369.563 269.304,-359.451"/>
<polygon fill="midnightblue" stroke="midnightblue" points="270.622,-356.208 260.05,-355.516 267.883,-362.65 270.622,-356.208"/>
</g>
<!-- Node28&#45;&gt;Node24 -->
<g id="edge79" class="edge"><title>Node28&#45;&gt;Node24</title>
<path fill="none" stroke="midnightblue" d="M260.892,-392.083C257.506,-384.77 252.604,-374.181 248.402,-365.103"/>
<polygon fill="midnightblue" stroke="midnightblue" points="251.449,-363.355 244.072,-355.751 245.097,-366.296 251.449,-363.355"/>
</g>
</g>
</svg>
