<?xml version="1.0" encoding="UTF-8" standalone="no"?>
<!DOCTYPE svg PUBLIC "-//W3C//DTD SVG 1.1//EN"
 "http://www.w3.org/Graphics/SVG/1.1/DTD/svg11.dtd">
<!-- Generated by graphviz version 2.38.0 (20140413.2041)
 -->
<!-- Title: E:/Dropbox/BI_FIT_CVUT/2. semestr/PA2/GameBook/Storyline.h Pages: 1 -->
<svg width="464pt" height="284pt"
 viewBox="0.00 0.00 464.00 284.00" xmlns="http://www.w3.org/2000/svg" xmlns:xlink="http://www.w3.org/1999/xlink">
<g id="graph0" class="graph" transform="scale(1 1) rotate(0) translate(4 280)">
<title>E:/Dropbox/BI_FIT_CVUT/2. semestr/PA2/GameBook/Storyline.h</title>
<!-- Node3 -->
<g id="node1" class="node"><title>Node3</title>
<polygon fill="#bfbfbf" stroke="black" points="237,-234.5 237,-275.5 377,-275.5 377,-234.5 237,-234.5"/>
<text text-anchor="start" x="245" y="-263.5" font-family="Helvetica,sans-Serif" font-size="10.00">E:/Dropbox/BI_FIT_CVUT</text>
<text text-anchor="start" x="245" y="-252.5" font-family="Helvetica,sans-Serif" font-size="10.00">/2. semestr/PA2/GameBook</text>
<text text-anchor="middle" x="307" y="-241.5" font-family="Helvetica,sans-Serif" font-size="10.00">/Storyline.h</text>
</g>
<!-- Node4 -->
<g id="node2" class="node"><title>Node4</title>
<g id="a_node2"><a xlink:href="_interact_8h.html" target="_top" xlink:title="E:/Dropbox/BI_FIT_CVUT\l/2. semestr/PA2/GameBook\l/Interact.h">
<polygon fill="none" stroke="black" points="158,-156.5 158,-197.5 298,-197.5 298,-156.5 158,-156.5"/>
<text text-anchor="start" x="166" y="-185.5" font-family="Helvetica,sans-Serif" font-size="10.00">E:/Dropbox/BI_FIT_CVUT</text>
<text text-anchor="start" x="166" y="-174.5" font-family="Helvetica,sans-Serif" font-size="10.00">/2. semestr/PA2/GameBook</text>
<text text-anchor="middle" x="228" y="-163.5" font-family="Helvetica,sans-Serif" font-size="10.00">/Interact.h</text>
</a>
</g>
</g>
<!-- Node3&#45;&gt;Node4 -->
<g id="edge1" class="edge"><title>Node3&#45;&gt;Node4</title>
<path fill="none" stroke="midnightblue" d="M279.445,-227.492C269.194,-217.629 257.757,-206.627 248.276,-197.506"/>
<polygon fill="midnightblue" stroke="midnightblue" points="277.022,-230.017 286.656,-234.428 281.875,-224.973 277.022,-230.017"/>
</g>
<!-- Node9 -->
<g id="node7" class="node"><title>Node9</title>
<g id="a_node7"><a xlink:href="_storyline_8cpp.html" target="_top" xlink:title="E:/Dropbox/BI_FIT_CVUT\l/2. semestr/PA2/GameBook\l/Storyline.cpp">
<polygon fill="none" stroke="black" points="316,-156.5 316,-197.5 456,-197.5 456,-156.5 316,-156.5"/>
<text text-anchor="start" x="324" y="-185.5" font-family="Helvetica,sans-Serif" font-size="10.00">E:/Dropbox/BI_FIT_CVUT</text>
<text text-anchor="start" x="324" y="-174.5" font-family="Helvetica,sans-Serif" font-size="10.00">/2. semestr/PA2/GameBook</text>
<text text-anchor="middle" x="386" y="-163.5" font-family="Helvetica,sans-Serif" font-size="10.00">/Storyline.cpp</text>
</a>
</g>
</g>
<!-- Node3&#45;&gt;Node9 -->
<g id="edge6" class="edge"><title>Node3&#45;&gt;Node9</title>
<path fill="none" stroke="midnightblue" d="M334.555,-227.492C344.806,-217.629 356.243,-206.627 365.724,-197.506"/>
<polygon fill="midnightblue" stroke="midnightblue" points="332.125,-224.973 327.344,-234.428 336.978,-230.017 332.125,-224.973"/>
</g>
<!-- Node5 -->
<g id="node3" class="node"><title>Node5</title>
<g id="a_node3"><a xlink:href="_game_8h.html" target="_top" xlink:title="E:/Dropbox/BI_FIT_CVUT\l/2. semestr/PA2/GameBook\l/Game.h">
<polygon fill="none" stroke="black" points="79,-78.5 79,-119.5 219,-119.5 219,-78.5 79,-78.5"/>
<text text-anchor="start" x="87" y="-107.5" font-family="Helvetica,sans-Serif" font-size="10.00">E:/Dropbox/BI_FIT_CVUT</text>
<text text-anchor="start" x="87" y="-96.5" font-family="Helvetica,sans-Serif" font-size="10.00">/2. semestr/PA2/GameBook</text>
<text text-anchor="middle" x="149" y="-85.5" font-family="Helvetica,sans-Serif" font-size="10.00">/Game.h</text>
</a>
</g>
</g>
<!-- Node4&#45;&gt;Node5 -->
<g id="edge2" class="edge"><title>Node4&#45;&gt;Node5</title>
<path fill="none" stroke="midnightblue" d="M200.445,-149.492C190.194,-139.629 178.757,-128.627 169.276,-119.506"/>
<polygon fill="midnightblue" stroke="midnightblue" points="198.022,-152.017 207.656,-156.428 202.875,-146.973 198.022,-152.017"/>
</g>
<!-- Node8 -->
<g id="node6" class="node"><title>Node8</title>
<g id="a_node6"><a xlink:href="_interact_8cpp.html" target="_top" xlink:title="E:/Dropbox/BI_FIT_CVUT\l/2. semestr/PA2/GameBook\l/Interact.cpp">
<polygon fill="none" stroke="black" points="237,-78.5 237,-119.5 377,-119.5 377,-78.5 237,-78.5"/>
<text text-anchor="start" x="245" y="-107.5" font-family="Helvetica,sans-Serif" font-size="10.00">E:/Dropbox/BI_FIT_CVUT</text>
<text text-anchor="start" x="245" y="-96.5" font-family="Helvetica,sans-Serif" font-size="10.00">/2. semestr/PA2/GameBook</text>
<text text-anchor="middle" x="307" y="-85.5" font-family="Helvetica,sans-Serif" font-size="10.00">/Interact.cpp</text>
</a>
</g>
</g>
<!-- Node4&#45;&gt;Node8 -->
<g id="edge5" class="edge"><title>Node4&#45;&gt;Node8</title>
<path fill="none" stroke="midnightblue" d="M255.555,-149.492C265.806,-139.629 277.243,-128.627 286.724,-119.506"/>
<polygon fill="midnightblue" stroke="midnightblue" points="253.125,-146.973 248.344,-156.428 257.978,-152.017 253.125,-146.973"/>
</g>
<!-- Node6 -->
<g id="node4" class="node"><title>Node6</title>
<g id="a_node4"><a xlink:href="_game_8cpp.html" target="_top" xlink:title="E:/Dropbox/BI_FIT_CVUT\l/2. semestr/PA2/GameBook\l/Game.cpp">
<polygon fill="none" stroke="black" points="0,-0.5 0,-41.5 140,-41.5 140,-0.5 0,-0.5"/>
<text text-anchor="start" x="8" y="-29.5" font-family="Helvetica,sans-Serif" font-size="10.00">E:/Dropbox/BI_FIT_CVUT</text>
<text text-anchor="start" x="8" y="-18.5" font-family="Helvetica,sans-Serif" font-size="10.00">/2. semestr/PA2/GameBook</text>
<text text-anchor="middle" x="70" y="-7.5" font-family="Helvetica,sans-Serif" font-size="10.00">/Game.cpp</text>
</a>
</g>
</g>
<!-- Node5&#45;&gt;Node6 -->
<g id="edge3" class="edge"><title>Node5&#45;&gt;Node6</title>
<path fill="none" stroke="midnightblue" d="M121.445,-71.4916C111.194,-61.6294 99.7574,-50.6273 90.2755,-41.5056"/>
<polygon fill="midnightblue" stroke="midnightblue" points="119.022,-74.0175 128.656,-78.4281 123.875,-68.9729 119.022,-74.0175"/>
</g>
<!-- Node7 -->
<g id="node5" class="node"><title>Node7</title>
<g id="a_node5"><a xlink:href="main_8cpp.html" target="_top" xlink:title="E:/Dropbox/BI_FIT_CVUT\l/2. semestr/PA2/GameBook\l/main.cpp">
<polygon fill="none" stroke="black" points="158,-0.5 158,-41.5 298,-41.5 298,-0.5 158,-0.5"/>
<text text-anchor="start" x="166" y="-29.5" font-family="Helvetica,sans-Serif" font-size="10.00">E:/Dropbox/BI_FIT_CVUT</text>
<text text-anchor="start" x="166" y="-18.5" font-family="Helvetica,sans-Serif" font-size="10.00">/2. semestr/PA2/GameBook</text>
<text text-anchor="middle" x="228" y="-7.5" font-family="Helvetica,sans-Serif" font-size="10.00">/main.cpp</text>
</a>
</g>
</g>
<!-- Node5&#45;&gt;Node7 -->
<g id="edge4" class="edge"><title>Node5&#45;&gt;Node7</title>
<path fill="none" stroke="midnightblue" d="M176.555,-71.4916C186.806,-61.6294 198.243,-50.6273 207.724,-41.5056"/>
<polygon fill="midnightblue" stroke="midnightblue" points="174.125,-68.9729 169.344,-78.4281 178.978,-74.0175 174.125,-68.9729"/>
</g>
</g>
</svg>
