<?xml version="1.0" encoding="UTF-8" standalone="no"?>
<!DOCTYPE svg PUBLIC "-//W3C//DTD SVG 1.1//EN"
 "http://www.w3.org/Graphics/SVG/1.1/DTD/svg11.dtd">
<!-- Generated by graphviz version 2.38.0 (20140413.2041)
 -->
<!-- Title: E:/Dropbox/BI_FIT_CVUT/2. semestr/PA2/GameBook/StreamDecoder.cpp Pages: 1 -->
<svg width="313pt" height="162pt"
 viewBox="0.00 0.00 313.00 162.00" xmlns="http://www.w3.org/2000/svg" xmlns:xlink="http://www.w3.org/1999/xlink">
<g id="graph0" class="graph" transform="scale(1 1) rotate(0) translate(4 158)">
<title>E:/Dropbox/BI_FIT_CVUT/2. semestr/PA2/GameBook/StreamDecoder.cpp</title>
<!-- Node0 -->
<g id="node1" class="node"><title>Node0</title>
<polygon fill="#bfbfbf" stroke="black" points="80.5,-112.5 80.5,-153.5 220.5,-153.5 220.5,-112.5 80.5,-112.5"/>
<text text-anchor="start" x="88.5" y="-141.5" font-family="Helvetica,sans-Serif" font-size="10.00">E:/Dropbox/BI_FIT_CVUT</text>
<text text-anchor="start" x="88.5" y="-130.5" font-family="Helvetica,sans-Serif" font-size="10.00">/2. semestr/PA2/GameBook</text>
<text text-anchor="middle" x="150.5" y="-119.5" font-family="Helvetica,sans-Serif" font-size="10.00">/StreamDecoder.cpp</text>
</g>
<!-- Node1 -->
<g id="node2" class="node"><title>Node1</title>
<g id="a_node2"><a xlink:href="_stream_decoder_8h.html" target="_top" xlink:title="StreamDecoder.h">
<polygon fill="none" stroke="black" points="104.5,-56.5 104.5,-75.5 196.5,-75.5 196.5,-56.5 104.5,-56.5"/>
<text text-anchor="middle" x="150.5" y="-63.5" font-family="Helvetica,sans-Serif" font-size="10.00">StreamDecoder.h</text>
</a>
</g>
</g>
<!-- Node0&#45;&gt;Node1 -->
<g id="edge1" class="edge"><title>Node0&#45;&gt;Node1</title>
<path fill="none" stroke="midnightblue" d="M150.5,-112.498C150.5,-104.065 150.5,-94.2351 150.5,-85.874"/>
<polygon fill="midnightblue" stroke="midnightblue" points="154,-85.6525 150.5,-75.6525 147,-85.6525 154,-85.6525"/>
</g>
<!-- Node2 -->
<g id="node3" class="node"><title>Node2</title>
<polygon fill="none" stroke="#bfbfbf" points="0,-0.5 0,-19.5 41,-19.5 41,-0.5 0,-0.5"/>
<text text-anchor="middle" x="20.5" y="-7.5" font-family="Helvetica,sans-Serif" font-size="10.00">string</text>
</g>
<!-- Node1&#45;&gt;Node2 -->
<g id="edge2" class="edge"><title>Node1&#45;&gt;Node2</title>
<path fill="none" stroke="midnightblue" d="M129.901,-56.4435C108.507,-47.5566 74.8188,-33.5632 50.4756,-23.4514"/>
<polygon fill="midnightblue" stroke="midnightblue" points="51.5801,-20.1203 41.0025,-19.5164 48.8948,-26.5848 51.5801,-20.1203"/>
</g>
<!-- Node3 -->
<g id="node4" class="node"><title>Node3</title>
<polygon fill="none" stroke="#bfbfbf" points="59.5,-0.5 59.5,-19.5 111.5,-19.5 111.5,-0.5 59.5,-0.5"/>
<text text-anchor="middle" x="85.5" y="-7.5" font-family="Helvetica,sans-Serif" font-size="10.00">sstream</text>
</g>
<!-- Node1&#45;&gt;Node3 -->
<g id="edge3" class="edge"><title>Node1&#45;&gt;Node3</title>
<path fill="none" stroke="midnightblue" d="M140.057,-56.324C130.354,-48.2631 115.685,-36.0765 104,-26.3695"/>
<polygon fill="midnightblue" stroke="midnightblue" points="106.062,-23.532 96.1334,-19.8339 101.589,-28.9163 106.062,-23.532"/>
</g>
<!-- Node4 -->
<g id="node5" class="node"><title>Node4</title>
<polygon fill="none" stroke="#bfbfbf" points="129.5,-0.5 129.5,-19.5 171.5,-19.5 171.5,-0.5 129.5,-0.5"/>
<text text-anchor="middle" x="150.5" y="-7.5" font-family="Helvetica,sans-Serif" font-size="10.00">vector</text>
</g>
<!-- Node1&#45;&gt;Node4 -->
<g id="edge4" class="edge"><title>Node1&#45;&gt;Node4</title>
<path fill="none" stroke="midnightblue" d="M150.5,-56.083C150.5,-49.0059 150.5,-38.8611 150.5,-29.9865"/>
<polygon fill="midnightblue" stroke="midnightblue" points="154,-29.751 150.5,-19.7511 147,-29.7511 154,-29.751"/>
</g>
<!-- Node5 -->
<g id="node6" class="node"><title>Node5</title>
<polygon fill="none" stroke="#bfbfbf" points="189.5,-0.5 189.5,-19.5 219.5,-19.5 219.5,-0.5 189.5,-0.5"/>
<text text-anchor="middle" x="204.5" y="-7.5" font-family="Helvetica,sans-Serif" font-size="10.00">set</text>
</g>
<!-- Node1&#45;&gt;Node5 -->
<g id="edge5" class="edge"><title>Node1&#45;&gt;Node5</title>
<path fill="none" stroke="midnightblue" d="M159.417,-56.083C167.28,-48.2195 178.931,-36.5688 188.419,-27.0813"/>
<polygon fill="midnightblue" stroke="midnightblue" points="191.153,-29.2971 195.749,-19.7511 186.203,-24.3473 191.153,-29.2971"/>
</g>
<!-- Node6 -->
<g id="node7" class="node"><title>Node6</title>
<g id="a_node7"><a xlink:href="_errors_list_8h.html" target="_top" xlink:title="ErrorsList.h">
<polygon fill="none" stroke="black" points="238,-0.5 238,-19.5 305,-19.5 305,-0.5 238,-0.5"/>
<text text-anchor="middle" x="271.5" y="-7.5" font-family="Helvetica,sans-Serif" font-size="10.00">ErrorsList.h</text>
</a>
</g>
</g>
<!-- Node1&#45;&gt;Node6 -->
<g id="edge6" class="edge"><title>Node1&#45;&gt;Node6</title>
<path fill="none" stroke="midnightblue" d="M169.673,-56.4435C189.409,-47.6356 220.385,-33.8116 242.993,-23.722"/>
<polygon fill="midnightblue" stroke="midnightblue" points="244.711,-26.788 252.417,-19.5164 241.859,-20.3957 244.711,-26.788"/>
</g>
</g>
</svg>
