<?xml version="1.0" encoding="UTF-8" standalone="no"?>
<!DOCTYPE svg PUBLIC "-//W3C//DTD SVG 1.1//EN"
 "http://www.w3.org/Graphics/SVG/1.1/DTD/svg11.dtd">
<!-- Generated by graphviz version 2.38.0 (20140413.2041)
 -->
<!-- Title: E:/Dropbox/BI_FIT_CVUT/2. semestr/PA2/GameBook/Sword.h Pages: 1 -->
<svg width="926pt" height="596pt"
 viewBox="0.00 0.00 926.39 596.00" xmlns="http://www.w3.org/2000/svg" xmlns:xlink="http://www.w3.org/1999/xlink">
<g id="graph0" class="graph" transform="scale(1 1) rotate(0) translate(4 592)">
<title>E:/Dropbox/BI_FIT_CVUT/2. semestr/PA2/GameBook/Sword.h</title>
<!-- Node11 -->
<g id="node1" class="node"><title>Node11</title>
<polygon fill="#bfbfbf" stroke="black" points="455.692,-546.5 455.692,-587.5 595.692,-587.5 595.692,-546.5 455.692,-546.5"/>
<text text-anchor="start" x="463.692" y="-575.5" font-family="Helvetica,sans-Serif" font-size="10.00">E:/Dropbox/BI_FIT_CVUT</text>
<text text-anchor="start" x="463.692" y="-564.5" font-family="Helvetica,sans-Serif" font-size="10.00">/2. semestr/PA2/GameBook</text>
<text text-anchor="middle" x="525.692" y="-553.5" font-family="Helvetica,sans-Serif" font-size="10.00">/Sword.h</text>
</g>
<!-- Node12 -->
<g id="node2" class="node"><title>Node12</title>
<g id="a_node2"><a xlink:href="_hero_8h.html" target="_top" xlink:title="E:/Dropbox/BI_FIT_CVUT\l/2. semestr/PA2/GameBook\l/Hero.h">
<polygon fill="none" stroke="black" points="455.692,-468.5 455.692,-509.5 595.692,-509.5 595.692,-468.5 455.692,-468.5"/>
<text text-anchor="start" x="463.692" y="-497.5" font-family="Helvetica,sans-Serif" font-size="10.00">E:/Dropbox/BI_FIT_CVUT</text>
<text text-anchor="start" x="463.692" y="-486.5" font-family="Helvetica,sans-Serif" font-size="10.00">/2. semestr/PA2/GameBook</text>
<text text-anchor="middle" x="525.692" y="-475.5" font-family="Helvetica,sans-Serif" font-size="10.00">/Hero.h</text>
</a>
</g>
</g>
<!-- Node11&#45;&gt;Node12 -->
<g id="edge1" class="edge"><title>Node11&#45;&gt;Node12</title>
<path fill="none" stroke="midnightblue" d="M525.692,-536.297C525.692,-527.301 525.692,-517.653 525.692,-509.506"/>
<polygon fill="midnightblue" stroke="midnightblue" points="522.193,-536.428 525.692,-546.428 529.193,-536.428 522.193,-536.428"/>
</g>
<!-- Node16 -->
<g id="node6" class="node"><title>Node16</title>
<g id="a_node6"><a xlink:href="_world_8h.html" target="_top" xlink:title="E:/Dropbox/BI_FIT_CVUT\l/2. semestr/PA2/GameBook\l/World.h">
<polygon fill="none" stroke="black" points="349.692,-234.5 349.692,-275.5 489.692,-275.5 489.692,-234.5 349.692,-234.5"/>
<text text-anchor="start" x="357.692" y="-263.5" font-family="Helvetica,sans-Serif" font-size="10.00">E:/Dropbox/BI_FIT_CVUT</text>
<text text-anchor="start" x="357.692" y="-252.5" font-family="Helvetica,sans-Serif" font-size="10.00">/2. semestr/PA2/GameBook</text>
<text text-anchor="middle" x="419.692" y="-241.5" font-family="Helvetica,sans-Serif" font-size="10.00">/World.h</text>
</a>
</g>
</g>
<!-- Node11&#45;&gt;Node16 -->
<g id="edge34" class="edge"><title>Node11&#45;&gt;Node16</title>
<path fill="none" stroke="midnightblue" d="M461.029,-542.476C387.484,-511.801 271.085,-450.397 220.692,-354 212.045,-337.457 209.422,-326.88 220.692,-312 222.758,-309.273 292.98,-289.923 349.424,-274.722"/>
<polygon fill="midnightblue" stroke="midnightblue" points="460.086,-545.871 470.666,-546.422 462.738,-539.393 460.086,-545.871"/>
</g>
<!-- Node35 -->
<g id="node25" class="node"><title>Node35</title>
<g id="a_node25"><a xlink:href="_sword_8cpp.html" target="_top" xlink:title="E:/Dropbox/BI_FIT_CVUT\l/2. semestr/PA2/GameBook\l/Sword.cpp">
<polygon fill="none" stroke="black" points="613.692,-468.5 613.692,-509.5 753.692,-509.5 753.692,-468.5 613.692,-468.5"/>
<text text-anchor="start" x="621.692" y="-497.5" font-family="Helvetica,sans-Serif" font-size="10.00">E:/Dropbox/BI_FIT_CVUT</text>
<text text-anchor="start" x="621.692" y="-486.5" font-family="Helvetica,sans-Serif" font-size="10.00">/2. semestr/PA2/GameBook</text>
<text text-anchor="middle" x="683.692" y="-475.5" font-family="Helvetica,sans-Serif" font-size="10.00">/Sword.cpp</text>
</a>
</g>
</g>
<!-- Node11&#45;&gt;Node35 -->
<g id="edge35" class="edge"><title>Node11&#45;&gt;Node35</title>
<path fill="none" stroke="midnightblue" d="M575.486,-542.049C597.278,-531.566 622.521,-519.424 643.141,-509.506"/>
<polygon fill="midnightblue" stroke="midnightblue" points="573.876,-538.939 566.381,-546.428 576.91,-545.247 573.876,-538.939"/>
</g>
<!-- Node13 -->
<g id="node3" class="node"><title>Node13</title>
<g id="a_node3"><a xlink:href="_event_8h.html" target="_top" xlink:title="E:/Dropbox/BI_FIT_CVUT\l/2. semestr/PA2/GameBook\l/Event.h">
<polygon fill="none" stroke="black" points="376.692,-390.5 376.692,-431.5 516.692,-431.5 516.692,-390.5 376.692,-390.5"/>
<text text-anchor="start" x="384.692" y="-419.5" font-family="Helvetica,sans-Serif" font-size="10.00">E:/Dropbox/BI_FIT_CVUT</text>
<text text-anchor="start" x="384.692" y="-408.5" font-family="Helvetica,sans-Serif" font-size="10.00">/2. semestr/PA2/GameBook</text>
<text text-anchor="middle" x="446.692" y="-397.5" font-family="Helvetica,sans-Serif" font-size="10.00">/Event.h</text>
</a>
</g>
</g>
<!-- Node12&#45;&gt;Node13 -->
<g id="edge2" class="edge"><title>Node12&#45;&gt;Node13</title>
<path fill="none" stroke="midnightblue" d="M498.138,-461.492C487.886,-451.629 476.45,-440.627 466.968,-431.506"/>
<polygon fill="midnightblue" stroke="midnightblue" points="495.715,-464.017 505.348,-468.428 500.568,-458.973 495.715,-464.017"/>
</g>
<!-- Node20 -->
<g id="node10" class="node"><title>Node20</title>
<g id="a_node10"><a xlink:href="_shopping_8h.html" target="_top" xlink:title="E:/Dropbox/BI_FIT_CVUT\l/2. semestr/PA2/GameBook\l/Shopping.h">
<polygon fill="none" stroke="black" points="714.692,-156.5 714.692,-197.5 854.692,-197.5 854.692,-156.5 714.692,-156.5"/>
<text text-anchor="start" x="722.692" y="-185.5" font-family="Helvetica,sans-Serif" font-size="10.00">E:/Dropbox/BI_FIT_CVUT</text>
<text text-anchor="start" x="722.692" y="-174.5" font-family="Helvetica,sans-Serif" font-size="10.00">/2. semestr/PA2/GameBook</text>
<text text-anchor="middle" x="784.692" y="-163.5" font-family="Helvetica,sans-Serif" font-size="10.00">/Shopping.h</text>
</a>
</g>
</g>
<!-- Node12&#45;&gt;Node20 -->
<g id="edge30" class="edge"><title>Node12&#45;&gt;Node20</title>
<path fill="none" stroke="midnightblue" d="M605.877,-467.858C749.897,-437.557 839.993,-477.102 909.692,-354 943.669,-293.992 864.229,-229.323 816.856,-197.694"/>
<polygon fill="midnightblue" stroke="midnightblue" points="604.879,-464.494 595.864,-470.06 606.382,-471.331 604.879,-464.494"/>
</g>
<!-- Node22 -->
<g id="node12" class="node"><title>Node22</title>
<g id="a_node12"><a xlink:href="_inventory_browser_8h.html" target="_top" xlink:title="E:/Dropbox/BI_FIT_CVUT\l/2. semestr/PA2/GameBook\l/InventoryBrowser.h">
<polygon fill="none" stroke="black" points="202.692,-156.5 202.692,-197.5 342.692,-197.5 342.692,-156.5 202.692,-156.5"/>
<text text-anchor="start" x="210.692" y="-185.5" font-family="Helvetica,sans-Serif" font-size="10.00">E:/Dropbox/BI_FIT_CVUT</text>
<text text-anchor="start" x="210.692" y="-174.5" font-family="Helvetica,sans-Serif" font-size="10.00">/2. semestr/PA2/GameBook</text>
<text text-anchor="middle" x="272.692" y="-163.5" font-family="Helvetica,sans-Serif" font-size="10.00">/InventoryBrowser.h</text>
</a>
</g>
</g>
<!-- Node12&#45;&gt;Node22 -->
<g id="edge31" class="edge"><title>Node12&#45;&gt;Node22</title>
<path fill="none" stroke="midnightblue" d="M445.164,-478.31C316.958,-461.045 75.6716,-420.406 24.6925,-354 -7.78436,-311.695 -8.60861,-275.659 24.6925,-234 46.6376,-206.547 137.249,-191.579 202.604,-184.186"/>
<polygon fill="midnightblue" stroke="midnightblue" points="444.951,-481.813 455.325,-479.662 445.874,-474.874 444.951,-481.813"/>
</g>
<!-- Node24 -->
<g id="node14" class="node"><title>Node24</title>
<g id="a_node14"><a xlink:href="_interact_8h.html" target="_top" xlink:title="E:/Dropbox/BI_FIT_CVUT\l/2. semestr/PA2/GameBook\l/Interact.h">
<polygon fill="none" stroke="black" points="556.692,-156.5 556.692,-197.5 696.692,-197.5 696.692,-156.5 556.692,-156.5"/>
<text text-anchor="start" x="564.692" y="-185.5" font-family="Helvetica,sans-Serif" font-size="10.00">E:/Dropbox/BI_FIT_CVUT</text>
<text text-anchor="start" x="564.692" y="-174.5" font-family="Helvetica,sans-Serif" font-size="10.00">/2. semestr/PA2/GameBook</text>
<text text-anchor="middle" x="626.692" y="-163.5" font-family="Helvetica,sans-Serif" font-size="10.00">/Interact.h</text>
</a>
</g>
</g>
<!-- Node12&#45;&gt;Node24 -->
<g id="edge32" class="edge"><title>Node12&#45;&gt;Node24</title>
<path fill="none" stroke="midnightblue" d="M600.681,-465.527C702.412,-434.293 873.531,-378.805 890.692,-354 926.61,-302.083 868.711,-266.671 814.692,-234 804.184,-227.644 745.827,-210.671 696.881,-197.063"/>
<polygon fill="midnightblue" stroke="midnightblue" points="599.597,-462.199 591.06,-468.472 601.646,-468.892 599.597,-462.199"/>
</g>
<!-- Node34 -->
<g id="node24" class="node"><title>Node34</title>
<g id="a_node24"><a xlink:href="_hero_8cpp.html" target="_top" xlink:title="E:/Dropbox/BI_FIT_CVUT\l/2. semestr/PA2/GameBook\l/Hero.cpp">
<polygon fill="none" stroke="black" points="534.692,-390.5 534.692,-431.5 674.692,-431.5 674.692,-390.5 534.692,-390.5"/>
<text text-anchor="start" x="542.692" y="-419.5" font-family="Helvetica,sans-Serif" font-size="10.00">E:/Dropbox/BI_FIT_CVUT</text>
<text text-anchor="start" x="542.692" y="-408.5" font-family="Helvetica,sans-Serif" font-size="10.00">/2. semestr/PA2/GameBook</text>
<text text-anchor="middle" x="604.692" y="-397.5" font-family="Helvetica,sans-Serif" font-size="10.00">/Hero.cpp</text>
</a>
</g>
</g>
<!-- Node12&#45;&gt;Node34 -->
<g id="edge33" class="edge"><title>Node12&#45;&gt;Node34</title>
<path fill="none" stroke="midnightblue" d="M553.247,-461.492C563.499,-451.629 574.935,-440.627 584.417,-431.506"/>
<polygon fill="midnightblue" stroke="midnightblue" points="550.817,-458.973 546.037,-468.428 555.67,-464.017 550.817,-458.973"/>
</g>
<!-- Node14 -->
<g id="node4" class="node"><title>Node14</title>
<g id="a_node4"><a xlink:href="_choice_8h.html" target="_top" xlink:title="E:/Dropbox/BI_FIT_CVUT\l/2. semestr/PA2/GameBook\l/Choice.h">
<polygon fill="none" stroke="black" points="33.6925,-312.5 33.6925,-353.5 173.692,-353.5 173.692,-312.5 33.6925,-312.5"/>
<text text-anchor="start" x="41.6925" y="-341.5" font-family="Helvetica,sans-Serif" font-size="10.00">E:/Dropbox/BI_FIT_CVUT</text>
<text text-anchor="start" x="41.6925" y="-330.5" font-family="Helvetica,sans-Serif" font-size="10.00">/2. semestr/PA2/GameBook</text>
<text text-anchor="middle" x="103.692" y="-319.5" font-family="Helvetica,sans-Serif" font-size="10.00">/Choice.h</text>
</a>
</g>
</g>
<!-- Node13&#45;&gt;Node14 -->
<g id="edge3" class="edge"><title>Node13&#45;&gt;Node14</title>
<path fill="none" stroke="midnightblue" d="M366.526,-392.237C308.122,-379.296 229.766,-361.935 173.837,-349.542"/>
<polygon fill="midnightblue" stroke="midnightblue" points="365.933,-395.691 376.454,-394.437 367.448,-388.856 365.933,-395.691"/>
</g>
<!-- Node13&#45;&gt;Node16 -->
<g id="edge26" class="edge"><title>Node13&#45;&gt;Node16</title>
<path fill="none" stroke="midnightblue" d="M427.962,-381.501C423.351,-373 419.059,-363.427 416.692,-354 410.063,-327.584 412.892,-295.907 415.946,-275.864"/>
<polygon fill="midnightblue" stroke="midnightblue" points="424.983,-383.34 433.016,-390.247 431.043,-379.838 424.983,-383.34"/>
</g>
<!-- Node27 -->
<g id="node17" class="node"><title>Node27</title>
<g id="a_node17"><a xlink:href="_dialogue_n_c_p_8h.html" target="_top" xlink:title="E:/Dropbox/BI_FIT_CVUT\l/2. semestr/PA2/GameBook\l/DialogueNCP.h">
<polygon fill="none" stroke="black" points="229.692,-312.5 229.692,-353.5 369.692,-353.5 369.692,-312.5 229.692,-312.5"/>
<text text-anchor="start" x="237.692" y="-341.5" font-family="Helvetica,sans-Serif" font-size="10.00">E:/Dropbox/BI_FIT_CVUT</text>
<text text-anchor="start" x="237.692" y="-330.5" font-family="Helvetica,sans-Serif" font-size="10.00">/2. semestr/PA2/GameBook</text>
<text text-anchor="middle" x="299.692" y="-319.5" font-family="Helvetica,sans-Serif" font-size="10.00">/DialogueNCP.h</text>
</a>
</g>
</g>
<!-- Node13&#45;&gt;Node27 -->
<g id="edge19" class="edge"><title>Node13&#45;&gt;Node27</title>
<path fill="none" stroke="midnightblue" d="M399.822,-385.768C379.672,-375.35 356.434,-363.336 337.42,-353.506"/>
<polygon fill="midnightblue" stroke="midnightblue" points="398.346,-388.945 408.836,-390.428 401.561,-382.726 398.346,-388.945"/>
</g>
<!-- Node29 -->
<g id="node19" class="node"><title>Node29</title>
<g id="a_node19"><a xlink:href="_event_8cpp.html" target="_top" xlink:title="E:/Dropbox/BI_FIT_CVUT\l/2. semestr/PA2/GameBook\l/Event.cpp">
<polygon fill="none" stroke="black" points="741.692,-312.5 741.692,-353.5 881.692,-353.5 881.692,-312.5 741.692,-312.5"/>
<text text-anchor="start" x="749.692" y="-341.5" font-family="Helvetica,sans-Serif" font-size="10.00">E:/Dropbox/BI_FIT_CVUT</text>
<text text-anchor="start" x="749.692" y="-330.5" font-family="Helvetica,sans-Serif" font-size="10.00">/2. semestr/PA2/GameBook</text>
<text text-anchor="middle" x="811.692" y="-319.5" font-family="Helvetica,sans-Serif" font-size="10.00">/Event.cpp</text>
</a>
</g>
</g>
<!-- Node13&#45;&gt;Node29 -->
<g id="edge22" class="edge"><title>Node13&#45;&gt;Node29</title>
<path fill="none" stroke="midnightblue" d="M526.852,-389.835C618.763,-370.702 644.486,-372.807 732.692,-354 735.598,-353.38 738.559,-352.728 741.546,-352.052"/>
<polygon fill="midnightblue" stroke="midnightblue" points="525.901,-386.458 516.839,-391.948 527.346,-393.308 525.901,-386.458"/>
</g>
<!-- Node30 -->
<g id="node20" class="node"><title>Node30</title>
<g id="a_node20"><a xlink:href="_fight_8h.html" target="_top" xlink:title="E:/Dropbox/BI_FIT_CVUT\l/2. semestr/PA2/GameBook\l/Fight.h">
<polygon fill="none" stroke="black" points="425.692,-312.5 425.692,-353.5 565.692,-353.5 565.692,-312.5 425.692,-312.5"/>
<text text-anchor="start" x="433.692" y="-341.5" font-family="Helvetica,sans-Serif" font-size="10.00">E:/Dropbox/BI_FIT_CVUT</text>
<text text-anchor="start" x="433.692" y="-330.5" font-family="Helvetica,sans-Serif" font-size="10.00">/2. semestr/PA2/GameBook</text>
<text text-anchor="middle" x="495.692" y="-319.5" font-family="Helvetica,sans-Serif" font-size="10.00">/Fight.h</text>
</a>
</g>
</g>
<!-- Node13&#45;&gt;Node30 -->
<g id="edge23" class="edge"><title>Node13&#45;&gt;Node30</title>
<path fill="none" stroke="midnightblue" d="M464.902,-381.757C470.964,-372.354 477.578,-362.096 483.117,-353.506"/>
<polygon fill="midnightblue" stroke="midnightblue" points="461.788,-380.127 459.311,-390.428 467.672,-383.92 461.788,-380.127"/>
</g>
<!-- Node32 -->
<g id="node22" class="node"><title>Node32</title>
<g id="a_node22"><a xlink:href="_trap_8h.html" target="_top" xlink:title="E:/Dropbox/BI_FIT_CVUT\l/2. semestr/PA2/GameBook\l/Trap.h">
<polygon fill="none" stroke="black" points="583.692,-312.5 583.692,-353.5 723.692,-353.5 723.692,-312.5 583.692,-312.5"/>
<text text-anchor="start" x="591.692" y="-341.5" font-family="Helvetica,sans-Serif" font-size="10.00">E:/Dropbox/BI_FIT_CVUT</text>
<text text-anchor="start" x="591.692" y="-330.5" font-family="Helvetica,sans-Serif" font-size="10.00">/2. semestr/PA2/GameBook</text>
<text text-anchor="middle" x="653.692" y="-319.5" font-family="Helvetica,sans-Serif" font-size="10.00">/Trap.h</text>
</a>
</g>
</g>
<!-- Node13&#45;&gt;Node32 -->
<g id="edge27" class="edge"><title>Node13&#45;&gt;Node32</title>
<path fill="none" stroke="midnightblue" d="M509.644,-386.887C538.703,-376.219 572.826,-363.69 600.565,-353.506"/>
<polygon fill="midnightblue" stroke="midnightblue" points="508.181,-383.696 500,-390.428 510.594,-390.267 508.181,-383.696"/>
</g>
<!-- Node15 -->
<g id="node5" class="node"><title>Node15</title>
<g id="a_node5"><a xlink:href="_choice_8cpp.html" target="_top" xlink:title="E:/Dropbox/BI_FIT_CVUT\l/2. semestr/PA2/GameBook\l/Choice.cpp">
<polygon fill="none" stroke="black" points="33.6925,-234.5 33.6925,-275.5 173.692,-275.5 173.692,-234.5 33.6925,-234.5"/>
<text text-anchor="start" x="41.6925" y="-263.5" font-family="Helvetica,sans-Serif" font-size="10.00">E:/Dropbox/BI_FIT_CVUT</text>
<text text-anchor="start" x="41.6925" y="-252.5" font-family="Helvetica,sans-Serif" font-size="10.00">/2. semestr/PA2/GameBook</text>
<text text-anchor="middle" x="103.692" y="-241.5" font-family="Helvetica,sans-Serif" font-size="10.00">/Choice.cpp</text>
</a>
</g>
</g>
<!-- Node14&#45;&gt;Node15 -->
<g id="edge4" class="edge"><title>Node14&#45;&gt;Node15</title>
<path fill="none" stroke="midnightblue" d="M103.692,-302.297C103.692,-293.301 103.692,-283.653 103.692,-275.506"/>
<polygon fill="midnightblue" stroke="midnightblue" points="100.193,-302.428 103.692,-312.428 107.193,-302.428 100.193,-302.428"/>
</g>
<!-- Node14&#45;&gt;Node16 -->
<g id="edge5" class="edge"><title>Node14&#45;&gt;Node16</title>
<path fill="none" stroke="midnightblue" d="M183.847,-312.911C185.138,-312.605 186.421,-312.301 187.692,-312 255.671,-295.91 272.83,-292.573 340.692,-276 343.579,-275.295 346.523,-274.571 349.497,-273.836"/>
<polygon fill="midnightblue" stroke="midnightblue" points="182.738,-309.576 173.816,-315.289 184.353,-316.388 182.738,-309.576"/>
</g>
<!-- Node17 -->
<g id="node7" class="node"><title>Node17</title>
<g id="a_node7"><a xlink:href="_game_8h.html" target="_top" xlink:title="E:/Dropbox/BI_FIT_CVUT\l/2. semestr/PA2/GameBook\l/Game.h">
<polygon fill="none" stroke="black" points="379.692,-78.5 379.692,-119.5 519.692,-119.5 519.692,-78.5 379.692,-78.5"/>
<text text-anchor="start" x="387.692" y="-107.5" font-family="Helvetica,sans-Serif" font-size="10.00">E:/Dropbox/BI_FIT_CVUT</text>
<text text-anchor="start" x="387.692" y="-96.5" font-family="Helvetica,sans-Serif" font-size="10.00">/2. semestr/PA2/GameBook</text>
<text text-anchor="middle" x="449.692" y="-85.5" font-family="Helvetica,sans-Serif" font-size="10.00">/Game.h</text>
</a>
</g>
</g>
<!-- Node16&#45;&gt;Node17 -->
<g id="edge6" class="edge"><title>Node16&#45;&gt;Node17</title>
<path fill="none" stroke="midnightblue" d="M400.442,-225.51C389.525,-205.621 379.836,-178.682 389.692,-156 395.996,-141.494 408.113,-129.039 419.818,-119.584"/>
<polygon fill="midnightblue" stroke="midnightblue" points="397.569,-227.53 405.648,-234.384 403.606,-223.988 397.569,-227.53"/>
</g>
<!-- Node16&#45;&gt;Node20 -->
<g id="edge9" class="edge"><title>Node16&#45;&gt;Node20</title>
<path fill="none" stroke="midnightblue" d="M499.852,-233.835C591.763,-214.702 617.486,-216.807 705.692,-198 708.598,-197.38 711.559,-196.728 714.546,-196.052"/>
<polygon fill="midnightblue" stroke="midnightblue" points="498.901,-230.458 489.839,-235.948 500.346,-237.308 498.901,-230.458"/>
</g>
<!-- Node16&#45;&gt;Node22 -->
<g id="edge12" class="edge"><title>Node16&#45;&gt;Node22</title>
<path fill="none" stroke="midnightblue" d="M372.822,-229.768C352.672,-219.35 329.434,-207.336 310.42,-197.506"/>
<polygon fill="midnightblue" stroke="midnightblue" points="371.346,-232.945 381.836,-234.428 374.561,-226.726 371.346,-232.945"/>
</g>
<!-- Node16&#45;&gt;Node24 -->
<g id="edge15" class="edge"><title>Node16&#45;&gt;Node24</title>
<path fill="none" stroke="midnightblue" d="M482.644,-230.887C511.703,-220.219 545.826,-207.69 573.565,-197.506"/>
<polygon fill="midnightblue" stroke="midnightblue" points="481.181,-227.696 473,-234.428 483.594,-234.267 481.181,-227.696"/>
</g>
<!-- Node26 -->
<g id="node16" class="node"><title>Node26</title>
<g id="a_node16"><a xlink:href="_world_8cpp.html" target="_top" xlink:title="E:/Dropbox/BI_FIT_CVUT\l/2. semestr/PA2/GameBook\l/World.cpp">
<polygon fill="none" stroke="black" points="398.692,-156.5 398.692,-197.5 538.692,-197.5 538.692,-156.5 398.692,-156.5"/>
<text text-anchor="start" x="406.692" y="-185.5" font-family="Helvetica,sans-Serif" font-size="10.00">E:/Dropbox/BI_FIT_CVUT</text>
<text text-anchor="start" x="406.692" y="-174.5" font-family="Helvetica,sans-Serif" font-size="10.00">/2. semestr/PA2/GameBook</text>
<text text-anchor="middle" x="468.692" y="-163.5" font-family="Helvetica,sans-Serif" font-size="10.00">/World.cpp</text>
</a>
</g>
</g>
<!-- Node16&#45;&gt;Node26 -->
<g id="edge18" class="edge"><title>Node16&#45;&gt;Node26</title>
<path fill="none" stroke="midnightblue" d="M437.902,-225.757C443.964,-216.354 450.578,-206.096 456.117,-197.506"/>
<polygon fill="midnightblue" stroke="midnightblue" points="434.788,-224.127 432.311,-234.428 440.672,-227.92 434.788,-224.127"/>
</g>
<!-- Node18 -->
<g id="node8" class="node"><title>Node18</title>
<g id="a_node8"><a xlink:href="_game_8cpp.html" target="_top" xlink:title="E:/Dropbox/BI_FIT_CVUT\l/2. semestr/PA2/GameBook\l/Game.cpp">
<polygon fill="none" stroke="black" points="300.692,-0.5 300.692,-41.5 440.692,-41.5 440.692,-0.5 300.692,-0.5"/>
<text text-anchor="start" x="308.692" y="-29.5" font-family="Helvetica,sans-Serif" font-size="10.00">E:/Dropbox/BI_FIT_CVUT</text>
<text text-anchor="start" x="308.692" y="-18.5" font-family="Helvetica,sans-Serif" font-size="10.00">/2. semestr/PA2/GameBook</text>
<text text-anchor="middle" x="370.692" y="-7.5" font-family="Helvetica,sans-Serif" font-size="10.00">/Game.cpp</text>
</a>
</g>
</g>
<!-- Node17&#45;&gt;Node18 -->
<g id="edge7" class="edge"><title>Node17&#45;&gt;Node18</title>
<path fill="none" stroke="midnightblue" d="M422.138,-71.4916C411.886,-61.6294 400.45,-50.6273 390.968,-41.5056"/>
<polygon fill="midnightblue" stroke="midnightblue" points="419.715,-74.0175 429.348,-78.4281 424.568,-68.9729 419.715,-74.0175"/>
</g>
<!-- Node19 -->
<g id="node9" class="node"><title>Node19</title>
<g id="a_node9"><a xlink:href="main_8cpp.html" target="_top" xlink:title="E:/Dropbox/BI_FIT_CVUT\l/2. semestr/PA2/GameBook\l/main.cpp">
<polygon fill="none" stroke="black" points="458.692,-0.5 458.692,-41.5 598.692,-41.5 598.692,-0.5 458.692,-0.5"/>
<text text-anchor="start" x="466.692" y="-29.5" font-family="Helvetica,sans-Serif" font-size="10.00">E:/Dropbox/BI_FIT_CVUT</text>
<text text-anchor="start" x="466.692" y="-18.5" font-family="Helvetica,sans-Serif" font-size="10.00">/2. semestr/PA2/GameBook</text>
<text text-anchor="middle" x="528.692" y="-7.5" font-family="Helvetica,sans-Serif" font-size="10.00">/main.cpp</text>
</a>
</g>
</g>
<!-- Node17&#45;&gt;Node19 -->
<g id="edge8" class="edge"><title>Node17&#45;&gt;Node19</title>
<path fill="none" stroke="midnightblue" d="M477.247,-71.4916C487.499,-61.6294 498.935,-50.6273 508.417,-41.5056"/>
<polygon fill="midnightblue" stroke="midnightblue" points="474.817,-68.9729 470.037,-78.4281 479.67,-74.0175 474.817,-68.9729"/>
</g>
<!-- Node20&#45;&gt;Node17 -->
<g id="edge10" class="edge"><title>Node20&#45;&gt;Node17</title>
<path fill="none" stroke="midnightblue" d="M704.46,-155.741C636.367,-139.772 569.018,-125.156 519.915,-114.717"/>
<polygon fill="midnightblue" stroke="midnightblue" points="703.974,-159.222 714.51,-158.106 705.578,-152.408 703.974,-159.222"/>
</g>
<!-- Node21 -->
<g id="node11" class="node"><title>Node21</title>
<g id="a_node11"><a xlink:href="_shopping_8cpp.html" target="_top" xlink:title="E:/Dropbox/BI_FIT_CVUT\l/2. semestr/PA2/GameBook\l/Shopping.cpp">
<polygon fill="none" stroke="black" points="714.692,-78.5 714.692,-119.5 854.692,-119.5 854.692,-78.5 714.692,-78.5"/>
<text text-anchor="start" x="722.692" y="-107.5" font-family="Helvetica,sans-Serif" font-size="10.00">E:/Dropbox/BI_FIT_CVUT</text>
<text text-anchor="start" x="722.692" y="-96.5" font-family="Helvetica,sans-Serif" font-size="10.00">/2. semestr/PA2/GameBook</text>
<text text-anchor="middle" x="784.692" y="-85.5" font-family="Helvetica,sans-Serif" font-size="10.00">/Shopping.cpp</text>
</a>
</g>
</g>
<!-- Node20&#45;&gt;Node21 -->
<g id="edge11" class="edge"><title>Node20&#45;&gt;Node21</title>
<path fill="none" stroke="midnightblue" d="M784.692,-146.297C784.692,-137.301 784.692,-127.653 784.692,-119.506"/>
<polygon fill="midnightblue" stroke="midnightblue" points="781.193,-146.428 784.692,-156.428 788.193,-146.428 781.193,-146.428"/>
</g>
<!-- Node22&#45;&gt;Node17 -->
<g id="edge13" class="edge"><title>Node22&#45;&gt;Node17</title>
<path fill="none" stroke="midnightblue" d="M327.495,-152.469C352.128,-141.892 380.855,-129.557 404.265,-119.506"/>
<polygon fill="midnightblue" stroke="midnightblue" points="326.082,-149.267 318.274,-156.428 328.844,-155.699 326.082,-149.267"/>
</g>
<!-- Node23 -->
<g id="node13" class="node"><title>Node23</title>
<g id="a_node13"><a xlink:href="_inventory_browser_8cpp.html" target="_top" xlink:title="E:/Dropbox/BI_FIT_CVUT\l/2. semestr/PA2/GameBook\l/InventoryBrowser.cpp">
<polygon fill="none" stroke="black" points="202.692,-78.5 202.692,-119.5 342.692,-119.5 342.692,-78.5 202.692,-78.5"/>
<text text-anchor="start" x="210.692" y="-107.5" font-family="Helvetica,sans-Serif" font-size="10.00">E:/Dropbox/BI_FIT_CVUT</text>
<text text-anchor="start" x="210.692" y="-96.5" font-family="Helvetica,sans-Serif" font-size="10.00">/2. semestr/PA2/GameBook</text>
<text text-anchor="middle" x="272.692" y="-85.5" font-family="Helvetica,sans-Serif" font-size="10.00">/InventoryBrowser.cpp</text>
</a>
</g>
</g>
<!-- Node22&#45;&gt;Node23 -->
<g id="edge14" class="edge"><title>Node22&#45;&gt;Node23</title>
<path fill="none" stroke="midnightblue" d="M272.692,-146.297C272.692,-137.301 272.692,-127.653 272.692,-119.506"/>
<polygon fill="midnightblue" stroke="midnightblue" points="269.193,-146.428 272.692,-156.428 276.193,-146.428 269.193,-146.428"/>
</g>
<!-- Node24&#45;&gt;Node17 -->
<g id="edge16" class="edge"><title>Node24&#45;&gt;Node17</title>
<path fill="none" stroke="midnightblue" d="M571.89,-152.469C547.257,-141.892 518.53,-129.557 495.12,-119.506"/>
<polygon fill="midnightblue" stroke="midnightblue" points="570.541,-155.699 581.111,-156.428 573.303,-149.267 570.541,-155.699"/>
</g>
<!-- Node25 -->
<g id="node15" class="node"><title>Node25</title>
<g id="a_node15"><a xlink:href="_interact_8cpp.html" target="_top" xlink:title="E:/Dropbox/BI_FIT_CVUT\l/2. semestr/PA2/GameBook\l/Interact.cpp">
<polygon fill="none" stroke="black" points="556.692,-78.5 556.692,-119.5 696.692,-119.5 696.692,-78.5 556.692,-78.5"/>
<text text-anchor="start" x="564.692" y="-107.5" font-family="Helvetica,sans-Serif" font-size="10.00">E:/Dropbox/BI_FIT_CVUT</text>
<text text-anchor="start" x="564.692" y="-96.5" font-family="Helvetica,sans-Serif" font-size="10.00">/2. semestr/PA2/GameBook</text>
<text text-anchor="middle" x="626.692" y="-85.5" font-family="Helvetica,sans-Serif" font-size="10.00">/Interact.cpp</text>
</a>
</g>
</g>
<!-- Node24&#45;&gt;Node25 -->
<g id="edge17" class="edge"><title>Node24&#45;&gt;Node25</title>
<path fill="none" stroke="midnightblue" d="M626.692,-146.297C626.692,-137.301 626.692,-127.653 626.692,-119.506"/>
<polygon fill="midnightblue" stroke="midnightblue" points="623.193,-146.428 626.692,-156.428 630.193,-146.428 623.193,-146.428"/>
</g>
<!-- Node27&#45;&gt;Node16 -->
<g id="edge21" class="edge"><title>Node27&#45;&gt;Node16</title>
<path fill="none" stroke="midnightblue" d="M339.293,-306.919C355.426,-296.702 373.792,-285.07 388.894,-275.506"/>
<polygon fill="midnightblue" stroke="midnightblue" points="337.171,-304.121 330.595,-312.428 340.916,-310.034 337.171,-304.121"/>
</g>
<!-- Node28 -->
<g id="node18" class="node"><title>Node28</title>
<g id="a_node18"><a xlink:href="_dialogue_n_c_p_8cpp.html" target="_top" xlink:title="E:/Dropbox/BI_FIT_CVUT\l/2. semestr/PA2/GameBook\l/DialogueNCP.cpp">
<polygon fill="none" stroke="black" points="191.692,-234.5 191.692,-275.5 331.692,-275.5 331.692,-234.5 191.692,-234.5"/>
<text text-anchor="start" x="199.692" y="-263.5" font-family="Helvetica,sans-Serif" font-size="10.00">E:/Dropbox/BI_FIT_CVUT</text>
<text text-anchor="start" x="199.692" y="-252.5" font-family="Helvetica,sans-Serif" font-size="10.00">/2. semestr/PA2/GameBook</text>
<text text-anchor="middle" x="261.692" y="-241.5" font-family="Helvetica,sans-Serif" font-size="10.00">/DialogueNCP.cpp</text>
</a>
</g>
</g>
<!-- Node27&#45;&gt;Node28 -->
<g id="edge20" class="edge"><title>Node27&#45;&gt;Node28</title>
<path fill="none" stroke="midnightblue" d="M285.425,-303.466C280.764,-294.143 275.696,-284.007 271.445,-275.506"/>
<polygon fill="midnightblue" stroke="midnightblue" points="282.304,-305.049 289.907,-312.428 288.565,-301.919 282.304,-305.049"/>
</g>
<!-- Node30&#45;&gt;Node16 -->
<g id="edge25" class="edge"><title>Node30&#45;&gt;Node16</title>
<path fill="none" stroke="midnightblue" d="M468.896,-305.204C459.108,-295.416 448.231,-284.539 439.198,-275.506"/>
<polygon fill="midnightblue" stroke="midnightblue" points="466.575,-307.832 476.121,-312.428 471.524,-302.882 466.575,-307.832"/>
</g>
<!-- Node31 -->
<g id="node21" class="node"><title>Node31</title>
<g id="a_node21"><a xlink:href="_fight_8cpp.html" target="_top" xlink:title="E:/Dropbox/BI_FIT_CVUT\l/2. semestr/PA2/GameBook\l/Fight.cpp">
<polygon fill="none" stroke="black" points="507.692,-234.5 507.692,-275.5 647.692,-275.5 647.692,-234.5 507.692,-234.5"/>
<text text-anchor="start" x="515.692" y="-263.5" font-family="Helvetica,sans-Serif" font-size="10.00">E:/Dropbox/BI_FIT_CVUT</text>
<text text-anchor="start" x="515.692" y="-252.5" font-family="Helvetica,sans-Serif" font-size="10.00">/2. semestr/PA2/GameBook</text>
<text text-anchor="middle" x="577.692" y="-241.5" font-family="Helvetica,sans-Serif" font-size="10.00">/Fight.cpp</text>
</a>
</g>
</g>
<!-- Node30&#45;&gt;Node31 -->
<g id="edge24" class="edge"><title>Node30&#45;&gt;Node31</title>
<path fill="none" stroke="midnightblue" d="M524.294,-305.492C534.934,-295.629 546.805,-284.627 556.647,-275.506"/>
<polygon fill="midnightblue" stroke="midnightblue" points="521.765,-303.063 516.81,-312.428 526.523,-308.197 521.765,-303.063"/>
</g>
<!-- Node32&#45;&gt;Node16 -->
<g id="edge28" class="edge"><title>Node32&#45;&gt;Node16</title>
<path fill="none" stroke="midnightblue" d="M583.812,-309.304C550.689,-298.546 511.516,-285.823 479.749,-275.506"/>
<polygon fill="midnightblue" stroke="midnightblue" points="582.84,-312.668 593.432,-312.428 585.002,-306.01 582.84,-312.668"/>
</g>
<!-- Node33 -->
<g id="node23" class="node"><title>Node33</title>
<g id="a_node23"><a xlink:href="_trap_8cpp.html" target="_top" xlink:title="E:/Dropbox/BI_FIT_CVUT\l/2. semestr/PA2/GameBook\l/Trap.cpp">
<polygon fill="none" stroke="black" points="665.692,-234.5 665.692,-275.5 805.692,-275.5 805.692,-234.5 665.692,-234.5"/>
<text text-anchor="start" x="673.692" y="-263.5" font-family="Helvetica,sans-Serif" font-size="10.00">E:/Dropbox/BI_FIT_CVUT</text>
<text text-anchor="start" x="673.692" y="-252.5" font-family="Helvetica,sans-Serif" font-size="10.00">/2. semestr/PA2/GameBook</text>
<text text-anchor="middle" x="735.692" y="-241.5" font-family="Helvetica,sans-Serif" font-size="10.00">/Trap.cpp</text>
</a>
</g>
</g>
<!-- Node32&#45;&gt;Node33 -->
<g id="edge29" class="edge"><title>Node32&#45;&gt;Node33</title>
<path fill="none" stroke="midnightblue" d="M682.294,-305.492C692.934,-295.629 704.805,-284.627 714.647,-275.506"/>
<polygon fill="midnightblue" stroke="midnightblue" points="679.765,-303.063 674.81,-312.428 684.523,-308.197 679.765,-303.063"/>
</g>
</g>
</svg>
