<?xml version="1.0" encoding="UTF-8" standalone="no"?>
<!DOCTYPE svg PUBLIC "-//W3C//DTD SVG 1.1//EN"
 "http://www.w3.org/Graphics/SVG/1.1/DTD/svg11.dtd">
<!-- Generated by graphviz version 2.38.0 (20140413.2041)
 -->
<!-- Title: E:/Dropbox/BI_FIT_CVUT/2. semestr/PA2/GameBook/World.cpp Pages: 1 -->
<svg width="1164pt" height="554pt"
 viewBox="0.00 0.00 1164.00 554.00" xmlns="http://www.w3.org/2000/svg" xmlns:xlink="http://www.w3.org/1999/xlink">
<g id="graph0" class="graph" transform="scale(1 1) rotate(0) translate(4 550)">
<title>E:/Dropbox/BI_FIT_CVUT/2. semestr/PA2/GameBook/World.cpp</title>
<!-- Node0 -->
<g id="node1" class="node"><title>Node0</title>
<polygon fill="#bfbfbf" stroke="black" points="533,-504.5 533,-545.5 673,-545.5 673,-504.5 533,-504.5"/>
<text text-anchor="start" x="541" y="-533.5" font-family="Helvetica,sans-Serif" font-size="10.00">E:/Dropbox/BI_FIT_CVUT</text>
<text text-anchor="start" x="541" y="-522.5" font-family="Helvetica,sans-Serif" font-size="10.00">/2. semestr/PA2/GameBook</text>
<text text-anchor="middle" x="603" y="-511.5" font-family="Helvetica,sans-Serif" font-size="10.00">/World.cpp</text>
</g>
<!-- Node1 -->
<g id="node2" class="node"><title>Node1</title>
<g id="a_node2"><a xlink:href="_world_8h.html" target="_top" xlink:title="World.h">
<polygon fill="none" stroke="black" points="578,-448.5 578,-467.5 628,-467.5 628,-448.5 578,-448.5"/>
<text text-anchor="middle" x="603" y="-455.5" font-family="Helvetica,sans-Serif" font-size="10.00">World.h</text>
</a>
</g>
</g>
<!-- Node0&#45;&gt;Node1 -->
<g id="edge1" class="edge"><title>Node0&#45;&gt;Node1</title>
<path fill="none" stroke="midnightblue" d="M603,-504.498C603,-496.065 603,-486.235 603,-477.874"/>
<polygon fill="midnightblue" stroke="midnightblue" points="606.5,-477.652 603,-467.652 599.5,-477.653 606.5,-477.652"/>
</g>
<!-- Node2 -->
<g id="node3" class="node"><title>Node2</title>
<polygon fill="none" stroke="#bfbfbf" points="318,-56.5 318,-75.5 372,-75.5 372,-56.5 318,-56.5"/>
<text text-anchor="middle" x="345" y="-63.5" font-family="Helvetica,sans-Serif" font-size="10.00">iostream</text>
</g>
<!-- Node1&#45;&gt;Node2 -->
<g id="edge2" class="edge"><title>Node1&#45;&gt;Node2</title>
<path fill="none" stroke="midnightblue" d="M577.706,-456.173C483.999,-452.434 162,-433.306 162,-347 162,-347 162,-347 162,-289 162,-190.225 271.201,-111.58 320.891,-80.907"/>
<polygon fill="midnightblue" stroke="midnightblue" points="322.96,-83.7464 329.712,-75.5817 319.342,-77.7538 322.96,-83.7464"/>
</g>
<!-- Node3 -->
<g id="node4" class="node"><title>Node3</title>
<polygon fill="none" stroke="#bfbfbf" points="609.5,-0.5 609.5,-19.5 650.5,-19.5 650.5,-0.5 609.5,-0.5"/>
<text text-anchor="middle" x="630" y="-7.5" font-family="Helvetica,sans-Serif" font-size="10.00">string</text>
</g>
<!-- Node1&#45;&gt;Node3 -->
<g id="edge3" class="edge"><title>Node1&#45;&gt;Node3</title>
<path fill="none" stroke="midnightblue" d="M577.818,-456.235C489.611,-453.321 195.122,-441.552 106,-412 53.5454,-394.606 0,-402.263 0,-347 0,-347 0,-347 0,-121 0,-73.7946 39.996,-73.0877 84,-56 179.17,-19.0435 498.684,-12.4242 599.354,-11.2502"/>
<polygon fill="midnightblue" stroke="midnightblue" points="599.503,-14.7489 609.465,-11.1424 599.428,-7.74932 599.503,-14.7489"/>
</g>
<!-- Node4 -->
<g id="node5" class="node"><title>Node4</title>
<polygon fill="none" stroke="#bfbfbf" points="923,-0.5 923,-19.5 965,-19.5 965,-0.5 923,-0.5"/>
<text text-anchor="middle" x="944" y="-7.5" font-family="Helvetica,sans-Serif" font-size="10.00">vector</text>
</g>
<!-- Node1&#45;&gt;Node4 -->
<g id="edge4" class="edge"><title>Node1&#45;&gt;Node4</title>
<path fill="none" stroke="midnightblue" d="M628.198,-457.429C736.381,-458.607 1156,-456.145 1156,-347 1156,-347 1156,-347 1156,-121 1156,-40.5869 1034.34,-18.8807 975.345,-13.0822"/>
<polygon fill="midnightblue" stroke="midnightblue" points="975.372,-9.57096 965.102,-12.1741 974.754,-16.5436 975.372,-9.57096"/>
</g>
<!-- Node5 -->
<g id="node6" class="node"><title>Node5</title>
<polygon fill="none" stroke="#bfbfbf" points="822.5,-280.5 822.5,-299.5 857.5,-299.5 857.5,-280.5 822.5,-280.5"/>
<text text-anchor="middle" x="840" y="-287.5" font-family="Helvetica,sans-Serif" font-size="10.00">map</text>
</g>
<!-- Node1&#45;&gt;Node5 -->
<g id="edge5" class="edge"><title>Node1&#45;&gt;Node5</title>
<path fill="none" stroke="midnightblue" d="M628.275,-454.493C676.524,-449.219 779.252,-435.487 805,-412 833.992,-385.555 839.537,-336.731 840.26,-309.895"/>
<polygon fill="midnightblue" stroke="midnightblue" points="843.762,-309.592 840.325,-299.57 836.762,-309.548 843.762,-309.592"/>
</g>
<!-- Node6 -->
<g id="node7" class="node"><title>Node6</title>
<polygon fill="none" stroke="#bfbfbf" points="734,-56.5 734,-75.5 764,-75.5 764,-56.5 734,-56.5"/>
<text text-anchor="middle" x="749" y="-63.5" font-family="Helvetica,sans-Serif" font-size="10.00">set</text>
</g>
<!-- Node1&#45;&gt;Node6 -->
<g id="edge6" class="edge"><title>Node1&#45;&gt;Node6</title>
<path fill="none" stroke="midnightblue" d="M605.337,-448.091C608.701,-435.496 615.249,-411.809 622,-392 632.599,-360.9 716.443,-149.102 741.776,-85.2092"/>
<polygon fill="midnightblue" stroke="midnightblue" points="745.126,-86.255 745.56,-75.669 738.619,-83.6743 745.126,-86.255"/>
</g>
<!-- Node7 -->
<g id="node8" class="node"><title>Node7</title>
<g id="a_node8"><a xlink:href="_i_ohandle_8h.html" target="_top" xlink:title="IOhandle.h">
<polygon fill="none" stroke="black" points="142.5,-112.5 142.5,-131.5 205.5,-131.5 205.5,-112.5 142.5,-112.5"/>
<text text-anchor="middle" x="174" y="-119.5" font-family="Helvetica,sans-Serif" font-size="10.00">IOhandle.h</text>
</a>
</g>
</g>
<!-- Node1&#45;&gt;Node7 -->
<g id="edge7" class="edge"><title>Node1&#45;&gt;Node7</title>
<path fill="none" stroke="midnightblue" d="M577.92,-456.789C494.12,-455.737 224.784,-449.451 148,-412 112.117,-394.498 86,-386.923 86,-347 86,-347 86,-347 86,-233 86,-191.032 125.541,-155.902 151.612,-137.3"/>
<polygon fill="midnightblue" stroke="midnightblue" points="153.597,-140.183 159.861,-131.639 149.636,-134.412 153.597,-140.183"/>
</g>
<!-- Node10 -->
<g id="node11" class="node"><title>Node10</title>
<g id="a_node11"><a xlink:href="_errors_list_8h.html" target="_top" xlink:title="ErrorsList.h">
<polygon fill="none" stroke="black" points="528.5,-56.5 528.5,-75.5 595.5,-75.5 595.5,-56.5 528.5,-56.5"/>
<text text-anchor="middle" x="562" y="-63.5" font-family="Helvetica,sans-Serif" font-size="10.00">ErrorsList.h</text>
</a>
</g>
</g>
<!-- Node1&#45;&gt;Node10 -->
<g id="edge19" class="edge"><title>Node1&#45;&gt;Node10</title>
<path fill="none" stroke="midnightblue" d="M577.694,-457.568C512.523,-457.586 344,-447.881 344,-347 344,-347 344,-347 344,-289 344,-196.613 382.648,-171.882 453,-112 471.86,-95.9471 497.235,-85.0171 518.757,-77.9531"/>
<polygon fill="midnightblue" stroke="midnightblue" points="519.827,-81.2858 528.337,-74.975 517.749,-74.6014 519.827,-81.2858"/>
</g>
<!-- Node11 -->
<g id="node12" class="node"><title>Node11</title>
<g id="a_node12"><a xlink:href="_stream_decoder_8h.html" target="_top" xlink:title="StreamDecoder.h">
<polygon fill="none" stroke="black" points="590,-112.5 590,-131.5 682,-131.5 682,-112.5 590,-112.5"/>
<text text-anchor="middle" x="636" y="-119.5" font-family="Helvetica,sans-Serif" font-size="10.00">StreamDecoder.h</text>
</a>
</g>
</g>
<!-- Node1&#45;&gt;Node11 -->
<g id="edge13" class="edge"><title>Node1&#45;&gt;Node11</title>
<path fill="none" stroke="midnightblue" d="M599.458,-448.222C591.795,-427.9 575.419,-376.278 589,-336 605.416,-287.314 642.584,-292.686 659,-244 661.84,-235.577 659.993,-232.833 659,-224 655.694,-194.597 647.137,-161.269 641.445,-141.207"/>
<polygon fill="midnightblue" stroke="midnightblue" points="644.784,-140.158 638.628,-131.535 638.064,-142.115 644.784,-140.158"/>
</g>
<!-- Node12 -->
<g id="node13" class="node"><title>Node12</title>
<g id="a_node13"><a xlink:href="_armour_8h.html" target="_top" xlink:title="Armour.h">
<polygon fill="none" stroke="black" points="260,-224.5 260,-243.5 316,-243.5 316,-224.5 260,-224.5"/>
<text text-anchor="middle" x="288" y="-231.5" font-family="Helvetica,sans-Serif" font-size="10.00">Armour.h</text>
</a>
</g>
</g>
<!-- Node1&#45;&gt;Node12 -->
<g id="edge20" class="edge"><title>Node1&#45;&gt;Node12</title>
<path fill="none" stroke="midnightblue" d="M577.774,-456.305C517.169,-454.109 365.742,-445.337 330,-412 285.193,-370.209 284.177,-290.107 286.313,-253.761"/>
<polygon fill="midnightblue" stroke="midnightblue" points="289.817,-253.833 287.066,-243.602 282.836,-253.316 289.817,-253.833"/>
</g>
<!-- Node19 -->
<g id="node20" class="node"><title>Node19</title>
<g id="a_node20"><a xlink:href="_sword_8h.html" target="_top" xlink:title="Sword.h">
<polygon fill="none" stroke="black" points="190,-224.5 190,-243.5 242,-243.5 242,-224.5 190,-224.5"/>
<text text-anchor="middle" x="216" y="-231.5" font-family="Helvetica,sans-Serif" font-size="10.00">Sword.h</text>
</a>
</g>
</g>
<!-- Node1&#45;&gt;Node19 -->
<g id="edge37" class="edge"><title>Node1&#45;&gt;Node19</title>
<path fill="none" stroke="midnightblue" d="M577.962,-455.968C515.348,-452.952 353.925,-442.358 311,-412 255.52,-372.763 229.46,-290.72 220.176,-253.76"/>
<polygon fill="midnightblue" stroke="midnightblue" points="223.535,-252.755 217.819,-243.834 216.724,-254.372 223.535,-252.755"/>
</g>
<!-- Node20 -->
<g id="node21" class="node"><title>Node20</title>
<g id="a_node21"><a xlink:href="_event_8h.html" target="_top" xlink:title="Event.h">
<polygon fill="none" stroke="black" points="765.5,-336.5 765.5,-355.5 814.5,-355.5 814.5,-336.5 765.5,-336.5"/>
<text text-anchor="middle" x="790" y="-343.5" font-family="Helvetica,sans-Serif" font-size="10.00">Event.h</text>
</a>
</g>
</g>
<!-- Node1&#45;&gt;Node20 -->
<g id="edge39" class="edge"><title>Node1&#45;&gt;Node20</title>
<path fill="none" stroke="midnightblue" d="M628.174,-454.45C673.482,-449.299 765.925,-436.049 786,-412 796.519,-399.398 796.393,-380.183 794.313,-365.91"/>
<polygon fill="midnightblue" stroke="midnightblue" points="797.688,-364.919 792.392,-355.743 790.81,-366.219 797.688,-364.919"/>
</g>
<!-- Node25 -->
<g id="node26" class="node"><title>Node25</title>
<g id="a_node26"><a xlink:href="_choice_8h.html" target="_top" xlink:title="Choice.h">
<polygon fill="none" stroke="black" points="954.5,-392.5 954.5,-411.5 1009.5,-411.5 1009.5,-392.5 954.5,-392.5"/>
<text text-anchor="middle" x="982" y="-399.5" font-family="Helvetica,sans-Serif" font-size="10.00">Choice.h</text>
</a>
</g>
</g>
<!-- Node1&#45;&gt;Node25 -->
<g id="edge62" class="edge"><title>Node1&#45;&gt;Node25</title>
<path fill="none" stroke="midnightblue" d="M628.237,-453.706C682.803,-446.538 815.82,-428.815 927,-412 932.561,-411.159 938.432,-410.236 944.185,-409.311"/>
<polygon fill="midnightblue" stroke="midnightblue" points="945.014,-412.723 954.323,-407.663 943.891,-405.813 945.014,-412.723"/>
</g>
<!-- Node26 -->
<g id="node27" class="node"><title>Node26</title>
<g id="a_node27"><a xlink:href="_dialogue_n_c_p_8h.html" target="_top" xlink:title="DialogueNCP.h">
<polygon fill="none" stroke="black" points="631.5,-392.5 631.5,-411.5 714.5,-411.5 714.5,-392.5 631.5,-392.5"/>
<text text-anchor="middle" x="673" y="-399.5" font-family="Helvetica,sans-Serif" font-size="10.00">DialogueNCP.h</text>
</a>
</g>
</g>
<!-- Node1&#45;&gt;Node26 -->
<g id="edge66" class="edge"><title>Node1&#45;&gt;Node26</title>
<path fill="none" stroke="midnightblue" d="M614.247,-448.324C624.797,-440.185 640.801,-427.839 653.442,-418.087"/>
<polygon fill="midnightblue" stroke="midnightblue" points="655.769,-420.713 661.549,-411.834 651.493,-415.171 655.769,-420.713"/>
</g>
<!-- Node27 -->
<g id="node28" class="node"><title>Node27</title>
<g id="a_node28"><a xlink:href="_fight_8h.html" target="_top" xlink:title="Fight.h">
<polygon fill="none" stroke="black" points="871.5,-392.5 871.5,-411.5 918.5,-411.5 918.5,-392.5 871.5,-392.5"/>
<text text-anchor="middle" x="895" y="-399.5" font-family="Helvetica,sans-Serif" font-size="10.00">Fight.h</text>
</a>
</g>
</g>
<!-- Node1&#45;&gt;Node27 -->
<g id="edge69" class="edge"><title>Node1&#45;&gt;Node27</title>
<path fill="none" stroke="midnightblue" d="M628.328,-453.006C674.121,-445.674 773.674,-429.234 857,-412 858.452,-411.7 859.934,-411.385 861.429,-411.06"/>
<polygon fill="midnightblue" stroke="midnightblue" points="862.345,-414.442 871.33,-408.827 860.805,-407.613 862.345,-414.442"/>
</g>
<!-- Node28 -->
<g id="node29" class="node"><title>Node28</title>
<g id="a_node29"><a xlink:href="_trap_8h.html" target="_top" xlink:title="Trap.h">
<polygon fill="none" stroke="black" points="733,-392.5 733,-411.5 777,-411.5 777,-392.5 733,-392.5"/>
<text text-anchor="middle" x="755" y="-399.5" font-family="Helvetica,sans-Serif" font-size="10.00">Trap.h</text>
</a>
</g>
</g>
<!-- Node1&#45;&gt;Node28 -->
<g id="edge73" class="edge"><title>Node1&#45;&gt;Node28</title>
<path fill="none" stroke="midnightblue" d="M627.085,-448.444C652.994,-439.239 694.323,-424.556 722.96,-414.383"/>
<polygon fill="midnightblue" stroke="midnightblue" points="724.263,-417.634 732.514,-410.988 721.92,-411.038 724.263,-417.634"/>
</g>
<!-- Node7&#45;&gt;Node2 -->
<g id="edge11" class="edge"><title>Node7&#45;&gt;Node2</title>
<path fill="none" stroke="midnightblue" d="M201.095,-112.444C229.988,-103.32 275.925,-88.8133 308.105,-78.6509"/>
<polygon fill="midnightblue" stroke="midnightblue" points="309.549,-81.8654 318.031,-75.5164 307.441,-75.1903 309.549,-81.8654"/>
</g>
<!-- Node7&#45;&gt;Node3 -->
<g id="edge10" class="edge"><title>Node7&#45;&gt;Node3</title>
<path fill="none" stroke="midnightblue" d="M179.604,-112.44C189.593,-97.9878 211.984,-69.05 239,-56 302.595,-25.2809 518.436,-14.8307 599.18,-11.9456"/>
<polygon fill="midnightblue" stroke="midnightblue" points="599.338,-15.4423 609.212,-11.6016 599.098,-8.44645 599.338,-15.4423"/>
</g>
<!-- Node8 -->
<g id="node9" class="node"><title>Node8</title>
<polygon fill="none" stroke="#bfbfbf" points="142.5,-56.5 142.5,-75.5 191.5,-75.5 191.5,-56.5 142.5,-56.5"/>
<text text-anchor="middle" x="167" y="-63.5" font-family="Helvetica,sans-Serif" font-size="10.00">fstream</text>
</g>
<!-- Node7&#45;&gt;Node8 -->
<g id="edge8" class="edge"><title>Node7&#45;&gt;Node8</title>
<path fill="none" stroke="midnightblue" d="M172.844,-112.083C171.916,-104.927 170.582,-94.6353 169.423,-85.6911"/>
<polygon fill="midnightblue" stroke="midnightblue" points="172.891,-85.2181 168.134,-75.7511 165.949,-86.1181 172.891,-85.2181"/>
</g>
<!-- Node9 -->
<g id="node10" class="node"><title>Node9</title>
<polygon fill="none" stroke="#bfbfbf" points="248,-56.5 248,-75.5 300,-75.5 300,-56.5 248,-56.5"/>
<text text-anchor="middle" x="274" y="-63.5" font-family="Helvetica,sans-Serif" font-size="10.00">sstream</text>
</g>
<!-- Node7&#45;&gt;Node9 -->
<g id="edge9" class="edge"><title>Node7&#45;&gt;Node9</title>
<path fill="none" stroke="midnightblue" d="M190.067,-112.324C205.958,-103.743 230.507,-90.486 248.958,-80.5224"/>
<polygon fill="midnightblue" stroke="midnightblue" points="250.837,-83.4857 257.973,-75.6545 247.511,-77.3264 250.837,-83.4857"/>
</g>
<!-- Node7&#45;&gt;Node10 -->
<g id="edge12" class="edge"><title>Node7&#45;&gt;Node10</title>
<path fill="none" stroke="midnightblue" d="M205.752,-116.581C274.949,-106.95 439.456,-84.0552 518.341,-73.0763"/>
<polygon fill="midnightblue" stroke="midnightblue" points="519.01,-76.5169 528.432,-71.6718 518.045,-69.5838 519.01,-76.5169"/>
</g>
<!-- Node11&#45;&gt;Node3 -->
<g id="edge14" class="edge"><title>Node11&#45;&gt;Node3</title>
<path fill="none" stroke="midnightblue" d="M635.529,-112.368C634.561,-94.617 632.327,-53.6664 631.014,-29.5974"/>
<polygon fill="midnightblue" stroke="midnightblue" points="634.508,-29.3859 630.469,-19.5914 627.519,-29.7672 634.508,-29.3859"/>
</g>
<!-- Node11&#45;&gt;Node4 -->
<g id="edge16" class="edge"><title>Node11&#45;&gt;Node4</title>
<path fill="none" stroke="midnightblue" d="M645.025,-112.309C660.221,-98.1908 692.457,-70.4051 725,-56 788.12,-28.0596 869.228,-17.2224 912.872,-13.2093"/>
<polygon fill="midnightblue" stroke="midnightblue" points="913.209,-16.6934 922.873,-12.3501 912.61,-9.71908 913.209,-16.6934"/>
</g>
<!-- Node11&#45;&gt;Node6 -->
<g id="edge17" class="edge"><title>Node11&#45;&gt;Node6</title>
<path fill="none" stroke="midnightblue" d="M653.905,-112.444C673.01,-103.314 703.391,-88.7955 724.658,-78.6323"/>
<polygon fill="midnightblue" stroke="midnightblue" points="726.202,-81.7739 733.715,-74.3042 723.184,-75.458 726.202,-81.7739"/>
</g>
<!-- Node11&#45;&gt;Node9 -->
<g id="edge15" class="edge"><title>Node11&#45;&gt;Node9</title>
<path fill="none" stroke="midnightblue" d="M589.962,-116.353C528.335,-109.761 415.48,-96.3904 310.141,-76.035"/>
<polygon fill="midnightblue" stroke="midnightblue" points="310.785,-72.5948 300.299,-74.1082 309.44,-79.4644 310.785,-72.5948"/>
</g>
<!-- Node11&#45;&gt;Node10 -->
<g id="edge18" class="edge"><title>Node11&#45;&gt;Node10</title>
<path fill="none" stroke="midnightblue" d="M624.111,-112.324C612.85,-104.107 595.713,-91.6017 582.291,-81.8069"/>
<polygon fill="midnightblue" stroke="midnightblue" points="584.247,-78.9014 574.106,-75.8339 580.12,-84.5559 584.247,-78.9014"/>
</g>
<!-- Node13 -->
<g id="node14" class="node"><title>Node13</title>
<g id="a_node14"><a xlink:href="_item_8h.html" target="_top" xlink:title="Item.h">
<polygon fill="none" stroke="black" points="276,-168.5 276,-187.5 320,-187.5 320,-168.5 276,-168.5"/>
<text text-anchor="middle" x="298" y="-175.5" font-family="Helvetica,sans-Serif" font-size="10.00">Item.h</text>
</a>
</g>
</g>
<!-- Node12&#45;&gt;Node13 -->
<g id="edge21" class="edge"><title>Node12&#45;&gt;Node13</title>
<path fill="none" stroke="midnightblue" d="M289.651,-224.083C290.976,-216.927 292.882,-206.635 294.539,-197.691"/>
<polygon fill="midnightblue" stroke="midnightblue" points="298,-198.221 296.379,-187.751 291.117,-196.947 298,-198.221"/>
</g>
<!-- Node13&#45;&gt;Node2 -->
<g id="edge22" class="edge"><title>Node13&#45;&gt;Node2</title>
<path fill="none" stroke="midnightblue" d="M295.415,-168.135C292.135,-155.182 287.826,-130.606 296,-112 301.39,-99.732 311.958,-89.3414 321.904,-81.6461"/>
<polygon fill="midnightblue" stroke="midnightblue" points="324.252,-84.2697 330.339,-75.598 320.172,-78.5811 324.252,-84.2697"/>
</g>
<!-- Node13&#45;&gt;Node3 -->
<g id="edge23" class="edge"><title>Node13&#45;&gt;Node3</title>
<path fill="none" stroke="midnightblue" d="M275.782,-174.26C234.902,-168.712 150.347,-154.712 133,-132 112.497,-105.157 110.218,-80.9381 133,-56 164.499,-21.52 495.513,-13.1991 599.155,-11.432"/>
<polygon fill="midnightblue" stroke="midnightblue" points="599.339,-14.9296 609.281,-11.2682 599.225,-7.93052 599.339,-14.9296"/>
</g>
<!-- Node14 -->
<g id="node15" class="node"><title>Node14</title>
<g id="a_node15"><a xlink:href="_display_8h.html" target="_top" xlink:title="Display.h">
<polygon fill="none" stroke="black" points="896.5,-112.5 896.5,-131.5 953.5,-131.5 953.5,-112.5 896.5,-112.5"/>
<text text-anchor="middle" x="925" y="-119.5" font-family="Helvetica,sans-Serif" font-size="10.00">Display.h</text>
</a>
</g>
</g>
<!-- Node13&#45;&gt;Node14 -->
<g id="edge24" class="edge"><title>Node13&#45;&gt;Node14</title>
<path fill="none" stroke="midnightblue" d="M320.031,-175.474C394.409,-170.261 643.027,-152.358 848,-132 860.327,-130.776 873.743,-129.268 885.872,-127.84"/>
<polygon fill="midnightblue" stroke="midnightblue" points="886.625,-131.275 896.14,-126.614 885.795,-124.324 886.625,-131.275"/>
</g>
<!-- Node17 -->
<g id="node18" class="node"><title>Node17</title>
<g id="a_node18"><a xlink:href="_equipment_8h.html" target="_top" xlink:title="Equipment.h">
<polygon fill="none" stroke="black" points="462.5,-112.5 462.5,-131.5 533.5,-131.5 533.5,-112.5 462.5,-112.5"/>
<text text-anchor="middle" x="498" y="-119.5" font-family="Helvetica,sans-Serif" font-size="10.00">Equipment.h</text>
</a>
</g>
</g>
<!-- Node13&#45;&gt;Node17 -->
<g id="edge34" class="edge"><title>Node13&#45;&gt;Node17</title>
<path fill="none" stroke="midnightblue" d="M320.168,-171.015C352.959,-162.161 414.97,-145.418 456.398,-134.233"/>
<polygon fill="midnightblue" stroke="midnightblue" points="457.455,-137.572 466.197,-131.587 455.631,-130.814 457.455,-137.572"/>
</g>
<!-- Node18 -->
<g id="node19" class="node"><title>Node18</title>
<g id="a_node19"><a xlink:href="_hero_stats_8h.html" target="_top" xlink:title="HeroStats.h">
<polygon fill="none" stroke="black" points="338,-112.5 338,-131.5 406,-131.5 406,-112.5 338,-112.5"/>
<text text-anchor="middle" x="372" y="-119.5" font-family="Helvetica,sans-Serif" font-size="10.00">HeroStats.h</text>
</a>
</g>
</g>
<!-- Node13&#45;&gt;Node18 -->
<g id="edge35" class="edge"><title>Node13&#45;&gt;Node18</title>
<path fill="none" stroke="midnightblue" d="M309.889,-168.324C321.15,-160.107 338.287,-147.602 351.709,-137.807"/>
<polygon fill="midnightblue" stroke="midnightblue" points="353.88,-140.556 359.894,-131.834 349.753,-134.901 353.88,-140.556"/>
</g>
<!-- Node14&#45;&gt;Node2 -->
<g id="edge27" class="edge"><title>Node14&#45;&gt;Node2</title>
<path fill="none" stroke="midnightblue" d="M896.498,-117.482C881.989,-115.738 864.066,-113.657 848,-112 673.829,-94.0336 465.291,-76.713 382.002,-69.9644"/>
<polygon fill="midnightblue" stroke="midnightblue" points="382.265,-66.4743 372.015,-69.1573 381.701,-73.4516 382.265,-66.4743"/>
</g>
<!-- Node14&#45;&gt;Node3 -->
<g id="edge26" class="edge"><title>Node14&#45;&gt;Node3</title>
<path fill="none" stroke="midnightblue" d="M921.83,-112.179C916.2,-97.8732 903.03,-69.8242 882,-56 845.99,-32.3288 719.924,-18.6974 660.909,-13.4788"/>
<polygon fill="midnightblue" stroke="midnightblue" points="660.97,-9.97117 650.707,-12.6017 660.37,-16.9454 660.97,-9.97117"/>
</g>
<!-- Node14&#45;&gt;Node4 -->
<g id="edge25" class="edge"><title>Node14&#45;&gt;Node4</title>
<path fill="none" stroke="midnightblue" d="M926.491,-112.368C929.557,-94.617 936.63,-53.6664 940.788,-29.5974"/>
<polygon fill="midnightblue" stroke="midnightblue" points="944.263,-30.0413 942.516,-19.5914 937.365,-28.8498 944.263,-30.0413"/>
</g>
<!-- Node14&#45;&gt;Node10 -->
<g id="edge29" class="edge"><title>Node14&#45;&gt;Node10</title>
<path fill="none" stroke="midnightblue" d="M896.213,-116.718C832.871,-107.295 681.082,-84.7147 605.828,-73.5199"/>
<polygon fill="midnightblue" stroke="midnightblue" points="606.141,-70.028 595.735,-72.0184 605.111,-76.9518 606.141,-70.028"/>
</g>
<!-- Node15 -->
<g id="node16" class="node"><title>Node15</title>
<g id="a_node16"><a xlink:href="_actions_list_8h.html" target="_top" xlink:title="ActionsList.h">
<polygon fill="none" stroke="black" points="1047,-0.5 1047,-19.5 1121,-19.5 1121,-0.5 1047,-0.5"/>
<text text-anchor="middle" x="1084" y="-7.5" font-family="Helvetica,sans-Serif" font-size="10.00">ActionsList.h</text>
</a>
</g>
</g>
<!-- Node14&#45;&gt;Node15 -->
<g id="edge28" class="edge"><title>Node14&#45;&gt;Node15</title>
<path fill="none" stroke="midnightblue" d="M953.651,-117.802C998.33,-112.159 1081.33,-98.821 1099,-76 1109.6,-62.3099 1102.7,-42.442 1095.13,-28.2806"/>
<polygon fill="midnightblue" stroke="midnightblue" points="1098.07,-26.3799 1089.99,-19.5342 1092.04,-29.9284 1098.07,-26.3799"/>
</g>
<!-- Node16 -->
<g id="node17" class="node"><title>Node16</title>
<g id="a_node17"><a xlink:href="_game_menus_8h.html" target="_top" xlink:title="GameMenus.h">
<polygon fill="none" stroke="black" points="1010,-56.5 1010,-75.5 1090,-75.5 1090,-56.5 1010,-56.5"/>
<text text-anchor="middle" x="1050" y="-63.5" font-family="Helvetica,sans-Serif" font-size="10.00">GameMenus.h</text>
</a>
</g>
</g>
<!-- Node14&#45;&gt;Node16 -->
<g id="edge30" class="edge"><title>Node14&#45;&gt;Node16</title>
<path fill="none" stroke="midnightblue" d="M944.807,-112.444C965.287,-103.596 997.483,-89.6875 1020.86,-79.5865"/>
<polygon fill="midnightblue" stroke="midnightblue" points="1022.49,-82.6953 1030.29,-75.5164 1019.72,-76.2692 1022.49,-82.6953"/>
</g>
<!-- Node16&#45;&gt;Node3 -->
<g id="edge31" class="edge"><title>Node16&#45;&gt;Node3</title>
<path fill="none" stroke="midnightblue" d="M1009.93,-58.1248C1005.24,-57.3784 1000.52,-56.6535 996,-56 872.018,-38.0547 723.731,-21.2512 660.734,-14.3288"/>
<polygon fill="midnightblue" stroke="midnightblue" points="661,-10.8371 650.678,-13.2283 660.238,-17.7955 661,-10.8371"/>
</g>
<!-- Node16&#45;&gt;Node4 -->
<g id="edge32" class="edge"><title>Node16&#45;&gt;Node4</title>
<path fill="none" stroke="midnightblue" d="M1032.97,-56.324C1015.97,-47.6641 989.624,-34.2424 970.007,-24.249"/>
<polygon fill="midnightblue" stroke="midnightblue" points="971.488,-21.0752 960.988,-19.6545 968.31,-27.3125 971.488,-21.0752"/>
</g>
<!-- Node16&#45;&gt;Node15 -->
<g id="edge33" class="edge"><title>Node16&#45;&gt;Node15</title>
<path fill="none" stroke="midnightblue" d="M1055.61,-56.083C1060.37,-48.5341 1067.32,-37.4948 1073.15,-28.2298"/>
<polygon fill="midnightblue" stroke="midnightblue" points="1076.12,-30.0783 1078.49,-19.7511 1070.2,-26.3486 1076.12,-30.0783"/>
</g>
<!-- Node18&#45;&gt;Node3 -->
<g id="edge36" class="edge"><title>Node18&#45;&gt;Node3</title>
<path fill="none" stroke="midnightblue" d="M390.947,-112.396C418.865,-99.769 472.752,-75.5941 519,-56 546.353,-44.4114 577.744,-31.7431 600.149,-22.809"/>
<polygon fill="midnightblue" stroke="midnightblue" points="601.465,-26.0523 609.463,-19.1036 598.877,-19.5481 601.465,-26.0523"/>
</g>
<!-- Node19&#45;&gt;Node13 -->
<g id="edge38" class="edge"><title>Node19&#45;&gt;Node13</title>
<path fill="none" stroke="midnightblue" d="M229.175,-224.324C241.847,-215.979 261.233,-203.212 276.206,-193.352"/>
<polygon fill="midnightblue" stroke="midnightblue" points="278.431,-196.078 284.858,-187.655 274.581,-190.231 278.431,-196.078"/>
</g>
<!-- Node20&#45;&gt;Node3 -->
<g id="edge40" class="edge"><title>Node20&#45;&gt;Node3</title>
<path fill="none" stroke="midnightblue" d="M765.417,-342.192C657.637,-329.711 230.036,-278.373 181,-244 134.233,-211.218 132.965,-187.117 118,-132 109.149,-99.3996 94.1809,-80.9084 117,-56 149.661,-20.3488 493.422,-12.817 599.201,-11.3387"/>
<polygon fill="midnightblue" stroke="midnightblue" points="599.282,-14.838 609.236,-11.2069 599.19,-7.8386 599.282,-14.838"/>
</g>
<!-- Node20&#45;&gt;Node5 -->
<g id="edge41" class="edge"><title>Node20&#45;&gt;Node5</title>
<path fill="none" stroke="midnightblue" d="M798.256,-336.083C805.465,-328.298 816.11,-316.801 824.846,-307.367"/>
<polygon fill="midnightblue" stroke="midnightblue" points="827.671,-309.467 831.897,-299.751 822.535,-304.711 827.671,-309.467"/>
</g>
<!-- Node20&#45;&gt;Node14 -->
<g id="edge42" class="edge"><title>Node20&#45;&gt;Node14</title>
<path fill="none" stroke="midnightblue" d="M791.68,-336.426C794.515,-323.416 801.134,-298.271 813,-280 845.362,-230.169 880.511,-239.584 910,-188 918.173,-173.704 921.894,-155.237 923.588,-141.642"/>
<polygon fill="midnightblue" stroke="midnightblue" points="927.083,-141.863 924.587,-131.567 920.117,-141.173 927.083,-141.863"/>
</g>
<!-- Node21 -->
<g id="node22" class="node"><title>Node21</title>
<g id="a_node22"><a xlink:href="_hero_8h.html" target="_top" xlink:title="Hero.h">
<polygon fill="none" stroke="black" points="530.5,-280.5 530.5,-299.5 575.5,-299.5 575.5,-280.5 530.5,-280.5"/>
<text text-anchor="middle" x="553" y="-287.5" font-family="Helvetica,sans-Serif" font-size="10.00">Hero.h</text>
</a>
</g>
</g>
<!-- Node20&#45;&gt;Node21 -->
<g id="edge43" class="edge"><title>Node20&#45;&gt;Node21</title>
<path fill="none" stroke="midnightblue" d="M765.085,-339.323C722.014,-329.51 633.658,-309.378 585.704,-298.452"/>
<polygon fill="midnightblue" stroke="midnightblue" points="586.362,-295.012 575.835,-296.203 584.807,-301.837 586.362,-295.012"/>
</g>
<!-- Node21&#45;&gt;Node2 -->
<g id="edge44" class="edge"><title>Node21&#45;&gt;Node2</title>
<path fill="none" stroke="midnightblue" d="M530.267,-281.388C482.273,-263.916 371.539,-215.858 329,-132 321.385,-116.988 327.509,-98.1553 334.263,-84.6311"/>
<polygon fill="midnightblue" stroke="midnightblue" points="337.34,-86.299 339.105,-75.8522 331.21,-82.9184 337.34,-86.299"/>
</g>
<!-- Node21&#45;&gt;Node3 -->
<g id="edge45" class="edge"><title>Node21&#45;&gt;Node3</title>
<path fill="none" stroke="midnightblue" d="M575.817,-285.261C599.891,-280.126 637.287,-268.567 659,-244 693.284,-205.21 683.819,-183.269 691,-132 696.729,-91.0956 665.908,-49.3849 645.977,-27.2134"/>
<polygon fill="midnightblue" stroke="midnightblue" points="648.354,-24.6317 638.97,-19.715 643.24,-29.4111 648.354,-24.6317"/>
</g>
<!-- Node21&#45;&gt;Node10 -->
<g id="edge54" class="edge"><title>Node21&#45;&gt;Node10</title>
<path fill="none" stroke="midnightblue" d="M553.353,-280.297C554.677,-247.633 559.37,-131.866 561.231,-85.9573"/>
<polygon fill="midnightblue" stroke="midnightblue" points="564.732,-86.0173 561.64,-75.8837 557.738,-85.7337 564.732,-86.0173"/>
</g>
<!-- Node21&#45;&gt;Node11 -->
<g id="edge61" class="edge"><title>Node21&#45;&gt;Node11</title>
<path fill="none" stroke="midnightblue" d="M557.462,-280.075C570.64,-253.719 609.561,-175.878 627.17,-140.661"/>
<polygon fill="midnightblue" stroke="midnightblue" points="630.374,-142.078 631.716,-131.568 624.113,-138.947 630.374,-142.078"/>
</g>
<!-- Node21&#45;&gt;Node12 -->
<g id="edge56" class="edge"><title>Node21&#45;&gt;Node12</title>
<path fill="none" stroke="midnightblue" d="M530.406,-284.396C484.923,-275.128 381.897,-254.134 325.919,-242.727"/>
<polygon fill="midnightblue" stroke="midnightblue" points="326.536,-239.281 316.038,-240.713 325.138,-246.14 326.536,-239.281"/>
</g>
<!-- Node21&#45;&gt;Node13 -->
<g id="edge58" class="edge"><title>Node21&#45;&gt;Node13</title>
<path fill="none" stroke="midnightblue" d="M530.471,-283.928C501.083,-276.904 448.415,-262.912 406,-244 373.964,-229.716 339.708,-207.838 318.569,-193.475"/>
<polygon fill="midnightblue" stroke="midnightblue" points="320.318,-190.43 310.096,-187.641 316.348,-196.195 320.318,-190.43"/>
</g>
<!-- Node21&#45;&gt;Node14 -->
<g id="edge55" class="edge"><title>Node21&#45;&gt;Node14</title>
<path fill="none" stroke="midnightblue" d="M575.647,-288.518C634.549,-286.071 794.383,-271.639 887,-188 901.364,-175.028 911.824,-155.318 918.091,-141.004"/>
<polygon fill="midnightblue" stroke="midnightblue" points="921.347,-142.287 921.909,-131.707 914.872,-139.628 921.347,-142.287"/>
</g>
<!-- Node21&#45;&gt;Node17 -->
<g id="edge59" class="edge"><title>Node21&#45;&gt;Node17</title>
<path fill="none" stroke="midnightblue" d="M544.854,-280.447C537.202,-271.907 526.05,-258.061 520,-244 505.285,-209.798 500.409,-166.046 498.796,-141.625"/>
<polygon fill="midnightblue" stroke="midnightblue" points="502.288,-141.386 498.248,-131.592 495.298,-141.768 502.288,-141.386"/>
</g>
<!-- Node21&#45;&gt;Node18 -->
<g id="edge60" class="edge"><title>Node21&#45;&gt;Node18</title>
<path fill="none" stroke="midnightblue" d="M543.269,-280.075C513.914,-253.153 425.988,-172.514 388.85,-138.453"/>
<polygon fill="midnightblue" stroke="midnightblue" points="391.078,-135.748 381.342,-131.568 386.347,-140.907 391.078,-135.748"/>
</g>
<!-- Node21&#45;&gt;Node19 -->
<g id="edge57" class="edge"><title>Node21&#45;&gt;Node19</title>
<path fill="none" stroke="midnightblue" d="M530.128,-286.415C481.011,-280.688 361.658,-265.842 252.188,-244.067"/>
<polygon fill="midnightblue" stroke="midnightblue" points="252.8,-240.62 242.306,-242.076 251.418,-247.482 252.8,-240.62"/>
</g>
<!-- Node22 -->
<g id="node23" class="node"><title>Node22</title>
<polygon fill="none" stroke="#bfbfbf" points="600,-224.5 600,-243.5 650,-243.5 650,-224.5 600,-224.5"/>
<text text-anchor="middle" x="625" y="-231.5" font-family="Helvetica,sans-Serif" font-size="10.00">typeinfo</text>
</g>
<!-- Node21&#45;&gt;Node22 -->
<g id="edge46" class="edge"><title>Node21&#45;&gt;Node22</title>
<path fill="none" stroke="midnightblue" d="M564.568,-280.324C575.42,-272.185 591.881,-259.839 604.883,-250.087"/>
<polygon fill="midnightblue" stroke="midnightblue" points="607.321,-252.634 613.221,-243.834 603.121,-247.034 607.321,-252.634"/>
</g>
<!-- Node23 -->
<g id="node24" class="node"><title>Node23</title>
<g id="a_node24"><a xlink:href="_creature_8h.html" target="_top" xlink:title="Creature.h">
<polygon fill="none" stroke="black" points="816,-168.5 816,-187.5 878,-187.5 878,-168.5 816,-168.5"/>
<text text-anchor="middle" x="847" y="-175.5" font-family="Helvetica,sans-Serif" font-size="10.00">Creature.h</text>
</a>
</g>
</g>
<!-- Node21&#45;&gt;Node23 -->
<g id="edge47" class="edge"><title>Node21&#45;&gt;Node23</title>
<path fill="none" stroke="midnightblue" d="M575.657,-285.182C609.9,-278.982 676.516,-265.24 730,-244 765.115,-230.055 802.823,-207.602 825.664,-193.075"/>
<polygon fill="midnightblue" stroke="midnightblue" points="827.704,-195.924 834.213,-187.565 823.911,-190.041 827.704,-195.924"/>
</g>
<!-- Node24 -->
<g id="node25" class="node"><title>Node24</title>
<g id="a_node25"><a xlink:href="_inventory_8h.html" target="_top" xlink:title="Inventory.h">
<polygon fill="none" stroke="black" points="776.5,-112.5 776.5,-131.5 839.5,-131.5 839.5,-112.5 776.5,-112.5"/>
<text text-anchor="middle" x="808" y="-119.5" font-family="Helvetica,sans-Serif" font-size="10.00">Inventory.h</text>
</a>
</g>
</g>
<!-- Node21&#45;&gt;Node24 -->
<g id="edge50" class="edge"><title>Node21&#45;&gt;Node24</title>
<path fill="none" stroke="midnightblue" d="M575.634,-285.225C604.41,-279.66 654.816,-267.302 692,-244 737.22,-215.663 777.177,-165.835 796.209,-139.846"/>
<polygon fill="midnightblue" stroke="midnightblue" points="799.052,-141.886 802.042,-131.722 793.366,-137.803 799.052,-141.886"/>
</g>
<!-- Node23&#45;&gt;Node3 -->
<g id="edge48" class="edge"><title>Node23&#45;&gt;Node3</title>
<path fill="none" stroke="midnightblue" d="M849.175,-168.215C851.914,-155.362 855.425,-130.909 848,-112 835.585,-80.3858 825.069,-73.5662 796,-56 753.27,-30.1784 695.543,-18.8904 660.638,-14.1664"/>
<polygon fill="midnightblue" stroke="midnightblue" points="660.938,-10.6767 650.58,-12.9022 660.065,-17.622 660.938,-10.6767"/>
</g>
<!-- Node23&#45;&gt;Node14 -->
<g id="edge49" class="edge"><title>Node23&#45;&gt;Node14</title>
<path fill="none" stroke="midnightblue" d="M859.532,-168.324C871.586,-159.979 890.027,-147.212 904.269,-137.352"/>
<polygon fill="midnightblue" stroke="midnightblue" points="906.269,-140.224 912.499,-131.655 902.285,-134.469 906.269,-140.224"/>
</g>
<!-- Node24&#45;&gt;Node3 -->
<g id="edge53" class="edge"><title>Node24&#45;&gt;Node3</title>
<path fill="none" stroke="midnightblue" d="M805.702,-112.485C801.524,-98.6203 791.373,-71.1903 773,-56 740.703,-29.2967 692.462,-18.3824 661.111,-13.9594"/>
<polygon fill="midnightblue" stroke="midnightblue" points="661.141,-10.4353 650.78,-12.6504 660.261,-17.3798 661.141,-10.4353"/>
</g>
<!-- Node24&#45;&gt;Node4 -->
<g id="edge52" class="edge"><title>Node24&#45;&gt;Node4</title>
<path fill="none" stroke="midnightblue" d="M818.672,-112.368C841.711,-93.7334 896.36,-49.5324 925.289,-26.1338"/>
<polygon fill="midnightblue" stroke="midnightblue" points="927.804,-28.6014 933.378,-19.5914 923.402,-23.1589 927.804,-28.6014"/>
</g>
<!-- Node24&#45;&gt;Node6 -->
<g id="edge51" class="edge"><title>Node24&#45;&gt;Node6</title>
<path fill="none" stroke="midnightblue" d="M798.521,-112.324C789.799,-104.341 776.657,-92.3128 766.102,-82.6529"/>
<polygon fill="midnightblue" stroke="midnightblue" points="768.392,-80.0036 758.652,-75.8339 763.666,-85.1674 768.392,-80.0036"/>
</g>
<!-- Node25&#45;&gt;Node3 -->
<g id="edge63" class="edge"><title>Node25&#45;&gt;Node3</title>
<path fill="none" stroke="midnightblue" d="M987.284,-392.231C997.725,-374.043 1020,-330.601 1020,-291 1020,-291 1020,-291 1020,-177 1020,-21.0984 752.891,-9.54753 660.783,-10.1989"/>
<polygon fill="midnightblue" stroke="midnightblue" points="660.648,-6.70027 650.693,-10.3255 660.736,-13.6997 660.648,-6.70027"/>
</g>
<!-- Node25&#45;&gt;Node16 -->
<g id="edge65" class="edge"><title>Node25&#45;&gt;Node16</title>
<path fill="none" stroke="midnightblue" d="M995.203,-392.46C1006.84,-384.33 1023.53,-371.116 1034,-356 1051.53,-330.681 1058,-321.795 1058,-291 1058,-291 1058,-291 1058,-177 1058,-144.863 1054.56,-107.584 1052.19,-85.7187"/>
<polygon fill="midnightblue" stroke="midnightblue" points="1055.64,-85.0874 1051.05,-75.5424 1048.69,-85.8715 1055.64,-85.0874"/>
</g>
<!-- Node25&#45;&gt;Node20 -->
<g id="edge64" class="edge"><title>Node25&#45;&gt;Node20</title>
<path fill="none" stroke="midnightblue" d="M954.491,-393.263C920.276,-383.64 861.84,-367.205 824.614,-356.735"/>
<polygon fill="midnightblue" stroke="midnightblue" points="825.289,-353.289 814.715,-353.951 823.394,-360.028 825.289,-353.289"/>
</g>
<!-- Node26&#45;&gt;Node3 -->
<g id="edge67" class="edge"><title>Node26&#45;&gt;Node3</title>
<path fill="none" stroke="midnightblue" d="M631.366,-399.371C535.822,-393.529 297.997,-366.748 154,-244 88.0245,-187.76 43.3594,-119.851 102,-56 135.729,-19.2739 491.023,-12.4787 599.03,-11.2588"/>
<polygon fill="midnightblue" stroke="midnightblue" points="599.297,-14.7563 609.26,-11.1519 599.224,-7.75673 599.297,-14.7563"/>
</g>
<!-- Node26&#45;&gt;Node20 -->
<g id="edge68" class="edge"><title>Node26&#45;&gt;Node20</title>
<path fill="none" stroke="midnightblue" d="M691.539,-392.444C710.623,-383.636 740.575,-369.812 762.436,-359.722"/>
<polygon fill="midnightblue" stroke="midnightblue" points="763.935,-362.885 771.548,-355.516 761.001,-356.529 763.935,-362.885"/>
</g>
<!-- Node27&#45;&gt;Node16 -->
<g id="edge72" class="edge"><title>Node27&#45;&gt;Node16</title>
<path fill="none" stroke="midnightblue" d="M908.978,-392.321C933.571,-375.848 982,-337.505 982,-291 982,-291 982,-291 982,-177 982,-138.548 1012.43,-102.313 1032.58,-82.538"/>
<polygon fill="midnightblue" stroke="midnightblue" points="1035.1,-84.9765 1039.97,-75.5666 1030.29,-79.8865 1035.1,-84.9765"/>
</g>
<!-- Node27&#45;&gt;Node20 -->
<g id="edge71" class="edge"><title>Node27&#45;&gt;Node20</title>
<path fill="none" stroke="midnightblue" d="M878.13,-392.324C861.291,-383.664 835.193,-370.242 815.762,-360.249"/>
<polygon fill="midnightblue" stroke="midnightblue" points="817.322,-357.116 806.828,-355.655 814.12,-363.341 817.322,-357.116"/>
</g>
<!-- Node27&#45;&gt;Node23 -->
<g id="edge70" class="edge"><title>Node27&#45;&gt;Node23</title>
<path fill="none" stroke="midnightblue" d="M893.118,-392.297C886.041,-359.563 860.919,-243.375 851.036,-197.666"/>
<polygon fill="midnightblue" stroke="midnightblue" points="854.455,-196.918 848.921,-187.884 847.613,-198.398 854.455,-196.918"/>
</g>
<!-- Node28&#45;&gt;Node20 -->
<g id="edge74" class="edge"><title>Node28&#45;&gt;Node20</title>
<path fill="none" stroke="midnightblue" d="M760.78,-392.083C765.672,-384.534 772.827,-373.495 778.833,-364.23"/>
<polygon fill="midnightblue" stroke="midnightblue" points="781.826,-366.046 784.328,-355.751 775.952,-362.239 781.826,-366.046"/>
</g>
</g>
</svg>
