<?xml version="1.0" encoding="UTF-8" standalone="no"?>
<!DOCTYPE svg PUBLIC "-//W3C//DTD SVG 1.1//EN"
 "http://www.w3.org/Graphics/SVG/1.1/DTD/svg11.dtd">
<!-- Generated by graphviz version 2.38.0 (20140413.2041)
 -->
<!-- Title: CStreamDecoder::getString Pages: 1 -->
<svg width="1381pt" height="186pt"
 viewBox="0.00 0.00 1381.00 186.00" xmlns="http://www.w3.org/2000/svg" xmlns:xlink="http://www.w3.org/1999/xlink">
<g id="graph0" class="graph" transform="scale(1 1) rotate(0) translate(4 182)">
<title>CStreamDecoder::getString</title>
<!-- Node43 -->
<g id="node1" class="node"><title>Node43</title>
<polygon fill="#bfbfbf" stroke="black" points="0,-82.5 0,-101.5 136,-101.5 136,-82.5 0,-82.5"/>
<text text-anchor="middle" x="68" y="-89.5" font-family="Helvetica,sans-Serif" font-size="10.00">CStreamDecoder::getString</text>
</g>
<!-- Node44 -->
<g id="node2" class="node"><title>Node44</title>
<g id="a_node2"><a xlink:href="class_c_hero.html#a7b1a1b3c196bbe5b8da97c56f520c1f3" target="_top" xlink:title="CHero::update">
<polygon fill="none" stroke="black" points="402,-120.5 402,-139.5 481,-139.5 481,-120.5 402,-120.5"/>
<text text-anchor="middle" x="441.5" y="-127.5" font-family="Helvetica,sans-Serif" font-size="10.00">CHero::update</text>
</a>
</g>
</g>
<!-- Node43&#45;&gt;Node44 -->
<g id="edge1" class="edge"><title>Node43&#45;&gt;Node44</title>
<path fill="none" stroke="midnightblue" d="M146.206,-100.298C154.906,-101.217 163.643,-102.134 172,-103 253.783,-111.479 349.622,-121.022 401.809,-126.185"/>
<polygon fill="midnightblue" stroke="midnightblue" points="146.348,-96.7931 136.034,-99.2196 145.61,-103.754 146.348,-96.7931"/>
</g>
<!-- Node52 -->
<g id="node10" class="node"><title>Node52</title>
<g id="a_node10"><a xlink:href="class_c_stream_decoder.html#aeaef1aa3239cf7b5d00397b6e46f67d1" target="_top" xlink:title="CStreamDecoder::getString\lAsInt">
<polygon fill="none" stroke="black" points="192,-33 192,-63 328,-63 328,-33 192,-33"/>
<text text-anchor="start" x="200" y="-51" font-family="Helvetica,sans-Serif" font-size="10.00">CStreamDecoder::getString</text>
<text text-anchor="middle" x="260" y="-40" font-family="Helvetica,sans-Serif" font-size="10.00">AsInt</text>
</a>
</g>
</g>
<!-- Node43&#45;&gt;Node52 -->
<g id="edge11" class="edge"><title>Node43&#45;&gt;Node52</title>
<path fill="none" stroke="midnightblue" d="M120.011,-80.1868C142.741,-74.9231 169.783,-68.6609 193.945,-63.0654"/>
<polygon fill="midnightblue" stroke="midnightblue" points="119.18,-76.7867 110.227,-82.4527 120.759,-83.6063 119.18,-76.7867"/>
</g>
<!-- Node53 -->
<g id="node11" class="node"><title>Node53</title>
<g id="a_node11"><a xlink:href="class_c_world.html#afa6876cb4b0d0aa9aec88fec6c596634" target="_top" xlink:title="CWorld::loadEvents">
<polygon fill="none" stroke="black" points="390.5,-0.5 390.5,-19.5 492.5,-19.5 492.5,-0.5 390.5,-0.5"/>
<text text-anchor="middle" x="441.5" y="-7.5" font-family="Helvetica,sans-Serif" font-size="10.00">CWorld::loadEvents</text>
</a>
</g>
</g>
<!-- Node43&#45;&gt;Node53 -->
<g id="edge22" class="edge"><title>Node43&#45;&gt;Node53</title>
<path fill="none" stroke="midnightblue" d="M86.7528,-75.6256C106.083,-58.9427 138.712,-34.006 172,-23 245.001,1.13583 335.244,-0.409676 390.303,-4.57799"/>
<polygon fill="midnightblue" stroke="midnightblue" points="84.2501,-73.1668 79.0858,-82.4178 88.8919,-78.4065 84.2501,-73.1668"/>
</g>
<!-- Node56 -->
<g id="node14" class="node"><title>Node56</title>
<g id="a_node14"><a xlink:href="class_c_world.html#abb7ab3f5626b424ebabbd4aec3b60b5a" target="_top" xlink:title="CWorld::loadItems">
<polygon fill="none" stroke="black" points="393,-76.5 393,-95.5 490,-95.5 490,-76.5 393,-76.5"/>
<text text-anchor="middle" x="441.5" y="-83.5" font-family="Helvetica,sans-Serif" font-size="10.00">CWorld::loadItems</text>
</a>
</g>
</g>
<!-- Node43&#45;&gt;Node56 -->
<g id="edge23" class="edge"><title>Node43&#45;&gt;Node56</title>
<path fill="none" stroke="midnightblue" d="M146.518,-90.748C220.835,-89.5478 330.65,-87.7742 392.889,-86.7689"/>
<polygon fill="midnightblue" stroke="midnightblue" points="146.218,-87.2523 136.276,-90.9134 146.331,-94.2514 146.218,-87.2523"/>
</g>
<!-- Node58 -->
<g id="node16" class="node"><title>Node58</title>
<g id="a_node16"><a xlink:href="class_c_stream_decoder.html#a27f04fbbe2eb121fe15988594fe7053f" target="_top" xlink:title="CStreamDecoder::decodePlayerData">
<polygon fill="none" stroke="black" points="172,-158.5 172,-177.5 348,-177.5 348,-158.5 172,-158.5"/>
<text text-anchor="middle" x="260" y="-165.5" font-family="Helvetica,sans-Serif" font-size="10.00">CStreamDecoder::decodePlayerData</text>
</a>
</g>
</g>
<!-- Node43&#45;&gt;Node58 -->
<g id="edge20" class="edge"><title>Node43&#45;&gt;Node58</title>
<path fill="none" stroke="midnightblue" d="M94.2779,-106.543C114.743,-117.876 144.574,-133.415 172,-144 186.617,-149.642 203.09,-154.538 217.738,-158.41"/>
<polygon fill="midnightblue" stroke="midnightblue" points="95.7401,-103.35 85.3061,-101.511 92.3158,-109.455 95.7401,-103.35"/>
</g>
<!-- Node45 -->
<g id="node3" class="node"><title>Node45</title>
<g id="a_node3"><a xlink:href="class_c_game.html#a507b71eeebc2a6aaa08d9e0dcb61c7ac" target="_top" xlink:title="CGame::importPlayerData">
<polygon fill="none" stroke="black" points="535,-139.5 535,-158.5 666,-158.5 666,-139.5 535,-139.5"/>
<text text-anchor="middle" x="600.5" y="-146.5" font-family="Helvetica,sans-Serif" font-size="10.00">CGame::importPlayerData</text>
</a>
</g>
</g>
<!-- Node44&#45;&gt;Node45 -->
<g id="edge2" class="edge"><title>Node44&#45;&gt;Node45</title>
<path fill="none" stroke="midnightblue" d="M491.501,-135.93C505.234,-137.592 520.376,-139.424 534.867,-141.178"/>
<polygon fill="midnightblue" stroke="midnightblue" points="491.657,-132.423 481.309,-134.697 490.816,-139.373 491.657,-132.423"/>
</g>
<!-- Node46 -->
<g id="node4" class="node"><title>Node46</title>
<g id="a_node4"><a xlink:href="class_c_game.html#accda079824fc813cbd64b4743846ae24" target="_top" xlink:title="CGame::loadGame">
<polygon fill="none" stroke="black" points="702,-139.5 702,-158.5 802,-158.5 802,-139.5 702,-139.5"/>
<text text-anchor="middle" x="752" y="-146.5" font-family="Helvetica,sans-Serif" font-size="10.00">CGame::loadGame</text>
</a>
</g>
</g>
<!-- Node45&#45;&gt;Node46 -->
<g id="edge3" class="edge"><title>Node45&#45;&gt;Node46</title>
<path fill="none" stroke="midnightblue" d="M676.379,-149C685.071,-149 693.76,-149 701.977,-149"/>
<polygon fill="midnightblue" stroke="midnightblue" points="676.203,-145.5 666.203,-149 676.203,-152.5 676.203,-145.5"/>
</g>
<!-- Node47 -->
<g id="node5" class="node"><title>Node47</title>
<g id="a_node5"><a xlink:href="class_c_game.html#a39e1e296c6dcabbf5c824eea6424d6d9" target="_top" xlink:title="CGame::mainMenu">
<polygon fill="none" stroke="black" points="838,-139.5 838,-158.5 939,-158.5 939,-139.5 838,-139.5"/>
<text text-anchor="middle" x="888.5" y="-146.5" font-family="Helvetica,sans-Serif" font-size="10.00">CGame::mainMenu</text>
</a>
</g>
</g>
<!-- Node46&#45;&gt;Node47 -->
<g id="edge4" class="edge"><title>Node46&#45;&gt;Node47</title>
<path fill="none" stroke="midnightblue" d="M812.486,-149C820.918,-149 829.515,-149 837.737,-149"/>
<polygon fill="midnightblue" stroke="midnightblue" points="812.319,-145.5 802.319,-149 812.319,-152.5 812.319,-145.5"/>
</g>
<!-- Node48 -->
<g id="node6" class="node"><title>Node48</title>
<g id="a_node6"><a xlink:href="class_c_game.html#aa9d3da2fefa1c04faefc6586dbd37971" target="_top" xlink:title="CGame::play">
<polygon fill="none" stroke="black" points="975,-101.5 975,-120.5 1049,-120.5 1049,-101.5 975,-101.5"/>
<text text-anchor="middle" x="1012" y="-108.5" font-family="Helvetica,sans-Serif" font-size="10.00">CGame::play</text>
</a>
</g>
</g>
<!-- Node47&#45;&gt;Node48 -->
<g id="edge5" class="edge"><title>Node47&#45;&gt;Node48</title>
<path fill="none" stroke="midnightblue" d="M930.044,-136.32C946.461,-131.185 965.099,-125.356 980.35,-120.586"/>
<polygon fill="midnightblue" stroke="midnightblue" points="928.659,-133.086 920.16,-139.411 930.748,-139.766 928.659,-133.086"/>
</g>
<!-- Node50 -->
<g id="node8" class="node"><title>Node50</title>
<g id="a_node8"><a xlink:href="class_c_game.html#a714b291af5e20aae8be14a905fd0522d" target="_top" xlink:title="CGame::tickComponent">
<polygon fill="none" stroke="black" points="1252,-120.5 1252,-139.5 1373,-139.5 1373,-120.5 1252,-120.5"/>
<text text-anchor="middle" x="1312.5" y="-127.5" font-family="Helvetica,sans-Serif" font-size="10.00">CGame::tickComponent</text>
</a>
</g>
</g>
<!-- Node47&#45;&gt;Node50 -->
<g id="edge10" class="edge"><title>Node47&#45;&gt;Node50</title>
<path fill="none" stroke="midnightblue" d="M949.308,-152.506C1014.91,-155.536 1123.23,-158.139 1216,-149 1234.84,-147.144 1255.48,-143.275 1272.73,-139.51"/>
<polygon fill="midnightblue" stroke="midnightblue" points="949.311,-149.002 939.154,-152.018 948.975,-155.994 949.311,-149.002"/>
</g>
<!-- Node49 -->
<g id="node7" class="node"><title>Node49</title>
<g id="a_node7"><a xlink:href="class_c_game.html#ac0a8028013ca5a7c135c29fa582df4a0" target="_top" xlink:title="CGame::checkHeroStatus">
<polygon fill="none" stroke="black" points="1085,-120.5 1085,-139.5 1216,-139.5 1216,-120.5 1085,-120.5"/>
<text text-anchor="middle" x="1150.5" y="-127.5" font-family="Helvetica,sans-Serif" font-size="10.00">CGame::checkHeroStatus</text>
</a>
</g>
</g>
<!-- Node48&#45;&gt;Node49 -->
<g id="edge6" class="edge"><title>Node48&#45;&gt;Node49</title>
<path fill="none" stroke="midnightblue" d="M1059.34,-117.45C1067.55,-118.594 1076.25,-119.803 1084.86,-121.003"/>
<polygon fill="midnightblue" stroke="midnightblue" points="1059.61,-113.954 1049.22,-116.042 1058.64,-120.887 1059.61,-113.954"/>
</g>
<!-- Node51 -->
<g id="node9" class="node"><title>Node51</title>
<g id="a_node9"><a xlink:href="main_8cpp.html#ae66f6b31b5ad750f1fe042a706a4e3d4" target="_top" xlink:title="main">
<polygon fill="none" stroke="black" points="1131.5,-44.5 1131.5,-63.5 1169.5,-63.5 1169.5,-44.5 1131.5,-44.5"/>
<text text-anchor="middle" x="1150.5" y="-51.5" font-family="Helvetica,sans-Serif" font-size="10.00">main</text>
</a>
</g>
</g>
<!-- Node48&#45;&gt;Node51 -->
<g id="edge9" class="edge"><title>Node48&#45;&gt;Node51</title>
<path fill="none" stroke="midnightblue" d="M1042.09,-97.0789C1055.11,-90.9965 1070.73,-83.9166 1085,-78 1100.45,-71.5943 1118.29,-65.0171 1131.29,-60.3717"/>
<polygon fill="midnightblue" stroke="midnightblue" points="1040.25,-94.0748 1032.69,-101.5 1043.23,-100.408 1040.25,-94.0748"/>
</g>
<!-- Node49&#45;&gt;Node50 -->
<g id="edge7" class="edge"><title>Node49&#45;&gt;Node50</title>
<path fill="none" stroke="midnightblue" d="M1226.16,-130C1234.76,-130 1243.45,-130 1251.82,-130"/>
<polygon fill="midnightblue" stroke="midnightblue" points="1226.12,-126.5 1216.12,-130 1226.12,-133.5 1226.12,-126.5"/>
</g>
<!-- Node50&#45;&gt;Node48 -->
<g id="edge8" class="edge"><title>Node50&#45;&gt;Node48</title>
<path fill="none" stroke="midnightblue" d="M1262.7,-118.375C1247.8,-115.345 1231.31,-112.508 1216,-111 1157.78,-105.265 1089.71,-106.967 1049.04,-108.873"/>
<polygon fill="midnightblue" stroke="midnightblue" points="1262.22,-121.851 1272.73,-120.49 1263.67,-115.001 1262.22,-121.851"/>
</g>
<!-- Node52&#45;&gt;Node44 -->
<g id="edge12" class="edge"><title>Node52&#45;&gt;Node44</title>
<path fill="none" stroke="midnightblue" d="M302.161,-67.2918C326.016,-78.4178 356.651,-92.6133 384,-105 395.432,-110.178 408.216,-115.845 418.728,-120.472"/>
<polygon fill="midnightblue" stroke="midnightblue" points="303.585,-64.094 293.044,-63.0347 300.624,-70.4367 303.585,-64.094"/>
</g>
<!-- Node52&#45;&gt;Node53 -->
<g id="edge13" class="edge"><title>Node52&#45;&gt;Node53</title>
<path fill="none" stroke="midnightblue" d="M337.961,-31.7074C357.606,-27.5486 378.085,-23.2132 395.529,-19.5202"/>
<polygon fill="midnightblue" stroke="midnightblue" points="337.153,-28.3009 328.094,-33.7962 338.603,-35.1491 337.153,-28.3009"/>
</g>
<!-- Node52&#45;&gt;Node56 -->
<g id="edge16" class="edge"><title>Node52&#45;&gt;Node56</title>
<path fill="none" stroke="midnightblue" d="M337.961,-64.2926C357.606,-68.4514 378.085,-72.7868 395.529,-76.4798"/>
<polygon fill="midnightblue" stroke="midnightblue" points="338.603,-60.8509 328.094,-62.2038 337.153,-67.6991 338.603,-60.8509"/>
</g>
<!-- Node57 -->
<g id="node15" class="node"><title>Node57</title>
<g id="a_node15"><a xlink:href="class_c_world.html#a313cf7258bfab897ada813aa0f8837ac" target="_top" xlink:title="CWorld::loadCreatures">
<polygon fill="none" stroke="black" points="384,-38.5 384,-57.5 499,-57.5 499,-38.5 384,-38.5"/>
<text text-anchor="middle" x="441.5" y="-45.5" font-family="Helvetica,sans-Serif" font-size="10.00">CWorld::loadCreatures</text>
</a>
</g>
</g>
<!-- Node52&#45;&gt;Node57 -->
<g id="edge18" class="edge"><title>Node52&#45;&gt;Node57</title>
<path fill="none" stroke="midnightblue" d="M338.521,-48C353.723,-48 369.403,-48 383.771,-48"/>
<polygon fill="midnightblue" stroke="midnightblue" points="338.094,-44.5001 328.094,-48 338.094,-51.5001 338.094,-44.5001"/>
</g>
<!-- Node54 -->
<g id="node12" class="node"><title>Node54</title>
<g id="a_node12"><a xlink:href="class_c_world.html#a944f12acb1ff76beed2648647ff19d0f" target="_top" xlink:title="CWorld::loadWorld">
<polygon fill="none" stroke="black" points="551.5,-38.5 551.5,-57.5 649.5,-57.5 649.5,-38.5 551.5,-38.5"/>
<text text-anchor="middle" x="600.5" y="-45.5" font-family="Helvetica,sans-Serif" font-size="10.00">CWorld::loadWorld</text>
</a>
</g>
</g>
<!-- Node53&#45;&gt;Node54 -->
<g id="edge14" class="edge"><title>Node53&#45;&gt;Node54</title>
<path fill="none" stroke="midnightblue" d="M491.947,-21.968C513.948,-27.2931 539.494,-33.4762 560.167,-38.4799"/>
<polygon fill="midnightblue" stroke="midnightblue" points="492.66,-18.5398 482.118,-19.589 491.014,-25.3433 492.66,-18.5398"/>
</g>
<!-- Node55 -->
<g id="node13" class="node"><title>Node55</title>
<g id="a_node13"><a xlink:href="class_c_game.html#af5435e79a93dd92991ae24b499976470" target="_top" xlink:title="CGame::CGame">
<polygon fill="none" stroke="black" points="707.5,-38.5 707.5,-57.5 796.5,-57.5 796.5,-38.5 707.5,-38.5"/>
<text text-anchor="middle" x="752" y="-45.5" font-family="Helvetica,sans-Serif" font-size="10.00">CGame::CGame</text>
</a>
</g>
</g>
<!-- Node54&#45;&gt;Node55 -->
<g id="edge15" class="edge"><title>Node54&#45;&gt;Node55</title>
<path fill="none" stroke="midnightblue" d="M659.774,-48C675.489,-48 692.226,-48 707.017,-48"/>
<polygon fill="midnightblue" stroke="midnightblue" points="659.626,-44.5001 649.626,-48 659.626,-51.5001 659.626,-44.5001"/>
</g>
<!-- Node56&#45;&gt;Node54 -->
<g id="edge17" class="edge"><title>Node56&#45;&gt;Node54</title>
<path fill="none" stroke="midnightblue" d="M491.947,-74.032C513.948,-68.7069 539.494,-62.5238 560.167,-57.5201"/>
<polygon fill="midnightblue" stroke="midnightblue" points="491.014,-70.6567 482.118,-76.411 492.66,-77.4602 491.014,-70.6567"/>
</g>
<!-- Node57&#45;&gt;Node54 -->
<g id="edge19" class="edge"><title>Node57&#45;&gt;Node54</title>
<path fill="none" stroke="midnightblue" d="M509.361,-48C523.506,-48 538.165,-48 551.448,-48"/>
<polygon fill="midnightblue" stroke="midnightblue" points="509.181,-44.5001 499.181,-48 509.181,-51.5001 509.181,-44.5001"/>
</g>
<!-- Node58&#45;&gt;Node45 -->
<g id="edge21" class="edge"><title>Node58&#45;&gt;Node45</title>
<path fill="none" stroke="midnightblue" d="M358.232,-162.542C414.919,-159.361 484.856,-155.435 534.811,-152.631"/>
<polygon fill="midnightblue" stroke="midnightblue" points="357.96,-159.052 348.172,-163.107 358.353,-166.041 357.96,-159.052"/>
</g>
</g>
</svg>
