<?xml version="1.0" encoding="UTF-8" standalone="no"?>
<!DOCTYPE svg PUBLIC "-//W3C//DTD SVG 1.1//EN"
 "http://www.w3.org/Graphics/SVG/1.1/DTD/svg11.dtd">
<!-- Generated by graphviz version 2.38.0 (20140413.2041)
 -->
<!-- Title: CShopping::operator() Pages: 1 -->
<svg width="598pt" height="522pt"
 viewBox="0.00 0.00 598.00 522.00" xmlns="http://www.w3.org/2000/svg" xmlns:xlink="http://www.w3.org/1999/xlink">
<g id="graph0" class="graph" transform="scale(1 1) rotate(0) translate(4 518)">
<title>CShopping::operator()</title>
<!-- Node25 -->
<g id="node1" class="node"><title>Node25</title>
<polygon fill="#bfbfbf" stroke="black" points="0,-342.5 0,-361.5 111,-361.5 111,-342.5 0,-342.5"/>
<text text-anchor="middle" x="55.5" y="-349.5" font-family="Helvetica,sans-Serif" font-size="10.00">CShopping::operator()</text>
</g>
<!-- Node26 -->
<g id="node2" class="node"><title>Node26</title>
<g id="a_node2"><a xlink:href="class_c_display.html#a53b65673a9b0bfc807a3a1e448962928" target="_top" xlink:title="CDisplay::printWithDelimiter">
<polygon fill="none" stroke="black" points="296,-494.5 296,-513.5 435,-513.5 435,-494.5 296,-494.5"/>
<text text-anchor="middle" x="365.5" y="-501.5" font-family="Helvetica,sans-Serif" font-size="10.00">CDisplay::printWithDelimiter</text>
</a>
</g>
</g>
<!-- Node25&#45;&gt;Node26 -->
<g id="edge1" class="edge"><title>Node25&#45;&gt;Node26</title>
<path fill="none" stroke="midnightblue" d="M63.5861,-361.597C77.5232,-379.795 110.35,-419.423 147,-441 191.724,-467.33 248.161,-483.258 292.337,-492.51"/>
<polygon fill="midnightblue" stroke="midnightblue" points="291.643,-495.94 302.139,-494.496 293.034,-489.08 291.643,-495.94"/>
</g>
<!-- Node28 -->
<g id="node4" class="node"><title>Node28</title>
<g id="a_node4"><a xlink:href="class_c_hero.html#a5e3ad0e205d7ac9e4fd2e021a5cc959e" target="_top" xlink:title="CHero::getGold">
<polygon fill="none" stroke="black" points="324,-342.5 324,-361.5 407,-361.5 407,-342.5 324,-342.5"/>
<text text-anchor="middle" x="365.5" y="-349.5" font-family="Helvetica,sans-Serif" font-size="10.00">CHero::getGold</text>
</a>
</g>
</g>
<!-- Node25&#45;&gt;Node28 -->
<g id="edge3" class="edge"><title>Node25&#45;&gt;Node28</title>
<path fill="none" stroke="midnightblue" d="M111.209,-352C168.492,-352 257.727,-352 313.559,-352"/>
<polygon fill="midnightblue" stroke="midnightblue" points="313.58,-355.5 323.58,-352 313.58,-348.5 313.58,-355.5"/>
</g>
<!-- Node29 -->
<g id="node5" class="node"><title>Node29</title>
<g id="a_node5"><a xlink:href="class_c_display.html#a54c5d36f4bc11d4a935ff5c86ea4e653" target="_top" xlink:title="CDisplay::print">
<polygon fill="none" stroke="black" points="325.5,-456.5 325.5,-475.5 405.5,-475.5 405.5,-456.5 325.5,-456.5"/>
<text text-anchor="middle" x="365.5" y="-463.5" font-family="Helvetica,sans-Serif" font-size="10.00">CDisplay::print</text>
</a>
</g>
</g>
<!-- Node25&#45;&gt;Node29 -->
<g id="edge4" class="edge"><title>Node25&#45;&gt;Node29</title>
<path fill="none" stroke="midnightblue" d="M68.9935,-361.625C85.8438,-374.183 117.188,-396.072 147,-409 202.32,-432.99 270.068,-448.782 315.105,-457.535"/>
<polygon fill="midnightblue" stroke="midnightblue" points="314.722,-461.025 325.2,-459.453 316.029,-454.148 314.722,-461.025"/>
</g>
<!-- Node30 -->
<g id="node6" class="node"><title>Node30</title>
<g id="a_node6"><a xlink:href="class_c_display.html#a1bd3e25973ed15055a68d4db6abfa765" target="_top" xlink:title="CDisplay::getString">
<polygon fill="none" stroke="black" points="153,-124.5 153,-143.5 254,-143.5 254,-124.5 153,-124.5"/>
<text text-anchor="middle" x="203.5" y="-131.5" font-family="Helvetica,sans-Serif" font-size="10.00">CDisplay::getString</text>
</a>
</g>
</g>
<!-- Node25&#45;&gt;Node30 -->
<g id="edge5" class="edge"><title>Node25&#45;&gt;Node30</title>
<path fill="none" stroke="midnightblue" d="M61.1721,-342.445C73.5981,-317.403 109.109,-248.197 147,-196 158.722,-179.852 173.952,-163.08 185.492,-151.059"/>
<polygon fill="midnightblue" stroke="midnightblue" points="188.327,-153.164 192.803,-143.561 183.315,-148.277 188.327,-153.164"/>
</g>
<!-- Node31 -->
<g id="node7" class="node"><title>Node31</title>
<g id="a_node7"><a xlink:href="class_c_display.html#aba2a285f19e987f9ba82447f43be2b10" target="_top" xlink:title="CDisplay::dumpToNewLine">
<polygon fill="none" stroke="black" points="299,-0.5 299,-19.5 432,-19.5 432,-0.5 299,-0.5"/>
<text text-anchor="middle" x="365.5" y="-7.5" font-family="Helvetica,sans-Serif" font-size="10.00">CDisplay::dumpToNewLine</text>
</a>
</g>
</g>
<!-- Node25&#45;&gt;Node31 -->
<g id="edge27" class="edge"><title>Node25&#45;&gt;Node31</title>
<path fill="none" stroke="midnightblue" d="M64.0272,-342.383C78.9893,-323.493 113.889,-280.552 147,-248 193.788,-202.002 224.2,-207.985 260,-153 291.312,-104.908 255.179,-69.3346 296,-29 297.449,-27.5688 298.995,-26.2431 300.62,-25.0153"/>
<polygon fill="midnightblue" stroke="midnightblue" points="302.642,-27.8807 309.322,-19.6568 298.972,-21.9202 302.642,-27.8807"/>
</g>
<!-- Node32 -->
<g id="node8" class="node"><title>Node32</title>
<g id="a_node8"><a xlink:href="class_c_shopping.html#acfb04014dcfe9b4ddca2206a567112c9" target="_top" xlink:title="CShopping::printItems">
<polygon fill="none" stroke="black" points="147,-380.5 147,-399.5 260,-399.5 260,-380.5 147,-380.5"/>
<text text-anchor="middle" x="203.5" y="-387.5" font-family="Helvetica,sans-Serif" font-size="10.00">CShopping::printItems</text>
</a>
</g>
</g>
<!-- Node25&#45;&gt;Node32 -->
<g id="edge7" class="edge"><title>Node25&#45;&gt;Node32</title>
<path fill="none" stroke="midnightblue" d="M93.342,-361.589C112.348,-366.536 135.729,-372.621 155.969,-377.889"/>
<polygon fill="midnightblue" stroke="midnightblue" points="155.364,-381.348 165.923,-380.48 157.127,-374.574 155.364,-381.348"/>
</g>
<!-- Node35 -->
<g id="node11" class="node"><title>Node35</title>
<g id="a_node11"><a xlink:href="class_c_display.html#af552459e3405bb18e1dd879f7fdc9606" target="_top" xlink:title="CDisplay::getNumber">
<polygon fill="none" stroke="black" points="149,-10.5 149,-29.5 258,-29.5 258,-10.5 149,-10.5"/>
<text text-anchor="middle" x="203.5" y="-17.5" font-family="Helvetica,sans-Serif" font-size="10.00">CDisplay::getNumber</text>
</a>
</g>
</g>
<!-- Node25&#45;&gt;Node35 -->
<g id="edge11" class="edge"><title>Node25&#45;&gt;Node35</title>
<path fill="none" stroke="midnightblue" d="M59.5723,-342.282C70.0626,-309.52 106.089,-200.4 147,-115 160.272,-87.2946 178.773,-56.9057 190.695,-38.1398"/>
<polygon fill="midnightblue" stroke="midnightblue" points="193.66,-39.9987 196.117,-29.6926 187.769,-36.2175 193.66,-39.9987"/>
</g>
<!-- Node36 -->
<g id="node12" class="node"><title>Node36</title>
<g id="a_node12"><a xlink:href="class_c_shopping.html#a0981a7916cca8a37beb35858ad2ec77e" target="_top" xlink:title="CShopping::buyItem">
<polygon fill="none" stroke="black" points="151.5,-257.5 151.5,-276.5 255.5,-276.5 255.5,-257.5 151.5,-257.5"/>
<text text-anchor="middle" x="203.5" y="-264.5" font-family="Helvetica,sans-Serif" font-size="10.00">CShopping::buyItem</text>
</a>
</g>
</g>
<!-- Node25&#45;&gt;Node36 -->
<g id="edge13" class="edge"><title>Node25&#45;&gt;Node36</title>
<path fill="none" stroke="midnightblue" d="M72.9643,-342.415C98.2664,-327.684 146.916,-299.36 176.86,-281.927"/>
<polygon fill="midnightblue" stroke="midnightblue" points="178.991,-284.737 185.872,-276.681 175.469,-278.687 178.991,-284.737"/>
</g>
<!-- Node45 -->
<g id="node21" class="node"><title>Node45</title>
<g id="a_node21"><a xlink:href="class_c_shopping.html#a5d075417297809f43042d74da0fdaad5" target="_top" xlink:title="CShopping::printHelp">
<polygon fill="none" stroke="black" points="149.5,-494.5 149.5,-513.5 257.5,-513.5 257.5,-494.5 149.5,-494.5"/>
<text text-anchor="middle" x="203.5" y="-501.5" font-family="Helvetica,sans-Serif" font-size="10.00">CShopping::printHelp</text>
</a>
</g>
</g>
<!-- Node25&#45;&gt;Node45 -->
<g id="edge25" class="edge"><title>Node25&#45;&gt;Node45</title>
<path fill="none" stroke="midnightblue" d="M61.0148,-361.711C72.3312,-385.098 104.102,-445.185 147,-480 151.752,-483.856 157.218,-487.201 162.826,-490.067"/>
<polygon fill="midnightblue" stroke="midnightblue" points="161.751,-493.426 172.297,-494.444 164.688,-487.072 161.751,-493.426"/>
</g>
<!-- Node27 -->
<g id="node3" class="node"><title>Node27</title>
<g id="a_node3"><a xlink:href="class_c_display.html#af350b35b44fc756e0c721ec4ee56c67a" target="_top" xlink:title="CDisplay::printDelimiter">
<polygon fill="none" stroke="black" points="471,-494.5 471,-513.5 590,-513.5 590,-494.5 471,-494.5"/>
<text text-anchor="middle" x="530.5" y="-501.5" font-family="Helvetica,sans-Serif" font-size="10.00">CDisplay::printDelimiter</text>
</a>
</g>
</g>
<!-- Node26&#45;&gt;Node27 -->
<g id="edge2" class="edge"><title>Node26&#45;&gt;Node27</title>
<path fill="none" stroke="midnightblue" d="M435.154,-504C443.628,-504 452.293,-504 460.768,-504"/>
<polygon fill="midnightblue" stroke="midnightblue" points="460.987,-507.5 470.987,-504 460.987,-500.5 460.987,-507.5"/>
</g>
<!-- Node30&#45;&gt;Node31 -->
<g id="edge6" class="edge"><title>Node30&#45;&gt;Node31</title>
<path fill="none" stroke="midnightblue" d="M210.225,-124.203C222.911,-103.377 255.495,-54.5233 296,-29 299.369,-26.8771 302.977,-24.9875 306.71,-23.3062"/>
<polygon fill="midnightblue" stroke="midnightblue" points="308.182,-26.4874 316.182,-19.5413 305.597,-19.9824 308.182,-26.4874"/>
</g>
<!-- Node32&#45;&gt;Node29 -->
<g id="edge8" class="edge"><title>Node32&#45;&gt;Node29</title>
<path fill="none" stroke="midnightblue" d="M231.397,-399.514C240.795,-403.379 251.191,-408.291 260,-414 278.214,-425.805 277.017,-436.475 296,-447 302.019,-450.337 308.666,-453.122 315.382,-455.437"/>
<polygon fill="midnightblue" stroke="midnightblue" points="314.617,-458.865 325.206,-458.502 316.702,-452.182 314.617,-458.865"/>
</g>
<!-- Node33 -->
<g id="node9" class="node"><title>Node33</title>
<g id="a_node9"><a xlink:href="class_c_world.html#aae01822f61bfe35284a1ca9c02bdb1a5" target="_top" xlink:title="CWorld::getItem">
<polygon fill="none" stroke="black" points="322,-380.5 322,-399.5 409,-399.5 409,-380.5 322,-380.5"/>
<text text-anchor="middle" x="365.5" y="-387.5" font-family="Helvetica,sans-Serif" font-size="10.00">CWorld::getItem</text>
</a>
</g>
</g>
<!-- Node32&#45;&gt;Node33 -->
<g id="edge9" class="edge"><title>Node32&#45;&gt;Node33</title>
<path fill="none" stroke="midnightblue" d="M260.011,-390C276.829,-390 295.244,-390 311.867,-390"/>
<polygon fill="midnightblue" stroke="midnightblue" points="311.955,-393.5 321.955,-390 311.955,-386.5 311.955,-393.5"/>
</g>
<!-- Node34 -->
<g id="node10" class="node"><title>Node34</title>
<g id="a_node10"><a xlink:href="class_c_item.html#af56df4ab4d87984c56401231dd3492cf" target="_top" xlink:title="CItem::printForShop">
<polygon fill="none" stroke="black" points="313.5,-418.5 313.5,-437.5 417.5,-437.5 417.5,-418.5 313.5,-418.5"/>
<text text-anchor="middle" x="365.5" y="-425.5" font-family="Helvetica,sans-Serif" font-size="10.00">CItem::printForShop</text>
</a>
</g>
</g>
<!-- Node32&#45;&gt;Node34 -->
<g id="edge10" class="edge"><title>Node32&#45;&gt;Node34</title>
<path fill="none" stroke="midnightblue" d="M244.875,-399.589C265.988,-404.604 292.029,-410.788 314.417,-416.105"/>
<polygon fill="midnightblue" stroke="midnightblue" points="313.877,-419.574 324.416,-418.48 315.495,-412.764 313.877,-419.574"/>
</g>
<!-- Node35&#45;&gt;Node31 -->
<g id="edge12" class="edge"><title>Node35&#45;&gt;Node31</title>
<path fill="none" stroke="midnightblue" d="M258.223,-16.6423C268.028,-16.0295 278.425,-15.3797 288.728,-14.7358"/>
<polygon fill="midnightblue" stroke="midnightblue" points="289.212,-18.2124 298.975,-14.0953 288.776,-11.226 289.212,-18.2124"/>
</g>
<!-- Node36&#45;&gt;Node26 -->
<g id="edge22" class="edge"><title>Node36&#45;&gt;Node26</title>
<path fill="none" stroke="midnightblue" d="M210.487,-276.74C221.411,-294.81 244.848,-334.966 260,-371 280.595,-419.979 257.772,-448.098 296,-485 297.498,-486.446 299.097,-487.785 300.776,-489.023"/>
<polygon fill="midnightblue" stroke="midnightblue" points="299.375,-492.264 309.749,-494.416 302.981,-486.264 299.375,-492.264"/>
</g>
<!-- Node36&#45;&gt;Node28 -->
<g id="edge17" class="edge"><title>Node36&#45;&gt;Node28</title>
<path fill="none" stroke="midnightblue" d="M215.23,-276.723C231.535,-291.014 264.042,-317.652 296,-333 301.695,-335.735 307.851,-338.136 314.056,-340.227"/>
<polygon fill="midnightblue" stroke="midnightblue" points="313.199,-343.626 323.788,-343.261 315.283,-336.943 313.199,-343.626"/>
</g>
<!-- Node36&#45;&gt;Node33 -->
<g id="edge15" class="edge"><title>Node36&#45;&gt;Node33</title>
<path fill="none" stroke="midnightblue" d="M210.249,-276.702C222.982,-297.327 255.654,-345.71 296,-371 301.024,-374.149 306.575,-376.786 312.279,-378.991"/>
<polygon fill="midnightblue" stroke="midnightblue" points="311.36,-382.376 321.955,-382.309 313.631,-375.754 311.36,-382.376"/>
</g>
<!-- Node37 -->
<g id="node13" class="node"><title>Node37</title>
<g id="a_node13"><a xlink:href="class_c_shopping.html#af06bd6ee3beb6ab523a4b7291a677201" target="_top" xlink:title="CShopping::isInShop">
<polygon fill="none" stroke="black" points="312,-228.5 312,-247.5 419,-247.5 419,-228.5 312,-228.5"/>
<text text-anchor="middle" x="365.5" y="-235.5" font-family="Helvetica,sans-Serif" font-size="10.00">CShopping::isInShop</text>
</a>
</g>
</g>
<!-- Node36&#45;&gt;Node37 -->
<g id="edge14" class="edge"><title>Node36&#45;&gt;Node37</title>
<path fill="none" stroke="midnightblue" d="M255.565,-257.744C270.344,-255.066 286.646,-252.111 302.037,-249.321"/>
<polygon fill="midnightblue" stroke="midnightblue" points="302.779,-252.744 311.995,-247.517 301.531,-245.856 302.779,-252.744"/>
</g>
<!-- Node38 -->
<g id="node14" class="node"><title>Node38</title>
<g id="a_node14"><a xlink:href="class_c_item.html#ac4e9e3fe8b7110d7e89098fdc9cfe611" target="_top" xlink:title="CItem::getPrice">
<polygon fill="none" stroke="black" points="323.5,-190.5 323.5,-209.5 407.5,-209.5 407.5,-190.5 323.5,-190.5"/>
<text text-anchor="middle" x="365.5" y="-197.5" font-family="Helvetica,sans-Serif" font-size="10.00">CItem::getPrice</text>
</a>
</g>
</g>
<!-- Node36&#45;&gt;Node38 -->
<g id="edge16" class="edge"><title>Node36&#45;&gt;Node38</title>
<path fill="none" stroke="midnightblue" d="M220.209,-257.437C238.058,-246.887 268.312,-229.958 296,-219 301.949,-216.646 308.298,-214.465 314.641,-212.486"/>
<polygon fill="midnightblue" stroke="midnightblue" points="315.956,-215.746 324.545,-209.543 313.962,-209.036 315.956,-215.746"/>
</g>
<!-- Node39 -->
<g id="node15" class="node"><title>Node39</title>
<g id="a_node15"><a xlink:href="class_c_hero.html#a2968af0dfd838d16690dc67e652b6f89" target="_top" xlink:title="CHero::getInventory">
<polygon fill="none" stroke="black" points="315,-152.5 315,-171.5 416,-171.5 416,-152.5 315,-152.5"/>
<text text-anchor="middle" x="365.5" y="-159.5" font-family="Helvetica,sans-Serif" font-size="10.00">CHero::getInventory</text>
</a>
</g>
</g>
<!-- Node36&#45;&gt;Node39 -->
<g id="edge18" class="edge"><title>Node36&#45;&gt;Node39</title>
<path fill="none" stroke="midnightblue" d="M218.86,-257.179C230.486,-248.929 247.005,-236.512 260,-224 277.955,-206.712 275.045,-194.496 296,-181 299.291,-178.88 302.818,-176.994 306.472,-175.317"/>
<polygon fill="midnightblue" stroke="midnightblue" points="307.798,-178.556 315.755,-171.561 305.172,-172.067 307.798,-178.556"/>
</g>
<!-- Node40 -->
<g id="node16" class="node"><title>Node40</title>
<g id="a_node16"><a xlink:href="class_c_inventory.html#aee94ee18f40ea685f640a15f8f6f75b9" target="_top" xlink:title="CInventory::addItem">
<polygon fill="none" stroke="black" points="314.5,-114.5 314.5,-133.5 416.5,-133.5 416.5,-114.5 314.5,-114.5"/>
<text text-anchor="middle" x="365.5" y="-121.5" font-family="Helvetica,sans-Serif" font-size="10.00">CInventory::addItem</text>
</a>
</g>
</g>
<!-- Node36&#45;&gt;Node40 -->
<g id="edge19" class="edge"><title>Node36&#45;&gt;Node40</title>
<path fill="none" stroke="midnightblue" d="M220.855,-257.442C232.963,-249.692 249.17,-237.813 260,-224 284.307,-192.997 266.164,-168.726 296,-143 298.83,-140.56 301.949,-138.431 305.249,-136.574"/>
<polygon fill="midnightblue" stroke="midnightblue" points="306.797,-139.713 314.333,-132.266 303.798,-133.388 306.797,-139.713"/>
</g>
<!-- Node41 -->
<g id="node17" class="node"><title>Node41</title>
<g id="a_node17"><a xlink:href="class_c_item.html#aa1c149049fe94513681131f65c8fdd64" target="_top" xlink:title="CItem::getID">
<polygon fill="none" stroke="black" points="330,-76.5 330,-95.5 401,-95.5 401,-76.5 330,-76.5"/>
<text text-anchor="middle" x="365.5" y="-83.5" font-family="Helvetica,sans-Serif" font-size="10.00">CItem::getID</text>
</a>
</g>
</g>
<!-- Node36&#45;&gt;Node41 -->
<g id="edge20" class="edge"><title>Node36&#45;&gt;Node41</title>
<path fill="none" stroke="midnightblue" d="M221.878,-257.496C234.185,-249.929 250.188,-238.259 260,-224 291.323,-178.48 256.477,-143.616 296,-105 302.542,-98.6082 311.037,-94.3248 319.806,-91.4648"/>
<polygon fill="midnightblue" stroke="midnightblue" points="320.98,-94.7737 329.733,-88.804 319.168,-88.0123 320.98,-94.7737"/>
</g>
<!-- Node42 -->
<g id="node18" class="node"><title>Node42</title>
<g id="a_node18"><a xlink:href="class_c_hero.html#a8568163de8d05b40e5c0b1d878472fd4" target="_top" xlink:title="CHero::payGold">
<polygon fill="none" stroke="black" points="322.5,-38.5 322.5,-57.5 408.5,-57.5 408.5,-38.5 322.5,-38.5"/>
<text text-anchor="middle" x="365.5" y="-45.5" font-family="Helvetica,sans-Serif" font-size="10.00">CHero::payGold</text>
</a>
</g>
</g>
<!-- Node36&#45;&gt;Node42 -->
<g id="edge21" class="edge"><title>Node36&#45;&gt;Node42</title>
<path fill="none" stroke="midnightblue" d="M222.7,-257.372C235.076,-249.892 250.813,-238.38 260,-224 298.542,-163.672 246.535,-118.751 296,-67 300.698,-62.0848 306.547,-58.4052 312.833,-55.6571"/>
<polygon fill="midnightblue" stroke="midnightblue" points="314.048,-58.9397 322.273,-52.2617 311.678,-52.3528 314.048,-58.9397"/>
</g>
<!-- Node43 -->
<g id="node19" class="node"><title>Node43</title>
<g id="a_node19"><a xlink:href="class_c_item.html#a4287076827e954d45cfa45a7bcc10999" target="_top" xlink:title="CItem::getName">
<polygon fill="none" stroke="black" points="322,-304.5 322,-323.5 409,-323.5 409,-304.5 322,-304.5"/>
<text text-anchor="middle" x="365.5" y="-311.5" font-family="Helvetica,sans-Serif" font-size="10.00">CItem::getName</text>
</a>
</g>
</g>
<!-- Node36&#45;&gt;Node43 -->
<g id="edge23" class="edge"><title>Node36&#45;&gt;Node43</title>
<path fill="none" stroke="midnightblue" d="M234.94,-276.535C252.711,-282.047 275.586,-289.047 296,-295 303.581,-297.211 311.651,-299.503 319.493,-301.699"/>
<polygon fill="midnightblue" stroke="midnightblue" points="318.677,-305.105 329.25,-304.414 320.554,-298.361 318.677,-305.105"/>
</g>
<!-- Node44 -->
<g id="node20" class="node"><title>Node44</title>
<g id="a_node20"><a xlink:href="class_c_shopping.html#a83cfae0f7001775fc1d5a5dc097b3e96" target="_top" xlink:title="CShopping::eraseItem">
<polygon fill="none" stroke="black" points="309,-266.5 309,-285.5 422,-285.5 422,-266.5 309,-266.5"/>
<text text-anchor="middle" x="365.5" y="-273.5" font-family="Helvetica,sans-Serif" font-size="10.00">CShopping::eraseItem</text>
</a>
</g>
</g>
<!-- Node36&#45;&gt;Node44 -->
<g id="edge24" class="edge"><title>Node36&#45;&gt;Node44</title>
<path fill="none" stroke="midnightblue" d="M255.565,-269.872C269.253,-270.642 284.248,-271.486 298.615,-272.294"/>
<polygon fill="midnightblue" stroke="midnightblue" points="298.757,-275.807 308.938,-272.875 299.15,-268.818 298.757,-275.807"/>
</g>
<!-- Node45&#45;&gt;Node26 -->
<g id="edge26" class="edge"><title>Node45&#45;&gt;Node26</title>
<path fill="none" stroke="midnightblue" d="M257.778,-504C266.723,-504 276.173,-504 285.602,-504"/>
<polygon fill="midnightblue" stroke="midnightblue" points="285.801,-507.5 295.801,-504 285.8,-500.5 285.801,-507.5"/>
</g>
</g>
</svg>
