<?xml version="1.0" encoding="UTF-8" standalone="no"?>
<!DOCTYPE svg PUBLIC "-//W3C//DTD SVG 1.1//EN"
 "http://www.w3.org/Graphics/SVG/1.1/DTD/svg11.dtd">
<!-- Generated by graphviz version 2.38.0 (20140413.2041)
 -->
<!-- Title: CGame::reset Pages: 1 -->
<svg width="519pt" height="142pt"
 viewBox="0.00 0.00 519.00 142.00" xmlns="http://www.w3.org/2000/svg" xmlns:xlink="http://www.w3.org/1999/xlink">
<g id="graph0" class="graph" transform="scale(1 1) rotate(0) translate(4 138)">
<title>CGame::reset</title>
<!-- Node231 -->
<g id="node1" class="node"><title>Node231</title>
<polygon fill="#bfbfbf" stroke="black" points="0,-38.5 0,-57.5 77,-57.5 77,-38.5 0,-38.5"/>
<text text-anchor="middle" x="38.5" y="-45.5" font-family="Helvetica,sans-Serif" font-size="10.00">CGame::reset</text>
</g>
<!-- Node232 -->
<g id="node2" class="node"><title>Node232</title>
<g id="a_node2"><a xlink:href="class_c_game.html#a714b291af5e20aae8be14a905fd0522d" target="_top" xlink:title="CGame::tickComponent">
<polygon fill="none" stroke="black" points="113,-76.5 113,-95.5 234,-95.5 234,-76.5 113,-76.5"/>
<text text-anchor="middle" x="173.5" y="-83.5" font-family="Helvetica,sans-Serif" font-size="10.00">CGame::tickComponent</text>
</a>
</g>
</g>
<!-- Node231&#45;&gt;Node232 -->
<g id="edge1" class="edge"><title>Node231&#45;&gt;Node232</title>
<path fill="none" stroke="midnightblue" d="M82.8669,-60.3906C101.081,-65.5945 121.939,-71.5541 138.949,-76.4141"/>
<polygon fill="midnightblue" stroke="midnightblue" points="83.6383,-56.971 73.0615,-57.589 81.7152,-63.7016 83.6383,-56.971"/>
</g>
<!-- Node234 -->
<g id="node4" class="node"><title>Node234</title>
<g id="a_node4"><a xlink:href="class_c_game.html#ac0a8028013ca5a7c135c29fa582df4a0" target="_top" xlink:title="CGame::checkHeroStatus">
<polygon fill="none" stroke="black" points="380,-76.5 380,-95.5 511,-95.5 511,-76.5 380,-76.5"/>
<text text-anchor="middle" x="445.5" y="-83.5" font-family="Helvetica,sans-Serif" font-size="10.00">CGame::checkHeroStatus</text>
</a>
</g>
</g>
<!-- Node231&#45;&gt;Node234 -->
<g id="edge6" class="edge"><title>Node231&#45;&gt;Node234</title>
<path fill="none" stroke="midnightblue" d="M87.4765,-52.5015C160.195,-59.3244 298.455,-72.297 379.934,-79.942"/>
<polygon fill="midnightblue" stroke="midnightblue" points="87.521,-48.9904 77.2377,-51.5408 86.867,-55.9598 87.521,-48.9904"/>
</g>
<!-- Node236 -->
<g id="node6" class="node"><title>Node236</title>
<g id="a_node6"><a xlink:href="class_c_game.html#af5435e79a93dd92991ae24b499976470" target="_top" xlink:title="CGame::CGame">
<polygon fill="none" stroke="black" points="129,-0.5 129,-19.5 218,-19.5 218,-0.5 129,-0.5"/>
<text text-anchor="middle" x="173.5" y="-7.5" font-family="Helvetica,sans-Serif" font-size="10.00">CGame::CGame</text>
</a>
</g>
</g>
<!-- Node231&#45;&gt;Node236 -->
<g id="edge7" class="edge"><title>Node231&#45;&gt;Node236</title>
<path fill="none" stroke="midnightblue" d="M82.8669,-35.6094C101.081,-30.4055 121.939,-24.4459 138.949,-19.5859"/>
<polygon fill="midnightblue" stroke="midnightblue" points="81.7152,-32.2984 73.0615,-38.411 83.6383,-39.029 81.7152,-32.2984"/>
</g>
<!-- Node233 -->
<g id="node3" class="node"><title>Node233</title>
<g id="a_node3"><a xlink:href="class_c_game.html#aa9d3da2fefa1c04faefc6586dbd37971" target="_top" xlink:title="CGame::play">
<polygon fill="none" stroke="black" points="270,-114.5 270,-133.5 344,-133.5 344,-114.5 270,-114.5"/>
<text text-anchor="middle" x="307" y="-121.5" font-family="Helvetica,sans-Serif" font-size="10.00">CGame::play</text>
</a>
</g>
</g>
<!-- Node232&#45;&gt;Node233 -->
<g id="edge2" class="edge"><title>Node232&#45;&gt;Node233</title>
<path fill="none" stroke="midnightblue" d="M217.378,-98.3906C235.386,-103.594 256.01,-109.554 272.828,-114.414"/>
<polygon fill="midnightblue" stroke="midnightblue" points="218.262,-95.0028 207.683,-95.589 216.318,-101.728 218.262,-95.0028"/>
</g>
<!-- Node233&#45;&gt;Node234 -->
<g id="edge3" class="edge"><title>Node233&#45;&gt;Node234</title>
<path fill="none" stroke="midnightblue" d="M352.249,-111.682C371.003,-106.461 392.528,-100.468 410.066,-95.5859"/>
<polygon fill="midnightblue" stroke="midnightblue" points="351.14,-108.357 342.445,-114.411 353.017,-115.101 351.14,-108.357"/>
</g>
<!-- Node235 -->
<g id="node5" class="node"><title>Node235</title>
<g id="a_node5"><a xlink:href="main_8cpp.html#ae66f6b31b5ad750f1fe042a706a4e3d4" target="_top" xlink:title="main">
<polygon fill="none" stroke="black" points="426.5,-114.5 426.5,-133.5 464.5,-133.5 464.5,-114.5 426.5,-114.5"/>
<text text-anchor="middle" x="445.5" y="-121.5" font-family="Helvetica,sans-Serif" font-size="10.00">main</text>
</a>
</g>
</g>
<!-- Node233&#45;&gt;Node235 -->
<g id="edge5" class="edge"><title>Node233&#45;&gt;Node235</title>
<path fill="none" stroke="midnightblue" d="M354.458,-124C379.045,-124 407.849,-124 426.132,-124"/>
<polygon fill="midnightblue" stroke="midnightblue" points="354.221,-120.5 344.221,-124 354.221,-127.5 354.221,-120.5"/>
</g>
<!-- Node234&#45;&gt;Node232 -->
<g id="edge4" class="edge"><title>Node234&#45;&gt;Node232</title>
<path fill="none" stroke="midnightblue" d="M369.793,-86C327.008,-86 274.055,-86 234.087,-86"/>
<polygon fill="midnightblue" stroke="midnightblue" points="369.875,-89.5001 379.875,-86 369.875,-82.5001 369.875,-89.5001"/>
</g>
</g>
</svg>
