<?xml version="1.0" encoding="UTF-8" standalone="no"?>
<!DOCTYPE svg PUBLIC "-//W3C//DTD SVG 1.1//EN"
 "http://www.w3.org/Graphics/SVG/1.1/DTD/svg11.dtd">
<!-- Generated by graphviz version 2.38.0 (20140413.2041)
 -->
<!-- Title: CTrap::execute Pages: 1 -->
<svg width="421pt" height="180pt"
 viewBox="0.00 0.00 421.00 180.00" xmlns="http://www.w3.org/2000/svg" xmlns:xlink="http://www.w3.org/1999/xlink">
<g id="graph0" class="graph" transform="scale(1 1) rotate(0) translate(4 176)">
<title>CTrap::execute</title>
<!-- Node4 -->
<g id="node1" class="node"><title>Node4</title>
<polygon fill="#bfbfbf" stroke="black" points="0,-76.5 0,-95.5 83,-95.5 83,-76.5 0,-76.5"/>
<text text-anchor="middle" x="41.5" y="-83.5" font-family="Helvetica,sans-Serif" font-size="10.00">CTrap::execute</text>
</g>
<!-- Node5 -->
<g id="node2" class="node"><title>Node5</title>
<g id="a_node2"><a xlink:href="class_c_display.html#a53b65673a9b0bfc807a3a1e448962928" target="_top" xlink:title="CDisplay::printWithDelimiter">
<polygon fill="none" stroke="black" points="119,-152.5 119,-171.5 258,-171.5 258,-152.5 119,-152.5"/>
<text text-anchor="middle" x="188.5" y="-159.5" font-family="Helvetica,sans-Serif" font-size="10.00">CDisplay::printWithDelimiter</text>
</a>
</g>
</g>
<!-- Node4&#45;&gt;Node5 -->
<g id="edge1" class="edge"><title>Node4&#45;&gt;Node5</title>
<path fill="none" stroke="midnightblue" d="M54.3463,-95.5012C68.8867,-106.811 94.6229,-125.709 119,-138 127.263,-142.166 136.422,-145.917 145.284,-149.148"/>
<polygon fill="midnightblue" stroke="midnightblue" points="144.131,-152.453 154.726,-152.445 146.439,-145.844 144.131,-152.453"/>
</g>
<!-- Node6 -->
<g id="node3" class="node"><title>Node6</title>
<g id="a_node3"><a xlink:href="class_c_display.html#af350b35b44fc756e0c721ec4ee56c67a" target="_top" xlink:title="CDisplay::printDelimiter">
<polygon fill="none" stroke="black" points="294,-133.5 294,-152.5 413,-152.5 413,-133.5 294,-133.5"/>
<text text-anchor="middle" x="353.5" y="-140.5" font-family="Helvetica,sans-Serif" font-size="10.00">CDisplay::printDelimiter</text>
</a>
</g>
</g>
<!-- Node4&#45;&gt;Node6 -->
<g id="edge6" class="edge"><title>Node4&#45;&gt;Node6</title>
<path fill="none" stroke="midnightblue" d="M78.1667,-95.5032C90.9891,-98.7484 105.595,-102.249 119,-105 174.1,-116.306 237.072,-126.391 283.724,-133.325"/>
<polygon fill="midnightblue" stroke="midnightblue" points="283.316,-136.803 293.72,-134.8 284.338,-129.877 283.316,-136.803"/>
</g>
<!-- Node7 -->
<g id="node4" class="node"><title>Node7</title>
<g id="a_node4"><a xlink:href="class_c_hero.html#a9442ae76d634a968c99d6bc77c927f96" target="_top" xlink:title="CHero::sufferDamage">
<polygon fill="none" stroke="black" points="134,-76.5 134,-95.5 243,-95.5 243,-76.5 134,-76.5"/>
<text text-anchor="middle" x="188.5" y="-83.5" font-family="Helvetica,sans-Serif" font-size="10.00">CHero::sufferDamage</text>
</a>
</g>
</g>
<!-- Node4&#45;&gt;Node7 -->
<g id="edge3" class="edge"><title>Node4&#45;&gt;Node7</title>
<path fill="none" stroke="midnightblue" d="M83.2765,-86C95.7587,-86 109.804,-86 123.444,-86"/>
<polygon fill="midnightblue" stroke="midnightblue" points="123.764,-89.5001 133.764,-86 123.764,-82.5001 123.764,-89.5001"/>
</g>
<!-- Node8 -->
<g id="node5" class="node"><title>Node8</title>
<g id="a_node5"><a xlink:href="class_c_hero.html#acf265a146732ccfe08db87b6cc69cef3" target="_top" xlink:title="CHero::isDead">
<polygon fill="none" stroke="black" points="148.5,-38.5 148.5,-57.5 228.5,-57.5 228.5,-38.5 148.5,-38.5"/>
<text text-anchor="middle" x="188.5" y="-45.5" font-family="Helvetica,sans-Serif" font-size="10.00">CHero::isDead</text>
</a>
</g>
</g>
<!-- Node4&#45;&gt;Node8 -->
<g id="edge4" class="edge"><title>Node4&#45;&gt;Node8</title>
<path fill="none" stroke="midnightblue" d="M79.0896,-76.411C97.9654,-71.4642 121.186,-65.3789 141.288,-60.1108"/>
<polygon fill="midnightblue" stroke="midnightblue" points="142.387,-63.4409 151.173,-57.5201 140.613,-56.6695 142.387,-63.4409"/>
</g>
<!-- Node9 -->
<g id="node6" class="node"><title>Node9</title>
<g id="a_node6"><a xlink:href="class_c_display.html#a54c5d36f4bc11d4a935ff5c86ea4e653" target="_top" xlink:title="CDisplay::print">
<polygon fill="none" stroke="black" points="148.5,-0.5 148.5,-19.5 228.5,-19.5 228.5,-0.5 148.5,-0.5"/>
<text text-anchor="middle" x="188.5" y="-7.5" font-family="Helvetica,sans-Serif" font-size="10.00">CDisplay::print</text>
</a>
</g>
</g>
<!-- Node4&#45;&gt;Node9 -->
<g id="edge5" class="edge"><title>Node4&#45;&gt;Node9</title>
<path fill="none" stroke="midnightblue" d="M53.0523,-76.1038C67.0789,-63.4537 93.119,-41.6768 119,-29 125.106,-26.0091 131.757,-23.4256 138.435,-21.2126"/>
<polygon fill="midnightblue" stroke="midnightblue" points="139.639,-24.5042 148.178,-18.2311 137.591,-17.8106 139.639,-24.5042"/>
</g>
<!-- Node5&#45;&gt;Node6 -->
<g id="edge2" class="edge"><title>Node5&#45;&gt;Node6</title>
<path fill="none" stroke="midnightblue" d="M258.154,-153.997C266.722,-152.999 275.483,-151.977 284.047,-150.979"/>
<polygon fill="midnightblue" stroke="midnightblue" points="284.459,-154.455 293.987,-149.821 283.649,-147.502 284.459,-154.455"/>
</g>
</g>
</svg>
