<?xml version="1.0" encoding="UTF-8" standalone="no"?>
<!DOCTYPE svg PUBLIC "-//W3C//DTD SVG 1.1//EN"
 "http://www.w3.org/Graphics/SVG/1.1/DTD/svg11.dtd">
<!-- Generated by graphviz version 2.38.0 (20140413.2041)
 -->
<!-- Title: CGame::importPlayerData Pages: 1 -->
<svg width="721pt" height="336pt"
 viewBox="0.00 0.00 721.00 335.55" xmlns="http://www.w3.org/2000/svg" xmlns:xlink="http://www.w3.org/1999/xlink">
<g id="graph0" class="graph" transform="scale(1 1) rotate(0) translate(4 331.549)">
<title>CGame::importPlayerData</title>
<!-- Node110 -->
<g id="node1" class="node"><title>Node110</title>
<polygon fill="#bfbfbf" stroke="black" points="0,-202.5 0,-221.5 131,-221.5 131,-202.5 0,-202.5"/>
<text text-anchor="middle" x="65.5" y="-209.5" font-family="Helvetica,sans-Serif" font-size="10.00">CGame::importPlayerData</text>
</g>
<!-- Node111 -->
<g id="node2" class="node"><title>Node111</title>
<g id="a_node2"><a xlink:href="class_c_stream_decoder.html#a27f04fbbe2eb121fe15988594fe7053f" target="_top" xlink:title="CStreamDecoder::decodePlayerData">
<polygon fill="none" stroke="black" points="167,-240.5 167,-259.5 343,-259.5 343,-240.5 167,-240.5"/>
<text text-anchor="middle" x="255" y="-247.5" font-family="Helvetica,sans-Serif" font-size="10.00">CStreamDecoder::decodePlayerData</text>
</a>
</g>
</g>
<!-- Node110&#45;&gt;Node111 -->
<g id="edge1" class="edge"><title>Node110&#45;&gt;Node111</title>
<path fill="none" stroke="midnightblue" d="M113.814,-221.589C139.114,-226.716 170.45,-233.067 197.075,-238.463"/>
<polygon fill="midnightblue" stroke="midnightblue" points="196.53,-241.924 207.026,-240.48 197.921,-235.063 196.53,-241.924"/>
</g>
<!-- Node114 -->
<g id="node5" class="node"><title>Node114</title>
<g id="a_node5"><a xlink:href="class_c_stream_decoder.html#a57a7f304974a6b5be31e374685b70e33" target="_top" xlink:title="CStreamDecoder::getNumbers">
<polygon fill="none" stroke="black" points="564,-284.5 564,-303.5 713,-303.5 713,-284.5 564,-284.5"/>
<text text-anchor="middle" x="638.5" y="-291.5" font-family="Helvetica,sans-Serif" font-size="10.00">CStreamDecoder::getNumbers</text>
</a>
</g>
</g>
<!-- Node110&#45;&gt;Node114 -->
<g id="edge14" class="edge"><title>Node110&#45;&gt;Node114</title>
<path fill="none" stroke="midnightblue" d="M80.5022,-221.659C99.3564,-234.253 134.321,-256.183 167,-269 317.793,-328.142 367.043,-337.141 528,-319 550.212,-316.497 574.488,-311.222 594.525,-306.161"/>
<polygon fill="midnightblue" stroke="midnightblue" points="595.487,-309.527 604.288,-303.628 593.729,-302.751 595.487,-309.527"/>
</g>
<!-- Node115 -->
<g id="node6" class="node"><title>Node115</title>
<g id="a_node6"><a xlink:href="class_c_hero.html#a7b1a1b3c196bbe5b8da97c56f520c1f3" target="_top" xlink:title="CHero::update">
<polygon fill="none" stroke="black" points="215.5,-142.5 215.5,-161.5 294.5,-161.5 294.5,-142.5 215.5,-142.5"/>
<text text-anchor="middle" x="255" y="-149.5" font-family="Helvetica,sans-Serif" font-size="10.00">CHero::update</text>
</a>
</g>
</g>
<!-- Node110&#45;&gt;Node115 -->
<g id="edge5" class="edge"><title>Node110&#45;&gt;Node115</title>
<path fill="none" stroke="midnightblue" d="M96.2099,-202.493C128.071,-192.297 178.833,-176.053 214.146,-164.753"/>
<polygon fill="midnightblue" stroke="midnightblue" points="215.662,-167.943 224.119,-161.562 213.528,-161.276 215.662,-167.943"/>
</g>
<!-- Node120 -->
<g id="node11" class="node"><title>Node120</title>
<g id="a_node11"><a xlink:href="class_c_storyline.html#ad8c62b61513d498b53454aeaf621dda0" target="_top" xlink:title="CStoryline::update">
<polygon fill="none" stroke="black" points="206.5,-104.5 206.5,-123.5 303.5,-123.5 303.5,-104.5 206.5,-104.5"/>
<text text-anchor="middle" x="255" y="-111.5" font-family="Helvetica,sans-Serif" font-size="10.00">CStoryline::update</text>
</a>
</g>
</g>
<!-- Node110&#45;&gt;Node120 -->
<g id="edge13" class="edge"><title>Node110&#45;&gt;Node120</title>
<path fill="none" stroke="midnightblue" d="M75.7523,-202.275C92.3627,-185.423 129.061,-150.889 167,-133 176.124,-128.698 186.249,-125.354 196.272,-122.76"/>
<polygon fill="midnightblue" stroke="midnightblue" points="197.294,-126.115 206.22,-120.409 195.683,-119.303 197.294,-126.115"/>
</g>
<!-- Node112 -->
<g id="node3" class="node"><title>Node112</title>
<g id="a_node3"><a xlink:href="class_c_stream_decoder.html#a736a4660fb1fc91ffc7345050f815994" target="_top" xlink:title="CStreamDecoder::getString">
<polygon fill="none" stroke="black" points="570.5,-164.5 570.5,-183.5 706.5,-183.5 706.5,-164.5 570.5,-164.5"/>
<text text-anchor="middle" x="638.5" y="-171.5" font-family="Helvetica,sans-Serif" font-size="10.00">CStreamDecoder::getString</text>
</a>
</g>
</g>
<!-- Node111&#45;&gt;Node112 -->
<g id="edge2" class="edge"><title>Node111&#45;&gt;Node112</title>
<path fill="none" stroke="midnightblue" d="M303.931,-240.452C373.981,-226.497 504.159,-200.563 579.509,-185.553"/>
<polygon fill="midnightblue" stroke="midnightblue" points="580.642,-188.896 589.765,-183.509 579.274,-182.031 580.642,-188.896"/>
</g>
<!-- Node113 -->
<g id="node4" class="node"><title>Node113</title>
<g id="a_node4"><a xlink:href="class_c_stream_decoder.html#a5df71ab29ca4dc60f6c628fcb4a77949" target="_top" xlink:title="CStreamDecoder::getNumbers\lAsString">
<polygon fill="none" stroke="black" points="379,-279 379,-309 528,-309 528,-279 379,-279"/>
<text text-anchor="start" x="387" y="-297" font-family="Helvetica,sans-Serif" font-size="10.00">CStreamDecoder::getNumbers</text>
<text text-anchor="middle" x="453.5" y="-286" font-family="Helvetica,sans-Serif" font-size="10.00">AsString</text>
</a>
</g>
</g>
<!-- Node111&#45;&gt;Node113 -->
<g id="edge3" class="edge"><title>Node111&#45;&gt;Node113</title>
<path fill="none" stroke="midnightblue" d="M298.638,-259.547C321.057,-264.568 349.238,-270.878 375.336,-276.721"/>
<polygon fill="midnightblue" stroke="midnightblue" points="374.696,-280.165 385.219,-278.935 376.226,-273.334 374.696,-280.165"/>
</g>
<!-- Node113&#45;&gt;Node114 -->
<g id="edge4" class="edge"><title>Node113&#45;&gt;Node114</title>
<path fill="none" stroke="midnightblue" d="M528.142,-294C536.474,-294 545.011,-294 553.463,-294"/>
<polygon fill="midnightblue" stroke="midnightblue" points="553.711,-297.5 563.711,-294 553.711,-290.5 553.711,-297.5"/>
</g>
<!-- Node115&#45;&gt;Node112 -->
<g id="edge6" class="edge"><title>Node115&#45;&gt;Node112</title>
<path fill="none" stroke="midnightblue" d="M294.68,-154.231C356.717,-157.808 479.651,-164.897 560.197,-169.542"/>
<polygon fill="midnightblue" stroke="midnightblue" points="560.106,-173.043 570.291,-170.124 560.509,-166.054 560.106,-173.043"/>
</g>
<!-- Node115&#45;&gt;Node114 -->
<g id="edge12" class="edge"><title>Node115&#45;&gt;Node114</title>
<path fill="none" stroke="midnightblue" d="M281.624,-161.538C348.056,-186.265 525.96,-252.483 602.114,-280.829"/>
<polygon fill="midnightblue" stroke="midnightblue" points="601.144,-284.202 611.737,-284.411 603.586,-277.642 601.144,-284.202"/>
</g>
<!-- Node116 -->
<g id="node7" class="node"><title>Node116</title>
<g id="a_node7"><a xlink:href="class_c_stream_decoder.html#aeaef1aa3239cf7b5d00397b6e46f67d1" target="_top" xlink:title="CStreamDecoder::getString\lAsInt">
<polygon fill="none" stroke="black" points="385.5,-115 385.5,-145 521.5,-145 521.5,-115 385.5,-115"/>
<text text-anchor="start" x="393.5" y="-133" font-family="Helvetica,sans-Serif" font-size="10.00">CStreamDecoder::getString</text>
<text text-anchor="middle" x="453.5" y="-122" font-family="Helvetica,sans-Serif" font-size="10.00">AsInt</text>
</a>
</g>
</g>
<!-- Node115&#45;&gt;Node116 -->
<g id="edge7" class="edge"><title>Node115&#45;&gt;Node116</title>
<path fill="none" stroke="midnightblue" d="M294.822,-147.654C317.833,-145.077 347.81,-141.721 375.44,-138.628"/>
<polygon fill="midnightblue" stroke="midnightblue" points="375.948,-142.093 385.496,-137.502 375.169,-135.136 375.948,-142.093"/>
</g>
<!-- Node117 -->
<g id="node8" class="node"><title>Node117</title>
<g id="a_node8"><a xlink:href="class_c_equipment.html#abf42868d8cd5d627d872dbf7f80bff9a" target="_top" xlink:title="CEquipment::setAttack">
<polygon fill="none" stroke="black" points="394.5,-76.5 394.5,-95.5 512.5,-95.5 512.5,-76.5 394.5,-76.5"/>
<text text-anchor="middle" x="453.5" y="-83.5" font-family="Helvetica,sans-Serif" font-size="10.00">CEquipment::setAttack</text>
</a>
</g>
</g>
<!-- Node115&#45;&gt;Node117 -->
<g id="edge9" class="edge"><title>Node115&#45;&gt;Node117</title>
<path fill="none" stroke="midnightblue" d="M294.823,-147.18C310.292,-144.334 327.958,-139.885 343,-133 361.185,-124.676 361.031,-114.782 379,-106 384.692,-103.218 390.827,-100.777 397.041,-98.6468"/>
<polygon fill="midnightblue" stroke="midnightblue" points="398.341,-101.906 406.818,-95.5504 396.227,-95.2332 398.341,-101.906"/>
</g>
<!-- Node118 -->
<g id="node9" class="node"><title>Node118</title>
<g id="a_node9"><a xlink:href="class_c_equipment.html#a223e0e1172975f9d9c49612b2513afb0" target="_top" xlink:title="CEquipment::setArmour">
<polygon fill="none" stroke="black" points="393,-38.5 393,-57.5 514,-57.5 514,-38.5 393,-38.5"/>
<text text-anchor="middle" x="453.5" y="-45.5" font-family="Helvetica,sans-Serif" font-size="10.00">CEquipment::setArmour</text>
</a>
</g>
</g>
<!-- Node115&#45;&gt;Node118 -->
<g id="edge10" class="edge"><title>Node115&#45;&gt;Node118</title>
<path fill="none" stroke="midnightblue" d="M294.899,-150.525C311.089,-148.232 329.269,-143.293 343,-133 369.736,-112.959 352.649,-87.5444 379,-67 381.339,-65.1767 383.834,-63.527 386.44,-62.0347"/>
<polygon fill="midnightblue" stroke="midnightblue" points="388.206,-65.0681 395.664,-57.5429 385.141,-58.7747 388.206,-65.0681"/>
</g>
<!-- Node119 -->
<g id="node10" class="node"><title>Node119</title>
<g id="a_node10"><a xlink:href="class_c_inventory.html#a2ae39f69247c25fa2ee46c4111bcce56" target="_top" xlink:title="CInventory::update">
<polygon fill="none" stroke="black" points="405,-0.5 405,-19.5 502,-19.5 502,-0.5 405,-0.5"/>
<text text-anchor="middle" x="453.5" y="-7.5" font-family="Helvetica,sans-Serif" font-size="10.00">CInventory::update</text>
</a>
</g>
</g>
<!-- Node115&#45;&gt;Node119 -->
<g id="edge11" class="edge"><title>Node115&#45;&gt;Node119</title>
<path fill="none" stroke="midnightblue" d="M294.885,-151.698C311.457,-149.663 329.939,-144.602 343,-133 379.57,-100.517 343.053,-62.171 379,-29 383.704,-24.6594 389.268,-21.2819 395.197,-18.6583"/>
<polygon fill="midnightblue" stroke="midnightblue" points="396.578,-21.879 404.742,-15.126 394.149,-15.3141 396.578,-21.879"/>
</g>
<!-- Node116&#45;&gt;Node112 -->
<g id="edge8" class="edge"><title>Node116&#45;&gt;Node112</title>
<path fill="none" stroke="midnightblue" d="M516.966,-145.019C540.222,-150.611 566.269,-156.874 588.184,-162.143"/>
<polygon fill="midnightblue" stroke="midnightblue" points="587.396,-165.553 597.937,-164.488 589.032,-158.747 587.396,-165.553"/>
</g>
</g>
</svg>
