<?xml version="1.0" encoding="UTF-8" standalone="no"?>
<!DOCTYPE svg PUBLIC "-//W3C//DTD SVG 1.1//EN"
 "http://www.w3.org/Graphics/SVG/1.1/DTD/svg11.dtd">
<!-- Generated by graphviz version 2.38.0 (20140413.2041)
 -->
<!-- Title: CArmour Pages: 1 -->
<svg width="168pt" height="409pt"
 viewBox="0.00 0.00 168.00 409.00" xmlns="http://www.w3.org/2000/svg" xmlns:xlink="http://www.w3.org/1999/xlink">
<g id="graph0" class="graph" transform="scale(1 1) rotate(0) translate(4 405)">
<title>CArmour</title>
<!-- Node2 -->
<g id="node1" class="node"><title>Node2</title>
<polygon fill="#bfbfbf" stroke="black" points="0,-0.5 0,-101.5 87,-101.5 87,-0.5 0,-0.5"/>
<text text-anchor="middle" x="43.5" y="-89.5" font-family="Helvetica,sans-Serif" font-size="10.00">CArmour</text>
<polyline fill="none" stroke="black" points="0,-82.5 87,-82.5 "/>
<text text-anchor="middle" x="43.5" y="-70.5" font-family="Helvetica,sans-Serif" font-size="10.00"> </text>
<polyline fill="none" stroke="black" points="0,-63.5 87,-63.5 "/>
<text text-anchor="start" x="8" y="-51.5" font-family="Helvetica,sans-Serif" font-size="10.00">+ CArmour()</text>
<text text-anchor="start" x="8" y="-40.5" font-family="Helvetica,sans-Serif" font-size="10.00">+ CArmour()</text>
<text text-anchor="start" x="8" y="-29.5" font-family="Helvetica,sans-Serif" font-size="10.00">+ useItem()</text>
<text text-anchor="start" x="8" y="-18.5" font-family="Helvetica,sans-Serif" font-size="10.00">+ print()</text>
<text text-anchor="start" x="8" y="-7.5" font-family="Helvetica,sans-Serif" font-size="10.00">+ printForShop()</text>
</g>
<!-- Node3 -->
<g id="node2" class="node"><title>Node3</title>
<g id="a_node2"><a xlink:href="class_c_item.html" target="_top" xlink:title="{CItem\n||+ CItem()\l+ CItem()\l+ ~CItem()\l+ useItem()\l+ getID()\l+ getPrice()\l+ getName()\l+ print()\l+ printForShop()\l}">
<polygon fill="none" stroke="black" points="73,-139.5 73,-284.5 160,-284.5 160,-139.5 73,-139.5"/>
<text text-anchor="middle" x="116.5" y="-272.5" font-family="Helvetica,sans-Serif" font-size="10.00">CItem</text>
<polyline fill="none" stroke="black" points="73,-265.5 160,-265.5 "/>
<text text-anchor="middle" x="116.5" y="-253.5" font-family="Helvetica,sans-Serif" font-size="10.00"> </text>
<polyline fill="none" stroke="black" points="73,-246.5 160,-246.5 "/>
<text text-anchor="start" x="81" y="-234.5" font-family="Helvetica,sans-Serif" font-size="10.00">+ CItem()</text>
<text text-anchor="start" x="81" y="-223.5" font-family="Helvetica,sans-Serif" font-size="10.00">+ CItem()</text>
<text text-anchor="start" x="81" y="-212.5" font-family="Helvetica,sans-Serif" font-size="10.00">+ ~CItem()</text>
<text text-anchor="start" x="81" y="-201.5" font-family="Helvetica,sans-Serif" font-size="10.00">+ useItem()</text>
<text text-anchor="start" x="81" y="-190.5" font-family="Helvetica,sans-Serif" font-size="10.00">+ getID()</text>
<text text-anchor="start" x="81" y="-179.5" font-family="Helvetica,sans-Serif" font-size="10.00">+ getPrice()</text>
<text text-anchor="start" x="81" y="-168.5" font-family="Helvetica,sans-Serif" font-size="10.00">+ getName()</text>
<text text-anchor="start" x="81" y="-157.5" font-family="Helvetica,sans-Serif" font-size="10.00">+ print()</text>
<text text-anchor="start" x="81" y="-146.5" font-family="Helvetica,sans-Serif" font-size="10.00">+ printForShop()</text>
</a>
</g>
</g>
<!-- Node3&#45;&gt;Node2 -->
<g id="edge1" class="edge"><title>Node3&#45;&gt;Node2</title>
<path fill="none" stroke="midnightblue" d="M79.3826,-130.155C74.9471,-120.494 70.5238,-110.86 66.3747,-101.823"/>
<polygon fill="none" stroke="midnightblue" points="76.2771,-131.78 83.6304,-139.407 82.6387,-128.859 76.2771,-131.78"/>
</g>
<!-- Node4 -->
<g id="node3" class="node"><title>Node4</title>
<polygon fill="none" stroke="#bfbfbf" points="21,-343.5 21,-400.5 50,-400.5 50,-343.5 21,-343.5"/>
<text text-anchor="middle" x="35.5" y="-388.5" font-family="Helvetica,sans-Serif" font-size="10.00">int</text>
<polyline fill="none" stroke="#bfbfbf" points="21,-381.5 50,-381.5 "/>
<text text-anchor="middle" x="35.5" y="-369.5" font-family="Helvetica,sans-Serif" font-size="10.00"> </text>
<polyline fill="none" stroke="#bfbfbf" points="21,-362.5 50,-362.5 "/>
<text text-anchor="middle" x="35.5" y="-350.5" font-family="Helvetica,sans-Serif" font-size="10.00"> </text>
</g>
<!-- Node4&#45;&gt;Node2 -->
<g id="edge4" class="edge"><title>Node4&#45;&gt;Node2</title>
<path fill="none" stroke="#404040" d="M29.4105,-343.273C26.0406,-326.5 22.199,-304.629 20.5,-285 14.9044,-220.353 12.1379,-203.348 20.5,-139 21.5811,-130.681 23.2205,-122.024 25.1365,-113.538"/>
<polygon fill="none" stroke="#404040" points="25.1773,-113.369 22.7009,-106.596 28.0001,-101.706 30.4764,-108.478 25.1773,-113.369"/>
<text text-anchor="middle" x="42" y="-209.5" font-family="Helvetica,sans-Serif" font-size="10.00"> #defense</text>
</g>
<!-- Node4&#45;&gt;Node3 -->
<g id="edge2" class="edge"><title>Node4&#45;&gt;Node3</title>
<path fill="none" stroke="#404040" d="M49.6091,-343.479C56.5532,-329.933 65.3308,-312.812 74.2228,-295.467"/>
<polygon fill="none" stroke="#404040" points="74.2842,-295.347 73.4619,-288.183 79.7587,-284.668 80.581,-291.832 74.2842,-295.347"/>
<text text-anchor="middle" x="86.5" y="-317" font-family="Helvetica,sans-Serif" font-size="10.00"> #price</text>
<text text-anchor="middle" x="86.5" y="-306" font-family="Helvetica,sans-Serif" font-size="10.00">#itemID</text>
</g>
<!-- Node5 -->
<g id="node4" class="node"><title>Node5</title>
<polygon fill="none" stroke="#bfbfbf" points="96,-343.5 96,-400.5 137,-400.5 137,-343.5 96,-343.5"/>
<text text-anchor="middle" x="116.5" y="-388.5" font-family="Helvetica,sans-Serif" font-size="10.00">string</text>
<polyline fill="none" stroke="#bfbfbf" points="96,-381.5 137,-381.5 "/>
<text text-anchor="middle" x="116.5" y="-369.5" font-family="Helvetica,sans-Serif" font-size="10.00"> </text>
<polyline fill="none" stroke="#bfbfbf" points="96,-362.5 137,-362.5 "/>
<text text-anchor="middle" x="116.5" y="-350.5" font-family="Helvetica,sans-Serif" font-size="10.00"> </text>
</g>
<!-- Node5&#45;&gt;Node3 -->
<g id="edge3" class="edge"><title>Node5&#45;&gt;Node3</title>
<path fill="none" stroke="#404040" d="M116.5,-343.479C116.5,-330.317 116.5,-313.778 116.5,-296.939"/>
<polygon fill="none" stroke="#404040" points="116.5,-296.668 112.5,-290.668 116.5,-284.668 120.5,-290.668 116.5,-296.668"/>
<text text-anchor="middle" x="133" y="-311.5" font-family="Helvetica,sans-Serif" font-size="10.00"> #name</text>
</g>
</g>
</svg>
