<?xml version="1.0" encoding="UTF-8" standalone="no"?>
<!DOCTYPE svg PUBLIC "-//W3C//DTD SVG 1.1//EN"
 "http://www.w3.org/Graphics/SVG/1.1/DTD/svg11.dtd">
<!-- Generated by graphviz version 2.38.0 (20140413.2041)
 -->
<!-- Title: CSword Pages: 1 -->
<svg width="163pt" height="398pt"
 viewBox="0.00 0.00 163.00 398.00" xmlns="http://www.w3.org/2000/svg" xmlns:xlink="http://www.w3.org/1999/xlink">
<g id="graph0" class="graph" transform="scale(1 1) rotate(0) translate(4 394)">
<title>CSword</title>
<!-- Node2 -->
<g id="node1" class="node"><title>Node2</title>
<polygon fill="#bfbfbf" stroke="black" points="0,-0.5 0,-90.5 87,-90.5 87,-0.5 0,-0.5"/>
<text text-anchor="middle" x="43.5" y="-78.5" font-family="Helvetica,sans-Serif" font-size="10.00">CSword</text>
<polyline fill="none" stroke="black" points="0,-71.5 87,-71.5 "/>
<text text-anchor="middle" x="43.5" y="-59.5" font-family="Helvetica,sans-Serif" font-size="10.00"> </text>
<polyline fill="none" stroke="black" points="0,-52.5 87,-52.5 "/>
<text text-anchor="start" x="8" y="-40.5" font-family="Helvetica,sans-Serif" font-size="10.00">+ CSword()</text>
<text text-anchor="start" x="8" y="-29.5" font-family="Helvetica,sans-Serif" font-size="10.00">+ useItem()</text>
<text text-anchor="start" x="8" y="-18.5" font-family="Helvetica,sans-Serif" font-size="10.00">+ print()</text>
<text text-anchor="start" x="8" y="-7.5" font-family="Helvetica,sans-Serif" font-size="10.00">+ printForShop()</text>
</g>
<!-- Node3 -->
<g id="node2" class="node"><title>Node3</title>
<g id="a_node2"><a xlink:href="class_c_item.html" target="_top" xlink:title="{CItem\n||+ CItem()\l+ CItem()\l+ ~CItem()\l+ useItem()\l+ getID()\l+ getPrice()\l+ getName()\l+ print()\l+ printForShop()\l}">
<polygon fill="none" stroke="black" points="68,-128.5 68,-273.5 155,-273.5 155,-128.5 68,-128.5"/>
<text text-anchor="middle" x="111.5" y="-261.5" font-family="Helvetica,sans-Serif" font-size="10.00">CItem</text>
<polyline fill="none" stroke="black" points="68,-254.5 155,-254.5 "/>
<text text-anchor="middle" x="111.5" y="-242.5" font-family="Helvetica,sans-Serif" font-size="10.00"> </text>
<polyline fill="none" stroke="black" points="68,-235.5 155,-235.5 "/>
<text text-anchor="start" x="76" y="-223.5" font-family="Helvetica,sans-Serif" font-size="10.00">+ CItem()</text>
<text text-anchor="start" x="76" y="-212.5" font-family="Helvetica,sans-Serif" font-size="10.00">+ CItem()</text>
<text text-anchor="start" x="76" y="-201.5" font-family="Helvetica,sans-Serif" font-size="10.00">+ ~CItem()</text>
<text text-anchor="start" x="76" y="-190.5" font-family="Helvetica,sans-Serif" font-size="10.00">+ useItem()</text>
<text text-anchor="start" x="76" y="-179.5" font-family="Helvetica,sans-Serif" font-size="10.00">+ getID()</text>
<text text-anchor="start" x="76" y="-168.5" font-family="Helvetica,sans-Serif" font-size="10.00">+ getPrice()</text>
<text text-anchor="start" x="76" y="-157.5" font-family="Helvetica,sans-Serif" font-size="10.00">+ getName()</text>
<text text-anchor="start" x="76" y="-146.5" font-family="Helvetica,sans-Serif" font-size="10.00">+ print()</text>
<text text-anchor="start" x="76" y="-135.5" font-family="Helvetica,sans-Serif" font-size="10.00">+ printForShop()</text>
</a>
</g>
</g>
<!-- Node3&#45;&gt;Node2 -->
<g id="edge1" class="edge"><title>Node3&#45;&gt;Node2</title>
<path fill="none" stroke="midnightblue" d="M75.566,-118.884C71.2683,-109.183 67.012,-99.5749 63.0729,-90.683"/>
<polygon fill="none" stroke="midnightblue" points="72.4396,-120.468 79.6901,-128.194 78.8397,-117.633 72.4396,-120.468"/>
</g>
<!-- Node4 -->
<g id="node3" class="node"><title>Node4</title>
<polygon fill="none" stroke="#bfbfbf" points="19,-332.5 19,-389.5 48,-389.5 48,-332.5 19,-332.5"/>
<text text-anchor="middle" x="33.5" y="-377.5" font-family="Helvetica,sans-Serif" font-size="10.00">int</text>
<polyline fill="none" stroke="#bfbfbf" points="19,-370.5 48,-370.5 "/>
<text text-anchor="middle" x="33.5" y="-358.5" font-family="Helvetica,sans-Serif" font-size="10.00"> </text>
<polyline fill="none" stroke="#bfbfbf" points="19,-351.5 48,-351.5 "/>
<text text-anchor="middle" x="33.5" y="-339.5" font-family="Helvetica,sans-Serif" font-size="10.00"> </text>
</g>
<!-- Node4&#45;&gt;Node2 -->
<g id="edge4" class="edge"><title>Node4&#45;&gt;Node2</title>
<path fill="none" stroke="#404040" d="M29.114,-332.38C22.8813,-288.778 13.1948,-201.405 22.5,-128 23.5616,-119.625 25.2136,-110.88 27.1354,-102.358"/>
<polygon fill="none" stroke="#404040" points="27.1775,-102.183 24.7002,-95.4108 29.9987,-90.5193 32.476,-97.2915 27.1775,-102.183"/>
<text text-anchor="middle" x="40.5" y="-198.5" font-family="Helvetica,sans-Serif" font-size="10.00"> #attack</text>
</g>
<!-- Node4&#45;&gt;Node3 -->
<g id="edge2" class="edge"><title>Node4&#45;&gt;Node3</title>
<path fill="none" stroke="#404040" d="M47.0866,-332.479C53.7735,-318.933 62.2259,-301.812 70.7886,-284.467"/>
<polygon fill="none" stroke="#404040" points="70.8074,-284.428 69.8767,-277.278 76.1195,-273.668 77.0502,-280.819 70.8074,-284.428"/>
<text text-anchor="middle" x="83.5" y="-306" font-family="Helvetica,sans-Serif" font-size="10.00"> #price</text>
<text text-anchor="middle" x="83.5" y="-295" font-family="Helvetica,sans-Serif" font-size="10.00">#itemID</text>
</g>
<!-- Node5 -->
<g id="node4" class="node"><title>Node5</title>
<polygon fill="none" stroke="#bfbfbf" points="91,-332.5 91,-389.5 132,-389.5 132,-332.5 91,-332.5"/>
<text text-anchor="middle" x="111.5" y="-377.5" font-family="Helvetica,sans-Serif" font-size="10.00">string</text>
<polyline fill="none" stroke="#bfbfbf" points="91,-370.5 132,-370.5 "/>
<text text-anchor="middle" x="111.5" y="-358.5" font-family="Helvetica,sans-Serif" font-size="10.00"> </text>
<polyline fill="none" stroke="#bfbfbf" points="91,-351.5 132,-351.5 "/>
<text text-anchor="middle" x="111.5" y="-339.5" font-family="Helvetica,sans-Serif" font-size="10.00"> </text>
</g>
<!-- Node5&#45;&gt;Node3 -->
<g id="edge3" class="edge"><title>Node5&#45;&gt;Node3</title>
<path fill="none" stroke="#404040" d="M111.5,-332.479C111.5,-319.317 111.5,-302.778 111.5,-285.939"/>
<polygon fill="none" stroke="#404040" points="111.5,-285.668 107.5,-279.668 111.5,-273.668 115.5,-279.668 111.5,-285.668"/>
<text text-anchor="middle" x="128" y="-300.5" font-family="Helvetica,sans-Serif" font-size="10.00"> #name</text>
</g>
</g>
</svg>
