<?xml version="1.0" encoding="UTF-8" standalone="no"?>
<!DOCTYPE svg PUBLIC "-//W3C//DTD SVG 1.1//EN"
 "http://www.w3.org/Graphics/SVG/1.1/DTD/svg11.dtd">
<!-- Generated by graphviz version 2.38.0 (20140413.2041)
 -->
<!-- Title: CGame::mainMenu Pages: 1 -->
<svg width="543pt" height="114pt"
 viewBox="0.00 0.00 543.00 114.00" xmlns="http://www.w3.org/2000/svg" xmlns:xlink="http://www.w3.org/1999/xlink">
<g id="graph0" class="graph" transform="scale(1 1) rotate(0) translate(4 110)">
<title>CGame::mainMenu</title>
<!-- Node173 -->
<g id="node1" class="node"><title>Node173</title>
<polygon fill="#bfbfbf" stroke="black" points="0,-0.5 0,-19.5 101,-19.5 101,-0.5 0,-0.5"/>
<text text-anchor="middle" x="50.5" y="-7.5" font-family="Helvetica,sans-Serif" font-size="10.00">CGame::mainMenu</text>
</g>
<!-- Node174 -->
<g id="node2" class="node"><title>Node174</title>
<g id="a_node2"><a xlink:href="class_c_game.html#aa9d3da2fefa1c04faefc6586dbd37971" target="_top" xlink:title="CGame::play">
<polygon fill="none" stroke="black" points="137,-29.5 137,-48.5 211,-48.5 211,-29.5 137,-29.5"/>
<text text-anchor="middle" x="174" y="-36.5" font-family="Helvetica,sans-Serif" font-size="10.00">CGame::play</text>
</a>
</g>
</g>
<!-- Node173&#45;&gt;Node174 -->
<g id="edge1" class="edge"><title>Node173&#45;&gt;Node174</title>
<path fill="none" stroke="midnightblue" d="M101.361,-21.901C113.165,-24.7184 125.536,-27.6711 136.612,-30.3147"/>
<polygon fill="midnightblue" stroke="midnightblue" points="102.16,-18.4934 91.6204,-19.5761 100.535,-25.3021 102.16,-18.4934"/>
</g>
<!-- Node176 -->
<g id="node4" class="node"><title>Node176</title>
<g id="a_node4"><a xlink:href="class_c_game.html#a714b291af5e20aae8be14a905fd0522d" target="_top" xlink:title="CGame::tickComponent">
<polygon fill="none" stroke="black" points="414,-10.5 414,-29.5 535,-29.5 535,-10.5 414,-10.5"/>
<text text-anchor="middle" x="474.5" y="-17.5" font-family="Helvetica,sans-Serif" font-size="10.00">CGame::tickComponent</text>
</a>
</g>
</g>
<!-- Node173&#45;&gt;Node176 -->
<g id="edge6" class="edge"><title>Node173&#45;&gt;Node176</title>
<path fill="none" stroke="midnightblue" d="M111.597,-11.4241C191.999,-13.3294 333.715,-16.6876 413.875,-18.5871"/>
<polygon fill="midnightblue" stroke="midnightblue" points="111.23,-7.91451 101.15,-11.1765 111.064,-14.9125 111.23,-7.91451"/>
</g>
<!-- Node175 -->
<g id="node3" class="node"><title>Node175</title>
<g id="a_node3"><a xlink:href="class_c_game.html#ac0a8028013ca5a7c135c29fa582df4a0" target="_top" xlink:title="CGame::checkHeroStatus">
<polygon fill="none" stroke="black" points="247,-86.5 247,-105.5 378,-105.5 378,-86.5 247,-86.5"/>
<text text-anchor="middle" x="312.5" y="-93.5" font-family="Helvetica,sans-Serif" font-size="10.00">CGame::checkHeroStatus</text>
</a>
</g>
</g>
<!-- Node174&#45;&gt;Node175 -->
<g id="edge2" class="edge"><title>Node174&#45;&gt;Node175</title>
<path fill="none" stroke="midnightblue" d="M199.634,-53.569C213.276,-61.2331 230.723,-70.3842 247,-77 255.76,-80.5603 265.434,-83.7698 274.566,-86.494"/>
<polygon fill="midnightblue" stroke="midnightblue" points="201.276,-50.4765 190.858,-48.55 197.801,-56.5529 201.276,-50.4765"/>
</g>
<!-- Node177 -->
<g id="node5" class="node"><title>Node177</title>
<g id="a_node5"><a xlink:href="main_8cpp.html#ae66f6b31b5ad750f1fe042a706a4e3d4" target="_top" xlink:title="main">
<polygon fill="none" stroke="black" points="293.5,-48.5 293.5,-67.5 331.5,-67.5 331.5,-48.5 293.5,-48.5"/>
<text text-anchor="middle" x="312.5" y="-55.5" font-family="Helvetica,sans-Serif" font-size="10.00">main</text>
</a>
</g>
</g>
<!-- Node174&#45;&gt;Node177 -->
<g id="edge5" class="edge"><title>Node174&#45;&gt;Node177</title>
<path fill="none" stroke="midnightblue" d="M221.129,-45.4208C245.788,-48.8533 274.768,-52.8871 293.132,-55.4433"/>
<polygon fill="midnightblue" stroke="midnightblue" points="221.608,-41.9539 211.221,-44.0418 220.643,-48.8871 221.608,-41.9539"/>
</g>
<!-- Node175&#45;&gt;Node176 -->
<g id="edge3" class="edge"><title>Node175&#45;&gt;Node176</title>
<path fill="none" stroke="midnightblue" d="M361.837,-83.2149C367.361,-81.3274 372.853,-79.2512 378,-77 408.782,-63.5375 441.838,-42.043 459.857,-29.6543"/>
<polygon fill="midnightblue" stroke="midnightblue" points="360.372,-80.0097 351.925,-86.4056 362.517,-86.673 360.372,-80.0097"/>
</g>
<!-- Node176&#45;&gt;Node174 -->
<g id="edge4" class="edge"><title>Node176&#45;&gt;Node174</title>
<path fill="none" stroke="midnightblue" d="M403.704,-24.4426C343.365,-28.2833 258.572,-33.6805 211.006,-36.7082"/>
<polygon fill="midnightblue" stroke="midnightblue" points="404.161,-27.9207 413.918,-23.7925 403.716,-20.9349 404.161,-27.9207"/>
</g>
</g>
</svg>
