<?xml version="1.0" encoding="UTF-8" standalone="no"?>
<!DOCTYPE svg PUBLIC "-//W3C//DTD SVG 1.1//EN"
 "http://www.w3.org/Graphics/SVG/1.1/DTD/svg11.dtd">
<!-- Generated by graphviz version 2.38.0 (20140413.2041)
 -->
<!-- Title: CShopping::update Pages: 1 -->
<svg width="654pt" height="142pt"
 viewBox="0.00 0.00 654.00 142.00" xmlns="http://www.w3.org/2000/svg" xmlns:xlink="http://www.w3.org/1999/xlink">
<g id="graph0" class="graph" transform="scale(1 1) rotate(0) translate(4 138)">
<title>CShopping::update</title>
<!-- Node59 -->
<g id="node1" class="node"><title>Node59</title>
<polygon fill="#bfbfbf" stroke="black" points="0,-38.5 0,-57.5 99,-57.5 99,-38.5 0,-38.5"/>
<text text-anchor="middle" x="49.5" y="-45.5" font-family="Helvetica,sans-Serif" font-size="10.00">CShopping::update</text>
</g>
<!-- Node60 -->
<g id="node2" class="node"><title>Node60</title>
<g id="a_node2"><a xlink:href="class_c_game.html#acdb5a10d8b17584b07b3c736ede7bf57" target="_top" xlink:title="CGame::reset">
<polygon fill="none" stroke="black" points="135,-38.5 135,-57.5 212,-57.5 212,-38.5 135,-38.5"/>
<text text-anchor="middle" x="173.5" y="-45.5" font-family="Helvetica,sans-Serif" font-size="10.00">CGame::reset</text>
</a>
</g>
</g>
<!-- Node59&#45;&gt;Node60 -->
<g id="edge1" class="edge"><title>Node59&#45;&gt;Node60</title>
<path fill="none" stroke="midnightblue" d="M109.161,-48C117.818,-48 126.539,-48 134.623,-48"/>
<polygon fill="midnightblue" stroke="midnightblue" points="109.068,-44.5001 99.0682,-48 109.068,-51.5001 109.068,-44.5001"/>
</g>
<!-- Node61 -->
<g id="node3" class="node"><title>Node61</title>
<g id="a_node3"><a xlink:href="class_c_game.html#a714b291af5e20aae8be14a905fd0522d" target="_top" xlink:title="CGame::tickComponent">
<polygon fill="none" stroke="black" points="248,-76.5 248,-95.5 369,-95.5 369,-76.5 248,-76.5"/>
<text text-anchor="middle" x="308.5" y="-83.5" font-family="Helvetica,sans-Serif" font-size="10.00">CGame::tickComponent</text>
</a>
</g>
</g>
<!-- Node60&#45;&gt;Node61 -->
<g id="edge2" class="edge"><title>Node60&#45;&gt;Node61</title>
<path fill="none" stroke="midnightblue" d="M217.867,-60.3906C236.081,-65.5945 256.939,-71.5541 273.949,-76.4141"/>
<polygon fill="midnightblue" stroke="midnightblue" points="218.638,-56.971 208.062,-57.589 216.715,-63.7016 218.638,-56.971"/>
</g>
<!-- Node63 -->
<g id="node5" class="node"><title>Node63</title>
<g id="a_node5"><a xlink:href="class_c_game.html#ac0a8028013ca5a7c135c29fa582df4a0" target="_top" xlink:title="CGame::checkHeroStatus">
<polygon fill="none" stroke="black" points="515,-76.5 515,-95.5 646,-95.5 646,-76.5 515,-76.5"/>
<text text-anchor="middle" x="580.5" y="-83.5" font-family="Helvetica,sans-Serif" font-size="10.00">CGame::checkHeroStatus</text>
</a>
</g>
</g>
<!-- Node60&#45;&gt;Node63 -->
<g id="edge7" class="edge"><title>Node60&#45;&gt;Node63</title>
<path fill="none" stroke="midnightblue" d="M222.477,-52.5015C295.195,-59.3244 433.455,-72.297 514.934,-79.942"/>
<polygon fill="midnightblue" stroke="midnightblue" points="222.521,-48.9904 212.238,-51.5408 221.867,-55.9598 222.521,-48.9904"/>
</g>
<!-- Node65 -->
<g id="node7" class="node"><title>Node65</title>
<g id="a_node7"><a xlink:href="class_c_game.html#af5435e79a93dd92991ae24b499976470" target="_top" xlink:title="CGame::CGame">
<polygon fill="none" stroke="black" points="264,-0.5 264,-19.5 353,-19.5 353,-0.5 264,-0.5"/>
<text text-anchor="middle" x="308.5" y="-7.5" font-family="Helvetica,sans-Serif" font-size="10.00">CGame::CGame</text>
</a>
</g>
</g>
<!-- Node60&#45;&gt;Node65 -->
<g id="edge8" class="edge"><title>Node60&#45;&gt;Node65</title>
<path fill="none" stroke="midnightblue" d="M217.867,-35.6094C236.081,-30.4055 256.939,-24.4459 273.949,-19.5859"/>
<polygon fill="midnightblue" stroke="midnightblue" points="216.715,-32.2984 208.062,-38.411 218.638,-39.029 216.715,-32.2984"/>
</g>
<!-- Node62 -->
<g id="node4" class="node"><title>Node62</title>
<g id="a_node4"><a xlink:href="class_c_game.html#aa9d3da2fefa1c04faefc6586dbd37971" target="_top" xlink:title="CGame::play">
<polygon fill="none" stroke="black" points="405,-114.5 405,-133.5 479,-133.5 479,-114.5 405,-114.5"/>
<text text-anchor="middle" x="442" y="-121.5" font-family="Helvetica,sans-Serif" font-size="10.00">CGame::play</text>
</a>
</g>
</g>
<!-- Node61&#45;&gt;Node62 -->
<g id="edge3" class="edge"><title>Node61&#45;&gt;Node62</title>
<path fill="none" stroke="midnightblue" d="M352.378,-98.3906C370.386,-103.594 391.01,-109.554 407.828,-114.414"/>
<polygon fill="midnightblue" stroke="midnightblue" points="353.262,-95.0028 342.683,-95.589 351.318,-101.728 353.262,-95.0028"/>
</g>
<!-- Node62&#45;&gt;Node63 -->
<g id="edge4" class="edge"><title>Node62&#45;&gt;Node63</title>
<path fill="none" stroke="midnightblue" d="M487.249,-111.682C506.003,-106.461 527.528,-100.468 545.066,-95.5859"/>
<polygon fill="midnightblue" stroke="midnightblue" points="486.14,-108.357 477.445,-114.411 488.017,-115.101 486.14,-108.357"/>
</g>
<!-- Node64 -->
<g id="node6" class="node"><title>Node64</title>
<g id="a_node6"><a xlink:href="main_8cpp.html#ae66f6b31b5ad750f1fe042a706a4e3d4" target="_top" xlink:title="main">
<polygon fill="none" stroke="black" points="561.5,-114.5 561.5,-133.5 599.5,-133.5 599.5,-114.5 561.5,-114.5"/>
<text text-anchor="middle" x="580.5" y="-121.5" font-family="Helvetica,sans-Serif" font-size="10.00">main</text>
</a>
</g>
</g>
<!-- Node62&#45;&gt;Node64 -->
<g id="edge6" class="edge"><title>Node62&#45;&gt;Node64</title>
<path fill="none" stroke="midnightblue" d="M489.458,-124C514.045,-124 542.849,-124 561.132,-124"/>
<polygon fill="midnightblue" stroke="midnightblue" points="489.221,-120.5 479.221,-124 489.221,-127.5 489.221,-120.5"/>
</g>
<!-- Node63&#45;&gt;Node61 -->
<g id="edge5" class="edge"><title>Node63&#45;&gt;Node61</title>
<path fill="none" stroke="midnightblue" d="M504.793,-86C462.008,-86 409.055,-86 369.087,-86"/>
<polygon fill="midnightblue" stroke="midnightblue" points="504.875,-89.5001 514.875,-86 504.875,-82.5001 504.875,-89.5001"/>
</g>
</g>
</svg>
