<?xml version="1.0" encoding="UTF-8" standalone="no"?>
<!DOCTYPE svg PUBLIC "-//W3C//DTD SVG 1.1//EN"
 "http://www.w3.org/Graphics/SVG/1.1/DTD/svg11.dtd">
<!-- Generated by graphviz version 2.38.0 (20140413.2041)
 -->
<!-- Title: CEvent Pages: 1 -->
<svg width="130pt" height="215pt"
 viewBox="0.00 0.00 129.50 215.00" xmlns="http://www.w3.org/2000/svg" xmlns:xlink="http://www.w3.org/1999/xlink">
<g id="graph0" class="graph" transform="scale(1 1) rotate(0) translate(4 211)">
<title>CEvent</title>
<!-- Node5 -->
<g id="node1" class="node"><title>Node5</title>
<polygon fill="#bfbfbf" stroke="black" points="11.5,-0.5 11.5,-90.5 79.5,-90.5 79.5,-0.5 11.5,-0.5"/>
<text text-anchor="middle" x="45.5" y="-78.5" font-family="Helvetica,sans-Serif" font-size="10.00">CEvent</text>
<polyline fill="none" stroke="black" points="11.5,-71.5 79.5,-71.5 "/>
<text text-anchor="middle" x="45.5" y="-59.5" font-family="Helvetica,sans-Serif" font-size="10.00"> </text>
<polyline fill="none" stroke="black" points="11.5,-52.5 79.5,-52.5 "/>
<text text-anchor="start" x="19.5" y="-40.5" font-family="Helvetica,sans-Serif" font-size="10.00">+ CEvent()</text>
<text text-anchor="start" x="19.5" y="-29.5" font-family="Helvetica,sans-Serif" font-size="10.00">+ ~CEvent()</text>
<text text-anchor="start" x="19.5" y="-18.5" font-family="Helvetica,sans-Serif" font-size="10.00">+ print()</text>
<text text-anchor="start" x="19.5" y="-7.5" font-family="Helvetica,sans-Serif" font-size="10.00">+ execute()</text>
</g>
<!-- Node6 -->
<g id="node2" class="node"><title>Node6</title>
<polygon fill="none" stroke="#bfbfbf" points="0,-149.5 0,-206.5 29,-206.5 29,-149.5 0,-149.5"/>
<text text-anchor="middle" x="14.5" y="-194.5" font-family="Helvetica,sans-Serif" font-size="10.00">int</text>
<polyline fill="none" stroke="#bfbfbf" points="0,-187.5 29,-187.5 "/>
<text text-anchor="middle" x="14.5" y="-175.5" font-family="Helvetica,sans-Serif" font-size="10.00"> </text>
<polyline fill="none" stroke="#bfbfbf" points="0,-168.5 29,-168.5 "/>
<text text-anchor="middle" x="14.5" y="-156.5" font-family="Helvetica,sans-Serif" font-size="10.00"> </text>
</g>
<!-- Node6&#45;&gt;Node5 -->
<g id="edge1" class="edge"><title>Node6&#45;&gt;Node5</title>
<path fill="none" stroke="#404040" d="M12.2268,-149.208C11.891,-136.758 12.4439,-121.987 15.5,-109 16.0376,-106.715 16.6674,-104.416 17.3722,-102.118"/>
<polygon fill="none" stroke="#404040" points="17.4112,-102.008 15.6587,-95.0134 21.4416,-90.7054 23.194,-97.7004 17.4112,-102.008"/>
<text text-anchor="middle" x="35.5" y="-117.5" font-family="Helvetica,sans-Serif" font-size="10.00"> #eventID</text>
</g>
<!-- Node7 -->
<g id="node3" class="node"><title>Node7</title>
<polygon fill="none" stroke="#bfbfbf" points="57,-149.5 57,-206.5 98,-206.5 98,-149.5 57,-149.5"/>
<text text-anchor="middle" x="77.5" y="-194.5" font-family="Helvetica,sans-Serif" font-size="10.00">string</text>
<polyline fill="none" stroke="#bfbfbf" points="57,-187.5 98,-187.5 "/>
<text text-anchor="middle" x="77.5" y="-175.5" font-family="Helvetica,sans-Serif" font-size="10.00"> </text>
<polyline fill="none" stroke="#bfbfbf" points="57,-168.5 98,-168.5 "/>
<text text-anchor="middle" x="77.5" y="-156.5" font-family="Helvetica,sans-Serif" font-size="10.00"> </text>
</g>
<!-- Node7&#45;&gt;Node5 -->
<g id="edge2" class="edge"><title>Node7&#45;&gt;Node5</title>
<path fill="none" stroke="#404040" d="M70.7136,-149.324C67.3803,-135.731 63.2377,-118.837 59.2799,-102.696"/>
<polygon fill="none" stroke="#404040" points="59.1638,-102.222 53.8499,-97.3476 56.3059,-90.5676 61.6197,-95.4423 59.1638,-102.222"/>
<text text-anchor="middle" x="93" y="-123" font-family="Helvetica,sans-Serif" font-size="10.00"> #eventName</text>
<text text-anchor="middle" x="93" y="-112" font-family="Helvetica,sans-Serif" font-size="10.00">#text</text>
</g>
</g>
</svg>
