<?xml version="1.0" encoding="UTF-8" standalone="no"?>
<!DOCTYPE svg PUBLIC "-//W3C//DTD SVG 1.1//EN"
 "http://www.w3.org/Graphics/SVG/1.1/DTD/svg11.dtd">
<!-- Generated by graphviz version 2.38.0 (20140413.2041)
 -->
<!-- Title: CStreamDecoder::decodePlayerData Pages: 1 -->
<svg width="1058pt" height="114pt"
 viewBox="0.00 0.00 1058.00 114.00" xmlns="http://www.w3.org/2000/svg" xmlns:xlink="http://www.w3.org/1999/xlink">
<g id="graph0" class="graph" transform="scale(1 1) rotate(0) translate(4 110)">
<title>CStreamDecoder::decodePlayerData</title>
<!-- Node4 -->
<g id="node1" class="node"><title>Node4</title>
<polygon fill="#bfbfbf" stroke="black" points="0,-0.5 0,-19.5 176,-19.5 176,-0.5 0,-0.5"/>
<text text-anchor="middle" x="88" y="-7.5" font-family="Helvetica,sans-Serif" font-size="10.00">CStreamDecoder::decodePlayerData</text>
</g>
<!-- Node5 -->
<g id="node2" class="node"><title>Node5</title>
<g id="a_node2"><a xlink:href="class_c_game.html#a507b71eeebc2a6aaa08d9e0dcb61c7ac" target="_top" xlink:title="CGame::importPlayerData">
<polygon fill="none" stroke="black" points="212,-0.5 212,-19.5 343,-19.5 343,-0.5 212,-0.5"/>
<text text-anchor="middle" x="277.5" y="-7.5" font-family="Helvetica,sans-Serif" font-size="10.00">CGame::importPlayerData</text>
</a>
</g>
</g>
<!-- Node4&#45;&gt;Node5 -->
<g id="edge1" class="edge"><title>Node4&#45;&gt;Node5</title>
<path fill="none" stroke="midnightblue" d="M186.347,-10C195.021,-10 203.654,-10 211.949,-10"/>
<polygon fill="midnightblue" stroke="midnightblue" points="186.163,-6.5001 176.163,-10 186.163,-13.5001 186.163,-6.5001"/>
</g>
<!-- Node6 -->
<g id="node3" class="node"><title>Node6</title>
<g id="a_node3"><a xlink:href="class_c_game.html#accda079824fc813cbd64b4743846ae24" target="_top" xlink:title="CGame::loadGame">
<polygon fill="none" stroke="black" points="379,-0.5 379,-19.5 479,-19.5 479,-0.5 379,-0.5"/>
<text text-anchor="middle" x="429" y="-7.5" font-family="Helvetica,sans-Serif" font-size="10.00">CGame::loadGame</text>
</a>
</g>
</g>
<!-- Node5&#45;&gt;Node6 -->
<g id="edge2" class="edge"><title>Node5&#45;&gt;Node6</title>
<path fill="none" stroke="midnightblue" d="M353.379,-10C362.071,-10 370.76,-10 378.977,-10"/>
<polygon fill="midnightblue" stroke="midnightblue" points="353.203,-6.5001 343.203,-10 353.203,-13.5001 353.203,-6.5001"/>
</g>
<!-- Node7 -->
<g id="node4" class="node"><title>Node7</title>
<g id="a_node4"><a xlink:href="class_c_game.html#a39e1e296c6dcabbf5c824eea6424d6d9" target="_top" xlink:title="CGame::mainMenu">
<polygon fill="none" stroke="black" points="515,-0.5 515,-19.5 616,-19.5 616,-0.5 515,-0.5"/>
<text text-anchor="middle" x="565.5" y="-7.5" font-family="Helvetica,sans-Serif" font-size="10.00">CGame::mainMenu</text>
</a>
</g>
</g>
<!-- Node6&#45;&gt;Node7 -->
<g id="edge3" class="edge"><title>Node6&#45;&gt;Node7</title>
<path fill="none" stroke="midnightblue" d="M489.486,-10C497.918,-10 506.515,-10 514.737,-10"/>
<polygon fill="midnightblue" stroke="midnightblue" points="489.319,-6.5001 479.319,-10 489.319,-13.5001 489.319,-6.5001"/>
</g>
<!-- Node8 -->
<g id="node5" class="node"><title>Node8</title>
<g id="a_node5"><a xlink:href="class_c_game.html#aa9d3da2fefa1c04faefc6586dbd37971" target="_top" xlink:title="CGame::play">
<polygon fill="none" stroke="black" points="652,-29.5 652,-48.5 726,-48.5 726,-29.5 652,-29.5"/>
<text text-anchor="middle" x="689" y="-36.5" font-family="Helvetica,sans-Serif" font-size="10.00">CGame::play</text>
</a>
</g>
</g>
<!-- Node7&#45;&gt;Node8 -->
<g id="edge4" class="edge"><title>Node7&#45;&gt;Node8</title>
<path fill="none" stroke="midnightblue" d="M616.361,-21.901C628.165,-24.7184 640.536,-27.6711 651.612,-30.3147"/>
<polygon fill="midnightblue" stroke="midnightblue" points="617.16,-18.4934 606.62,-19.5761 615.535,-25.3021 617.16,-18.4934"/>
</g>
<!-- Node10 -->
<g id="node7" class="node"><title>Node10</title>
<g id="a_node7"><a xlink:href="class_c_game.html#a714b291af5e20aae8be14a905fd0522d" target="_top" xlink:title="CGame::tickComponent">
<polygon fill="none" stroke="black" points="929,-10.5 929,-29.5 1050,-29.5 1050,-10.5 929,-10.5"/>
<text text-anchor="middle" x="989.5" y="-17.5" font-family="Helvetica,sans-Serif" font-size="10.00">CGame::tickComponent</text>
</a>
</g>
</g>
<!-- Node7&#45;&gt;Node10 -->
<g id="edge9" class="edge"><title>Node7&#45;&gt;Node10</title>
<path fill="none" stroke="midnightblue" d="M626.597,-11.4241C706.999,-13.3294 848.715,-16.6876 928.875,-18.5871"/>
<polygon fill="midnightblue" stroke="midnightblue" points="626.23,-7.91451 616.15,-11.1765 626.064,-14.9125 626.23,-7.91451"/>
</g>
<!-- Node9 -->
<g id="node6" class="node"><title>Node9</title>
<g id="a_node6"><a xlink:href="class_c_game.html#ac0a8028013ca5a7c135c29fa582df4a0" target="_top" xlink:title="CGame::checkHeroStatus">
<polygon fill="none" stroke="black" points="762,-86.5 762,-105.5 893,-105.5 893,-86.5 762,-86.5"/>
<text text-anchor="middle" x="827.5" y="-93.5" font-family="Helvetica,sans-Serif" font-size="10.00">CGame::checkHeroStatus</text>
</a>
</g>
</g>
<!-- Node8&#45;&gt;Node9 -->
<g id="edge5" class="edge"><title>Node8&#45;&gt;Node9</title>
<path fill="none" stroke="midnightblue" d="M714.634,-53.569C728.276,-61.2331 745.723,-70.3842 762,-77 770.76,-80.5603 780.434,-83.7698 789.566,-86.494"/>
<polygon fill="midnightblue" stroke="midnightblue" points="716.276,-50.4765 705.858,-48.55 712.801,-56.5529 716.276,-50.4765"/>
</g>
<!-- Node11 -->
<g id="node8" class="node"><title>Node11</title>
<g id="a_node8"><a xlink:href="main_8cpp.html#ae66f6b31b5ad750f1fe042a706a4e3d4" target="_top" xlink:title="main">
<polygon fill="none" stroke="black" points="808.5,-48.5 808.5,-67.5 846.5,-67.5 846.5,-48.5 808.5,-48.5"/>
<text text-anchor="middle" x="827.5" y="-55.5" font-family="Helvetica,sans-Serif" font-size="10.00">main</text>
</a>
</g>
</g>
<!-- Node8&#45;&gt;Node11 -->
<g id="edge8" class="edge"><title>Node8&#45;&gt;Node11</title>
<path fill="none" stroke="midnightblue" d="M736.129,-45.4208C760.788,-48.8533 789.768,-52.8871 808.132,-55.4433"/>
<polygon fill="midnightblue" stroke="midnightblue" points="736.608,-41.9539 726.221,-44.0418 735.643,-48.8871 736.608,-41.9539"/>
</g>
<!-- Node9&#45;&gt;Node10 -->
<g id="edge6" class="edge"><title>Node9&#45;&gt;Node10</title>
<path fill="none" stroke="midnightblue" d="M876.837,-83.2149C882.361,-81.3274 887.853,-79.2512 893,-77 923.782,-63.5375 956.838,-42.043 974.857,-29.6543"/>
<polygon fill="midnightblue" stroke="midnightblue" points="875.372,-80.0097 866.925,-86.4056 877.517,-86.673 875.372,-80.0097"/>
</g>
<!-- Node10&#45;&gt;Node8 -->
<g id="edge7" class="edge"><title>Node10&#45;&gt;Node8</title>
<path fill="none" stroke="midnightblue" d="M918.704,-24.4426C858.365,-28.2833 773.572,-33.6805 726.006,-36.7082"/>
<polygon fill="midnightblue" stroke="midnightblue" points="919.161,-27.9207 928.918,-23.7925 918.716,-20.9349 919.161,-27.9207"/>
</g>
</g>
</svg>
