<?xml version="1.0" encoding="UTF-8" standalone="no"?>
<!DOCTYPE svg PUBLIC "-//W3C//DTD SVG 1.1//EN"
 "http://www.w3.org/Graphics/SVG/1.1/DTD/svg11.dtd">
<!-- Generated by graphviz version 2.38.0 (20140413.2041)
 -->
<!-- Title: CWorld::getItem Pages: 1 -->
<svg width="391pt" height="165pt"
 viewBox="0.00 0.00 391.00 164.50" xmlns="http://www.w3.org/2000/svg" xmlns:xlink="http://www.w3.org/1999/xlink">
<g id="graph0" class="graph" transform="scale(1 1) rotate(0) translate(4 160.5)">
<title>CWorld::getItem</title>
<!-- Node22 -->
<g id="node1" class="node"><title>Node22</title>
<polygon fill="#bfbfbf" stroke="black" points="0,-60.5 0,-79.5 87,-79.5 87,-60.5 0,-60.5"/>
<text text-anchor="middle" x="43.5" y="-67.5" font-family="Helvetica,sans-Serif" font-size="10.00">CWorld::getItem</text>
</g>
<!-- Node23 -->
<g id="node2" class="node"><title>Node23</title>
<g id="a_node2"><a xlink:href="class_c_inventory_browser.html#ac865349ca08d9402c869d8e5450c689a" target="_top" xlink:title="CInventoryBrowser::\lequip">
<polygon fill="none" stroke="black" points="128,-126 128,-156 231,-156 231,-126 128,-126"/>
<text text-anchor="start" x="136" y="-144" font-family="Helvetica,sans-Serif" font-size="10.00">CInventoryBrowser::</text>
<text text-anchor="middle" x="179.5" y="-133" font-family="Helvetica,sans-Serif" font-size="10.00">equip</text>
</a>
</g>
</g>
<!-- Node22&#45;&gt;Node23 -->
<g id="edge1" class="edge"><title>Node22&#45;&gt;Node23</title>
<path fill="none" stroke="midnightblue" d="M68.0339,-85.198C83.3915,-94.8368 104.038,-107.277 123,-117 128.978,-120.066 135.436,-123.098 141.76,-125.923"/>
<polygon fill="midnightblue" stroke="midnightblue" points="69.537,-82.0068 59.2174,-79.6077 65.7885,-87.9186 69.537,-82.0068"/>
</g>
<!-- Node25 -->
<g id="node4" class="node"><title>Node25</title>
<g id="a_node4"><a xlink:href="class_c_inventory_browser.html#a022cb6fc703bd156921816554c7a18b8" target="_top" xlink:title="CInventoryBrowser::\lprintInventory">
<polygon fill="none" stroke="black" points="128,-77 128,-107 231,-107 231,-77 128,-77"/>
<text text-anchor="start" x="136" y="-95" font-family="Helvetica,sans-Serif" font-size="10.00">CInventoryBrowser::</text>
<text text-anchor="middle" x="179.5" y="-84" font-family="Helvetica,sans-Serif" font-size="10.00">printInventory</text>
</a>
</g>
</g>
<!-- Node22&#45;&gt;Node25 -->
<g id="edge3" class="edge"><title>Node22&#45;&gt;Node25</title>
<path fill="none" stroke="midnightblue" d="M97.1403,-78.6424C107.201,-80.2941 117.714,-82.0202 127.715,-83.6622"/>
<polygon fill="midnightblue" stroke="midnightblue" points="97.7018,-75.1878 87.2669,-77.0214 96.5677,-82.0954 97.7018,-75.1878"/>
</g>
<!-- Node26 -->
<g id="node5" class="node"><title>Node26</title>
<g id="a_node5"><a xlink:href="class_c_shopping.html#acfb04014dcfe9b4ddca2206a567112c9" target="_top" xlink:title="CShopping::printItems">
<polygon fill="none" stroke="black" points="123,-38.5 123,-57.5 236,-57.5 236,-38.5 123,-38.5"/>
<text text-anchor="middle" x="179.5" y="-45.5" font-family="Helvetica,sans-Serif" font-size="10.00">CShopping::printItems</text>
</a>
</g>
</g>
<!-- Node22&#45;&gt;Node26 -->
<g id="edge5" class="edge"><title>Node22&#45;&gt;Node26</title>
<path fill="none" stroke="midnightblue" d="M97.3275,-61.3268C105.733,-59.9468 114.451,-58.5155 122.918,-57.1254"/>
<polygon fill="midnightblue" stroke="midnightblue" points="96.5677,-57.9046 87.2669,-62.9786 97.7018,-64.8122 96.5677,-57.9046"/>
</g>
<!-- Node28 -->
<g id="node7" class="node"><title>Node28</title>
<g id="a_node7"><a xlink:href="class_c_shopping.html#a0981a7916cca8a37beb35858ad2ec77e" target="_top" xlink:title="CShopping::buyItem">
<polygon fill="none" stroke="black" points="127.5,-0.5 127.5,-19.5 231.5,-19.5 231.5,-0.5 127.5,-0.5"/>
<text text-anchor="middle" x="179.5" y="-7.5" font-family="Helvetica,sans-Serif" font-size="10.00">CShopping::buyItem</text>
</a>
</g>
</g>
<!-- Node22&#45;&gt;Node28 -->
<g id="edge7" class="edge"><title>Node22&#45;&gt;Node28</title>
<path fill="none" stroke="midnightblue" d="M69.7679,-55.5545C84.9269,-47.2054 104.748,-36.837 123,-29 130.954,-25.5845 139.745,-22.3424 147.94,-19.5352"/>
<polygon fill="midnightblue" stroke="midnightblue" points="68.0163,-52.5237 60.9875,-60.4513 71.4259,-58.6373 68.0163,-52.5237"/>
</g>
<!-- Node24 -->
<g id="node3" class="node"><title>Node24</title>
<g id="a_node3"><a xlink:href="class_c_inventory_browser.html#a91c51766048ba5629b125b9a444d31bb" target="_top" xlink:title="CInventoryBrowser::\loperator()">
<polygon fill="none" stroke="black" points="276,-86 276,-116 379,-116 379,-86 276,-86"/>
<text text-anchor="start" x="284" y="-104" font-family="Helvetica,sans-Serif" font-size="10.00">CInventoryBrowser::</text>
<text text-anchor="middle" x="327.5" y="-93" font-family="Helvetica,sans-Serif" font-size="10.00">operator()</text>
</a>
</g>
</g>
<!-- Node23&#45;&gt;Node24 -->
<g id="edge2" class="edge"><title>Node23&#45;&gt;Node24</title>
<path fill="none" stroke="midnightblue" d="M240.826,-124.472C252.498,-121.275 264.615,-117.955 275.936,-114.853"/>
<polygon fill="midnightblue" stroke="midnightblue" points="239.874,-121.104 231.154,-127.122 241.723,-127.855 239.874,-121.104"/>
</g>
<!-- Node25&#45;&gt;Node24 -->
<g id="edge4" class="edge"><title>Node25&#45;&gt;Node24</title>
<path fill="none" stroke="midnightblue" d="M241.176,-95.7403C252.74,-96.4531 264.728,-97.1922 275.936,-97.883"/>
<polygon fill="midnightblue" stroke="midnightblue" points="241.35,-92.2445 231.154,-95.1225 240.92,-99.2312 241.35,-92.2445"/>
</g>
<!-- Node27 -->
<g id="node6" class="node"><title>Node27</title>
<g id="a_node6"><a xlink:href="class_c_shopping.html#ab72dff2e94f897bd5c3f1ef660e65afb" target="_top" xlink:title="CShopping::operator()">
<polygon fill="none" stroke="black" points="272,-28.5 272,-47.5 383,-47.5 383,-28.5 272,-28.5"/>
<text text-anchor="middle" x="327.5" y="-35.5" font-family="Helvetica,sans-Serif" font-size="10.00">CShopping::operator()</text>
</a>
</g>
</g>
<!-- Node26&#45;&gt;Node27 -->
<g id="edge6" class="edge"><title>Node26&#45;&gt;Node27</title>
<path fill="none" stroke="midnightblue" d="M246.301,-43.4931C254.732,-42.9156 263.291,-42.3294 271.525,-41.7654"/>
<polygon fill="midnightblue" stroke="midnightblue" points="245.85,-40.0157 236.113,-44.1909 246.329,-46.9993 245.85,-40.0157"/>
</g>
<!-- Node28&#45;&gt;Node27 -->
<g id="edge8" class="edge"><title>Node28&#45;&gt;Node27</title>
<path fill="none" stroke="midnightblue" d="M240.382,-21.4843C252.518,-23.8116 265.154,-26.235 276.888,-28.4854"/>
<polygon fill="midnightblue" stroke="midnightblue" points="240.817,-18.0039 230.337,-19.5577 239.498,-24.8786 240.817,-18.0039"/>
</g>
</g>
</svg>
