<?xml version="1.0" encoding="UTF-8" standalone="no"?>
<!DOCTYPE svg PUBLIC "-//W3C//DTD SVG 1.1//EN"
 "http://www.w3.org/Graphics/SVG/1.1/DTD/svg11.dtd">
<!-- Generated by graphviz version 2.38.0 (20140413.2041)
 -->
<!-- Title: CGame::CGame Pages: 1 -->
<svg width="766pt" height="560pt"
 viewBox="0.00 0.00 766.00 560.00" xmlns="http://www.w3.org/2000/svg" xmlns:xlink="http://www.w3.org/1999/xlink">
<g id="graph0" class="graph" transform="scale(1 1) rotate(0) translate(4 556)">
<title>CGame::CGame</title>
<!-- Node2 -->
<g id="node1" class="node"><title>Node2</title>
<polygon fill="#bfbfbf" stroke="black" points="0,-171.5 0,-190.5 89,-190.5 89,-171.5 0,-171.5"/>
<text text-anchor="middle" x="44.5" y="-178.5" font-family="Helvetica,sans-Serif" font-size="10.00">CGame::CGame</text>
</g>
<!-- Node3 -->
<g id="node2" class="node"><title>Node3</title>
<g id="a_node2"><a xlink:href="class_c_world.html#a944f12acb1ff76beed2648647ff19d0f" target="_top" xlink:title="CWorld::loadWorld">
<polygon fill="none" stroke="black" points="126.5,-361.5 126.5,-380.5 224.5,-380.5 224.5,-361.5 126.5,-361.5"/>
<text text-anchor="middle" x="175.5" y="-368.5" font-family="Helvetica,sans-Serif" font-size="10.00">CWorld::loadWorld</text>
</a>
</g>
</g>
<!-- Node2&#45;&gt;Node3 -->
<g id="edge1" class="edge"><title>Node2&#45;&gt;Node3</title>
<path fill="none" stroke="midnightblue" d="M52.0745,-190.683C72.5135,-220.787 135.179,-313.085 162.051,-352.665"/>
<polygon fill="midnightblue" stroke="midnightblue" points="159.271,-354.801 167.784,-361.108 165.063,-350.869 159.271,-354.801"/>
</g>
<!-- Node18 -->
<g id="node17" class="node"><title>Node18</title>
<g id="a_node17"><a xlink:href="class_c_display.html#a63f3c4f78cef1d3b13290970da9e3e85" target="_top" xlink:title="CDisplay::printError">
<polygon fill="none" stroke="black" points="125,-190.5 125,-209.5 226,-209.5 226,-190.5 125,-190.5"/>
<text text-anchor="middle" x="175.5" y="-197.5" font-family="Helvetica,sans-Serif" font-size="10.00">CDisplay::printError</text>
</a>
</g>
</g>
<!-- Node2&#45;&gt;Node18 -->
<g id="edge24" class="edge"><title>Node2&#45;&gt;Node18</title>
<path fill="none" stroke="midnightblue" d="M89.1735,-187.433C97.3691,-188.64 106.067,-189.921 114.655,-191.186"/>
<polygon fill="midnightblue" stroke="midnightblue" points="114.245,-194.663 124.648,-192.658 115.265,-187.738 114.245,-194.663"/>
</g>
<!-- Node21 -->
<g id="node20" class="node"><title>Node21</title>
<g id="a_node20"><a xlink:href="class_c_game.html#a7b4409fd50b77ae5743a30bd43f01f61" target="_top" xlink:title="CGame::exit">
<polygon fill="none" stroke="black" points="140,-152.5 140,-171.5 211,-171.5 211,-152.5 140,-152.5"/>
<text text-anchor="middle" x="175.5" y="-159.5" font-family="Helvetica,sans-Serif" font-size="10.00">CGame::exit</text>
</a>
</g>
</g>
<!-- Node2&#45;&gt;Node21 -->
<g id="edge27" class="edge"><title>Node2&#45;&gt;Node21</title>
<path fill="none" stroke="midnightblue" d="M89.1735,-174.567C102.208,-172.648 116.514,-170.541 129.624,-168.61"/>
<polygon fill="midnightblue" stroke="midnightblue" points="130.452,-172.026 139.835,-167.106 129.432,-165.1 130.452,-172.026"/>
</g>
<!-- Node23 -->
<g id="node22" class="node"><title>Node23</title>
<g id="a_node22"><a xlink:href="class_c_game.html#acdb5a10d8b17584b07b3c736ede7bf57" target="_top" xlink:title="CGame::reset">
<polygon fill="none" stroke="black" points="137,-95.5 137,-114.5 214,-114.5 214,-95.5 137,-95.5"/>
<text text-anchor="middle" x="175.5" y="-102.5" font-family="Helvetica,sans-Serif" font-size="10.00">CGame::reset</text>
</a>
</g>
</g>
<!-- Node2&#45;&gt;Node23 -->
<g id="edge29" class="edge"><title>Node2&#45;&gt;Node23</title>
<path fill="none" stroke="midnightblue" d="M61.8379,-171.375C83.9377,-158.355 123.563,-135.009 149.441,-119.764"/>
<polygon fill="midnightblue" stroke="midnightblue" points="151.455,-122.639 158.295,-114.547 147.902,-116.608 151.455,-122.639"/>
</g>
<!-- Node4 -->
<g id="node3" class="node"><title>Node4</title>
<g id="a_node3"><a xlink:href="class_i_ohandle.html#a42f66760fa3e33400921dcb8d9a8cd57" target="_top" xlink:title="IOhandle::loadEvent">
<polygon fill="none" stroke="black" points="280,-494.5 280,-513.5 383,-513.5 383,-494.5 280,-494.5"/>
<text text-anchor="middle" x="331.5" y="-501.5" font-family="Helvetica,sans-Serif" font-size="10.00">IOhandle::loadEvent</text>
</a>
</g>
</g>
<!-- Node3&#45;&gt;Node4 -->
<g id="edge2" class="edge"><title>Node3&#45;&gt;Node4</title>
<path fill="none" stroke="midnightblue" d="M180.956,-380.643C191.644,-402.677 220.929,-456.966 262,-485 264.943,-487.009 268.094,-488.807 271.368,-490.415"/>
<polygon fill="midnightblue" stroke="midnightblue" points="270.28,-493.756 280.851,-494.464 273.029,-487.318 270.28,-493.756"/>
</g>
<!-- Node6 -->
<g id="node5" class="node"><title>Node6</title>
<g id="a_node5"><a xlink:href="class_i_ohandle.html#a99dd11dfe48cea80e164a9d7477aad5f" target="_top" xlink:title="IOhandle::loadCreature">
<polygon fill="none" stroke="black" points="273.5,-456.5 273.5,-475.5 389.5,-475.5 389.5,-456.5 273.5,-456.5"/>
<text text-anchor="middle" x="331.5" y="-463.5" font-family="Helvetica,sans-Serif" font-size="10.00">IOhandle::loadCreature</text>
</a>
</g>
</g>
<!-- Node3&#45;&gt;Node6 -->
<g id="edge4" class="edge"><title>Node3&#45;&gt;Node6</title>
<path fill="none" stroke="midnightblue" d="M184.677,-380.717C198.796,-396.874 229.383,-429.24 262,-447 266.183,-449.278 270.662,-451.3 275.252,-453.093"/>
<polygon fill="midnightblue" stroke="midnightblue" points="274.176,-456.425 284.771,-456.459 276.51,-449.826 274.176,-456.425"/>
</g>
<!-- Node7 -->
<g id="node6" class="node"><title>Node7</title>
<g id="a_node6"><a xlink:href="class_i_ohandle.html#a4870dc9635a6c30ef483d699dffd8774" target="_top" xlink:title="IOhandle::loadShopItem">
<polygon fill="none" stroke="black" points="271.5,-532.5 271.5,-551.5 391.5,-551.5 391.5,-532.5 271.5,-532.5"/>
<text text-anchor="middle" x="331.5" y="-539.5" font-family="Helvetica,sans-Serif" font-size="10.00">IOhandle::loadShopItem</text>
</a>
</g>
</g>
<!-- Node3&#45;&gt;Node7 -->
<g id="edge6" class="edge"><title>Node3&#45;&gt;Node7</title>
<path fill="none" stroke="midnightblue" d="M179.05,-380.543C186.721,-407.361 212.184,-483.978 262,-523 264.323,-524.819 266.809,-526.465 269.408,-527.952"/>
<polygon fill="midnightblue" stroke="midnightblue" points="268.081,-531.199 278.605,-532.428 271.145,-524.905 268.081,-531.199"/>
</g>
<!-- Node8 -->
<g id="node7" class="node"><title>Node8</title>
<g id="a_node7"><a xlink:href="class_i_ohandle.html#a8d076d0076c358e63e1e993309c35b2a" target="_top" xlink:title="IOhandle::loadEventOrder">
<polygon fill="none" stroke="black" points="268,-418.5 268,-437.5 395,-437.5 395,-418.5 268,-418.5"/>
<text text-anchor="middle" x="331.5" y="-425.5" font-family="Helvetica,sans-Serif" font-size="10.00">IOhandle::loadEventOrder</text>
</a>
</g>
</g>
<!-- Node3&#45;&gt;Node8 -->
<g id="edge8" class="edge"><title>Node3&#45;&gt;Node8</title>
<path fill="none" stroke="midnightblue" d="M195.861,-380.591C212.975,-388.83 238.759,-400.664 262,-409 268.478,-411.324 275.384,-413.537 282.225,-415.577"/>
<polygon fill="midnightblue" stroke="midnightblue" points="281.564,-419.029 292.142,-418.435 283.503,-412.302 281.564,-419.029"/>
</g>
<!-- Node9 -->
<g id="node8" class="node"><title>Node9</title>
<g id="a_node8"><a xlink:href="class_c_world.html#afa6876cb4b0d0aa9aec88fec6c596634" target="_top" xlink:title="CWorld::loadEvents">
<polygon fill="none" stroke="black" points="280.5,-304.5 280.5,-323.5 382.5,-323.5 382.5,-304.5 280.5,-304.5"/>
<text text-anchor="middle" x="331.5" y="-311.5" font-family="Helvetica,sans-Serif" font-size="10.00">CWorld::loadEvents</text>
</a>
</g>
</g>
<!-- Node3&#45;&gt;Node9 -->
<g id="edge9" class="edge"><title>Node3&#45;&gt;Node9</title>
<path fill="none" stroke="midnightblue" d="M195.861,-361.409C212.975,-353.17 238.759,-341.336 262,-333 268.478,-330.676 275.384,-328.463 282.225,-326.423"/>
<polygon fill="midnightblue" stroke="midnightblue" points="283.503,-329.698 292.142,-323.565 281.564,-322.971 283.503,-329.698"/>
</g>
<!-- Node13 -->
<g id="node12" class="node"><title>Node13</title>
<g id="a_node12"><a xlink:href="class_c_world.html#abb7ab3f5626b424ebabbd4aec3b60b5a" target="_top" xlink:title="CWorld::loadItems">
<polygon fill="none" stroke="black" points="283,-380.5 283,-399.5 380,-399.5 380,-380.5 283,-380.5"/>
<text text-anchor="middle" x="331.5" y="-387.5" font-family="Helvetica,sans-Serif" font-size="10.00">CWorld::loadItems</text>
</a>
</g>
</g>
<!-- Node3&#45;&gt;Node13 -->
<g id="edge14" class="edge"><title>Node3&#45;&gt;Node13</title>
<path fill="none" stroke="midnightblue" d="M224.804,-376.96C239.999,-378.834 256.935,-380.924 272.719,-382.871"/>
<polygon fill="midnightblue" stroke="midnightblue" points="272.542,-386.376 282.895,-384.127 273.399,-379.428 272.542,-386.376"/>
</g>
<!-- Node14 -->
<g id="node13" class="node"><title>Node14</title>
<g id="a_node13"><a xlink:href="class_c_world.html#a313cf7258bfab897ada813aa0f8837ac" target="_top" xlink:title="CWorld::loadCreatures">
<polygon fill="none" stroke="black" points="274,-342.5 274,-361.5 389,-361.5 389,-342.5 274,-342.5"/>
<text text-anchor="middle" x="331.5" y="-349.5" font-family="Helvetica,sans-Serif" font-size="10.00">CWorld::loadCreatures</text>
</a>
</g>
</g>
<!-- Node3&#45;&gt;Node14 -->
<g id="edge18" class="edge"><title>Node3&#45;&gt;Node14</title>
<path fill="none" stroke="midnightblue" d="M224.804,-365.04C237.175,-363.514 250.7,-361.845 263.818,-360.227"/>
<polygon fill="midnightblue" stroke="midnightblue" points="264.248,-363.701 273.744,-359.002 263.391,-356.753 264.248,-363.701"/>
</g>
<!-- Node15 -->
<g id="node14" class="node"><title>Node15</title>
<g id="a_node14"><a xlink:href="class_c_world.html#a6a4774ff3ee94df11d82260a27065885" target="_top" xlink:title="CWorld::loadStoryline">
<polygon fill="none" stroke="black" points="276,-266.5 276,-285.5 387,-285.5 387,-266.5 276,-266.5"/>
<text text-anchor="middle" x="331.5" y="-273.5" font-family="Helvetica,sans-Serif" font-size="10.00">CWorld::loadStoryline</text>
</a>
</g>
</g>
<!-- Node3&#45;&gt;Node15 -->
<g id="edge21" class="edge"><title>Node3&#45;&gt;Node15</title>
<path fill="none" stroke="midnightblue" d="M184.677,-361.283C198.796,-345.126 229.383,-312.76 262,-295 266.183,-292.722 270.662,-290.7 275.252,-288.907"/>
<polygon fill="midnightblue" stroke="midnightblue" points="276.51,-292.174 284.771,-285.541 274.176,-285.575 276.51,-292.174"/>
</g>
<!-- Node17 -->
<g id="node16" class="node"><title>Node17</title>
<g id="a_node16"><a xlink:href="class_c_world.html#a5220755d94cacc872e0f5ae0e7e55eb6" target="_top" xlink:title="CWorld::validateIDs">
<polygon fill="none" stroke="black" points="281,-228.5 281,-247.5 382,-247.5 382,-228.5 281,-228.5"/>
<text text-anchor="middle" x="331.5" y="-235.5" font-family="Helvetica,sans-Serif" font-size="10.00">CWorld::validateIDs</text>
</a>
</g>
</g>
<!-- Node3&#45;&gt;Node17 -->
<g id="edge23" class="edge"><title>Node3&#45;&gt;Node17</title>
<path fill="none" stroke="midnightblue" d="M180.956,-361.357C191.644,-339.323 220.929,-285.034 262,-257 264.943,-254.991 268.094,-253.193 271.368,-251.585"/>
<polygon fill="midnightblue" stroke="midnightblue" points="273.029,-254.682 280.851,-247.536 270.28,-248.244 273.029,-254.682"/>
</g>
<!-- Node5 -->
<g id="node4" class="node"><title>Node5</title>
<g id="a_node4"><a xlink:href="class_i_ohandle.html#a7803f3ab80542103759f56aee5f72dfe" target="_top" xlink:title="IOhandle::dumpLine">
<polygon fill="none" stroke="black" points="460,-494.5 460,-513.5 563,-513.5 563,-494.5 460,-494.5"/>
<text text-anchor="middle" x="511.5" y="-501.5" font-family="Helvetica,sans-Serif" font-size="10.00">IOhandle::dumpLine</text>
</a>
</g>
</g>
<!-- Node4&#45;&gt;Node5 -->
<g id="edge3" class="edge"><title>Node4&#45;&gt;Node5</title>
<path fill="none" stroke="midnightblue" d="M383.032,-504C403.794,-504 428.016,-504 449.735,-504"/>
<polygon fill="midnightblue" stroke="midnightblue" points="449.842,-507.5 459.842,-504 449.842,-500.5 449.842,-507.5"/>
</g>
<!-- Node6&#45;&gt;Node5 -->
<g id="edge5" class="edge"><title>Node6&#45;&gt;Node5</title>
<path fill="none" stroke="midnightblue" d="M377.417,-475.589C401.329,-480.694 430.921,-487.011 456.125,-492.392"/>
<polygon fill="midnightblue" stroke="midnightblue" points="455.396,-495.815 465.906,-494.48 456.857,-488.969 455.396,-495.815"/>
</g>
<!-- Node7&#45;&gt;Node5 -->
<g id="edge7" class="edge"><title>Node7&#45;&gt;Node5</title>
<path fill="none" stroke="midnightblue" d="M377.417,-532.411C401.329,-527.306 430.921,-520.989 456.125,-515.608"/>
<polygon fill="midnightblue" stroke="midnightblue" points="456.857,-519.031 465.906,-513.52 455.396,-512.185 456.857,-519.031"/>
</g>
<!-- Node10 -->
<g id="node9" class="node"><title>Node10</title>
<g id="a_node9"><a xlink:href="class_c_stream_decoder.html#aeaef1aa3239cf7b5d00397b6e46f67d1" target="_top" xlink:title="CStreamDecoder::getString\lAsInt">
<polygon fill="none" stroke="black" points="443.5,-375 443.5,-405 579.5,-405 579.5,-375 443.5,-375"/>
<text text-anchor="start" x="451.5" y="-393" font-family="Helvetica,sans-Serif" font-size="10.00">CStreamDecoder::getString</text>
<text text-anchor="middle" x="511.5" y="-382" font-family="Helvetica,sans-Serif" font-size="10.00">AsInt</text>
</a>
</g>
</g>
<!-- Node9&#45;&gt;Node10 -->
<g id="edge10" class="edge"><title>Node9&#45;&gt;Node10</title>
<path fill="none" stroke="midnightblue" d="M378.229,-323.541C386.071,-326.051 393.955,-329.164 401,-333 419.801,-343.237 418.5,-354.229 437,-365 440.604,-367.098 444.41,-369.054 448.317,-370.872"/>
<polygon fill="midnightblue" stroke="midnightblue" points="447,-374.116 457.568,-374.864 449.773,-367.689 447,-374.116"/>
</g>
<!-- Node11 -->
<g id="node10" class="node"><title>Node11</title>
<g id="a_node10"><a xlink:href="class_c_stream_decoder.html#a736a4660fb1fc91ffc7345050f815994" target="_top" xlink:title="CStreamDecoder::getString">
<polygon fill="none" stroke="black" points="622,-380.5 622,-399.5 758,-399.5 758,-380.5 622,-380.5"/>
<text text-anchor="middle" x="690" y="-387.5" font-family="Helvetica,sans-Serif" font-size="10.00">CStreamDecoder::getString</text>
</a>
</g>
</g>
<!-- Node9&#45;&gt;Node11 -->
<g id="edge12" class="edge"><title>Node9&#45;&gt;Node11</title>
<path fill="none" stroke="midnightblue" d="M382.833,-309.406C434.916,-306.294 518.01,-305.962 586,-327 617.922,-336.878 650.027,-358.882 669.709,-374.081"/>
<polygon fill="midnightblue" stroke="midnightblue" points="667.577,-376.857 677.59,-380.319 671.922,-371.368 667.577,-376.857"/>
</g>
<!-- Node12 -->
<g id="node11" class="node"><title>Node12</title>
<g id="a_node11"><a xlink:href="class_c_stream_decoder.html#a4ddd62e9d414ff656f5708e3c0c39b36" target="_top" xlink:title="CStreamDecoder::getText">
<polygon fill="none" stroke="black" points="447,-336.5 447,-355.5 576,-355.5 576,-336.5 447,-336.5"/>
<text text-anchor="middle" x="511.5" y="-343.5" font-family="Helvetica,sans-Serif" font-size="10.00">CStreamDecoder::getText</text>
</a>
</g>
</g>
<!-- Node9&#45;&gt;Node12 -->
<g id="edge13" class="edge"><title>Node9&#45;&gt;Node12</title>
<path fill="none" stroke="midnightblue" d="M382.557,-322.999C402.707,-326.622 426.176,-330.841 447.47,-334.669"/>
<polygon fill="midnightblue" stroke="midnightblue" points="446.941,-338.13 457.402,-336.454 448.179,-331.24 446.941,-338.13"/>
</g>
<!-- Node10&#45;&gt;Node11 -->
<g id="edge11" class="edge"><title>Node10&#45;&gt;Node11</title>
<path fill="none" stroke="midnightblue" d="M579.731,-390C590.214,-390 601.117,-390 611.801,-390"/>
<polygon fill="midnightblue" stroke="midnightblue" points="611.956,-393.5 621.956,-390 611.956,-386.5 611.956,-393.5"/>
</g>
<!-- Node13&#45;&gt;Node10 -->
<g id="edge15" class="edge"><title>Node13&#45;&gt;Node10</title>
<path fill="none" stroke="midnightblue" d="M380.201,-390C396.46,-390 415.083,-390 433.065,-390"/>
<polygon fill="midnightblue" stroke="midnightblue" points="433.261,-393.5 443.261,-390 433.261,-386.5 433.261,-393.5"/>
</g>
<!-- Node13&#45;&gt;Node11 -->
<g id="edge16" class="edge"><title>Node13&#45;&gt;Node11</title>
<path fill="none" stroke="midnightblue" d="M365.583,-399.614C385.974,-405.033 412.77,-411.253 437,-414 502.801,-421.459 520.211,-421.563 586,-414 606.162,-411.682 628.115,-406.892 646.553,-402.196"/>
<polygon fill="midnightblue" stroke="midnightblue" points="647.617,-405.536 656.402,-399.613 645.841,-398.765 647.617,-405.536"/>
</g>
<!-- Node13&#45;&gt;Node12 -->
<g id="edge17" class="edge"><title>Node13&#45;&gt;Node12</title>
<path fill="none" stroke="midnightblue" d="M371.123,-380.453C397.831,-373.851 433.563,-365.018 462.161,-357.949"/>
<polygon fill="midnightblue" stroke="midnightblue" points="463.084,-361.326 471.952,-355.529 461.404,-354.531 463.084,-361.326"/>
</g>
<!-- Node14&#45;&gt;Node10 -->
<g id="edge19" class="edge"><title>Node14&#45;&gt;Node10</title>
<path fill="none" stroke="midnightblue" d="M377.417,-361.589C394.431,-365.221 414.321,-369.467 433.46,-373.553"/>
<polygon fill="midnightblue" stroke="midnightblue" points="432.87,-377.006 443.38,-375.671 434.331,-370.16 432.87,-377.006"/>
</g>
<!-- Node14&#45;&gt;Node12 -->
<g id="edge20" class="edge"><title>Node14&#45;&gt;Node12</title>
<path fill="none" stroke="midnightblue" d="M389.31,-350.085C404.333,-349.579 420.77,-349.025 436.557,-348.492"/>
<polygon fill="midnightblue" stroke="midnightblue" points="436.939,-351.982 446.815,-348.147 436.703,-344.986 436.939,-351.982"/>
</g>
<!-- Node16 -->
<g id="node15" class="node"><title>Node16</title>
<g id="a_node15"><a xlink:href="class_c_stream_decoder.html#a57a7f304974a6b5be31e374685b70e33" target="_top" xlink:title="CStreamDecoder::getNumbers">
<polygon fill="none" stroke="black" points="437,-260.5 437,-279.5 586,-279.5 586,-260.5 437,-260.5"/>
<text text-anchor="middle" x="511.5" y="-267.5" font-family="Helvetica,sans-Serif" font-size="10.00">CStreamDecoder::getNumbers</text>
</a>
</g>
</g>
<!-- Node15&#45;&gt;Node16 -->
<g id="edge22" class="edge"><title>Node15&#45;&gt;Node16</title>
<path fill="none" stroke="midnightblue" d="M387.358,-274.151C399.813,-273.731 413.318,-273.276 426.668,-272.826"/>
<polygon fill="midnightblue" stroke="midnightblue" points="426.95,-276.318 436.827,-272.483 426.714,-269.322 426.95,-276.318"/>
</g>
<!-- Node19 -->
<g id="node18" class="node"><title>Node19</title>
<g id="a_node18"><a xlink:href="class_c_display.html#a53b65673a9b0bfc807a3a1e448962928" target="_top" xlink:title="CDisplay::printWithDelimiter">
<polygon fill="none" stroke="black" points="262,-190.5 262,-209.5 401,-209.5 401,-190.5 262,-190.5"/>
<text text-anchor="middle" x="331.5" y="-197.5" font-family="Helvetica,sans-Serif" font-size="10.00">CDisplay::printWithDelimiter</text>
</a>
</g>
</g>
<!-- Node18&#45;&gt;Node19 -->
<g id="edge25" class="edge"><title>Node18&#45;&gt;Node19</title>
<path fill="none" stroke="midnightblue" d="M226.074,-200C234.29,-200 242.985,-200 251.711,-200"/>
<polygon fill="midnightblue" stroke="midnightblue" points="251.941,-203.5 261.941,-200 251.941,-196.5 251.941,-203.5"/>
</g>
<!-- Node20 -->
<g id="node19" class="node"><title>Node20</title>
<g id="a_node19"><a xlink:href="class_c_display.html#af350b35b44fc756e0c721ec4ee56c67a" target="_top" xlink:title="CDisplay::printDelimiter">
<polygon fill="none" stroke="black" points="452,-190.5 452,-209.5 571,-209.5 571,-190.5 452,-190.5"/>
<text text-anchor="middle" x="511.5" y="-197.5" font-family="Helvetica,sans-Serif" font-size="10.00">CDisplay::printDelimiter</text>
</a>
</g>
</g>
<!-- Node19&#45;&gt;Node20 -->
<g id="edge26" class="edge"><title>Node19&#45;&gt;Node20</title>
<path fill="none" stroke="midnightblue" d="M401.065,-200C414.41,-200 428.404,-200 441.755,-200"/>
<polygon fill="midnightblue" stroke="midnightblue" points="441.818,-203.5 451.818,-200 441.818,-196.5 441.818,-203.5"/>
</g>
<!-- Node22 -->
<g id="node21" class="node"><title>Node22</title>
<g id="a_node21"><a xlink:href="class_c_display.html#a54c5d36f4bc11d4a935ff5c86ea4e653" target="_top" xlink:title="CDisplay::print">
<polygon fill="none" stroke="black" points="291.5,-152.5 291.5,-171.5 371.5,-171.5 371.5,-152.5 291.5,-152.5"/>
<text text-anchor="middle" x="331.5" y="-159.5" font-family="Helvetica,sans-Serif" font-size="10.00">CDisplay::print</text>
</a>
</g>
</g>
<!-- Node21&#45;&gt;Node22 -->
<g id="edge28" class="edge"><title>Node21&#45;&gt;Node22</title>
<path fill="none" stroke="midnightblue" d="M211.061,-162C231.747,-162 258.377,-162 281.241,-162"/>
<polygon fill="midnightblue" stroke="midnightblue" points="281.446,-165.5 291.446,-162 281.446,-158.5 281.446,-165.5"/>
</g>
<!-- Node23&#45;&gt;Node22 -->
<g id="edge30" class="edge"><title>Node23&#45;&gt;Node22</title>
<path fill="none" stroke="midnightblue" d="M195.861,-114.591C212.975,-122.83 238.759,-134.664 262,-143 268.478,-145.324 275.384,-147.537 282.225,-149.577"/>
<polygon fill="midnightblue" stroke="midnightblue" points="281.564,-153.029 292.142,-152.435 283.503,-146.302 281.564,-153.029"/>
</g>
<!-- Node24 -->
<g id="node23" class="node"><title>Node24</title>
<g id="a_node23"><a xlink:href="class_c_storyline.html#ad8c62b61513d498b53454aeaf621dda0" target="_top" xlink:title="CStoryline::update">
<polygon fill="none" stroke="black" points="283,-76.5 283,-95.5 380,-95.5 380,-76.5 283,-76.5"/>
<text text-anchor="middle" x="331.5" y="-83.5" font-family="Helvetica,sans-Serif" font-size="10.00">CStoryline::update</text>
</a>
</g>
</g>
<!-- Node23&#45;&gt;Node24 -->
<g id="edge31" class="edge"><title>Node23&#45;&gt;Node24</title>
<path fill="none" stroke="midnightblue" d="M214.173,-100.352C231.765,-98.1816 253.101,-95.5493 272.672,-93.1346"/>
<polygon fill="midnightblue" stroke="midnightblue" points="273.22,-96.5936 282.716,-91.8954 272.363,-89.6463 273.22,-96.5936"/>
</g>
<!-- Node25 -->
<g id="node24" class="node"><title>Node25</title>
<g id="a_node24"><a xlink:href="class_c_world.html#a72b79b6801a9e7ae670cc3790acf31d2" target="_top" xlink:title="CWorld::getStoryline">
<polygon fill="none" stroke="black" points="278,-38.5 278,-57.5 385,-57.5 385,-38.5 278,-38.5"/>
<text text-anchor="middle" x="331.5" y="-45.5" font-family="Helvetica,sans-Serif" font-size="10.00">CWorld::getStoryline</text>
</a>
</g>
</g>
<!-- Node23&#45;&gt;Node25 -->
<g id="edge32" class="edge"><title>Node23&#45;&gt;Node25</title>
<path fill="none" stroke="midnightblue" d="M195.861,-95.4086C212.975,-87.1697 238.759,-75.3363 262,-67 268.478,-64.6764 275.384,-62.4635 282.225,-60.4233"/>
<polygon fill="midnightblue" stroke="midnightblue" points="283.503,-63.6976 292.142,-57.5652 281.564,-56.9714 283.503,-63.6976"/>
</g>
<!-- Node26 -->
<g id="node25" class="node"><title>Node26</title>
<g id="a_node25"><a xlink:href="class_c_shopping.html#aa232d999181d07bfd6ec0ec5c645f51b" target="_top" xlink:title="CShopping::update">
<polygon fill="none" stroke="black" points="282,-0.5 282,-19.5 381,-19.5 381,-0.5 282,-0.5"/>
<text text-anchor="middle" x="331.5" y="-7.5" font-family="Helvetica,sans-Serif" font-size="10.00">CShopping::update</text>
</a>
</g>
</g>
<!-- Node23&#45;&gt;Node26 -->
<g id="edge33" class="edge"><title>Node23&#45;&gt;Node26</title>
<path fill="none" stroke="midnightblue" d="M184.677,-95.2833C198.796,-79.1261 229.383,-46.7598 262,-29 266.183,-26.7223 270.662,-24.6996 275.252,-22.9067"/>
<polygon fill="midnightblue" stroke="midnightblue" points="276.51,-26.1744 284.771,-19.5412 274.176,-19.5747 276.51,-26.1744"/>
</g>
<!-- Node27 -->
<g id="node26" class="node"><title>Node27</title>
<g id="a_node26"><a xlink:href="class_c_world.html#a1c10d5ec2514347fd3fe28f85b23db13" target="_top" xlink:title="CWorld::getAllItemID">
<polygon fill="none" stroke="black" points="278,-114.5 278,-133.5 385,-133.5 385,-114.5 278,-114.5"/>
<text text-anchor="middle" x="331.5" y="-121.5" font-family="Helvetica,sans-Serif" font-size="10.00">CWorld::getAllItemID</text>
</a>
</g>
</g>
<!-- Node23&#45;&gt;Node27 -->
<g id="edge34" class="edge"><title>Node23&#45;&gt;Node27</title>
<path fill="none" stroke="midnightblue" d="M214.173,-109.648C230.326,-111.641 249.636,-114.023 267.838,-116.269"/>
<polygon fill="midnightblue" stroke="midnightblue" points="267.456,-119.748 277.809,-117.499 268.313,-112.801 267.456,-119.748"/>
</g>
</g>
</svg>
