<?xml version="1.0" encoding="UTF-8" standalone="no"?>
<!DOCTYPE svg PUBLIC "-//W3C//DTD SVG 1.1//EN"
 "http://www.w3.org/Graphics/SVG/1.1/DTD/svg11.dtd">
<!-- Generated by graphviz version 2.38.0 (20140413.2041)
 -->
<!-- Title: CInventory::exportData Pages: 1 -->
<svg width="994pt" height="66pt"
 viewBox="0.00 0.00 994.00 66.00" xmlns="http://www.w3.org/2000/svg" xmlns:xlink="http://www.w3.org/1999/xlink">
<g id="graph0" class="graph" transform="scale(1 1) rotate(0) translate(4 62)">
<title>CInventory::exportData</title>
<!-- Node5 -->
<g id="node1" class="node"><title>Node5</title>
<polygon fill="#bfbfbf" stroke="black" points="0,-19.5 0,-38.5 115,-38.5 115,-19.5 0,-19.5"/>
<text text-anchor="middle" x="57.5" y="-26.5" font-family="Helvetica,sans-Serif" font-size="10.00">CInventory::exportData</text>
</g>
<!-- Node6 -->
<g id="node2" class="node"><title>Node6</title>
<g id="a_node2"><a xlink:href="class_c_hero.html#a1593ac4dfc01368e99b2b82a21c3c6ed" target="_top" xlink:title="CHero::exportData">
<polygon fill="none" stroke="black" points="151,-19.5 151,-38.5 248,-38.5 248,-19.5 151,-19.5"/>
<text text-anchor="middle" x="199.5" y="-26.5" font-family="Helvetica,sans-Serif" font-size="10.00">CHero::exportData</text>
</a>
</g>
</g>
<!-- Node5&#45;&gt;Node6 -->
<g id="edge1" class="edge"><title>Node5&#45;&gt;Node6</title>
<path fill="none" stroke="midnightblue" d="M125.124,-29C133.768,-29 142.48,-29 150.733,-29"/>
<polygon fill="midnightblue" stroke="midnightblue" points="125.04,-25.5001 115.04,-29 125.04,-32.5001 125.04,-25.5001"/>
</g>
<!-- Node7 -->
<g id="node3" class="node"><title>Node7</title>
<g id="a_node3"><a xlink:href="class_c_game.html#a7d821ce9a0454653bbfde69979155da9" target="_top" xlink:title="CGame::exportPlayerData">
<polygon fill="none" stroke="black" points="284,-19.5 284,-38.5 415,-38.5 415,-19.5 284,-19.5"/>
<text text-anchor="middle" x="349.5" y="-26.5" font-family="Helvetica,sans-Serif" font-size="10.00">CGame::exportPlayerData</text>
</a>
</g>
</g>
<!-- Node6&#45;&gt;Node7 -->
<g id="edge2" class="edge"><title>Node6&#45;&gt;Node7</title>
<path fill="none" stroke="midnightblue" d="M258.245,-29C266.673,-29 275.397,-29 283.95,-29"/>
<polygon fill="midnightblue" stroke="midnightblue" points="258.143,-25.5001 248.143,-29 258.143,-32.5001 258.143,-25.5001"/>
</g>
<!-- Node8 -->
<g id="node4" class="node"><title>Node8</title>
<g id="a_node4"><a xlink:href="class_c_game.html#a49656fe4404b3df63f2dbebd9b754edd" target="_top" xlink:title="CGame::saveGame">
<polygon fill="none" stroke="black" points="451,-19.5 451,-38.5 552,-38.5 552,-19.5 451,-19.5"/>
<text text-anchor="middle" x="501.5" y="-26.5" font-family="Helvetica,sans-Serif" font-size="10.00">CGame::saveGame</text>
</a>
</g>
</g>
<!-- Node7&#45;&gt;Node8 -->
<g id="edge3" class="edge"><title>Node7&#45;&gt;Node8</title>
<path fill="none" stroke="midnightblue" d="M425.495,-29C434.101,-29 442.707,-29 450.86,-29"/>
<polygon fill="midnightblue" stroke="midnightblue" points="425.42,-25.5001 415.42,-29 425.42,-32.5001 425.42,-25.5001"/>
</g>
<!-- Node9 -->
<g id="node5" class="node"><title>Node9</title>
<g id="a_node5"><a xlink:href="class_c_game.html#a714b291af5e20aae8be14a905fd0522d" target="_top" xlink:title="CGame::tickComponent">
<polygon fill="none" stroke="black" points="588,-19.5 588,-38.5 709,-38.5 709,-19.5 588,-19.5"/>
<text text-anchor="middle" x="648.5" y="-26.5" font-family="Helvetica,sans-Serif" font-size="10.00">CGame::tickComponent</text>
</a>
</g>
</g>
<!-- Node8&#45;&gt;Node9 -->
<g id="edge4" class="edge"><title>Node8&#45;&gt;Node9</title>
<path fill="none" stroke="midnightblue" d="M562.451,-29C570.81,-29 579.398,-29 587.753,-29"/>
<polygon fill="midnightblue" stroke="midnightblue" points="562.401,-25.5001 552.401,-29 562.401,-32.5001 562.401,-25.5001"/>
</g>
<!-- Node10 -->
<g id="node6" class="node"><title>Node10</title>
<g id="a_node6"><a xlink:href="class_c_game.html#aa9d3da2fefa1c04faefc6586dbd37971" target="_top" xlink:title="CGame::play">
<polygon fill="none" stroke="black" points="745,-0.5 745,-19.5 819,-19.5 819,-0.5 745,-0.5"/>
<text text-anchor="middle" x="782" y="-7.5" font-family="Helvetica,sans-Serif" font-size="10.00">CGame::play</text>
</a>
</g>
</g>
<!-- Node9&#45;&gt;Node10 -->
<g id="edge5" class="edge"><title>Node9&#45;&gt;Node10</title>
<path fill="none" stroke="midnightblue" d="M719.157,-18.9354C728.065,-17.6483 736.878,-16.3751 744.937,-15.2107"/>
<polygon fill="midnightblue" stroke="midnightblue" points="718.491,-15.4953 709.094,-20.3895 719.492,-22.4234 718.491,-15.4953"/>
</g>
<!-- Node11 -->
<g id="node7" class="node"><title>Node11</title>
<g id="a_node7"><a xlink:href="class_c_game.html#ac0a8028013ca5a7c135c29fa582df4a0" target="_top" xlink:title="CGame::checkHeroStatus">
<polygon fill="none" stroke="black" points="855,-38.5 855,-57.5 986,-57.5 986,-38.5 855,-38.5"/>
<text text-anchor="middle" x="920.5" y="-45.5" font-family="Helvetica,sans-Serif" font-size="10.00">CGame::checkHeroStatus</text>
</a>
</g>
</g>
<!-- Node10&#45;&gt;Node11 -->
<g id="edge6" class="edge"><title>Node10&#45;&gt;Node11</title>
<path fill="none" stroke="midnightblue" d="M827.249,-22.3183C846.003,-27.5393 867.528,-33.5316 885.066,-38.4141"/>
<polygon fill="midnightblue" stroke="midnightblue" points="828.017,-18.8992 817.445,-19.589 826.14,-25.6428 828.017,-18.8992"/>
</g>
<!-- Node12 -->
<g id="node8" class="node"><title>Node12</title>
<g id="a_node8"><a xlink:href="main_8cpp.html#ae66f6b31b5ad750f1fe042a706a4e3d4" target="_top" xlink:title="main">
<polygon fill="none" stroke="black" points="901.5,-0.5 901.5,-19.5 939.5,-19.5 939.5,-0.5 901.5,-0.5"/>
<text text-anchor="middle" x="920.5" y="-7.5" font-family="Helvetica,sans-Serif" font-size="10.00">main</text>
</a>
</g>
</g>
<!-- Node10&#45;&gt;Node12 -->
<g id="edge8" class="edge"><title>Node10&#45;&gt;Node12</title>
<path fill="none" stroke="midnightblue" d="M829.458,-10C854.045,-10 882.849,-10 901.132,-10"/>
<polygon fill="midnightblue" stroke="midnightblue" points="829.221,-6.5001 819.221,-10 829.221,-13.5001 829.221,-6.5001"/>
</g>
<!-- Node11&#45;&gt;Node9 -->
<g id="edge7" class="edge"><title>Node11&#45;&gt;Node9</title>
<path fill="none" stroke="midnightblue" d="M844.793,-42.7429C802.008,-39.7321 749.055,-36.0057 709.087,-33.1932"/>
<polygon fill="midnightblue" stroke="midnightblue" points="844.654,-46.2416 854.875,-43.4523 845.146,-39.2589 844.654,-46.2416"/>
</g>
</g>
</svg>
