<?xml version="1.0" encoding="UTF-8" standalone="no"?>
<!DOCTYPE svg PUBLIC "-//W3C//DTD SVG 1.1//EN"
 "http://www.w3.org/Graphics/SVG/1.1/DTD/svg11.dtd">
<!-- Generated by graphviz version 2.38.0 (20140413.2041)
 -->
<!-- Title: CItem Pages: 1 -->
<svg width="105pt" height="270pt"
 viewBox="0.00 0.00 104.50 270.00" xmlns="http://www.w3.org/2000/svg" xmlns:xlink="http://www.w3.org/1999/xlink">
<g id="graph0" class="graph" transform="scale(1 1) rotate(0) translate(4 266)">
<title>CItem</title>
<!-- Node3 -->
<g id="node1" class="node"><title>Node3</title>
<polygon fill="#bfbfbf" stroke="black" points="0,-0.5 0,-145.5 87,-145.5 87,-0.5 0,-0.5"/>
<text text-anchor="middle" x="43.5" y="-133.5" font-family="Helvetica,sans-Serif" font-size="10.00">CItem</text>
<polyline fill="none" stroke="black" points="0,-126.5 87,-126.5 "/>
<text text-anchor="middle" x="43.5" y="-114.5" font-family="Helvetica,sans-Serif" font-size="10.00"> </text>
<polyline fill="none" stroke="black" points="0,-107.5 87,-107.5 "/>
<text text-anchor="start" x="8" y="-95.5" font-family="Helvetica,sans-Serif" font-size="10.00">+ CItem()</text>
<text text-anchor="start" x="8" y="-84.5" font-family="Helvetica,sans-Serif" font-size="10.00">+ CItem()</text>
<text text-anchor="start" x="8" y="-73.5" font-family="Helvetica,sans-Serif" font-size="10.00">+ ~CItem()</text>
<text text-anchor="start" x="8" y="-62.5" font-family="Helvetica,sans-Serif" font-size="10.00">+ useItem()</text>
<text text-anchor="start" x="8" y="-51.5" font-family="Helvetica,sans-Serif" font-size="10.00">+ getID()</text>
<text text-anchor="start" x="8" y="-40.5" font-family="Helvetica,sans-Serif" font-size="10.00">+ getPrice()</text>
<text text-anchor="start" x="8" y="-29.5" font-family="Helvetica,sans-Serif" font-size="10.00">+ getName()</text>
<text text-anchor="start" x="8" y="-18.5" font-family="Helvetica,sans-Serif" font-size="10.00">+ print()</text>
<text text-anchor="start" x="8" y="-7.5" font-family="Helvetica,sans-Serif" font-size="10.00">+ printForShop()</text>
</g>
<!-- Node4 -->
<g id="node2" class="node"><title>Node4</title>
<polygon fill="none" stroke="#bfbfbf" points="1,-204.5 1,-261.5 30,-261.5 30,-204.5 1,-204.5"/>
<text text-anchor="middle" x="15.5" y="-249.5" font-family="Helvetica,sans-Serif" font-size="10.00">int</text>
<polyline fill="none" stroke="#bfbfbf" points="1,-242.5 30,-242.5 "/>
<text text-anchor="middle" x="15.5" y="-230.5" font-family="Helvetica,sans-Serif" font-size="10.00"> </text>
<polyline fill="none" stroke="#bfbfbf" points="1,-223.5 30,-223.5 "/>
<text text-anchor="middle" x="15.5" y="-211.5" font-family="Helvetica,sans-Serif" font-size="10.00"> </text>
</g>
<!-- Node4&#45;&gt;Node3 -->
<g id="edge1" class="edge"><title>Node4&#45;&gt;Node3</title>
<path fill="none" stroke="#404040" d="M14.1831,-204.394C14.0324,-191.98 14.4656,-177.186 16.5,-164 16.8164,-161.949 17.168,-159.881 17.5505,-157.8"/>
<polygon fill="none" stroke="#404040" points="17.6016,-157.554 14.9097,-150.865 20.0496,-145.807 22.7415,-152.497 17.6016,-157.554"/>
<text text-anchor="middle" x="33.5" y="-178" font-family="Helvetica,sans-Serif" font-size="10.00"> #price</text>
<text text-anchor="middle" x="33.5" y="-167" font-family="Helvetica,sans-Serif" font-size="10.00">#itemID</text>
</g>
<!-- Node5 -->
<g id="node3" class="node"><title>Node5</title>
<polygon fill="none" stroke="#bfbfbf" points="52,-204.5 52,-261.5 93,-261.5 93,-204.5 52,-204.5"/>
<text text-anchor="middle" x="72.5" y="-249.5" font-family="Helvetica,sans-Serif" font-size="10.00">string</text>
<polyline fill="none" stroke="#bfbfbf" points="52,-242.5 93,-242.5 "/>
<text text-anchor="middle" x="72.5" y="-230.5" font-family="Helvetica,sans-Serif" font-size="10.00"> </text>
<polyline fill="none" stroke="#bfbfbf" points="52,-223.5 93,-223.5 "/>
<text text-anchor="middle" x="72.5" y="-211.5" font-family="Helvetica,sans-Serif" font-size="10.00"> </text>
</g>
<!-- Node5&#45;&gt;Node3 -->
<g id="edge2" class="edge"><title>Node5&#45;&gt;Node3</title>
<path fill="none" stroke="#404040" d="M67.4486,-204.479C65.0328,-191.317 61.9972,-174.778 58.9065,-157.939"/>
<polygon fill="none" stroke="#404040" points="58.8207,-157.471 53.8032,-152.292 56.6543,-145.668 61.6718,-150.848 58.8207,-157.471"/>
<text text-anchor="middle" x="80" y="-172.5" font-family="Helvetica,sans-Serif" font-size="10.00"> #name</text>
</g>
</g>
</svg>
