<?xml version="1.0" encoding="UTF-8" standalone="no"?>
<!DOCTYPE svg PUBLIC "-//W3C//DTD SVG 1.1//EN"
 "http://www.w3.org/Graphics/SVG/1.1/DTD/svg11.dtd">
<!-- Generated by graphviz version 2.38.0 (20140413.2041)
 -->
<!-- Title: CChoice Pages: 1 -->
<svg width="270pt" height="353pt"
 viewBox="0.00 0.00 269.82 353.00" xmlns="http://www.w3.org/2000/svg" xmlns:xlink="http://www.w3.org/1999/xlink">
<g id="graph0" class="graph" transform="scale(1 1) rotate(0) translate(4 349)">
<title>CChoice</title>
<!-- Node2 -->
<g id="node1" class="node"><title>Node2</title>
<polygon fill="#bfbfbf" stroke="black" points="62.3216,-0.5 62.3216,-90.5 130.322,-90.5 130.322,-0.5 62.3216,-0.5"/>
<text text-anchor="middle" x="96.3216" y="-78.5" font-family="Helvetica,sans-Serif" font-size="10.00">CChoice</text>
<polyline fill="none" stroke="black" points="62.3216,-71.5 130.322,-71.5 "/>
<text text-anchor="middle" x="96.3216" y="-59.5" font-family="Helvetica,sans-Serif" font-size="10.00"> </text>
<polyline fill="none" stroke="black" points="62.3216,-52.5 130.322,-52.5 "/>
<text text-anchor="start" x="70.3216" y="-40.5" font-family="Helvetica,sans-Serif" font-size="10.00">+ CChoice()</text>
<text text-anchor="start" x="70.3216" y="-29.5" font-family="Helvetica,sans-Serif" font-size="10.00">+ CChoice()</text>
<text text-anchor="start" x="70.3216" y="-18.5" font-family="Helvetica,sans-Serif" font-size="10.00">+ print()</text>
<text text-anchor="start" x="70.3216" y="-7.5" font-family="Helvetica,sans-Serif" font-size="10.00">+ execute()</text>
</g>
<!-- Node3 -->
<g id="node2" class="node"><title>Node3</title>
<g id="a_node2"><a xlink:href="class_c_event.html" target="_top" xlink:title="{CEvent\n||+ CEvent()\l+ ~CEvent()\l+ print()\l+ execute()\l}">
<polygon fill="none" stroke="black" points="62.3216,-138.5 62.3216,-228.5 130.322,-228.5 130.322,-138.5 62.3216,-138.5"/>
<text text-anchor="middle" x="96.3216" y="-216.5" font-family="Helvetica,sans-Serif" font-size="10.00">CEvent</text>
<polyline fill="none" stroke="black" points="62.3216,-209.5 130.322,-209.5 "/>
<text text-anchor="middle" x="96.3216" y="-197.5" font-family="Helvetica,sans-Serif" font-size="10.00"> </text>
<polyline fill="none" stroke="black" points="62.3216,-190.5 130.322,-190.5 "/>
<text text-anchor="start" x="70.3216" y="-178.5" font-family="Helvetica,sans-Serif" font-size="10.00">+ CEvent()</text>
<text text-anchor="start" x="70.3216" y="-167.5" font-family="Helvetica,sans-Serif" font-size="10.00">+ ~CEvent()</text>
<text text-anchor="start" x="70.3216" y="-156.5" font-family="Helvetica,sans-Serif" font-size="10.00">+ print()</text>
<text text-anchor="start" x="70.3216" y="-145.5" font-family="Helvetica,sans-Serif" font-size="10.00">+ execute()</text>
</a>
</g>
</g>
<!-- Node3&#45;&gt;Node2 -->
<g id="edge1" class="edge"><title>Node3&#45;&gt;Node2</title>
<path fill="none" stroke="midnightblue" d="M96.3216,-128.145C96.3216,-115.782 96.3216,-102.791 96.3216,-90.8992"/>
<polygon fill="none" stroke="midnightblue" points="92.8217,-128.345 96.3216,-138.345 99.8217,-128.345 92.8217,-128.345"/>
</g>
<!-- Node4 -->
<g id="node3" class="node"><title>Node4</title>
<polygon fill="none" stroke="#bfbfbf" points="4.82158,-287.5 4.82158,-344.5 33.8216,-344.5 33.8216,-287.5 4.82158,-287.5"/>
<text text-anchor="middle" x="19.3216" y="-332.5" font-family="Helvetica,sans-Serif" font-size="10.00">int</text>
<polyline fill="none" stroke="#bfbfbf" points="4.82158,-325.5 33.8216,-325.5 "/>
<text text-anchor="middle" x="19.3216" y="-313.5" font-family="Helvetica,sans-Serif" font-size="10.00"> </text>
<polyline fill="none" stroke="#bfbfbf" points="4.82158,-306.5 33.8216,-306.5 "/>
<text text-anchor="middle" x="19.3216" y="-294.5" font-family="Helvetica,sans-Serif" font-size="10.00"> </text>
</g>
<!-- Node4&#45;&gt;Node2 -->
<g id="edge4" class="edge"><title>Node4&#45;&gt;Node2</title>
<path fill="none" stroke="#404040" d="M11.3617,-287.487C2.48103,-251.684 -8.24737,-187.818 11.3216,-138 20.0169,-115.864 36.8655,-95.8992 53.2843,-80.3088"/>
<polygon fill="none" stroke="#404040" points="53.4252,-80.1807 55.1764,-73.1855 62.3071,-72.1115 60.5559,-79.1067 53.4252,-80.1807"/>
<text text-anchor="middle" x="32.3216" y="-186.5" font-family="Helvetica,sans-Serif" font-size="10.00"> #optionA</text>
<text text-anchor="middle" x="32.3216" y="-175.5" font-family="Helvetica,sans-Serif" font-size="10.00">#optionB</text>
</g>
<!-- Node4&#45;&gt;Node3 -->
<g id="edge2" class="edge"><title>Node4&#45;&gt;Node3</title>
<path fill="none" stroke="#404040" d="M32.0407,-287.405C38.0955,-274.861 45.6742,-259.959 53.3216,-247 54.8737,-244.37 56.4975,-241.703 58.1671,-239.029"/>
<polygon fill="none" stroke="#404040" points="58.2954,-238.829 58.1721,-231.619 64.7801,-228.732 64.9034,-235.942 58.2954,-238.829"/>
<text text-anchor="middle" x="73.3216" y="-255.5" font-family="Helvetica,sans-Serif" font-size="10.00"> #eventID</text>
</g>
<!-- Node5 -->
<g id="node4" class="node"><title>Node5</title>
<polygon fill="none" stroke="#bfbfbf" points="77.8216,-287.5 77.8216,-344.5 118.822,-344.5 118.822,-287.5 77.8216,-287.5"/>
<text text-anchor="middle" x="98.3216" y="-332.5" font-family="Helvetica,sans-Serif" font-size="10.00">string</text>
<polyline fill="none" stroke="#bfbfbf" points="77.8216,-325.5 118.822,-325.5 "/>
<text text-anchor="middle" x="98.3216" y="-313.5" font-family="Helvetica,sans-Serif" font-size="10.00"> </text>
<polyline fill="none" stroke="#bfbfbf" points="77.8216,-306.5 118.822,-306.5 "/>
<text text-anchor="middle" x="98.3216" y="-294.5" font-family="Helvetica,sans-Serif" font-size="10.00"> </text>
</g>
<!-- Node5&#45;&gt;Node3 -->
<g id="edge3" class="edge"><title>Node5&#45;&gt;Node3</title>
<path fill="none" stroke="#404040" d="M97.8974,-287.324C97.6891,-273.731 97.4302,-256.837 97.1828,-240.696"/>
<polygon fill="none" stroke="#404040" points="97.1809,-240.566 93.0894,-234.628 96.997,-228.568 101.088,-234.506 97.1809,-240.566"/>
<text text-anchor="middle" x="126.822" y="-261" font-family="Helvetica,sans-Serif" font-size="10.00"> #eventName</text>
<text text-anchor="middle" x="126.822" y="-250" font-family="Helvetica,sans-Serif" font-size="10.00">#text</text>
</g>
<!-- Node6 -->
<g id="node5" class="node"><title>Node6</title>
<polygon fill="none" stroke="#bfbfbf" points="148.822,-149.5 148.822,-217.5 261.822,-217.5 261.822,-149.5 148.822,-149.5"/>
<text text-anchor="start" x="156.822" y="-205.5" font-family="Helvetica,sans-Serif" font-size="10.00">vector&lt; std::pair&lt;</text>
<text text-anchor="middle" x="205.322" y="-194.5" font-family="Helvetica,sans-Serif" font-size="10.00"> std::string, action &gt; &gt;</text>
<polyline fill="none" stroke="#bfbfbf" points="148.822,-187.5 261.822,-187.5 "/>
<text text-anchor="middle" x="205.322" y="-175.5" font-family="Helvetica,sans-Serif" font-size="10.00"> </text>
<polyline fill="none" stroke="#bfbfbf" points="148.822,-168.5 261.822,-168.5 "/>
<text text-anchor="middle" x="205.322" y="-156.5" font-family="Helvetica,sans-Serif" font-size="10.00"> </text>
</g>
<!-- Node6&#45;&gt;Node2 -->
<g id="edge5" class="edge"><title>Node6&#45;&gt;Node2</title>
<path fill="none" stroke="#404040" d="M178.657,-149.231C166.487,-134.046 151.785,-115.702 138.192,-98.7421"/>
<polygon fill="none" stroke="#404040" points="137.849,-98.3145 130.976,-96.1342 130.345,-88.9507 137.218,-91.131 137.849,-98.3145"/>
<text text-anchor="middle" x="174.322" y="-112" font-family="Helvetica,sans-Serif" font-size="10.00"> #options</text>
</g>
</g>
</svg>
