<?xml version="1.0" encoding="UTF-8" standalone="no"?>
<!DOCTYPE svg PUBLIC "-//W3C//DTD SVG 1.1//EN"
 "http://www.w3.org/Graphics/SVG/1.1/DTD/svg11.dtd">
<!-- Generated by graphviz version 2.38.0 (20140413.2041)
 -->
<!-- Title: CDisplay::printError Pages: 1 -->
<svg width="707pt" height="218pt"
 viewBox="0.00 0.00 707.00 218.00" xmlns="http://www.w3.org/2000/svg" xmlns:xlink="http://www.w3.org/1999/xlink">
<g id="graph0" class="graph" transform="scale(1 1) rotate(0) translate(4 214)">
<title>CDisplay::printError</title>
<!-- Node107 -->
<g id="node1" class="node"><title>Node107</title>
<polygon fill="#bfbfbf" stroke="black" points="0,-38.5 0,-57.5 101,-57.5 101,-38.5 0,-38.5"/>
<text text-anchor="middle" x="50.5" y="-45.5" font-family="Helvetica,sans-Serif" font-size="10.00">CDisplay::printError</text>
</g>
<!-- Node108 -->
<g id="node2" class="node"><title>Node108</title>
<g id="a_node2"><a xlink:href="class_c_game.html#a39e1e296c6dcabbf5c824eea6424d6d9" target="_top" xlink:title="CGame::mainMenu">
<polygon fill="none" stroke="black" points="137,-76.5 137,-95.5 238,-95.5 238,-76.5 137,-76.5"/>
<text text-anchor="middle" x="187.5" y="-83.5" font-family="Helvetica,sans-Serif" font-size="10.00">CGame::mainMenu</text>
</a>
</g>
</g>
<!-- Node107&#45;&gt;Node108 -->
<g id="edge1" class="edge"><title>Node107&#45;&gt;Node108</title>
<path fill="none" stroke="midnightblue" d="M95.2625,-60.3183C113.811,-65.5393 135.099,-71.5316 152.445,-76.4141"/>
<polygon fill="midnightblue" stroke="midnightblue" points="96.1405,-56.9295 85.5662,-57.589 94.2438,-63.6677 96.1405,-56.9295"/>
</g>
<!-- Node113 -->
<g id="node7" class="node"><title>Node113</title>
<g id="a_node7"><a xlink:href="class_c_game.html#a49656fe4404b3df63f2dbebd9b754edd" target="_top" xlink:title="CGame::saveGame">
<polygon fill="none" stroke="black" points="274,-38.5 274,-57.5 375,-57.5 375,-38.5 274,-38.5"/>
<text text-anchor="middle" x="324.5" y="-45.5" font-family="Helvetica,sans-Serif" font-size="10.00">CGame::saveGame</text>
</a>
</g>
</g>
<!-- Node107&#45;&gt;Node113 -->
<g id="edge8" class="edge"><title>Node107&#45;&gt;Node113</title>
<path fill="none" stroke="midnightblue" d="M111.165,-48C159.905,-48 227.993,-48 273.809,-48"/>
<polygon fill="midnightblue" stroke="midnightblue" points="111.073,-44.5001 101.073,-48 111.073,-51.5001 111.073,-44.5001"/>
</g>
<!-- Node114 -->
<g id="node8" class="node"><title>Node114</title>
<g id="a_node8"><a xlink:href="class_c_game.html#af5435e79a93dd92991ae24b499976470" target="_top" xlink:title="CGame::CGame">
<polygon fill="none" stroke="black" points="143,-0.5 143,-19.5 232,-19.5 232,-0.5 143,-0.5"/>
<text text-anchor="middle" x="187.5" y="-7.5" font-family="Helvetica,sans-Serif" font-size="10.00">CGame::CGame</text>
</a>
</g>
</g>
<!-- Node107&#45;&gt;Node114 -->
<g id="edge10" class="edge"><title>Node107&#45;&gt;Node114</title>
<path fill="none" stroke="midnightblue" d="M95.2625,-35.6817C113.811,-30.4607 135.099,-24.4684 152.445,-19.5859"/>
<polygon fill="midnightblue" stroke="midnightblue" points="94.2438,-32.3323 85.5662,-38.411 96.1405,-39.0705 94.2438,-32.3323"/>
</g>
<!-- Node109 -->
<g id="node3" class="node"><title>Node109</title>
<g id="a_node3"><a xlink:href="class_c_game.html#aa9d3da2fefa1c04faefc6586dbd37971" target="_top" xlink:title="CGame::play">
<polygon fill="none" stroke="black" points="287.5,-133.5 287.5,-152.5 361.5,-152.5 361.5,-133.5 287.5,-133.5"/>
<text text-anchor="middle" x="324.5" y="-140.5" font-family="Helvetica,sans-Serif" font-size="10.00">CGame::play</text>
</a>
</g>
</g>
<!-- Node108&#45;&gt;Node109 -->
<g id="edge2" class="edge"><title>Node108&#45;&gt;Node109</title>
<path fill="none" stroke="midnightblue" d="M220.425,-99.4793C245.155,-109.921 278.804,-124.129 300.83,-133.428"/>
<polygon fill="midnightblue" stroke="midnightblue" points="221.67,-96.2059 211.096,-95.5405 218.947,-102.655 221.67,-96.2059"/>
</g>
<!-- Node111 -->
<g id="node5" class="node"><title>Node111</title>
<g id="a_node5"><a xlink:href="class_c_game.html#a714b291af5e20aae8be14a905fd0522d" target="_top" xlink:title="CGame::tickComponent">
<polygon fill="none" stroke="black" points="578,-95.5 578,-114.5 699,-114.5 699,-95.5 578,-95.5"/>
<text text-anchor="middle" x="638.5" y="-102.5" font-family="Helvetica,sans-Serif" font-size="10.00">CGame::tickComponent</text>
</a>
</g>
</g>
<!-- Node108&#45;&gt;Node111 -->
<g id="edge7" class="edge"><title>Node108&#45;&gt;Node111</title>
<path fill="none" stroke="midnightblue" d="M248.393,-88.5345C334.425,-92.175 492.049,-98.845 577.911,-102.478"/>
<polygon fill="midnightblue" stroke="midnightblue" points="248.405,-85.0319 238.266,-88.1059 248.109,-92.0257 248.405,-85.0319"/>
</g>
<!-- Node110 -->
<g id="node4" class="node"><title>Node110</title>
<g id="a_node4"><a xlink:href="class_c_game.html#ac0a8028013ca5a7c135c29fa582df4a0" target="_top" xlink:title="CGame::checkHeroStatus">
<polygon fill="none" stroke="black" points="411,-190.5 411,-209.5 542,-209.5 542,-190.5 411,-190.5"/>
<text text-anchor="middle" x="476.5" y="-197.5" font-family="Helvetica,sans-Serif" font-size="10.00">CGame::checkHeroStatus</text>
</a>
</g>
</g>
<!-- Node109&#45;&gt;Node110 -->
<g id="edge3" class="edge"><title>Node109&#45;&gt;Node110</title>
<path fill="none" stroke="midnightblue" d="M353.977,-156.788C370.423,-164.464 391.628,-173.877 411,-181 420.313,-184.424 430.552,-187.669 440.076,-190.477"/>
<polygon fill="midnightblue" stroke="midnightblue" points="355.431,-153.604 344.894,-152.5 352.443,-159.934 355.431,-153.604"/>
</g>
<!-- Node112 -->
<g id="node6" class="node"><title>Node112</title>
<g id="a_node6"><a xlink:href="main_8cpp.html#ae66f6b31b5ad750f1fe042a706a4e3d4" target="_top" xlink:title="main">
<polygon fill="none" stroke="black" points="457.5,-152.5 457.5,-171.5 495.5,-171.5 495.5,-152.5 457.5,-152.5"/>
<text text-anchor="middle" x="476.5" y="-159.5" font-family="Helvetica,sans-Serif" font-size="10.00">main</text>
</a>
</g>
</g>
<!-- Node109&#45;&gt;Node112 -->
<g id="edge6" class="edge"><title>Node109&#45;&gt;Node112</title>
<path fill="none" stroke="midnightblue" d="M372.086,-148.901C400.885,-152.549 436.244,-157.028 457.266,-159.69"/>
<polygon fill="midnightblue" stroke="midnightblue" points="372.171,-145.384 361.811,-147.599 371.292,-152.328 372.171,-145.384"/>
</g>
<!-- Node110&#45;&gt;Node111 -->
<g id="edge4" class="edge"><title>Node110&#45;&gt;Node111</title>
<path fill="none" stroke="midnightblue" d="M528.39,-187.05C533.088,-185.249 537.695,-183.238 542,-181 577.159,-162.726 611.91,-130.597 628.089,-114.605"/>
<polygon fill="midnightblue" stroke="midnightblue" points="526.965,-183.84 518.687,-190.453 529.282,-190.446 526.965,-183.84"/>
</g>
<!-- Node111&#45;&gt;Node109 -->
<g id="edge5" class="edge"><title>Node111&#45;&gt;Node109</title>
<path fill="none" stroke="midnightblue" d="M567.762,-113.494C503.877,-121.275 411.841,-132.484 361.595,-138.604"/>
<polygon fill="midnightblue" stroke="midnightblue" points="568.259,-116.959 577.763,-112.276 567.413,-110.01 568.259,-116.959"/>
</g>
<!-- Node113&#45;&gt;Node111 -->
<g id="edge9" class="edge"><title>Node113&#45;&gt;Node111</title>
<path fill="none" stroke="midnightblue" d="M385.225,-51.0422C429.035,-54.1365 489.744,-60.2291 542,-72 567.327,-77.705 595.289,-87.8432 614.373,-95.3818"/>
<polygon fill="midnightblue" stroke="midnightblue" points="385.24,-47.5353 375.027,-50.3544 384.769,-54.5195 385.24,-47.5353"/>
</g>
</g>
</svg>
