<?xml version="1.0" encoding="UTF-8" standalone="no"?>
<!DOCTYPE svg PUBLIC "-//W3C//DTD SVG 1.1//EN"
 "http://www.w3.org/Graphics/SVG/1.1/DTD/svg11.dtd">
<!-- Generated by graphviz version 2.38.0 (20140413.2041)
 -->
<!-- Title: CWorld::loadWorld Pages: 1 -->
<svg width="626pt" height="332pt"
 viewBox="0.00 0.00 626.00 332.00" xmlns="http://www.w3.org/2000/svg" xmlns:xlink="http://www.w3.org/1999/xlink">
<g id="graph0" class="graph" transform="scale(1 1) rotate(0) translate(4 328)">
<title>CWorld::loadWorld</title>
<!-- Node67 -->
<g id="node1" class="node"><title>Node67</title>
<polygon fill="#bfbfbf" stroke="black" points="0,-152.5 0,-171.5 98,-171.5 98,-152.5 0,-152.5"/>
<text text-anchor="middle" x="49" y="-159.5" font-family="Helvetica,sans-Serif" font-size="10.00">CWorld::loadWorld</text>
</g>
<!-- Node68 -->
<g id="node2" class="node"><title>Node68</title>
<g id="a_node2"><a xlink:href="class_i_ohandle.html#a42f66760fa3e33400921dcb8d9a8cd57" target="_top" xlink:title="IOhandle::loadEvent">
<polygon fill="none" stroke="black" points="146,-304.5 146,-323.5 249,-323.5 249,-304.5 146,-304.5"/>
<text text-anchor="middle" x="197.5" y="-311.5" font-family="Helvetica,sans-Serif" font-size="10.00">IOhandle::loadEvent</text>
</a>
</g>
</g>
<!-- Node67&#45;&gt;Node68 -->
<g id="edge1" class="edge"><title>Node67&#45;&gt;Node68</title>
<path fill="none" stroke="midnightblue" d="M53.3718,-171.691C62.3945,-196.191 89.475,-261.06 134,-295 136.447,-296.865 139.076,-298.548 141.823,-300.067"/>
<polygon fill="midnightblue" stroke="midnightblue" points="140.377,-303.255 150.912,-304.38 143.378,-296.93 140.377,-303.255"/>
</g>
<!-- Node70 -->
<g id="node4" class="node"><title>Node70</title>
<g id="a_node4"><a xlink:href="class_i_ohandle.html#a99dd11dfe48cea80e164a9d7477aad5f" target="_top" xlink:title="IOhandle::loadCreature">
<polygon fill="none" stroke="black" points="139.5,-266.5 139.5,-285.5 255.5,-285.5 255.5,-266.5 139.5,-266.5"/>
<text text-anchor="middle" x="197.5" y="-273.5" font-family="Helvetica,sans-Serif" font-size="10.00">IOhandle::loadCreature</text>
</a>
</g>
</g>
<!-- Node67&#45;&gt;Node70 -->
<g id="edge3" class="edge"><title>Node67&#45;&gt;Node70</title>
<path fill="none" stroke="midnightblue" d="M55.8824,-171.659C68.0478,-190.823 97.8785,-233.799 134,-257 137.288,-259.112 140.822,-260.999 144.478,-262.684"/>
<polygon fill="midnightblue" stroke="midnightblue" points="143.162,-265.927 153.743,-266.47 145.81,-259.447 143.162,-265.927"/>
</g>
<!-- Node71 -->
<g id="node5" class="node"><title>Node71</title>
<g id="a_node5"><a xlink:href="class_i_ohandle.html#a4870dc9635a6c30ef483d699dffd8774" target="_top" xlink:title="IOhandle::loadShopItem">
<polygon fill="none" stroke="black" points="137.5,-228.5 137.5,-247.5 257.5,-247.5 257.5,-228.5 137.5,-228.5"/>
<text text-anchor="middle" x="197.5" y="-235.5" font-family="Helvetica,sans-Serif" font-size="10.00">IOhandle::loadShopItem</text>
</a>
</g>
</g>
<!-- Node67&#45;&gt;Node71 -->
<g id="edge5" class="edge"><title>Node67&#45;&gt;Node71</title>
<path fill="none" stroke="midnightblue" d="M61.5486,-171.515C77.136,-183.951 106.171,-205.706 134,-219 138.677,-221.234 143.676,-223.276 148.733,-225.124"/>
<polygon fill="midnightblue" stroke="midnightblue" points="147.866,-228.526 158.46,-228.435 150.122,-221.899 147.866,-228.526"/>
</g>
<!-- Node72 -->
<g id="node6" class="node"><title>Node72</title>
<g id="a_node6"><a xlink:href="class_i_ohandle.html#a8d076d0076c358e63e1e993309c35b2a" target="_top" xlink:title="IOhandle::loadEventOrder">
<polygon fill="none" stroke="black" points="134,-190.5 134,-209.5 261,-209.5 261,-190.5 134,-190.5"/>
<text text-anchor="middle" x="197.5" y="-197.5" font-family="Helvetica,sans-Serif" font-size="10.00">IOhandle::loadEventOrder</text>
</a>
</g>
</g>
<!-- Node67&#45;&gt;Node72 -->
<g id="edge7" class="edge"><title>Node67&#45;&gt;Node72</title>
<path fill="none" stroke="midnightblue" d="M86.9681,-171.589C106.126,-176.558 129.714,-182.677 150.088,-187.961"/>
<polygon fill="midnightblue" stroke="midnightblue" points="149.239,-191.357 159.798,-190.48 150.997,-184.581 149.239,-191.357"/>
</g>
<!-- Node73 -->
<g id="node7" class="node"><title>Node73</title>
<g id="a_node7"><a xlink:href="class_c_world.html#afa6876cb4b0d0aa9aec88fec6c596634" target="_top" xlink:title="CWorld::loadEvents">
<polygon fill="none" stroke="black" points="146.5,-152.5 146.5,-171.5 248.5,-171.5 248.5,-152.5 146.5,-152.5"/>
<text text-anchor="middle" x="197.5" y="-159.5" font-family="Helvetica,sans-Serif" font-size="10.00">CWorld::loadEvents</text>
</a>
</g>
</g>
<!-- Node67&#45;&gt;Node73 -->
<g id="edge8" class="edge"><title>Node67&#45;&gt;Node73</title>
<path fill="none" stroke="midnightblue" d="M98.3756,-162C110.542,-162 123.747,-162 136.41,-162"/>
<polygon fill="midnightblue" stroke="midnightblue" points="136.418,-165.5 146.418,-162 136.418,-158.5 136.418,-165.5"/>
</g>
<!-- Node77 -->
<g id="node11" class="node"><title>Node77</title>
<g id="a_node11"><a xlink:href="class_c_world.html#abb7ab3f5626b424ebabbd4aec3b60b5a" target="_top" xlink:title="CWorld::loadItems">
<polygon fill="none" stroke="black" points="149,-76.5 149,-95.5 246,-95.5 246,-76.5 149,-76.5"/>
<text text-anchor="middle" x="197.5" y="-83.5" font-family="Helvetica,sans-Serif" font-size="10.00">CWorld::loadItems</text>
</a>
</g>
</g>
<!-- Node67&#45;&gt;Node77 -->
<g id="edge13" class="edge"><title>Node67&#45;&gt;Node77</title>
<path fill="none" stroke="midnightblue" d="M61.5486,-152.485C77.136,-140.049 106.171,-118.294 134,-105 138.677,-102.766 143.676,-100.724 148.733,-98.8764"/>
<polygon fill="midnightblue" stroke="midnightblue" points="150.122,-102.101 158.46,-95.5647 147.866,-95.4745 150.122,-102.101"/>
</g>
<!-- Node78 -->
<g id="node12" class="node"><title>Node78</title>
<g id="a_node12"><a xlink:href="class_c_world.html#a313cf7258bfab897ada813aa0f8837ac" target="_top" xlink:title="CWorld::loadCreatures">
<polygon fill="none" stroke="black" points="140,-114.5 140,-133.5 255,-133.5 255,-114.5 140,-114.5"/>
<text text-anchor="middle" x="197.5" y="-121.5" font-family="Helvetica,sans-Serif" font-size="10.00">CWorld::loadCreatures</text>
</a>
</g>
</g>
<!-- Node67&#45;&gt;Node78 -->
<g id="edge17" class="edge"><title>Node67&#45;&gt;Node78</title>
<path fill="none" stroke="midnightblue" d="M86.9681,-152.411C106.126,-147.442 129.714,-141.323 150.088,-136.039"/>
<polygon fill="midnightblue" stroke="midnightblue" points="150.997,-139.419 159.798,-133.52 149.239,-132.643 150.997,-139.419"/>
</g>
<!-- Node79 -->
<g id="node13" class="node"><title>Node79</title>
<g id="a_node13"><a xlink:href="class_c_world.html#a6a4774ff3ee94df11d82260a27065885" target="_top" xlink:title="CWorld::loadStoryline">
<polygon fill="none" stroke="black" points="142,-38.5 142,-57.5 253,-57.5 253,-38.5 142,-38.5"/>
<text text-anchor="middle" x="197.5" y="-45.5" font-family="Helvetica,sans-Serif" font-size="10.00">CWorld::loadStoryline</text>
</a>
</g>
</g>
<!-- Node67&#45;&gt;Node79 -->
<g id="edge20" class="edge"><title>Node67&#45;&gt;Node79</title>
<path fill="none" stroke="midnightblue" d="M55.8824,-152.341C68.0478,-133.177 97.8785,-90.2011 134,-67 137.288,-64.8884 140.822,-63.001 144.478,-61.3157"/>
<polygon fill="midnightblue" stroke="midnightblue" points="145.81,-64.5526 153.743,-57.5303 143.162,-58.0726 145.81,-64.5526"/>
</g>
<!-- Node81 -->
<g id="node15" class="node"><title>Node81</title>
<g id="a_node15"><a xlink:href="class_c_world.html#a5220755d94cacc872e0f5ae0e7e55eb6" target="_top" xlink:title="CWorld::validateIDs">
<polygon fill="none" stroke="black" points="147,-0.5 147,-19.5 248,-19.5 248,-0.5 147,-0.5"/>
<text text-anchor="middle" x="197.5" y="-7.5" font-family="Helvetica,sans-Serif" font-size="10.00">CWorld::validateIDs</text>
</a>
</g>
</g>
<!-- Node67&#45;&gt;Node81 -->
<g id="edge22" class="edge"><title>Node67&#45;&gt;Node81</title>
<path fill="none" stroke="midnightblue" d="M53.3718,-152.309C62.3945,-127.809 89.475,-62.9396 134,-29 136.447,-27.1351 139.076,-25.4521 141.823,-23.9334"/>
<polygon fill="midnightblue" stroke="midnightblue" points="143.378,-27.0696 150.912,-19.6205 140.377,-20.7454 143.378,-27.0696"/>
</g>
<!-- Node69 -->
<g id="node3" class="node"><title>Node69</title>
<g id="a_node3"><a xlink:href="class_i_ohandle.html#a7803f3ab80542103759f56aee5f72dfe" target="_top" xlink:title="IOhandle::dumpLine">
<polygon fill="none" stroke="black" points="320,-266.5 320,-285.5 423,-285.5 423,-266.5 320,-266.5"/>
<text text-anchor="middle" x="371.5" y="-273.5" font-family="Helvetica,sans-Serif" font-size="10.00">IOhandle::dumpLine</text>
</a>
</g>
</g>
<!-- Node68&#45;&gt;Node69 -->
<g id="edge2" class="edge"><title>Node68&#45;&gt;Node69</title>
<path fill="none" stroke="midnightblue" d="M241.903,-304.411C264.907,-299.329 293.351,-293.045 317.634,-287.68"/>
<polygon fill="midnightblue" stroke="midnightblue" points="318.4,-291.095 327.409,-285.52 316.89,-284.26 318.4,-291.095"/>
</g>
<!-- Node70&#45;&gt;Node69 -->
<g id="edge4" class="edge"><title>Node70&#45;&gt;Node69</title>
<path fill="none" stroke="midnightblue" d="M255.774,-276C273.092,-276 292.167,-276 309.707,-276"/>
<polygon fill="midnightblue" stroke="midnightblue" points="309.832,-279.5 319.832,-276 309.832,-272.5 309.832,-279.5"/>
</g>
<!-- Node71&#45;&gt;Node69 -->
<g id="edge6" class="edge"><title>Node71&#45;&gt;Node69</title>
<path fill="none" stroke="midnightblue" d="M241.903,-247.589C264.907,-252.671 293.351,-258.955 317.634,-264.32"/>
<polygon fill="midnightblue" stroke="midnightblue" points="316.89,-267.74 327.409,-266.48 318.4,-260.905 316.89,-267.74"/>
</g>
<!-- Node74 -->
<g id="node8" class="node"><title>Node74</title>
<g id="a_node8"><a xlink:href="class_c_stream_decoder.html#aeaef1aa3239cf7b5d00397b6e46f67d1" target="_top" xlink:title="CStreamDecoder::getString\lAsInt">
<polygon fill="none" stroke="black" points="303.5,-147 303.5,-177 439.5,-177 439.5,-147 303.5,-147"/>
<text text-anchor="start" x="311.5" y="-165" font-family="Helvetica,sans-Serif" font-size="10.00">CStreamDecoder::getString</text>
<text text-anchor="middle" x="371.5" y="-154" font-family="Helvetica,sans-Serif" font-size="10.00">AsInt</text>
</a>
</g>
</g>
<!-- Node73&#45;&gt;Node74 -->
<g id="edge9" class="edge"><title>Node73&#45;&gt;Node74</title>
<path fill="none" stroke="midnightblue" d="M248.712,-162C262.569,-162 277.935,-162 292.954,-162"/>
<polygon fill="midnightblue" stroke="midnightblue" points="293.273,-165.5 303.273,-162 293.273,-158.5 293.273,-165.5"/>
</g>
<!-- Node75 -->
<g id="node9" class="node"><title>Node75</title>
<g id="a_node9"><a xlink:href="class_c_stream_decoder.html#a736a4660fb1fc91ffc7345050f815994" target="_top" xlink:title="CStreamDecoder::getString">
<polygon fill="none" stroke="black" points="482,-152.5 482,-171.5 618,-171.5 618,-152.5 482,-152.5"/>
<text text-anchor="middle" x="550" y="-159.5" font-family="Helvetica,sans-Serif" font-size="10.00">CStreamDecoder::getString</text>
</a>
</g>
</g>
<!-- Node73&#45;&gt;Node75 -->
<g id="edge11" class="edge"><title>Node73&#45;&gt;Node75</title>
<path fill="none" stroke="midnightblue" d="M229.645,-171.612C248.851,-177.031 274.107,-183.251 297,-186 362.75,-193.895 380.211,-193.563 446,-186 466.162,-183.682 488.115,-178.892 506.553,-174.196"/>
<polygon fill="midnightblue" stroke="midnightblue" points="507.617,-177.536 516.402,-171.613 505.841,-170.765 507.617,-177.536"/>
</g>
<!-- Node76 -->
<g id="node10" class="node"><title>Node76</title>
<g id="a_node10"><a xlink:href="class_c_stream_decoder.html#a4ddd62e9d414ff656f5708e3c0c39b36" target="_top" xlink:title="CStreamDecoder::getText">
<polygon fill="none" stroke="black" points="307,-108.5 307,-127.5 436,-127.5 436,-108.5 307,-108.5"/>
<text text-anchor="middle" x="371.5" y="-115.5" font-family="Helvetica,sans-Serif" font-size="10.00">CStreamDecoder::getText</text>
</a>
</g>
</g>
<!-- Node73&#45;&gt;Node76 -->
<g id="edge12" class="edge"><title>Node73&#45;&gt;Node76</title>
<path fill="none" stroke="midnightblue" d="M235.821,-152.453C261.516,-145.88 295.855,-137.095 323.428,-130.042"/>
<polygon fill="midnightblue" stroke="midnightblue" points="324.431,-133.398 333.251,-127.529 322.696,-126.616 324.431,-133.398"/>
</g>
<!-- Node74&#45;&gt;Node75 -->
<g id="edge10" class="edge"><title>Node74&#45;&gt;Node75</title>
<path fill="none" stroke="midnightblue" d="M439.731,-162C450.214,-162 461.117,-162 471.801,-162"/>
<polygon fill="midnightblue" stroke="midnightblue" points="471.956,-165.5 481.956,-162 471.956,-158.5 471.956,-165.5"/>
</g>
<!-- Node77&#45;&gt;Node74 -->
<g id="edge14" class="edge"><title>Node77&#45;&gt;Node74</title>
<path fill="none" stroke="midnightblue" d="M239.229,-95.5898C246.71,-98.1212 254.273,-101.229 261,-105 279.674,-115.467 278.5,-126.229 297,-137 300.604,-139.098 304.41,-141.054 308.317,-142.872"/>
<polygon fill="midnightblue" stroke="midnightblue" points="307,-146.116 317.568,-146.864 309.773,-139.689 307,-146.116"/>
</g>
<!-- Node77&#45;&gt;Node75 -->
<g id="edge15" class="edge"><title>Node77&#45;&gt;Node75</title>
<path fill="none" stroke="midnightblue" d="M246.236,-81.6756C296.99,-78.636 379.012,-78.226 446,-99 477.916,-108.897 510.022,-130.897 529.706,-146.089"/>
<polygon fill="midnightblue" stroke="midnightblue" points="527.574,-148.865 537.588,-152.325 531.918,-143.375 527.574,-148.865"/>
</g>
<!-- Node77&#45;&gt;Node76 -->
<g id="edge16" class="edge"><title>Node77&#45;&gt;Node76</title>
<path fill="none" stroke="midnightblue" d="M246.412,-94.9138C265.888,-98.5373 288.631,-102.768 309.287,-106.612"/>
<polygon fill="midnightblue" stroke="midnightblue" points="308.765,-110.074 319.236,-108.463 310.045,-103.192 308.765,-110.074"/>
</g>
<!-- Node78&#45;&gt;Node74 -->
<g id="edge18" class="edge"><title>Node78&#45;&gt;Node74</title>
<path fill="none" stroke="midnightblue" d="M241.903,-133.589C257.605,-137.058 275.842,-141.087 293.56,-145.002"/>
<polygon fill="midnightblue" stroke="midnightblue" points="292.811,-148.42 303.331,-147.16 294.321,-141.585 292.811,-148.42"/>
</g>
<!-- Node78&#45;&gt;Node76 -->
<g id="edge19" class="edge"><title>Node78&#45;&gt;Node76</title>
<path fill="none" stroke="midnightblue" d="M255.296,-122.019C268.603,-121.555 282.968,-121.053 296.891,-120.568"/>
<polygon fill="midnightblue" stroke="midnightblue" points="297.058,-124.064 306.93,-120.218 296.814,-117.068 297.058,-124.064"/>
</g>
<!-- Node80 -->
<g id="node14" class="node"><title>Node80</title>
<g id="a_node14"><a xlink:href="class_c_stream_decoder.html#a57a7f304974a6b5be31e374685b70e33" target="_top" xlink:title="CStreamDecoder::getNumbers">
<polygon fill="none" stroke="black" points="297,-32.5 297,-51.5 446,-51.5 446,-32.5 297,-32.5"/>
<text text-anchor="middle" x="371.5" y="-39.5" font-family="Helvetica,sans-Serif" font-size="10.00">CStreamDecoder::getNumbers</text>
</a>
</g>
</g>
<!-- Node79&#45;&gt;Node80 -->
<g id="edge21" class="edge"><title>Node79&#45;&gt;Node80</title>
<path fill="none" stroke="midnightblue" d="M253.395,-46.0851C264.008,-45.7148 275.352,-45.3191 286.646,-44.9251"/>
<polygon fill="midnightblue" stroke="midnightblue" points="287.111,-48.4112 296.983,-44.5646 286.867,-41.4154 287.111,-48.4112"/>
</g>
</g>
</svg>
