<?xml version="1.0" encoding="UTF-8" standalone="no"?>
<!DOCTYPE svg PUBLIC "-//W3C//DTD SVG 1.1//EN"
 "http://www.w3.org/Graphics/SVG/1.1/DTD/svg11.dtd">
<!-- Generated by graphviz version 2.38.0 (20140413.2041)
 -->
<!-- Title: CInventoryBrowser::printInventory Pages: 1 -->
<svg width="441pt" height="218pt"
 viewBox="0.00 0.00 441.00 218.00" xmlns="http://www.w3.org/2000/svg" xmlns:xlink="http://www.w3.org/1999/xlink">
<g id="graph0" class="graph" transform="scale(1 1) rotate(0) translate(4 214)">
<title>CInventoryBrowser::printInventory</title>
<!-- Node36 -->
<g id="node1" class="node"><title>Node36</title>
<polygon fill="#bfbfbf" stroke="black" points="0,-90 0,-120 103,-120 103,-90 0,-90"/>
<text text-anchor="start" x="8" y="-108" font-family="Helvetica,sans-Serif" font-size="10.00">CInventoryBrowser::</text>
<text text-anchor="middle" x="51.5" y="-97" font-family="Helvetica,sans-Serif" font-size="10.00">printInventory</text>
</g>
<!-- Node37 -->
<g id="node2" class="node"><title>Node37</title>
<g id="a_node2"><a xlink:href="class_c_inventory.html#a3fe6ee0c2de70f3e2d9278e43f125fe9" target="_top" xlink:title="CInventory::isEmpty">
<polygon fill="none" stroke="black" points="156.5,-190.5 156.5,-209.5 260.5,-209.5 260.5,-190.5 156.5,-190.5"/>
<text text-anchor="middle" x="208.5" y="-197.5" font-family="Helvetica,sans-Serif" font-size="10.00">CInventory::isEmpty</text>
</a>
</g>
</g>
<!-- Node36&#45;&gt;Node37 -->
<g id="edge1" class="edge"><title>Node36&#45;&gt;Node37</title>
<path fill="none" stroke="midnightblue" d="M65.6644,-120.104C81.438,-137.287 109.459,-165.025 139,-181 143.19,-183.266 147.673,-185.28 152.266,-187.067"/>
<polygon fill="midnightblue" stroke="midnightblue" points="151.195,-190.401 161.789,-190.425 153.522,-183.799 151.195,-190.401"/>
</g>
<!-- Node38 -->
<g id="node3" class="node"><title>Node38</title>
<g id="a_node3"><a xlink:href="class_c_display.html#a53b65673a9b0bfc807a3a1e448962928" target="_top" xlink:title="CDisplay::printWithDelimiter">
<polygon fill="none" stroke="black" points="139,-152.5 139,-171.5 278,-171.5 278,-152.5 139,-152.5"/>
<text text-anchor="middle" x="208.5" y="-159.5" font-family="Helvetica,sans-Serif" font-size="10.00">CDisplay::printWithDelimiter</text>
</a>
</g>
</g>
<!-- Node36&#45;&gt;Node38 -->
<g id="edge2" class="edge"><title>Node36&#45;&gt;Node38</title>
<path fill="none" stroke="midnightblue" d="M83.6967,-120C99.9571,-127.486 120.304,-136.339 139,-143 145.483,-145.31 152.392,-147.515 159.234,-149.551"/>
<polygon fill="midnightblue" stroke="midnightblue" points="158.574,-153.003 169.152,-152.406 160.511,-146.277 158.574,-153.003"/>
</g>
<!-- Node40 -->
<g id="node5" class="node"><title>Node40</title>
<g id="a_node5"><a xlink:href="class_c_display.html#a54c5d36f4bc11d4a935ff5c86ea4e653" target="_top" xlink:title="CDisplay::print">
<polygon fill="none" stroke="black" points="168.5,-114.5 168.5,-133.5 248.5,-133.5 248.5,-114.5 168.5,-114.5"/>
<text text-anchor="middle" x="208.5" y="-121.5" font-family="Helvetica,sans-Serif" font-size="10.00">CDisplay::print</text>
</a>
</g>
</g>
<!-- Node36&#45;&gt;Node40 -->
<g id="edge4" class="edge"><title>Node36&#45;&gt;Node40</title>
<path fill="none" stroke="midnightblue" d="M103.253,-111.221C120.966,-113.393 140.804,-115.824 158.382,-117.979"/>
<polygon fill="midnightblue" stroke="midnightblue" points="158.085,-121.469 168.437,-119.212 158.937,-114.521 158.085,-121.469"/>
</g>
<!-- Node41 -->
<g id="node6" class="node"><title>Node41</title>
<g id="a_node6"><a xlink:href="class_c_inventory.html#a473699b2949d4c6c19853f5047fa7737" target="_top" xlink:title="CInventory::getItemsID">
<polygon fill="none" stroke="black" points="151.5,-76.5 151.5,-95.5 265.5,-95.5 265.5,-76.5 151.5,-76.5"/>
<text text-anchor="middle" x="208.5" y="-83.5" font-family="Helvetica,sans-Serif" font-size="10.00">CInventory::getItemsID</text>
</a>
</g>
</g>
<!-- Node36&#45;&gt;Node41 -->
<g id="edge5" class="edge"><title>Node36&#45;&gt;Node41</title>
<path fill="none" stroke="midnightblue" d="M103.253,-98.7787C115.375,-97.2928 128.492,-95.6849 141.199,-94.1273"/>
<polygon fill="midnightblue" stroke="midnightblue" points="141.774,-97.583 151.274,-92.8922 140.923,-90.635 141.774,-97.583"/>
</g>
<!-- Node42 -->
<g id="node7" class="node"><title>Node42</title>
<g id="a_node7"><a xlink:href="class_c_world.html#aae01822f61bfe35284a1ca9c02bdb1a5" target="_top" xlink:title="CWorld::getItem">
<polygon fill="none" stroke="black" points="165,-38.5 165,-57.5 252,-57.5 252,-38.5 165,-38.5"/>
<text text-anchor="middle" x="208.5" y="-45.5" font-family="Helvetica,sans-Serif" font-size="10.00">CWorld::getItem</text>
</a>
</g>
</g>
<!-- Node36&#45;&gt;Node42 -->
<g id="edge6" class="edge"><title>Node36&#45;&gt;Node42</title>
<path fill="none" stroke="midnightblue" d="M83.6967,-89.9999C99.9571,-82.5144 120.304,-73.6608 139,-67 145.483,-64.6903 152.392,-62.4853 159.234,-60.4489"/>
<polygon fill="midnightblue" stroke="midnightblue" points="160.511,-63.7235 169.152,-57.5936 158.574,-56.9967 160.511,-63.7235"/>
</g>
<!-- Node43 -->
<g id="node8" class="node"><title>Node43</title>
<g id="a_node8"><a xlink:href="class_c_item.html#af35b9c64f05a8377298505b3a81bcd18" target="_top" xlink:title="CItem::print">
<polygon fill="none" stroke="black" points="175,-0.5 175,-19.5 242,-19.5 242,-0.5 175,-0.5"/>
<text text-anchor="middle" x="208.5" y="-7.5" font-family="Helvetica,sans-Serif" font-size="10.00">CItem::print</text>
</a>
</g>
</g>
<!-- Node36&#45;&gt;Node43 -->
<g id="edge7" class="edge"><title>Node36&#45;&gt;Node43</title>
<path fill="none" stroke="midnightblue" d="M65.6644,-89.8956C81.438,-72.7131 109.459,-44.9747 139,-29 147.045,-24.6495 156.173,-21.2256 165.082,-18.5563"/>
<polygon fill="midnightblue" stroke="midnightblue" points="166.254,-21.8646 174.979,-15.8542 164.41,-15.1118 166.254,-21.8646"/>
</g>
<!-- Node39 -->
<g id="node4" class="node"><title>Node39</title>
<g id="a_node4"><a xlink:href="class_c_display.html#af350b35b44fc756e0c721ec4ee56c67a" target="_top" xlink:title="CDisplay::printDelimiter">
<polygon fill="none" stroke="black" points="314,-152.5 314,-171.5 433,-171.5 433,-152.5 314,-152.5"/>
<text text-anchor="middle" x="373.5" y="-159.5" font-family="Helvetica,sans-Serif" font-size="10.00">CDisplay::printDelimiter</text>
</a>
</g>
</g>
<!-- Node38&#45;&gt;Node39 -->
<g id="edge3" class="edge"><title>Node38&#45;&gt;Node39</title>
<path fill="none" stroke="midnightblue" d="M278.154,-162C286.628,-162 295.293,-162 303.768,-162"/>
<polygon fill="midnightblue" stroke="midnightblue" points="303.987,-165.5 313.987,-162 303.987,-158.5 303.987,-165.5"/>
</g>
</g>
</svg>
