<?xml version="1.0" encoding="UTF-8" standalone="no"?>
<!DOCTYPE svg PUBLIC "-//W3C//DTD SVG 1.1//EN"
 "http://www.w3.org/Graphics/SVG/1.1/DTD/svg11.dtd">
<!-- Generated by graphviz version 2.38.0 (20140413.2041)
 -->
<!-- Title: CGame::exit Pages: 1 -->
<svg width="650pt" height="151pt"
 viewBox="0.00 0.00 650.00 151.00" xmlns="http://www.w3.org/2000/svg" xmlns:xlink="http://www.w3.org/1999/xlink">
<g id="graph0" class="graph" transform="scale(1 1) rotate(0) translate(4 147)">
<title>CGame::exit</title>
<!-- Node90 -->
<g id="node1" class="node"><title>Node90</title>
<polygon fill="#bfbfbf" stroke="black" points="0,-19.5 0,-38.5 71,-38.5 71,-19.5 0,-19.5"/>
<text text-anchor="middle" x="35.5" y="-26.5" font-family="Helvetica,sans-Serif" font-size="10.00">CGame::exit</text>
</g>
<!-- Node91 -->
<g id="node2" class="node"><title>Node91</title>
<g id="a_node2"><a xlink:href="class_c_game.html#a39e1e296c6dcabbf5c824eea6424d6d9" target="_top" xlink:title="CGame::mainMenu">
<polygon fill="none" stroke="black" points="107,-38.5 107,-57.5 208,-57.5 208,-38.5 107,-38.5"/>
<text text-anchor="middle" x="157.5" y="-45.5" font-family="Helvetica,sans-Serif" font-size="10.00">CGame::mainMenu</text>
</a>
</g>
</g>
<!-- Node90&#45;&gt;Node91 -->
<g id="edge1" class="edge"><title>Node90&#45;&gt;Node91</title>
<path fill="none" stroke="midnightblue" d="M81.1186,-36.0646C89.4543,-37.3844 98.2146,-38.7715 106.695,-40.1142"/>
<polygon fill="midnightblue" stroke="midnightblue" points="81.6333,-32.6026 71.209,-34.4956 80.5386,-39.5165 81.6333,-32.6026"/>
</g>
<!-- Node96 -->
<g id="node7" class="node"><title>Node96</title>
<g id="a_node7"><a xlink:href="class_c_game.html#af5435e79a93dd92991ae24b499976470" target="_top" xlink:title="CGame::CGame">
<polygon fill="none" stroke="black" points="113,-0.5 113,-19.5 202,-19.5 202,-0.5 113,-0.5"/>
<text text-anchor="middle" x="157.5" y="-7.5" font-family="Helvetica,sans-Serif" font-size="10.00">CGame::CGame</text>
</a>
</g>
</g>
<!-- Node90&#45;&gt;Node96 -->
<g id="edge8" class="edge"><title>Node90&#45;&gt;Node96</title>
<path fill="none" stroke="midnightblue" d="M81.2835,-21.9093C91.623,-20.2722 102.608,-18.5329 112.896,-16.9039"/>
<polygon fill="midnightblue" stroke="midnightblue" points="80.5386,-18.4835 71.209,-23.5044 81.6333,-25.3974 80.5386,-18.4835"/>
</g>
<!-- Node92 -->
<g id="node3" class="node"><title>Node92</title>
<g id="a_node3"><a xlink:href="class_c_game.html#aa9d3da2fefa1c04faefc6586dbd37971" target="_top" xlink:title="CGame::play">
<polygon fill="none" stroke="black" points="244,-66.5 244,-85.5 318,-85.5 318,-66.5 244,-66.5"/>
<text text-anchor="middle" x="281" y="-73.5" font-family="Helvetica,sans-Serif" font-size="10.00">CGame::play</text>
</a>
</g>
</g>
<!-- Node91&#45;&gt;Node92 -->
<g id="edge2" class="edge"><title>Node91&#45;&gt;Node92</title>
<path fill="none" stroke="midnightblue" d="M209.895,-59.8441C221.366,-62.4877 233.294,-65.2364 243.988,-67.7009"/>
<polygon fill="midnightblue" stroke="midnightblue" points="210.504,-56.3928 199.974,-57.5577 208.932,-63.214 210.504,-56.3928"/>
</g>
<!-- Node94 -->
<g id="node5" class="node"><title>Node94</title>
<g id="a_node5"><a xlink:href="class_c_game.html#a714b291af5e20aae8be14a905fd0522d" target="_top" xlink:title="CGame::tickComponent">
<polygon fill="none" stroke="black" points="521,-47.5 521,-66.5 642,-66.5 642,-47.5 521,-47.5"/>
<text text-anchor="middle" x="581.5" y="-54.5" font-family="Helvetica,sans-Serif" font-size="10.00">CGame::tickComponent</text>
</a>
</g>
</g>
<!-- Node91&#45;&gt;Node94 -->
<g id="edge7" class="edge"><title>Node91&#45;&gt;Node94</title>
<path fill="none" stroke="midnightblue" d="M218.597,-49.2817C298.999,-50.9964 440.715,-54.0188 520.875,-55.7284"/>
<polygon fill="midnightblue" stroke="midnightblue" points="218.222,-45.773 208.15,-49.0589 218.073,-52.7714 218.222,-45.773"/>
</g>
<!-- Node93 -->
<g id="node4" class="node"><title>Node93</title>
<g id="a_node4"><a xlink:href="class_c_game.html#ac0a8028013ca5a7c135c29fa582df4a0" target="_top" xlink:title="CGame::checkHeroStatus">
<polygon fill="none" stroke="black" points="354,-123.5 354,-142.5 485,-142.5 485,-123.5 354,-123.5"/>
<text text-anchor="middle" x="419.5" y="-130.5" font-family="Helvetica,sans-Serif" font-size="10.00">CGame::checkHeroStatus</text>
</a>
</g>
</g>
<!-- Node92&#45;&gt;Node93 -->
<g id="edge3" class="edge"><title>Node92&#45;&gt;Node93</title>
<path fill="none" stroke="midnightblue" d="M306.634,-90.569C320.276,-98.2331 337.723,-107.384 354,-114 362.76,-117.56 372.434,-120.77 381.566,-123.494"/>
<polygon fill="midnightblue" stroke="midnightblue" points="308.276,-87.4765 297.858,-85.55 304.801,-93.5529 308.276,-87.4765"/>
</g>
<!-- Node95 -->
<g id="node6" class="node"><title>Node95</title>
<g id="a_node6"><a xlink:href="main_8cpp.html#ae66f6b31b5ad750f1fe042a706a4e3d4" target="_top" xlink:title="main">
<polygon fill="none" stroke="black" points="400.5,-85.5 400.5,-104.5 438.5,-104.5 438.5,-85.5 400.5,-85.5"/>
<text text-anchor="middle" x="419.5" y="-92.5" font-family="Helvetica,sans-Serif" font-size="10.00">main</text>
</a>
</g>
</g>
<!-- Node92&#45;&gt;Node95 -->
<g id="edge6" class="edge"><title>Node92&#45;&gt;Node95</title>
<path fill="none" stroke="midnightblue" d="M328.129,-82.4208C352.788,-85.8533 381.768,-89.8871 400.132,-92.4433"/>
<polygon fill="midnightblue" stroke="midnightblue" points="328.608,-78.9539 318.221,-81.0418 327.643,-85.8871 328.608,-78.9539"/>
</g>
<!-- Node93&#45;&gt;Node94 -->
<g id="edge4" class="edge"><title>Node93&#45;&gt;Node94</title>
<path fill="none" stroke="midnightblue" d="M468.837,-120.215C474.361,-118.327 479.853,-116.251 485,-114 515.782,-100.537 548.838,-79.043 566.857,-66.6543"/>
<polygon fill="midnightblue" stroke="midnightblue" points="467.372,-117.01 458.925,-123.406 469.517,-123.673 467.372,-117.01"/>
</g>
<!-- Node94&#45;&gt;Node92 -->
<g id="edge5" class="edge"><title>Node94&#45;&gt;Node92</title>
<path fill="none" stroke="midnightblue" d="M510.704,-61.4426C450.365,-65.2833 365.572,-70.6805 318.006,-73.7082"/>
<polygon fill="midnightblue" stroke="midnightblue" points="511.161,-64.9207 520.918,-60.7925 510.716,-57.9349 511.161,-64.9207"/>
</g>
</g>
</svg>
