<?xml version="1.0" encoding="UTF-8" standalone="no"?>
<!DOCTYPE svg PUBLIC "-//W3C//DTD SVG 1.1//EN"
 "http://www.w3.org/Graphics/SVG/1.1/DTD/svg11.dtd">
<!-- Generated by graphviz version 2.38.0 (20140413.2041)
 -->
<!-- Title: CInteract::operator() Pages: 1 -->
<svg width="461pt" height="294pt"
 viewBox="0.00 0.00 461.00 294.00" xmlns="http://www.w3.org/2000/svg" xmlns:xlink="http://www.w3.org/1999/xlink">
<g id="graph0" class="graph" transform="scale(1 1) rotate(0) translate(4 290)">
<title>CInteract::operator()</title>
<!-- Node0 -->
<g id="node1" class="node"><title>Node0</title>
<polygon fill="#bfbfbf" stroke="black" points="0,-133.5 0,-152.5 103,-152.5 103,-133.5 0,-133.5"/>
<text text-anchor="middle" x="51.5" y="-140.5" font-family="Helvetica,sans-Serif" font-size="10.00">CInteract::operator()</text>
</g>
<!-- Node1 -->
<g id="node2" class="node"><title>Node1</title>
<g id="a_node2"><a xlink:href="class_c_storyline.html#a9531c0509722bbb1647837d4549a9520" target="_top" xlink:title="CStoryline::getEventCount">
<polygon fill="none" stroke="black" points="146,-266.5 146,-285.5 277,-285.5 277,-266.5 146,-266.5"/>
<text text-anchor="middle" x="211.5" y="-273.5" font-family="Helvetica,sans-Serif" font-size="10.00">CStoryline::getEventCount</text>
</a>
</g>
</g>
<!-- Node0&#45;&gt;Node1 -->
<g id="edge1" class="edge"><title>Node0&#45;&gt;Node1</title>
<path fill="none" stroke="midnightblue" d="M57.0192,-152.674C67.8542,-174.772 97.5255,-229.187 139,-257 142.06,-259.052 145.332,-260.883 148.731,-262.516"/>
<polygon fill="midnightblue" stroke="midnightblue" points="147.387,-265.748 157.962,-266.395 150.098,-259.294 147.387,-265.748"/>
</g>
<!-- Node2 -->
<g id="node3" class="node"><title>Node2</title>
<g id="a_node3"><a xlink:href="class_c_world.html#a88b90cecbca7d5bcb6575b6a9d94e026" target="_top" xlink:title="CWorld::getEvent">
<polygon fill="none" stroke="black" points="165.5,-228.5 165.5,-247.5 257.5,-247.5 257.5,-228.5 165.5,-228.5"/>
<text text-anchor="middle" x="211.5" y="-235.5" font-family="Helvetica,sans-Serif" font-size="10.00">CWorld::getEvent</text>
</a>
</g>
</g>
<!-- Node0&#45;&gt;Node2 -->
<g id="edge2" class="edge"><title>Node0&#45;&gt;Node2</title>
<path fill="none" stroke="midnightblue" d="M60.7772,-152.751C75.0677,-168.959 106.022,-201.397 139,-219 144.226,-221.79 149.891,-224.191 155.665,-226.253"/>
<polygon fill="midnightblue" stroke="midnightblue" points="154.838,-229.664 165.43,-229.412 156.993,-223.004 154.838,-229.664"/>
</g>
<!-- Node3 -->
<g id="node4" class="node"><title>Node3</title>
<g id="a_node4"><a xlink:href="class_c_storyline.html#a5de98e457a382194c6bcdcd57dda33c4" target="_top" xlink:title="CStoryline::getCurrentEvent">
<polygon fill="none" stroke="black" points="143,-190.5 143,-209.5 280,-209.5 280,-190.5 143,-190.5"/>
<text text-anchor="middle" x="211.5" y="-197.5" font-family="Helvetica,sans-Serif" font-size="10.00">CStoryline::getCurrentEvent</text>
</a>
</g>
</g>
<!-- Node0&#45;&gt;Node3 -->
<g id="edge3" class="edge"><title>Node0&#45;&gt;Node3</title>
<path fill="none" stroke="midnightblue" d="M72.0779,-152.639C89.3865,-160.909 115.469,-172.76 139,-181 145.834,-183.393 153.125,-185.654 160.341,-187.724"/>
<polygon fill="midnightblue" stroke="midnightblue" points="159.513,-191.126 170.085,-190.424 161.382,-184.38 159.513,-191.126"/>
</g>
<!-- Node4 -->
<g id="node5" class="node"><title>Node4</title>
<g id="a_node5"><a xlink:href="class_c_event.html#a46bd2925f7f19c5c0d6adf2b1e6e3f70" target="_top" xlink:title="CEvent::execute">
<polygon fill="none" stroke="black" points="167.5,-152.5 167.5,-171.5 255.5,-171.5 255.5,-152.5 167.5,-152.5"/>
<text text-anchor="middle" x="211.5" y="-159.5" font-family="Helvetica,sans-Serif" font-size="10.00">CEvent::execute</text>
</a>
</g>
</g>
<!-- Node0&#45;&gt;Node4 -->
<g id="edge4" class="edge"><title>Node0&#45;&gt;Node4</title>
<path fill="none" stroke="midnightblue" d="M103.362,-149.116C120.631,-151.193 139.964,-153.518 157.403,-155.615"/>
<polygon fill="midnightblue" stroke="midnightblue" points="157.076,-159.101 167.422,-156.82 157.911,-152.151 157.076,-159.101"/>
</g>
<!-- Node5 -->
<g id="node6" class="node"><title>Node5</title>
<g id="a_node6"><a xlink:href="class_c_world.html#a325d979d0d2b15db1e3badec7201c960" target="_top" xlink:title="CWorld::getAllEvents">
<polygon fill="none" stroke="black" points="157,-114.5 157,-133.5 266,-133.5 266,-114.5 157,-114.5"/>
<text text-anchor="middle" x="211.5" y="-121.5" font-family="Helvetica,sans-Serif" font-size="10.00">CWorld::getAllEvents</text>
</a>
</g>
</g>
<!-- Node0&#45;&gt;Node5 -->
<g id="edge5" class="edge"><title>Node0&#45;&gt;Node5</title>
<path fill="none" stroke="midnightblue" d="M103.362,-136.884C117.082,-135.234 132.104,-133.427 146.445,-131.703"/>
<polygon fill="midnightblue" stroke="midnightblue" points="147.227,-135.134 156.738,-130.465 146.392,-128.184 147.227,-135.134"/>
</g>
<!-- Node6 -->
<g id="node7" class="node"><title>Node6</title>
<g id="a_node7"><a xlink:href="class_c_world.html#aaf3f4f470883d06d0b37498ba3816430" target="_top" xlink:title="CWorld::getAllCreatures">
<polygon fill="none" stroke="black" points="150.5,-76.5 150.5,-95.5 272.5,-95.5 272.5,-76.5 150.5,-76.5"/>
<text text-anchor="middle" x="211.5" y="-83.5" font-family="Helvetica,sans-Serif" font-size="10.00">CWorld::getAllCreatures</text>
</a>
</g>
</g>
<!-- Node0&#45;&gt;Node6 -->
<g id="edge6" class="edge"><title>Node0&#45;&gt;Node6</title>
<path fill="none" stroke="midnightblue" d="M72.0779,-133.361C89.3865,-125.091 115.469,-113.24 139,-105 145.834,-102.607 153.125,-100.346 160.341,-98.2762"/>
<polygon fill="midnightblue" stroke="midnightblue" points="161.382,-101.62 170.085,-95.5765 159.513,-94.8739 161.382,-101.62"/>
</g>
<!-- Node7 -->
<g id="node8" class="node"><title>Node7</title>
<g id="a_node8"><a xlink:href="class_c_storyline.html#aea8684dfbe5f41a4443616eb8f7b7560" target="_top" xlink:title="CStoryline::moveToNextEvent">
<polygon fill="none" stroke="black" points="139,-38.5 139,-57.5 284,-57.5 284,-38.5 139,-38.5"/>
<text text-anchor="middle" x="211.5" y="-45.5" font-family="Helvetica,sans-Serif" font-size="10.00">CStoryline::moveToNextEvent</text>
</a>
</g>
</g>
<!-- Node0&#45;&gt;Node7 -->
<g id="edge7" class="edge"><title>Node0&#45;&gt;Node7</title>
<path fill="none" stroke="midnightblue" d="M60.7772,-133.249C75.0677,-117.041 106.022,-84.6029 139,-67 143.238,-64.7376 147.765,-62.7307 152.405,-60.953"/>
<polygon fill="midnightblue" stroke="midnightblue" points="153.728,-64.1985 162.031,-57.6172 151.436,-57.5843 153.728,-64.1985"/>
</g>
<!-- Node8 -->
<g id="node9" class="node"><title>Node8</title>
<g id="a_node9"><a xlink:href="class_c_display.html#a3af2fc29db30feeabc68ffea6fb8c13a" target="_top" xlink:title="CDisplay::wait">
<polygon fill="none" stroke="black" points="172,-0.5 172,-19.5 251,-19.5 251,-0.5 172,-0.5"/>
<text text-anchor="middle" x="211.5" y="-7.5" font-family="Helvetica,sans-Serif" font-size="10.00">CDisplay::wait</text>
</a>
</g>
</g>
<!-- Node0&#45;&gt;Node8 -->
<g id="edge8" class="edge"><title>Node0&#45;&gt;Node8</title>
<path fill="none" stroke="midnightblue" d="M57.0192,-133.326C67.8542,-111.228 97.5255,-56.8126 139,-29 145.901,-24.372 153.881,-20.8697 161.953,-18.2197"/>
<polygon fill="midnightblue" stroke="midnightblue" points="163.137,-21.5211 171.779,-15.3916 161.201,-14.7941 163.137,-21.5211"/>
</g>
<!-- Node9 -->
<g id="node10" class="node"><title>Node9</title>
<g id="a_node10"><a xlink:href="class_c_display.html#aba2a285f19e987f9ba82447f43be2b10" target="_top" xlink:title="CDisplay::dumpToNewLine">
<polygon fill="none" stroke="black" points="320,-0.5 320,-19.5 453,-19.5 453,-0.5 320,-0.5"/>
<text text-anchor="middle" x="386.5" y="-7.5" font-family="Helvetica,sans-Serif" font-size="10.00">CDisplay::dumpToNewLine</text>
</a>
</g>
</g>
<!-- Node8&#45;&gt;Node9 -->
<g id="edge9" class="edge"><title>Node8&#45;&gt;Node9</title>
<path fill="none" stroke="midnightblue" d="M251.325,-10C268.625,-10 289.625,-10 309.826,-10"/>
<polygon fill="midnightblue" stroke="midnightblue" points="309.974,-13.5001 319.974,-10 309.974,-6.5001 309.974,-13.5001"/>
</g>
</g>
</svg>
