<?xml version="1.0" encoding="UTF-8" standalone="no"?>
<!DOCTYPE svg PUBLIC "-//W3C//DTD SVG 1.1//EN"
 "http://www.w3.org/Graphics/SVG/1.1/DTD/svg11.dtd">
<!-- Generated by graphviz version 2.38.0 (20140413.2041)
 -->
<!-- Title: CShopping Pages: 1 -->
<svg width="108pt" height="248pt"
 viewBox="0.00 0.00 107.50 248.00" xmlns="http://www.w3.org/2000/svg" xmlns:xlink="http://www.w3.org/1999/xlink">
<g id="graph0" class="graph" transform="scale(1 1) rotate(0) translate(4 244)">
<title>CShopping</title>
<!-- Node1 -->
<g id="node1" class="node"><title>Node1</title>
<polygon fill="#bfbfbf" stroke="black" points="0,-0.5 0,-134.5 79,-134.5 79,-0.5 0,-0.5"/>
<text text-anchor="middle" x="39.5" y="-122.5" font-family="Helvetica,sans-Serif" font-size="10.00">CShopping</text>
<polyline fill="none" stroke="black" points="0,-115.5 79,-115.5 "/>
<text text-anchor="middle" x="39.5" y="-103.5" font-family="Helvetica,sans-Serif" font-size="10.00"> </text>
<polyline fill="none" stroke="black" points="0,-96.5 79,-96.5 "/>
<text text-anchor="start" x="8" y="-84.5" font-family="Helvetica,sans-Serif" font-size="10.00">+ CShopping()</text>
<text text-anchor="start" x="8" y="-73.5" font-family="Helvetica,sans-Serif" font-size="10.00">+ operator()()</text>
<text text-anchor="start" x="8" y="-62.5" font-family="Helvetica,sans-Serif" font-size="10.00">+ update()</text>
<text text-anchor="start" x="8" y="-51.5" font-family="Helvetica,sans-Serif" font-size="10.00"># eraseItem()</text>
<text text-anchor="start" x="8" y="-40.5" font-family="Helvetica,sans-Serif" font-size="10.00"># buyItem()</text>
<text text-anchor="start" x="8" y="-29.5" font-family="Helvetica,sans-Serif" font-size="10.00"># printHelp()</text>
<text text-anchor="start" x="8" y="-18.5" font-family="Helvetica,sans-Serif" font-size="10.00"># printItems()</text>
<text text-anchor="start" x="8" y="-7.5" font-family="Helvetica,sans-Serif" font-size="10.00"># isInShop()</text>
</g>
<!-- Node2 -->
<g id="node2" class="node"><title>Node2</title>
<polygon fill="none" stroke="#bfbfbf" points="10,-182.5 10,-239.5 69,-239.5 69,-182.5 10,-182.5"/>
<text text-anchor="middle" x="39.5" y="-227.5" font-family="Helvetica,sans-Serif" font-size="10.00">set&lt; int &gt;</text>
<polyline fill="none" stroke="#bfbfbf" points="10,-220.5 69,-220.5 "/>
<text text-anchor="middle" x="39.5" y="-208.5" font-family="Helvetica,sans-Serif" font-size="10.00"> </text>
<polyline fill="none" stroke="#bfbfbf" points="10,-201.5 69,-201.5 "/>
<text text-anchor="middle" x="39.5" y="-189.5" font-family="Helvetica,sans-Serif" font-size="10.00"> </text>
</g>
<!-- Node2&#45;&gt;Node1 -->
<g id="edge1" class="edge"><title>Node2&#45;&gt;Node1</title>
<path fill="none" stroke="#404040" d="M39.5,-182.381C39.5,-172.02 39.5,-159.663 39.5,-146.97"/>
<polygon fill="none" stroke="#404040" points="39.5001,-146.753 35.5,-140.753 39.5,-134.753 43.5,-140.753 39.5001,-146.753"/>
<text text-anchor="middle" x="69.5" y="-156" font-family="Helvetica,sans-Serif" font-size="10.00"> #itemsToSell</text>
</g>
</g>
</svg>
