<?xml version="1.0" encoding="UTF-8" standalone="no"?>
<!DOCTYPE svg PUBLIC "-//W3C//DTD SVG 1.1//EN"
 "http://www.w3.org/Graphics/SVG/1.1/DTD/svg11.dtd">
<!-- Generated by graphviz version 2.38.0 (20140413.2041)
 -->
<!-- Title: CWorld::getAllItemID Pages: 1 -->
<svg width="662pt" height="142pt"
 viewBox="0.00 0.00 662.00 142.00" xmlns="http://www.w3.org/2000/svg" xmlns:xlink="http://www.w3.org/1999/xlink">
<g id="graph0" class="graph" transform="scale(1 1) rotate(0) translate(4 138)">
<title>CWorld::getAllItemID</title>
<!-- Node9 -->
<g id="node1" class="node"><title>Node9</title>
<polygon fill="#bfbfbf" stroke="black" points="0,-38.5 0,-57.5 107,-57.5 107,-38.5 0,-38.5"/>
<text text-anchor="middle" x="53.5" y="-45.5" font-family="Helvetica,sans-Serif" font-size="10.00">CWorld::getAllItemID</text>
</g>
<!-- Node10 -->
<g id="node2" class="node"><title>Node10</title>
<g id="a_node2"><a xlink:href="class_c_game.html#acdb5a10d8b17584b07b3c736ede7bf57" target="_top" xlink:title="CGame::reset">
<polygon fill="none" stroke="black" points="143,-38.5 143,-57.5 220,-57.5 220,-38.5 143,-38.5"/>
<text text-anchor="middle" x="181.5" y="-45.5" font-family="Helvetica,sans-Serif" font-size="10.00">CGame::reset</text>
</a>
</g>
</g>
<!-- Node9&#45;&gt;Node10 -->
<g id="edge1" class="edge"><title>Node9&#45;&gt;Node10</title>
<path fill="none" stroke="midnightblue" d="M117.415,-48C126.147,-48 134.881,-48 142.946,-48"/>
<polygon fill="midnightblue" stroke="midnightblue" points="117.205,-44.5001 107.205,-48 117.205,-51.5001 117.205,-44.5001"/>
</g>
<!-- Node11 -->
<g id="node3" class="node"><title>Node11</title>
<g id="a_node3"><a xlink:href="class_c_game.html#a714b291af5e20aae8be14a905fd0522d" target="_top" xlink:title="CGame::tickComponent">
<polygon fill="none" stroke="black" points="256,-76.5 256,-95.5 377,-95.5 377,-76.5 256,-76.5"/>
<text text-anchor="middle" x="316.5" y="-83.5" font-family="Helvetica,sans-Serif" font-size="10.00">CGame::tickComponent</text>
</a>
</g>
</g>
<!-- Node10&#45;&gt;Node11 -->
<g id="edge2" class="edge"><title>Node10&#45;&gt;Node11</title>
<path fill="none" stroke="midnightblue" d="M225.867,-60.3906C244.081,-65.5945 264.939,-71.5541 281.949,-76.4141"/>
<polygon fill="midnightblue" stroke="midnightblue" points="226.638,-56.971 216.062,-57.589 224.715,-63.7016 226.638,-56.971"/>
</g>
<!-- Node13 -->
<g id="node5" class="node"><title>Node13</title>
<g id="a_node5"><a xlink:href="class_c_game.html#ac0a8028013ca5a7c135c29fa582df4a0" target="_top" xlink:title="CGame::checkHeroStatus">
<polygon fill="none" stroke="black" points="523,-76.5 523,-95.5 654,-95.5 654,-76.5 523,-76.5"/>
<text text-anchor="middle" x="588.5" y="-83.5" font-family="Helvetica,sans-Serif" font-size="10.00">CGame::checkHeroStatus</text>
</a>
</g>
</g>
<!-- Node10&#45;&gt;Node13 -->
<g id="edge7" class="edge"><title>Node10&#45;&gt;Node13</title>
<path fill="none" stroke="midnightblue" d="M230.477,-52.5015C303.195,-59.3244 441.455,-72.297 522.934,-79.942"/>
<polygon fill="midnightblue" stroke="midnightblue" points="230.521,-48.9904 220.238,-51.5408 229.867,-55.9598 230.521,-48.9904"/>
</g>
<!-- Node15 -->
<g id="node7" class="node"><title>Node15</title>
<g id="a_node7"><a xlink:href="class_c_game.html#af5435e79a93dd92991ae24b499976470" target="_top" xlink:title="CGame::CGame">
<polygon fill="none" stroke="black" points="272,-0.5 272,-19.5 361,-19.5 361,-0.5 272,-0.5"/>
<text text-anchor="middle" x="316.5" y="-7.5" font-family="Helvetica,sans-Serif" font-size="10.00">CGame::CGame</text>
</a>
</g>
</g>
<!-- Node10&#45;&gt;Node15 -->
<g id="edge8" class="edge"><title>Node10&#45;&gt;Node15</title>
<path fill="none" stroke="midnightblue" d="M225.867,-35.6094C244.081,-30.4055 264.939,-24.4459 281.949,-19.5859"/>
<polygon fill="midnightblue" stroke="midnightblue" points="224.715,-32.2984 216.062,-38.411 226.638,-39.029 224.715,-32.2984"/>
</g>
<!-- Node12 -->
<g id="node4" class="node"><title>Node12</title>
<g id="a_node4"><a xlink:href="class_c_game.html#aa9d3da2fefa1c04faefc6586dbd37971" target="_top" xlink:title="CGame::play">
<polygon fill="none" stroke="black" points="413,-114.5 413,-133.5 487,-133.5 487,-114.5 413,-114.5"/>
<text text-anchor="middle" x="450" y="-121.5" font-family="Helvetica,sans-Serif" font-size="10.00">CGame::play</text>
</a>
</g>
</g>
<!-- Node11&#45;&gt;Node12 -->
<g id="edge3" class="edge"><title>Node11&#45;&gt;Node12</title>
<path fill="none" stroke="midnightblue" d="M360.378,-98.3906C378.386,-103.594 399.01,-109.554 415.828,-114.414"/>
<polygon fill="midnightblue" stroke="midnightblue" points="361.262,-95.0028 350.683,-95.589 359.318,-101.728 361.262,-95.0028"/>
</g>
<!-- Node12&#45;&gt;Node13 -->
<g id="edge4" class="edge"><title>Node12&#45;&gt;Node13</title>
<path fill="none" stroke="midnightblue" d="M495.249,-111.682C514.003,-106.461 535.528,-100.468 553.066,-95.5859"/>
<polygon fill="midnightblue" stroke="midnightblue" points="494.14,-108.357 485.445,-114.411 496.017,-115.101 494.14,-108.357"/>
</g>
<!-- Node14 -->
<g id="node6" class="node"><title>Node14</title>
<g id="a_node6"><a xlink:href="main_8cpp.html#ae66f6b31b5ad750f1fe042a706a4e3d4" target="_top" xlink:title="main">
<polygon fill="none" stroke="black" points="569.5,-114.5 569.5,-133.5 607.5,-133.5 607.5,-114.5 569.5,-114.5"/>
<text text-anchor="middle" x="588.5" y="-121.5" font-family="Helvetica,sans-Serif" font-size="10.00">main</text>
</a>
</g>
</g>
<!-- Node12&#45;&gt;Node14 -->
<g id="edge6" class="edge"><title>Node12&#45;&gt;Node14</title>
<path fill="none" stroke="midnightblue" d="M497.458,-124C522.045,-124 550.849,-124 569.132,-124"/>
<polygon fill="midnightblue" stroke="midnightblue" points="497.221,-120.5 487.221,-124 497.221,-127.5 497.221,-120.5"/>
</g>
<!-- Node13&#45;&gt;Node11 -->
<g id="edge5" class="edge"><title>Node13&#45;&gt;Node11</title>
<path fill="none" stroke="midnightblue" d="M512.793,-86C470.008,-86 417.055,-86 377.087,-86"/>
<polygon fill="midnightblue" stroke="midnightblue" points="512.875,-89.5001 522.875,-86 512.875,-82.5001 512.875,-89.5001"/>
</g>
</g>
</svg>
