<?xml version="1.0" encoding="UTF-8" standalone="no"?>
<!DOCTYPE svg PUBLIC "-//W3C//DTD SVG 1.1//EN"
 "http://www.w3.org/Graphics/SVG/1.1/DTD/svg11.dtd">
<!-- Generated by graphviz version 2.38.0 (20140413.2041)
 -->
<!-- Title: CDisplay::getString Pages: 1 -->
<svg width="827pt" height="268pt"
 viewBox="0.00 0.00 827.00 268.00" xmlns="http://www.w3.org/2000/svg" xmlns:xlink="http://www.w3.org/1999/xlink">
<g id="graph0" class="graph" transform="scale(1 1) rotate(0) translate(4 264)">
<title>CDisplay::getString</title>
<!-- Node28 -->
<g id="node1" class="node"><title>Node28</title>
<polygon fill="#bfbfbf" stroke="black" points="0,-88.5 0,-107.5 101,-107.5 101,-88.5 0,-88.5"/>
<text text-anchor="middle" x="50.5" y="-95.5" font-family="Helvetica,sans-Serif" font-size="10.00">CDisplay::getString</text>
</g>
<!-- Node29 -->
<g id="node2" class="node"><title>Node29</title>
<g id="a_node2"><a xlink:href="class_c_game.html#a21a30939333b2c98f607d9bd2927d105" target="_top" xlink:title="CGame::createHero">
<polygon fill="none" stroke="black" points="141,-164.5 141,-183.5 244,-183.5 244,-164.5 141,-164.5"/>
<text text-anchor="middle" x="192.5" y="-171.5" font-family="Helvetica,sans-Serif" font-size="10.00">CGame::createHero</text>
</a>
</g>
</g>
<!-- Node28&#45;&gt;Node29 -->
<g id="edge1" class="edge"><title>Node28&#45;&gt;Node29</title>
<path fill="none" stroke="midnightblue" d="M72.0963,-113.894C88.8778,-126.3 113.551,-143.332 137,-155 144.177,-158.571 152.19,-161.766 159.817,-164.471"/>
<polygon fill="midnightblue" stroke="midnightblue" points="73.74,-110.751 63.6431,-107.542 69.5345,-116.347 73.74,-110.751"/>
</g>
<!-- Node35 -->
<g id="node8" class="node"><title>Node35</title>
<g id="a_node8"><a xlink:href="class_c_game.html#accda079824fc813cbd64b4743846ae24" target="_top" xlink:title="CGame::loadGame">
<polygon fill="none" stroke="black" points="142.5,-126.5 142.5,-145.5 242.5,-145.5 242.5,-126.5 142.5,-126.5"/>
<text text-anchor="middle" x="192.5" y="-133.5" font-family="Helvetica,sans-Serif" font-size="10.00">CGame::loadGame</text>
</a>
</g>
</g>
<!-- Node28&#45;&gt;Node35 -->
<g id="edge9" class="edge"><title>Node28&#45;&gt;Node35</title>
<path fill="none" stroke="midnightblue" d="M96.6176,-110.246C115.915,-115.484 138.112,-121.509 156.183,-126.414"/>
<polygon fill="midnightblue" stroke="midnightblue" points="97.3956,-106.831 86.8279,-107.589 95.5619,-113.586 97.3956,-106.831"/>
</g>
<!-- Node36 -->
<g id="node9" class="node"><title>Node36</title>
<g id="a_node9"><a xlink:href="class_c_game.html#a49656fe4404b3df63f2dbebd9b754edd" target="_top" xlink:title="CGame::saveGame">
<polygon fill="none" stroke="black" points="284,-88.5 284,-107.5 385,-107.5 385,-88.5 284,-88.5"/>
<text text-anchor="middle" x="334.5" y="-95.5" font-family="Helvetica,sans-Serif" font-size="10.00">CGame::saveGame</text>
</a>
</g>
</g>
<!-- Node28&#45;&gt;Node36 -->
<g id="edge11" class="edge"><title>Node28&#45;&gt;Node36</title>
<path fill="none" stroke="midnightblue" d="M111.541,-98C162.814,-98 235.689,-98 283.757,-98"/>
<polygon fill="midnightblue" stroke="midnightblue" points="111.267,-94.5001 101.267,-98 111.267,-101.5 111.267,-94.5001"/>
</g>
<!-- Node37 -->
<g id="node10" class="node"><title>Node37</title>
<g id="a_node10"><a xlink:href="class_c_inventory_browser.html#a91c51766048ba5629b125b9a444d31bb" target="_top" xlink:title="CInventoryBrowser::\loperator()">
<polygon fill="none" stroke="black" points="141,-39 141,-69 244,-69 244,-39 141,-39"/>
<text text-anchor="start" x="149" y="-57" font-family="Helvetica,sans-Serif" font-size="10.00">CInventoryBrowser::</text>
<text text-anchor="middle" x="192.5" y="-46" font-family="Helvetica,sans-Serif" font-size="10.00">operator()</text>
</a>
</g>
</g>
<!-- Node28&#45;&gt;Node37 -->
<g id="edge13" class="edge"><title>Node28&#45;&gt;Node37</title>
<path fill="none" stroke="midnightblue" d="M91.5884,-85.4008C107.796,-80.3069 126.639,-74.3849 143.565,-69.0654"/>
<polygon fill="midnightblue" stroke="midnightblue" points="90.3684,-82.1153 81.8779,-88.4527 92.4673,-88.7933 90.3684,-82.1153"/>
</g>
<!-- Node38 -->
<g id="node11" class="node"><title>Node38</title>
<g id="a_node11"><a xlink:href="class_c_shopping.html#ab72dff2e94f897bd5c3f1ef660e65afb" target="_top" xlink:title="CShopping::operator()">
<polygon fill="none" stroke="black" points="137,-0.5 137,-19.5 248,-19.5 248,-0.5 137,-0.5"/>
<text text-anchor="middle" x="192.5" y="-7.5" font-family="Helvetica,sans-Serif" font-size="10.00">CShopping::operator()</text>
</a>
</g>
</g>
<!-- Node28&#45;&gt;Node38 -->
<g id="edge14" class="edge"><title>Node28&#45;&gt;Node38</title>
<path fill="none" stroke="midnightblue" d="M68.9607,-81.3167C85.4376,-66.2841 111.372,-44.3957 137,-30 144.206,-25.9524 152.387,-22.4458 160.179,-19.5489"/>
<polygon fill="midnightblue" stroke="midnightblue" points="66.1995,-79.1048 61.2582,-88.4768 70.9655,-84.2318 66.1995,-79.1048"/>
</g>
<!-- Node30 -->
<g id="node3" class="node"><title>Node30</title>
<g id="a_node3"><a xlink:href="class_c_game.html#a39e1e296c6dcabbf5c824eea6424d6d9" target="_top" xlink:title="CGame::mainMenu">
<polygon fill="none" stroke="black" points="284,-145.5 284,-164.5 385,-164.5 385,-145.5 284,-145.5"/>
<text text-anchor="middle" x="334.5" y="-152.5" font-family="Helvetica,sans-Serif" font-size="10.00">CGame::mainMenu</text>
</a>
</g>
</g>
<!-- Node29&#45;&gt;Node30 -->
<g id="edge2" class="edge"><title>Node29&#45;&gt;Node30</title>
<path fill="none" stroke="midnightblue" d="M254.259,-165.754C264.182,-164.407 274.358,-163.026 283.969,-161.722"/>
<polygon fill="midnightblue" stroke="midnightblue" points="253.482,-162.327 244.043,-167.141 254.423,-169.264 253.482,-162.327"/>
</g>
<!-- Node31 -->
<g id="node4" class="node"><title>Node31</title>
<g id="a_node4"><a xlink:href="class_c_game.html#aa9d3da2fefa1c04faefc6586dbd37971" target="_top" xlink:title="CGame::play">
<polygon fill="none" stroke="black" points="421,-183.5 421,-202.5 495,-202.5 495,-183.5 421,-183.5"/>
<text text-anchor="middle" x="458" y="-190.5" font-family="Helvetica,sans-Serif" font-size="10.00">CGame::play</text>
</a>
</g>
</g>
<!-- Node30&#45;&gt;Node31 -->
<g id="edge3" class="edge"><title>Node30&#45;&gt;Node31</title>
<path fill="none" stroke="midnightblue" d="M376.044,-167.68C392.461,-172.815 411.099,-178.644 426.35,-183.414"/>
<polygon fill="midnightblue" stroke="midnightblue" points="376.748,-164.234 366.16,-164.589 374.659,-170.914 376.748,-164.234"/>
</g>
<!-- Node33 -->
<g id="node6" class="node"><title>Node33</title>
<g id="a_node6"><a xlink:href="class_c_game.html#a714b291af5e20aae8be14a905fd0522d" target="_top" xlink:title="CGame::tickComponent">
<polygon fill="none" stroke="black" points="698,-145.5 698,-164.5 819,-164.5 819,-145.5 698,-145.5"/>
<text text-anchor="middle" x="758.5" y="-152.5" font-family="Helvetica,sans-Serif" font-size="10.00">CGame::tickComponent</text>
</a>
</g>
</g>
<!-- Node30&#45;&gt;Node33 -->
<g id="edge8" class="edge"><title>Node30&#45;&gt;Node33</title>
<path fill="none" stroke="midnightblue" d="M395.597,-155C475.999,-155 617.715,-155 697.875,-155"/>
<polygon fill="midnightblue" stroke="midnightblue" points="395.15,-151.5 385.15,-155 395.15,-158.5 395.15,-151.5"/>
</g>
<!-- Node32 -->
<g id="node5" class="node"><title>Node32</title>
<g id="a_node5"><a xlink:href="class_c_game.html#ac0a8028013ca5a7c135c29fa582df4a0" target="_top" xlink:title="CGame::checkHeroStatus">
<polygon fill="none" stroke="black" points="531,-240.5 531,-259.5 662,-259.5 662,-240.5 531,-240.5"/>
<text text-anchor="middle" x="596.5" y="-247.5" font-family="Helvetica,sans-Serif" font-size="10.00">CGame::checkHeroStatus</text>
</a>
</g>
</g>
<!-- Node31&#45;&gt;Node32 -->
<g id="edge4" class="edge"><title>Node31&#45;&gt;Node32</title>
<path fill="none" stroke="midnightblue" d="M483.634,-207.569C497.276,-215.233 514.723,-224.384 531,-231 539.76,-234.56 549.434,-237.77 558.566,-240.494"/>
<polygon fill="midnightblue" stroke="midnightblue" points="485.276,-204.476 474.858,-202.55 481.801,-210.553 485.276,-204.476"/>
</g>
<!-- Node34 -->
<g id="node7" class="node"><title>Node34</title>
<g id="a_node7"><a xlink:href="main_8cpp.html#ae66f6b31b5ad750f1fe042a706a4e3d4" target="_top" xlink:title="main">
<polygon fill="none" stroke="black" points="577.5,-202.5 577.5,-221.5 615.5,-221.5 615.5,-202.5 577.5,-202.5"/>
<text text-anchor="middle" x="596.5" y="-209.5" font-family="Helvetica,sans-Serif" font-size="10.00">main</text>
</a>
</g>
</g>
<!-- Node31&#45;&gt;Node34 -->
<g id="edge7" class="edge"><title>Node31&#45;&gt;Node34</title>
<path fill="none" stroke="midnightblue" d="M505.129,-199.421C529.788,-202.853 558.768,-206.887 577.132,-209.443"/>
<polygon fill="midnightblue" stroke="midnightblue" points="505.608,-195.954 495.221,-198.042 504.643,-202.887 505.608,-195.954"/>
</g>
<!-- Node32&#45;&gt;Node33 -->
<g id="edge5" class="edge"><title>Node32&#45;&gt;Node33</title>
<path fill="none" stroke="midnightblue" d="M648.39,-237.05C653.088,-235.249 657.695,-233.238 662,-231 697.159,-212.726 731.91,-180.597 748.089,-164.605"/>
<polygon fill="midnightblue" stroke="midnightblue" points="646.965,-233.84 638.687,-240.453 649.282,-240.446 646.965,-233.84"/>
</g>
<!-- Node33&#45;&gt;Node31 -->
<g id="edge6" class="edge"><title>Node33&#45;&gt;Node31</title>
<path fill="none" stroke="midnightblue" d="M687.704,-163.885C627.365,-171.567 542.572,-182.361 495.006,-188.416"/>
<polygon fill="midnightblue" stroke="midnightblue" points="688.441,-167.32 697.918,-162.585 687.556,-160.376 688.441,-167.32"/>
</g>
<!-- Node35&#45;&gt;Node30 -->
<g id="edge10" class="edge"><title>Node35&#45;&gt;Node30</title>
<path fill="none" stroke="midnightblue" d="M252.947,-144.068C263.171,-145.455 273.703,-146.885 283.642,-148.234"/>
<polygon fill="midnightblue" stroke="midnightblue" points="253.239,-140.575 242.859,-142.699 252.297,-147.512 253.239,-140.575"/>
</g>
<!-- Node36&#45;&gt;Node33 -->
<g id="edge12" class="edge"><title>Node36&#45;&gt;Node33</title>
<path fill="none" stroke="midnightblue" d="M395.106,-106.051C475.42,-116.899 617.551,-136.097 697.875,-146.946"/>
<polygon fill="midnightblue" stroke="midnightblue" points="395.528,-102.576 385.15,-104.706 394.591,-109.513 395.528,-102.576"/>
</g>
</g>
</svg>
