<?xml version="1.0" encoding="UTF-8" standalone="no"?>
<!DOCTYPE svg PUBLIC "-//W3C//DTD SVG 1.1//EN"
 "http://www.w3.org/Graphics/SVG/1.1/DTD/svg11.dtd">
<!-- Generated by graphviz version 2.38.0 (20140413.2041)
 -->
<!-- Title: CCreature::getAttack Pages: 1 -->
<svg width="342pt" height="47pt"
 viewBox="0.00 0.00 342.00 47.00" xmlns="http://www.w3.org/2000/svg" xmlns:xlink="http://www.w3.org/1999/xlink">
<g id="graph0" class="graph" transform="scale(1 1) rotate(0) translate(4 43)">
<title>CCreature::getAttack</title>
<!-- Node3 -->
<g id="node1" class="node"><title>Node3</title>
<polygon fill="#bfbfbf" stroke="black" points="0,-19.5 0,-38.5 108,-38.5 108,-19.5 0,-19.5"/>
<text text-anchor="middle" x="54" y="-26.5" font-family="Helvetica,sans-Serif" font-size="10.00">CCreature::getAttack</text>
</g>
<!-- Node4 -->
<g id="node2" class="node"><title>Node4</title>
<g id="a_node2"><a xlink:href="class_c_fight.html#ac820b62e70990ddc90ecb959f4497f8f" target="_top" xlink:title="CFight::execute">
<polygon fill="none" stroke="black" points="248,-19.5 248,-38.5 334,-38.5 334,-19.5 248,-19.5"/>
<text text-anchor="middle" x="291" y="-26.5" font-family="Helvetica,sans-Serif" font-size="10.00">CFight::execute</text>
</a>
</g>
</g>
<!-- Node3&#45;&gt;Node4 -->
<g id="edge1" class="edge"><title>Node3&#45;&gt;Node4</title>
<path fill="none" stroke="midnightblue" d="M118.209,-29C159.265,-29 211.657,-29 247.728,-29"/>
<polygon fill="midnightblue" stroke="midnightblue" points="118.032,-25.5001 108.032,-29 118.032,-32.5001 118.032,-25.5001"/>
</g>
<!-- Node5 -->
<g id="node3" class="node"><title>Node5</title>
<g id="a_node3"><a xlink:href="class_c_hero.html#a7cda26a24b8e70fc2ffe829e9c984b7e" target="_top" xlink:title="CHero::fight">
<polygon fill="none" stroke="black" points="144,-0.5 144,-19.5 212,-19.5 212,-0.5 144,-0.5"/>
<text text-anchor="middle" x="178" y="-7.5" font-family="Helvetica,sans-Serif" font-size="10.00">CHero::fight</text>
</a>
</g>
</g>
<!-- Node3&#45;&gt;Node5 -->
<g id="edge2" class="edge"><title>Node3&#45;&gt;Node5</title>
<path fill="none" stroke="midnightblue" d="M118.113,-19.171C126.944,-17.7956 135.717,-16.4294 143.688,-15.1879"/>
<polygon fill="midnightblue" stroke="midnightblue" points="117.498,-15.7244 108.156,-20.7216 118.576,-22.641 117.498,-15.7244"/>
</g>
<!-- Node5&#45;&gt;Node4 -->
<g id="edge3" class="edge"><title>Node5&#45;&gt;Node4</title>
<path fill="none" stroke="midnightblue" d="M222.072,-17.3727C230.538,-18.8219 239.412,-20.3408 247.848,-21.7847"/>
<polygon fill="midnightblue" stroke="midnightblue" points="222.45,-13.8866 212.003,-15.6492 221.269,-20.7863 222.45,-13.8866"/>
</g>
</g>
</svg>
