<?xml version="1.0" encoding="UTF-8" standalone="no"?>
<!DOCTYPE svg PUBLIC "-//W3C//DTD SVG 1.1//EN"
 "http://www.w3.org/Graphics/SVG/1.1/DTD/svg11.dtd">
<!-- Generated by graphviz version 2.38.0 (20140413.2041)
 -->
<!-- Title: CEquipment Pages: 1 -->
<svg width="93pt" height="226pt"
 viewBox="0.00 0.00 93.00 226.00" xmlns="http://www.w3.org/2000/svg" xmlns:xlink="http://www.w3.org/1999/xlink">
<g id="graph0" class="graph" transform="scale(1 1) rotate(0) translate(4 222)">
<title>CEquipment</title>
<!-- Node1 -->
<g id="node1" class="node"><title>Node1</title>
<polygon fill="#bfbfbf" stroke="black" points="0,-0.5 0,-101.5 85,-101.5 85,-0.5 0,-0.5"/>
<text text-anchor="middle" x="42.5" y="-89.5" font-family="Helvetica,sans-Serif" font-size="10.00">CEquipment</text>
<polyline fill="none" stroke="black" points="0,-82.5 85,-82.5 "/>
<text text-anchor="middle" x="42.5" y="-70.5" font-family="Helvetica,sans-Serif" font-size="10.00"> </text>
<polyline fill="none" stroke="black" points="0,-63.5 85,-63.5 "/>
<text text-anchor="start" x="8" y="-51.5" font-family="Helvetica,sans-Serif" font-size="10.00">+ CEquipment()</text>
<text text-anchor="start" x="8" y="-40.5" font-family="Helvetica,sans-Serif" font-size="10.00">+ setAttack()</text>
<text text-anchor="start" x="8" y="-29.5" font-family="Helvetica,sans-Serif" font-size="10.00">+ getAttack()</text>
<text text-anchor="start" x="8" y="-18.5" font-family="Helvetica,sans-Serif" font-size="10.00">+ getArmour()</text>
<text text-anchor="start" x="8" y="-7.5" font-family="Helvetica,sans-Serif" font-size="10.00">+ setArmour()</text>
</g>
<!-- Node2 -->
<g id="node2" class="node"><title>Node2</title>
<polygon fill="none" stroke="#bfbfbf" points="28,-160.5 28,-217.5 57,-217.5 57,-160.5 28,-160.5"/>
<text text-anchor="middle" x="42.5" y="-205.5" font-family="Helvetica,sans-Serif" font-size="10.00">int</text>
<polyline fill="none" stroke="#bfbfbf" points="28,-198.5 57,-198.5 "/>
<text text-anchor="middle" x="42.5" y="-186.5" font-family="Helvetica,sans-Serif" font-size="10.00"> </text>
<polyline fill="none" stroke="#bfbfbf" points="28,-179.5 57,-179.5 "/>
<text text-anchor="middle" x="42.5" y="-167.5" font-family="Helvetica,sans-Serif" font-size="10.00"> </text>
</g>
<!-- Node2&#45;&gt;Node1 -->
<g id="edge1" class="edge"><title>Node2&#45;&gt;Node1</title>
<path fill="none" stroke="#404040" d="M42.5,-160.478C42.5,-147.057 42.5,-130.327 42.5,-114.055"/>
<polygon fill="none" stroke="#404040" points="42.5001,-113.764 38.5,-107.764 42.5,-101.764 46.5,-107.764 42.5001,-113.764"/>
<text text-anchor="middle" x="62" y="-134" font-family="Helvetica,sans-Serif" font-size="10.00"> #armour</text>
<text text-anchor="middle" x="62" y="-123" font-family="Helvetica,sans-Serif" font-size="10.00">#attack</text>
</g>
</g>
</svg>
