<?xml version="1.0" encoding="UTF-8" standalone="no"?>
<!DOCTYPE svg PUBLIC "-//W3C//DTD SVG 1.1//EN"
 "http://www.w3.org/Graphics/SVG/1.1/DTD/svg11.dtd">
<!-- Generated by graphviz version 2.38.0 (20140413.2041)
 -->
<!-- Title: CEquipment::setAttack Pages: 1 -->
<svg width="1127pt" height="152pt"
 viewBox="0.00 0.00 1127.00 152.00" xmlns="http://www.w3.org/2000/svg" xmlns:xlink="http://www.w3.org/1999/xlink">
<g id="graph0" class="graph" transform="scale(1 1) rotate(0) translate(4 148)">
<title>CEquipment::setAttack</title>
<!-- Node40 -->
<g id="node1" class="node"><title>Node40</title>
<polygon fill="#bfbfbf" stroke="black" points="0,-19.5 0,-38.5 118,-38.5 118,-19.5 0,-19.5"/>
<text text-anchor="middle" x="59" y="-26.5" font-family="Helvetica,sans-Serif" font-size="10.00">CEquipment::setAttack</text>
</g>
<!-- Node41 -->
<g id="node2" class="node"><title>Node41</title>
<g id="a_node2"><a xlink:href="class_c_hero.html#a7b1a1b3c196bbe5b8da97c56f520c1f3" target="_top" xlink:title="CHero::update">
<polygon fill="none" stroke="black" points="160,-38.5 160,-57.5 239,-57.5 239,-38.5 160,-38.5"/>
<text text-anchor="middle" x="199.5" y="-45.5" font-family="Helvetica,sans-Serif" font-size="10.00">CHero::update</text>
</a>
</g>
</g>
<!-- Node40&#45;&gt;Node41 -->
<g id="edge1" class="edge"><title>Node40&#45;&gt;Node41</title>
<path fill="none" stroke="midnightblue" d="M128.282,-38.3672C139.156,-39.859 150.062,-41.3551 159.927,-42.7084"/>
<polygon fill="midnightblue" stroke="midnightblue" points="128.718,-34.8943 118.335,-37.0026 127.767,-41.8294 128.718,-34.8943"/>
</g>
<!-- Node49 -->
<g id="node10" class="node"><title>Node49</title>
<g id="a_node10"><a xlink:href="class_c_sword.html#a565b01124ed0c92e6873dcc0263d4a79" target="_top" xlink:title="CSword::useItem">
<polygon fill="none" stroke="black" points="154,-0.5 154,-19.5 245,-19.5 245,-0.5 154,-0.5"/>
<text text-anchor="middle" x="199.5" y="-7.5" font-family="Helvetica,sans-Serif" font-size="10.00">CSword::useItem</text>
</a>
</g>
</g>
<!-- Node40&#45;&gt;Node49 -->
<g id="edge11" class="edge"><title>Node40&#45;&gt;Node49</title>
<path fill="none" stroke="midnightblue" d="M128.387,-19.6184C136.984,-18.4391 145.598,-17.2573 153.7,-16.1458"/>
<polygon fill="midnightblue" stroke="midnightblue" points="127.767,-16.1706 118.335,-20.9974 128.718,-23.1057 127.767,-16.1706"/>
</g>
<!-- Node42 -->
<g id="node3" class="node"><title>Node42</title>
<g id="a_node3"><a xlink:href="class_c_game.html#a507b71eeebc2a6aaa08d9e0dcb61c7ac" target="_top" xlink:title="CGame::importPlayerData">
<polygon fill="none" stroke="black" points="281,-38.5 281,-57.5 412,-57.5 412,-38.5 281,-38.5"/>
<text text-anchor="middle" x="346.5" y="-45.5" font-family="Helvetica,sans-Serif" font-size="10.00">CGame::importPlayerData</text>
</a>
</g>
</g>
<!-- Node41&#45;&gt;Node42 -->
<g id="edge2" class="edge"><title>Node41&#45;&gt;Node42</title>
<path fill="none" stroke="midnightblue" d="M249.538,-48C259.576,-48 270.288,-48 280.779,-48"/>
<polygon fill="midnightblue" stroke="midnightblue" points="249.357,-44.5001 239.357,-48 249.357,-51.5001 249.357,-44.5001"/>
</g>
<!-- Node43 -->
<g id="node4" class="node"><title>Node43</title>
<g id="a_node4"><a xlink:href="class_c_game.html#accda079824fc813cbd64b4743846ae24" target="_top" xlink:title="CGame::loadGame">
<polygon fill="none" stroke="black" points="448,-38.5 448,-57.5 548,-57.5 548,-38.5 448,-38.5"/>
<text text-anchor="middle" x="498" y="-45.5" font-family="Helvetica,sans-Serif" font-size="10.00">CGame::loadGame</text>
</a>
</g>
</g>
<!-- Node42&#45;&gt;Node43 -->
<g id="edge3" class="edge"><title>Node42&#45;&gt;Node43</title>
<path fill="none" stroke="midnightblue" d="M422.379,-48C431.071,-48 439.76,-48 447.977,-48"/>
<polygon fill="midnightblue" stroke="midnightblue" points="422.203,-44.5001 412.203,-48 422.203,-51.5001 422.203,-44.5001"/>
</g>
<!-- Node44 -->
<g id="node5" class="node"><title>Node44</title>
<g id="a_node5"><a xlink:href="class_c_game.html#a39e1e296c6dcabbf5c824eea6424d6d9" target="_top" xlink:title="CGame::mainMenu">
<polygon fill="none" stroke="black" points="584,-38.5 584,-57.5 685,-57.5 685,-38.5 584,-38.5"/>
<text text-anchor="middle" x="634.5" y="-45.5" font-family="Helvetica,sans-Serif" font-size="10.00">CGame::mainMenu</text>
</a>
</g>
</g>
<!-- Node43&#45;&gt;Node44 -->
<g id="edge4" class="edge"><title>Node43&#45;&gt;Node44</title>
<path fill="none" stroke="midnightblue" d="M558.486,-48C566.918,-48 575.515,-48 583.737,-48"/>
<polygon fill="midnightblue" stroke="midnightblue" points="558.319,-44.5001 548.319,-48 558.319,-51.5001 558.319,-44.5001"/>
</g>
<!-- Node45 -->
<g id="node6" class="node"><title>Node45</title>
<g id="a_node6"><a xlink:href="class_c_game.html#aa9d3da2fefa1c04faefc6586dbd37971" target="_top" xlink:title="CGame::play">
<polygon fill="none" stroke="black" points="721,-67.5 721,-86.5 795,-86.5 795,-67.5 721,-67.5"/>
<text text-anchor="middle" x="758" y="-74.5" font-family="Helvetica,sans-Serif" font-size="10.00">CGame::play</text>
</a>
</g>
</g>
<!-- Node44&#45;&gt;Node45 -->
<g id="edge5" class="edge"><title>Node44&#45;&gt;Node45</title>
<path fill="none" stroke="midnightblue" d="M685.361,-59.901C697.165,-62.7184 709.536,-65.6711 720.612,-68.3147"/>
<polygon fill="midnightblue" stroke="midnightblue" points="686.16,-56.4934 675.62,-57.5761 684.535,-63.3021 686.16,-56.4934"/>
</g>
<!-- Node47 -->
<g id="node8" class="node"><title>Node47</title>
<g id="a_node8"><a xlink:href="class_c_game.html#a714b291af5e20aae8be14a905fd0522d" target="_top" xlink:title="CGame::tickComponent">
<polygon fill="none" stroke="black" points="998,-48.5 998,-67.5 1119,-67.5 1119,-48.5 998,-48.5"/>
<text text-anchor="middle" x="1058.5" y="-55.5" font-family="Helvetica,sans-Serif" font-size="10.00">CGame::tickComponent</text>
</a>
</g>
</g>
<!-- Node44&#45;&gt;Node47 -->
<g id="edge10" class="edge"><title>Node44&#45;&gt;Node47</title>
<path fill="none" stroke="midnightblue" d="M695.597,-49.4241C775.999,-51.3294 917.715,-54.6876 997.875,-56.5871"/>
<polygon fill="midnightblue" stroke="midnightblue" points="695.23,-45.9145 685.15,-49.1765 695.064,-52.9125 695.23,-45.9145"/>
</g>
<!-- Node46 -->
<g id="node7" class="node"><title>Node46</title>
<g id="a_node7"><a xlink:href="class_c_game.html#ac0a8028013ca5a7c135c29fa582df4a0" target="_top" xlink:title="CGame::checkHeroStatus">
<polygon fill="none" stroke="black" points="831,-124.5 831,-143.5 962,-143.5 962,-124.5 831,-124.5"/>
<text text-anchor="middle" x="896.5" y="-131.5" font-family="Helvetica,sans-Serif" font-size="10.00">CGame::checkHeroStatus</text>
</a>
</g>
</g>
<!-- Node45&#45;&gt;Node46 -->
<g id="edge6" class="edge"><title>Node45&#45;&gt;Node46</title>
<path fill="none" stroke="midnightblue" d="M783.634,-91.569C797.276,-99.2331 814.723,-108.384 831,-115 839.76,-118.56 849.434,-121.77 858.566,-124.494"/>
<polygon fill="midnightblue" stroke="midnightblue" points="785.276,-88.4765 774.858,-86.55 781.801,-94.5529 785.276,-88.4765"/>
</g>
<!-- Node48 -->
<g id="node9" class="node"><title>Node48</title>
<g id="a_node9"><a xlink:href="main_8cpp.html#ae66f6b31b5ad750f1fe042a706a4e3d4" target="_top" xlink:title="main">
<polygon fill="none" stroke="black" points="877.5,-86.5 877.5,-105.5 915.5,-105.5 915.5,-86.5 877.5,-86.5"/>
<text text-anchor="middle" x="896.5" y="-93.5" font-family="Helvetica,sans-Serif" font-size="10.00">main</text>
</a>
</g>
</g>
<!-- Node45&#45;&gt;Node48 -->
<g id="edge9" class="edge"><title>Node45&#45;&gt;Node48</title>
<path fill="none" stroke="midnightblue" d="M805.129,-83.4208C829.788,-86.8533 858.768,-90.8871 877.132,-93.4433"/>
<polygon fill="midnightblue" stroke="midnightblue" points="805.608,-79.9539 795.221,-82.0418 804.643,-86.8871 805.608,-79.9539"/>
</g>
<!-- Node46&#45;&gt;Node47 -->
<g id="edge7" class="edge"><title>Node46&#45;&gt;Node47</title>
<path fill="none" stroke="midnightblue" d="M945.837,-121.215C951.361,-119.327 956.853,-117.251 962,-115 992.782,-101.537 1025.84,-80.043 1043.86,-67.6543"/>
<polygon fill="midnightblue" stroke="midnightblue" points="944.372,-118.01 935.925,-124.406 946.517,-124.673 944.372,-118.01"/>
</g>
<!-- Node47&#45;&gt;Node45 -->
<g id="edge8" class="edge"><title>Node47&#45;&gt;Node45</title>
<path fill="none" stroke="midnightblue" d="M987.704,-62.4426C927.365,-66.2833 842.572,-71.6805 795.006,-74.7082"/>
<polygon fill="midnightblue" stroke="midnightblue" points="988.161,-65.9207 997.918,-61.7925 987.716,-58.9349 988.161,-65.9207"/>
</g>
</g>
</svg>
