<?xml version="1.0" encoding="UTF-8" standalone="no"?>
<!DOCTYPE svg PUBLIC "-//W3C//DTD SVG 1.1//EN"
 "http://www.w3.org/Graphics/SVG/1.1/DTD/svg11.dtd">
<!-- Generated by graphviz version 2.38.0 (20140413.2041)
 -->
<!-- Title: CGame::loadGame Pages: 1 -->
<svg width="865pt" height="335pt"
 viewBox="0.00 0.00 865.00 335.32" xmlns="http://www.w3.org/2000/svg" xmlns:xlink="http://www.w3.org/1999/xlink">
<g id="graph0" class="graph" transform="scale(1 1) rotate(0) translate(4 331.324)">
<title>CGame::loadGame</title>
<!-- Node128 -->
<g id="node1" class="node"><title>Node128</title>
<polygon fill="#bfbfbf" stroke="black" points="0,-209.824 0,-228.824 100,-228.824 100,-209.824 0,-209.824"/>
<text text-anchor="middle" x="50" y="-216.824" font-family="Helvetica,sans-Serif" font-size="10.00">CGame::loadGame</text>
</g>
<!-- Node129 -->
<g id="node2" class="node"><title>Node129</title>
<g id="a_node2"><a xlink:href="class_c_display.html#af350b35b44fc756e0c721ec4ee56c67a" target="_top" xlink:title="CDisplay::printDelimiter">
<polygon fill="none" stroke="black" points="339.5,-266.824 339.5,-285.824 458.5,-285.824 458.5,-266.824 339.5,-266.824"/>
<text text-anchor="middle" x="399" y="-273.824" font-family="Helvetica,sans-Serif" font-size="10.00">CDisplay::printDelimiter</text>
</a>
</g>
</g>
<!-- Node128&#45;&gt;Node129 -->
<g id="edge1" class="edge"><title>Node128&#45;&gt;Node129</title>
<path fill="none" stroke="midnightblue" d="M90.6559,-228.843C104.905,-232.09 121.129,-235.588 136,-238.324 201.292,-250.338 276.312,-260.892 329.298,-267.809"/>
<polygon fill="midnightblue" stroke="midnightblue" points="328.892,-271.286 339.259,-269.101 329.792,-264.344 328.892,-271.286"/>
</g>
<!-- Node130 -->
<g id="node3" class="node"><title>Node130</title>
<g id="a_node3"><a xlink:href="class_c_display.html#a54c5d36f4bc11d4a935ff5c86ea4e653" target="_top" xlink:title="CDisplay::print">
<polygon fill="none" stroke="black" points="165.5,-209.824 165.5,-228.824 245.5,-228.824 245.5,-209.824 165.5,-209.824"/>
<text text-anchor="middle" x="205.5" y="-216.824" font-family="Helvetica,sans-Serif" font-size="10.00">CDisplay::print</text>
</a>
</g>
</g>
<!-- Node128&#45;&gt;Node130 -->
<g id="edge2" class="edge"><title>Node128&#45;&gt;Node130</title>
<path fill="none" stroke="midnightblue" d="M100.413,-219.324C117.997,-219.324 137.782,-219.324 155.343,-219.324"/>
<polygon fill="midnightblue" stroke="midnightblue" points="155.393,-222.824 165.393,-219.324 155.393,-215.824 155.393,-222.824"/>
</g>
<!-- Node131 -->
<g id="node4" class="node"><title>Node131</title>
<g id="a_node4"><a xlink:href="class_c_display.html#a1bd3e25973ed15055a68d4db6abfa765" target="_top" xlink:title="CDisplay::getString">
<polygon fill="none" stroke="black" points="155,-171.824 155,-190.824 256,-190.824 256,-171.824 155,-171.824"/>
<text text-anchor="middle" x="205.5" y="-178.824" font-family="Helvetica,sans-Serif" font-size="10.00">CDisplay::getString</text>
</a>
</g>
</g>
<!-- Node128&#45;&gt;Node131 -->
<g id="edge3" class="edge"><title>Node128&#45;&gt;Node131</title>
<path fill="none" stroke="midnightblue" d="M89.7345,-209.735C109.899,-204.743 134.748,-198.592 156.161,-193.291"/>
<polygon fill="midnightblue" stroke="midnightblue" points="157.178,-196.645 166.044,-190.844 155.496,-189.85 157.178,-196.645"/>
</g>
<!-- Node133 -->
<g id="node6" class="node"><title>Node133</title>
<g id="a_node6"><a xlink:href="class_c_display.html#a53b65673a9b0bfc807a3a1e448962928" target="_top" xlink:title="CDisplay::printWithDelimiter">
<polygon fill="none" stroke="black" points="136,-285.824 136,-304.824 275,-304.824 275,-285.824 136,-285.824"/>
<text text-anchor="middle" x="205.5" y="-292.824" font-family="Helvetica,sans-Serif" font-size="10.00">CDisplay::printWithDelimiter</text>
</a>
</g>
</g>
<!-- Node128&#45;&gt;Node133 -->
<g id="edge5" class="edge"><title>Node128&#45;&gt;Node133</title>
<path fill="none" stroke="midnightblue" d="M64.6266,-228.917C81.0035,-240.144 109.586,-258.792 136,-271.324 144.611,-275.41 154.114,-279.177 163.23,-282.456"/>
<polygon fill="midnightblue" stroke="midnightblue" points="162.314,-285.843 172.909,-285.815 164.609,-279.23 162.314,-285.843"/>
</g>
<!-- Node134 -->
<g id="node7" class="node"><title>Node134</title>
<g id="a_node7"><a xlink:href="class_c_game.html#a507b71eeebc2a6aaa08d9e0dcb61c7ac" target="_top" xlink:title="CGame::importPlayerData">
<polygon fill="none" stroke="black" points="140,-105.824 140,-124.824 271,-124.824 271,-105.824 140,-105.824"/>
<text text-anchor="middle" x="205.5" y="-112.824" font-family="Helvetica,sans-Serif" font-size="10.00">CGame::importPlayerData</text>
</a>
</g>
</g>
<!-- Node128&#45;&gt;Node134 -->
<g id="edge7" class="edge"><title>Node128&#45;&gt;Node134</title>
<path fill="none" stroke="midnightblue" d="M65.1658,-209.726C91.8951,-191.617 149.96,-152.276 182.053,-130.533"/>
<polygon fill="midnightblue" stroke="midnightblue" points="184.053,-133.405 190.368,-124.899 180.126,-127.61 184.053,-133.405"/>
</g>
<!-- Node132 -->
<g id="node5" class="node"><title>Node132</title>
<g id="a_node5"><a xlink:href="class_c_display.html#aba2a285f19e987f9ba82447f43be2b10" target="_top" xlink:title="CDisplay::dumpToNewLine">
<polygon fill="none" stroke="black" points="332.5,-200.824 332.5,-219.824 465.5,-219.824 465.5,-200.824 332.5,-200.824"/>
<text text-anchor="middle" x="399" y="-207.824" font-family="Helvetica,sans-Serif" font-size="10.00">CDisplay::dumpToNewLine</text>
</a>
</g>
</g>
<!-- Node131&#45;&gt;Node132 -->
<g id="edge4" class="edge"><title>Node131&#45;&gt;Node132</title>
<path fill="none" stroke="midnightblue" d="M256.314,-188.868C277.263,-192.04 302.055,-195.795 324.998,-199.269"/>
<polygon fill="midnightblue" stroke="midnightblue" points="324.633,-202.754 335.044,-200.79 325.681,-195.832 324.633,-202.754"/>
</g>
<!-- Node133&#45;&gt;Node129 -->
<g id="edge6" class="edge"><title>Node133&#45;&gt;Node129</title>
<path fill="none" stroke="midnightblue" d="M275.095,-288.518C292.679,-286.774 311.595,-284.897 329.19,-283.151"/>
<polygon fill="midnightblue" stroke="midnightblue" points="329.771,-286.611 339.377,-282.141 329.08,-279.645 329.771,-286.611"/>
</g>
<!-- Node135 -->
<g id="node8" class="node"><title>Node135</title>
<g id="a_node8"><a xlink:href="class_c_stream_decoder.html#a27f04fbbe2eb121fe15988594fe7053f" target="_top" xlink:title="CStreamDecoder::decodePlayerData">
<polygon fill="none" stroke="black" points="311,-67.8242 311,-86.8242 487,-86.8242 487,-67.8242 311,-67.8242"/>
<text text-anchor="middle" x="399" y="-74.8242" font-family="Helvetica,sans-Serif" font-size="10.00">CStreamDecoder::decodePlayerData</text>
</a>
</g>
</g>
<!-- Node134&#45;&gt;Node135 -->
<g id="edge8" class="edge"><title>Node134&#45;&gt;Node135</title>
<path fill="none" stroke="midnightblue" d="M254.824,-105.735C280.663,-100.608 312.668,-94.2569 339.861,-88.861"/>
<polygon fill="midnightblue" stroke="midnightblue" points="340.896,-92.2237 350.024,-86.8442 339.534,-85.3576 340.896,-92.2237"/>
</g>
<!-- Node138 -->
<g id="node11" class="node"><title>Node138</title>
<g id="a_node11"><a xlink:href="class_c_stream_decoder.html#a57a7f304974a6b5be31e374685b70e33" target="_top" xlink:title="CStreamDecoder::getNumbers">
<polygon fill="none" stroke="black" points="708,-23.8242 708,-42.8242 857,-42.8242 857,-23.8242 708,-23.8242"/>
<text text-anchor="middle" x="782.5" y="-30.8242" font-family="Helvetica,sans-Serif" font-size="10.00">CStreamDecoder::getNumbers</text>
</a>
</g>
</g>
<!-- Node134&#45;&gt;Node138 -->
<g id="edge21" class="edge"><title>Node134&#45;&gt;Node138</title>
<path fill="none" stroke="midnightblue" d="M221.121,-105.698C240.793,-93.1396 277.224,-71.2495 311,-58.3242 462.278,-0.434053 511.043,9.81654 672,-8.32415 694.212,-10.8276 718.488,-16.1018 738.525,-21.1634"/>
<polygon fill="midnightblue" stroke="midnightblue" points="737.729,-24.5727 748.288,-23.6963 739.487,-17.797 737.729,-24.5727"/>
</g>
<!-- Node139 -->
<g id="node12" class="node"><title>Node139</title>
<g id="a_node12"><a xlink:href="class_c_hero.html#a7b1a1b3c196bbe5b8da97c56f520c1f3" target="_top" xlink:title="CHero::update">
<polygon fill="none" stroke="black" points="359.5,-162.824 359.5,-181.824 438.5,-181.824 438.5,-162.824 359.5,-162.824"/>
<text text-anchor="middle" x="399" y="-169.824" font-family="Helvetica,sans-Serif" font-size="10.00">CHero::update</text>
</a>
</g>
</g>
<!-- Node134&#45;&gt;Node139 -->
<g id="edge12" class="edge"><title>Node134&#45;&gt;Node139</title>
<path fill="none" stroke="midnightblue" d="M238.553,-124.865C270.727,-134.441 320.461,-149.245 355.822,-159.77"/>
<polygon fill="midnightblue" stroke="midnightblue" points="355.26,-163.254 365.843,-162.753 357.257,-156.545 355.26,-163.254"/>
</g>
<!-- Node144 -->
<g id="node17" class="node"><title>Node144</title>
<g id="a_node17"><a xlink:href="class_c_storyline.html#ad8c62b61513d498b53454aeaf621dda0" target="_top" xlink:title="CStoryline::update">
<polygon fill="none" stroke="black" points="350.5,-105.824 350.5,-124.824 447.5,-124.824 447.5,-105.824 350.5,-105.824"/>
<text text-anchor="middle" x="399" y="-112.824" font-family="Helvetica,sans-Serif" font-size="10.00">CStoryline::update</text>
</a>
</g>
</g>
<!-- Node134&#45;&gt;Node144 -->
<g id="edge20" class="edge"><title>Node134&#45;&gt;Node144</title>
<path fill="none" stroke="midnightblue" d="M271.066,-115.324C293.469,-115.324 318.43,-115.324 340.248,-115.324"/>
<polygon fill="midnightblue" stroke="midnightblue" points="340.355,-118.824 350.355,-115.324 340.355,-111.824 340.355,-118.824"/>
</g>
<!-- Node136 -->
<g id="node9" class="node"><title>Node136</title>
<g id="a_node9"><a xlink:href="class_c_stream_decoder.html#a736a4660fb1fc91ffc7345050f815994" target="_top" xlink:title="CStreamDecoder::getString">
<polygon fill="none" stroke="black" points="714.5,-219.824 714.5,-238.824 850.5,-238.824 850.5,-219.824 714.5,-219.824"/>
<text text-anchor="middle" x="782.5" y="-226.824" font-family="Helvetica,sans-Serif" font-size="10.00">CStreamDecoder::getString</text>
</a>
</g>
</g>
<!-- Node135&#45;&gt;Node136 -->
<g id="edge9" class="edge"><title>Node135&#45;&gt;Node136</title>
<path fill="none" stroke="midnightblue" d="M487.295,-84.2822C542.543,-91.3708 614.193,-105.641 672,-134.324 711.01,-153.68 747.311,-190.271 766.743,-211.956"/>
<polygon fill="midnightblue" stroke="midnightblue" points="764.333,-214.516 773.556,-219.728 769.596,-209.901 764.333,-214.516"/>
</g>
<!-- Node137 -->
<g id="node10" class="node"><title>Node137</title>
<g id="a_node10"><a xlink:href="class_c_stream_decoder.html#a5df71ab29ca4dc60f6c628fcb4a77949" target="_top" xlink:title="CStreamDecoder::getNumbers\lAsString">
<polygon fill="none" stroke="black" points="523,-18.3242 523,-48.3242 672,-48.3242 672,-18.3242 523,-18.3242"/>
<text text-anchor="start" x="531" y="-36.3242" font-family="Helvetica,sans-Serif" font-size="10.00">CStreamDecoder::getNumbers</text>
<text text-anchor="middle" x="597.5" y="-25.3242" font-family="Helvetica,sans-Serif" font-size="10.00">AsString</text>
</a>
</g>
</g>
<!-- Node135&#45;&gt;Node137 -->
<g id="edge10" class="edge"><title>Node135&#45;&gt;Node137</title>
<path fill="none" stroke="midnightblue" d="M442.638,-67.7768C465.057,-62.7566 493.238,-56.4464 519.336,-50.6027"/>
<polygon fill="midnightblue" stroke="midnightblue" points="520.226,-53.9901 529.219,-48.3895 518.696,-47.1592 520.226,-53.9901"/>
</g>
<!-- Node137&#45;&gt;Node138 -->
<g id="edge11" class="edge"><title>Node137&#45;&gt;Node138</title>
<path fill="none" stroke="midnightblue" d="M672.142,-33.3242C680.474,-33.3242 689.011,-33.3242 697.463,-33.3242"/>
<polygon fill="midnightblue" stroke="midnightblue" points="697.711,-36.8243 707.711,-33.3242 697.711,-29.8243 697.711,-36.8243"/>
</g>
<!-- Node139&#45;&gt;Node136 -->
<g id="edge13" class="edge"><title>Node139&#45;&gt;Node136</title>
<path fill="none" stroke="midnightblue" d="M438.751,-178.456C454.046,-181.476 471.608,-185.7 487,-191.324 503.993,-197.533 505.61,-205.333 523,-210.324 582.203,-227.316 651.995,-231.569 704.129,-231.848"/>
<polygon fill="midnightblue" stroke="midnightblue" points="704.31,-235.348 714.312,-231.854 704.314,-228.348 704.31,-235.348"/>
</g>
<!-- Node139&#45;&gt;Node138 -->
<g id="edge19" class="edge"><title>Node139&#45;&gt;Node138</title>
<path fill="none" stroke="midnightblue" d="M426.222,-162.77C493.002,-138.439 669.572,-74.1053 745.717,-46.3617"/>
<polygon fill="midnightblue" stroke="midnightblue" points="747.15,-49.5649 755.347,-42.853 744.753,-42.9879 747.15,-49.5649"/>
</g>
<!-- Node140 -->
<g id="node13" class="node"><title>Node140</title>
<g id="a_node13"><a xlink:href="class_c_stream_decoder.html#aeaef1aa3239cf7b5d00397b6e46f67d1" target="_top" xlink:title="CStreamDecoder::getString\lAsInt">
<polygon fill="none" stroke="black" points="529.5,-258.324 529.5,-288.324 665.5,-288.324 665.5,-258.324 529.5,-258.324"/>
<text text-anchor="start" x="537.5" y="-276.324" font-family="Helvetica,sans-Serif" font-size="10.00">CStreamDecoder::getString</text>
<text text-anchor="middle" x="597.5" y="-265.324" font-family="Helvetica,sans-Serif" font-size="10.00">AsInt</text>
</a>
</g>
</g>
<!-- Node139&#45;&gt;Node140 -->
<g id="edge14" class="edge"><title>Node139&#45;&gt;Node140</title>
<path fill="none" stroke="midnightblue" d="M438.828,-174.581C454.82,-177.022 472.87,-181.861 487,-191.324 510.355,-206.966 501.079,-225.728 523,-243.324 527.867,-247.231 533.312,-250.694 538.977,-253.748"/>
<polygon fill="midnightblue" stroke="midnightblue" points="537.497,-256.921 548.012,-258.217 540.6,-250.646 537.497,-256.921"/>
</g>
<!-- Node141 -->
<g id="node14" class="node"><title>Node141</title>
<g id="a_node14"><a xlink:href="class_c_equipment.html#abf42868d8cd5d627d872dbf7f80bff9a" target="_top" xlink:title="CEquipment::setAttack">
<polygon fill="none" stroke="black" points="538.5,-181.824 538.5,-200.824 656.5,-200.824 656.5,-181.824 538.5,-181.824"/>
<text text-anchor="middle" x="597.5" y="-188.824" font-family="Helvetica,sans-Serif" font-size="10.00">CEquipment::setAttack</text>
</a>
</g>
</g>
<!-- Node139&#45;&gt;Node141 -->
<g id="edge16" class="edge"><title>Node139&#45;&gt;Node141</title>
<path fill="none" stroke="midnightblue" d="M438.822,-176.078C464.346,-178.546 498.441,-181.843 528.397,-184.739"/>
<polygon fill="midnightblue" stroke="midnightblue" points="528.088,-188.225 538.378,-185.704 528.762,-181.258 528.088,-188.225"/>
</g>
<!-- Node142 -->
<g id="node15" class="node"><title>Node142</title>
<g id="a_node15"><a xlink:href="class_c_equipment.html#a223e0e1172975f9d9c49612b2513afb0" target="_top" xlink:title="CEquipment::setArmour">
<polygon fill="none" stroke="black" points="537,-143.824 537,-162.824 658,-162.824 658,-143.824 537,-143.824"/>
<text text-anchor="middle" x="597.5" y="-150.824" font-family="Helvetica,sans-Serif" font-size="10.00">CEquipment::setArmour</text>
</a>
</g>
</g>
<!-- Node139&#45;&gt;Node142 -->
<g id="edge17" class="edge"><title>Node139&#45;&gt;Node142</title>
<path fill="none" stroke="midnightblue" d="M438.822,-168.57C463.835,-166.152 497.079,-162.937 526.592,-160.084"/>
<polygon fill="midnightblue" stroke="midnightblue" points="527.239,-163.538 536.856,-159.091 526.565,-156.57 527.239,-163.538"/>
</g>
<!-- Node143 -->
<g id="node16" class="node"><title>Node143</title>
<g id="a_node16"><a xlink:href="class_c_inventory.html#a2ae39f69247c25fa2ee46c4111bcce56" target="_top" xlink:title="CInventory::update">
<polygon fill="none" stroke="black" points="549,-307.824 549,-326.824 646,-326.824 646,-307.824 549,-307.824"/>
<text text-anchor="middle" x="597.5" y="-314.824" font-family="Helvetica,sans-Serif" font-size="10.00">CInventory::update</text>
</a>
</g>
</g>
<!-- Node139&#45;&gt;Node143 -->
<g id="edge18" class="edge"><title>Node139&#45;&gt;Node143</title>
<path fill="none" stroke="midnightblue" d="M438.917,-172.591C455.495,-174.618 473.973,-179.684 487,-191.324 524.102,-224.474 486.75,-263.245 523,-297.324 527.679,-301.723 533.228,-305.173 539.148,-307.875"/>
<polygon fill="midnightblue" stroke="midnightblue" points="538.095,-311.22 548.685,-311.535 540.603,-304.684 538.095,-311.22"/>
</g>
<!-- Node140&#45;&gt;Node136 -->
<g id="edge15" class="edge"><title>Node140&#45;&gt;Node136</title>
<path fill="none" stroke="midnightblue" d="M660.966,-258.305C684.222,-252.713 710.269,-246.451 732.184,-241.182"/>
<polygon fill="midnightblue" stroke="midnightblue" points="733.032,-244.577 741.937,-238.837 731.396,-237.771 733.032,-244.577"/>
</g>
</g>
</svg>
