<?xml version="1.0" encoding="UTF-8" standalone="no"?>
<!DOCTYPE svg PUBLIC "-//W3C//DTD SVG 1.1//EN"
 "http://www.w3.org/Graphics/SVG/1.1/DTD/svg11.dtd">
<!-- Generated by graphviz version 2.38.0 (20140413.2041)
 -->
<!-- Title: CHero::printStats Pages: 1 -->
<svg width="432pt" height="104pt"
 viewBox="0.00 0.00 432.00 104.00" xmlns="http://www.w3.org/2000/svg" xmlns:xlink="http://www.w3.org/1999/xlink">
<g id="graph0" class="graph" transform="scale(1 1) rotate(0) translate(4 100)">
<title>CHero::printStats</title>
<!-- Node81 -->
<g id="node1" class="node"><title>Node81</title>
<polygon fill="#bfbfbf" stroke="black" points="0,-38.5 0,-57.5 92,-57.5 92,-38.5 0,-38.5"/>
<text text-anchor="middle" x="46" y="-45.5" font-family="Helvetica,sans-Serif" font-size="10.00">CHero::printStats</text>
</g>
<!-- Node82 -->
<g id="node2" class="node"><title>Node82</title>
<g id="a_node2"><a xlink:href="class_c_display.html#a53b65673a9b0bfc807a3a1e448962928" target="_top" xlink:title="CDisplay::printWithDelimiter">
<polygon fill="none" stroke="black" points="128,-76.5 128,-95.5 267,-95.5 267,-76.5 128,-76.5"/>
<text text-anchor="middle" x="197.5" y="-83.5" font-family="Helvetica,sans-Serif" font-size="10.00">CDisplay::printWithDelimiter</text>
</a>
</g>
</g>
<!-- Node81&#45;&gt;Node82 -->
<g id="edge1" class="edge"><title>Node81&#45;&gt;Node82</title>
<path fill="none" stroke="midnightblue" d="M84.7252,-57.589C104.276,-62.5583 128.347,-68.6767 149.137,-73.9613"/>
<polygon fill="midnightblue" stroke="midnightblue" points="148.492,-77.4085 159.046,-76.4799 150.217,-70.6243 148.492,-77.4085"/>
</g>
<!-- Node84 -->
<g id="node4" class="node"><title>Node84</title>
<g id="a_node4"><a xlink:href="class_c_hero.html#a1be25c88254db1f753e1ce89da03ef46" target="_top" xlink:title="CHero::getAttack">
<polygon fill="none" stroke="black" points="151.5,-38.5 151.5,-57.5 243.5,-57.5 243.5,-38.5 151.5,-38.5"/>
<text text-anchor="middle" x="197.5" y="-45.5" font-family="Helvetica,sans-Serif" font-size="10.00">CHero::getAttack</text>
</a>
</g>
</g>
<!-- Node81&#45;&gt;Node84 -->
<g id="edge3" class="edge"><title>Node81&#45;&gt;Node84</title>
<path fill="none" stroke="midnightblue" d="M92.2606,-48C107.629,-48 124.979,-48 141.05,-48"/>
<polygon fill="midnightblue" stroke="midnightblue" points="141.393,-51.5001 151.393,-48 141.393,-44.5001 141.393,-51.5001"/>
</g>
<!-- Node86 -->
<g id="node6" class="node"><title>Node86</title>
<g id="a_node6"><a xlink:href="class_c_hero.html#a50d1e46ce5b1d84c6ed04493f1d71f81" target="_top" xlink:title="CHero::getArmour">
<polygon fill="none" stroke="black" points="150,-0.5 150,-19.5 245,-19.5 245,-0.5 150,-0.5"/>
<text text-anchor="middle" x="197.5" y="-7.5" font-family="Helvetica,sans-Serif" font-size="10.00">CHero::getArmour</text>
</a>
</g>
</g>
<!-- Node81&#45;&gt;Node86 -->
<g id="edge5" class="edge"><title>Node81&#45;&gt;Node86</title>
<path fill="none" stroke="midnightblue" d="M84.7252,-38.411C104.276,-33.4417 128.347,-27.3233 149.137,-22.0387"/>
<polygon fill="midnightblue" stroke="midnightblue" points="150.217,-25.3757 159.046,-19.5201 148.492,-18.5915 150.217,-25.3757"/>
</g>
<!-- Node83 -->
<g id="node3" class="node"><title>Node83</title>
<g id="a_node3"><a xlink:href="class_c_display.html#af350b35b44fc756e0c721ec4ee56c67a" target="_top" xlink:title="CDisplay::printDelimiter">
<polygon fill="none" stroke="black" points="304,-76.5 304,-95.5 423,-95.5 423,-76.5 304,-76.5"/>
<text text-anchor="middle" x="363.5" y="-83.5" font-family="Helvetica,sans-Serif" font-size="10.00">CDisplay::printDelimiter</text>
</a>
</g>
</g>
<!-- Node82&#45;&gt;Node83 -->
<g id="edge2" class="edge"><title>Node82&#45;&gt;Node83</title>
<path fill="none" stroke="midnightblue" d="M267.101,-86C275.87,-86 284.849,-86 293.623,-86"/>
<polygon fill="midnightblue" stroke="midnightblue" points="293.802,-89.5001 303.802,-86 293.802,-82.5001 293.802,-89.5001"/>
</g>
<!-- Node85 -->
<g id="node5" class="node"><title>Node85</title>
<g id="a_node5"><a xlink:href="class_c_equipment.html#a6b27732ece0ab3c74bff006093dc5a7d" target="_top" xlink:title="CEquipment::getAttack">
<polygon fill="none" stroke="black" points="304.5,-38.5 304.5,-57.5 422.5,-57.5 422.5,-38.5 304.5,-38.5"/>
<text text-anchor="middle" x="363.5" y="-45.5" font-family="Helvetica,sans-Serif" font-size="10.00">CEquipment::getAttack</text>
</a>
</g>
</g>
<!-- Node84&#45;&gt;Node85 -->
<g id="edge4" class="edge"><title>Node84&#45;&gt;Node85</title>
<path fill="none" stroke="midnightblue" d="M243.748,-48C259.294,-48 277.062,-48 294.034,-48"/>
<polygon fill="midnightblue" stroke="midnightblue" points="294.472,-51.5001 304.472,-48 294.472,-44.5001 294.472,-51.5001"/>
</g>
<!-- Node87 -->
<g id="node7" class="node"><title>Node87</title>
<g id="a_node7"><a xlink:href="class_c_equipment.html#a27e962aead56bb39886acc86c17b7478" target="_top" xlink:title="CEquipment::getArmour">
<polygon fill="none" stroke="black" points="303,-0.5 303,-19.5 424,-19.5 424,-0.5 303,-0.5"/>
<text text-anchor="middle" x="363.5" y="-7.5" font-family="Helvetica,sans-Serif" font-size="10.00">CEquipment::getArmour</text>
</a>
</g>
</g>
<!-- Node86&#45;&gt;Node87 -->
<g id="edge6" class="edge"><title>Node86&#45;&gt;Node87</title>
<path fill="none" stroke="midnightblue" d="M245.057,-10C259.817,-10 276.473,-10 292.504,-10"/>
<polygon fill="midnightblue" stroke="midnightblue" points="292.923,-13.5001 302.923,-10 292.923,-6.5001 292.923,-13.5001"/>
</g>
</g>
</svg>
