<?xml version="1.0" encoding="UTF-8" standalone="no"?>
<!DOCTYPE svg PUBLIC "-//W3C//DTD SVG 1.1//EN"
 "http://www.w3.org/Graphics/SVG/1.1/DTD/svg11.dtd">
<!-- Generated by graphviz version 2.38.0 (20140413.2041)
 -->
<!-- Title: CWorld::loadItems Pages: 1 -->
<svg width="449pt" height="116pt"
 viewBox="0.00 0.00 449.00 115.50" xmlns="http://www.w3.org/2000/svg" xmlns:xlink="http://www.w3.org/1999/xlink">
<g id="graph0" class="graph" transform="scale(1 1) rotate(0) translate(4 111.5)">
<title>CWorld::loadItems</title>
<!-- Node55 -->
<g id="node1" class="node"><title>Node55</title>
<polygon fill="#bfbfbf" stroke="black" points="0,-38.5 0,-57.5 97,-57.5 97,-38.5 0,-38.5"/>
<text text-anchor="middle" x="48.5" y="-45.5" font-family="Helvetica,sans-Serif" font-size="10.00">CWorld::loadItems</text>
</g>
<!-- Node56 -->
<g id="node2" class="node"><title>Node56</title>
<g id="a_node2"><a xlink:href="class_c_stream_decoder.html#aeaef1aa3239cf7b5d00397b6e46f67d1" target="_top" xlink:title="CStreamDecoder::getString\lAsInt">
<polygon fill="none" stroke="black" points="133,-77 133,-107 269,-107 269,-77 133,-77"/>
<text text-anchor="start" x="141" y="-95" font-family="Helvetica,sans-Serif" font-size="10.00">CStreamDecoder::getString</text>
<text text-anchor="middle" x="201" y="-84" font-family="Helvetica,sans-Serif" font-size="10.00">AsInt</text>
</a>
</g>
</g>
<!-- Node55&#45;&gt;Node56 -->
<g id="edge1" class="edge"><title>Node55&#45;&gt;Node56</title>
<path fill="none" stroke="midnightblue" d="M82.1563,-57.5473C98.7226,-62.3906 119.396,-68.4346 138.781,-74.102"/>
<polygon fill="midnightblue" stroke="midnightblue" points="137.889,-77.4878 148.47,-76.9346 139.854,-70.7691 137.889,-77.4878"/>
</g>
<!-- Node57 -->
<g id="node3" class="node"><title>Node57</title>
<g id="a_node3"><a xlink:href="class_c_stream_decoder.html#a736a4660fb1fc91ffc7345050f815994" target="_top" xlink:title="CStreamDecoder::getString">
<polygon fill="none" stroke="black" points="305,-60.5 305,-79.5 441,-79.5 441,-60.5 305,-60.5"/>
<text text-anchor="middle" x="373" y="-67.5" font-family="Helvetica,sans-Serif" font-size="10.00">CStreamDecoder::getString</text>
</a>
</g>
</g>
<!-- Node55&#45;&gt;Node57 -->
<g id="edge3" class="edge"><title>Node55&#45;&gt;Node57</title>
<path fill="none" stroke="midnightblue" d="M97.086,-51.2462C149.118,-54.7957 233.278,-60.5368 294.791,-64.733"/>
<polygon fill="midnightblue" stroke="midnightblue" points="294.629,-68.23 304.844,-65.4188 295.106,-61.2463 294.629,-68.23"/>
</g>
<!-- Node58 -->
<g id="node4" class="node"><title>Node58</title>
<g id="a_node4"><a xlink:href="class_c_stream_decoder.html#a4ddd62e9d414ff656f5708e3c0c39b36" target="_top" xlink:title="CStreamDecoder::getText">
<polygon fill="none" stroke="black" points="136.5,-0.5 136.5,-19.5 265.5,-19.5 265.5,-0.5 136.5,-0.5"/>
<text text-anchor="middle" x="201" y="-7.5" font-family="Helvetica,sans-Serif" font-size="10.00">CStreamDecoder::getText</text>
</a>
</g>
</g>
<!-- Node55&#45;&gt;Node58 -->
<g id="edge4" class="edge"><title>Node55&#45;&gt;Node58</title>
<path fill="none" stroke="midnightblue" d="M87.4775,-38.411C107.159,-33.4417 131.391,-27.3233 152.321,-22.0387"/>
<polygon fill="midnightblue" stroke="midnightblue" points="153.457,-25.3617 162.296,-19.5201 151.743,-18.5747 153.457,-25.3617"/>
</g>
<!-- Node56&#45;&gt;Node57 -->
<g id="edge2" class="edge"><title>Node56&#45;&gt;Node57</title>
<path fill="none" stroke="midnightblue" d="M269.189,-83.305C277.593,-82.2173 286.242,-81.0981 294.784,-79.9926"/>
<polygon fill="midnightblue" stroke="midnightblue" points="295.275,-83.4584 304.743,-78.7039 294.376,-76.5163 295.275,-83.4584"/>
</g>
</g>
</svg>
