<?xml version="1.0" encoding="UTF-8" standalone="no"?>
<!DOCTYPE svg PUBLIC "-//W3C//DTD SVG 1.1//EN"
 "http://www.w3.org/Graphics/SVG/1.1/DTD/svg11.dtd">
<!-- Generated by graphviz version 2.38.0 (20140413.2041)
 -->
<!-- Title: CStoryline::exportData Pages: 1 -->
<svg width="861pt" height="66pt"
 viewBox="0.00 0.00 861.00 66.00" xmlns="http://www.w3.org/2000/svg" xmlns:xlink="http://www.w3.org/1999/xlink">
<g id="graph0" class="graph" transform="scale(1 1) rotate(0) translate(4 62)">
<title>CStoryline::exportData</title>
<!-- Node1 -->
<g id="node1" class="node"><title>Node1</title>
<polygon fill="#bfbfbf" stroke="black" points="0,-19.5 0,-38.5 115,-38.5 115,-19.5 0,-19.5"/>
<text text-anchor="middle" x="57.5" y="-26.5" font-family="Helvetica,sans-Serif" font-size="10.00">CStoryline::exportData</text>
</g>
<!-- Node2 -->
<g id="node2" class="node"><title>Node2</title>
<g id="a_node2"><a xlink:href="class_c_game.html#a7d821ce9a0454653bbfde69979155da9" target="_top" xlink:title="CGame::exportPlayerData">
<polygon fill="none" stroke="black" points="151,-19.5 151,-38.5 282,-38.5 282,-19.5 151,-19.5"/>
<text text-anchor="middle" x="216.5" y="-26.5" font-family="Helvetica,sans-Serif" font-size="10.00">CGame::exportPlayerData</text>
</a>
</g>
</g>
<!-- Node1&#45;&gt;Node2 -->
<g id="edge1" class="edge"><title>Node1&#45;&gt;Node2</title>
<path fill="none" stroke="midnightblue" d="M125.381,-29C133.84,-29 142.483,-29 150.906,-29"/>
<polygon fill="midnightblue" stroke="midnightblue" points="125.181,-25.5001 115.181,-29 125.181,-32.5001 125.181,-25.5001"/>
</g>
<!-- Node3 -->
<g id="node3" class="node"><title>Node3</title>
<g id="a_node3"><a xlink:href="class_c_game.html#a49656fe4404b3df63f2dbebd9b754edd" target="_top" xlink:title="CGame::saveGame">
<polygon fill="none" stroke="black" points="318,-19.5 318,-38.5 419,-38.5 419,-19.5 318,-19.5"/>
<text text-anchor="middle" x="368.5" y="-26.5" font-family="Helvetica,sans-Serif" font-size="10.00">CGame::saveGame</text>
</a>
</g>
</g>
<!-- Node2&#45;&gt;Node3 -->
<g id="edge2" class="edge"><title>Node2&#45;&gt;Node3</title>
<path fill="none" stroke="midnightblue" d="M292.495,-29C301.101,-29 309.707,-29 317.86,-29"/>
<polygon fill="midnightblue" stroke="midnightblue" points="292.42,-25.5001 282.42,-29 292.42,-32.5001 292.42,-25.5001"/>
</g>
<!-- Node4 -->
<g id="node4" class="node"><title>Node4</title>
<g id="a_node4"><a xlink:href="class_c_game.html#a714b291af5e20aae8be14a905fd0522d" target="_top" xlink:title="CGame::tickComponent">
<polygon fill="none" stroke="black" points="455,-19.5 455,-38.5 576,-38.5 576,-19.5 455,-19.5"/>
<text text-anchor="middle" x="515.5" y="-26.5" font-family="Helvetica,sans-Serif" font-size="10.00">CGame::tickComponent</text>
</a>
</g>
</g>
<!-- Node3&#45;&gt;Node4 -->
<g id="edge3" class="edge"><title>Node3&#45;&gt;Node4</title>
<path fill="none" stroke="midnightblue" d="M429.451,-29C437.81,-29 446.398,-29 454.753,-29"/>
<polygon fill="midnightblue" stroke="midnightblue" points="429.401,-25.5001 419.401,-29 429.401,-32.5001 429.401,-25.5001"/>
</g>
<!-- Node5 -->
<g id="node5" class="node"><title>Node5</title>
<g id="a_node5"><a xlink:href="class_c_game.html#aa9d3da2fefa1c04faefc6586dbd37971" target="_top" xlink:title="CGame::play">
<polygon fill="none" stroke="black" points="612,-0.5 612,-19.5 686,-19.5 686,-0.5 612,-0.5"/>
<text text-anchor="middle" x="649" y="-7.5" font-family="Helvetica,sans-Serif" font-size="10.00">CGame::play</text>
</a>
</g>
</g>
<!-- Node4&#45;&gt;Node5 -->
<g id="edge4" class="edge"><title>Node4&#45;&gt;Node5</title>
<path fill="none" stroke="midnightblue" d="M586.157,-18.9354C595.065,-17.6483 603.878,-16.3751 611.937,-15.2107"/>
<polygon fill="midnightblue" stroke="midnightblue" points="585.491,-15.4953 576.094,-20.3895 586.492,-22.4234 585.491,-15.4953"/>
</g>
<!-- Node6 -->
<g id="node6" class="node"><title>Node6</title>
<g id="a_node6"><a xlink:href="class_c_game.html#ac0a8028013ca5a7c135c29fa582df4a0" target="_top" xlink:title="CGame::checkHeroStatus">
<polygon fill="none" stroke="black" points="722,-38.5 722,-57.5 853,-57.5 853,-38.5 722,-38.5"/>
<text text-anchor="middle" x="787.5" y="-45.5" font-family="Helvetica,sans-Serif" font-size="10.00">CGame::checkHeroStatus</text>
</a>
</g>
</g>
<!-- Node5&#45;&gt;Node6 -->
<g id="edge5" class="edge"><title>Node5&#45;&gt;Node6</title>
<path fill="none" stroke="midnightblue" d="M694.249,-22.3183C713.003,-27.5393 734.528,-33.5316 752.066,-38.4141"/>
<polygon fill="midnightblue" stroke="midnightblue" points="695.017,-18.8992 684.445,-19.589 693.14,-25.6428 695.017,-18.8992"/>
</g>
<!-- Node7 -->
<g id="node7" class="node"><title>Node7</title>
<g id="a_node7"><a xlink:href="main_8cpp.html#ae66f6b31b5ad750f1fe042a706a4e3d4" target="_top" xlink:title="main">
<polygon fill="none" stroke="black" points="768.5,-0.5 768.5,-19.5 806.5,-19.5 806.5,-0.5 768.5,-0.5"/>
<text text-anchor="middle" x="787.5" y="-7.5" font-family="Helvetica,sans-Serif" font-size="10.00">main</text>
</a>
</g>
</g>
<!-- Node5&#45;&gt;Node7 -->
<g id="edge7" class="edge"><title>Node5&#45;&gt;Node7</title>
<path fill="none" stroke="midnightblue" d="M696.458,-10C721.045,-10 749.849,-10 768.132,-10"/>
<polygon fill="midnightblue" stroke="midnightblue" points="696.221,-6.5001 686.221,-10 696.221,-13.5001 696.221,-6.5001"/>
</g>
<!-- Node6&#45;&gt;Node4 -->
<g id="edge6" class="edge"><title>Node6&#45;&gt;Node4</title>
<path fill="none" stroke="midnightblue" d="M711.793,-42.7429C669.008,-39.7321 616.055,-36.0057 576.087,-33.1932"/>
<polygon fill="midnightblue" stroke="midnightblue" points="711.654,-46.2416 721.875,-43.4523 712.146,-39.2589 711.654,-46.2416"/>
</g>
</g>
</svg>
