<?xml version="1.0" encoding="UTF-8" standalone="no"?>
<!DOCTYPE svg PUBLIC "-//W3C//DTD SVG 1.1//EN"
 "http://www.w3.org/Graphics/SVG/1.1/DTD/svg11.dtd">
<!-- Generated by graphviz version 2.38.0 (20140413.2041)
 -->
<!-- Title: CFight Pages: 1 -->
<svg width="286pt" height="353pt"
 viewBox="0.00 0.00 285.93 353.00" xmlns="http://www.w3.org/2000/svg" xmlns:xlink="http://www.w3.org/1999/xlink">
<g id="graph0" class="graph" transform="scale(1 1) rotate(0) translate(4 349)">
<title>CFight</title>
<!-- Node2 -->
<g id="node1" class="node"><title>Node2</title>
<polygon fill="#bfbfbf" stroke="black" points="74.9349,-0.5 74.9349,-90.5 140.935,-90.5 140.935,-0.5 74.9349,-0.5"/>
<text text-anchor="middle" x="107.935" y="-78.5" font-family="Helvetica,sans-Serif" font-size="10.00">CFight</text>
<polyline fill="none" stroke="black" points="74.9349,-71.5 140.935,-71.5 "/>
<text text-anchor="middle" x="107.935" y="-59.5" font-family="Helvetica,sans-Serif" font-size="10.00"> </text>
<polyline fill="none" stroke="black" points="74.9349,-52.5 140.935,-52.5 "/>
<text text-anchor="start" x="82.9349" y="-40.5" font-family="Helvetica,sans-Serif" font-size="10.00">+ CFight()</text>
<text text-anchor="start" x="82.9349" y="-29.5" font-family="Helvetica,sans-Serif" font-size="10.00">+ CFight()</text>
<text text-anchor="start" x="82.9349" y="-18.5" font-family="Helvetica,sans-Serif" font-size="10.00">+ print()</text>
<text text-anchor="start" x="82.9349" y="-7.5" font-family="Helvetica,sans-Serif" font-size="10.00">+ execute()</text>
</g>
<!-- Node3 -->
<g id="node2" class="node"><title>Node3</title>
<g id="a_node2"><a xlink:href="class_c_event.html" target="_top" xlink:title="{CEvent\n||+ CEvent()\l+ ~CEvent()\l+ print()\l+ execute()\l}">
<polygon fill="none" stroke="black" points="73.9349,-138.5 73.9349,-228.5 141.935,-228.5 141.935,-138.5 73.9349,-138.5"/>
<text text-anchor="middle" x="107.935" y="-216.5" font-family="Helvetica,sans-Serif" font-size="10.00">CEvent</text>
<polyline fill="none" stroke="black" points="73.9349,-209.5 141.935,-209.5 "/>
<text text-anchor="middle" x="107.935" y="-197.5" font-family="Helvetica,sans-Serif" font-size="10.00"> </text>
<polyline fill="none" stroke="black" points="73.9349,-190.5 141.935,-190.5 "/>
<text text-anchor="start" x="81.9349" y="-178.5" font-family="Helvetica,sans-Serif" font-size="10.00">+ CEvent()</text>
<text text-anchor="start" x="81.9349" y="-167.5" font-family="Helvetica,sans-Serif" font-size="10.00">+ ~CEvent()</text>
<text text-anchor="start" x="81.9349" y="-156.5" font-family="Helvetica,sans-Serif" font-size="10.00">+ print()</text>
<text text-anchor="start" x="81.9349" y="-145.5" font-family="Helvetica,sans-Serif" font-size="10.00">+ execute()</text>
</a>
</g>
</g>
<!-- Node3&#45;&gt;Node2 -->
<g id="edge1" class="edge"><title>Node3&#45;&gt;Node2</title>
<path fill="none" stroke="midnightblue" d="M107.935,-128.145C107.935,-115.782 107.935,-102.791 107.935,-90.8992"/>
<polygon fill="none" stroke="midnightblue" points="104.435,-128.345 107.935,-138.345 111.435,-128.345 104.435,-128.345"/>
</g>
<!-- Node4 -->
<g id="node3" class="node"><title>Node4</title>
<polygon fill="none" stroke="#bfbfbf" points="7.43495,-287.5 7.43495,-344.5 36.4349,-344.5 36.4349,-287.5 7.43495,-287.5"/>
<text text-anchor="middle" x="21.9349" y="-332.5" font-family="Helvetica,sans-Serif" font-size="10.00">int</text>
<polyline fill="none" stroke="#bfbfbf" points="7.43495,-325.5 36.4349,-325.5 "/>
<text text-anchor="middle" x="21.9349" y="-313.5" font-family="Helvetica,sans-Serif" font-size="10.00"> </text>
<polyline fill="none" stroke="#bfbfbf" points="7.43495,-306.5 36.4349,-306.5 "/>
<text text-anchor="middle" x="21.9349" y="-294.5" font-family="Helvetica,sans-Serif" font-size="10.00"> </text>
</g>
<!-- Node4&#45;&gt;Node2 -->
<g id="edge4" class="edge"><title>Node4&#45;&gt;Node2</title>
<path fill="none" stroke="#404040" d="M13.0238,-287.306C3.04625,-251.306 -9.15142,-187.228 11.9349,-138 22.842,-112.536 44.7009,-90.7973 64.8084,-74.906"/>
<polygon fill="none" stroke="#404040" points="64.9144,-74.8258 67.2847,-68.0153 74.483,-67.5839 72.1126,-74.3944 64.9144,-74.8258"/>
<text text-anchor="middle" x="38.4349" y="-181" font-family="Helvetica,sans-Serif" font-size="10.00"> #creatureID</text>
</g>
<!-- Node4&#45;&gt;Node3 -->
<g id="edge2" class="edge"><title>Node4&#45;&gt;Node3</title>
<path fill="none" stroke="#404040" d="M36.5524,-290.543C44.4709,-277.499 54.5339,-261.245 63.9349,-247 65.7235,-244.29 67.572,-241.527 69.4529,-238.746"/>
<polygon fill="none" stroke="#404040" points="69.5782,-238.563 69.6654,-231.352 76.3548,-228.659 76.2677,-235.87 69.5782,-238.563"/>
<text text-anchor="middle" x="83.9349" y="-255.5" font-family="Helvetica,sans-Serif" font-size="10.00"> #eventID</text>
</g>
<!-- Node5 -->
<g id="node4" class="node"><title>Node5</title>
<polygon fill="none" stroke="#bfbfbf" points="87.4349,-287.5 87.4349,-344.5 128.435,-344.5 128.435,-287.5 87.4349,-287.5"/>
<text text-anchor="middle" x="107.935" y="-332.5" font-family="Helvetica,sans-Serif" font-size="10.00">string</text>
<polyline fill="none" stroke="#bfbfbf" points="87.4349,-325.5 128.435,-325.5 "/>
<text text-anchor="middle" x="107.935" y="-313.5" font-family="Helvetica,sans-Serif" font-size="10.00"> </text>
<polyline fill="none" stroke="#bfbfbf" points="87.4349,-306.5 128.435,-306.5 "/>
<text text-anchor="middle" x="107.935" y="-294.5" font-family="Helvetica,sans-Serif" font-size="10.00"> </text>
</g>
<!-- Node5&#45;&gt;Node3 -->
<g id="edge3" class="edge"><title>Node5&#45;&gt;Node3</title>
<path fill="none" stroke="#404040" d="M107.935,-287.324C107.935,-273.731 107.935,-256.837 107.935,-240.696"/>
<polygon fill="none" stroke="#404040" points="107.935,-240.568 103.935,-234.568 107.935,-228.568 111.935,-234.568 107.935,-240.568"/>
<text text-anchor="middle" x="136.435" y="-261" font-family="Helvetica,sans-Serif" font-size="10.00"> #eventName</text>
<text text-anchor="middle" x="136.435" y="-250" font-family="Helvetica,sans-Serif" font-size="10.00">#text</text>
</g>
<!-- Node6 -->
<g id="node5" class="node"><title>Node6</title>
<polygon fill="none" stroke="#bfbfbf" points="160.435,-149.5 160.435,-217.5 273.435,-217.5 273.435,-149.5 160.435,-149.5"/>
<text text-anchor="start" x="168.435" y="-205.5" font-family="Helvetica,sans-Serif" font-size="10.00">vector&lt; std::pair&lt;</text>
<text text-anchor="middle" x="216.935" y="-194.5" font-family="Helvetica,sans-Serif" font-size="10.00"> std::string, action &gt; &gt;</text>
<polyline fill="none" stroke="#bfbfbf" points="160.435,-187.5 273.435,-187.5 "/>
<text text-anchor="middle" x="216.935" y="-175.5" font-family="Helvetica,sans-Serif" font-size="10.00"> </text>
<polyline fill="none" stroke="#bfbfbf" points="160.435,-168.5 273.435,-168.5 "/>
<text text-anchor="middle" x="216.935" y="-156.5" font-family="Helvetica,sans-Serif" font-size="10.00"> </text>
</g>
<!-- Node6&#45;&gt;Node2 -->
<g id="edge5" class="edge"><title>Node6&#45;&gt;Node2</title>
<path fill="none" stroke="#404040" d="M190.271,-149.231C177.72,-133.572 162.479,-114.554 148.537,-97.1592"/>
<polygon fill="none" stroke="#404040" points="148.455,-97.0575 141.582,-94.8772 140.951,-87.6938 147.824,-89.874 148.455,-97.0575"/>
<text text-anchor="middle" x="221.935" y="-112" font-family="Helvetica,sans-Serif" font-size="10.00"> #enemyEncounterChoice</text>
</g>
</g>
</svg>
