<?xml version="1.0" encoding="UTF-8" standalone="no"?>
<!DOCTYPE svg PUBLIC "-//W3C//DTD SVG 1.1//EN"
 "http://www.w3.org/Graphics/SVG/1.1/DTD/svg11.dtd">
<!-- Generated by graphviz version 2.38.0 (20140413.2041)
 -->
<!-- Title: CFight::execute Pages: 1 -->
<svg width="595pt" height="439pt"
 viewBox="0.00 0.00 595.00 439.42" xmlns="http://www.w3.org/2000/svg" xmlns:xlink="http://www.w3.org/1999/xlink">
<g id="graph0" class="graph" transform="scale(1 1) rotate(0) translate(4 435.421)">
<title>CFight::execute</title>
<!-- Node4 -->
<g id="node1" class="node"><title>Node4</title>
<polygon fill="#bfbfbf" stroke="black" points="0,-209.5 0,-228.5 86,-228.5 86,-209.5 0,-209.5"/>
<text text-anchor="middle" x="43" y="-216.5" font-family="Helvetica,sans-Serif" font-size="10.00">CFight::execute</text>
</g>
<!-- Node5 -->
<g id="node2" class="node"><title>Node5</title>
<g id="a_node2"><a xlink:href="class_c_display.html#a53b65673a9b0bfc807a3a1e448962928" target="_top" xlink:title="CDisplay::printWithDelimiter">
<polygon fill="none" stroke="black" points="122,-380.5 122,-399.5 261,-399.5 261,-380.5 122,-380.5"/>
<text text-anchor="middle" x="191.5" y="-387.5" font-family="Helvetica,sans-Serif" font-size="10.00">CDisplay::printWithDelimiter</text>
</a>
</g>
</g>
<!-- Node4&#45;&gt;Node5 -->
<g id="edge1" class="edge"><title>Node4&#45;&gt;Node5</title>
<path fill="none" stroke="midnightblue" d="M46.0621,-228.53C52.3642,-255.312 73.9394,-331.846 122,-371 124.243,-372.827 126.649,-374.479 129.169,-375.972"/>
<polygon fill="midnightblue" stroke="midnightblue" points="127.605,-379.102 138.112,-380.462 130.746,-372.847 127.605,-379.102"/>
</g>
<!-- Node6 -->
<g id="node3" class="node"><title>Node6</title>
<g id="a_node3"><a xlink:href="class_c_display.html#af350b35b44fc756e0c721ec4ee56c67a" target="_top" xlink:title="CDisplay::printDelimiter">
<polygon fill="none" stroke="black" points="304,-380.5 304,-399.5 423,-399.5 423,-380.5 304,-380.5"/>
<text text-anchor="middle" x="363.5" y="-387.5" font-family="Helvetica,sans-Serif" font-size="10.00">CDisplay::printDelimiter</text>
</a>
</g>
</g>
<!-- Node4&#45;&gt;Node6 -->
<g id="edge16" class="edge"><title>Node4&#45;&gt;Node6</title>
<path fill="none" stroke="midnightblue" d="M44.4614,-228.774C46.5873,-261.311 58.3236,-366.308 122,-409 186.441,-452.205 283.545,-422.937 332.303,-403.456"/>
<polygon fill="midnightblue" stroke="midnightblue" points="333.755,-406.643 341.666,-399.596 331.087,-400.172 333.755,-406.643"/>
</g>
<!-- Node7 -->
<g id="node4" class="node"><title>Node7</title>
<g id="a_node4"><a xlink:href="class_c_display.html#a54c5d36f4bc11d4a935ff5c86ea4e653" target="_top" xlink:title="CDisplay::print">
<polygon fill="none" stroke="black" points="323.5,-304.5 323.5,-323.5 403.5,-323.5 403.5,-304.5 323.5,-304.5"/>
<text text-anchor="middle" x="363.5" y="-311.5" font-family="Helvetica,sans-Serif" font-size="10.00">CDisplay::print</text>
</a>
</g>
</g>
<!-- Node4&#45;&gt;Node7 -->
<g id="edge3" class="edge"><title>Node4&#45;&gt;Node7</title>
<path fill="none" stroke="midnightblue" d="M50.3561,-228.592C62.1641,-245.488 89.282,-280.168 122,-295 183.562,-322.908 263.082,-323.181 313.454,-319.569"/>
<polygon fill="midnightblue" stroke="midnightblue" points="313.743,-323.057 323.434,-318.775 313.188,-316.08 313.743,-323.057"/>
</g>
<!-- Node8 -->
<g id="node5" class="node"><title>Node8</title>
<g id="a_node5"><a xlink:href="class_c_creature.html#add6ec843df265dc929acc0c3ef7ba8d0" target="_top" xlink:title="CCreature::getName">
<polygon fill="none" stroke="black" points="139,-266.5 139,-285.5 244,-285.5 244,-266.5 139,-266.5"/>
<text text-anchor="middle" x="191.5" y="-273.5" font-family="Helvetica,sans-Serif" font-size="10.00">CCreature::getName</text>
</a>
</g>
</g>
<!-- Node4&#45;&gt;Node8 -->
<g id="edge4" class="edge"><title>Node4&#45;&gt;Node8</title>
<path fill="none" stroke="midnightblue" d="M65.7036,-228.618C81.2702,-235.409 102.798,-244.583 122,-252 131.786,-255.78 142.451,-259.64 152.389,-263.127"/>
<polygon fill="midnightblue" stroke="midnightblue" points="151.43,-266.499 162.025,-266.474 153.727,-259.887 151.43,-266.499"/>
</g>
<!-- Node9 -->
<g id="node6" class="node"><title>Node9</title>
<g id="a_node6"><a xlink:href="class_c_creature.html#ab586f3c2dd37addfa8281fd4d24c7b54" target="_top" xlink:title="CCreature::getAttack">
<polygon fill="none" stroke="black" points="309.5,-228.5 309.5,-247.5 417.5,-247.5 417.5,-228.5 309.5,-228.5"/>
<text text-anchor="middle" x="363.5" y="-235.5" font-family="Helvetica,sans-Serif" font-size="10.00">CCreature::getAttack</text>
</a>
</g>
</g>
<!-- Node4&#45;&gt;Node9 -->
<g id="edge5" class="edge"><title>Node4&#45;&gt;Node9</title>
<path fill="none" stroke="midnightblue" d="M86.2943,-221.523C140.794,-224.774 236.021,-230.455 299.173,-234.222"/>
<polygon fill="midnightblue" stroke="midnightblue" points="299.218,-237.731 309.409,-234.833 299.635,-230.743 299.218,-237.731"/>
</g>
<!-- Node10 -->
<g id="node7" class="node"><title>Node10</title>
<g id="a_node7"><a xlink:href="class_c_display.html#a7d4efb0285d6cdf757bc34e38718e17d" target="_top" xlink:title="CDisplay::multiChoice">
<polygon fill="none" stroke="black" points="135,-152.5 135,-171.5 248,-171.5 248,-152.5 135,-152.5"/>
<text text-anchor="middle" x="191.5" y="-159.5" font-family="Helvetica,sans-Serif" font-size="10.00">CDisplay::multiChoice</text>
</a>
</g>
</g>
<!-- Node4&#45;&gt;Node10 -->
<g id="edge6" class="edge"><title>Node4&#45;&gt;Node10</title>
<path fill="none" stroke="midnightblue" d="M61.2523,-209.459C76.7952,-201.14 100.447,-189.161 122,-181 128.281,-178.622 134.988,-176.396 141.654,-174.365"/>
<polygon fill="midnightblue" stroke="midnightblue" points="142.723,-177.7 151.34,-171.535 140.759,-170.981 142.723,-177.7"/>
</g>
<!-- Node12 -->
<g id="node9" class="node"><title>Node12</title>
<g id="a_node9"><a xlink:href="class_c_creature.html#a876396dce2bd6e42c09bb9edc72ed0ba" target="_top" xlink:title="CCreature::getText">
<polygon fill="none" stroke="black" points="142.5,-114.5 142.5,-133.5 240.5,-133.5 240.5,-114.5 142.5,-114.5"/>
<text text-anchor="middle" x="191.5" y="-121.5" font-family="Helvetica,sans-Serif" font-size="10.00">CCreature::getText</text>
</a>
</g>
</g>
<!-- Node4&#45;&gt;Node12 -->
<g id="edge8" class="edge"><title>Node4&#45;&gt;Node12</title>
<path fill="none" stroke="midnightblue" d="M51.2636,-209.251C63.8548,-193.047 91.3437,-160.613 122,-143 125.897,-140.761 130.072,-138.774 134.367,-137.013"/>
<polygon fill="midnightblue" stroke="midnightblue" points="135.72,-140.245 143.899,-133.51 133.305,-133.675 135.72,-140.245"/>
</g>
<!-- Node13 -->
<g id="node10" class="node"><title>Node13</title>
<g id="a_node10"><a xlink:href="class_c_hero.html#a7cda26a24b8e70fc2ffe829e9c984b7e" target="_top" xlink:title="CHero::fight">
<polygon fill="none" stroke="black" points="157.5,-190.5 157.5,-209.5 225.5,-209.5 225.5,-190.5 157.5,-190.5"/>
<text text-anchor="middle" x="191.5" y="-197.5" font-family="Helvetica,sans-Serif" font-size="10.00">CHero::fight</text>
</a>
</g>
</g>
<!-- Node4&#45;&gt;Node13 -->
<g id="edge9" class="edge"><title>Node4&#45;&gt;Node13</title>
<path fill="none" stroke="midnightblue" d="M86.3739,-213.504C105.428,-211.033 127.894,-208.12 147.071,-205.632"/>
<polygon fill="midnightblue" stroke="midnightblue" points="147.587,-209.095 157.054,-204.338 146.686,-202.153 147.587,-209.095"/>
</g>
<!-- Node18 -->
<g id="node15" class="node"><title>Node18</title>
<g id="a_node15"><a xlink:href="class_c_hero.html#acf265a146732ccfe08db87b6cc69cef3" target="_top" xlink:title="CHero::isDead">
<polygon fill="none" stroke="black" points="151.5,-76.5 151.5,-95.5 231.5,-95.5 231.5,-76.5 151.5,-76.5"/>
<text text-anchor="middle" x="191.5" y="-83.5" font-family="Helvetica,sans-Serif" font-size="10.00">CHero::isDead</text>
</a>
</g>
</g>
<!-- Node4&#45;&gt;Node18 -->
<g id="edge15" class="edge"><title>Node4&#45;&gt;Node18</title>
<path fill="none" stroke="midnightblue" d="M47.8241,-209.357C57.0664,-187.323 82.7881,-133.033 122,-105 127.936,-100.756 134.784,-97.4595 141.806,-94.8983"/>
<polygon fill="midnightblue" stroke="midnightblue" points="142.95,-98.2072 151.42,-91.8421 140.83,-91.5362 142.95,-98.2072"/>
</g>
<!-- Node19 -->
<g id="node16" class="node"><title>Node19</title>
<g id="a_node16"><a xlink:href="class_c_creature.html#a96cdca38cdd52403c6a6dab222a58f38" target="_top" xlink:title="CCreature::getReward">
<polygon fill="none" stroke="black" points="135.5,-38.5 135.5,-57.5 247.5,-57.5 247.5,-38.5 135.5,-38.5"/>
<text text-anchor="middle" x="191.5" y="-45.5" font-family="Helvetica,sans-Serif" font-size="10.00">CCreature::getReward</text>
</a>
</g>
</g>
<!-- Node4&#45;&gt;Node19 -->
<g id="edge17" class="edge"><title>Node4&#45;&gt;Node19</title>
<path fill="none" stroke="midnightblue" d="M46.0621,-209.47C52.3642,-182.688 73.9394,-106.154 122,-67 124.243,-65.1731 126.649,-63.5214 129.169,-62.0282"/>
<polygon fill="midnightblue" stroke="midnightblue" points="130.746,-65.1531 138.112,-57.5377 127.605,-58.8976 130.746,-65.1531"/>
</g>
<!-- Node20 -->
<g id="node17" class="node"><title>Node20</title>
<g id="a_node17"><a xlink:href="class_c_hero.html#aa184a6841da51966480c2172c2f80134" target="_top" xlink:title="CHero::addXP">
<polygon fill="none" stroke="black" points="153,-342.5 153,-361.5 230,-361.5 230,-342.5 153,-342.5"/>
<text text-anchor="middle" x="191.5" y="-349.5" font-family="Helvetica,sans-Serif" font-size="10.00">CHero::addXP</text>
</a>
</g>
</g>
<!-- Node4&#45;&gt;Node20 -->
<g id="edge18" class="edge"><title>Node4&#45;&gt;Node20</title>
<path fill="none" stroke="midnightblue" d="M48.3684,-228.674C58.3687,-249.765 84.9501,-300.222 122,-328 128.38,-332.783 135.792,-336.669 143.335,-339.807"/>
<polygon fill="midnightblue" stroke="midnightblue" points="142.3,-343.157 152.892,-343.395 144.76,-336.604 142.3,-343.157"/>
</g>
<!-- Node22 -->
<g id="node19" class="node"><title>Node22</title>
<g id="a_node19"><a xlink:href="class_c_hero.html#aa906388b12b8194cf4bfc45a42027322" target="_top" xlink:title="CHero::addGold">
<polygon fill="none" stroke="black" points="148.5,-0.5 148.5,-19.5 234.5,-19.5 234.5,-0.5 148.5,-0.5"/>
<text text-anchor="middle" x="191.5" y="-7.5" font-family="Helvetica,sans-Serif" font-size="10.00">CHero::addGold</text>
</a>
</g>
</g>
<!-- Node4&#45;&gt;Node22 -->
<g id="edge22" class="edge"><title>Node4&#45;&gt;Node22</title>
<path fill="none" stroke="midnightblue" d="M45.0012,-209.426C48.7682,-178.391 64.9302,-79.6539 122,-29 126.846,-24.699 132.585,-21.363 138.647,-18.7771"/>
<polygon fill="midnightblue" stroke="midnightblue" points="140.123,-21.9663 148.358,-15.3 137.763,-15.3761 140.123,-21.9663"/>
</g>
<!-- Node5&#45;&gt;Node6 -->
<g id="edge2" class="edge"><title>Node5&#45;&gt;Node6</title>
<path fill="none" stroke="midnightblue" d="M261.155,-390C271.91,-390 283.027,-390 293.783,-390"/>
<polygon fill="midnightblue" stroke="midnightblue" points="293.96,-393.5 303.96,-390 293.96,-386.5 293.96,-393.5"/>
</g>
<!-- Node11 -->
<g id="node8" class="node"><title>Node11</title>
<g id="a_node8"><a xlink:href="class_c_display.html#aba2a285f19e987f9ba82447f43be2b10" target="_top" xlink:title="CDisplay::dumpToNewLine">
<polygon fill="none" stroke="black" points="297,-114.5 297,-133.5 430,-133.5 430,-114.5 297,-114.5"/>
<text text-anchor="middle" x="363.5" y="-121.5" font-family="Helvetica,sans-Serif" font-size="10.00">CDisplay::dumpToNewLine</text>
</a>
</g>
</g>
<!-- Node10&#45;&gt;Node11 -->
<g id="edge7" class="edge"><title>Node10&#45;&gt;Node11</title>
<path fill="none" stroke="midnightblue" d="M235.398,-152.411C258.034,-147.351 285.998,-141.1 309.929,-135.751"/>
<polygon fill="midnightblue" stroke="midnightblue" points="310.915,-139.117 319.91,-133.52 309.388,-132.286 310.915,-139.117"/>
</g>
<!-- Node13&#45;&gt;Node9 -->
<g id="edge10" class="edge"><title>Node13&#45;&gt;Node9</title>
<path fill="none" stroke="midnightblue" d="M225.681,-207.417C249.606,-212.765 282.386,-220.092 309.863,-226.234"/>
<polygon fill="midnightblue" stroke="midnightblue" points="309.197,-229.672 319.72,-228.437 310.725,-222.84 309.197,-229.672"/>
</g>
<!-- Node14 -->
<g id="node11" class="node"><title>Node14</title>
<g id="a_node11"><a xlink:href="class_c_hero.html#a50d1e46ce5b1d84c6ed04493f1d71f81" target="_top" xlink:title="CHero::getArmour">
<polygon fill="none" stroke="black" points="316,-190.5 316,-209.5 411,-209.5 411,-190.5 316,-190.5"/>
<text text-anchor="middle" x="363.5" y="-197.5" font-family="Helvetica,sans-Serif" font-size="10.00">CHero::getArmour</text>
</a>
</g>
</g>
<!-- Node13&#45;&gt;Node14 -->
<g id="edge11" class="edge"><title>Node13&#45;&gt;Node14</title>
<path fill="none" stroke="midnightblue" d="M225.681,-200C248.372,-200 279.03,-200 305.573,-200"/>
<polygon fill="midnightblue" stroke="midnightblue" points="305.898,-203.5 315.897,-200 305.897,-196.5 305.898,-203.5"/>
</g>
<!-- Node16 -->
<g id="node13" class="node"><title>Node16</title>
<g id="a_node13"><a xlink:href="class_c_hero.html#a1be25c88254db1f753e1ce89da03ef46" target="_top" xlink:title="CHero::getAttack">
<polygon fill="none" stroke="black" points="317.5,-152.5 317.5,-171.5 409.5,-171.5 409.5,-152.5 317.5,-152.5"/>
<text text-anchor="middle" x="363.5" y="-159.5" font-family="Helvetica,sans-Serif" font-size="10.00">CHero::getAttack</text>
</a>
</g>
</g>
<!-- Node13&#45;&gt;Node16 -->
<g id="edge13" class="edge"><title>Node13&#45;&gt;Node16</title>
<path fill="none" stroke="midnightblue" d="M225.681,-192.583C249.606,-187.235 282.386,-179.908 309.863,-173.766"/>
<polygon fill="midnightblue" stroke="midnightblue" points="310.725,-177.16 319.72,-171.563 309.197,-170.328 310.725,-177.16"/>
</g>
<!-- Node15 -->
<g id="node12" class="node"><title>Node15</title>
<g id="a_node12"><a xlink:href="class_c_equipment.html#a27e962aead56bb39886acc86c17b7478" target="_top" xlink:title="CEquipment::getArmour">
<polygon fill="none" stroke="black" points="466,-190.5 466,-209.5 587,-209.5 587,-190.5 466,-190.5"/>
<text text-anchor="middle" x="526.5" y="-197.5" font-family="Helvetica,sans-Serif" font-size="10.00">CEquipment::getArmour</text>
</a>
</g>
</g>
<!-- Node14&#45;&gt;Node15 -->
<g id="edge12" class="edge"><title>Node14&#45;&gt;Node15</title>
<path fill="none" stroke="midnightblue" d="M411.068,-200C424.952,-200 440.484,-200 455.519,-200"/>
<polygon fill="midnightblue" stroke="midnightblue" points="455.821,-203.5 465.821,-200 455.821,-196.5 455.821,-203.5"/>
</g>
<!-- Node17 -->
<g id="node14" class="node"><title>Node17</title>
<g id="a_node14"><a xlink:href="class_c_equipment.html#a6b27732ece0ab3c74bff006093dc5a7d" target="_top" xlink:title="CEquipment::getAttack">
<polygon fill="none" stroke="black" points="467.5,-152.5 467.5,-171.5 585.5,-171.5 585.5,-152.5 467.5,-152.5"/>
<text text-anchor="middle" x="526.5" y="-159.5" font-family="Helvetica,sans-Serif" font-size="10.00">CEquipment::getAttack</text>
</a>
</g>
</g>
<!-- Node16&#45;&gt;Node17 -->
<g id="edge14" class="edge"><title>Node16&#45;&gt;Node17</title>
<path fill="none" stroke="midnightblue" d="M409.776,-162C424.425,-162 441.012,-162 456.958,-162"/>
<polygon fill="midnightblue" stroke="midnightblue" points="457.318,-165.5 467.318,-162 457.318,-158.5 457.318,-165.5"/>
</g>
<!-- Node20&#45;&gt;Node6 -->
<g id="edge21" class="edge"><title>Node20&#45;&gt;Node6</title>
<path fill="none" stroke="midnightblue" d="M230.229,-360.433C253.631,-365.665 284.043,-372.463 309.805,-378.221"/>
<polygon fill="midnightblue" stroke="midnightblue" points="309.268,-381.687 319.79,-380.453 310.795,-374.856 309.268,-381.687"/>
</g>
<!-- Node20&#45;&gt;Node7 -->
<g id="edge20" class="edge"><title>Node20&#45;&gt;Node7</title>
<path fill="none" stroke="midnightblue" d="M230.229,-343.567C254.775,-338.08 287.034,-330.869 313.549,-324.942"/>
<polygon fill="midnightblue" stroke="midnightblue" points="314.406,-328.337 323.402,-322.74 312.879,-321.505 314.406,-328.337"/>
</g>
<!-- Node21 -->
<g id="node18" class="node"><title>Node21</title>
<g id="a_node18"><a xlink:href="struct_hero_stats.html#af28870ab75d59129709abd0b84670a43" target="_top" xlink:title="HeroStats::levelUp">
<polygon fill="none" stroke="black" points="315,-342.5 315,-361.5 412,-361.5 412,-342.5 315,-342.5"/>
<text text-anchor="middle" x="363.5" y="-349.5" font-family="Helvetica,sans-Serif" font-size="10.00">HeroStats::levelUp</text>
</a>
</g>
</g>
<!-- Node20&#45;&gt;Node21 -->
<g id="edge19" class="edge"><title>Node20&#45;&gt;Node21</title>
<path fill="none" stroke="midnightblue" d="M230.229,-352C252.054,-352 279.977,-352 304.538,-352"/>
<polygon fill="midnightblue" stroke="midnightblue" points="304.831,-355.5 314.831,-352 304.831,-348.5 304.831,-355.5"/>
</g>
</g>
</svg>
