<?xml version="1.0" encoding="UTF-8" standalone="no"?>
<!DOCTYPE svg PUBLIC "-//W3C//DTD SVG 1.1//EN"
 "http://www.w3.org/Graphics/SVG/1.1/DTD/svg11.dtd">
<!-- Generated by graphviz version 2.38.0 (20140413.2041)
 -->
<!-- Title: CDisplay::printDelimiter Pages: 1 -->
<svg width="1059pt" height="708pt"
 viewBox="0.00 0.00 1059.00 708.00" xmlns="http://www.w3.org/2000/svg" xmlns:xlink="http://www.w3.org/1999/xlink">
<g id="graph0" class="graph" transform="scale(1 1) rotate(0) translate(4 704)">
<title>CDisplay::printDelimiter</title>
<!-- Node79 -->
<g id="node1" class="node"><title>Node79</title>
<polygon fill="#bfbfbf" stroke="black" points="0,-286.5 0,-305.5 119,-305.5 119,-286.5 0,-286.5"/>
<text text-anchor="middle" x="59.5" y="-293.5" font-family="Helvetica,sans-Serif" font-size="10.00">CDisplay::printDelimiter</text>
</g>
<!-- Node80 -->
<g id="node2" class="node"><title>Node80</title>
<g id="a_node2"><a xlink:href="class_c_display.html#a53b65673a9b0bfc807a3a1e448962928" target="_top" xlink:title="CDisplay::printWithDelimiter">
<polygon fill="none" stroke="black" points="155,-316.5 155,-335.5 294,-335.5 294,-316.5 155,-316.5"/>
<text text-anchor="middle" x="224.5" y="-323.5" font-family="Helvetica,sans-Serif" font-size="10.00">CDisplay::printWithDelimiter</text>
</a>
</g>
</g>
<!-- Node79&#45;&gt;Node80 -->
<g id="edge1" class="edge"><title>Node79&#45;&gt;Node80</title>
<path fill="none" stroke="midnightblue" d="M122.467,-307.405C138.706,-310.394 156.045,-313.585 171.692,-316.465"/>
<polygon fill="midnightblue" stroke="midnightblue" points="122.991,-303.943 112.522,-305.575 121.724,-310.827 122.991,-303.943"/>
</g>
<!-- Node89 -->
<g id="node11" class="node"><title>Node89</title>
<g id="a_node11"><a xlink:href="class_c_game.html#a49656fe4404b3df63f2dbebd9b754edd" target="_top" xlink:title="CGame::saveGame">
<polygon fill="none" stroke="black" points="493,-433.5 493,-452.5 594,-452.5 594,-433.5 493,-433.5"/>
<text text-anchor="middle" x="543.5" y="-440.5" font-family="Helvetica,sans-Serif" font-size="10.00">CGame::saveGame</text>
</a>
</g>
</g>
<!-- Node79&#45;&gt;Node89 -->
<g id="edge39" class="edge"><title>Node79&#45;&gt;Node89</title>
<path fill="none" stroke="midnightblue" d="M82.9252,-311.188C127.603,-340.501 231.886,-404.254 330,-430 384.341,-444.26 449.067,-446.169 492.688,-445.367"/>
<polygon fill="midnightblue" stroke="midnightblue" points="84.8302,-308.251 74.5614,-305.643 80.9625,-314.086 84.8302,-308.251"/>
</g>
<!-- Node91 -->
<g id="node13" class="node"><title>Node91</title>
<g id="a_node13"><a xlink:href="class_c_fight.html#ac820b62e70990ddc90ecb959f4497f8f" target="_top" xlink:title="CFight::execute">
<polygon fill="none" stroke="black" points="348,-38.5 348,-57.5 434,-57.5 434,-38.5 348,-38.5"/>
<text text-anchor="middle" x="391" y="-45.5" font-family="Helvetica,sans-Serif" font-size="10.00">CFight::execute</text>
</a>
</g>
</g>
<!-- Node79&#45;&gt;Node91 -->
<g id="edge37" class="edge"><title>Node79&#45;&gt;Node91</title>
<path fill="none" stroke="midnightblue" d="M129.024,-285.392C181.414,-273.742 251.63,-249.888 294,-202 335.148,-155.493 287.114,-111.909 330,-67 334.905,-61.8636 341.187,-58.1107 347.831,-55.3698"/>
<polygon fill="midnightblue" stroke="midnightblue" points="128.183,-281.993 119.129,-287.496 129.639,-288.84 128.183,-281.993"/>
</g>
<!-- Node93 -->
<g id="node15" class="node"><title>Node93</title>
<g id="a_node15"><a xlink:href="class_c_game.html#accda079824fc813cbd64b4743846ae24" target="_top" xlink:title="CGame::loadGame">
<polygon fill="none" stroke="black" points="341,-680.5 341,-699.5 441,-699.5 441,-680.5 341,-680.5"/>
<text text-anchor="middle" x="391" y="-687.5" font-family="Helvetica,sans-Serif" font-size="10.00">CGame::loadGame</text>
</a>
</g>
</g>
<!-- Node79&#45;&gt;Node93 -->
<g id="edge38" class="edge"><title>Node79&#45;&gt;Node93</title>
<path fill="none" stroke="midnightblue" d="M68.6114,-315.061C83.4195,-348.909 116.845,-421.107 155,-476 221.464,-571.619 232.152,-607.863 330,-671 335.968,-674.851 342.773,-677.971 349.606,-680.483"/>
<polygon fill="midnightblue" stroke="midnightblue" points="71.8099,-313.639 64.6289,-305.849 65.3847,-316.417 71.8099,-313.639"/>
</g>
<!-- Node102 -->
<g id="node24" class="node"><title>Node102</title>
<g id="a_node24"><a xlink:href="class_c_trap.html#a0b0925310ffbfa28f877ac5669f8bb20" target="_top" xlink:title="CTrap::execute">
<polygon fill="none" stroke="black" points="349.5,-0.5 349.5,-19.5 432.5,-19.5 432.5,-0.5 349.5,-0.5"/>
<text text-anchor="middle" x="391" y="-7.5" font-family="Helvetica,sans-Serif" font-size="10.00">CTrap::execute</text>
</a>
</g>
</g>
<!-- Node79&#45;&gt;Node102 -->
<g id="edge42" class="edge"><title>Node79&#45;&gt;Node102</title>
<path fill="none" stroke="midnightblue" d="M71.2525,-277.617C87.3993,-250.883 119.793,-200.489 155,-164 223.207,-93.3095 242.955,-74.5245 330,-29 337.068,-25.3034 344.984,-22.1701 352.689,-19.5794"/>
<polygon fill="midnightblue" stroke="midnightblue" points="68.1751,-275.944 66.0636,-286.327 74.1887,-279.527 68.1751,-275.944"/>
</g>
<!-- Node103 -->
<g id="node25" class="node"><title>Node103</title>
<g id="a_node25"><a xlink:href="class_c_hero.html#aa184a6841da51966480c2172c2f80134" target="_top" xlink:title="CHero::addXP">
<polygon fill="none" stroke="black" points="186,-173.5 186,-192.5 263,-192.5 263,-173.5 186,-173.5"/>
<text text-anchor="middle" x="224.5" y="-180.5" font-family="Helvetica,sans-Serif" font-size="10.00">CHero::addXP</text>
</a>
</g>
</g>
<!-- Node79&#45;&gt;Node103 -->
<g id="edge40" class="edge"><title>Node79&#45;&gt;Node103</title>
<path fill="none" stroke="midnightblue" d="M82.7942,-280.544C116.992,-256.837 181.399,-212.187 209.638,-192.61"/>
<polygon fill="midnightblue" stroke="midnightblue" points="80.6215,-277.792 74.3973,-286.366 84.6097,-283.545 80.6215,-277.792"/>
</g>
<!-- Node81 -->
<g id="node3" class="node"><title>Node81</title>
<g id="a_node3"><a xlink:href="class_c_choice.html#aeccaa71a8fcd358215fe0ddbc37ab143" target="_top" xlink:title="CChoice::execute">
<polygon fill="none" stroke="black" points="344,-642.5 344,-661.5 438,-661.5 438,-642.5 344,-642.5"/>
<text text-anchor="middle" x="391" y="-649.5" font-family="Helvetica,sans-Serif" font-size="10.00">CChoice::execute</text>
</a>
</g>
</g>
<!-- Node80&#45;&gt;Node81 -->
<g id="edge2" class="edge"><title>Node80&#45;&gt;Node81</title>
<path fill="none" stroke="midnightblue" d="M229.684,-345.329C243.168,-405.985 287.103,-591.012 330,-633 333.982,-636.898 338.759,-639.997 343.856,-642.46"/>
<polygon fill="midnightblue" stroke="midnightblue" points="233.092,-344.53 227.528,-335.514 226.255,-346.032 233.092,-344.53"/>
</g>
<!-- Node82 -->
<g id="node4" class="node"><title>Node82</title>
<g id="a_node4"><a xlink:href="class_c_dialogue_n_p_c.html#a6a7d83e9c13789f6804a8b5323d572f8" target="_top" xlink:title="CDialogueNPC::execute">
<polygon fill="none" stroke="black" points="330,-604.5 330,-623.5 452,-623.5 452,-604.5 330,-604.5"/>
<text text-anchor="middle" x="391" y="-611.5" font-family="Helvetica,sans-Serif" font-size="10.00">CDialogueNPC::execute</text>
</a>
</g>
</g>
<!-- Node80&#45;&gt;Node82 -->
<g id="edge3" class="edge"><title>Node80&#45;&gt;Node82</title>
<path fill="none" stroke="midnightblue" d="M227.408,-345.721C233.237,-395.057 255.252,-524.879 330,-595 334.144,-598.887 339.08,-601.979 344.315,-604.439"/>
<polygon fill="midnightblue" stroke="midnightblue" points="230.881,-345.288 226.323,-335.723 223.922,-346.043 230.881,-345.288"/>
</g>
<!-- Node83 -->
<g id="node5" class="node"><title>Node83</title>
<g id="a_node5"><a xlink:href="class_c_display.html#a63f3c4f78cef1d3b13290970da9e3e85" target="_top" xlink:title="CDisplay::printError">
<polygon fill="none" stroke="black" points="340.5,-528.5 340.5,-547.5 441.5,-547.5 441.5,-528.5 340.5,-528.5"/>
<text text-anchor="middle" x="391" y="-535.5" font-family="Helvetica,sans-Serif" font-size="10.00">CDisplay::printError</text>
</a>
</g>
</g>
<!-- Node80&#45;&gt;Node83 -->
<g id="edge4" class="edge"><title>Node80&#45;&gt;Node83</title>
<path fill="none" stroke="midnightblue" d="M231.378,-345.395C243.698,-382.963 275.67,-466.157 330,-514 337.073,-520.228 345.964,-524.953 354.719,-528.491"/>
<polygon fill="midnightblue" stroke="midnightblue" points="234.658,-344.158 228.302,-335.681 227.985,-346.271 234.658,-344.158"/>
</g>
<!-- Node85 -->
<g id="node7" class="node"><title>Node85</title>
<g id="a_node7"><a xlink:href="class_c_game.html#aa9d3da2fefa1c04faefc6586dbd37971" target="_top" xlink:title="CGame::play">
<polygon fill="none" stroke="black" points="644,-490.5 644,-509.5 718,-509.5 718,-490.5 644,-490.5"/>
<text text-anchor="middle" x="681" y="-497.5" font-family="Helvetica,sans-Serif" font-size="10.00">CGame::play</text>
</a>
</g>
</g>
<!-- Node80&#45;&gt;Node85 -->
<g id="edge16" class="edge"><title>Node80&#45;&gt;Node85</title>
<path fill="none" stroke="midnightblue" d="M237.964,-343.709C255.605,-367.344 290.179,-408.688 330,-430 434.352,-485.85 577.821,-497.327 643.949,-499.555"/>
<polygon fill="midnightblue" stroke="midnightblue" points="240.772,-341.62 232.056,-335.597 235.113,-345.741 240.772,-341.62"/>
</g>
<!-- Node80&#45;&gt;Node89 -->
<g id="edge21" class="edge"><title>Node80&#45;&gt;Node89</title>
<path fill="none" stroke="midnightblue" d="M243.457,-342.316C263.212,-359.356 296.61,-385.57 330,-400 382.864,-422.845 448.443,-433.743 492.655,-438.813"/>
<polygon fill="midnightblue" stroke="midnightblue" points="245.685,-339.614 235.866,-335.636 241.061,-344.869 245.685,-339.614"/>
</g>
<!-- Node80&#45;&gt;Node91 -->
<g id="edge15" class="edge"><title>Node80&#45;&gt;Node91</title>
<path fill="none" stroke="midnightblue" d="M257.544,-311.692C270.858,-304.142 285.223,-293.591 294,-280 346.087,-199.348 266.998,-139.447 330,-67 334.732,-61.5583 341.012,-57.6597 347.728,-54.87"/>
<polygon fill="midnightblue" stroke="midnightblue" points="255.777,-308.667 248.577,-316.439 259.052,-314.854 255.777,-308.667"/>
</g>
<!-- Node92 -->
<g id="node14" class="node"><title>Node92</title>
<g id="a_node14"><a xlink:href="class_c_game.html#a21a30939333b2c98f607d9bd2927d105" target="_top" xlink:title="CGame::createHero">
<polygon fill="none" stroke="black" points="339.5,-566.5 339.5,-585.5 442.5,-585.5 442.5,-566.5 339.5,-566.5"/>
<text text-anchor="middle" x="391" y="-573.5" font-family="Helvetica,sans-Serif" font-size="10.00">CGame::createHero</text>
</a>
</g>
</g>
<!-- Node80&#45;&gt;Node92 -->
<g id="edge17" class="edge"><title>Node80&#45;&gt;Node92</title>
<path fill="none" stroke="midnightblue" d="M228.796,-345.571C237.279,-389.843 264.005,-498.376 330,-557 334.411,-560.919 339.631,-564.029 345.122,-566.499"/>
<polygon fill="midnightblue" stroke="midnightblue" points="232.207,-344.763 226.982,-335.546 225.319,-346.009 232.207,-344.763"/>
</g>
<!-- Node80&#45;&gt;Node93 -->
<g id="edge19" class="edge"><title>Node80&#45;&gt;Node93</title>
<path fill="none" stroke="midnightblue" d="M230.281,-345.517C247.432,-414.902 306.1,-646.798 330,-671 333.839,-674.887 338.467,-677.981 343.429,-680.443"/>
<polygon fill="midnightblue" stroke="midnightblue" points="233.605,-344.377 227.816,-335.504 226.808,-346.051 233.605,-344.377"/>
</g>
<!-- Node94 -->
<g id="node16" class="node"><title>Node94</title>
<g id="a_node16"><a xlink:href="class_c_hero.html#a0232f04b4e49227ba90a8922135d4102" target="_top" xlink:title="CHero::printStats">
<polygon fill="none" stroke="black" points="635,-376.5 635,-395.5 727,-395.5 727,-376.5 635,-376.5"/>
<text text-anchor="middle" x="681" y="-383.5" font-family="Helvetica,sans-Serif" font-size="10.00">CHero::printStats</text>
</a>
</g>
</g>
<!-- Node80&#45;&gt;Node94 -->
<g id="edge22" class="edge"><title>Node80&#45;&gt;Node94</title>
<path fill="none" stroke="midnightblue" d="M275.823,-337.651C292.948,-341.333 312.245,-345.174 330,-348 438.801,-365.315 567.904,-377.086 634.78,-382.536"/>
<polygon fill="midnightblue" stroke="midnightblue" points="276.537,-334.224 266.02,-335.51 275.043,-341.063 276.537,-334.224"/>
</g>
<!-- Node95 -->
<g id="node17" class="node"><title>Node95</title>
<g id="a_node17"><a xlink:href="class_c_inventory_browser.html#a91c51766048ba5629b125b9a444d31bb" target="_top" xlink:title="CInventoryBrowser::\loperator()">
<polygon fill="none" stroke="black" points="492,-264 492,-294 595,-294 595,-264 492,-264"/>
<text text-anchor="start" x="500" y="-282" font-family="Helvetica,sans-Serif" font-size="10.00">CInventoryBrowser::</text>
<text text-anchor="middle" x="543.5" y="-271" font-family="Helvetica,sans-Serif" font-size="10.00">operator()</text>
</a>
</g>
</g>
<!-- Node80&#45;&gt;Node95 -->
<g id="edge24" class="edge"><title>Node80&#45;&gt;Node95</title>
<path fill="none" stroke="midnightblue" d="M298.047,-336.552C343.071,-340.759 401.728,-341.964 452,-329 478.072,-322.277 504.662,-306.266 522.211,-294.16"/>
<polygon fill="midnightblue" stroke="midnightblue" points="298.374,-333.067 288.075,-335.551 297.675,-340.032 298.374,-333.067"/>
</g>
<!-- Node96 -->
<g id="node18" class="node"><title>Node96</title>
<g id="a_node18"><a xlink:href="class_c_inventory_browser.html#ac865349ca08d9402c869d8e5450c689a" target="_top" xlink:title="CInventoryBrowser::\lequip">
<polygon fill="none" stroke="black" points="339.5,-289 339.5,-319 442.5,-319 442.5,-289 339.5,-289"/>
<text text-anchor="start" x="347.5" y="-307" font-family="Helvetica,sans-Serif" font-size="10.00">CInventoryBrowser::</text>
<text text-anchor="middle" x="391" y="-296" font-family="Helvetica,sans-Serif" font-size="10.00">equip</text>
</a>
</g>
</g>
<!-- Node80&#45;&gt;Node96 -->
<g id="edge25" class="edge"><title>Node80&#45;&gt;Node96</title>
<path fill="none" stroke="midnightblue" d="M304.315,-315.459C316.279,-313.859 328.341,-312.246 339.485,-310.756"/>
<polygon fill="midnightblue" stroke="midnightblue" points="303.757,-312.003 294.31,-316.797 304.685,-318.941 303.757,-312.003"/>
</g>
<!-- Node97 -->
<g id="node19" class="node"><title>Node97</title>
<g id="a_node19"><a xlink:href="class_c_inventory_browser.html#a022cb6fc703bd156921816554c7a18b8" target="_top" xlink:title="CInventoryBrowser::\lprintInventory">
<polygon fill="none" stroke="black" points="339.5,-240 339.5,-270 442.5,-270 442.5,-240 339.5,-240"/>
<text text-anchor="start" x="347.5" y="-258" font-family="Helvetica,sans-Serif" font-size="10.00">CInventoryBrowser::</text>
<text text-anchor="middle" x="391" y="-247" font-family="Helvetica,sans-Serif" font-size="10.00">printInventory</text>
</a>
</g>
</g>
<!-- Node80&#45;&gt;Node97 -->
<g id="edge27" class="edge"><title>Node80&#45;&gt;Node97</title>
<path fill="none" stroke="midnightblue" d="M255.477,-312.114C276.288,-302.573 304.709,-289.74 330,-279 336.919,-276.062 344.326,-273.018 351.492,-270.124"/>
<polygon fill="midnightblue" stroke="midnightblue" points="253.828,-309.02 246.205,-316.377 256.753,-315.379 253.828,-309.02"/>
</g>
<!-- Node98 -->
<g id="node20" class="node"><title>Node98</title>
<g id="a_node20"><a xlink:href="class_c_inventory_browser.html#a96d9a928a1931b0df289b91baa3ae071" target="_top" xlink:title="CInventoryBrowser::\lprintHelp">
<polygon fill="none" stroke="black" points="339.5,-191 339.5,-221 442.5,-221 442.5,-191 339.5,-191"/>
<text text-anchor="start" x="347.5" y="-209" font-family="Helvetica,sans-Serif" font-size="10.00">CInventoryBrowser::</text>
<text text-anchor="middle" x="391" y="-198" font-family="Helvetica,sans-Serif" font-size="10.00">printHelp</text>
</a>
</g>
</g>
<!-- Node80&#45;&gt;Node98 -->
<g id="edge29" class="edge"><title>Node80&#45;&gt;Node98</title>
<path fill="none" stroke="midnightblue" d="M252.145,-311.185C265.544,-303.002 281.539,-292.061 294,-280 313.676,-260.956 308.429,-246.868 330,-230 334.331,-226.614 339.202,-223.644 344.247,-221.057"/>
<polygon fill="midnightblue" stroke="midnightblue" points="250.179,-308.281 243.359,-316.389 253.746,-314.304 250.179,-308.281"/>
</g>
<!-- Node99 -->
<g id="node21" class="node"><title>Node99</title>
<g id="a_node21"><a xlink:href="class_c_shopping.html#ab72dff2e94f897bd5c3f1ef660e65afb" target="_top" xlink:title="CShopping::operator()">
<polygon fill="none" stroke="black" points="488,-114.5 488,-133.5 599,-133.5 599,-114.5 488,-114.5"/>
<text text-anchor="middle" x="543.5" y="-121.5" font-family="Helvetica,sans-Serif" font-size="10.00">CShopping::operator()</text>
</a>
</g>
</g>
<!-- Node80&#45;&gt;Node99 -->
<g id="edge31" class="edge"><title>Node80&#45;&gt;Node99</title>
<path fill="none" stroke="midnightblue" d="M255.298,-311.553C268.685,-303.791 283.742,-293.107 294,-280 322.857,-243.132 295.49,-212.64 330,-181 342.493,-169.545 439.821,-146.573 498.335,-133.561"/>
<polygon fill="midnightblue" stroke="midnightblue" points="253.457,-308.571 246.377,-316.453 256.827,-314.707 253.457,-308.571"/>
</g>
<!-- Node100 -->
<g id="node22" class="node"><title>Node100</title>
<g id="a_node22"><a xlink:href="class_c_shopping.html#a5d075417297809f43042d74da0fdaad5" target="_top" xlink:title="CShopping::printHelp">
<polygon fill="none" stroke="black" points="337,-114.5 337,-133.5 445,-133.5 445,-114.5 337,-114.5"/>
<text text-anchor="middle" x="391" y="-121.5" font-family="Helvetica,sans-Serif" font-size="10.00">CShopping::printHelp</text>
</a>
</g>
</g>
<!-- Node80&#45;&gt;Node100 -->
<g id="edge32" class="edge"><title>Node80&#45;&gt;Node100</title>
<path fill="none" stroke="midnightblue" d="M256.357,-311.598C269.703,-303.941 284.427,-293.329 294,-280 329.473,-230.609 289.526,-193.384 330,-148 335.6,-141.72 343.069,-137.06 350.831,-133.609"/>
<polygon fill="midnightblue" stroke="midnightblue" points="254.554,-308.593 247.417,-316.424 257.879,-314.753 254.554,-308.593"/>
</g>
<!-- Node101 -->
<g id="node23" class="node"><title>Node101</title>
<g id="a_node23"><a xlink:href="class_c_shopping.html#a0981a7916cca8a37beb35858ad2ec77e" target="_top" xlink:title="CShopping::buyItem">
<polygon fill="none" stroke="black" points="339,-76.5 339,-95.5 443,-95.5 443,-76.5 339,-76.5"/>
<text text-anchor="middle" x="391" y="-83.5" font-family="Helvetica,sans-Serif" font-size="10.00">CShopping::buyItem</text>
</a>
</g>
</g>
<!-- Node80&#45;&gt;Node101 -->
<g id="edge34" class="edge"><title>Node80&#45;&gt;Node101</title>
<path fill="none" stroke="midnightblue" d="M257.034,-311.707C270.383,-304.118 284.919,-293.529 294,-280 338.255,-214.069 276.839,-163.986 330,-105 333.511,-101.104 337.815,-98.0011 342.491,-95.5308"/>
<polygon fill="midnightblue" stroke="midnightblue" points="255.246,-308.694 248.063,-316.482 258.535,-314.873 255.246,-308.694"/>
</g>
<!-- Node80&#45;&gt;Node102 -->
<g id="edge36" class="edge"><title>Node80&#45;&gt;Node102</title>
<path fill="none" stroke="midnightblue" d="M237.966,-307.63C253.351,-284.137 279.276,-241.727 294,-202 321.293,-128.359 277.356,-87.2792 330,-29 335.2,-23.2432 342.131,-19.2181 349.433,-16.407"/>
<polygon fill="midnightblue" stroke="midnightblue" points="234.885,-305.942 232.264,-316.207 240.715,-309.817 234.885,-305.942"/>
</g>
<!-- Node84 -->
<g id="node6" class="node"><title>Node84</title>
<g id="a_node6"><a xlink:href="class_c_game.html#a39e1e296c6dcabbf5c824eea6424d6d9" target="_top" xlink:title="CGame::mainMenu">
<polygon fill="none" stroke="black" points="493,-566.5 493,-585.5 594,-585.5 594,-566.5 493,-566.5"/>
<text text-anchor="middle" x="543.5" y="-573.5" font-family="Helvetica,sans-Serif" font-size="10.00">CGame::mainMenu</text>
</a>
</g>
</g>
<!-- Node83&#45;&gt;Node84 -->
<g id="edge5" class="edge"><title>Node83&#45;&gt;Node84</title>
<path fill="none" stroke="midnightblue" d="M439.685,-550.04C460.71,-555.349 485.067,-561.499 504.796,-566.48"/>
<polygon fill="midnightblue" stroke="midnightblue" points="440.53,-546.644 429.978,-547.589 438.816,-553.431 440.53,-546.644"/>
</g>
<!-- Node83&#45;&gt;Node89 -->
<g id="edge12" class="edge"><title>Node83&#45;&gt;Node89</title>
<path fill="none" stroke="midnightblue" d="M415.794,-522.981C447.015,-503.273 500.918,-469.248 527.201,-452.657"/>
<polygon fill="midnightblue" stroke="midnightblue" points="413.847,-520.071 407.259,-528.368 417.583,-525.99 413.847,-520.071"/>
</g>
<!-- Node90 -->
<g id="node12" class="node"><title>Node90</title>
<g id="a_node12"><a xlink:href="class_c_game.html#af5435e79a93dd92991ae24b499976470" target="_top" xlink:title="CGame::CGame">
<polygon fill="none" stroke="black" points="499,-528.5 499,-547.5 588,-547.5 588,-528.5 499,-528.5"/>
<text text-anchor="middle" x="543.5" y="-535.5" font-family="Helvetica,sans-Serif" font-size="10.00">CGame::CGame</text>
</a>
</g>
</g>
<!-- Node83&#45;&gt;Node90 -->
<g id="edge14" class="edge"><title>Node83&#45;&gt;Node90</title>
<path fill="none" stroke="midnightblue" d="M451.862,-538C467.582,-538 484.238,-538 498.925,-538"/>
<polygon fill="midnightblue" stroke="midnightblue" points="451.696,-534.5 441.696,-538 451.696,-541.5 451.696,-534.5"/>
</g>
<!-- Node84&#45;&gt;Node85 -->
<g id="edge6" class="edge"><title>Node84&#45;&gt;Node85</title>
<path fill="none" stroke="midnightblue" d="M586.171,-562.831C590.576,-561.039 594.929,-559.09 599,-557 625.617,-543.334 653.471,-521.913 668.585,-509.592"/>
<polygon fill="midnightblue" stroke="midnightblue" points="584.636,-559.67 576.534,-566.497 587.125,-566.213 584.636,-559.67"/>
</g>
<!-- Node87 -->
<g id="node9" class="node"><title>Node87</title>
<g id="a_node9"><a xlink:href="class_c_game.html#a714b291af5e20aae8be14a905fd0522d" target="_top" xlink:title="CGame::tickComponent">
<polygon fill="none" stroke="black" points="930,-490.5 930,-509.5 1051,-509.5 1051,-490.5 930,-490.5"/>
<text text-anchor="middle" x="990.5" y="-497.5" font-family="Helvetica,sans-Serif" font-size="10.00">CGame::tickComponent</text>
</a>
</g>
</g>
<!-- Node84&#45;&gt;Node87 -->
<g id="edge11" class="edge"><title>Node84&#45;&gt;Node87</title>
<path fill="none" stroke="midnightblue" d="M604.201,-581.299C675.008,-585.656 795.811,-586.966 894,-557 927.057,-546.911 960.577,-523.063 977.75,-509.63"/>
<polygon fill="midnightblue" stroke="midnightblue" points="604.333,-577.8 594.125,-580.638 603.874,-584.785 604.333,-577.8"/>
</g>
<!-- Node86 -->
<g id="node8" class="node"><title>Node86</title>
<g id="a_node8"><a xlink:href="class_c_game.html#ac0a8028013ca5a7c135c29fa582df4a0" target="_top" xlink:title="CGame::checkHeroStatus">
<polygon fill="none" stroke="black" points="763,-528.5 763,-547.5 894,-547.5 894,-528.5 763,-528.5"/>
<text text-anchor="middle" x="828.5" y="-535.5" font-family="Helvetica,sans-Serif" font-size="10.00">CGame::checkHeroStatus</text>
</a>
</g>
</g>
<!-- Node85&#45;&gt;Node86 -->
<g id="edge7" class="edge"><title>Node85&#45;&gt;Node86</title>
<path fill="none" stroke="midnightblue" d="M728.043,-512.025C748.408,-517.344 772.016,-523.509 791.119,-528.498"/>
<polygon fill="midnightblue" stroke="midnightblue" points="728.9,-508.632 718.34,-509.491 727.131,-515.404 728.9,-508.632"/>
</g>
<!-- Node88 -->
<g id="node10" class="node"><title>Node88</title>
<g id="a_node10"><a xlink:href="main_8cpp.html#ae66f6b31b5ad750f1fe042a706a4e3d4" target="_top" xlink:title="main">
<polygon fill="none" stroke="black" points="809.5,-452.5 809.5,-471.5 847.5,-471.5 847.5,-452.5 809.5,-452.5"/>
<text text-anchor="middle" x="828.5" y="-459.5" font-family="Helvetica,sans-Serif" font-size="10.00">main</text>
</a>
</g>
</g>
<!-- Node85&#45;&gt;Node88 -->
<g id="edge10" class="edge"><title>Node85&#45;&gt;Node88</title>
<path fill="none" stroke="midnightblue" d="M728.178,-487.94C755.699,-480.752 789.1,-472.029 809.307,-466.751"/>
<polygon fill="midnightblue" stroke="midnightblue" points="727.131,-484.596 718.34,-490.509 728.9,-491.368 727.131,-484.596"/>
</g>
<!-- Node86&#45;&gt;Node87 -->
<g id="edge8" class="edge"><title>Node86&#45;&gt;Node87</title>
<path fill="none" stroke="midnightblue" d="M879.892,-526.032C902.313,-520.707 928.347,-514.524 949.416,-509.52"/>
<polygon fill="midnightblue" stroke="midnightblue" points="878.795,-522.695 869.875,-528.411 880.413,-529.505 878.795,-522.695"/>
</g>
<!-- Node87&#45;&gt;Node85 -->
<g id="edge9" class="edge"><title>Node87&#45;&gt;Node85</title>
<path fill="none" stroke="midnightblue" d="M919.534,-500C856.881,-500 767.506,-500 718.178,-500"/>
<polygon fill="midnightblue" stroke="midnightblue" points="919.738,-503.5 929.738,-500 919.738,-496.5 919.738,-503.5"/>
</g>
<!-- Node89&#45;&gt;Node87 -->
<g id="edge13" class="edge"><title>Node89&#45;&gt;Node87</title>
<path fill="none" stroke="midnightblue" d="M604.281,-433.508C674.919,-424.442 795.319,-415.79 894,-443 927.505,-452.239 961.107,-476.665 978.106,-490.354"/>
<polygon fill="midnightblue" stroke="midnightblue" points="603.68,-430.057 594.228,-434.844 604.602,-436.996 603.68,-430.057"/>
</g>
<!-- Node92&#45;&gt;Node84 -->
<g id="edge18" class="edge"><title>Node92&#45;&gt;Node84</title>
<path fill="none" stroke="midnightblue" d="M452.604,-576C465.976,-576 479.99,-576 492.867,-576"/>
<polygon fill="midnightblue" stroke="midnightblue" points="452.533,-572.5 442.533,-576 452.533,-579.5 452.533,-572.5"/>
</g>
<!-- Node93&#45;&gt;Node84 -->
<g id="edge20" class="edge"><title>Node93&#45;&gt;Node84</title>
<path fill="none" stroke="midnightblue" d="M441.353,-676.65C445.06,-674.966 448.655,-673.089 452,-671 489.677,-647.474 522.465,-604.668 535.951,-585.604"/>
<polygon fill="midnightblue" stroke="midnightblue" points="439.936,-673.448 431.984,-680.449 442.566,-679.935 439.936,-673.448"/>
</g>
<!-- Node94&#45;&gt;Node87 -->
<g id="edge23" class="edge"><title>Node94&#45;&gt;Node87</title>
<path fill="none" stroke="midnightblue" d="M737.246,-382.892C781.6,-382.548 844.432,-387.012 894,-410 934.302,-428.691 968.617,-471.127 982.682,-490.289"/>
<polygon fill="midnightblue" stroke="midnightblue" points="737.175,-379.393 727.233,-383.054 737.288,-386.392 737.175,-379.393"/>
</g>
<!-- Node96&#45;&gt;Node95 -->
<g id="edge26" class="edge"><title>Node96&#45;&gt;Node95</title>
<path fill="none" stroke="midnightblue" d="M452.774,-293.905C465.741,-291.751 479.305,-289.498 491.844,-287.415"/>
<polygon fill="midnightblue" stroke="midnightblue" points="451.824,-290.514 442.533,-295.606 452.971,-297.42 451.824,-290.514"/>
</g>
<!-- Node97&#45;&gt;Node95 -->
<g id="edge28" class="edge"><title>Node97&#45;&gt;Node95</title>
<path fill="none" stroke="midnightblue" d="M452.774,-264.692C465.741,-266.759 479.305,-268.922 491.844,-270.922"/>
<polygon fill="midnightblue" stroke="midnightblue" points="452.959,-261.177 442.533,-263.058 451.857,-268.09 452.959,-261.177"/>
</g>
<!-- Node98&#45;&gt;Node95 -->
<g id="edge30" class="edge"><title>Node98&#45;&gt;Node95</title>
<path fill="none" stroke="midnightblue" d="M440.993,-225.05C444.74,-226.674 448.445,-228.333 452,-230 474.163,-240.39 498.523,-253.693 516.382,-263.815"/>
<polygon fill="midnightblue" stroke="midnightblue" points="442.228,-221.773 431.654,-221.107 439.505,-228.221 442.228,-221.773"/>
</g>
<!-- Node100&#45;&gt;Node99 -->
<g id="edge33" class="edge"><title>Node100&#45;&gt;Node99</title>
<path fill="none" stroke="midnightblue" d="M455.309,-124C466.138,-124 477.305,-124 487.883,-124"/>
<polygon fill="midnightblue" stroke="midnightblue" points="455.061,-120.5 445.061,-124 455.061,-127.5 455.061,-120.5"/>
</g>
<!-- Node101&#45;&gt;Node99 -->
<g id="edge35" class="edge"><title>Node101&#45;&gt;Node99</title>
<path fill="none" stroke="midnightblue" d="M439.685,-98.04C460.71,-103.349 485.067,-109.499 504.796,-114.48"/>
<polygon fill="midnightblue" stroke="midnightblue" points="440.53,-94.6437 429.978,-95.589 438.816,-101.431 440.53,-94.6437"/>
</g>
<!-- Node103&#45;&gt;Node91 -->
<g id="edge41" class="edge"><title>Node103&#45;&gt;Node91</title>
<path fill="none" stroke="midnightblue" d="M237.099,-164.966C254.363,-139.523 289.203,-93.2702 330,-67 335.971,-63.1549 342.778,-60.0375 349.612,-57.5262"/>
<polygon fill="midnightblue" stroke="midnightblue" points="234.167,-163.054 231.555,-173.322 240,-166.924 234.167,-163.054"/>
</g>
</g>
</svg>
