<?xml version="1.0" encoding="UTF-8" standalone="no"?>
<!DOCTYPE svg PUBLIC "-//W3C//DTD SVG 1.1//EN"
 "http://www.w3.org/Graphics/SVG/1.1/DTD/svg11.dtd">
<!-- Generated by graphviz version 2.38.0 (20140413.2041)
 -->
<!-- Title: CStreamDecoder::getNumbers Pages: 1 -->
<svg width="1428pt" height="249pt"
 viewBox="0.00 0.00 1428.00 249.00" xmlns="http://www.w3.org/2000/svg" xmlns:xlink="http://www.w3.org/1999/xlink">
<g id="graph0" class="graph" transform="scale(1 1) rotate(0) translate(4 245)">
<title>CStreamDecoder::getNumbers</title>
<!-- Node13 -->
<g id="node1" class="node"><title>Node13</title>
<polygon fill="#bfbfbf" stroke="black" points="0,-88.5 0,-107.5 149,-107.5 149,-88.5 0,-88.5"/>
<text text-anchor="middle" x="74.5" y="-95.5" font-family="Helvetica,sans-Serif" font-size="10.00">CStreamDecoder::getNumbers</text>
</g>
<!-- Node14 -->
<g id="node2" class="node"><title>Node14</title>
<g id="a_node2"><a xlink:href="class_c_game.html#a507b71eeebc2a6aaa08d9e0dcb61c7ac" target="_top" xlink:title="CGame::importPlayerData">
<polygon fill="none" stroke="black" points="582,-126.5 582,-145.5 713,-145.5 713,-126.5 582,-126.5"/>
<text text-anchor="middle" x="647.5" y="-133.5" font-family="Helvetica,sans-Serif" font-size="10.00">CGame::importPlayerData</text>
</a>
</g>
</g>
<!-- Node13&#45;&gt;Node14 -->
<g id="edge1" class="edge"><title>Node13&#45;&gt;Node14</title>
<path fill="none" stroke="midnightblue" d="M106.578,-111.375C128.174,-120.094 157.843,-130.939 185,-137 341.787,-171.99 386.057,-169.986 546,-155 565.801,-153.145 587.513,-149.276 605.673,-145.511"/>
<polygon fill="midnightblue" stroke="midnightblue" points="107.841,-108.11 97.2611,-107.544 105.179,-114.584 107.841,-108.11"/>
</g>
<!-- Node21 -->
<g id="node9" class="node"><title>Node21</title>
<g id="a_node9"><a xlink:href="class_c_hero.html#a7b1a1b3c196bbe5b8da97c56f520c1f3" target="_top" xlink:title="CHero::update">
<polygon fill="none" stroke="black" points="418.5,-126.5 418.5,-145.5 497.5,-145.5 497.5,-126.5 418.5,-126.5"/>
<text text-anchor="middle" x="458" y="-133.5" font-family="Helvetica,sans-Serif" font-size="10.00">CHero::update</text>
</a>
</g>
</g>
<!-- Node13&#45;&gt;Node21 -->
<g id="edge10" class="edge"><title>Node13&#45;&gt;Node21</title>
<path fill="none" stroke="midnightblue" d="M134.131,-109.31C150.542,-112.166 168.424,-114.988 185,-117 267.707,-127.038 365.254,-132.254 418.145,-134.534"/>
<polygon fill="midnightblue" stroke="midnightblue" points="134.586,-105.836 124.128,-107.535 133.363,-112.728 134.586,-105.836"/>
</g>
<!-- Node22 -->
<g id="node10" class="node"><title>Node22</title>
<g id="a_node10"><a xlink:href="class_c_stream_decoder.html#a848bbd5eb77abad9007b94cf631b0761" target="_top" xlink:title="CStreamDecoder::getNumbers">
<polygon fill="none" stroke="black" points="185,-88.5 185,-107.5 334,-107.5 334,-88.5 185,-88.5"/>
<text text-anchor="middle" x="259.5" y="-95.5" font-family="Helvetica,sans-Serif" font-size="10.00">CStreamDecoder::getNumbers</text>
</a>
</g>
</g>
<!-- Node13&#45;&gt;Node22 -->
<g id="edge12" class="edge"><title>Node13&#45;&gt;Node22</title>
<path fill="none" stroke="midnightblue" d="M159.387,-98C167.838,-98 176.376,-98 184.711,-98"/>
<polygon fill="midnightblue" stroke="midnightblue" points="159.142,-94.5001 149.142,-98 159.142,-101.5 159.142,-94.5001"/>
</g>
<!-- Node23 -->
<g id="node11" class="node"><title>Node23</title>
<g id="a_node11"><a xlink:href="class_c_stream_decoder.html#a5df71ab29ca4dc60f6c628fcb4a77949" target="_top" xlink:title="CStreamDecoder::getNumbers\lAsString">
<polygon fill="none" stroke="black" points="185,-39 185,-69 334,-69 334,-39 185,-39"/>
<text text-anchor="start" x="193" y="-57" font-family="Helvetica,sans-Serif" font-size="10.00">CStreamDecoder::getNumbers</text>
<text text-anchor="middle" x="259.5" y="-46" font-family="Helvetica,sans-Serif" font-size="10.00">AsString</text>
</a>
</g>
</g>
<!-- Node13&#45;&gt;Node23 -->
<g id="edge13" class="edge"><title>Node13&#45;&gt;Node23</title>
<path fill="none" stroke="midnightblue" d="M125.222,-86.045C146.991,-80.8108 172.778,-74.6107 195.842,-69.0654"/>
<polygon fill="midnightblue" stroke="midnightblue" points="124.113,-82.7118 115.208,-88.4527 125.749,-89.5179 124.113,-82.7118"/>
</g>
<!-- Node25 -->
<g id="node13" class="node"><title>Node25</title>
<g id="a_node13"><a xlink:href="class_c_world.html#a6a4774ff3ee94df11d82260a27065885" target="_top" xlink:title="CWorld::loadStoryline">
<polygon fill="none" stroke="black" points="204,-0.5 204,-19.5 315,-19.5 315,-0.5 204,-0.5"/>
<text text-anchor="middle" x="259.5" y="-7.5" font-family="Helvetica,sans-Serif" font-size="10.00">CWorld::loadStoryline</text>
</a>
</g>
</g>
<!-- Node13&#45;&gt;Node25 -->
<g id="edge16" class="edge"><title>Node13&#45;&gt;Node25</title>
<path fill="none" stroke="midnightblue" d="M96.1722,-82.2171C117.418,-66.679 151.968,-43.2635 185,-29 193.712,-25.2381 203.337,-22.0893 212.673,-19.5064"/>
<polygon fill="midnightblue" stroke="midnightblue" points="93.8646,-79.5712 87.9247,-88.3444 98.0392,-85.1903 93.8646,-79.5712"/>
</g>
<!-- Node15 -->
<g id="node3" class="node"><title>Node15</title>
<g id="a_node3"><a xlink:href="class_c_game.html#accda079824fc813cbd64b4743846ae24" target="_top" xlink:title="CGame::loadGame">
<polygon fill="none" stroke="black" points="749,-126.5 749,-145.5 849,-145.5 849,-126.5 749,-126.5"/>
<text text-anchor="middle" x="799" y="-133.5" font-family="Helvetica,sans-Serif" font-size="10.00">CGame::loadGame</text>
</a>
</g>
</g>
<!-- Node14&#45;&gt;Node15 -->
<g id="edge2" class="edge"><title>Node14&#45;&gt;Node15</title>
<path fill="none" stroke="midnightblue" d="M723.379,-136C732.071,-136 740.76,-136 748.977,-136"/>
<polygon fill="midnightblue" stroke="midnightblue" points="723.203,-132.5 713.203,-136 723.203,-139.5 723.203,-132.5"/>
</g>
<!-- Node16 -->
<g id="node4" class="node"><title>Node16</title>
<g id="a_node4"><a xlink:href="class_c_game.html#a39e1e296c6dcabbf5c824eea6424d6d9" target="_top" xlink:title="CGame::mainMenu">
<polygon fill="none" stroke="black" points="885,-126.5 885,-145.5 986,-145.5 986,-126.5 885,-126.5"/>
<text text-anchor="middle" x="935.5" y="-133.5" font-family="Helvetica,sans-Serif" font-size="10.00">CGame::mainMenu</text>
</a>
</g>
</g>
<!-- Node15&#45;&gt;Node16 -->
<g id="edge3" class="edge"><title>Node15&#45;&gt;Node16</title>
<path fill="none" stroke="midnightblue" d="M859.486,-136C867.918,-136 876.515,-136 884.737,-136"/>
<polygon fill="midnightblue" stroke="midnightblue" points="859.319,-132.5 849.319,-136 859.319,-139.5 859.319,-132.5"/>
</g>
<!-- Node17 -->
<g id="node5" class="node"><title>Node17</title>
<g id="a_node5"><a xlink:href="class_c_game.html#aa9d3da2fefa1c04faefc6586dbd37971" target="_top" xlink:title="CGame::play">
<polygon fill="none" stroke="black" points="1022,-164.5 1022,-183.5 1096,-183.5 1096,-164.5 1022,-164.5"/>
<text text-anchor="middle" x="1059" y="-171.5" font-family="Helvetica,sans-Serif" font-size="10.00">CGame::play</text>
</a>
</g>
</g>
<!-- Node16&#45;&gt;Node17 -->
<g id="edge4" class="edge"><title>Node16&#45;&gt;Node17</title>
<path fill="none" stroke="midnightblue" d="M977.044,-148.68C993.461,-153.815 1012.1,-159.644 1027.35,-164.414"/>
<polygon fill="midnightblue" stroke="midnightblue" points="977.748,-145.234 967.16,-145.589 975.659,-151.914 977.748,-145.234"/>
</g>
<!-- Node19 -->
<g id="node7" class="node"><title>Node19</title>
<g id="a_node7"><a xlink:href="class_c_game.html#a714b291af5e20aae8be14a905fd0522d" target="_top" xlink:title="CGame::tickComponent">
<polygon fill="none" stroke="black" points="1299,-145.5 1299,-164.5 1420,-164.5 1420,-145.5 1299,-145.5"/>
<text text-anchor="middle" x="1359.5" y="-152.5" font-family="Helvetica,sans-Serif" font-size="10.00">CGame::tickComponent</text>
</a>
</g>
</g>
<!-- Node16&#45;&gt;Node19 -->
<g id="edge9" class="edge"><title>Node16&#45;&gt;Node19</title>
<path fill="none" stroke="midnightblue" d="M996.597,-138.706C1077,-142.326 1218.71,-148.706 1298.88,-152.315"/>
<polygon fill="midnightblue" stroke="midnightblue" points="996.297,-135.189 986.15,-138.235 995.982,-142.182 996.297,-135.189"/>
</g>
<!-- Node18 -->
<g id="node6" class="node"><title>Node18</title>
<g id="a_node6"><a xlink:href="class_c_game.html#ac0a8028013ca5a7c135c29fa582df4a0" target="_top" xlink:title="CGame::checkHeroStatus">
<polygon fill="none" stroke="black" points="1132,-221.5 1132,-240.5 1263,-240.5 1263,-221.5 1132,-221.5"/>
<text text-anchor="middle" x="1197.5" y="-228.5" font-family="Helvetica,sans-Serif" font-size="10.00">CGame::checkHeroStatus</text>
</a>
</g>
</g>
<!-- Node17&#45;&gt;Node18 -->
<g id="edge5" class="edge"><title>Node17&#45;&gt;Node18</title>
<path fill="none" stroke="midnightblue" d="M1084.63,-188.569C1098.28,-196.233 1115.72,-205.384 1132,-212 1140.76,-215.56 1150.43,-218.77 1159.57,-221.494"/>
<polygon fill="midnightblue" stroke="midnightblue" points="1086.28,-185.476 1075.86,-183.55 1082.8,-191.553 1086.28,-185.476"/>
</g>
<!-- Node20 -->
<g id="node8" class="node"><title>Node20</title>
<g id="a_node8"><a xlink:href="main_8cpp.html#ae66f6b31b5ad750f1fe042a706a4e3d4" target="_top" xlink:title="main">
<polygon fill="none" stroke="black" points="1178.5,-183.5 1178.5,-202.5 1216.5,-202.5 1216.5,-183.5 1178.5,-183.5"/>
<text text-anchor="middle" x="1197.5" y="-190.5" font-family="Helvetica,sans-Serif" font-size="10.00">main</text>
</a>
</g>
</g>
<!-- Node17&#45;&gt;Node20 -->
<g id="edge8" class="edge"><title>Node17&#45;&gt;Node20</title>
<path fill="none" stroke="midnightblue" d="M1106.13,-180.421C1130.79,-183.853 1159.77,-187.887 1178.13,-190.443"/>
<polygon fill="midnightblue" stroke="midnightblue" points="1106.61,-176.954 1096.22,-179.042 1105.64,-183.887 1106.61,-176.954"/>
</g>
<!-- Node18&#45;&gt;Node19 -->
<g id="edge6" class="edge"><title>Node18&#45;&gt;Node19</title>
<path fill="none" stroke="midnightblue" d="M1246.84,-218.215C1252.36,-216.327 1257.85,-214.251 1263,-212 1293.78,-198.537 1326.84,-177.043 1344.86,-164.654"/>
<polygon fill="midnightblue" stroke="midnightblue" points="1245.37,-215.01 1236.93,-221.406 1247.52,-221.673 1245.37,-215.01"/>
</g>
<!-- Node19&#45;&gt;Node17 -->
<g id="edge7" class="edge"><title>Node19&#45;&gt;Node17</title>
<path fill="none" stroke="midnightblue" d="M1288.7,-159.443C1228.37,-163.283 1143.57,-168.681 1096.01,-171.708"/>
<polygon fill="midnightblue" stroke="midnightblue" points="1289.16,-162.921 1298.92,-158.792 1288.72,-155.935 1289.16,-162.921"/>
</g>
<!-- Node21&#45;&gt;Node14 -->
<g id="edge11" class="edge"><title>Node21&#45;&gt;Node14</title>
<path fill="none" stroke="midnightblue" d="M507.882,-136C530.472,-136 557.61,-136 581.862,-136"/>
<polygon fill="midnightblue" stroke="midnightblue" points="507.85,-132.5 497.85,-136 507.85,-139.5 507.85,-132.5"/>
</g>
<!-- Node24 -->
<g id="node12" class="node"><title>Node24</title>
<g id="a_node12"><a xlink:href="class_c_stream_decoder.html#a27f04fbbe2eb121fe15988594fe7053f" target="_top" xlink:title="CStreamDecoder::decodePlayerData">
<polygon fill="none" stroke="black" points="370,-66.5 370,-85.5 546,-85.5 546,-66.5 370,-66.5"/>
<text text-anchor="middle" x="458" y="-73.5" font-family="Helvetica,sans-Serif" font-size="10.00">CStreamDecoder::decodePlayerData</text>
</a>
</g>
</g>
<!-- Node23&#45;&gt;Node24 -->
<g id="edge14" class="edge"><title>Node23&#45;&gt;Node24</title>
<path fill="none" stroke="midnightblue" d="M344.429,-63.3966C353.542,-64.4169 362.823,-65.456 371.95,-66.4778"/>
<polygon fill="midnightblue" stroke="midnightblue" points="344.556,-59.889 334.228,-62.2546 343.777,-66.8456 344.556,-59.889"/>
</g>
<!-- Node24&#45;&gt;Node14 -->
<g id="edge15" class="edge"><title>Node24&#45;&gt;Node14</title>
<path fill="none" stroke="midnightblue" d="M498.665,-88.6927C533.922,-99.9751 584.691,-116.221 616.619,-126.438"/>
<polygon fill="midnightblue" stroke="midnightblue" points="499.301,-85.2215 488.71,-85.5072 497.167,-91.8885 499.301,-85.2215"/>
</g>
<!-- Node26 -->
<g id="node14" class="node"><title>Node26</title>
<g id="a_node14"><a xlink:href="class_c_world.html#a944f12acb1ff76beed2648647ff19d0f" target="_top" xlink:title="CWorld::loadWorld">
<polygon fill="none" stroke="black" points="409,-0.5 409,-19.5 507,-19.5 507,-0.5 409,-0.5"/>
<text text-anchor="middle" x="458" y="-7.5" font-family="Helvetica,sans-Serif" font-size="10.00">CWorld::loadWorld</text>
</a>
</g>
</g>
<!-- Node25&#45;&gt;Node26 -->
<g id="edge17" class="edge"><title>Node25&#45;&gt;Node26</title>
<path fill="none" stroke="midnightblue" d="M325.462,-10C352.691,-10 383.789,-10 408.909,-10"/>
<polygon fill="midnightblue" stroke="midnightblue" points="325.236,-6.5001 315.236,-10 325.236,-13.5001 325.236,-6.5001"/>
</g>
<!-- Node27 -->
<g id="node15" class="node"><title>Node27</title>
<g id="a_node15"><a xlink:href="class_c_game.html#af5435e79a93dd92991ae24b499976470" target="_top" xlink:title="CGame::CGame">
<polygon fill="none" stroke="black" points="603,-0.5 603,-19.5 692,-19.5 692,-0.5 603,-0.5"/>
<text text-anchor="middle" x="647.5" y="-7.5" font-family="Helvetica,sans-Serif" font-size="10.00">CGame::CGame</text>
</a>
</g>
</g>
<!-- Node26&#45;&gt;Node27 -->
<g id="edge18" class="edge"><title>Node26&#45;&gt;Node27</title>
<path fill="none" stroke="midnightblue" d="M517.597,-10C545.17,-10 577.487,-10 602.865,-10"/>
<polygon fill="midnightblue" stroke="midnightblue" points="517.286,-6.5001 507.286,-10 517.286,-13.5001 517.286,-6.5001"/>
</g>
</g>
</svg>
