<?xml version="1.0" encoding="UTF-8" standalone="no"?>
<!DOCTYPE svg PUBLIC "-//W3C//DTD SVG 1.1//EN"
 "http://www.w3.org/Graphics/SVG/1.1/DTD/svg11.dtd">
<!-- Generated by graphviz version 2.38.0 (20140413.2041)
 -->
<!-- Title: CWorld::validateIDs Pages: 1 -->
<svg width="368pt" height="28pt"
 viewBox="0.00 0.00 368.00 28.00" xmlns="http://www.w3.org/2000/svg" xmlns:xlink="http://www.w3.org/1999/xlink">
<g id="graph0" class="graph" transform="scale(1 1) rotate(0) translate(4 24)">
<title>CWorld::validateIDs</title>
<!-- Node85 -->
<g id="node1" class="node"><title>Node85</title>
<polygon fill="#bfbfbf" stroke="black" points="0,-0.5 0,-19.5 101,-19.5 101,-0.5 0,-0.5"/>
<text text-anchor="middle" x="50.5" y="-7.5" font-family="Helvetica,sans-Serif" font-size="10.00">CWorld::validateIDs</text>
</g>
<!-- Node86 -->
<g id="node2" class="node"><title>Node86</title>
<g id="a_node2"><a xlink:href="class_c_world.html#a944f12acb1ff76beed2648647ff19d0f" target="_top" xlink:title="CWorld::loadWorld">
<polygon fill="none" stroke="black" points="137,-0.5 137,-19.5 235,-19.5 235,-0.5 137,-0.5"/>
<text text-anchor="middle" x="186" y="-7.5" font-family="Helvetica,sans-Serif" font-size="10.00">CWorld::loadWorld</text>
</a>
</g>
</g>
<!-- Node85&#45;&gt;Node86 -->
<g id="edge1" class="edge"><title>Node85&#45;&gt;Node86</title>
<path fill="none" stroke="midnightblue" d="M111.386,-10C119.818,-10 128.398,-10 136.579,-10"/>
<polygon fill="midnightblue" stroke="midnightblue" points="111.211,-6.5001 101.21,-10 111.21,-13.5001 111.211,-6.5001"/>
</g>
<!-- Node87 -->
<g id="node3" class="node"><title>Node87</title>
<g id="a_node3"><a xlink:href="class_c_game.html#af5435e79a93dd92991ae24b499976470" target="_top" xlink:title="CGame::CGame">
<polygon fill="none" stroke="black" points="271,-0.5 271,-19.5 360,-19.5 360,-0.5 271,-0.5"/>
<text text-anchor="middle" x="315.5" y="-7.5" font-family="Helvetica,sans-Serif" font-size="10.00">CGame::CGame</text>
</a>
</g>
</g>
<!-- Node86&#45;&gt;Node87 -->
<g id="edge2" class="edge"><title>Node86&#45;&gt;Node87</title>
<path fill="none" stroke="midnightblue" d="M245.218,-10C253.836,-10 262.589,-10 270.842,-10"/>
<polygon fill="midnightblue" stroke="midnightblue" points="245.202,-6.5001 235.202,-10 245.202,-13.5001 245.202,-6.5001"/>
</g>
</g>
</svg>
