<?xml version="1.0" encoding="UTF-8" standalone="no"?>
<!DOCTYPE svg PUBLIC "-//W3C//DTD SVG 1.1//EN"
 "http://www.w3.org/Graphics/SVG/1.1/DTD/svg11.dtd">
<!-- Generated by graphviz version 2.38.0 (20140413.2041)
 -->
<!-- Title: CHero::getInventory Pages: 1 -->
<svg width="396pt" height="100pt"
 viewBox="0.00 0.00 396.00 99.50" xmlns="http://www.w3.org/2000/svg" xmlns:xlink="http://www.w3.org/1999/xlink">
<g id="graph0" class="graph" transform="scale(1 1) rotate(0) translate(4 95.5)">
<title>CHero::getInventory</title>
<!-- Node58 -->
<g id="node1" class="node"><title>Node58</title>
<polygon fill="#bfbfbf" stroke="black" points="0,-44.5 0,-63.5 101,-63.5 101,-44.5 0,-44.5"/>
<text text-anchor="middle" x="50.5" y="-51.5" font-family="Helvetica,sans-Serif" font-size="10.00">CHero::getInventory</text>
</g>
<!-- Node59 -->
<g id="node2" class="node"><title>Node59</title>
<g id="a_node2"><a xlink:href="class_c_inventory_browser.html#a91c51766048ba5629b125b9a444d31bb" target="_top" xlink:title="CInventoryBrowser::\loperator()">
<polygon fill="none" stroke="black" points="281,-61 281,-91 384,-91 384,-61 281,-61"/>
<text text-anchor="start" x="289" y="-79" font-family="Helvetica,sans-Serif" font-size="10.00">CInventoryBrowser::</text>
<text text-anchor="middle" x="332.5" y="-68" font-family="Helvetica,sans-Serif" font-size="10.00">operator()</text>
</a>
</g>
</g>
<!-- Node58&#45;&gt;Node59 -->
<g id="edge1" class="edge"><title>Node58&#45;&gt;Node59</title>
<path fill="none" stroke="midnightblue" d="M86.8086,-66.7766C102.032,-71.6406 120.172,-76.5902 137,-79 185.474,-85.9415 241.435,-84.0571 280.85,-81.118"/>
<polygon fill="midnightblue" stroke="midnightblue" points="87.8626,-63.4388 77.2693,-63.6202 85.6636,-70.0845 87.8626,-63.4388"/>
</g>
<!-- Node60 -->
<g id="node3" class="node"><title>Node60</title>
<g id="a_node3"><a xlink:href="class_c_inventory_browser.html#ac865349ca08d9402c869d8e5450c689a" target="_top" xlink:title="CInventoryBrowser::\lequip">
<polygon fill="none" stroke="black" points="137.5,-39 137.5,-69 240.5,-69 240.5,-39 137.5,-39"/>
<text text-anchor="start" x="145.5" y="-57" font-family="Helvetica,sans-Serif" font-size="10.00">CInventoryBrowser::</text>
<text text-anchor="middle" x="189" y="-46" font-family="Helvetica,sans-Serif" font-size="10.00">equip</text>
</a>
</g>
</g>
<!-- Node58&#45;&gt;Node60 -->
<g id="edge2" class="edge"><title>Node58&#45;&gt;Node60</title>
<path fill="none" stroke="midnightblue" d="M111.225,-54C119.896,-54 128.753,-54 137.225,-54"/>
<polygon fill="midnightblue" stroke="midnightblue" points="111.166,-50.5001 101.166,-54 111.166,-57.5001 111.166,-50.5001"/>
</g>
<!-- Node61 -->
<g id="node4" class="node"><title>Node61</title>
<g id="a_node4"><a xlink:href="class_c_shopping.html#a0981a7916cca8a37beb35858ad2ec77e" target="_top" xlink:title="CShopping::buyItem">
<polygon fill="none" stroke="black" points="137,-0.5 137,-19.5 241,-19.5 241,-0.5 137,-0.5"/>
<text text-anchor="middle" x="189" y="-7.5" font-family="Helvetica,sans-Serif" font-size="10.00">CShopping::buyItem</text>
</a>
</g>
</g>
<!-- Node58&#45;&gt;Node61 -->
<g id="edge4" class="edge"><title>Node58&#45;&gt;Node61</title>
<path fill="none" stroke="midnightblue" d="M90.658,-41.3776C112.24,-34.4207 138.597,-25.9247 158.439,-19.5287"/>
<polygon fill="midnightblue" stroke="midnightblue" points="89.5624,-38.0534 81.1185,-44.4527 91.71,-44.7158 89.5624,-38.0534"/>
</g>
<!-- Node60&#45;&gt;Node59 -->
<g id="edge3" class="edge"><title>Node60&#45;&gt;Node59</title>
<path fill="none" stroke="midnightblue" d="M250.593,-63.4209C260.625,-64.9805 270.935,-66.5835 280.693,-68.1007"/>
<polygon fill="midnightblue" stroke="midnightblue" points="251.104,-59.9583 240.685,-61.8804 250.029,-66.8752 251.104,-59.9583"/>
</g>
<!-- Node62 -->
<g id="node5" class="node"><title>Node62</title>
<g id="a_node5"><a xlink:href="class_c_shopping.html#ab72dff2e94f897bd5c3f1ef660e65afb" target="_top" xlink:title="CShopping::operator()">
<polygon fill="none" stroke="black" points="277,-0.5 277,-19.5 388,-19.5 388,-0.5 277,-0.5"/>
<text text-anchor="middle" x="332.5" y="-7.5" font-family="Helvetica,sans-Serif" font-size="10.00">CShopping::operator()</text>
</a>
</g>
</g>
<!-- Node61&#45;&gt;Node62 -->
<g id="edge5" class="edge"><title>Node61&#45;&gt;Node62</title>
<path fill="none" stroke="midnightblue" d="M251.265,-10C259.713,-10 268.344,-10 276.666,-10"/>
<polygon fill="midnightblue" stroke="midnightblue" points="251.085,-6.5001 241.085,-10 251.085,-13.5001 251.085,-6.5001"/>
</g>
</g>
</svg>
