<?xml version="1.0" encoding="UTF-8" standalone="no"?>
<!DOCTYPE svg PUBLIC "-//W3C//DTD SVG 1.1//EN"
 "http://www.w3.org/Graphics/SVG/1.1/DTD/svg11.dtd">
<!-- Generated by graphviz version 2.38.0 (20140413.2041)
 -->
<!-- Title: CGame::importPlayerData Pages: 1 -->
<svg width="846pt" height="114pt"
 viewBox="0.00 0.00 846.00 114.00" xmlns="http://www.w3.org/2000/svg" xmlns:xlink="http://www.w3.org/1999/xlink">
<g id="graph0" class="graph" transform="scale(1 1) rotate(0) translate(4 110)">
<title>CGame::importPlayerData</title>
<!-- Node121 -->
<g id="node1" class="node"><title>Node121</title>
<polygon fill="#bfbfbf" stroke="black" points="0,-0.5 0,-19.5 131,-19.5 131,-0.5 0,-0.5"/>
<text text-anchor="middle" x="65.5" y="-7.5" font-family="Helvetica,sans-Serif" font-size="10.00">CGame::importPlayerData</text>
</g>
<!-- Node122 -->
<g id="node2" class="node"><title>Node122</title>
<g id="a_node2"><a xlink:href="class_c_game.html#accda079824fc813cbd64b4743846ae24" target="_top" xlink:title="CGame::loadGame">
<polygon fill="none" stroke="black" points="167,-0.5 167,-19.5 267,-19.5 267,-0.5 167,-0.5"/>
<text text-anchor="middle" x="217" y="-7.5" font-family="Helvetica,sans-Serif" font-size="10.00">CGame::loadGame</text>
</a>
</g>
</g>
<!-- Node121&#45;&gt;Node122 -->
<g id="edge1" class="edge"><title>Node121&#45;&gt;Node122</title>
<path fill="none" stroke="midnightblue" d="M141.379,-10C150.071,-10 158.76,-10 166.977,-10"/>
<polygon fill="midnightblue" stroke="midnightblue" points="141.203,-6.5001 131.203,-10 141.203,-13.5001 141.203,-6.5001"/>
</g>
<!-- Node123 -->
<g id="node3" class="node"><title>Node123</title>
<g id="a_node3"><a xlink:href="class_c_game.html#a39e1e296c6dcabbf5c824eea6424d6d9" target="_top" xlink:title="CGame::mainMenu">
<polygon fill="none" stroke="black" points="303,-0.5 303,-19.5 404,-19.5 404,-0.5 303,-0.5"/>
<text text-anchor="middle" x="353.5" y="-7.5" font-family="Helvetica,sans-Serif" font-size="10.00">CGame::mainMenu</text>
</a>
</g>
</g>
<!-- Node122&#45;&gt;Node123 -->
<g id="edge2" class="edge"><title>Node122&#45;&gt;Node123</title>
<path fill="none" stroke="midnightblue" d="M277.486,-10C285.918,-10 294.515,-10 302.737,-10"/>
<polygon fill="midnightblue" stroke="midnightblue" points="277.319,-6.5001 267.319,-10 277.319,-13.5001 277.319,-6.5001"/>
</g>
<!-- Node124 -->
<g id="node4" class="node"><title>Node124</title>
<g id="a_node4"><a xlink:href="class_c_game.html#aa9d3da2fefa1c04faefc6586dbd37971" target="_top" xlink:title="CGame::play">
<polygon fill="none" stroke="black" points="440,-29.5 440,-48.5 514,-48.5 514,-29.5 440,-29.5"/>
<text text-anchor="middle" x="477" y="-36.5" font-family="Helvetica,sans-Serif" font-size="10.00">CGame::play</text>
</a>
</g>
</g>
<!-- Node123&#45;&gt;Node124 -->
<g id="edge3" class="edge"><title>Node123&#45;&gt;Node124</title>
<path fill="none" stroke="midnightblue" d="M404.361,-21.901C416.165,-24.7184 428.536,-27.6711 439.612,-30.3147"/>
<polygon fill="midnightblue" stroke="midnightblue" points="405.16,-18.4934 394.62,-19.5761 403.535,-25.3021 405.16,-18.4934"/>
</g>
<!-- Node126 -->
<g id="node6" class="node"><title>Node126</title>
<g id="a_node6"><a xlink:href="class_c_game.html#a714b291af5e20aae8be14a905fd0522d" target="_top" xlink:title="CGame::tickComponent">
<polygon fill="none" stroke="black" points="717,-10.5 717,-29.5 838,-29.5 838,-10.5 717,-10.5"/>
<text text-anchor="middle" x="777.5" y="-17.5" font-family="Helvetica,sans-Serif" font-size="10.00">CGame::tickComponent</text>
</a>
</g>
</g>
<!-- Node123&#45;&gt;Node126 -->
<g id="edge8" class="edge"><title>Node123&#45;&gt;Node126</title>
<path fill="none" stroke="midnightblue" d="M414.597,-11.4241C494.999,-13.3294 636.715,-16.6876 716.875,-18.5871"/>
<polygon fill="midnightblue" stroke="midnightblue" points="414.23,-7.91451 404.15,-11.1765 414.064,-14.9125 414.23,-7.91451"/>
</g>
<!-- Node125 -->
<g id="node5" class="node"><title>Node125</title>
<g id="a_node5"><a xlink:href="class_c_game.html#ac0a8028013ca5a7c135c29fa582df4a0" target="_top" xlink:title="CGame::checkHeroStatus">
<polygon fill="none" stroke="black" points="550,-86.5 550,-105.5 681,-105.5 681,-86.5 550,-86.5"/>
<text text-anchor="middle" x="615.5" y="-93.5" font-family="Helvetica,sans-Serif" font-size="10.00">CGame::checkHeroStatus</text>
</a>
</g>
</g>
<!-- Node124&#45;&gt;Node125 -->
<g id="edge4" class="edge"><title>Node124&#45;&gt;Node125</title>
<path fill="none" stroke="midnightblue" d="M502.634,-53.569C516.276,-61.2331 533.723,-70.3842 550,-77 558.76,-80.5603 568.434,-83.7698 577.566,-86.494"/>
<polygon fill="midnightblue" stroke="midnightblue" points="504.276,-50.4765 493.858,-48.55 500.801,-56.5529 504.276,-50.4765"/>
</g>
<!-- Node127 -->
<g id="node7" class="node"><title>Node127</title>
<g id="a_node7"><a xlink:href="main_8cpp.html#ae66f6b31b5ad750f1fe042a706a4e3d4" target="_top" xlink:title="main">
<polygon fill="none" stroke="black" points="596.5,-48.5 596.5,-67.5 634.5,-67.5 634.5,-48.5 596.5,-48.5"/>
<text text-anchor="middle" x="615.5" y="-55.5" font-family="Helvetica,sans-Serif" font-size="10.00">main</text>
</a>
</g>
</g>
<!-- Node124&#45;&gt;Node127 -->
<g id="edge7" class="edge"><title>Node124&#45;&gt;Node127</title>
<path fill="none" stroke="midnightblue" d="M524.129,-45.4208C548.788,-48.8533 577.768,-52.8871 596.132,-55.4433"/>
<polygon fill="midnightblue" stroke="midnightblue" points="524.608,-41.9539 514.221,-44.0418 523.643,-48.8871 524.608,-41.9539"/>
</g>
<!-- Node125&#45;&gt;Node126 -->
<g id="edge5" class="edge"><title>Node125&#45;&gt;Node126</title>
<path fill="none" stroke="midnightblue" d="M664.837,-83.2149C670.361,-81.3274 675.853,-79.2512 681,-77 711.782,-63.5375 744.838,-42.043 762.857,-29.6543"/>
<polygon fill="midnightblue" stroke="midnightblue" points="663.372,-80.0097 654.925,-86.4056 665.517,-86.673 663.372,-80.0097"/>
</g>
<!-- Node126&#45;&gt;Node124 -->
<g id="edge6" class="edge"><title>Node126&#45;&gt;Node124</title>
<path fill="none" stroke="midnightblue" d="M706.704,-24.4426C646.365,-28.2833 561.572,-33.6805 514.006,-36.7082"/>
<polygon fill="midnightblue" stroke="midnightblue" points="707.161,-27.9207 716.918,-23.7925 706.716,-20.9349 707.161,-27.9207"/>
</g>
</g>
</svg>
