<?xml version="1.0" encoding="UTF-8" standalone="no"?>
<!DOCTYPE svg PUBLIC "-//W3C//DTD SVG 1.1//EN"
 "http://www.w3.org/Graphics/SVG/1.1/DTD/svg11.dtd">
<!-- Generated by graphviz version 2.38.0 (20140413.2041)
 -->
<!-- Title: CGame::play Pages: 1 -->
<svg width="1330pt" height="844pt"
 viewBox="0.00 0.00 1330.00 843.83" xmlns="http://www.w3.org/2000/svg" xmlns:xlink="http://www.w3.org/1999/xlink">
<g id="graph0" class="graph" transform="scale(1 1) rotate(0) translate(4 839.834)">
<title>CGame::play</title>
<!-- Node178 -->
<g id="node1" class="node"><title>Node178</title>
<polygon fill="#bfbfbf" stroke="black" points="0,-399.5 0,-418.5 74,-418.5 74,-399.5 0,-399.5"/>
<text text-anchor="middle" x="37" y="-406.5" font-family="Helvetica,sans-Serif" font-size="10.00">CGame::play</text>
</g>
<!-- Node179 -->
<g id="node2" class="node"><title>Node179</title>
<g id="a_node2"><a xlink:href="class_c_display.html#a53b65673a9b0bfc807a3a1e448962928" target="_top" xlink:title="CDisplay::printWithDelimiter">
<polygon fill="none" stroke="black" points="601,-228.5 601,-247.5 740,-247.5 740,-228.5 601,-228.5"/>
<text text-anchor="middle" x="670.5" y="-235.5" font-family="Helvetica,sans-Serif" font-size="10.00">CDisplay::printWithDelimiter</text>
</a>
</g>
</g>
<!-- Node178&#45;&gt;Node179 -->
<g id="edge1" class="edge"><title>Node178&#45;&gt;Node179</title>
<path fill="none" stroke="midnightblue" d="M48.3761,-399.284C78.9615,-371.318 172.554,-290.489 267,-257 374.284,-218.959 507.793,-221.6 590.849,-228.576"/>
<polygon fill="midnightblue" stroke="midnightblue" points="590.704,-232.077 600.972,-229.469 591.319,-225.104 590.704,-232.077"/>
</g>
<!-- Node181 -->
<g id="node4" class="node"><title>Node181</title>
<g id="a_node4"><a xlink:href="class_c_game.html#a39e1e296c6dcabbf5c824eea6424d6d9" target="_top" xlink:title="CGame::mainMenu">
<polygon fill="none" stroke="black" points="282,-570.5 282,-589.5 383,-589.5 383,-570.5 282,-570.5"/>
<text text-anchor="middle" x="332.5" y="-577.5" font-family="Helvetica,sans-Serif" font-size="10.00">CGame::mainMenu</text>
</a>
</g>
</g>
<!-- Node178&#45;&gt;Node181 -->
<g id="edge3" class="edge"><title>Node178&#45;&gt;Node181</title>
<path fill="none" stroke="midnightblue" d="M54.6208,-418.684C103.556,-447.194 247.348,-530.971 306.075,-565.187"/>
<polygon fill="midnightblue" stroke="midnightblue" points="304.659,-568.413 315.062,-570.423 308.183,-562.364 304.659,-568.413"/>
</g>
<!-- Node201 -->
<g id="node24" class="node"><title>Node201</title>
<g id="a_node24"><a xlink:href="class_c_game.html#a714b291af5e20aae8be14a905fd0522d" target="_top" xlink:title="CGame::tickComponent">
<polygon fill="none" stroke="black" points="110,-380.5 110,-399.5 231,-399.5 231,-380.5 110,-380.5"/>
<text text-anchor="middle" x="170.5" y="-387.5" font-family="Helvetica,sans-Serif" font-size="10.00">CGame::tickComponent</text>
</a>
</g>
</g>
<!-- Node178&#45;&gt;Node201 -->
<g id="edge35" class="edge"><title>Node178&#45;&gt;Node201</title>
<path fill="none" stroke="midnightblue" d="M74.2811,-403.758C82.2901,-402.601 91.0346,-401.337 99.873,-400.06"/>
<polygon fill="midnightblue" stroke="midnightblue" points="100.461,-403.512 109.857,-398.618 99.4596,-396.584 100.461,-403.512"/>
</g>
<!-- Node180 -->
<g id="node3" class="node"><title>Node180</title>
<g id="a_node3"><a xlink:href="class_c_display.html#af350b35b44fc756e0c721ec4ee56c67a" target="_top" xlink:title="CDisplay::printDelimiter">
<polygon fill="none" stroke="black" points="804.5,-228.5 804.5,-247.5 923.5,-247.5 923.5,-228.5 804.5,-228.5"/>
<text text-anchor="middle" x="864" y="-235.5" font-family="Helvetica,sans-Serif" font-size="10.00">CDisplay::printDelimiter</text>
</a>
</g>
</g>
<!-- Node179&#45;&gt;Node180 -->
<g id="edge2" class="edge"><title>Node179&#45;&gt;Node180</title>
<path fill="none" stroke="midnightblue" d="M740.095,-238C757.679,-238 776.595,-238 794.19,-238"/>
<polygon fill="midnightblue" stroke="midnightblue" points="794.377,-241.5 804.377,-238 794.377,-234.5 794.377,-241.5"/>
</g>
<!-- Node182 -->
<g id="node5" class="node"><title>Node182</title>
<g id="a_node5"><a xlink:href="class_c_display.html#a7d4efb0285d6cdf757bc34e38718e17d" target="_top" xlink:title="CDisplay::multiChoice">
<polygon fill="none" stroke="black" points="443,-684.5 443,-703.5 556,-703.5 556,-684.5 443,-684.5"/>
<text text-anchor="middle" x="499.5" y="-691.5" font-family="Helvetica,sans-Serif" font-size="10.00">CDisplay::multiChoice</text>
</a>
</g>
</g>
<!-- Node181&#45;&gt;Node182 -->
<g id="edge4" class="edge"><title>Node181&#45;&gt;Node182</title>
<path fill="none" stroke="midnightblue" d="M343.559,-589.626C368.492,-613.47 431.333,-673.467 434,-675 437.861,-677.22 442.004,-679.201 446.26,-680.964"/>
<polygon fill="midnightblue" stroke="midnightblue" points="445.096,-684.265 455.688,-684.484 447.544,-677.708 445.096,-684.265"/>
</g>
<!-- Node184 -->
<g id="node7" class="node"><title>Node184</title>
<g id="a_node7"><a xlink:href="class_c_game.html#a21a30939333b2c98f607d9bd2927d105" target="_top" xlink:title="CGame::createHero">
<polygon fill="none" stroke="black" points="448,-608.5 448,-627.5 551,-627.5 551,-608.5 448,-608.5"/>
<text text-anchor="middle" x="499.5" y="-615.5" font-family="Helvetica,sans-Serif" font-size="10.00">CGame::createHero</text>
</a>
</g>
</g>
<!-- Node181&#45;&gt;Node184 -->
<g id="edge6" class="edge"><title>Node181&#45;&gt;Node184</title>
<path fill="none" stroke="midnightblue" d="M375.136,-589.589C397.008,-594.626 424.006,-600.844 447.164,-606.177"/>
<polygon fill="midnightblue" stroke="midnightblue" points="446.633,-609.646 457.163,-608.48 448.204,-602.825 446.633,-609.646"/>
</g>
<!-- Node187 -->
<g id="node10" class="node"><title>Node187</title>
<g id="a_node10"><a xlink:href="class_c_game.html#accda079824fc813cbd64b4743846ae24" target="_top" xlink:title="CGame::loadGame">
<polygon fill="none" stroke="black" points="449.5,-646.5 449.5,-665.5 549.5,-665.5 549.5,-646.5 449.5,-646.5"/>
<text text-anchor="middle" x="499.5" y="-653.5" font-family="Helvetica,sans-Serif" font-size="10.00">CGame::loadGame</text>
</a>
</g>
</g>
<!-- Node181&#45;&gt;Node187 -->
<g id="edge11" class="edge"><title>Node181&#45;&gt;Node187</title>
<path fill="none" stroke="midnightblue" d="M347.938,-589.603C366.988,-601.936 401.869,-623.37 434,-637 439.439,-639.307 445.248,-641.445 451.069,-643.389"/>
<polygon fill="midnightblue" stroke="midnightblue" points="450.222,-646.793 460.812,-646.476 452.336,-640.119 450.222,-646.793"/>
</g>
<!-- Node199 -->
<g id="node22" class="node"><title>Node199</title>
<g id="a_node22"><a xlink:href="class_c_game.html#a7b4409fd50b77ae5743a30bd43f01f61" target="_top" xlink:title="CGame::exit">
<polygon fill="none" stroke="black" points="464,-570.5 464,-589.5 535,-589.5 535,-570.5 464,-570.5"/>
<text text-anchor="middle" x="499.5" y="-577.5" font-family="Helvetica,sans-Serif" font-size="10.00">CGame::exit</text>
</a>
</g>
</g>
<!-- Node181&#45;&gt;Node199 -->
<g id="edge31" class="edge"><title>Node181&#45;&gt;Node199</title>
<path fill="none" stroke="midnightblue" d="M383.005,-580C405.541,-580 432.009,-580 453.918,-580"/>
<polygon fill="midnightblue" stroke="midnightblue" points="453.95,-583.5 463.95,-580 453.95,-576.5 453.95,-583.5"/>
</g>
<!-- Node200 -->
<g id="node23" class="node"><title>Node200</title>
<g id="a_node23"><a xlink:href="class_c_display.html#a63f3c4f78cef1d3b13290970da9e3e85" target="_top" xlink:title="CDisplay::printError">
<polygon fill="none" stroke="black" points="449,-266.5 449,-285.5 550,-285.5 550,-266.5 449,-266.5"/>
<text text-anchor="middle" x="499.5" y="-273.5" font-family="Helvetica,sans-Serif" font-size="10.00">CDisplay::printError</text>
</a>
</g>
</g>
<!-- Node181&#45;&gt;Node200 -->
<g id="edge33" class="edge"><title>Node181&#45;&gt;Node200</title>
<path fill="none" stroke="midnightblue" d="M339.121,-570.311C351.397,-548.791 380.871,-495.11 398,-447 421.286,-381.597 386.251,-345.396 434,-295 435.827,-293.072 437.838,-291.337 439.987,-289.775"/>
<polygon fill="midnightblue" stroke="midnightblue" points="442.002,-292.651 448.856,-284.572 438.46,-286.613 442.002,-292.651"/>
</g>
<!-- Node183 -->
<g id="node6" class="node"><title>Node183</title>
<g id="a_node6"><a xlink:href="class_c_display.html#aba2a285f19e987f9ba82447f43be2b10" target="_top" xlink:title="CDisplay::dumpToNewLine">
<polygon fill="none" stroke="black" points="797.5,-570.5 797.5,-589.5 930.5,-589.5 930.5,-570.5 797.5,-570.5"/>
<text text-anchor="middle" x="864" y="-577.5" font-family="Helvetica,sans-Serif" font-size="10.00">CDisplay::dumpToNewLine</text>
</a>
</g>
</g>
<!-- Node182&#45;&gt;Node183 -->
<g id="edge5" class="edge"><title>Node182&#45;&gt;Node183</title>
<path fill="none" stroke="midnightblue" d="M548.37,-684.482C608.322,-672.069 707.165,-649.837 740,-632 759.073,-621.639 756.732,-608.994 776,-599 780.6,-596.614 785.486,-594.528 790.505,-592.702"/>
<polygon fill="midnightblue" stroke="midnightblue" points="791.865,-595.94 800.281,-589.505 789.689,-589.287 791.865,-595.94"/>
</g>
<!-- Node184&#45;&gt;Node179 -->
<g id="edge10" class="edge"><title>Node184&#45;&gt;Node179</title>
<path fill="none" stroke="midnightblue" d="M551.009,-609.761C556.337,-607.08 561.189,-603.574 565,-599 662.83,-481.572 502.24,-373.647 601,-257 602.022,-255.793 603.113,-254.66 604.264,-253.595"/>
<polygon fill="midnightblue" stroke="midnightblue" points="606.591,-256.23 612.627,-247.523 602.478,-250.566 606.591,-256.23"/>
</g>
<!-- Node185 -->
<g id="node8" class="node"><title>Node185</title>
<g id="a_node8"><a xlink:href="class_c_display.html#a54c5d36f4bc11d4a935ff5c86ea4e653" target="_top" xlink:title="CDisplay::print">
<polygon fill="none" stroke="black" points="630.5,-513.5 630.5,-532.5 710.5,-532.5 710.5,-513.5 630.5,-513.5"/>
<text text-anchor="middle" x="670.5" y="-520.5" font-family="Helvetica,sans-Serif" font-size="10.00">CDisplay::print</text>
</a>
</g>
</g>
<!-- Node184&#45;&gt;Node185 -->
<g id="edge7" class="edge"><title>Node184&#45;&gt;Node185</title>
<path fill="none" stroke="midnightblue" d="M544.509,-608.434C551.637,-605.942 558.728,-602.841 565,-599 584.84,-586.851 582.613,-575.254 601,-561 612.734,-551.904 626.918,-543.655 639.328,-537.185"/>
<polygon fill="midnightblue" stroke="midnightblue" points="641.055,-540.234 648.402,-532.6 637.898,-533.986 641.055,-540.234"/>
</g>
<!-- Node186 -->
<g id="node9" class="node"><title>Node186</title>
<g id="a_node9"><a xlink:href="class_c_display.html#a1bd3e25973ed15055a68d4db6abfa765" target="_top" xlink:title="CDisplay::getString">
<polygon fill="none" stroke="black" points="620,-570.5 620,-589.5 721,-589.5 721,-570.5 620,-570.5"/>
<text text-anchor="middle" x="670.5" y="-577.5" font-family="Helvetica,sans-Serif" font-size="10.00">CDisplay::getString</text>
</a>
</g>
</g>
<!-- Node184&#45;&gt;Node186 -->
<g id="edge8" class="edge"><title>Node184&#45;&gt;Node186</title>
<path fill="none" stroke="midnightblue" d="M543.146,-608.411C565.648,-603.351 593.448,-597.1 617.238,-591.751"/>
<polygon fill="midnightblue" stroke="midnightblue" points="618.172,-595.129 627.161,-589.52 616.637,-588.299 618.172,-595.129"/>
</g>
<!-- Node186&#45;&gt;Node183 -->
<g id="edge9" class="edge"><title>Node186&#45;&gt;Node183</title>
<path fill="none" stroke="midnightblue" d="M721.314,-580C741.4,-580 765.02,-580 787.155,-580"/>
<polygon fill="midnightblue" stroke="midnightblue" points="787.202,-583.5 797.202,-580 787.202,-576.5 787.202,-583.5"/>
</g>
<!-- Node187&#45;&gt;Node179 -->
<g id="edge15" class="edge"><title>Node187&#45;&gt;Node179</title>
<path fill="none" stroke="midnightblue" d="M549.795,-648.417C555.61,-645.657 560.916,-641.954 565,-637 618.953,-571.548 546.529,-322.021 601,-257 601.991,-255.817 603.048,-254.705 604.163,-253.659"/>
<polygon fill="midnightblue" stroke="midnightblue" points="606.303,-256.429 612.265,-247.671 602.143,-250.8 606.303,-256.429"/>
</g>
<!-- Node187&#45;&gt;Node180 -->
<g id="edge12" class="edge"><title>Node187&#45;&gt;Node180</title>
<path fill="none" stroke="midnightblue" d="M540.599,-646.411C559.001,-642.014 581.106,-636.737 601,-632 662.768,-617.293 693.015,-641.708 740,-599 844.025,-504.443 860.106,-318.42 862.565,-257.687"/>
<polygon fill="midnightblue" stroke="midnightblue" points="866.067,-257.672 862.89,-247.564 859.071,-257.446 866.067,-257.672"/>
</g>
<!-- Node187&#45;&gt;Node185 -->
<g id="edge13" class="edge"><title>Node187&#45;&gt;Node185</title>
<path fill="none" stroke="midnightblue" d="M549.636,-646.405C555.193,-643.951 560.475,-640.869 565,-637 593.406,-612.71 575.432,-588.262 601,-561 610.323,-551.059 622.843,-543.078 634.629,-537.046"/>
<polygon fill="midnightblue" stroke="midnightblue" points="636.345,-540.105 643.849,-532.626 633.319,-533.793 636.345,-540.105"/>
</g>
<!-- Node187&#45;&gt;Node186 -->
<g id="edge14" class="edge"><title>Node187&#45;&gt;Node186</title>
<path fill="none" stroke="midnightblue" d="M543.264,-646.4C550.755,-643.888 558.292,-640.789 565,-637 583.898,-626.324 582.377,-615.15 601,-604 608.071,-599.766 616.001,-596.129 623.888,-593.06"/>
<polygon fill="midnightblue" stroke="midnightblue" points="625.223,-596.3 633.428,-589.597 622.834,-589.72 625.223,-596.3"/>
</g>
<!-- Node188 -->
<g id="node11" class="node"><title>Node188</title>
<g id="a_node11"><a xlink:href="class_c_game.html#a507b71eeebc2a6aaa08d9e0dcb61c7ac" target="_top" xlink:title="CGame::importPlayerData">
<polygon fill="none" stroke="black" points="605,-684.5 605,-703.5 736,-703.5 736,-684.5 605,-684.5"/>
<text text-anchor="middle" x="670.5" y="-691.5" font-family="Helvetica,sans-Serif" font-size="10.00">CGame::importPlayerData</text>
</a>
</g>
</g>
<!-- Node187&#45;&gt;Node188 -->
<g id="edge16" class="edge"><title>Node187&#45;&gt;Node188</title>
<path fill="none" stroke="midnightblue" d="M543.146,-665.589C565.648,-670.649 593.448,-676.9 617.238,-682.249"/>
<polygon fill="midnightblue" stroke="midnightblue" points="616.637,-685.701 627.161,-684.48 618.172,-678.871 616.637,-685.701"/>
</g>
<!-- Node189 -->
<g id="node12" class="node"><title>Node189</title>
<g id="a_node12"><a xlink:href="class_c_stream_decoder.html#a27f04fbbe2eb121fe15988594fe7053f" target="_top" xlink:title="CStreamDecoder::decodePlayerData">
<polygon fill="none" stroke="black" points="776,-712.5 776,-731.5 952,-731.5 952,-712.5 776,-712.5"/>
<text text-anchor="middle" x="864" y="-719.5" font-family="Helvetica,sans-Serif" font-size="10.00">CStreamDecoder::decodePlayerData</text>
</a>
</g>
</g>
<!-- Node188&#45;&gt;Node189 -->
<g id="edge17" class="edge"><title>Node188&#45;&gt;Node189</title>
<path fill="none" stroke="midnightblue" d="M736.066,-703.44C752.677,-705.869 770.693,-708.503 787.792,-711.004"/>
<polygon fill="midnightblue" stroke="midnightblue" points="787.335,-714.474 797.736,-712.458 788.348,-707.547 787.335,-714.474"/>
</g>
<!-- Node192 -->
<g id="node15" class="node"><title>Node192</title>
<g id="a_node15"><a xlink:href="class_c_stream_decoder.html#a57a7f304974a6b5be31e374685b70e33" target="_top" xlink:title="CStreamDecoder::getNumbers">
<polygon fill="none" stroke="black" points="1173,-794.5 1173,-813.5 1322,-813.5 1322,-794.5 1173,-794.5"/>
<text text-anchor="middle" x="1247.5" y="-801.5" font-family="Helvetica,sans-Serif" font-size="10.00">CStreamDecoder::getNumbers</text>
</a>
</g>
</g>
<!-- Node188&#45;&gt;Node192 -->
<g id="edge30" class="edge"><title>Node188&#45;&gt;Node192</title>
<path fill="none" stroke="midnightblue" d="M687.539,-703.642C732.759,-730.181 865.939,-803.929 988,-828 1052.97,-840.813 1071.16,-835.13 1137,-828 1158.58,-825.662 1182.15,-820.805 1201.87,-816.067"/>
<polygon fill="midnightblue" stroke="midnightblue" points="1202.93,-819.41 1211.8,-813.615 1201.26,-812.614 1202.93,-819.41"/>
</g>
<!-- Node193 -->
<g id="node16" class="node"><title>Node193</title>
<g id="a_node16"><a xlink:href="class_c_hero.html#a7b1a1b3c196bbe5b8da97c56f520c1f3" target="_top" xlink:title="CHero::update">
<polygon fill="none" stroke="black" points="824.5,-646.5 824.5,-665.5 903.5,-665.5 903.5,-646.5 824.5,-646.5"/>
<text text-anchor="middle" x="864" y="-653.5" font-family="Helvetica,sans-Serif" font-size="10.00">CHero::update</text>
</a>
</g>
</g>
<!-- Node188&#45;&gt;Node193 -->
<g id="edge21" class="edge"><title>Node188&#45;&gt;Node193</title>
<path fill="none" stroke="midnightblue" d="M719.824,-684.411C748.765,-678.668 785.441,-671.39 814.427,-665.639"/>
<polygon fill="midnightblue" stroke="midnightblue" points="815.206,-669.052 824.334,-663.673 813.844,-662.186 815.206,-669.052"/>
</g>
<!-- Node198 -->
<g id="node21" class="node"><title>Node198</title>
<g id="a_node21"><a xlink:href="class_c_storyline.html#ad8c62b61513d498b53454aeaf621dda0" target="_top" xlink:title="CStoryline::update">
<polygon fill="none" stroke="black" points="815.5,-608.5 815.5,-627.5 912.5,-627.5 912.5,-608.5 815.5,-608.5"/>
<text text-anchor="middle" x="864" y="-615.5" font-family="Helvetica,sans-Serif" font-size="10.00">CStoryline::update</text>
</a>
</g>
</g>
<!-- Node188&#45;&gt;Node198 -->
<g id="edge29" class="edge"><title>Node188&#45;&gt;Node198</title>
<path fill="none" stroke="midnightblue" d="M707.572,-684.403C718.409,-680.73 730.053,-675.955 740,-670 758.623,-658.85 756.732,-646.994 776,-637 785.058,-632.302 795.228,-628.763 805.335,-626.099"/>
<polygon fill="midnightblue" stroke="midnightblue" points="806.455,-629.43 815.377,-623.715 804.839,-622.619 806.455,-629.43"/>
</g>
<!-- Node190 -->
<g id="node13" class="node"><title>Node190</title>
<g id="a_node13"><a xlink:href="class_c_stream_decoder.html#a736a4660fb1fc91ffc7345050f815994" target="_top" xlink:title="CStreamDecoder::getString">
<polygon fill="none" stroke="black" points="1179.5,-668.5 1179.5,-687.5 1315.5,-687.5 1315.5,-668.5 1179.5,-668.5"/>
<text text-anchor="middle" x="1247.5" y="-675.5" font-family="Helvetica,sans-Serif" font-size="10.00">CStreamDecoder::getString</text>
</a>
</g>
</g>
<!-- Node189&#45;&gt;Node190 -->
<g id="edge18" class="edge"><title>Node189&#45;&gt;Node190</title>
<path fill="none" stroke="midnightblue" d="M952.01,-718.76C1005.57,-715.984 1075.5,-710.954 1137,-702 1157.66,-698.991 1180.24,-694.289 1199.5,-689.841"/>
<polygon fill="midnightblue" stroke="midnightblue" points="1200.31,-693.246 1209.24,-687.548 1198.7,-686.432 1200.31,-693.246"/>
</g>
<!-- Node191 -->
<g id="node14" class="node"><title>Node191</title>
<g id="a_node14"><a xlink:href="class_c_stream_decoder.html#a5df71ab29ca4dc60f6c628fcb4a77949" target="_top" xlink:title="CStreamDecoder::getNumbers\lAsString">
<polygon fill="none" stroke="black" points="988,-789 988,-819 1137,-819 1137,-789 988,-789"/>
<text text-anchor="start" x="996" y="-807" font-family="Helvetica,sans-Serif" font-size="10.00">CStreamDecoder::getNumbers</text>
<text text-anchor="middle" x="1062.5" y="-796" font-family="Helvetica,sans-Serif" font-size="10.00">AsString</text>
</a>
</g>
</g>
<!-- Node189&#45;&gt;Node191 -->
<g id="edge19" class="edge"><title>Node189&#45;&gt;Node191</title>
<path fill="none" stroke="midnightblue" d="M887.634,-731.669C912.284,-742.175 952.888,-759.413 988,-774 996.693,-777.611 1005.98,-781.431 1014.92,-785.091"/>
<polygon fill="midnightblue" stroke="midnightblue" points="1013.87,-788.441 1024.45,-788.982 1016.51,-781.96 1013.87,-788.441"/>
</g>
<!-- Node191&#45;&gt;Node192 -->
<g id="edge20" class="edge"><title>Node191&#45;&gt;Node192</title>
<path fill="none" stroke="midnightblue" d="M1137.14,-804C1145.47,-804 1154.01,-804 1162.46,-804"/>
<polygon fill="midnightblue" stroke="midnightblue" points="1162.71,-807.5 1172.71,-804 1162.71,-800.5 1162.71,-807.5"/>
</g>
<!-- Node193&#45;&gt;Node190 -->
<g id="edge22" class="edge"><title>Node193&#45;&gt;Node190</title>
<path fill="none" stroke="midnightblue" d="M903.783,-655.582C920.336,-653.526 938.83,-648.478 952,-637 986.98,-606.513 949.951,-565.558 988,-539 1042.3,-501.097 1077.42,-510.09 1137,-539 1188.9,-564.183 1223.57,-627.206 1238.37,-659.01"/>
<polygon fill="midnightblue" stroke="midnightblue" points="1235.34,-660.805 1242.62,-668.499 1241.73,-657.942 1235.34,-660.805"/>
</g>
<!-- Node193&#45;&gt;Node192 -->
<g id="edge28" class="edge"><title>Node193&#45;&gt;Node192</title>
<path fill="none" stroke="midnightblue" d="M889.737,-665.597C955.789,-691.221 1136.42,-761.295 1212.26,-790.716"/>
<polygon fill="midnightblue" stroke="midnightblue" points="1211.23,-794.071 1221.82,-794.425 1213.76,-787.545 1211.23,-794.071"/>
</g>
<!-- Node194 -->
<g id="node17" class="node"><title>Node194</title>
<g id="a_node17"><a xlink:href="class_c_stream_decoder.html#aeaef1aa3239cf7b5d00397b6e46f67d1" target="_top" xlink:title="CStreamDecoder::getString\lAsInt">
<polygon fill="none" stroke="black" points="994.5,-663 994.5,-693 1130.5,-693 1130.5,-663 994.5,-663"/>
<text text-anchor="start" x="1002.5" y="-681" font-family="Helvetica,sans-Serif" font-size="10.00">CStreamDecoder::getString</text>
<text text-anchor="middle" x="1062.5" y="-670" font-family="Helvetica,sans-Serif" font-size="10.00">AsInt</text>
</a>
</g>
</g>
<!-- Node193&#45;&gt;Node194 -->
<g id="edge23" class="edge"><title>Node193&#45;&gt;Node194</title>
<path fill="none" stroke="midnightblue" d="M903.822,-660.346C926.833,-662.923 956.81,-666.279 984.44,-669.372"/>
<polygon fill="midnightblue" stroke="midnightblue" points="984.169,-672.864 994.496,-670.498 984.948,-665.907 984.169,-672.864"/>
</g>
<!-- Node195 -->
<g id="node18" class="node"><title>Node195</title>
<g id="a_node18"><a xlink:href="class_c_equipment.html#abf42868d8cd5d627d872dbf7f80bff9a" target="_top" xlink:title="CEquipment::setAttack">
<polygon fill="none" stroke="black" points="1003.5,-624.5 1003.5,-643.5 1121.5,-643.5 1121.5,-624.5 1003.5,-624.5"/>
<text text-anchor="middle" x="1062.5" y="-631.5" font-family="Helvetica,sans-Serif" font-size="10.00">CEquipment::setAttack</text>
</a>
</g>
</g>
<!-- Node193&#45;&gt;Node195 -->
<g id="edge25" class="edge"><title>Node193&#45;&gt;Node195</title>
<path fill="none" stroke="midnightblue" d="M903.822,-651.654C929.346,-648.796 963.441,-644.979 993.397,-641.625"/>
<polygon fill="midnightblue" stroke="midnightblue" points="993.83,-645.098 1003.38,-640.507 993.051,-638.142 993.83,-645.098"/>
</g>
<!-- Node196 -->
<g id="node19" class="node"><title>Node196</title>
<g id="a_node19"><a xlink:href="class_c_equipment.html#a223e0e1172975f9d9c49612b2513afb0" target="_top" xlink:title="CEquipment::setArmour">
<polygon fill="none" stroke="black" points="1002,-586.5 1002,-605.5 1123,-605.5 1123,-586.5 1002,-586.5"/>
<text text-anchor="middle" x="1062.5" y="-593.5" font-family="Helvetica,sans-Serif" font-size="10.00">CEquipment::setArmour</text>
</a>
</g>
</g>
<!-- Node193&#45;&gt;Node196 -->
<g id="edge26" class="edge"><title>Node193&#45;&gt;Node196</title>
<path fill="none" stroke="midnightblue" d="M903.508,-650.447C918.931,-647.494 936.649,-643.163 952,-637 969.401,-630.014 970.735,-622.315 988,-615 993.734,-612.571 999.855,-610.391 1006.03,-608.451"/>
<polygon fill="midnightblue" stroke="midnightblue" points="1007.11,-611.781 1015.71,-605.599 1005.13,-605.066 1007.11,-611.781"/>
</g>
<!-- Node197 -->
<g id="node20" class="node"><title>Node197</title>
<g id="a_node20"><a xlink:href="class_c_inventory.html#a2ae39f69247c25fa2ee46c4111bcce56" target="_top" xlink:title="CInventory::update">
<polygon fill="none" stroke="black" points="1014,-548.5 1014,-567.5 1111,-567.5 1111,-548.5 1014,-548.5"/>
<text text-anchor="middle" x="1062.5" y="-555.5" font-family="Helvetica,sans-Serif" font-size="10.00">CInventory::update</text>
</a>
</g>
</g>
<!-- Node193&#45;&gt;Node197 -->
<g id="edge27" class="edge"><title>Node193&#45;&gt;Node197</title>
<path fill="none" stroke="midnightblue" d="M903.699,-654.251C919.852,-651.91 938.06,-647.009 952,-637 977.262,-618.863 963.087,-595.613 988,-577 992.87,-573.361 998.371,-570.417 1004.12,-568.035"/>
<polygon fill="midnightblue" stroke="midnightblue" points="1005.71,-571.185 1013.95,-564.534 1003.36,-564.59 1005.71,-571.185"/>
</g>
<!-- Node194&#45;&gt;Node190 -->
<g id="edge24" class="edge"><title>Node194&#45;&gt;Node190</title>
<path fill="none" stroke="midnightblue" d="M1130.6,-678C1143.16,-678 1156.38,-678 1169.21,-678"/>
<polygon fill="midnightblue" stroke="midnightblue" points="1169.4,-681.5 1179.4,-678 1169.4,-674.5 1169.4,-681.5"/>
</g>
<!-- Node199&#45;&gt;Node185 -->
<g id="edge32" class="edge"><title>Node199&#45;&gt;Node185</title>
<path fill="none" stroke="midnightblue" d="M534.433,-570.435C544.327,-567.53 555.13,-564.245 565,-561 588.483,-553.28 614.618,-543.776 634.878,-536.204"/>
<polygon fill="midnightblue" stroke="midnightblue" points="636.184,-539.452 644.314,-532.658 633.722,-532.899 636.184,-539.452"/>
</g>
<!-- Node200&#45;&gt;Node179 -->
<g id="edge34" class="edge"><title>Node200&#45;&gt;Node179</title>
<path fill="none" stroke="midnightblue" d="M543.146,-266.411C565.648,-261.351 593.448,-255.1 617.238,-249.751"/>
<polygon fill="midnightblue" stroke="midnightblue" points="618.172,-253.129 627.161,-247.52 616.637,-246.299 618.172,-253.129"/>
</g>
<!-- Node201&#45;&gt;Node181 -->
<g id="edge69" class="edge"><title>Node201&#45;&gt;Node181</title>
<path fill="none" stroke="midnightblue" d="M179.654,-399.683C205.112,-429.914 283.386,-522.865 316.479,-562.163"/>
<polygon fill="midnightblue" stroke="midnightblue" points="314.052,-564.714 323.17,-570.108 319.406,-560.205 314.052,-564.714"/>
</g>
<!-- Node201&#45;&gt;Node182 -->
<g id="edge36" class="edge"><title>Node201&#45;&gt;Node182</title>
<path fill="none" stroke="midnightblue" d="M173.394,-399.702C180.199,-432.173 206.305,-538.397 267,-599 312.826,-644.756 383.774,-669.436 435.051,-682.071"/>
<polygon fill="midnightblue" stroke="midnightblue" points="434.493,-685.535 445.031,-684.44 436.11,-678.725 434.493,-685.535"/>
</g>
<!-- Node202 -->
<g id="node25" class="node"><title>Node202</title>
<g id="a_node25"><a xlink:href="class_c_game.html#ac0a8028013ca5a7c135c29fa582df4a0" target="_top" xlink:title="CGame::checkHeroStatus">
<polygon fill="none" stroke="black" points="267,-418.5 267,-437.5 398,-437.5 398,-418.5 267,-418.5"/>
<text text-anchor="middle" x="332.5" y="-425.5" font-family="Helvetica,sans-Serif" font-size="10.00">CGame::checkHeroStatus</text>
</a>
</g>
</g>
<!-- Node201&#45;&gt;Node202 -->
<g id="edge37" class="edge"><title>Node201&#45;&gt;Node202</title>
<path fill="none" stroke="midnightblue" d="M211.875,-399.589C232.988,-404.604 259.029,-410.788 281.417,-416.105"/>
<polygon fill="midnightblue" stroke="midnightblue" points="280.877,-419.574 291.416,-418.48 282.495,-412.764 280.877,-419.574"/>
</g>
<!-- Node206 -->
<g id="node29" class="node"><title>Node206</title>
<g id="a_node29"><a xlink:href="class_c_game.html#acdb5a10d8b17584b07b3c736ede7bf57" target="_top" xlink:title="CGame::reset">
<polygon fill="none" stroke="black" points="461,-304.5 461,-323.5 538,-323.5 538,-304.5 461,-304.5"/>
<text text-anchor="middle" x="499.5" y="-311.5" font-family="Helvetica,sans-Serif" font-size="10.00">CGame::reset</text>
</a>
</g>
</g>
<!-- Node201&#45;&gt;Node206 -->
<g id="edge68" class="edge"><title>Node201&#45;&gt;Node206</title>
<path fill="none" stroke="midnightblue" d="M212.584,-380.452C273.317,-366.336 386.779,-339.966 451.001,-325.04"/>
<polygon fill="midnightblue" stroke="midnightblue" points="451.922,-328.419 460.87,-322.746 450.337,-321.601 451.922,-328.419"/>
</g>
<!-- Node210 -->
<g id="node33" class="node"><title>Node210</title>
<g id="a_node33"><a xlink:href="class_c_hero.html#a0232f04b4e49227ba90a8922135d4102" target="_top" xlink:title="CHero::printStats">
<polygon fill="none" stroke="black" points="453.5,-57.5 453.5,-76.5 545.5,-76.5 545.5,-57.5 453.5,-57.5"/>
<text text-anchor="middle" x="499.5" y="-64.5" font-family="Helvetica,sans-Serif" font-size="10.00">CHero::printStats</text>
</a>
</g>
</g>
<!-- Node201&#45;&gt;Node210 -->
<g id="edge49" class="edge"><title>Node201&#45;&gt;Node210</title>
<path fill="none" stroke="midnightblue" d="M177.358,-380.467C191.429,-357.899 228.812,-299.882 267,-257 333.746,-182.049 353.225,-164.566 434,-105 445.638,-96.418 459.343,-88.1181 471.12,-81.4761"/>
<polygon fill="midnightblue" stroke="midnightblue" points="473.013,-84.4289 480.075,-76.531 469.629,-78.301 473.013,-84.4289"/>
</g>
<!-- Node215 -->
<g id="node38" class="node"><title>Node215</title>
<g id="a_node38"><a xlink:href="class_c_game.html#a49656fe4404b3df63f2dbebd9b754edd" target="_top" xlink:title="CGame::saveGame">
<polygon fill="none" stroke="black" points="282,-266.5 282,-285.5 383,-285.5 383,-266.5 282,-266.5"/>
<text text-anchor="middle" x="332.5" y="-273.5" font-family="Helvetica,sans-Serif" font-size="10.00">CGame::saveGame</text>
</a>
</g>
</g>
<!-- Node201&#45;&gt;Node215 -->
<g id="edge55" class="edge"><title>Node201&#45;&gt;Node215</title>
<path fill="none" stroke="midnightblue" d="M184.866,-380.477C212.444,-360.827 275.884,-315.627 309.563,-291.63"/>
<polygon fill="midnightblue" stroke="midnightblue" points="311.719,-294.391 317.833,-285.738 307.657,-288.69 311.719,-294.391"/>
</g>
<!-- Node202&#45;&gt;Node178 -->
<g id="edge48" class="edge"><title>Node202&#45;&gt;Node178</title>
<path fill="none" stroke="midnightblue" d="M266.891,-423.817C211.656,-420.242 133.52,-415.184 84.3233,-411.999"/>
<polygon fill="midnightblue" stroke="midnightblue" points="84.4885,-408.502 74.2832,-411.349 84.0362,-415.488 84.4885,-408.502"/>
</g>
<!-- Node202&#45;&gt;Node185 -->
<g id="edge40" class="edge"><title>Node202&#45;&gt;Node185</title>
<path fill="none" stroke="midnightblue" d="M398.146,-424.099C445.729,-423.398 511.22,-427.042 565,-447 599.965,-459.975 633.588,-488.15 652.866,-506.311"/>
<polygon fill="midnightblue" stroke="midnightblue" points="650.588,-508.976 660.212,-513.407 655.452,-503.942 650.588,-508.976"/>
</g>
<!-- Node203 -->
<g id="node26" class="node"><title>Node203</title>
<g id="a_node26"><a xlink:href="class_c_hero.html#acf265a146732ccfe08db87b6cc69cef3" target="_top" xlink:title="CHero::isDead">
<polygon fill="none" stroke="black" points="459.5,-494.5 459.5,-513.5 539.5,-513.5 539.5,-494.5 459.5,-494.5"/>
<text text-anchor="middle" x="499.5" y="-501.5" font-family="Helvetica,sans-Serif" font-size="10.00">CHero::isDead</text>
</a>
</g>
</g>
<!-- Node202&#45;&gt;Node203 -->
<g id="edge38" class="edge"><title>Node202&#45;&gt;Node203</title>
<path fill="none" stroke="midnightblue" d="M347.938,-437.603C366.988,-449.936 401.869,-471.37 434,-485 439.439,-487.307 445.248,-489.445 451.069,-491.389"/>
<polygon fill="midnightblue" stroke="midnightblue" points="450.222,-494.793 460.812,-494.476 452.336,-488.119 450.222,-494.793"/>
</g>
<!-- Node204 -->
<g id="node27" class="node"><title>Node204</title>
<g id="a_node27"><a xlink:href="class_c_storyline.html#a9531c0509722bbb1647837d4549a9520" target="_top" xlink:title="CStoryline::getEventCount">
<polygon fill="none" stroke="black" points="434,-456.5 434,-475.5 565,-475.5 565,-456.5 434,-456.5"/>
<text text-anchor="middle" x="499.5" y="-463.5" font-family="Helvetica,sans-Serif" font-size="10.00">CStoryline::getEventCount</text>
</a>
</g>
</g>
<!-- Node202&#45;&gt;Node204 -->
<g id="edge39" class="edge"><title>Node202&#45;&gt;Node204</title>
<path fill="none" stroke="midnightblue" d="M375.136,-437.589C397.008,-442.626 424.006,-448.844 447.164,-454.177"/>
<polygon fill="midnightblue" stroke="midnightblue" points="446.633,-457.646 457.163,-456.48 448.204,-450.825 446.633,-457.646"/>
</g>
<!-- Node205 -->
<g id="node28" class="node"><title>Node205</title>
<g id="a_node28"><a xlink:href="class_c_hero.html#ae4b84144aca1948f65daa0b9734f163f" target="_top" xlink:title="CHero::getName">
<polygon fill="none" stroke="black" points="455,-532.5 455,-551.5 544,-551.5 544,-532.5 455,-532.5"/>
<text text-anchor="middle" x="499.5" y="-539.5" font-family="Helvetica,sans-Serif" font-size="10.00">CHero::getName</text>
</a>
</g>
</g>
<!-- Node202&#45;&gt;Node205 -->
<g id="edge41" class="edge"><title>Node202&#45;&gt;Node205</title>
<path fill="none" stroke="midnightblue" d="M340.986,-437.636C356.346,-456.757 393.414,-499.661 434,-523 437.861,-525.22 442.004,-527.201 446.26,-528.964"/>
<polygon fill="midnightblue" stroke="midnightblue" points="445.096,-532.265 455.688,-532.484 447.544,-525.708 445.096,-532.265"/>
</g>
<!-- Node202&#45;&gt;Node206 -->
<g id="edge42" class="edge"><title>Node202&#45;&gt;Node206</title>
<path fill="none" stroke="midnightblue" d="M347.284,-418.477C375.724,-398.827 441.146,-353.627 475.878,-329.63"/>
<polygon fill="midnightblue" stroke="midnightblue" points="478.168,-332.302 484.405,-323.738 474.189,-326.543 478.168,-332.302"/>
</g>
<!-- Node206&#45;&gt;Node185 -->
<g id="edge43" class="edge"><title>Node206&#45;&gt;Node185</title>
<path fill="none" stroke="midnightblue" d="M538.119,-321.499C547.975,-325.064 557.836,-330.304 565,-338 603.812,-379.69 570.746,-412.739 601,-461 612.68,-479.632 631.495,-496.089 646.453,-507.357"/>
<polygon fill="midnightblue" stroke="midnightblue" points="644.584,-510.325 654.732,-513.369 648.697,-504.661 644.584,-510.325"/>
</g>
<!-- Node206&#45;&gt;Node198 -->
<g id="edge44" class="edge"><title>Node206&#45;&gt;Node198</title>
<path fill="none" stroke="midnightblue" d="M538.027,-322.196C547.24,-325.119 556.804,-328.976 565,-334 584.562,-345.99 584.709,-354.844 601,-371 661.711,-431.206 692.797,-432.708 740,-504 764.927,-541.648 741.811,-569.507 776,-599 784.335,-606.19 794.764,-610.851 805.477,-613.832"/>
<polygon fill="midnightblue" stroke="midnightblue" points="804.811,-617.271 815.344,-616.123 806.394,-610.452 804.811,-617.271"/>
</g>
<!-- Node207 -->
<g id="node30" class="node"><title>Node207</title>
<g id="a_node30"><a xlink:href="class_c_world.html#a72b79b6801a9e7ae670cc3790acf31d2" target="_top" xlink:title="CWorld::getStoryline">
<polygon fill="none" stroke="black" points="617,-342.5 617,-361.5 724,-361.5 724,-342.5 617,-342.5"/>
<text text-anchor="middle" x="670.5" y="-349.5" font-family="Helvetica,sans-Serif" font-size="10.00">CWorld::getStoryline</text>
</a>
</g>
</g>
<!-- Node206&#45;&gt;Node207 -->
<g id="edge45" class="edge"><title>Node206&#45;&gt;Node207</title>
<path fill="none" stroke="midnightblue" d="M538.007,-322.433C561.271,-327.665 591.505,-334.463 617.115,-340.221"/>
<polygon fill="midnightblue" stroke="midnightblue" points="616.517,-343.674 627.042,-342.453 618.053,-336.845 616.517,-343.674"/>
</g>
<!-- Node208 -->
<g id="node31" class="node"><title>Node208</title>
<g id="a_node31"><a xlink:href="class_c_shopping.html#aa232d999181d07bfd6ec0ec5c645f51b" target="_top" xlink:title="CShopping::update">
<polygon fill="none" stroke="black" points="621,-304.5 621,-323.5 720,-323.5 720,-304.5 621,-304.5"/>
<text text-anchor="middle" x="670.5" y="-311.5" font-family="Helvetica,sans-Serif" font-size="10.00">CShopping::update</text>
</a>
</g>
</g>
<!-- Node206&#45;&gt;Node208 -->
<g id="edge46" class="edge"><title>Node206&#45;&gt;Node208</title>
<path fill="none" stroke="midnightblue" d="M538.007,-314C559.364,-314 586.593,-314 610.728,-314"/>
<polygon fill="midnightblue" stroke="midnightblue" points="610.856,-317.5 620.856,-314 610.856,-310.5 610.856,-317.5"/>
</g>
<!-- Node209 -->
<g id="node32" class="node"><title>Node209</title>
<g id="a_node32"><a xlink:href="class_c_world.html#a1c10d5ec2514347fd3fe28f85b23db13" target="_top" xlink:title="CWorld::getAllItemID">
<polygon fill="none" stroke="black" points="617,-266.5 617,-285.5 724,-285.5 724,-266.5 617,-266.5"/>
<text text-anchor="middle" x="670.5" y="-273.5" font-family="Helvetica,sans-Serif" font-size="10.00">CWorld::getAllItemID</text>
</a>
</g>
</g>
<!-- Node206&#45;&gt;Node209 -->
<g id="edge47" class="edge"><title>Node206&#45;&gt;Node209</title>
<path fill="none" stroke="midnightblue" d="M538.007,-305.567C561.271,-300.335 591.505,-293.537 617.115,-287.779"/>
<polygon fill="midnightblue" stroke="midnightblue" points="618.053,-291.155 627.042,-285.547 616.517,-284.326 618.053,-291.155"/>
</g>
<!-- Node210&#45;&gt;Node179 -->
<g id="edge50" class="edge"><title>Node210&#45;&gt;Node179</title>
<path fill="none" stroke="midnightblue" d="M520.96,-76.5504C534.323,-83.3661 551.695,-93.3634 565,-105 586.023,-123.387 633.501,-187.883 656.512,-219.812"/>
<polygon fill="midnightblue" stroke="midnightblue" points="653.887,-222.157 662.562,-228.24 659.574,-218.075 653.887,-222.157"/>
</g>
<!-- Node211 -->
<g id="node34" class="node"><title>Node211</title>
<g id="a_node34"><a xlink:href="class_c_hero.html#a1be25c88254db1f753e1ce89da03ef46" target="_top" xlink:title="CHero::getAttack">
<polygon fill="none" stroke="black" points="624.5,-0.5 624.5,-19.5 716.5,-19.5 716.5,-0.5 624.5,-0.5"/>
<text text-anchor="middle" x="670.5" y="-7.5" font-family="Helvetica,sans-Serif" font-size="10.00">CHero::getAttack</text>
</a>
</g>
</g>
<!-- Node210&#45;&gt;Node211 -->
<g id="edge51" class="edge"><title>Node210&#45;&gt;Node211</title>
<path fill="none" stroke="midnightblue" d="M523.84,-57.4841C544.073,-49.402 574.228,-37.7542 601,-29 608.016,-26.7058 615.493,-24.4464 622.832,-22.3309"/>
<polygon fill="midnightblue" stroke="midnightblue" points="624.026,-25.6307 632.699,-19.5455 622.124,-18.894 624.026,-25.6307"/>
</g>
<!-- Node213 -->
<g id="node36" class="node"><title>Node213</title>
<g id="a_node36"><a xlink:href="class_c_hero.html#a50d1e46ce5b1d84c6ed04493f1d71f81" target="_top" xlink:title="CHero::getArmour">
<polygon fill="none" stroke="black" points="623,-38.5 623,-57.5 718,-57.5 718,-38.5 623,-38.5"/>
<text text-anchor="middle" x="670.5" y="-45.5" font-family="Helvetica,sans-Serif" font-size="10.00">CHero::getArmour</text>
</a>
</g>
</g>
<!-- Node210&#45;&gt;Node213 -->
<g id="edge53" class="edge"><title>Node210&#45;&gt;Node213</title>
<path fill="none" stroke="midnightblue" d="M545.789,-61.9083C566.384,-59.5929 590.972,-56.8286 612.782,-54.3766"/>
<polygon fill="midnightblue" stroke="midnightblue" points="613.361,-57.8336 622.908,-53.2382 612.579,-50.8774 613.361,-57.8336"/>
</g>
<!-- Node212 -->
<g id="node35" class="node"><title>Node212</title>
<g id="a_node35"><a xlink:href="class_c_equipment.html#a6b27732ece0ab3c74bff006093dc5a7d" target="_top" xlink:title="CEquipment::getAttack">
<polygon fill="none" stroke="black" points="805,-0.5 805,-19.5 923,-19.5 923,-0.5 805,-0.5"/>
<text text-anchor="middle" x="864" y="-7.5" font-family="Helvetica,sans-Serif" font-size="10.00">CEquipment::getAttack</text>
</a>
</g>
</g>
<!-- Node211&#45;&gt;Node212 -->
<g id="edge52" class="edge"><title>Node211&#45;&gt;Node212</title>
<path fill="none" stroke="midnightblue" d="M716.883,-10C740.122,-10 768.894,-10 794.745,-10"/>
<polygon fill="midnightblue" stroke="midnightblue" points="794.865,-13.5001 804.865,-10 794.865,-6.5001 794.865,-13.5001"/>
</g>
<!-- Node214 -->
<g id="node37" class="node"><title>Node214</title>
<g id="a_node37"><a xlink:href="class_c_equipment.html#a27e962aead56bb39886acc86c17b7478" target="_top" xlink:title="CEquipment::getArmour">
<polygon fill="none" stroke="black" points="803.5,-38.5 803.5,-57.5 924.5,-57.5 924.5,-38.5 803.5,-38.5"/>
<text text-anchor="middle" x="864" y="-45.5" font-family="Helvetica,sans-Serif" font-size="10.00">CEquipment::getArmour</text>
</a>
</g>
</g>
<!-- Node213&#45;&gt;Node214 -->
<g id="edge54" class="edge"><title>Node213&#45;&gt;Node214</title>
<path fill="none" stroke="midnightblue" d="M718.346,-48C740.827,-48 768.225,-48 793.105,-48"/>
<polygon fill="midnightblue" stroke="midnightblue" points="793.226,-51.5001 803.226,-48 793.226,-44.5001 793.226,-51.5001"/>
</g>
<!-- Node215&#45;&gt;Node179 -->
<g id="edge66" class="edge"><title>Node215&#45;&gt;Node179</title>
<path fill="none" stroke="midnightblue" d="M378.36,-266.463C395.679,-263.059 415.697,-259.461 434,-257 485.967,-250.012 544.755,-245.265 590.596,-242.264"/>
<polygon fill="midnightblue" stroke="midnightblue" points="591.01,-245.744 600.766,-241.612 590.562,-238.759 591.01,-245.744"/>
</g>
<!-- Node215&#45;&gt;Node180 -->
<g id="edge56" class="edge"><title>Node215&#45;&gt;Node180</title>
<path fill="none" stroke="midnightblue" d="M356.653,-266.418C376.768,-258.462 406.856,-247.443 434,-241 566.665,-209.51 604.049,-208.562 740,-219 760.642,-220.585 783.062,-223.645 803.038,-226.854"/>
<polygon fill="midnightblue" stroke="midnightblue" points="802.496,-230.312 812.933,-228.487 803.636,-223.405 802.496,-230.312"/>
</g>
<!-- Node215&#45;&gt;Node185 -->
<g id="edge57" class="edge"><title>Node215&#45;&gt;Node185</title>
<path fill="none" stroke="midnightblue" d="M350.207,-285.644C396.769,-312.649 527.057,-389.12 565,-421 583.312,-436.386 584.112,-444.064 601,-461 617.096,-477.141 636.43,-494.467 650.447,-506.689"/>
<polygon fill="midnightblue" stroke="midnightblue" points="648.17,-509.347 658.021,-513.247 652.753,-504.055 648.17,-509.347"/>
</g>
<!-- Node215&#45;&gt;Node186 -->
<g id="edge58" class="edge"><title>Node215&#45;&gt;Node186</title>
<path fill="none" stroke="midnightblue" d="M339.349,-285.618C353.196,-307.661 390.133,-362.359 434,-394 484.938,-430.742 521.085,-402.098 565,-447 596.571,-479.28 571.456,-507.855 601,-542 609.777,-552.144 621.959,-560.112 633.619,-566.075"/>
<polygon fill="midnightblue" stroke="midnightblue" points="632.25,-569.299 642.784,-570.431 635.255,-562.977 632.25,-569.299"/>
</g>
<!-- Node215&#45;&gt;Node200 -->
<g id="edge67" class="edge"><title>Node215&#45;&gt;Node200</title>
<path fill="none" stroke="midnightblue" d="M383.005,-276C400.465,-276 420.284,-276 438.515,-276"/>
<polygon fill="midnightblue" stroke="midnightblue" points="438.745,-279.5 448.745,-276 438.745,-272.5 438.745,-279.5"/>
</g>
<!-- Node216 -->
<g id="node39" class="node"><title>Node216</title>
<g id="a_node39"><a xlink:href="class_c_game.html#a7d821ce9a0454653bbfde69979155da9" target="_top" xlink:title="CGame::exportPlayerData">
<polygon fill="none" stroke="black" points="434,-114.5 434,-133.5 565,-133.5 565,-114.5 434,-114.5"/>
<text text-anchor="middle" x="499.5" y="-121.5" font-family="Helvetica,sans-Serif" font-size="10.00">CGame::exportPlayerData</text>
</a>
</g>
</g>
<!-- Node215&#45;&gt;Node216 -->
<g id="edge59" class="edge"><title>Node215&#45;&gt;Node216</title>
<path fill="none" stroke="midnightblue" d="M375.577,-266.445C383.824,-262.996 391.82,-258.323 398,-252 432.187,-217.018 399.813,-182.982 434,-148 437.862,-144.048 442.434,-140.741 447.333,-137.974"/>
<polygon fill="midnightblue" stroke="midnightblue" points="448.959,-141.075 456.423,-133.555 445.899,-134.78 448.959,-141.075"/>
</g>
<!-- Node217 -->
<g id="node40" class="node"><title>Node217</title>
<g id="a_node40"><a xlink:href="class_c_hero.html#a1593ac4dfc01368e99b2b82a21c3c6ed" target="_top" xlink:title="CHero::exportData">
<polygon fill="none" stroke="black" points="622,-76.5 622,-95.5 719,-95.5 719,-76.5 622,-76.5"/>
<text text-anchor="middle" x="670.5" y="-83.5" font-family="Helvetica,sans-Serif" font-size="10.00">CHero::exportData</text>
</a>
</g>
</g>
<!-- Node216&#45;&gt;Node217 -->
<g id="edge60" class="edge"><title>Node216&#45;&gt;Node217</title>
<path fill="none" stroke="midnightblue" d="M543.146,-114.411C565.648,-109.351 593.448,-103.1 617.238,-97.7512"/>
<polygon fill="midnightblue" stroke="midnightblue" points="618.172,-101.129 627.161,-95.5201 616.637,-94.2991 618.172,-101.129"/>
</g>
<!-- Node220 -->
<g id="node43" class="node"><title>Node220</title>
<g id="a_node43"><a xlink:href="class_c_storyline.html#aa8cb69bd93260855dc0221d901b1bd07" target="_top" xlink:title="CStoryline::exportData">
<polygon fill="none" stroke="black" points="613,-114.5 613,-133.5 728,-133.5 728,-114.5 613,-114.5"/>
<text text-anchor="middle" x="670.5" y="-121.5" font-family="Helvetica,sans-Serif" font-size="10.00">CStoryline::exportData</text>
</a>
</g>
</g>
<!-- Node216&#45;&gt;Node220 -->
<g id="edge65" class="edge"><title>Node216&#45;&gt;Node220</title>
<path fill="none" stroke="midnightblue" d="M565.356,-124C577.574,-124 590.371,-124 602.648,-124"/>
<polygon fill="midnightblue" stroke="midnightblue" points="602.814,-127.5 612.814,-124 602.814,-120.5 602.814,-127.5"/>
</g>
<!-- Node217&#45;&gt;Node212 -->
<g id="edge62" class="edge"><title>Node217&#45;&gt;Node212</title>
<path fill="none" stroke="midnightblue" d="M718.956,-76.4763C726.283,-73.99 733.549,-70.8802 740,-67 759.936,-55.0091 755.738,-40.4326 776,-29 781.88,-25.6821 788.286,-22.9432 794.867,-20.6825"/>
<polygon fill="midnightblue" stroke="midnightblue" points="796.059,-23.978 804.594,-17.7005 794.007,-17.2855 796.059,-23.978"/>
</g>
<!-- Node217&#45;&gt;Node214 -->
<g id="edge63" class="edge"><title>Node217&#45;&gt;Node214</title>
<path fill="none" stroke="midnightblue" d="M719.33,-76.509C745.377,-71.3402 777.8,-64.9065 805.25,-59.4596"/>
<polygon fill="midnightblue" stroke="midnightblue" points="805.989,-62.8812 815.116,-57.5017 804.626,-56.0151 805.989,-62.8812"/>
</g>
<!-- Node218 -->
<g id="node41" class="node"><title>Node218</title>
<g id="a_node41"><a xlink:href="struct_hero_stats.html#a9580a49eab11c0babd042b6e7e551e4e" target="_top" xlink:title="HeroStats::exportData">
<polygon fill="none" stroke="black" points="807.5,-114.5 807.5,-133.5 920.5,-133.5 920.5,-114.5 807.5,-114.5"/>
<text text-anchor="middle" x="864" y="-121.5" font-family="Helvetica,sans-Serif" font-size="10.00">HeroStats::exportData</text>
</a>
</g>
</g>
<!-- Node217&#45;&gt;Node218 -->
<g id="edge61" class="edge"><title>Node217&#45;&gt;Node218</title>
<path fill="none" stroke="midnightblue" d="M719.33,-95.491C745.377,-100.66 777.8,-107.094 805.25,-112.54"/>
<polygon fill="midnightblue" stroke="midnightblue" points="804.626,-115.985 815.116,-114.498 805.989,-109.119 804.626,-115.985"/>
</g>
<!-- Node219 -->
<g id="node42" class="node"><title>Node219</title>
<g id="a_node42"><a xlink:href="class_c_inventory.html#aaf1332bfb30866845bbcae69e411e4bc" target="_top" xlink:title="CInventory::exportData">
<polygon fill="none" stroke="black" points="806.5,-76.5 806.5,-95.5 921.5,-95.5 921.5,-76.5 806.5,-76.5"/>
<text text-anchor="middle" x="864" y="-83.5" font-family="Helvetica,sans-Serif" font-size="10.00">CInventory::exportData</text>
</a>
</g>
</g>
<!-- Node217&#45;&gt;Node219 -->
<g id="edge64" class="edge"><title>Node217&#45;&gt;Node219</title>
<path fill="none" stroke="midnightblue" d="M719.33,-86C742.503,-86 770.722,-86 795.996,-86"/>
<polygon fill="midnightblue" stroke="midnightblue" points="796.254,-89.5001 806.254,-86 796.254,-82.5001 796.254,-89.5001"/>
</g>
</g>
</svg>
