<?xml version="1.0" encoding="UTF-8" standalone="no"?>
<!DOCTYPE svg PUBLIC "-//W3C//DTD SVG 1.1//EN"
 "http://www.w3.org/Graphics/SVG/1.1/DTD/svg11.dtd">
<!-- Generated by graphviz version 2.38.0 (20140413.2041)
 -->
<!-- Title: CHero::getGold Pages: 1 -->
<svg width="378pt" height="47pt"
 viewBox="0.00 0.00 378.00 47.00" xmlns="http://www.w3.org/2000/svg" xmlns:xlink="http://www.w3.org/1999/xlink">
<g id="graph0" class="graph" transform="scale(1 1) rotate(0) translate(4 43)">
<title>CHero::getGold</title>
<!-- Node54 -->
<g id="node1" class="node"><title>Node54</title>
<polygon fill="#bfbfbf" stroke="black" points="0,-19.5 0,-38.5 83,-38.5 83,-19.5 0,-19.5"/>
<text text-anchor="middle" x="41.5" y="-26.5" font-family="Helvetica,sans-Serif" font-size="10.00">CHero::getGold</text>
</g>
<!-- Node55 -->
<g id="node2" class="node"><title>Node55</title>
<g id="a_node2"><a xlink:href="class_c_shopping.html#ab72dff2e94f897bd5c3f1ef660e65afb" target="_top" xlink:title="CShopping::operator()">
<polygon fill="none" stroke="black" points="259,-19.5 259,-38.5 370,-38.5 370,-19.5 259,-19.5"/>
<text text-anchor="middle" x="314.5" y="-26.5" font-family="Helvetica,sans-Serif" font-size="10.00">CShopping::operator()</text>
</a>
</g>
</g>
<!-- Node54&#45;&gt;Node55 -->
<g id="edge1" class="edge"><title>Node54&#45;&gt;Node55</title>
<path fill="none" stroke="midnightblue" d="M93.3421,-29C140.413,-29 210.226,-29 258.562,-29"/>
<polygon fill="midnightblue" stroke="midnightblue" points="93.0715,-25.5001 83.0714,-29 93.0714,-32.5001 93.0715,-25.5001"/>
</g>
<!-- Node56 -->
<g id="node3" class="node"><title>Node56</title>
<g id="a_node3"><a xlink:href="class_c_shopping.html#a0981a7916cca8a37beb35858ad2ec77e" target="_top" xlink:title="CShopping::buyItem">
<polygon fill="none" stroke="black" points="119,-0.5 119,-19.5 223,-19.5 223,-0.5 119,-0.5"/>
<text text-anchor="middle" x="171" y="-7.5" font-family="Helvetica,sans-Serif" font-size="10.00">CShopping::buyItem</text>
</a>
</g>
</g>
<!-- Node54&#45;&gt;Node56 -->
<g id="edge2" class="edge"><title>Node54&#45;&gt;Node56</title>
<path fill="none" stroke="midnightblue" d="M93.2927,-21.4309C101.737,-20.1726 110.497,-18.8671 118.947,-17.6079"/>
<polygon fill="midnightblue" stroke="midnightblue" points="92.5672,-18.0003 83.1923,-22.936 93.599,-24.9238 92.5672,-18.0003"/>
</g>
<!-- Node56&#45;&gt;Node55 -->
<g id="edge3" class="edge"><title>Node56&#45;&gt;Node55</title>
<path fill="none" stroke="midnightblue" d="M233.265,-18.2264C241.713,-19.3607 250.344,-20.5197 258.666,-21.6371"/>
<polygon fill="midnightblue" stroke="midnightblue" points="233.462,-14.7215 223.085,-16.8594 232.53,-21.6592 233.462,-14.7215"/>
</g>
</g>
</svg>
