<?xml version="1.0" encoding="UTF-8" standalone="no"?>
<!DOCTYPE svg PUBLIC "-//W3C//DTD SVG 1.1//EN"
 "http://www.w3.org/Graphics/SVG/1.1/DTD/svg11.dtd">
<!-- Generated by graphviz version 2.38.0 (20140413.2041)
 -->
<!-- Title: CGameMenus Pages: 1 -->
<svg width="192pt" height="193pt"
 viewBox="0.00 0.00 191.50 193.00" xmlns="http://www.w3.org/2000/svg" xmlns:xlink="http://www.w3.org/1999/xlink">
<g id="graph0" class="graph" transform="scale(1 1) rotate(0) translate(4 189)">
<title>CGameMenus</title>
<!-- Node1 -->
<g id="node1" class="node"><title>Node1</title>
<polygon fill="#bfbfbf" stroke="black" points="22.5,-0.5 22.5,-57.5 116.5,-57.5 116.5,-0.5 22.5,-0.5"/>
<text text-anchor="middle" x="69.5" y="-45.5" font-family="Helvetica,sans-Serif" font-size="10.00">CGameMenus</text>
<polyline fill="none" stroke="black" points="22.5,-38.5 116.5,-38.5 "/>
<text text-anchor="middle" x="69.5" y="-26.5" font-family="Helvetica,sans-Serif" font-size="10.00"> </text>
<polyline fill="none" stroke="black" points="22.5,-19.5 116.5,-19.5 "/>
<text text-anchor="start" x="30.5" y="-7.5" font-family="Helvetica,sans-Serif" font-size="10.00">+ CGameMenus()</text>
</g>
<!-- Node2 -->
<g id="node2" class="node"><title>Node2</title>
<polygon fill="none" stroke="#bfbfbf" points="0,-122 0,-179 41,-179 41,-122 0,-122"/>
<text text-anchor="middle" x="20.5" y="-167" font-family="Helvetica,sans-Serif" font-size="10.00">string</text>
<polyline fill="none" stroke="#bfbfbf" points="0,-160 41,-160 "/>
<text text-anchor="middle" x="20.5" y="-148" font-family="Helvetica,sans-Serif" font-size="10.00"> </text>
<polyline fill="none" stroke="#bfbfbf" points="0,-141 41,-141 "/>
<text text-anchor="middle" x="20.5" y="-129" font-family="Helvetica,sans-Serif" font-size="10.00"> </text>
</g>
<!-- Node2&#45;&gt;Node1 -->
<g id="edge1" class="edge"><title>Node2&#45;&gt;Node1</title>
<path fill="none" stroke="#404040" d="M15.9324,-121.904C14.7739,-107.64 15.292,-90.2779 21.5,-76 22.8138,-72.9783 24.4315,-70.0586 26.2689,-67.2555"/>
<polygon fill="none" stroke="#404040" points="26.3737,-67.1206 26.8947,-59.9283 33.7341,-57.6429 33.2131,-64.8352 26.3737,-67.1206"/>
<text text-anchor="middle" x="59" y="-84.5" font-family="Helvetica,sans-Serif" font-size="10.00"> +greetingScreen</text>
</g>
<!-- Node3 -->
<g id="node3" class="node"><title>Node3</title>
<polygon fill="none" stroke="#bfbfbf" points="62,-116.5 62,-184.5 175,-184.5 175,-116.5 62,-116.5"/>
<text text-anchor="start" x="70" y="-172.5" font-family="Helvetica,sans-Serif" font-size="10.00">vector&lt; std::pair&lt;</text>
<text text-anchor="middle" x="118.5" y="-161.5" font-family="Helvetica,sans-Serif" font-size="10.00"> std::string, action &gt; &gt;</text>
<polyline fill="none" stroke="#bfbfbf" points="62,-154.5 175,-154.5 "/>
<text text-anchor="middle" x="118.5" y="-142.5" font-family="Helvetica,sans-Serif" font-size="10.00"> </text>
<polyline fill="none" stroke="#bfbfbf" points="62,-135.5 175,-135.5 "/>
<text text-anchor="middle" x="118.5" y="-123.5" font-family="Helvetica,sans-Serif" font-size="10.00"> </text>
</g>
<!-- Node3&#45;&gt;Node1 -->
<g id="edge2" class="edge"><title>Node3&#45;&gt;Node1</title>
<path fill="none" stroke="#404040" d="M110.397,-116.334C106.79,-103.491 102.085,-88.8222 96.5,-76 95.4183,-73.5168 94.2314,-71.0004 92.9773,-68.4911"/>
<polygon fill="none" stroke="#404040" points="92.8388,-68.2328 86.4781,-64.8355 87.1677,-57.6574 93.5284,-61.0547 92.8388,-68.2328"/>
<text text-anchor="middle" x="144" y="-90" font-family="Helvetica,sans-Serif" font-size="10.00"> +firstMenuChoice</text>
<text text-anchor="middle" x="144" y="-79" font-family="Helvetica,sans-Serif" font-size="10.00">+standardChoice</text>
</g>
</g>
</svg>
