<?xml version="1.0" encoding="UTF-8" standalone="no"?>
<!DOCTYPE svg PUBLIC "-//W3C//DTD SVG 1.1//EN"
 "http://www.w3.org/Graphics/SVG/1.1/DTD/svg11.dtd">
<!-- Generated by graphviz version 2.38.0 (20140413.2041)
 -->
<!-- Title: CWorld::loadCreatures Pages: 1 -->
<svg width="467pt" height="78pt"
 viewBox="0.00 0.00 467.00 77.50" xmlns="http://www.w3.org/2000/svg" xmlns:xlink="http://www.w3.org/1999/xlink">
<g id="graph0" class="graph" transform="scale(1 1) rotate(0) translate(4 73.5)">
<title>CWorld::loadCreatures</title>
<!-- Node41 -->
<g id="node1" class="node"><title>Node41</title>
<polygon fill="#bfbfbf" stroke="black" points="0,-22.5 0,-41.5 115,-41.5 115,-22.5 0,-22.5"/>
<text text-anchor="middle" x="57.5" y="-29.5" font-family="Helvetica,sans-Serif" font-size="10.00">CWorld::loadCreatures</text>
</g>
<!-- Node42 -->
<g id="node2" class="node"><title>Node42</title>
<g id="a_node2"><a xlink:href="class_c_stream_decoder.html#aeaef1aa3239cf7b5d00397b6e46f67d1" target="_top" xlink:title="CStreamDecoder::getString\lAsInt">
<polygon fill="none" stroke="black" points="151,-39 151,-69 287,-69 287,-39 151,-39"/>
<text text-anchor="start" x="159" y="-57" font-family="Helvetica,sans-Serif" font-size="10.00">CStreamDecoder::getString</text>
<text text-anchor="middle" x="219" y="-46" font-family="Helvetica,sans-Serif" font-size="10.00">AsInt</text>
</a>
</g>
</g>
<!-- Node41&#45;&gt;Node42 -->
<g id="edge1" class="edge"><title>Node41&#45;&gt;Node42</title>
<path fill="none" stroke="midnightblue" d="M115.183,-39.8183C123.485,-40.9634 132.152,-42.1589 140.779,-43.3489"/>
<polygon fill="midnightblue" stroke="midnightblue" points="140.481,-46.8407 150.865,-44.74 141.437,-39.9064 140.481,-46.8407"/>
</g>
<!-- Node44 -->
<g id="node4" class="node"><title>Node44</title>
<g id="a_node4"><a xlink:href="class_c_stream_decoder.html#a4ddd62e9d414ff656f5708e3c0c39b36" target="_top" xlink:title="CStreamDecoder::getText">
<polygon fill="none" stroke="black" points="154.5,-0.5 154.5,-19.5 283.5,-19.5 283.5,-0.5 154.5,-0.5"/>
<text text-anchor="middle" x="219" y="-7.5" font-family="Helvetica,sans-Serif" font-size="10.00">CStreamDecoder::getText</text>
</a>
</g>
</g>
<!-- Node41&#45;&gt;Node44 -->
<g id="edge3" class="edge"><title>Node41&#45;&gt;Node44</title>
<path fill="none" stroke="midnightblue" d="M115.183,-24.1817C124.62,-22.8801 134.528,-21.5134 144.314,-20.1636"/>
<polygon fill="midnightblue" stroke="midnightblue" points="145.014,-23.6002 154.442,-18.7666 144.058,-16.6659 145.014,-23.6002"/>
</g>
<!-- Node43 -->
<g id="node3" class="node"><title>Node43</title>
<g id="a_node3"><a xlink:href="class_c_stream_decoder.html#a736a4660fb1fc91ffc7345050f815994" target="_top" xlink:title="CStreamDecoder::getString">
<polygon fill="none" stroke="black" points="323,-44.5 323,-63.5 459,-63.5 459,-44.5 323,-44.5"/>
<text text-anchor="middle" x="391" y="-51.5" font-family="Helvetica,sans-Serif" font-size="10.00">CStreamDecoder::getString</text>
</a>
</g>
</g>
<!-- Node42&#45;&gt;Node43 -->
<g id="edge2" class="edge"><title>Node42&#45;&gt;Node43</title>
<path fill="none" stroke="midnightblue" d="M287.189,-54C295.502,-54 304.054,-54 312.506,-54"/>
<polygon fill="midnightblue" stroke="midnightblue" points="312.743,-57.5001 322.743,-54 312.743,-50.5001 312.743,-57.5001"/>
</g>
</g>
</svg>
