<?xml version="1.0" encoding="UTF-8" standalone="no"?>
<!DOCTYPE svg PUBLIC "-//W3C//DTD SVG 1.1//EN"
 "http://www.w3.org/Graphics/SVG/1.1/DTD/svg11.dtd">
<!-- Generated by graphviz version 2.38.0 (20140413.2041)
 -->
<!-- Title: CGame::mainMenu Pages: 1 -->
<svg width="1005pt" height="344pt"
 viewBox="0.00 0.00 1005.00 344.30" xmlns="http://www.w3.org/2000/svg" xmlns:xlink="http://www.w3.org/1999/xlink">
<g id="graph0" class="graph" transform="scale(1 1) rotate(0) translate(4 340.3)">
<title>CGame::mainMenu</title>
<!-- Node151 -->
<g id="node1" class="node"><title>Node151</title>
<polygon fill="#bfbfbf" stroke="black" points="0,-240.8 0,-259.8 101,-259.8 101,-240.8 0,-240.8"/>
<text text-anchor="middle" x="50.5" y="-247.8" font-family="Helvetica,sans-Serif" font-size="10.00">CGame::mainMenu</text>
</g>
<!-- Node152 -->
<g id="node2" class="node"><title>Node152</title>
<g id="a_node2"><a xlink:href="class_c_display.html#a7d4efb0285d6cdf757bc34e38718e17d" target="_top" xlink:title="CDisplay::multiChoice">
<polygon fill="none" stroke="black" points="289,-316.8 289,-335.8 402,-335.8 402,-316.8 289,-316.8"/>
<text text-anchor="middle" x="345.5" y="-323.8" font-family="Helvetica,sans-Serif" font-size="10.00">CDisplay::multiChoice</text>
</a>
</g>
</g>
<!-- Node151&#45;&gt;Node152 -->
<g id="edge1" class="edge"><title>Node151&#45;&gt;Node152</title>
<path fill="none" stroke="midnightblue" d="M62.1366,-260.003C77.419,-273.296 107.059,-296.72 137,-307.3 182.532,-323.389 237.001,-327.865 278.706,-328.464"/>
<polygon fill="midnightblue" stroke="midnightblue" points="278.724,-331.964 288.749,-328.538 278.775,-324.964 278.724,-331.964"/>
</g>
<!-- Node154 -->
<g id="node4" class="node"><title>Node154</title>
<g id="a_node4"><a xlink:href="class_c_game.html#a21a30939333b2c98f607d9bd2927d105" target="_top" xlink:title="CGame::createHero">
<polygon fill="none" stroke="black" points="137,-240.8 137,-259.8 240,-259.8 240,-240.8 137,-240.8"/>
<text text-anchor="middle" x="188.5" y="-247.8" font-family="Helvetica,sans-Serif" font-size="10.00">CGame::createHero</text>
</a>
</g>
</g>
<!-- Node151&#45;&gt;Node154 -->
<g id="edge3" class="edge"><title>Node151&#45;&gt;Node154</title>
<path fill="none" stroke="midnightblue" d="M101.369,-250.3C109.561,-250.3 118.132,-250.3 126.557,-250.3"/>
<polygon fill="midnightblue" stroke="midnightblue" points="126.726,-253.8 136.726,-250.3 126.726,-246.8 126.726,-253.8"/>
</g>
<!-- Node159 -->
<g id="node9" class="node"><title>Node159</title>
<g id="a_node9"><a xlink:href="class_c_game.html#accda079824fc813cbd64b4743846ae24" target="_top" xlink:title="CGame::loadGame">
<polygon fill="none" stroke="black" points="138.5,-202.8 138.5,-221.8 238.5,-221.8 238.5,-202.8 138.5,-202.8"/>
<text text-anchor="middle" x="188.5" y="-209.8" font-family="Helvetica,sans-Serif" font-size="10.00">CGame::loadGame</text>
</a>
</g>
</g>
<!-- Node151&#45;&gt;Node159 -->
<g id="edge9" class="edge"><title>Node151&#45;&gt;Node159</title>
<path fill="none" stroke="midnightblue" d="M85.8185,-240.711C103.294,-235.828 124.741,-229.835 143.425,-224.615"/>
<polygon fill="midnightblue" stroke="midnightblue" points="144.503,-227.948 153.192,-221.886 142.619,-221.206 144.503,-227.948"/>
</g>
<!-- Node171 -->
<g id="node21" class="node"><title>Node171</title>
<g id="a_node21"><a xlink:href="class_c_game.html#a7b4409fd50b77ae5743a30bd43f01f61" target="_top" xlink:title="CGame::exit">
<polygon fill="none" stroke="black" points="153,-278.8 153,-297.8 224,-297.8 224,-278.8 153,-278.8"/>
<text text-anchor="middle" x="188.5" y="-285.8" font-family="Helvetica,sans-Serif" font-size="10.00">CGame::exit</text>
</a>
</g>
</g>
<!-- Node151&#45;&gt;Node171 -->
<g id="edge29" class="edge"><title>Node151&#45;&gt;Node171</title>
<path fill="none" stroke="midnightblue" d="M85.8185,-259.889C103.294,-264.772 124.741,-270.764 143.425,-275.985"/>
<polygon fill="midnightblue" stroke="midnightblue" points="142.619,-279.394 153.192,-278.714 144.503,-272.652 142.619,-279.394"/>
</g>
<!-- Node172 -->
<g id="node22" class="node"><title>Node172</title>
<g id="a_node22"><a xlink:href="class_c_display.html#a63f3c4f78cef1d3b13290970da9e3e85" target="_top" xlink:title="CDisplay::printError">
<polygon fill="none" stroke="black" points="138,-164.8 138,-183.8 239,-183.8 239,-164.8 138,-164.8"/>
<text text-anchor="middle" x="188.5" y="-171.8" font-family="Helvetica,sans-Serif" font-size="10.00">CDisplay::printError</text>
</a>
</g>
</g>
<!-- Node151&#45;&gt;Node172 -->
<g id="edge31" class="edge"><title>Node151&#45;&gt;Node172</title>
<path fill="none" stroke="midnightblue" d="M63.9748,-240.652C80.1468,-228.464 109.539,-207.385 137,-193.3 140.844,-191.328 144.943,-189.45 149.079,-187.696"/>
<polygon fill="midnightblue" stroke="midnightblue" points="150.716,-190.81 158.697,-183.842 148.113,-184.312 150.716,-190.81"/>
</g>
<!-- Node153 -->
<g id="node3" class="node"><title>Node153</title>
<g id="a_node3"><a xlink:href="class_c_display.html#aba2a285f19e987f9ba82447f43be2b10" target="_top" xlink:title="CDisplay::dumpToNewLine">
<polygon fill="none" stroke="black" points="472.5,-278.8 472.5,-297.8 605.5,-297.8 605.5,-278.8 472.5,-278.8"/>
<text text-anchor="middle" x="539" y="-285.8" font-family="Helvetica,sans-Serif" font-size="10.00">CDisplay::dumpToNewLine</text>
</a>
</g>
</g>
<!-- Node152&#45;&gt;Node153 -->
<g id="edge2" class="edge"><title>Node152&#45;&gt;Node153</title>
<path fill="none" stroke="midnightblue" d="M394.824,-316.711C420.663,-311.583 452.668,-305.232 479.861,-299.837"/>
<polygon fill="midnightblue" stroke="midnightblue" points="480.896,-303.199 490.024,-297.82 479.534,-296.333 480.896,-303.199"/>
</g>
<!-- Node155 -->
<g id="node5" class="node"><title>Node155</title>
<g id="a_node5"><a xlink:href="class_c_display.html#a54c5d36f4bc11d4a935ff5c86ea4e653" target="_top" xlink:title="CDisplay::print">
<polygon fill="none" stroke="black" points="305.5,-278.8 305.5,-297.8 385.5,-297.8 385.5,-278.8 305.5,-278.8"/>
<text text-anchor="middle" x="345.5" y="-285.8" font-family="Helvetica,sans-Serif" font-size="10.00">CDisplay::print</text>
</a>
</g>
</g>
<!-- Node154&#45;&gt;Node155 -->
<g id="edge4" class="edge"><title>Node154&#45;&gt;Node155</title>
<path fill="none" stroke="midnightblue" d="M228.613,-259.889C248.975,-264.881 274.066,-271.032 295.689,-276.333"/>
<polygon fill="midnightblue" stroke="midnightblue" points="295.122,-279.798 305.668,-278.78 296.789,-272.999 295.122,-279.798"/>
</g>
<!-- Node156 -->
<g id="node6" class="node"><title>Node156</title>
<g id="a_node6"><a xlink:href="class_c_display.html#a1bd3e25973ed15055a68d4db6abfa765" target="_top" xlink:title="CDisplay::getString">
<polygon fill="none" stroke="black" points="295,-240.8 295,-259.8 396,-259.8 396,-240.8 295,-240.8"/>
<text text-anchor="middle" x="345.5" y="-247.8" font-family="Helvetica,sans-Serif" font-size="10.00">CDisplay::getString</text>
</a>
</g>
</g>
<!-- Node154&#45;&gt;Node156 -->
<g id="edge5" class="edge"><title>Node154&#45;&gt;Node156</title>
<path fill="none" stroke="midnightblue" d="M240.253,-250.3C254.528,-250.3 270.184,-250.3 284.924,-250.3"/>
<polygon fill="midnightblue" stroke="midnightblue" points="284.954,-253.8 294.954,-250.3 284.954,-246.8 284.954,-253.8"/>
</g>
<!-- Node157 -->
<g id="node7" class="node"><title>Node157</title>
<g id="a_node7"><a xlink:href="class_c_display.html#a53b65673a9b0bfc807a3a1e448962928" target="_top" xlink:title="CDisplay::printWithDelimiter">
<polygon fill="none" stroke="black" points="276,-202.8 276,-221.8 415,-221.8 415,-202.8 276,-202.8"/>
<text text-anchor="middle" x="345.5" y="-209.8" font-family="Helvetica,sans-Serif" font-size="10.00">CDisplay::printWithDelimiter</text>
</a>
</g>
</g>
<!-- Node154&#45;&gt;Node157 -->
<g id="edge7" class="edge"><title>Node154&#45;&gt;Node157</title>
<path fill="none" stroke="midnightblue" d="M228.613,-240.711C248.975,-235.719 274.066,-229.567 295.689,-224.266"/>
<polygon fill="midnightblue" stroke="midnightblue" points="296.789,-227.6 305.668,-221.82 295.122,-220.802 296.789,-227.6"/>
</g>
<!-- Node156&#45;&gt;Node153 -->
<g id="edge6" class="edge"><title>Node156&#45;&gt;Node153</title>
<path fill="none" stroke="midnightblue" d="M394.824,-259.889C420.663,-265.016 452.668,-271.367 479.861,-276.763"/>
<polygon fill="midnightblue" stroke="midnightblue" points="479.534,-280.266 490.024,-278.78 480.896,-273.4 479.534,-280.266"/>
</g>
<!-- Node158 -->
<g id="node8" class="node"><title>Node158</title>
<g id="a_node8"><a xlink:href="class_c_display.html#af350b35b44fc756e0c721ec4ee56c67a" target="_top" xlink:title="CDisplay::printDelimiter">
<polygon fill="none" stroke="black" points="479.5,-202.8 479.5,-221.8 598.5,-221.8 598.5,-202.8 479.5,-202.8"/>
<text text-anchor="middle" x="539" y="-209.8" font-family="Helvetica,sans-Serif" font-size="10.00">CDisplay::printDelimiter</text>
</a>
</g>
</g>
<!-- Node157&#45;&gt;Node158 -->
<g id="edge8" class="edge"><title>Node157&#45;&gt;Node158</title>
<path fill="none" stroke="midnightblue" d="M415.095,-212.3C432.679,-212.3 451.595,-212.3 469.19,-212.3"/>
<polygon fill="midnightblue" stroke="midnightblue" points="469.377,-215.8 479.377,-212.3 469.377,-208.8 469.377,-215.8"/>
</g>
<!-- Node159&#45;&gt;Node155 -->
<g id="edge11" class="edge"><title>Node159&#45;&gt;Node155</title>
<path fill="none" stroke="midnightblue" d="M221.555,-221.854C227.928,-224.434 234.381,-227.569 240,-231.3 259.381,-244.168 256.064,-257.309 276,-269.3 281.969,-272.89 288.635,-275.82 295.401,-278.208"/>
<polygon fill="midnightblue" stroke="midnightblue" points="294.727,-281.665 305.316,-281.33 296.829,-274.988 294.727,-281.665"/>
</g>
<!-- Node159&#45;&gt;Node156 -->
<g id="edge12" class="edge"><title>Node159&#45;&gt;Node156</title>
<path fill="none" stroke="midnightblue" d="M228.613,-221.889C248.975,-226.881 274.066,-233.032 295.689,-238.333"/>
<polygon fill="midnightblue" stroke="midnightblue" points="295.122,-241.798 305.668,-240.78 296.789,-234.999 295.122,-241.798"/>
</g>
<!-- Node159&#45;&gt;Node157 -->
<g id="edge13" class="edge"><title>Node159&#45;&gt;Node157</title>
<path fill="none" stroke="midnightblue" d="M238.543,-212.3C247.271,-212.3 256.558,-212.3 265.867,-212.3"/>
<polygon fill="midnightblue" stroke="midnightblue" points="265.951,-215.8 275.951,-212.3 265.951,-208.8 265.951,-215.8"/>
</g>
<!-- Node159&#45;&gt;Node158 -->
<g id="edge10" class="edge"><title>Node159&#45;&gt;Node158</title>
<path fill="none" stroke="midnightblue" d="M224.567,-202.791C240.183,-199.027 258.88,-195.158 276,-193.3 337.417,-186.634 353.404,-188.57 415,-193.3 435.642,-194.885 458.062,-197.945 478.038,-201.154"/>
<polygon fill="midnightblue" stroke="midnightblue" points="477.496,-204.611 487.933,-202.786 478.636,-197.705 477.496,-204.611"/>
</g>
<!-- Node160 -->
<g id="node10" class="node"><title>Node160</title>
<g id="a_node10"><a xlink:href="class_c_game.html#a507b71eeebc2a6aaa08d9e0dcb61c7ac" target="_top" xlink:title="CGame::importPlayerData">
<polygon fill="none" stroke="black" points="280,-126.8 280,-145.8 411,-145.8 411,-126.8 280,-126.8"/>
<text text-anchor="middle" x="345.5" y="-133.8" font-family="Helvetica,sans-Serif" font-size="10.00">CGame::importPlayerData</text>
</a>
</g>
</g>
<!-- Node159&#45;&gt;Node160 -->
<g id="edge14" class="edge"><title>Node159&#45;&gt;Node160</title>
<path fill="none" stroke="midnightblue" d="M220.559,-202.752C227.201,-200.131 234.014,-196.977 240,-193.3 258.494,-181.938 257.377,-171.449 276,-160.3 283.071,-156.066 291.001,-152.429 298.888,-149.36"/>
<polygon fill="midnightblue" stroke="midnightblue" points="300.223,-152.599 308.428,-145.897 297.834,-146.019 300.223,-152.599"/>
</g>
<!-- Node161 -->
<g id="node11" class="node"><title>Node161</title>
<g id="a_node11"><a xlink:href="class_c_stream_decoder.html#a27f04fbbe2eb121fe15988594fe7053f" target="_top" xlink:title="CStreamDecoder::decodePlayerData">
<polygon fill="none" stroke="black" points="451,-69.7997 451,-88.7997 627,-88.7997 627,-69.7997 451,-69.7997"/>
<text text-anchor="middle" x="539" y="-76.7997" font-family="Helvetica,sans-Serif" font-size="10.00">CStreamDecoder::decodePlayerData</text>
</a>
</g>
</g>
<!-- Node160&#45;&gt;Node161 -->
<g id="edge15" class="edge"><title>Node160&#45;&gt;Node161</title>
<path fill="none" stroke="midnightblue" d="M378.553,-126.759C410.727,-117.183 460.461,-102.379 495.822,-91.854"/>
<polygon fill="midnightblue" stroke="midnightblue" points="497.257,-95.0788 505.843,-88.8714 495.26,-88.3697 497.257,-95.0788"/>
</g>
<!-- Node164 -->
<g id="node14" class="node"><title>Node164</title>
<g id="a_node14"><a xlink:href="class_c_stream_decoder.html#a57a7f304974a6b5be31e374685b70e33" target="_top" xlink:title="CStreamDecoder::getNumbers">
<polygon fill="none" stroke="black" points="848,-25.7997 848,-44.7997 997,-44.7997 997,-25.7997 848,-25.7997"/>
<text text-anchor="middle" x="922.5" y="-32.7997" font-family="Helvetica,sans-Serif" font-size="10.00">CStreamDecoder::getNumbers</text>
</a>
</g>
</g>
<!-- Node160&#45;&gt;Node164 -->
<g id="edge28" class="edge"><title>Node160&#45;&gt;Node164</title>
<path fill="none" stroke="midnightblue" d="M356.589,-126.785C374.279,-110.631 412.669,-77.8887 451,-60.2997 598.217,7.25376 651.043,7.84098 812,-10.2997 834.212,-12.8032 858.488,-18.0774 878.525,-23.139"/>
<polygon fill="midnightblue" stroke="midnightblue" points="877.729,-26.5483 888.288,-25.6718 879.487,-19.7726 877.729,-26.5483"/>
</g>
<!-- Node165 -->
<g id="node15" class="node"><title>Node165</title>
<g id="a_node15"><a xlink:href="class_c_hero.html#a7b1a1b3c196bbe5b8da97c56f520c1f3" target="_top" xlink:title="CHero::update">
<polygon fill="none" stroke="black" points="499.5,-164.8 499.5,-183.8 578.5,-183.8 578.5,-164.8 499.5,-164.8"/>
<text text-anchor="middle" x="539" y="-171.8" font-family="Helvetica,sans-Serif" font-size="10.00">CHero::update</text>
</a>
</g>
</g>
<!-- Node160&#45;&gt;Node165 -->
<g id="edge19" class="edge"><title>Node160&#45;&gt;Node165</title>
<path fill="none" stroke="midnightblue" d="M394.824,-145.889C423.765,-151.632 460.441,-158.909 489.427,-164.661"/>
<polygon fill="midnightblue" stroke="midnightblue" points="488.844,-168.114 499.334,-166.627 490.206,-161.247 488.844,-168.114"/>
</g>
<!-- Node170 -->
<g id="node20" class="node"><title>Node170</title>
<g id="a_node20"><a xlink:href="class_c_storyline.html#ad8c62b61513d498b53454aeaf621dda0" target="_top" xlink:title="CStoryline::update">
<polygon fill="none" stroke="black" points="490.5,-126.8 490.5,-145.8 587.5,-145.8 587.5,-126.8 490.5,-126.8"/>
<text text-anchor="middle" x="539" y="-133.8" font-family="Helvetica,sans-Serif" font-size="10.00">CStoryline::update</text>
</a>
</g>
</g>
<!-- Node160&#45;&gt;Node170 -->
<g id="edge27" class="edge"><title>Node160&#45;&gt;Node170</title>
<path fill="none" stroke="midnightblue" d="M411.066,-136.3C433.469,-136.3 458.43,-136.3 480.248,-136.3"/>
<polygon fill="midnightblue" stroke="midnightblue" points="480.355,-139.8 490.355,-136.3 480.355,-132.8 480.355,-139.8"/>
</g>
<!-- Node162 -->
<g id="node12" class="node"><title>Node162</title>
<g id="a_node12"><a xlink:href="class_c_stream_decoder.html#a736a4660fb1fc91ffc7345050f815994" target="_top" xlink:title="CStreamDecoder::getString">
<polygon fill="none" stroke="black" points="854.5,-221.8 854.5,-240.8 990.5,-240.8 990.5,-221.8 854.5,-221.8"/>
<text text-anchor="middle" x="922.5" y="-228.8" font-family="Helvetica,sans-Serif" font-size="10.00">CStreamDecoder::getString</text>
</a>
</g>
</g>
<!-- Node161&#45;&gt;Node162 -->
<g id="edge16" class="edge"><title>Node161&#45;&gt;Node162</title>
<path fill="none" stroke="midnightblue" d="M627.295,-86.2578C682.543,-93.3463 754.193,-107.617 812,-136.3 851.01,-155.656 887.311,-192.247 906.743,-213.931"/>
<polygon fill="midnightblue" stroke="midnightblue" points="904.333,-216.491 913.556,-221.704 909.596,-211.877 904.333,-216.491"/>
</g>
<!-- Node163 -->
<g id="node13" class="node"><title>Node163</title>
<g id="a_node13"><a xlink:href="class_c_stream_decoder.html#a5df71ab29ca4dc60f6c628fcb4a77949" target="_top" xlink:title="CStreamDecoder::getNumbers\lAsString">
<polygon fill="none" stroke="black" points="663,-20.2997 663,-50.2997 812,-50.2997 812,-20.2997 663,-20.2997"/>
<text text-anchor="start" x="671" y="-38.2997" font-family="Helvetica,sans-Serif" font-size="10.00">CStreamDecoder::getNumbers</text>
<text text-anchor="middle" x="737.5" y="-27.2997" font-family="Helvetica,sans-Serif" font-size="10.00">AsString</text>
</a>
</g>
</g>
<!-- Node161&#45;&gt;Node163 -->
<g id="edge17" class="edge"><title>Node161&#45;&gt;Node163</title>
<path fill="none" stroke="midnightblue" d="M582.638,-69.7524C605.057,-64.7321 633.238,-58.422 659.336,-52.5783"/>
<polygon fill="midnightblue" stroke="midnightblue" points="660.226,-55.9657 669.219,-50.3651 658.696,-49.1348 660.226,-55.9657"/>
</g>
<!-- Node163&#45;&gt;Node164 -->
<g id="edge18" class="edge"><title>Node163&#45;&gt;Node164</title>
<path fill="none" stroke="midnightblue" d="M812.142,-35.2997C820.474,-35.2997 829.011,-35.2997 837.463,-35.2997"/>
<polygon fill="midnightblue" stroke="midnightblue" points="837.711,-38.7998 847.711,-35.2997 837.711,-31.7998 837.711,-38.7998"/>
</g>
<!-- Node165&#45;&gt;Node162 -->
<g id="edge20" class="edge"><title>Node165&#45;&gt;Node162</title>
<path fill="none" stroke="midnightblue" d="M578.751,-180.432C594.046,-183.451 611.608,-187.675 627,-193.3 643.993,-199.509 645.61,-207.309 663,-212.3 722.203,-229.291 791.995,-233.545 844.129,-233.824"/>
<polygon fill="midnightblue" stroke="midnightblue" points="844.31,-237.324 854.312,-233.829 844.314,-230.324 844.31,-237.324"/>
</g>
<!-- Node165&#45;&gt;Node164 -->
<g id="edge26" class="edge"><title>Node165&#45;&gt;Node164</title>
<path fill="none" stroke="midnightblue" d="M578.751,-168.167C594.046,-165.148 611.608,-160.924 627,-155.3 643.993,-149.091 646.548,-143.826 663,-136.3 740.224,-100.972 833.643,-66.4148 884.353,-48.3126"/>
<polygon fill="midnightblue" stroke="midnightblue" points="885.658,-51.5634 893.909,-44.9162 883.314,-44.9676 885.658,-51.5634"/>
</g>
<!-- Node166 -->
<g id="node16" class="node"><title>Node166</title>
<g id="a_node16"><a xlink:href="class_c_stream_decoder.html#aeaef1aa3239cf7b5d00397b6e46f67d1" target="_top" xlink:title="CStreamDecoder::getString\lAsInt">
<polygon fill="none" stroke="black" points="669.5,-260.3 669.5,-290.3 805.5,-290.3 805.5,-260.3 669.5,-260.3"/>
<text text-anchor="start" x="677.5" y="-278.3" font-family="Helvetica,sans-Serif" font-size="10.00">CStreamDecoder::getString</text>
<text text-anchor="middle" x="737.5" y="-267.3" font-family="Helvetica,sans-Serif" font-size="10.00">AsInt</text>
</a>
</g>
</g>
<!-- Node165&#45;&gt;Node166 -->
<g id="edge21" class="edge"><title>Node165&#45;&gt;Node166</title>
<path fill="none" stroke="midnightblue" d="M578.828,-176.556C594.82,-178.997 612.87,-183.836 627,-193.3 650.355,-208.942 641.079,-227.704 663,-245.3 667.867,-249.206 673.312,-252.67 678.977,-255.724"/>
<polygon fill="midnightblue" stroke="midnightblue" points="677.497,-258.896 688.012,-260.192 680.6,-252.622 677.497,-258.896"/>
</g>
<!-- Node167 -->
<g id="node17" class="node"><title>Node167</title>
<g id="a_node17"><a xlink:href="class_c_equipment.html#abf42868d8cd5d627d872dbf7f80bff9a" target="_top" xlink:title="CEquipment::setAttack">
<polygon fill="none" stroke="black" points="678.5,-183.8 678.5,-202.8 796.5,-202.8 796.5,-183.8 678.5,-183.8"/>
<text text-anchor="middle" x="737.5" y="-190.8" font-family="Helvetica,sans-Serif" font-size="10.00">CEquipment::setAttack</text>
</a>
</g>
</g>
<!-- Node165&#45;&gt;Node167 -->
<g id="edge23" class="edge"><title>Node165&#45;&gt;Node167</title>
<path fill="none" stroke="midnightblue" d="M578.822,-178.054C604.346,-180.521 638.441,-183.818 668.397,-186.715"/>
<polygon fill="midnightblue" stroke="midnightblue" points="668.088,-190.201 678.378,-187.68 668.762,-183.234 668.088,-190.201"/>
</g>
<!-- Node168 -->
<g id="node18" class="node"><title>Node168</title>
<g id="a_node18"><a xlink:href="class_c_equipment.html#a223e0e1172975f9d9c49612b2513afb0" target="_top" xlink:title="CEquipment::setArmour">
<polygon fill="none" stroke="black" points="677,-145.8 677,-164.8 798,-164.8 798,-145.8 677,-145.8"/>
<text text-anchor="middle" x="737.5" y="-152.8" font-family="Helvetica,sans-Serif" font-size="10.00">CEquipment::setArmour</text>
</a>
</g>
</g>
<!-- Node165&#45;&gt;Node168 -->
<g id="edge24" class="edge"><title>Node165&#45;&gt;Node168</title>
<path fill="none" stroke="midnightblue" d="M578.822,-170.546C603.835,-168.127 637.079,-164.913 666.592,-162.059"/>
<polygon fill="midnightblue" stroke="midnightblue" points="667.239,-165.513 676.856,-161.067 666.565,-158.546 667.239,-165.513"/>
</g>
<!-- Node169 -->
<g id="node19" class="node"><title>Node169</title>
<g id="a_node19"><a xlink:href="class_c_inventory.html#a2ae39f69247c25fa2ee46c4111bcce56" target="_top" xlink:title="CInventory::update">
<polygon fill="none" stroke="black" points="689,-309.8 689,-328.8 786,-328.8 786,-309.8 689,-309.8"/>
<text text-anchor="middle" x="737.5" y="-316.8" font-family="Helvetica,sans-Serif" font-size="10.00">CInventory::update</text>
</a>
</g>
</g>
<!-- Node165&#45;&gt;Node169 -->
<g id="edge25" class="edge"><title>Node165&#45;&gt;Node169</title>
<path fill="none" stroke="midnightblue" d="M578.917,-174.566C595.495,-176.594 613.973,-181.66 627,-193.3 664.102,-226.45 626.75,-265.221 663,-299.3 667.679,-303.699 673.228,-307.148 679.148,-309.85"/>
<polygon fill="midnightblue" stroke="midnightblue" points="678.095,-313.195 688.685,-313.511 680.603,-306.66 678.095,-313.195"/>
</g>
<!-- Node166&#45;&gt;Node162 -->
<g id="edge22" class="edge"><title>Node166&#45;&gt;Node162</title>
<path fill="none" stroke="midnightblue" d="M800.966,-260.28C824.222,-254.689 850.269,-248.426 872.184,-243.157"/>
<polygon fill="midnightblue" stroke="midnightblue" points="873.032,-246.553 881.937,-240.812 871.396,-239.747 873.032,-246.553"/>
</g>
<!-- Node171&#45;&gt;Node155 -->
<g id="edge30" class="edge"><title>Node171&#45;&gt;Node155</title>
<path fill="none" stroke="midnightblue" d="M224.285,-288.3C245.184,-288.3 272.108,-288.3 295.177,-288.3"/>
<polygon fill="midnightblue" stroke="midnightblue" points="295.47,-291.8 305.47,-288.3 295.47,-284.8 295.47,-291.8"/>
</g>
<!-- Node172&#45;&gt;Node157 -->
<g id="edge32" class="edge"><title>Node172&#45;&gt;Node157</title>
<path fill="none" stroke="midnightblue" d="M228.613,-183.889C248.975,-188.881 274.066,-195.032 295.689,-200.333"/>
<polygon fill="midnightblue" stroke="midnightblue" points="295.122,-203.798 305.668,-202.78 296.789,-196.999 295.122,-203.798"/>
</g>
</g>
</svg>
