<?xml version="1.0" encoding="UTF-8" standalone="no"?>
<!DOCTYPE svg PUBLIC "-//W3C//DTD SVG 1.1//EN"
 "http://www.w3.org/Graphics/SVG/1.1/DTD/svg11.dtd">
<!-- Generated by graphviz version 2.38.0 (20140413.2041)
 -->
<!-- Title: CDisplay::print Pages: 1 -->
<svg width="848pt" height="838pt"
 viewBox="0.00 0.00 848.00 838.00" xmlns="http://www.w3.org/2000/svg" xmlns:xlink="http://www.w3.org/1999/xlink">
<g id="graph0" class="graph" transform="scale(1 1) rotate(0) translate(4 834)">
<title>CDisplay::print</title>
<!-- Node50 -->
<g id="node1" class="node"><title>Node50</title>
<polygon fill="#bfbfbf" stroke="black" points="0,-411.5 0,-430.5 80,-430.5 80,-411.5 0,-411.5"/>
<text text-anchor="middle" x="40" y="-418.5" font-family="Helvetica,sans-Serif" font-size="10.00">CDisplay::print</text>
</g>
<!-- Node51 -->
<g id="node2" class="node"><title>Node51</title>
<g id="a_node2"><a xlink:href="class_c_armour.html#a169305bd938dfcf38365883b65312068" target="_top" xlink:title="CArmour::print">
<polygon fill="none" stroke="black" points="134,-810.5 134,-829.5 214,-829.5 214,-810.5 134,-810.5"/>
<text text-anchor="middle" x="174" y="-817.5" font-family="Helvetica,sans-Serif" font-size="10.00">CArmour::print</text>
</a>
</g>
</g>
<!-- Node50&#45;&gt;Node51 -->
<g id="edge1" class="edge"><title>Node50&#45;&gt;Node51</title>
<path fill="none" stroke="midnightblue" d="M42.3067,-440.573C47.3455,-510.417 67.6954,-746.142 116,-801 120.756,-806.402 127.09,-810.272 133.804,-813.044"/>
<polygon fill="midnightblue" stroke="midnightblue" points="45.7923,-440.243 41.6053,-430.511 38.8092,-440.73 45.7923,-440.243"/>
</g>
<!-- Node52 -->
<g id="node3" class="node"><title>Node52</title>
<g id="a_node3"><a xlink:href="class_c_armour.html#a3abc5a20200d572d920737aec75bb196" target="_top" xlink:title="CArmour::printForShop">
<polygon fill="none" stroke="black" points="116,-772.5 116,-791.5 232,-791.5 232,-772.5 116,-772.5"/>
<text text-anchor="middle" x="174" y="-779.5" font-family="Helvetica,sans-Serif" font-size="10.00">CArmour::printForShop</text>
</a>
</g>
</g>
<!-- Node50&#45;&gt;Node52 -->
<g id="edge2" class="edge"><title>Node50&#45;&gt;Node52</title>
<path fill="none" stroke="midnightblue" d="M42.7851,-440.69C49.0847,-506.045 72.2862,-714.395 116,-763 119.488,-766.878 123.787,-769.966 128.449,-772.424"/>
<polygon fill="midnightblue" stroke="midnightblue" points="46.2508,-440.159 41.8324,-430.53 39.2813,-440.813 46.2508,-440.159"/>
</g>
<!-- Node53 -->
<g id="node4" class="node"><title>Node53</title>
<g id="a_node4"><a xlink:href="class_c_choice.html#a5280ff7c539ed8c8a4007ac38822d9b9" target="_top" xlink:title="CChoice::print">
<polygon fill="none" stroke="black" points="135,-734.5 135,-753.5 213,-753.5 213,-734.5 135,-734.5"/>
<text text-anchor="middle" x="174" y="-741.5" font-family="Helvetica,sans-Serif" font-size="10.00">CChoice::print</text>
</a>
</g>
</g>
<!-- Node50&#45;&gt;Node53 -->
<g id="edge3" class="edge"><title>Node50&#45;&gt;Node53</title>
<path fill="none" stroke="midnightblue" d="M43.3868,-440.83C51.0531,-501.426 76.8561,-682.598 116,-725 121.094,-730.518 127.832,-734.436 134.886,-737.216"/>
<polygon fill="midnightblue" stroke="midnightblue" points="46.8333,-440.181 42.1319,-430.686 39.8862,-441.041 46.8333,-440.181"/>
</g>
<!-- Node54 -->
<g id="node5" class="node"><title>Node54</title>
<g id="a_node5"><a xlink:href="class_c_creature.html#a3ea9f0e5ace386bd5ff46555374d192d" target="_top" xlink:title="CCreature::print">
<polygon fill="none" stroke="black" points="131.5,-696.5 131.5,-715.5 216.5,-715.5 216.5,-696.5 131.5,-696.5"/>
<text text-anchor="middle" x="174" y="-703.5" font-family="Helvetica,sans-Serif" font-size="10.00">CCreature::print</text>
</a>
</g>
</g>
<!-- Node50&#45;&gt;Node54 -->
<g id="edge4" class="edge"><title>Node50&#45;&gt;Node54</title>
<path fill="none" stroke="midnightblue" d="M40.6621,-440.605C40.9142,-489.15 48.3857,-616.136 116,-687 120.248,-691.453 125.566,-694.862 131.235,-697.473"/>
<polygon fill="midnightblue" stroke="midnightblue" points="44.1624,-440.529 40.7134,-430.511 37.1625,-440.493 44.1624,-440.529"/>
</g>
<!-- Node55 -->
<g id="node6" class="node"><title>Node55</title>
<g id="a_node6"><a xlink:href="class_c_dialogue_n_p_c.html#a1deb79509daa19585916a308c9b42e9c" target="_top" xlink:title="CDialogueNPC::print">
<polygon fill="none" stroke="black" points="121,-658.5 121,-677.5 227,-677.5 227,-658.5 121,-658.5"/>
<text text-anchor="middle" x="174" y="-665.5" font-family="Helvetica,sans-Serif" font-size="10.00">CDialogueNPC::print</text>
</a>
</g>
</g>
<!-- Node50&#45;&gt;Node55 -->
<g id="edge5" class="edge"><title>Node50&#45;&gt;Node55</title>
<path fill="none" stroke="midnightblue" d="M42.3389,-441.118C46.2199,-483.889 61.0085,-584.776 116,-644 121.845,-650.295 129.603,-654.999 137.508,-658.492"/>
<polygon fill="midnightblue" stroke="midnightblue" points="45.8078,-440.586 41.524,-430.896 38.8299,-441.143 45.8078,-440.586"/>
</g>
<!-- Node56 -->
<g id="node7" class="node"><title>Node56</title>
<g id="a_node7"><a xlink:href="class_c_fight.html#ac820b62e70990ddc90ecb959f4497f8f" target="_top" xlink:title="CFight::execute">
<polygon fill="none" stroke="black" points="280.5,-601.5 280.5,-620.5 366.5,-620.5 366.5,-601.5 280.5,-601.5"/>
<text text-anchor="middle" x="323.5" y="-608.5" font-family="Helvetica,sans-Serif" font-size="10.00">CFight::execute</text>
</a>
</g>
</g>
<!-- Node50&#45;&gt;Node56 -->
<g id="edge6" class="edge"><title>Node50&#45;&gt;Node56</title>
<path fill="none" stroke="midnightblue" d="M41.953,-440.912C45.084,-481.202 58.5015,-571.881 116,-611 169.354,-647.299 249.769,-632.553 292.814,-620.598"/>
<polygon fill="midnightblue" stroke="midnightblue" points="45.4349,-440.516 41.3042,-430.759 38.4492,-440.962 45.4349,-440.516"/>
</g>
<!-- Node57 -->
<g id="node8" class="node"><title>Node57</title>
<g id="a_node8"><a xlink:href="class_c_fight.html#a70c350b815744b481134b4d3ac0f61bb" target="_top" xlink:title="CFight::print">
<polygon fill="none" stroke="black" points="139,-544.5 139,-563.5 209,-563.5 209,-544.5 139,-544.5"/>
<text text-anchor="middle" x="174" y="-551.5" font-family="Helvetica,sans-Serif" font-size="10.00">CFight::print</text>
</a>
</g>
</g>
<!-- Node50&#45;&gt;Node57 -->
<g id="edge7" class="edge"><title>Node50&#45;&gt;Node57</title>
<path fill="none" stroke="midnightblue" d="M49.5896,-439.567C61.462,-463.419 84.9828,-504.747 116,-530 123.411,-536.033 132.558,-540.773 141.338,-544.388"/>
<polygon fill="midnightblue" stroke="midnightblue" points="52.7206,-438.002 45.2267,-430.513 46.4145,-441.041 52.7206,-438.002"/>
</g>
<!-- Node58 -->
<g id="node9" class="node"><title>Node58</title>
<g id="a_node9"><a xlink:href="class_c_game.html#a21a30939333b2c98f607d9bd2927d105" target="_top" xlink:title="CGame::createHero">
<polygon fill="none" stroke="black" points="122.5,-468.5 122.5,-487.5 225.5,-487.5 225.5,-468.5 122.5,-468.5"/>
<text text-anchor="middle" x="174" y="-475.5" font-family="Helvetica,sans-Serif" font-size="10.00">CGame::createHero</text>
</a>
</g>
</g>
<!-- Node50&#45;&gt;Node58 -->
<g id="edge8" class="edge"><title>Node50&#45;&gt;Node58</title>
<path fill="none" stroke="midnightblue" d="M67.3878,-435.571C81.5612,-443.089 99.4731,-452.103 116,-459 124.182,-462.415 133.215,-465.657 141.632,-468.464"/>
<polygon fill="midnightblue" stroke="midnightblue" points="68.7007,-432.303 58.2357,-430.65 65.3856,-438.468 68.7007,-432.303"/>
</g>
<!-- Node61 -->
<g id="node12" class="node"><title>Node61</title>
<g id="a_node12"><a xlink:href="class_c_game.html#ac0a8028013ca5a7c135c29fa582df4a0" target="_top" xlink:title="CGame::checkHeroStatus">
<polygon fill="none" stroke="black" points="552,-335.5 552,-354.5 683,-354.5 683,-335.5 552,-335.5"/>
<text text-anchor="middle" x="617.5" y="-342.5" font-family="Helvetica,sans-Serif" font-size="10.00">CGame::checkHeroStatus</text>
</a>
</g>
</g>
<!-- Node50&#45;&gt;Node61 -->
<g id="edge16" class="edge"><title>Node50&#45;&gt;Node61</title>
<path fill="none" stroke="midnightblue" d="M52.3719,-402.947C65.2292,-384.414 88.055,-356.684 116,-345 276.535,-277.88 492.166,-315.766 578.47,-335.451"/>
<polygon fill="midnightblue" stroke="midnightblue" points="49.3533,-401.165 46.7322,-411.431 55.1829,-405.04 49.3533,-401.165"/>
</g>
<!-- Node64 -->
<g id="node15" class="node"><title>Node64</title>
<g id="a_node15"><a xlink:href="class_c_game.html#accda079824fc813cbd64b4743846ae24" target="_top" xlink:title="CGame::loadGame">
<polygon fill="none" stroke="black" points="124,-430.5 124,-449.5 224,-449.5 224,-430.5 124,-430.5"/>
<text text-anchor="middle" x="174" y="-437.5" font-family="Helvetica,sans-Serif" font-size="10.00">CGame::loadGame</text>
</a>
</g>
</g>
<!-- Node50&#45;&gt;Node64 -->
<g id="edge17" class="edge"><title>Node50&#45;&gt;Node64</title>
<path fill="none" stroke="midnightblue" d="M90.4681,-428.12C101.379,-429.691 112.934,-431.354 123.833,-432.923"/>
<polygon fill="midnightblue" stroke="midnightblue" points="90.6436,-424.61 80.247,-426.649 89.6463,-431.538 90.6436,-424.61"/>
</g>
<!-- Node65 -->
<g id="node16" class="node"><title>Node65</title>
<g id="a_node16"><a xlink:href="class_c_game.html#a49656fe4404b3df63f2dbebd9b754edd" target="_top" xlink:title="CGame::saveGame">
<polygon fill="none" stroke="black" points="415,-525.5 415,-544.5 516,-544.5 516,-525.5 415,-525.5"/>
<text text-anchor="middle" x="465.5" y="-532.5" font-family="Helvetica,sans-Serif" font-size="10.00">CGame::saveGame</text>
</a>
</g>
</g>
<!-- Node50&#45;&gt;Node65 -->
<g id="edge19" class="edge"><title>Node50&#45;&gt;Node65</title>
<path fill="none" stroke="midnightblue" d="M53.2319,-439.282C66.4087,-457.317 89.1392,-484.014 116,-497 213.809,-544.285 344.654,-544.104 414.912,-539.661"/>
<polygon fill="midnightblue" stroke="midnightblue" points="55.8549,-436.927 47.241,-430.759 50.1281,-440.953 55.8549,-436.927"/>
</g>
<!-- Node66 -->
<g id="node17" class="node"><title>Node66</title>
<g id="a_node17"><a xlink:href="class_c_game.html#acdb5a10d8b17584b07b3c736ede7bf57" target="_top" xlink:title="CGame::reset">
<polygon fill="none" stroke="black" points="135.5,-354.5 135.5,-373.5 212.5,-373.5 212.5,-354.5 135.5,-354.5"/>
<text text-anchor="middle" x="174" y="-361.5" font-family="Helvetica,sans-Serif" font-size="10.00">CGame::reset</text>
</a>
</g>
</g>
<!-- Node50&#45;&gt;Node66 -->
<g id="edge21" class="edge"><title>Node50&#45;&gt;Node66</title>
<path fill="none" stroke="midnightblue" d="M67.3878,-406.429C81.5612,-398.911 99.4731,-389.897 116,-383 124.182,-379.585 133.215,-376.343 141.632,-373.536"/>
<polygon fill="midnightblue" stroke="midnightblue" points="65.3856,-403.532 58.2357,-411.35 68.7007,-409.697 65.3856,-403.532"/>
</g>
<!-- Node68 -->
<g id="node19" class="node"><title>Node68</title>
<g id="a_node19"><a xlink:href="class_c_game.html#a7b4409fd50b77ae5743a30bd43f01f61" target="_top" xlink:title="CGame::exit">
<polygon fill="none" stroke="black" points="138.5,-392.5 138.5,-411.5 209.5,-411.5 209.5,-392.5 138.5,-392.5"/>
<text text-anchor="middle" x="174" y="-399.5" font-family="Helvetica,sans-Serif" font-size="10.00">CGame::exit</text>
</a>
</g>
</g>
<!-- Node50&#45;&gt;Node68 -->
<g id="edge25" class="edge"><title>Node50&#45;&gt;Node68</title>
<path fill="none" stroke="midnightblue" d="M90.4419,-413.883C106.319,-411.598 123.564,-409.116 138.166,-407.014"/>
<polygon fill="midnightblue" stroke="midnightblue" points="89.6463,-410.462 80.247,-415.351 90.6436,-417.39 89.6463,-410.462"/>
</g>
<!-- Node69 -->
<g id="node20" class="node"><title>Node69</title>
<g id="a_node20"><a xlink:href="class_c_hero.html#aa184a6841da51966480c2172c2f80134" target="_top" xlink:title="CHero::addXP">
<polygon fill="none" stroke="black" points="135.5,-582.5 135.5,-601.5 212.5,-601.5 212.5,-582.5 135.5,-582.5"/>
<text text-anchor="middle" x="174" y="-589.5" font-family="Helvetica,sans-Serif" font-size="10.00">CHero::addXP</text>
</a>
</g>
</g>
<!-- Node50&#45;&gt;Node69 -->
<g id="edge28" class="edge"><title>Node50&#45;&gt;Node69</title>
<path fill="none" stroke="midnightblue" d="M45.4944,-440.778C53.8334,-473.046 74.7325,-537.018 116,-573 121.582,-577.867 128.452,-581.496 135.467,-584.199"/>
<polygon fill="midnightblue" stroke="midnightblue" points="48.8267,-439.67 43.0558,-430.785 42.0263,-441.33 48.8267,-439.67"/>
</g>
<!-- Node70 -->
<g id="node21" class="node"><title>Node70</title>
<g id="a_node21"><a xlink:href="class_c_inventory_browser.html#a91c51766048ba5629b125b9a444d31bb" target="_top" xlink:title="CInventoryBrowser::\loperator()">
<polygon fill="none" stroke="black" points="272,-238 272,-268 375,-268 375,-238 272,-238"/>
<text text-anchor="start" x="280" y="-256" font-family="Helvetica,sans-Serif" font-size="10.00">CInventoryBrowser::</text>
<text text-anchor="middle" x="323.5" y="-245" font-family="Helvetica,sans-Serif" font-size="10.00">operator()</text>
</a>
</g>
</g>
<!-- Node50&#45;&gt;Node70 -->
<g id="edge30" class="edge"><title>Node50&#45;&gt;Node70</title>
<path fill="none" stroke="midnightblue" d="M48.9704,-402.215C60.2965,-377.783 83.3585,-335.462 116,-312 140.902,-294.101 219.066,-274.844 271.76,-263.364"/>
<polygon fill="midnightblue" stroke="midnightblue" points="45.7137,-400.925 44.8412,-411.484 52.1078,-403.773 45.7137,-400.925"/>
</g>
<!-- Node71 -->
<g id="node22" class="node"><title>Node71</title>
<g id="a_node22"><a xlink:href="class_c_inventory_browser.html#a022cb6fc703bd156921816554c7a18b8" target="_top" xlink:title="CInventoryBrowser::\lprintInventory">
<polygon fill="none" stroke="black" points="122.5,-229 122.5,-259 225.5,-259 225.5,-229 122.5,-229"/>
<text text-anchor="start" x="130.5" y="-247" font-family="Helvetica,sans-Serif" font-size="10.00">CInventoryBrowser::</text>
<text text-anchor="middle" x="174" y="-236" font-family="Helvetica,sans-Serif" font-size="10.00">printInventory</text>
</a>
</g>
</g>
<!-- Node50&#45;&gt;Node71 -->
<g id="edge31" class="edge"><title>Node50&#45;&gt;Node71</title>
<path fill="none" stroke="midnightblue" d="M46.756,-401.294C56.5507,-370.698 79.0678,-311.404 116,-274 121.814,-268.111 129.03,-263.121 136.351,-259"/>
<polygon fill="midnightblue" stroke="midnightblue" points="43.3117,-400.587 43.7199,-411.174 50.0029,-402.643 43.3117,-400.587"/>
</g>
<!-- Node72 -->
<g id="node23" class="node"><title>Node72</title>
<g id="a_node23"><a xlink:href="class_c_shopping.html#ab72dff2e94f897bd5c3f1ef660e65afb" target="_top" xlink:title="CShopping::operator()">
<polygon fill="none" stroke="black" points="268,-171.5 268,-190.5 379,-190.5 379,-171.5 268,-171.5"/>
<text text-anchor="middle" x="323.5" y="-178.5" font-family="Helvetica,sans-Serif" font-size="10.00">CShopping::operator()</text>
</a>
</g>
</g>
<!-- Node50&#45;&gt;Node72 -->
<g id="edge33" class="edge"><title>Node50&#45;&gt;Node72</title>
<path fill="none" stroke="midnightblue" d="M42.1994,-401.13C45.7912,-360.368 60.0235,-267.164 116,-220 138.46,-201.076 214.345,-190.529 267.573,-185.308"/>
<polygon fill="midnightblue" stroke="midnightblue" points="38.7054,-400.92 41.4427,-411.155 45.6856,-401.447 38.7054,-400.92"/>
</g>
<!-- Node73 -->
<g id="node24" class="node"><title>Node73</title>
<g id="a_node24"><a xlink:href="class_c_shopping.html#acfb04014dcfe9b4ddca2206a567112c9" target="_top" xlink:title="CShopping::printItems">
<polygon fill="none" stroke="black" points="117.5,-152.5 117.5,-171.5 230.5,-171.5 230.5,-152.5 117.5,-152.5"/>
<text text-anchor="middle" x="174" y="-159.5" font-family="Helvetica,sans-Serif" font-size="10.00">CShopping::printItems</text>
</a>
</g>
</g>
<!-- Node50&#45;&gt;Node73 -->
<g id="edge34" class="edge"><title>Node50&#45;&gt;Node73</title>
<path fill="none" stroke="midnightblue" d="M41.9174,-401.009C44.9897,-356.683 58.3167,-249.097 116,-186 121.723,-179.739 129.342,-175.057 137.142,-171.576"/>
<polygon fill="midnightblue" stroke="midnightblue" points="38.4186,-400.887 41.3257,-411.075 45.4066,-401.298 38.4186,-400.887"/>
</g>
<!-- Node74 -->
<g id="node25" class="node"><title>Node74</title>
<g id="a_node25"><a xlink:href="class_c_sword.html#a8d8f4502742e5905d2be1f4d0157b6be" target="_top" xlink:title="CSword::print">
<polygon fill="none" stroke="black" points="136.5,-114.5 136.5,-133.5 211.5,-133.5 211.5,-114.5 136.5,-114.5"/>
<text text-anchor="middle" x="174" y="-121.5" font-family="Helvetica,sans-Serif" font-size="10.00">CSword::print</text>
</a>
</g>
</g>
<!-- Node50&#45;&gt;Node74 -->
<g id="edge36" class="edge"><title>Node50&#45;&gt;Node74</title>
<path fill="none" stroke="midnightblue" d="M40.3711,-401.193C39.8854,-351.006 45.6673,-217.553 116,-143 121.512,-137.158 128.865,-133.111 136.452,-130.308"/>
<polygon fill="midnightblue" stroke="midnightblue" points="36.8746,-401.409 40.5712,-411.338 43.8732,-401.271 36.8746,-401.409"/>
</g>
<!-- Node75 -->
<g id="node26" class="node"><title>Node75</title>
<g id="a_node26"><a xlink:href="class_c_sword.html#a7871b74b03a5ee130925e7f20d8107ef" target="_top" xlink:title="CSword::printForShop">
<polygon fill="none" stroke="black" points="118,-76.5 118,-95.5 230,-95.5 230,-76.5 118,-76.5"/>
<text text-anchor="middle" x="174" y="-83.5" font-family="Helvetica,sans-Serif" font-size="10.00">CSword::printForShop</text>
</a>
</g>
</g>
<!-- Node50&#45;&gt;Node75 -->
<g id="edge37" class="edge"><title>Node50&#45;&gt;Node75</title>
<path fill="none" stroke="midnightblue" d="M43.1828,-401.199C50.4077,-339.049 75.4194,-149.351 116,-105 119.521,-101.152 123.841,-98.0825 128.513,-95.634"/>
<polygon fill="midnightblue" stroke="midnightblue" points="39.6916,-400.924 42.041,-411.255 46.6469,-401.714 39.6916,-400.924"/>
</g>
<!-- Node76 -->
<g id="node27" class="node"><title>Node76</title>
<g id="a_node27"><a xlink:href="class_c_trap.html#a0b0925310ffbfa28f877ac5669f8bb20" target="_top" xlink:title="CTrap::execute">
<polygon fill="none" stroke="black" points="132.5,-38.5 132.5,-57.5 215.5,-57.5 215.5,-38.5 132.5,-38.5"/>
<text text-anchor="middle" x="174" y="-45.5" font-family="Helvetica,sans-Serif" font-size="10.00">CTrap::execute</text>
</a>
</g>
</g>
<!-- Node50&#45;&gt;Node76 -->
<g id="edge38" class="edge"><title>Node50&#45;&gt;Node76</title>
<path fill="none" stroke="midnightblue" d="M42.6108,-401.483C48.4835,-334.84 70.8083,-117.609 116,-67 120.447,-62.0204 126.232,-58.3431 132.41,-55.6282"/>
<polygon fill="midnightblue" stroke="midnightblue" points="39.1211,-401.214 41.7555,-411.476 46.0956,-401.811 39.1211,-401.214"/>
</g>
<!-- Node77 -->
<g id="node28" class="node"><title>Node77</title>
<g id="a_node28"><a xlink:href="class_c_trap.html#a64aba41bb1f7578d10e347358273acf4" target="_top" xlink:title="CTrap::print">
<polygon fill="none" stroke="black" points="140.5,-0.5 140.5,-19.5 207.5,-19.5 207.5,-0.5 140.5,-0.5"/>
<text text-anchor="middle" x="174" y="-7.5" font-family="Helvetica,sans-Serif" font-size="10.00">CTrap::print</text>
</a>
</g>
</g>
<!-- Node50&#45;&gt;Node77 -->
<g id="edge39" class="edge"><title>Node50&#45;&gt;Node77</title>
<path fill="none" stroke="midnightblue" d="M42.2177,-400.814C46.9522,-328.784 66.3911,-85.6715 116,-29 122.252,-21.8576 131.262,-17.3922 140.279,-14.6032"/>
<polygon fill="midnightblue" stroke="midnightblue" points="38.6997,-400.99 41.5611,-411.191 45.6857,-401.432 38.6997,-400.99"/>
</g>
<!-- Node59 -->
<g id="node10" class="node"><title>Node59</title>
<g id="a_node10"><a xlink:href="class_c_game.html#a39e1e296c6dcabbf5c824eea6424d6d9" target="_top" xlink:title="CGame::mainMenu">
<polygon fill="none" stroke="black" points="273,-449.5 273,-468.5 374,-468.5 374,-449.5 273,-449.5"/>
<text text-anchor="middle" x="323.5" y="-456.5" font-family="Helvetica,sans-Serif" font-size="10.00">CGame::mainMenu</text>
</a>
</g>
</g>
<!-- Node58&#45;&gt;Node59 -->
<g id="edge9" class="edge"><title>Node58&#45;&gt;Node59</title>
<path fill="none" stroke="midnightblue" d="M235.89,-470.157C248.122,-468.581 260.84,-466.943 272.644,-465.422"/>
<polygon fill="midnightblue" stroke="midnightblue" points="235.232,-466.712 225.761,-471.461 236.126,-473.655 235.232,-466.712"/>
</g>
<!-- Node60 -->
<g id="node11" class="node"><title>Node60</title>
<g id="a_node11"><a xlink:href="class_c_game.html#aa9d3da2fefa1c04faefc6586dbd37971" target="_top" xlink:title="CGame::play">
<polygon fill="none" stroke="black" points="428.5,-430.5 428.5,-449.5 502.5,-449.5 502.5,-430.5 428.5,-430.5"/>
<text text-anchor="middle" x="465.5" y="-437.5" font-family="Helvetica,sans-Serif" font-size="10.00">CGame::play</text>
</a>
</g>
</g>
<!-- Node59&#45;&gt;Node60 -->
<g id="edge10" class="edge"><title>Node59&#45;&gt;Node60</title>
<path fill="none" stroke="midnightblue" d="M384.411,-450.869C399.276,-448.852 414.76,-446.75 428.108,-444.939"/>
<polygon fill="midnightblue" stroke="midnightblue" points="383.691,-447.435 374.253,-452.248 384.633,-454.371 383.691,-447.435"/>
</g>
<!-- Node62 -->
<g id="node13" class="node"><title>Node62</title>
<g id="a_node13"><a xlink:href="class_c_game.html#a714b291af5e20aae8be14a905fd0522d" target="_top" xlink:title="CGame::tickComponent">
<polygon fill="none" stroke="black" points="719,-411.5 719,-430.5 840,-430.5 840,-411.5 719,-411.5"/>
<text text-anchor="middle" x="779.5" y="-418.5" font-family="Helvetica,sans-Serif" font-size="10.00">CGame::tickComponent</text>
</a>
</g>
</g>
<!-- Node59&#45;&gt;Node62 -->
<g id="edge15" class="edge"><title>Node59&#45;&gt;Node62</title>
<path fill="none" stroke="midnightblue" d="M371.219,-470.756C440.633,-486.165 574.477,-507.924 683,-478 716.505,-468.761 750.107,-444.335 767.106,-430.646"/>
<polygon fill="midnightblue" stroke="midnightblue" points="371.983,-467.341 361.456,-468.536 370.43,-474.166 371.983,-467.341"/>
</g>
<!-- Node60&#45;&gt;Node61 -->
<g id="edge11" class="edge"><title>Node60&#45;&gt;Node61</title>
<path fill="none" stroke="midnightblue" d="M490.214,-424.981C521.333,-405.273 575.056,-371.248 601.251,-354.657"/>
<polygon fill="midnightblue" stroke="midnightblue" points="488.284,-422.061 481.708,-430.368 492.029,-427.974 488.284,-422.061"/>
</g>
<!-- Node63 -->
<g id="node14" class="node"><title>Node63</title>
<g id="a_node14"><a xlink:href="main_8cpp.html#ae66f6b31b5ad750f1fe042a706a4e3d4" target="_top" xlink:title="main">
<polygon fill="none" stroke="black" points="598.5,-449.5 598.5,-468.5 636.5,-468.5 636.5,-449.5 598.5,-449.5"/>
<text text-anchor="middle" x="617.5" y="-456.5" font-family="Helvetica,sans-Serif" font-size="10.00">main</text>
</a>
</g>
</g>
<!-- Node60&#45;&gt;Node63 -->
<g id="edge14" class="edge"><title>Node60&#45;&gt;Node63</title>
<path fill="none" stroke="midnightblue" d="M513.086,-445.901C541.885,-449.549 577.244,-454.028 598.266,-456.69"/>
<polygon fill="midnightblue" stroke="midnightblue" points="513.171,-442.384 502.811,-444.599 512.292,-449.328 513.171,-442.384"/>
</g>
<!-- Node61&#45;&gt;Node62 -->
<g id="edge12" class="edge"><title>Node61&#45;&gt;Node62</title>
<path fill="none" stroke="midnightblue" d="M656.188,-357.997C665.08,-361.344 674.456,-365.108 683,-369 711.863,-382.147 743.971,-400.433 762.636,-411.451"/>
<polygon fill="midnightblue" stroke="midnightblue" points="657.385,-354.708 646.792,-354.541 654.969,-361.278 657.385,-354.708"/>
</g>
<!-- Node62&#45;&gt;Node60 -->
<g id="edge13" class="edge"><title>Node62&#45;&gt;Node60</title>
<path fill="none" stroke="midnightblue" d="M708.762,-425.247C644.877,-429.137 552.841,-434.742 502.595,-437.802"/>
<polygon fill="midnightblue" stroke="midnightblue" points="708.994,-428.739 718.763,-424.638 708.569,-421.752 708.994,-428.739"/>
</g>
<!-- Node64&#45;&gt;Node59 -->
<g id="edge18" class="edge"><title>Node64&#45;&gt;Node59</title>
<path fill="none" stroke="midnightblue" d="M234.225,-447.629C247.033,-449.279 260.449,-451.007 272.844,-452.604"/>
<polygon fill="midnightblue" stroke="midnightblue" points="234.481,-444.133 224.115,-446.327 233.586,-451.076 234.481,-444.133"/>
</g>
<!-- Node65&#45;&gt;Node62 -->
<g id="edge20" class="edge"><title>Node65&#45;&gt;Node62</title>
<path fill="none" stroke="midnightblue" d="M526.365,-538.362C571.422,-538.577 633.64,-533.822 683,-511 723.324,-492.356 757.627,-449.896 771.686,-430.719"/>
<polygon fill="midnightblue" stroke="midnightblue" points="526.208,-534.86 516.162,-538.228 526.115,-541.859 526.208,-534.86"/>
</g>
<!-- Node66&#45;&gt;Node61 -->
<g id="edge23" class="edge"><title>Node66&#45;&gt;Node61</title>
<path fill="none" stroke="midnightblue" d="M222.871,-361.94C302.516,-358.512 462.309,-351.636 551.87,-347.781"/>
<polygon fill="midnightblue" stroke="midnightblue" points="222.482,-358.453 212.642,-362.38 222.783,-365.447 222.482,-358.453"/>
</g>
<!-- Node66&#45;&gt;Node62 -->
<g id="edge22" class="edge"><title>Node66&#45;&gt;Node62</title>
<path fill="none" stroke="midnightblue" d="M222.81,-368.516C331.948,-378.824 599.211,-404.066 718.872,-415.368"/>
<polygon fill="midnightblue" stroke="midnightblue" points="223.036,-365.022 212.752,-367.566 222.378,-371.99 223.036,-365.022"/>
</g>
<!-- Node67 -->
<g id="node18" class="node"><title>Node67</title>
<g id="a_node18"><a xlink:href="class_c_game.html#af5435e79a93dd92991ae24b499976470" target="_top" xlink:title="CGame::CGame">
<polygon fill="none" stroke="black" points="279,-411.5 279,-430.5 368,-430.5 368,-411.5 279,-411.5"/>
<text text-anchor="middle" x="323.5" y="-418.5" font-family="Helvetica,sans-Serif" font-size="10.00">CGame::CGame</text>
</a>
</g>
</g>
<!-- Node66&#45;&gt;Node67 -->
<g id="edge24" class="edge"><title>Node66&#45;&gt;Node67</title>
<path fill="none" stroke="midnightblue" d="M214.687,-376.799C220.519,-378.804 226.433,-380.907 232,-383 255.926,-391.996 282.884,-403.496 301.107,-411.477"/>
<polygon fill="midnightblue" stroke="midnightblue" points="215.623,-373.42 205.028,-373.536 213.383,-380.052 215.623,-373.42"/>
</g>
<!-- Node68&#45;&gt;Node59 -->
<g id="edge26" class="edge"><title>Node68&#45;&gt;Node59</title>
<path fill="none" stroke="midnightblue" d="M216.244,-414.853C221.596,-416.781 226.964,-418.849 232,-421 248.637,-428.107 251.412,-432.78 268,-440 275.81,-443.399 284.441,-446.636 292.489,-449.443"/>
<polygon fill="midnightblue" stroke="midnightblue" points="217.299,-411.514 206.704,-411.544 215.006,-418.127 217.299,-411.514"/>
</g>
<!-- Node68&#45;&gt;Node67 -->
<g id="edge27" class="edge"><title>Node68&#45;&gt;Node67</title>
<path fill="none" stroke="midnightblue" d="M219.667,-407.754C238.444,-410.172 260.216,-412.977 278.879,-415.381"/>
<polygon fill="midnightblue" stroke="midnightblue" points="219.947,-404.261 209.582,-406.455 219.053,-411.204 219.947,-404.261"/>
</g>
<!-- Node69&#45;&gt;Node56 -->
<g id="edge29" class="edge"><title>Node69&#45;&gt;Node56</title>
<path fill="none" stroke="midnightblue" d="M222.617,-598.134C241.177,-600.524 262.273,-603.242 280.28,-605.562"/>
<polygon fill="midnightblue" stroke="midnightblue" points="222.967,-594.65 212.602,-596.844 222.073,-601.593 222.967,-594.65"/>
</g>
<!-- Node71&#45;&gt;Node70 -->
<g id="edge32" class="edge"><title>Node71&#45;&gt;Node70</title>
<path fill="none" stroke="midnightblue" d="M236.023,-247.723C247.87,-248.446 260.168,-249.197 271.645,-249.897"/>
<polygon fill="midnightblue" stroke="midnightblue" points="235.956,-244.213 225.761,-247.097 235.529,-251.2 235.956,-244.213"/>
</g>
<!-- Node73&#45;&gt;Node72 -->
<g id="edge35" class="edge"><title>Node73&#45;&gt;Node72</title>
<path fill="none" stroke="midnightblue" d="M240.793,-170.475C249.761,-171.63 258.888,-172.806 267.635,-173.933"/>
<polygon fill="midnightblue" stroke="midnightblue" points="241.129,-166.989 230.763,-169.183 240.234,-173.932 241.129,-166.989"/>
</g>
</g>
</svg>
