<?xml version="1.0" encoding="UTF-8" standalone="no"?>
<!DOCTYPE svg PUBLIC "-//W3C//DTD SVG 1.1//EN"
 "http://www.w3.org/Graphics/SVG/1.1/DTD/svg11.dtd">
<!-- Generated by graphviz version 2.38.0 (20140413.2041)
 -->
<!-- Title: CDialogueNPC Pages: 1 -->
<svg width="132pt" height="343pt"
 viewBox="0.00 0.00 132.00 343.00" xmlns="http://www.w3.org/2000/svg" xmlns:xlink="http://www.w3.org/1999/xlink">
<g id="graph0" class="graph" transform="scale(1 1) rotate(0) translate(4 339)">
<title>CDialogueNPC</title>
<!-- Node2 -->
<g id="node1" class="node"><title>Node2</title>
<polygon fill="#bfbfbf" stroke="black" points="0,-0.5 0,-90.5 96,-90.5 96,-0.5 0,-0.5"/>
<text text-anchor="middle" x="48" y="-78.5" font-family="Helvetica,sans-Serif" font-size="10.00">CDialogueNPC</text>
<polyline fill="none" stroke="black" points="0,-71.5 96,-71.5 "/>
<text text-anchor="middle" x="48" y="-59.5" font-family="Helvetica,sans-Serif" font-size="10.00"> </text>
<polyline fill="none" stroke="black" points="0,-52.5 96,-52.5 "/>
<text text-anchor="start" x="8" y="-40.5" font-family="Helvetica,sans-Serif" font-size="10.00">+ CDialogueNPC()</text>
<text text-anchor="start" x="8" y="-29.5" font-family="Helvetica,sans-Serif" font-size="10.00">+ CDialogueNPC()</text>
<text text-anchor="start" x="8" y="-18.5" font-family="Helvetica,sans-Serif" font-size="10.00">+ print()</text>
<text text-anchor="start" x="8" y="-7.5" font-family="Helvetica,sans-Serif" font-size="10.00">+ execute()</text>
</g>
<!-- Node3 -->
<g id="node2" class="node"><title>Node3</title>
<g id="a_node2"><a xlink:href="class_c_event.html" target="_top" xlink:title="{CEvent\n||+ CEvent()\l+ ~CEvent()\l+ print()\l+ execute()\l}">
<polygon fill="none" stroke="black" points="14,-128.5 14,-218.5 82,-218.5 82,-128.5 14,-128.5"/>
<text text-anchor="middle" x="48" y="-206.5" font-family="Helvetica,sans-Serif" font-size="10.00">CEvent</text>
<polyline fill="none" stroke="black" points="14,-199.5 82,-199.5 "/>
<text text-anchor="middle" x="48" y="-187.5" font-family="Helvetica,sans-Serif" font-size="10.00"> </text>
<polyline fill="none" stroke="black" points="14,-180.5 82,-180.5 "/>
<text text-anchor="start" x="22" y="-168.5" font-family="Helvetica,sans-Serif" font-size="10.00">+ CEvent()</text>
<text text-anchor="start" x="22" y="-157.5" font-family="Helvetica,sans-Serif" font-size="10.00">+ ~CEvent()</text>
<text text-anchor="start" x="22" y="-146.5" font-family="Helvetica,sans-Serif" font-size="10.00">+ print()</text>
<text text-anchor="start" x="22" y="-135.5" font-family="Helvetica,sans-Serif" font-size="10.00">+ execute()</text>
</a>
</g>
</g>
<!-- Node3&#45;&gt;Node2 -->
<g id="edge1" class="edge"><title>Node3&#45;&gt;Node2</title>
<path fill="none" stroke="midnightblue" d="M48,-118.226C48,-109.056 48,-99.6331 48,-90.7568"/>
<polygon fill="none" stroke="midnightblue" points="44.5001,-118.431 48,-128.431 51.5001,-118.431 44.5001,-118.431"/>
</g>
<!-- Node4 -->
<g id="node3" class="node"><title>Node4</title>
<polygon fill="none" stroke="#bfbfbf" points="2.5,-277.5 2.5,-334.5 31.5,-334.5 31.5,-277.5 2.5,-277.5"/>
<text text-anchor="middle" x="17" y="-322.5" font-family="Helvetica,sans-Serif" font-size="10.00">int</text>
<polyline fill="none" stroke="#bfbfbf" points="2.5,-315.5 31.5,-315.5 "/>
<text text-anchor="middle" x="17" y="-303.5" font-family="Helvetica,sans-Serif" font-size="10.00"> </text>
<polyline fill="none" stroke="#bfbfbf" points="2.5,-296.5 31.5,-296.5 "/>
<text text-anchor="middle" x="17" y="-284.5" font-family="Helvetica,sans-Serif" font-size="10.00"> </text>
</g>
<!-- Node4&#45;&gt;Node3 -->
<g id="edge2" class="edge"><title>Node4&#45;&gt;Node3</title>
<path fill="none" stroke="#404040" d="M14.7268,-277.208C14.391,-264.758 14.9439,-249.987 18,-237 18.5376,-234.715 19.1674,-232.416 19.8722,-230.118"/>
<polygon fill="none" stroke="#404040" points="19.9112,-230.008 18.1587,-223.013 23.9416,-218.705 25.694,-225.7 19.9112,-230.008"/>
<text text-anchor="middle" x="38" y="-245.5" font-family="Helvetica,sans-Serif" font-size="10.00"> #eventID</text>
</g>
<!-- Node5 -->
<g id="node4" class="node"><title>Node5</title>
<polygon fill="none" stroke="#bfbfbf" points="59.5,-277.5 59.5,-334.5 100.5,-334.5 100.5,-277.5 59.5,-277.5"/>
<text text-anchor="middle" x="80" y="-322.5" font-family="Helvetica,sans-Serif" font-size="10.00">string</text>
<polyline fill="none" stroke="#bfbfbf" points="59.5,-315.5 100.5,-315.5 "/>
<text text-anchor="middle" x="80" y="-303.5" font-family="Helvetica,sans-Serif" font-size="10.00"> </text>
<polyline fill="none" stroke="#bfbfbf" points="59.5,-296.5 100.5,-296.5 "/>
<text text-anchor="middle" x="80" y="-284.5" font-family="Helvetica,sans-Serif" font-size="10.00"> </text>
</g>
<!-- Node5&#45;&gt;Node3 -->
<g id="edge3" class="edge"><title>Node5&#45;&gt;Node3</title>
<path fill="none" stroke="#404040" d="M73.2136,-277.324C69.8803,-263.731 65.7377,-246.837 61.7799,-230.696"/>
<polygon fill="none" stroke="#404040" points="61.6638,-230.222 56.3499,-225.348 58.8059,-218.568 64.1197,-223.442 61.6638,-230.222"/>
<text text-anchor="middle" x="95.5" y="-251" font-family="Helvetica,sans-Serif" font-size="10.00"> #eventName</text>
<text text-anchor="middle" x="95.5" y="-240" font-family="Helvetica,sans-Serif" font-size="10.00">#text</text>
</g>
</g>
</svg>
