<?xml version="1.0" encoding="UTF-8" standalone="no"?>
<!DOCTYPE svg PUBLIC "-//W3C//DTD SVG 1.1//EN"
 "http://www.w3.org/Graphics/SVG/1.1/DTD/svg11.dtd">
<!-- Generated by graphviz version 2.38.0 (20140413.2041)
 -->
<!-- Title: CItem::getName Pages: 1 -->
<svg width="382pt" height="28pt"
 viewBox="0.00 0.00 382.00 28.00" xmlns="http://www.w3.org/2000/svg" xmlns:xlink="http://www.w3.org/1999/xlink">
<g id="graph0" class="graph" transform="scale(1 1) rotate(0) translate(4 24)">
<title>CItem::getName</title>
<!-- Node11 -->
<g id="node1" class="node"><title>Node11</title>
<polygon fill="#bfbfbf" stroke="black" points="0,-0.5 0,-19.5 87,-19.5 87,-0.5 0,-0.5"/>
<text text-anchor="middle" x="43.5" y="-7.5" font-family="Helvetica,sans-Serif" font-size="10.00">CItem::getName</text>
</g>
<!-- Node12 -->
<g id="node2" class="node"><title>Node12</title>
<g id="a_node2"><a xlink:href="class_c_shopping.html#a0981a7916cca8a37beb35858ad2ec77e" target="_top" xlink:title="CShopping::buyItem">
<polygon fill="none" stroke="black" points="123,-0.5 123,-19.5 227,-19.5 227,-0.5 123,-0.5"/>
<text text-anchor="middle" x="175" y="-7.5" font-family="Helvetica,sans-Serif" font-size="10.00">CShopping::buyItem</text>
</a>
</g>
</g>
<!-- Node11&#45;&gt;Node12 -->
<g id="edge1" class="edge"><title>Node11&#45;&gt;Node12</title>
<path fill="none" stroke="midnightblue" d="M97.3174,-10C105.706,-10 114.371,-10 122.724,-10"/>
<polygon fill="midnightblue" stroke="midnightblue" points="97.2621,-6.5001 87.262,-10 97.262,-13.5001 97.2621,-6.5001"/>
</g>
<!-- Node13 -->
<g id="node3" class="node"><title>Node13</title>
<g id="a_node3"><a xlink:href="class_c_shopping.html#ab72dff2e94f897bd5c3f1ef660e65afb" target="_top" xlink:title="CShopping::operator()">
<polygon fill="none" stroke="black" points="263,-0.5 263,-19.5 374,-19.5 374,-0.5 263,-0.5"/>
<text text-anchor="middle" x="318.5" y="-7.5" font-family="Helvetica,sans-Serif" font-size="10.00">CShopping::operator()</text>
</a>
</g>
</g>
<!-- Node12&#45;&gt;Node13 -->
<g id="edge2" class="edge"><title>Node12&#45;&gt;Node13</title>
<path fill="none" stroke="midnightblue" d="M237.265,-10C245.713,-10 254.344,-10 262.666,-10"/>
<polygon fill="midnightblue" stroke="midnightblue" points="237.085,-6.5001 227.085,-10 237.085,-13.5001 237.085,-6.5001"/>
</g>
</g>
</svg>
