<?xml version="1.0" encoding="UTF-8" standalone="no"?>
<!DOCTYPE svg PUBLIC "-//W3C//DTD SVG 1.1//EN"
 "http://www.w3.org/Graphics/SVG/1.1/DTD/svg11.dtd">
<!-- Generated by graphviz version 2.38.0 (20140413.2041)
 -->
<!-- Title: CDisplay::printWithDelimiter Pages: 1 -->
<svg width="904pt" height="671pt"
 viewBox="0.00 0.00 904.00 671.00" xmlns="http://www.w3.org/2000/svg" xmlns:xlink="http://www.w3.org/1999/xlink">
<g id="graph0" class="graph" transform="scale(1 1) rotate(0) translate(4 667)">
<title>CDisplay::printWithDelimiter</title>
<!-- Node117 -->
<g id="node1" class="node"><title>Node117</title>
<polygon fill="#bfbfbf" stroke="black" points="0,-339.5 0,-358.5 139,-358.5 139,-339.5 0,-339.5"/>
<text text-anchor="middle" x="69.5" y="-346.5" font-family="Helvetica,sans-Serif" font-size="10.00">CDisplay::printWithDelimiter</text>
</g>
<!-- Node118 -->
<g id="node2" class="node"><title>Node118</title>
<g id="a_node2"><a xlink:href="class_c_choice.html#aeccaa71a8fcd358215fe0ddbc37ab143" target="_top" xlink:title="CChoice::execute">
<polygon fill="none" stroke="black" points="189,-643.5 189,-662.5 283,-662.5 283,-643.5 189,-643.5"/>
<text text-anchor="middle" x="236" y="-650.5" font-family="Helvetica,sans-Serif" font-size="10.00">CChoice::execute</text>
</a>
</g>
</g>
<!-- Node117&#45;&gt;Node118 -->
<g id="edge1" class="edge"><title>Node117&#45;&gt;Node118</title>
<path fill="none" stroke="midnightblue" d="M71.9275,-368.838C76.6981,-420.248 96.5638,-558.999 175,-634 179.028,-637.851 183.832,-640.922 188.943,-643.37"/>
<polygon fill="midnightblue" stroke="midnightblue" points="75.4042,-368.412 71.0853,-358.738 68.4284,-368.994 75.4042,-368.412"/>
</g>
<!-- Node119 -->
<g id="node3" class="node"><title>Node119</title>
<g id="a_node3"><a xlink:href="class_c_dialogue_n_p_c.html#a6a7d83e9c13789f6804a8b5323d572f8" target="_top" xlink:title="CDialogueNPC::execute">
<polygon fill="none" stroke="black" points="175,-605.5 175,-624.5 297,-624.5 297,-605.5 175,-605.5"/>
<text text-anchor="middle" x="236" y="-612.5" font-family="Helvetica,sans-Serif" font-size="10.00">CDialogueNPC::execute</text>
</a>
</g>
</g>
<!-- Node117&#45;&gt;Node119 -->
<g id="edge2" class="edge"><title>Node117&#45;&gt;Node119</title>
<path fill="none" stroke="midnightblue" d="M73.7738,-368.848C82.2625,-414.283 109.091,-526.855 175,-591 181.432,-597.26 189.703,-601.951 198.036,-605.443"/>
<polygon fill="midnightblue" stroke="midnightblue" points="77.1872,-368.051 71.9981,-358.814 70.2943,-369.271 77.1872,-368.051"/>
</g>
<!-- Node120 -->
<g id="node4" class="node"><title>Node120</title>
<g id="a_node4"><a xlink:href="class_c_display.html#a63f3c4f78cef1d3b13290970da9e3e85" target="_top" xlink:title="CDisplay::printError">
<polygon fill="none" stroke="black" points="185.5,-491.5 185.5,-510.5 286.5,-510.5 286.5,-491.5 185.5,-491.5"/>
<text text-anchor="middle" x="236" y="-498.5" font-family="Helvetica,sans-Serif" font-size="10.00">CDisplay::printError</text>
</a>
</g>
</g>
<!-- Node117&#45;&gt;Node120 -->
<g id="edge3" class="edge"><title>Node117&#45;&gt;Node120</title>
<path fill="none" stroke="midnightblue" d="M80.2699,-367.634C96.2633,-396.36 130.732,-451.339 175,-482 180.569,-485.857 186.96,-488.961 193.448,-491.449"/>
<polygon fill="midnightblue" stroke="midnightblue" points="83.2421,-365.773 75.3975,-358.651 77.0889,-369.11 83.2421,-365.773"/>
</g>
<!-- Node122 -->
<g id="node6" class="node"><title>Node122</title>
<g id="a_node6"><a xlink:href="class_c_game.html#aa9d3da2fefa1c04faefc6586dbd37971" target="_top" xlink:title="CGame::play">
<polygon fill="none" stroke="black" points="489,-415.5 489,-434.5 563,-434.5 563,-415.5 489,-415.5"/>
<text text-anchor="middle" x="526" y="-422.5" font-family="Helvetica,sans-Serif" font-size="10.00">CGame::play</text>
</a>
</g>
</g>
<!-- Node117&#45;&gt;Node122 -->
<g id="edge15" class="edge"><title>Node117&#45;&gt;Node122</title>
<path fill="none" stroke="midnightblue" d="M131.886,-360.356C146.038,-362.92 161.035,-365.594 175,-368 289.515,-387.734 425.431,-409.354 488.938,-419.351"/>
<polygon fill="midnightblue" stroke="midnightblue" points="132.223,-356.86 121.758,-358.514 130.97,-363.747 132.223,-356.86"/>
</g>
<!-- Node126 -->
<g id="node10" class="node"><title>Node126</title>
<g id="a_node10"><a xlink:href="class_c_game.html#a49656fe4404b3df63f2dbebd9b754edd" target="_top" xlink:title="CGame::saveGame">
<polygon fill="none" stroke="black" points="338,-529.5 338,-548.5 439,-548.5 439,-529.5 338,-529.5"/>
<text text-anchor="middle" x="388.5" y="-536.5" font-family="Helvetica,sans-Serif" font-size="10.00">CGame::saveGame</text>
</a>
</g>
</g>
<!-- Node117&#45;&gt;Node126 -->
<g id="edge20" class="edge"><title>Node117&#45;&gt;Node126</title>
<path fill="none" stroke="midnightblue" d="M76.0015,-368.517C87.5183,-405.347 117.946,-484.57 175,-520 223.93,-550.385 291.822,-550.867 337.587,-546.563"/>
<polygon fill="midnightblue" stroke="midnightblue" points="79.2388,-367.126 73.0259,-358.544 72.531,-369.127 79.2388,-367.126"/>
</g>
<!-- Node128 -->
<g id="node12" class="node"><title>Node128</title>
<g id="a_node12"><a xlink:href="class_c_fight.html#ac820b62e70990ddc90ecb959f4497f8f" target="_top" xlink:title="CFight::execute">
<polygon fill="none" stroke="black" points="193,-339.5 193,-358.5 279,-358.5 279,-339.5 193,-339.5"/>
<text text-anchor="middle" x="236" y="-346.5" font-family="Helvetica,sans-Serif" font-size="10.00">CFight::execute</text>
</a>
</g>
</g>
<!-- Node117&#45;&gt;Node128 -->
<g id="edge14" class="edge"><title>Node117&#45;&gt;Node128</title>
<path fill="none" stroke="midnightblue" d="M149.582,-349C164.486,-349 179.53,-349 192.751,-349"/>
<polygon fill="midnightblue" stroke="midnightblue" points="149.31,-345.5 139.31,-349 149.31,-352.5 149.31,-345.5"/>
</g>
<!-- Node129 -->
<g id="node13" class="node"><title>Node129</title>
<g id="a_node13"><a xlink:href="class_c_game.html#a21a30939333b2c98f607d9bd2927d105" target="_top" xlink:title="CGame::createHero">
<polygon fill="none" stroke="black" points="184.5,-415.5 184.5,-434.5 287.5,-434.5 287.5,-415.5 184.5,-415.5"/>
<text text-anchor="middle" x="236" y="-422.5" font-family="Helvetica,sans-Serif" font-size="10.00">CGame::createHero</text>
</a>
</g>
</g>
<!-- Node117&#45;&gt;Node129 -->
<g id="edge16" class="edge"><title>Node117&#45;&gt;Node129</title>
<path fill="none" stroke="midnightblue" d="M97.7324,-363.311C118.653,-374.119 148.377,-389.075 175,-401 186.263,-406.045 198.925,-411.185 209.703,-415.408"/>
<polygon fill="midnightblue" stroke="midnightblue" points="99.2705,-360.166 88.7828,-358.663 96.0441,-366.378 99.2705,-360.166"/>
</g>
<!-- Node130 -->
<g id="node14" class="node"><title>Node130</title>
<g id="a_node14"><a xlink:href="class_c_game.html#accda079824fc813cbd64b4743846ae24" target="_top" xlink:title="CGame::loadGame">
<polygon fill="none" stroke="black" points="186,-453.5 186,-472.5 286,-472.5 286,-453.5 186,-453.5"/>
<text text-anchor="middle" x="236" y="-460.5" font-family="Helvetica,sans-Serif" font-size="10.00">CGame::loadGame</text>
</a>
</g>
</g>
<!-- Node117&#45;&gt;Node130 -->
<g id="edge18" class="edge"><title>Node117&#45;&gt;Node130</title>
<path fill="none" stroke="midnightblue" d="M85.0154,-366.123C103.781,-387.249 138.418,-422.945 175,-444 181.534,-447.761 188.905,-450.875 196.187,-453.417"/>
<polygon fill="midnightblue" stroke="midnightblue" points="87.6229,-363.788 78.414,-358.549 82.3458,-368.387 87.6229,-363.788"/>
</g>
<!-- Node131 -->
<g id="node15" class="node"><title>Node131</title>
<g id="a_node15"><a xlink:href="class_c_hero.html#a0232f04b4e49227ba90a8922135d4102" target="_top" xlink:title="CHero::printStats">
<polygon fill="none" stroke="black" points="480,-567.5 480,-586.5 572,-586.5 572,-567.5 480,-567.5"/>
<text text-anchor="middle" x="526" y="-574.5" font-family="Helvetica,sans-Serif" font-size="10.00">CHero::printStats</text>
</a>
</g>
</g>
<!-- Node117&#45;&gt;Node131 -->
<g id="edge21" class="edge"><title>Node117&#45;&gt;Node131</title>
<path fill="none" stroke="midnightblue" d="M74.261,-368.534C83.3369,-409.761 110.628,-505.368 175,-548 268.536,-609.947 408.424,-597.826 479.713,-586.109"/>
<polygon fill="midnightblue" stroke="midnightblue" points="77.6685,-367.728 72.2095,-358.648 70.8145,-369.151 77.6685,-367.728"/>
</g>
<!-- Node132 -->
<g id="node16" class="node"><title>Node132</title>
<g id="a_node16"><a xlink:href="class_c_inventory_browser.html#a91c51766048ba5629b125b9a444d31bb" target="_top" xlink:title="CInventoryBrowser::\loperator()">
<polygon fill="none" stroke="black" points="337,-219 337,-249 440,-249 440,-219 337,-219"/>
<text text-anchor="start" x="345" y="-237" font-family="Helvetica,sans-Serif" font-size="10.00">CInventoryBrowser::</text>
<text text-anchor="middle" x="388.5" y="-226" font-family="Helvetica,sans-Serif" font-size="10.00">operator()</text>
</a>
</g>
</g>
<!-- Node117&#45;&gt;Node132 -->
<g id="edge23" class="edge"><title>Node117&#45;&gt;Node132</title>
<path fill="none" stroke="midnightblue" d="M80.344,-330.102C96.0429,-302.285 129.664,-251.409 175,-231 226.475,-207.827 292.325,-213.425 336.981,-221.68"/>
<polygon fill="midnightblue" stroke="midnightblue" points="77.0936,-328.753 75.3825,-339.208 83.2404,-332.102 77.0936,-328.753"/>
</g>
<!-- Node133 -->
<g id="node17" class="node"><title>Node133</title>
<g id="a_node17"><a xlink:href="class_c_inventory_browser.html#ac865349ca08d9402c869d8e5450c689a" target="_top" xlink:title="CInventoryBrowser::\lequip">
<polygon fill="none" stroke="black" points="184.5,-153 184.5,-183 287.5,-183 287.5,-153 184.5,-153"/>
<text text-anchor="start" x="192.5" y="-171" font-family="Helvetica,sans-Serif" font-size="10.00">CInventoryBrowser::</text>
<text text-anchor="middle" x="236" y="-160" font-family="Helvetica,sans-Serif" font-size="10.00">equip</text>
</a>
</g>
</g>
<!-- Node117&#45;&gt;Node133 -->
<g id="edge24" class="edge"><title>Node117&#45;&gt;Node133</title>
<path fill="none" stroke="midnightblue" d="M79.6254,-330.008C95.3474,-298.946 130.212,-236.851 175,-198 181.686,-192.2 189.69,-187.2 197.641,-183.036"/>
<polygon fill="midnightblue" stroke="midnightblue" points="76.3384,-328.759 75.0408,-339.274 82.6125,-331.863 76.3384,-328.759"/>
</g>
<!-- Node134 -->
<g id="node18" class="node"><title>Node134</title>
<g id="a_node18"><a xlink:href="class_c_inventory_browser.html#a022cb6fc703bd156921816554c7a18b8" target="_top" xlink:title="CInventoryBrowser::\lprintInventory">
<polygon fill="none" stroke="black" points="184.5,-290 184.5,-320 287.5,-320 287.5,-290 184.5,-290"/>
<text text-anchor="start" x="192.5" y="-308" font-family="Helvetica,sans-Serif" font-size="10.00">CInventoryBrowser::</text>
<text text-anchor="middle" x="236" y="-297" font-family="Helvetica,sans-Serif" font-size="10.00">printInventory</text>
</a>
</g>
</g>
<!-- Node117&#45;&gt;Node134 -->
<g id="edge26" class="edge"><title>Node117&#45;&gt;Node134</title>
<path fill="none" stroke="midnightblue" d="M115.944,-336.845C137.184,-331.164 162.548,-324.379 184.397,-318.535"/>
<polygon fill="midnightblue" stroke="midnightblue" points="114.95,-333.488 106.194,-339.453 116.759,-340.25 114.95,-333.488"/>
</g>
<!-- Node135 -->
<g id="node19" class="node"><title>Node135</title>
<g id="a_node19"><a xlink:href="class_c_inventory_browser.html#a96d9a928a1931b0df289b91baa3ae071" target="_top" xlink:title="CInventoryBrowser::\lprintHelp">
<polygon fill="none" stroke="black" points="184.5,-241 184.5,-271 287.5,-271 287.5,-241 184.5,-241"/>
<text text-anchor="start" x="192.5" y="-259" font-family="Helvetica,sans-Serif" font-size="10.00">CInventoryBrowser::</text>
<text text-anchor="middle" x="236" y="-248" font-family="Helvetica,sans-Serif" font-size="10.00">printHelp</text>
</a>
</g>
</g>
<!-- Node117&#45;&gt;Node135 -->
<g id="edge28" class="edge"><title>Node117&#45;&gt;Node135</title>
<path fill="none" stroke="midnightblue" d="M91.4663,-333.313C112.029,-318.381 144.628,-295.891 175,-280 181.064,-276.827 187.645,-273.804 194.152,-271.039"/>
<polygon fill="midnightblue" stroke="midnightblue" points="89.1646,-330.661 83.1747,-339.4 93.307,-336.304 89.1646,-330.661"/>
</g>
<!-- Node136 -->
<g id="node20" class="node"><title>Node136</title>
<g id="a_node20"><a xlink:href="class_c_shopping.html#ab72dff2e94f897bd5c3f1ef660e65afb" target="_top" xlink:title="CShopping::operator()">
<polygon fill="none" stroke="black" points="333,-76.5 333,-95.5 444,-95.5 444,-76.5 333,-76.5"/>
<text text-anchor="middle" x="388.5" y="-83.5" font-family="Helvetica,sans-Serif" font-size="10.00">CShopping::operator()</text>
</a>
</g>
</g>
<!-- Node117&#45;&gt;Node136 -->
<g id="edge30" class="edge"><title>Node117&#45;&gt;Node136</title>
<path fill="none" stroke="midnightblue" d="M72.3264,-329.19C77.8877,-281.464 99.1919,-160.002 175,-105 220.569,-71.9375 286.94,-71.4385 333.345,-76.4896"/>
<polygon fill="midnightblue" stroke="midnightblue" points="68.8165,-329.102 71.2501,-339.414 75.778,-329.835 68.8165,-329.102"/>
</g>
<!-- Node137 -->
<g id="node21" class="node"><title>Node137</title>
<g id="a_node21"><a xlink:href="class_c_shopping.html#a5d075417297809f43042d74da0fdaad5" target="_top" xlink:title="CShopping::printHelp">
<polygon fill="none" stroke="black" points="182,-38.5 182,-57.5 290,-57.5 290,-38.5 182,-38.5"/>
<text text-anchor="middle" x="236" y="-45.5" font-family="Helvetica,sans-Serif" font-size="10.00">CShopping::printHelp</text>
</a>
</g>
</g>
<!-- Node117&#45;&gt;Node137 -->
<g id="edge31" class="edge"><title>Node117&#45;&gt;Node137</title>
<path fill="none" stroke="midnightblue" d="M72.5042,-329.379C78.5916,-279.642 101.223,-147.249 175,-72 181.126,-65.7514 189.09,-61.0825 197.202,-57.6107"/>
<polygon fill="midnightblue" stroke="midnightblue" points="69.0134,-329.101 71.3665,-339.431 75.969,-329.888 69.0134,-329.101"/>
</g>
<!-- Node138 -->
<g id="node22" class="node"><title>Node138</title>
<g id="a_node22"><a xlink:href="class_c_shopping.html#a0981a7916cca8a37beb35858ad2ec77e" target="_top" xlink:title="CShopping::buyItem">
<polygon fill="none" stroke="black" points="184,-114.5 184,-133.5 288,-133.5 288,-114.5 184,-114.5"/>
<text text-anchor="middle" x="236" y="-121.5" font-family="Helvetica,sans-Serif" font-size="10.00">CShopping::buyItem</text>
</a>
</g>
</g>
<!-- Node117&#45;&gt;Node138 -->
<g id="edge33" class="edge"><title>Node117&#45;&gt;Node138</title>
<path fill="none" stroke="midnightblue" d="M75.0065,-329.331C85.3769,-288.505 114.798,-194.121 175,-143 179.581,-139.11 184.963,-136.015 190.59,-133.552"/>
<polygon fill="midnightblue" stroke="midnightblue" points="71.5844,-328.592 72.6254,-339.135 78.3867,-330.244 71.5844,-328.592"/>
</g>
<!-- Node139 -->
<g id="node23" class="node"><title>Node139</title>
<g id="a_node23"><a xlink:href="class_c_trap.html#a0b0925310ffbfa28f877ac5669f8bb20" target="_top" xlink:title="CTrap::execute">
<polygon fill="none" stroke="black" points="194.5,-0.5 194.5,-19.5 277.5,-19.5 277.5,-0.5 194.5,-0.5"/>
<text text-anchor="middle" x="236" y="-7.5" font-family="Helvetica,sans-Serif" font-size="10.00">CTrap::execute</text>
</a>
</g>
</g>
<!-- Node117&#45;&gt;Node139 -->
<g id="edge35" class="edge"><title>Node117&#45;&gt;Node139</title>
<path fill="none" stroke="midnightblue" d="M71.0132,-329.024C73.5413,-273.338 88.3855,-114.841 175,-29 180.355,-23.6929 187.182,-19.8664 194.299,-17.1078"/>
<polygon fill="midnightblue" stroke="midnightblue" points="67.5059,-329.162 70.6393,-339.283 74.5013,-329.417 67.5059,-329.162"/>
</g>
<!-- Node121 -->
<g id="node5" class="node"><title>Node121</title>
<g id="a_node5"><a xlink:href="class_c_game.html#a39e1e296c6dcabbf5c824eea6424d6d9" target="_top" xlink:title="CGame::mainMenu">
<polygon fill="none" stroke="black" points="338,-453.5 338,-472.5 439,-472.5 439,-453.5 338,-453.5"/>
<text text-anchor="middle" x="388.5" y="-460.5" font-family="Helvetica,sans-Serif" font-size="10.00">CGame::mainMenu</text>
</a>
</g>
</g>
<!-- Node120&#45;&gt;Node121 -->
<g id="edge4" class="edge"><title>Node120&#45;&gt;Node121</title>
<path fill="none" stroke="midnightblue" d="M284.685,-488.96C305.71,-483.651 330.067,-477.501 349.796,-472.52"/>
<polygon fill="midnightblue" stroke="midnightblue" points="283.816,-485.569 274.978,-491.411 285.53,-492.356 283.816,-485.569"/>
</g>
<!-- Node120&#45;&gt;Node126 -->
<g id="edge11" class="edge"><title>Node120&#45;&gt;Node126</title>
<path fill="none" stroke="midnightblue" d="M284.685,-513.04C305.71,-518.349 330.067,-524.499 349.796,-529.48"/>
<polygon fill="midnightblue" stroke="midnightblue" points="285.53,-509.644 274.978,-510.589 283.816,-516.431 285.53,-509.644"/>
</g>
<!-- Node127 -->
<g id="node11" class="node"><title>Node127</title>
<g id="a_node11"><a xlink:href="class_c_game.html#af5435e79a93dd92991ae24b499976470" target="_top" xlink:title="CGame::CGame">
<polygon fill="none" stroke="black" points="344,-491.5 344,-510.5 433,-510.5 433,-491.5 344,-491.5"/>
<text text-anchor="middle" x="388.5" y="-498.5" font-family="Helvetica,sans-Serif" font-size="10.00">CGame::CGame</text>
</a>
</g>
</g>
<!-- Node120&#45;&gt;Node127 -->
<g id="edge13" class="edge"><title>Node120&#45;&gt;Node127</title>
<path fill="none" stroke="midnightblue" d="M296.862,-501C312.582,-501 329.238,-501 343.925,-501"/>
<polygon fill="midnightblue" stroke="midnightblue" points="296.696,-497.5 286.696,-501 296.696,-504.5 296.696,-497.5"/>
</g>
<!-- Node121&#45;&gt;Node122 -->
<g id="edge5" class="edge"><title>Node121&#45;&gt;Node122</title>
<path fill="none" stroke="midnightblue" d="M433.425,-450.682C452.041,-445.461 473.409,-439.468 490.819,-434.586"/>
<polygon fill="midnightblue" stroke="midnightblue" points="432.376,-447.341 423.692,-453.411 434.266,-454.081 432.376,-447.341"/>
</g>
<!-- Node124 -->
<g id="node8" class="node"><title>Node124</title>
<g id="a_node8"><a xlink:href="class_c_game.html#a714b291af5e20aae8be14a905fd0522d" target="_top" xlink:title="CGame::tickComponent">
<polygon fill="none" stroke="black" points="775,-491.5 775,-510.5 896,-510.5 896,-491.5 775,-491.5"/>
<text text-anchor="middle" x="835.5" y="-498.5" font-family="Helvetica,sans-Serif" font-size="10.00">CGame::tickComponent</text>
</a>
</g>
</g>
<!-- Node121&#45;&gt;Node124 -->
<g id="edge10" class="edge"><title>Node121&#45;&gt;Node124</title>
<path fill="none" stroke="midnightblue" d="M449.609,-468.277C493.498,-472.117 554.437,-477.425 608,-482 664.618,-486.836 729.206,-492.243 774.885,-496.049"/>
<polygon fill="midnightblue" stroke="midnightblue" points="449.662,-464.768 439.395,-467.382 449.052,-471.741 449.662,-464.768"/>
</g>
<!-- Node123 -->
<g id="node7" class="node"><title>Node123</title>
<g id="a_node7"><a xlink:href="class_c_game.html#ac0a8028013ca5a7c135c29fa582df4a0" target="_top" xlink:title="CGame::checkHeroStatus">
<polygon fill="none" stroke="black" points="608,-415.5 608,-434.5 739,-434.5 739,-415.5 608,-415.5"/>
<text text-anchor="middle" x="673.5" y="-422.5" font-family="Helvetica,sans-Serif" font-size="10.00">CGame::checkHeroStatus</text>
</a>
</g>
</g>
<!-- Node122&#45;&gt;Node123 -->
<g id="edge6" class="edge"><title>Node122&#45;&gt;Node123</title>
<path fill="none" stroke="midnightblue" d="M573.482,-425C584.39,-425 596.208,-425 607.755,-425"/>
<polygon fill="midnightblue" stroke="midnightblue" points="573.341,-421.5 563.34,-425 573.34,-428.5 573.341,-421.5"/>
</g>
<!-- Node125 -->
<g id="node9" class="node"><title>Node125</title>
<g id="a_node9"><a xlink:href="main_8cpp.html#ae66f6b31b5ad750f1fe042a706a4e3d4" target="_top" xlink:title="main">
<polygon fill="none" stroke="black" points="654.5,-453.5 654.5,-472.5 692.5,-472.5 692.5,-453.5 654.5,-453.5"/>
<text text-anchor="middle" x="673.5" y="-460.5" font-family="Helvetica,sans-Serif" font-size="10.00">main</text>
</a>
</g>
</g>
<!-- Node122&#45;&gt;Node125 -->
<g id="edge9" class="edge"><title>Node122&#45;&gt;Node125</title>
<path fill="none" stroke="midnightblue" d="M573.178,-437.06C600.699,-444.248 634.1,-452.971 654.307,-458.249"/>
<polygon fill="midnightblue" stroke="midnightblue" points="573.9,-433.632 563.34,-434.491 572.131,-440.404 573.9,-433.632"/>
</g>
<!-- Node123&#45;&gt;Node124 -->
<g id="edge7" class="edge"><title>Node123&#45;&gt;Node124</title>
<path fill="none" stroke="midnightblue" d="M722.837,-437.785C728.361,-439.673 733.853,-441.749 739,-444 769.782,-457.463 802.838,-478.957 820.857,-491.346"/>
<polygon fill="midnightblue" stroke="midnightblue" points="723.517,-434.327 712.925,-434.594 721.372,-440.99 723.517,-434.327"/>
</g>
<!-- Node124&#45;&gt;Node122 -->
<g id="edge8" class="edge"><title>Node124&#45;&gt;Node122</title>
<path fill="none" stroke="midnightblue" d="M822.966,-482.79C807.224,-459.842 776.62,-421.525 739,-406 675.806,-379.921 593.234,-401.457 552.293,-415.408"/>
<polygon fill="midnightblue" stroke="midnightblue" points="820.165,-484.898 828.606,-491.3 825.999,-481.031 820.165,-484.898"/>
</g>
<!-- Node126&#45;&gt;Node124 -->
<g id="edge12" class="edge"><title>Node126&#45;&gt;Node124</title>
<path fill="none" stroke="midnightblue" d="M449.28,-533.895C534.437,-526.623 689.756,-513.36 774.845,-506.094"/>
<polygon fill="midnightblue" stroke="midnightblue" points="448.918,-530.413 439.252,-534.752 449.513,-537.388 448.918,-530.413"/>
</g>
<!-- Node129&#45;&gt;Node121 -->
<g id="edge17" class="edge"><title>Node129&#45;&gt;Node121</title>
<path fill="none" stroke="midnightblue" d="M284.685,-437.04C305.71,-442.349 330.067,-448.499 349.796,-453.48"/>
<polygon fill="midnightblue" stroke="midnightblue" points="285.53,-433.644 274.978,-434.589 283.816,-440.431 285.53,-433.644"/>
</g>
<!-- Node130&#45;&gt;Node121 -->
<g id="edge19" class="edge"><title>Node130&#45;&gt;Node121</title>
<path fill="none" stroke="midnightblue" d="M296.566,-463C310.244,-463 324.646,-463 337.852,-463"/>
<polygon fill="midnightblue" stroke="midnightblue" points="296.279,-459.5 286.279,-463 296.279,-466.5 296.279,-459.5"/>
</g>
<!-- Node131&#45;&gt;Node124 -->
<g id="edge22" class="edge"><title>Node131&#45;&gt;Node124</title>
<path fill="none" stroke="midnightblue" d="M582.392,-576.522C625.886,-574.777 687.494,-569.253 739,-553 770.326,-543.115 803.187,-522.645 821.024,-510.545"/>
<polygon fill="midnightblue" stroke="midnightblue" points="582.168,-573.028 572.295,-576.872 582.41,-580.023 582.168,-573.028"/>
</g>
<!-- Node133&#45;&gt;Node132 -->
<g id="edge25" class="edge"><title>Node133&#45;&gt;Node132</title>
<path fill="none" stroke="midnightblue" d="M280.751,-187.186C303.798,-197.293 331.655,-209.51 353.133,-218.929"/>
<polygon fill="midnightblue" stroke="midnightblue" points="282.092,-183.953 271.528,-183.142 279.28,-190.363 282.092,-183.953"/>
</g>
<!-- Node134&#45;&gt;Node132 -->
<g id="edge27" class="edge"><title>Node134&#45;&gt;Node132</title>
<path fill="none" stroke="midnightblue" d="M283.613,-285.985C288.157,-284.009 292.681,-281.994 297,-280 318.122,-270.248 341.524,-258.323 359.238,-249.058"/>
<polygon fill="midnightblue" stroke="midnightblue" points="282.134,-282.811 274.318,-289.964 284.888,-289.246 282.134,-282.811"/>
</g>
<!-- Node135&#45;&gt;Node132 -->
<g id="edge29" class="edge"><title>Node135&#45;&gt;Node132</title>
<path fill="none" stroke="midnightblue" d="M297.774,-247.116C310.741,-245.221 324.305,-243.238 336.844,-241.405"/>
<polygon fill="midnightblue" stroke="midnightblue" points="296.922,-243.703 287.533,-248.613 297.934,-250.63 296.922,-243.703"/>
</g>
<!-- Node137&#45;&gt;Node136 -->
<g id="edge32" class="edge"><title>Node137&#45;&gt;Node136</title>
<path fill="none" stroke="midnightblue" d="M284.685,-60.04C305.71,-65.3488 330.067,-71.4988 349.796,-76.4799"/>
<polygon fill="midnightblue" stroke="midnightblue" points="285.53,-56.6437 274.978,-57.589 283.816,-63.4307 285.53,-56.6437"/>
</g>
<!-- Node138&#45;&gt;Node136 -->
<g id="edge34" class="edge"><title>Node138&#45;&gt;Node136</title>
<path fill="none" stroke="midnightblue" d="M284.685,-111.96C305.71,-106.651 330.067,-100.501 349.796,-95.5201"/>
<polygon fill="midnightblue" stroke="midnightblue" points="283.816,-108.569 274.978,-114.411 285.53,-115.356 283.816,-108.569"/>
</g>
</g>
</svg>
