<?xml version="1.0" encoding="UTF-8" standalone="no"?>
<!DOCTYPE svg PUBLIC "-//W3C//DTD SVG 1.1//EN"
 "http://www.w3.org/Graphics/SVG/1.1/DTD/svg11.dtd">
<!-- Generated by graphviz version 2.38.0 (20140413.2041)
 -->
<!-- Title: CEquipment::setArmour Pages: 1 -->
<svg width="1134pt" height="114pt"
 viewBox="0.00 0.00 1134.00 114.00" xmlns="http://www.w3.org/2000/svg" xmlns:xlink="http://www.w3.org/1999/xlink">
<g id="graph0" class="graph" transform="scale(1 1) rotate(0) translate(4 110)">
<title>CEquipment::setArmour</title>
<!-- Node29 -->
<g id="node1" class="node"><title>Node29</title>
<polygon fill="#bfbfbf" stroke="black" points="0,-19.5 0,-38.5 121,-38.5 121,-19.5 0,-19.5"/>
<text text-anchor="middle" x="60.5" y="-26.5" font-family="Helvetica,sans-Serif" font-size="10.00">CEquipment::setArmour</text>
</g>
<!-- Node30 -->
<g id="node2" class="node"><title>Node30</title>
<g id="a_node2"><a xlink:href="class_c_armour.html#ab1000a6cfe419ca94b1254217fb707cd" target="_top" xlink:title="CArmour::useItem">
<polygon fill="none" stroke="black" points="157,-38.5 157,-57.5 252,-57.5 252,-38.5 157,-38.5"/>
<text text-anchor="middle" x="204.5" y="-45.5" font-family="Helvetica,sans-Serif" font-size="10.00">CArmour::useItem</text>
</a>
</g>
</g>
<!-- Node29&#45;&gt;Node30 -->
<g id="edge1" class="edge"><title>Node29&#45;&gt;Node30</title>
<path fill="none" stroke="midnightblue" d="M131.357,-38.347C139.95,-39.4968 148.565,-40.6496 156.7,-41.738"/>
<polygon fill="midnightblue" stroke="midnightblue" points="131.685,-34.8599 121.309,-37.0026 130.757,-41.798 131.685,-34.8599"/>
</g>
<!-- Node31 -->
<g id="node3" class="node"><title>Node31</title>
<g id="a_node3"><a xlink:href="class_c_hero.html#a7b1a1b3c196bbe5b8da97c56f520c1f3" target="_top" xlink:title="CHero::update">
<polygon fill="none" stroke="black" points="165,-0.5 165,-19.5 244,-19.5 244,-0.5 165,-0.5"/>
<text text-anchor="middle" x="204.5" y="-7.5" font-family="Helvetica,sans-Serif" font-size="10.00">CHero::update</text>
</a>
</g>
</g>
<!-- Node29&#45;&gt;Node31 -->
<g id="edge2" class="edge"><title>Node29&#45;&gt;Node31</title>
<path fill="none" stroke="midnightblue" d="M131.374,-19.6506C142.874,-18.1119 154.413,-16.568 164.784,-15.1803"/>
<polygon fill="midnightblue" stroke="midnightblue" points="130.757,-16.202 121.309,-20.9974 131.685,-23.1401 130.757,-16.202"/>
</g>
<!-- Node32 -->
<g id="node4" class="node"><title>Node32</title>
<g id="a_node4"><a xlink:href="class_c_game.html#a507b71eeebc2a6aaa08d9e0dcb61c7ac" target="_top" xlink:title="CGame::importPlayerData">
<polygon fill="none" stroke="black" points="288,-0.5 288,-19.5 419,-19.5 419,-0.5 288,-0.5"/>
<text text-anchor="middle" x="353.5" y="-7.5" font-family="Helvetica,sans-Serif" font-size="10.00">CGame::importPlayerData</text>
</a>
</g>
</g>
<!-- Node31&#45;&gt;Node32 -->
<g id="edge3" class="edge"><title>Node31&#45;&gt;Node32</title>
<path fill="none" stroke="midnightblue" d="M254.208,-10C265.025,-10 276.652,-10 287.99,-10"/>
<polygon fill="midnightblue" stroke="midnightblue" points="254.123,-6.5001 244.123,-10 254.122,-13.5001 254.123,-6.5001"/>
</g>
<!-- Node33 -->
<g id="node5" class="node"><title>Node33</title>
<g id="a_node5"><a xlink:href="class_c_game.html#accda079824fc813cbd64b4743846ae24" target="_top" xlink:title="CGame::loadGame">
<polygon fill="none" stroke="black" points="455,-0.5 455,-19.5 555,-19.5 555,-0.5 455,-0.5"/>
<text text-anchor="middle" x="505" y="-7.5" font-family="Helvetica,sans-Serif" font-size="10.00">CGame::loadGame</text>
</a>
</g>
</g>
<!-- Node32&#45;&gt;Node33 -->
<g id="edge4" class="edge"><title>Node32&#45;&gt;Node33</title>
<path fill="none" stroke="midnightblue" d="M429.379,-10C438.071,-10 446.76,-10 454.977,-10"/>
<polygon fill="midnightblue" stroke="midnightblue" points="429.203,-6.5001 419.203,-10 429.203,-13.5001 429.203,-6.5001"/>
</g>
<!-- Node34 -->
<g id="node6" class="node"><title>Node34</title>
<g id="a_node6"><a xlink:href="class_c_game.html#a39e1e296c6dcabbf5c824eea6424d6d9" target="_top" xlink:title="CGame::mainMenu">
<polygon fill="none" stroke="black" points="591,-0.5 591,-19.5 692,-19.5 692,-0.5 591,-0.5"/>
<text text-anchor="middle" x="641.5" y="-7.5" font-family="Helvetica,sans-Serif" font-size="10.00">CGame::mainMenu</text>
</a>
</g>
</g>
<!-- Node33&#45;&gt;Node34 -->
<g id="edge5" class="edge"><title>Node33&#45;&gt;Node34</title>
<path fill="none" stroke="midnightblue" d="M565.486,-10C573.918,-10 582.515,-10 590.737,-10"/>
<polygon fill="midnightblue" stroke="midnightblue" points="565.319,-6.5001 555.319,-10 565.319,-13.5001 565.319,-6.5001"/>
</g>
<!-- Node35 -->
<g id="node7" class="node"><title>Node35</title>
<g id="a_node7"><a xlink:href="class_c_game.html#aa9d3da2fefa1c04faefc6586dbd37971" target="_top" xlink:title="CGame::play">
<polygon fill="none" stroke="black" points="728,-29.5 728,-48.5 802,-48.5 802,-29.5 728,-29.5"/>
<text text-anchor="middle" x="765" y="-36.5" font-family="Helvetica,sans-Serif" font-size="10.00">CGame::play</text>
</a>
</g>
</g>
<!-- Node34&#45;&gt;Node35 -->
<g id="edge6" class="edge"><title>Node34&#45;&gt;Node35</title>
<path fill="none" stroke="midnightblue" d="M692.361,-21.901C704.165,-24.7184 716.536,-27.6711 727.612,-30.3147"/>
<polygon fill="midnightblue" stroke="midnightblue" points="693.16,-18.4934 682.62,-19.5761 691.535,-25.3021 693.16,-18.4934"/>
</g>
<!-- Node37 -->
<g id="node9" class="node"><title>Node37</title>
<g id="a_node9"><a xlink:href="class_c_game.html#a714b291af5e20aae8be14a905fd0522d" target="_top" xlink:title="CGame::tickComponent">
<polygon fill="none" stroke="black" points="1005,-10.5 1005,-29.5 1126,-29.5 1126,-10.5 1005,-10.5"/>
<text text-anchor="middle" x="1065.5" y="-17.5" font-family="Helvetica,sans-Serif" font-size="10.00">CGame::tickComponent</text>
</a>
</g>
</g>
<!-- Node34&#45;&gt;Node37 -->
<g id="edge11" class="edge"><title>Node34&#45;&gt;Node37</title>
<path fill="none" stroke="midnightblue" d="M702.597,-11.4241C782.999,-13.3294 924.715,-16.6876 1004.88,-18.5871"/>
<polygon fill="midnightblue" stroke="midnightblue" points="702.23,-7.91451 692.15,-11.1765 702.064,-14.9125 702.23,-7.91451"/>
</g>
<!-- Node36 -->
<g id="node8" class="node"><title>Node36</title>
<g id="a_node8"><a xlink:href="class_c_game.html#ac0a8028013ca5a7c135c29fa582df4a0" target="_top" xlink:title="CGame::checkHeroStatus">
<polygon fill="none" stroke="black" points="838,-86.5 838,-105.5 969,-105.5 969,-86.5 838,-86.5"/>
<text text-anchor="middle" x="903.5" y="-93.5" font-family="Helvetica,sans-Serif" font-size="10.00">CGame::checkHeroStatus</text>
</a>
</g>
</g>
<!-- Node35&#45;&gt;Node36 -->
<g id="edge7" class="edge"><title>Node35&#45;&gt;Node36</title>
<path fill="none" stroke="midnightblue" d="M790.634,-53.569C804.276,-61.2331 821.723,-70.3842 838,-77 846.76,-80.5603 856.434,-83.7698 865.566,-86.494"/>
<polygon fill="midnightblue" stroke="midnightblue" points="792.276,-50.4765 781.858,-48.55 788.801,-56.5529 792.276,-50.4765"/>
</g>
<!-- Node38 -->
<g id="node10" class="node"><title>Node38</title>
<g id="a_node10"><a xlink:href="main_8cpp.html#ae66f6b31b5ad750f1fe042a706a4e3d4" target="_top" xlink:title="main">
<polygon fill="none" stroke="black" points="884.5,-48.5 884.5,-67.5 922.5,-67.5 922.5,-48.5 884.5,-48.5"/>
<text text-anchor="middle" x="903.5" y="-55.5" font-family="Helvetica,sans-Serif" font-size="10.00">main</text>
</a>
</g>
</g>
<!-- Node35&#45;&gt;Node38 -->
<g id="edge10" class="edge"><title>Node35&#45;&gt;Node38</title>
<path fill="none" stroke="midnightblue" d="M812.129,-45.4208C836.788,-48.8533 865.768,-52.8871 884.132,-55.4433"/>
<polygon fill="midnightblue" stroke="midnightblue" points="812.608,-41.9539 802.221,-44.0418 811.643,-48.8871 812.608,-41.9539"/>
</g>
<!-- Node36&#45;&gt;Node37 -->
<g id="edge8" class="edge"><title>Node36&#45;&gt;Node37</title>
<path fill="none" stroke="midnightblue" d="M952.837,-83.2149C958.361,-81.3274 963.853,-79.2512 969,-77 999.782,-63.5375 1032.84,-42.043 1050.86,-29.6543"/>
<polygon fill="midnightblue" stroke="midnightblue" points="951.372,-80.0097 942.925,-86.4056 953.517,-86.673 951.372,-80.0097"/>
</g>
<!-- Node37&#45;&gt;Node35 -->
<g id="edge9" class="edge"><title>Node37&#45;&gt;Node35</title>
<path fill="none" stroke="midnightblue" d="M994.704,-24.4426C934.365,-28.2833 849.572,-33.6805 802.006,-36.7082"/>
<polygon fill="midnightblue" stroke="midnightblue" points="995.161,-27.9207 1004.92,-23.7925 994.716,-20.9349 995.161,-27.9207"/>
</g>
</g>
</svg>
