<?xml version="1.0" encoding="UTF-8" standalone="no"?>
<!DOCTYPE svg PUBLIC "-//W3C//DTD SVG 1.1//EN"
 "http://www.w3.org/Graphics/SVG/1.1/DTD/svg11.dtd">
<!-- Generated by graphviz version 2.38.0 (20140413.2041)
 -->
<!-- Title: CWorld::loadItems Pages: 1 -->
<svg width="364pt" height="28pt"
 viewBox="0.00 0.00 364.00 28.00" xmlns="http://www.w3.org/2000/svg" xmlns:xlink="http://www.w3.org/1999/xlink">
<g id="graph0" class="graph" transform="scale(1 1) rotate(0) translate(4 24)">
<title>CWorld::loadItems</title>
<!-- Node59 -->
<g id="node1" class="node"><title>Node59</title>
<polygon fill="#bfbfbf" stroke="black" points="0,-0.5 0,-19.5 97,-19.5 97,-0.5 0,-0.5"/>
<text text-anchor="middle" x="48.5" y="-7.5" font-family="Helvetica,sans-Serif" font-size="10.00">CWorld::loadItems</text>
</g>
<!-- Node60 -->
<g id="node2" class="node"><title>Node60</title>
<g id="a_node2"><a xlink:href="class_c_world.html#a944f12acb1ff76beed2648647ff19d0f" target="_top" xlink:title="CWorld::loadWorld">
<polygon fill="none" stroke="black" points="133,-0.5 133,-19.5 231,-19.5 231,-0.5 133,-0.5"/>
<text text-anchor="middle" x="182" y="-7.5" font-family="Helvetica,sans-Serif" font-size="10.00">CWorld::loadWorld</text>
</a>
</g>
</g>
<!-- Node59&#45;&gt;Node60 -->
<g id="edge1" class="edge"><title>Node59&#45;&gt;Node60</title>
<path fill="none" stroke="midnightblue" d="M107.572,-10C116.056,-10 124.714,-10 132.969,-10"/>
<polygon fill="midnightblue" stroke="midnightblue" points="107.347,-6.5001 97.3465,-10 107.346,-13.5001 107.347,-6.5001"/>
</g>
<!-- Node61 -->
<g id="node3" class="node"><title>Node61</title>
<g id="a_node3"><a xlink:href="class_c_game.html#af5435e79a93dd92991ae24b499976470" target="_top" xlink:title="CGame::CGame">
<polygon fill="none" stroke="black" points="267,-0.5 267,-19.5 356,-19.5 356,-0.5 267,-0.5"/>
<text text-anchor="middle" x="311.5" y="-7.5" font-family="Helvetica,sans-Serif" font-size="10.00">CGame::CGame</text>
</a>
</g>
</g>
<!-- Node60&#45;&gt;Node61 -->
<g id="edge2" class="edge"><title>Node60&#45;&gt;Node61</title>
<path fill="none" stroke="midnightblue" d="M241.218,-10C249.836,-10 258.589,-10 266.842,-10"/>
<polygon fill="midnightblue" stroke="midnightblue" points="241.202,-6.5001 231.202,-10 241.202,-13.5001 241.202,-6.5001"/>
</g>
</g>
</svg>
