<?xml version="1.0" encoding="UTF-8" standalone="no"?>
<!DOCTYPE svg PUBLIC "-//W3C//DTD SVG 1.1//EN"
 "http://www.w3.org/Graphics/SVG/1.1/DTD/svg11.dtd">
<!-- Generated by graphviz version 2.38.0 (20140413.2041)
 -->
<!-- Title: CInventoryBrowser::operator() Pages: 1 -->
<svg width="586pt" height="417pt"
 viewBox="0.00 0.00 586.00 416.50" xmlns="http://www.w3.org/2000/svg" xmlns:xlink="http://www.w3.org/1999/xlink">
<g id="graph0" class="graph" transform="scale(1 1) rotate(0) translate(4 412.5)">
<title>CInventoryBrowser::operator()</title>
<!-- Node11 -->
<g id="node1" class="node"><title>Node11</title>
<polygon fill="#bfbfbf" stroke="black" points="0,-153 0,-183 103,-183 103,-153 0,-153"/>
<text text-anchor="start" x="8" y="-171" font-family="Helvetica,sans-Serif" font-size="10.00">CInventoryBrowser::</text>
<text text-anchor="middle" x="51.5" y="-160" font-family="Helvetica,sans-Serif" font-size="10.00">operator()</text>
</g>
<!-- Node12 -->
<g id="node2" class="node"><title>Node12</title>
<g id="a_node2"><a xlink:href="class_c_display.html#a53b65673a9b0bfc807a3a1e448962928" target="_top" xlink:title="CDisplay::printWithDelimiter">
<polygon fill="none" stroke="black" points="284,-383.5 284,-402.5 423,-402.5 423,-383.5 284,-383.5"/>
<text text-anchor="middle" x="353.5" y="-390.5" font-family="Helvetica,sans-Serif" font-size="10.00">CDisplay::printWithDelimiter</text>
</a>
</g>
</g>
<!-- Node11&#45;&gt;Node12 -->
<g id="edge1" class="edge"><title>Node11&#45;&gt;Node12</title>
<path fill="none" stroke="midnightblue" d="M56.8172,-183.381C66.3638,-214.626 92.2129,-285.867 139,-325 163.579,-345.558 244.943,-367.818 299.825,-381.076"/>
<polygon fill="midnightblue" stroke="midnightblue" points="299.206,-384.526 309.745,-383.444 300.831,-377.717 299.206,-384.526"/>
</g>
<!-- Node14 -->
<g id="node4" class="node"><title>Node14</title>
<g id="a_node4"><a xlink:href="class_c_display.html#a54c5d36f4bc11d4a935ff5c86ea4e653" target="_top" xlink:title="CDisplay::print">
<polygon fill="none" stroke="black" points="313.5,-345.5 313.5,-364.5 393.5,-364.5 393.5,-345.5 313.5,-345.5"/>
<text text-anchor="middle" x="353.5" y="-352.5" font-family="Helvetica,sans-Serif" font-size="10.00">CDisplay::print</text>
</a>
</g>
</g>
<!-- Node11&#45;&gt;Node14 -->
<g id="edge3" class="edge"><title>Node11&#45;&gt;Node14</title>
<path fill="none" stroke="midnightblue" d="M59.1692,-183.31C71.2729,-209.317 99.3255,-262.109 139,-291 165.282,-310.139 249.052,-331.728 303.515,-344.304"/>
<polygon fill="midnightblue" stroke="midnightblue" points="302.794,-347.729 313.322,-346.545 304.353,-340.905 302.794,-347.729"/>
</g>
<!-- Node15 -->
<g id="node5" class="node"><title>Node15</title>
<g id="a_node5"><a xlink:href="class_c_display.html#a1bd3e25973ed15055a68d4db6abfa765" target="_top" xlink:title="CDisplay::getString">
<polygon fill="none" stroke="black" points="143,-38.5 143,-57.5 244,-57.5 244,-38.5 143,-38.5"/>
<text text-anchor="middle" x="193.5" y="-45.5" font-family="Helvetica,sans-Serif" font-size="10.00">CDisplay::getString</text>
</a>
</g>
</g>
<!-- Node11&#45;&gt;Node15 -->
<g id="edge4" class="edge"><title>Node11&#45;&gt;Node15</title>
<path fill="none" stroke="midnightblue" d="M62.9586,-152.895C77.8398,-132.322 106.904,-95.3797 139,-72 144.238,-68.1846 150.179,-64.7827 156.149,-61.8246"/>
<polygon fill="midnightblue" stroke="midnightblue" points="157.834,-64.9022 165.459,-57.5458 154.911,-58.5418 157.834,-64.9022"/>
</g>
<!-- Node16 -->
<g id="node6" class="node"><title>Node16</title>
<g id="a_node6"><a xlink:href="class_c_display.html#aba2a285f19e987f9ba82447f43be2b10" target="_top" xlink:title="CDisplay::dumpToNewLine">
<polygon fill="none" stroke="black" points="287,-3.5 287,-22.5 420,-22.5 420,-3.5 287,-3.5"/>
<text text-anchor="middle" x="353.5" y="-10.5" font-family="Helvetica,sans-Serif" font-size="10.00">CDisplay::dumpToNewLine</text>
</a>
</g>
</g>
<!-- Node11&#45;&gt;Node16 -->
<g id="edge26" class="edge"><title>Node11&#45;&gt;Node16</title>
<path fill="none" stroke="midnightblue" d="M68.1257,-152.725C84.5422,-137.438 111.722,-114.205 139,-100 183.894,-76.622 204.396,-92.7036 248,-67 267.224,-55.6679 264.645,-43.1063 284,-32 287.899,-29.7629 292.075,-27.7777 296.37,-26.0181"/>
<polygon fill="midnightblue" stroke="midnightblue" points="297.723,-29.2499 305.903,-22.5161 295.309,-22.6792 297.723,-29.2499"/>
</g>
<!-- Node17 -->
<g id="node7" class="node"><title>Node17</title>
<g id="a_node7"><a xlink:href="class_c_inventory_browser.html#a022cb6fc703bd156921816554c7a18b8" target="_top" xlink:title="CInventoryBrowser::\lprintInventory">
<polygon fill="none" stroke="black" points="142,-252 142,-282 245,-282 245,-252 142,-252"/>
<text text-anchor="start" x="150" y="-270" font-family="Helvetica,sans-Serif" font-size="10.00">CInventoryBrowser::</text>
<text text-anchor="middle" x="193.5" y="-259" font-family="Helvetica,sans-Serif" font-size="10.00">printInventory</text>
</a>
</g>
</g>
<!-- Node11&#45;&gt;Node17 -->
<g id="edge6" class="edge"><title>Node11&#45;&gt;Node17</title>
<path fill="none" stroke="midnightblue" d="M73.763,-183.036C97.507,-199.826 136.103,-227.119 162.815,-246.009"/>
<polygon fill="midnightblue" stroke="midnightblue" points="160.851,-248.906 171.037,-251.823 164.893,-243.191 160.851,-248.906"/>
</g>
<!-- Node22 -->
<g id="node12" class="node"><title>Node22</title>
<g id="a_node12"><a xlink:href="class_c_hero.html#a2968af0dfd838d16690dc67e652b6f89" target="_top" xlink:title="CHero::getInventory">
<polygon fill="none" stroke="black" points="303,-41.5 303,-60.5 404,-60.5 404,-41.5 303,-41.5"/>
<text text-anchor="middle" x="353.5" y="-48.5" font-family="Helvetica,sans-Serif" font-size="10.00">CHero::getInventory</text>
</a>
</g>
</g>
<!-- Node11&#45;&gt;Node22 -->
<g id="edge13" class="edge"><title>Node11&#45;&gt;Node22</title>
<path fill="none" stroke="midnightblue" d="M102.426,-152.883C151.547,-137.61 222.742,-114.286 248,-100 266.129,-89.7466 265.552,-79.6666 284,-70 288.463,-67.6614 293.245,-65.5854 298.13,-63.7478"/>
<polygon fill="midnightblue" stroke="midnightblue" points="299.273,-67.0563 307.596,-60.5015 297.002,-60.4349 299.273,-67.0563"/>
</g>
<!-- Node23 -->
<g id="node13" class="node"><title>Node23</title>
<g id="a_node13"><a xlink:href="class_c_display.html#af552459e3405bb18e1dd879f7fdc9606" target="_top" xlink:title="CDisplay::getNumber">
<polygon fill="none" stroke="black" points="139,-0.5 139,-19.5 248,-19.5 248,-0.5 139,-0.5"/>
<text text-anchor="middle" x="193.5" y="-7.5" font-family="Helvetica,sans-Serif" font-size="10.00">CDisplay::getNumber</text>
</a>
</g>
</g>
<!-- Node11&#45;&gt;Node23 -->
<g id="edge14" class="edge"><title>Node11&#45;&gt;Node23</title>
<path fill="none" stroke="midnightblue" d="M58.0444,-152.697C69.0872,-124.296 96.487,-63.2167 139,-29 141.157,-27.2638 143.485,-25.6798 145.921,-24.2356"/>
<polygon fill="midnightblue" stroke="midnightblue" points="147.752,-27.2317 155.096,-19.5952 144.593,-20.9851 147.752,-27.2317"/>
</g>
<!-- Node24 -->
<g id="node14" class="node"><title>Node24</title>
<g id="a_node14"><a xlink:href="class_c_inventory_browser.html#ac865349ca08d9402c869d8e5450c689a" target="_top" xlink:title="CInventoryBrowser::\lequip">
<polygon fill="none" stroke="black" points="142,-153 142,-183 245,-183 245,-153 142,-153"/>
<text text-anchor="start" x="150" y="-171" font-family="Helvetica,sans-Serif" font-size="10.00">CInventoryBrowser::</text>
<text text-anchor="middle" x="193.5" y="-160" font-family="Helvetica,sans-Serif" font-size="10.00">equip</text>
</a>
</g>
</g>
<!-- Node11&#45;&gt;Node24 -->
<g id="edge16" class="edge"><title>Node11&#45;&gt;Node24</title>
<path fill="none" stroke="midnightblue" d="M103.043,-168C112.246,-168 121.936,-168 131.406,-168"/>
<polygon fill="midnightblue" stroke="midnightblue" points="131.561,-171.5 141.561,-168 131.561,-164.5 131.561,-171.5"/>
</g>
<!-- Node29 -->
<g id="node19" class="node"><title>Node29</title>
<g id="a_node19"><a xlink:href="class_c_inventory_browser.html#a96d9a928a1931b0df289b91baa3ae071" target="_top" xlink:title="CInventoryBrowser::\lprintHelp">
<polygon fill="none" stroke="black" points="142,-378 142,-408 245,-408 245,-378 142,-378"/>
<text text-anchor="start" x="150" y="-396" font-family="Helvetica,sans-Serif" font-size="10.00">CInventoryBrowser::</text>
<text text-anchor="middle" x="193.5" y="-385" font-family="Helvetica,sans-Serif" font-size="10.00">printHelp</text>
</a>
</g>
</g>
<!-- Node11&#45;&gt;Node29 -->
<g id="edge24" class="edge"><title>Node11&#45;&gt;Node29</title>
<path fill="none" stroke="midnightblue" d="M55.7604,-183.248C64.0168,-218.696 88.7561,-307.822 139,-363 142.067,-366.368 145.603,-369.449 149.366,-372.244"/>
<polygon fill="midnightblue" stroke="midnightblue" points="147.608,-375.277 157.871,-377.906 151.487,-369.451 147.608,-375.277"/>
</g>
<!-- Node13 -->
<g id="node3" class="node"><title>Node13</title>
<g id="a_node3"><a xlink:href="class_c_display.html#af350b35b44fc756e0c721ec4ee56c67a" target="_top" xlink:title="CDisplay::printDelimiter">
<polygon fill="none" stroke="black" points="459,-383.5 459,-402.5 578,-402.5 578,-383.5 459,-383.5"/>
<text text-anchor="middle" x="518.5" y="-390.5" font-family="Helvetica,sans-Serif" font-size="10.00">CDisplay::printDelimiter</text>
</a>
</g>
</g>
<!-- Node12&#45;&gt;Node13 -->
<g id="edge2" class="edge"><title>Node12&#45;&gt;Node13</title>
<path fill="none" stroke="midnightblue" d="M423.154,-393C431.628,-393 440.293,-393 448.768,-393"/>
<polygon fill="midnightblue" stroke="midnightblue" points="448.987,-396.5 458.987,-393 448.987,-389.5 448.987,-396.5"/>
</g>
<!-- Node15&#45;&gt;Node16 -->
<g id="edge5" class="edge"><title>Node15&#45;&gt;Node16</title>
<path fill="none" stroke="midnightblue" d="M237.674,-38.4361C256.746,-34.2113 279.352,-29.2037 299.441,-24.7536"/>
<polygon fill="midnightblue" stroke="midnightblue" points="300.372,-28.1323 309.378,-22.5523 298.858,-21.298 300.372,-28.1323"/>
</g>
<!-- Node17&#45;&gt;Node12 -->
<g id="edge8" class="edge"><title>Node17&#45;&gt;Node12</title>
<path fill="none" stroke="midnightblue" d="M206.308,-282.101C228.296,-310.069 274.177,-367.671 284,-374 287.291,-376.12 290.817,-378.007 294.471,-379.685"/>
<polygon fill="midnightblue" stroke="midnightblue" points="293.171,-382.934 303.753,-383.442 295.797,-376.446 293.171,-382.934"/>
</g>
<!-- Node17&#45;&gt;Node14 -->
<g id="edge9" class="edge"><title>Node17&#45;&gt;Node14</title>
<path fill="none" stroke="midnightblue" d="M225.27,-282.082C233,-286.445 241.062,-291.524 248,-297 266.516,-311.615 263.865,-323.711 284,-336 289.945,-339.629 296.599,-342.581 303.358,-344.978"/>
<polygon fill="midnightblue" stroke="midnightblue" points="302.679,-348.434 313.269,-348.108 304.787,-341.759 302.679,-348.434"/>
</g>
<!-- Node18 -->
<g id="node8" class="node"><title>Node18</title>
<g id="a_node8"><a xlink:href="class_c_inventory.html#a3fe6ee0c2de70f3e2d9278e43f125fe9" target="_top" xlink:title="CInventory::isEmpty">
<polygon fill="none" stroke="black" points="301.5,-307.5 301.5,-326.5 405.5,-326.5 405.5,-307.5 301.5,-307.5"/>
<text text-anchor="middle" x="353.5" y="-314.5" font-family="Helvetica,sans-Serif" font-size="10.00">CInventory::isEmpty</text>
</a>
</g>
</g>
<!-- Node17&#45;&gt;Node18 -->
<g id="edge7" class="edge"><title>Node17&#45;&gt;Node18</title>
<path fill="none" stroke="midnightblue" d="M236.21,-282.056C251.209,-287.309 268.3,-293.109 284,-298 291.292,-300.272 299.061,-302.555 306.65,-304.712"/>
<polygon fill="midnightblue" stroke="midnightblue" points="305.896,-308.135 316.469,-307.463 307.784,-301.395 305.896,-308.135"/>
</g>
<!-- Node19 -->
<g id="node9" class="node"><title>Node19</title>
<g id="a_node9"><a xlink:href="class_c_inventory.html#a473699b2949d4c6c19853f5047fa7737" target="_top" xlink:title="CInventory::getItemsID">
<polygon fill="none" stroke="black" points="296.5,-269.5 296.5,-288.5 410.5,-288.5 410.5,-269.5 296.5,-269.5"/>
<text text-anchor="middle" x="353.5" y="-276.5" font-family="Helvetica,sans-Serif" font-size="10.00">CInventory::getItemsID</text>
</a>
</g>
</g>
<!-- Node17&#45;&gt;Node19 -->
<g id="edge10" class="edge"><title>Node17&#45;&gt;Node19</title>
<path fill="none" stroke="midnightblue" d="M245.362,-270.863C258.302,-271.846 272.4,-272.916 285.992,-273.949"/>
<polygon fill="midnightblue" stroke="midnightblue" points="286.023,-277.461 296.26,-274.729 286.554,-270.481 286.023,-277.461"/>
</g>
<!-- Node20 -->
<g id="node10" class="node"><title>Node20</title>
<g id="a_node10"><a xlink:href="class_c_world.html#aae01822f61bfe35284a1ca9c02bdb1a5" target="_top" xlink:title="CWorld::getItem">
<polygon fill="none" stroke="black" points="310,-193.5 310,-212.5 397,-212.5 397,-193.5 310,-193.5"/>
<text text-anchor="middle" x="353.5" y="-200.5" font-family="Helvetica,sans-Serif" font-size="10.00">CWorld::getItem</text>
</a>
</g>
</g>
<!-- Node17&#45;&gt;Node20 -->
<g id="edge11" class="edge"><title>Node17&#45;&gt;Node20</title>
<path fill="none" stroke="midnightblue" d="M221.292,-251.796C238.755,-242.325 262.257,-230.389 284,-222 290.045,-219.668 296.491,-217.493 302.92,-215.509"/>
<polygon fill="midnightblue" stroke="midnightblue" points="304.346,-218.738 312.949,-212.554 302.367,-212.024 304.346,-218.738"/>
</g>
<!-- Node21 -->
<g id="node11" class="node"><title>Node21</title>
<g id="a_node11"><a xlink:href="class_c_item.html#af35b9c64f05a8377298505b3a81bcd18" target="_top" xlink:title="CItem::print">
<polygon fill="none" stroke="black" points="320,-231.5 320,-250.5 387,-250.5 387,-231.5 320,-231.5"/>
<text text-anchor="middle" x="353.5" y="-238.5" font-family="Helvetica,sans-Serif" font-size="10.00">CItem::print</text>
</a>
</g>
</g>
<!-- Node17&#45;&gt;Node21 -->
<g id="edge12" class="edge"><title>Node17&#45;&gt;Node21</title>
<path fill="none" stroke="midnightblue" d="M245.362,-258.63C266.104,-255.217 289.822,-251.314 309.661,-248.049"/>
<polygon fill="midnightblue" stroke="midnightblue" points="310.346,-251.484 319.645,-246.406 309.21,-244.577 310.346,-251.484"/>
</g>
<!-- Node23&#45;&gt;Node16 -->
<g id="edge15" class="edge"><title>Node23&#45;&gt;Node16</title>
<path fill="none" stroke="midnightblue" d="M248.433,-11.024C257.493,-11.1961 267.043,-11.3774 276.535,-11.5576"/>
<polygon fill="midnightblue" stroke="midnightblue" points="276.721,-15.0617 286.786,-11.7523 276.854,-8.06296 276.721,-15.0617"/>
</g>
<!-- Node24&#45;&gt;Node12 -->
<g id="edge22" class="edge"><title>Node24&#45;&gt;Node12</title>
<path fill="none" stroke="midnightblue" d="M207.961,-183.115C220.022,-197.381 237.398,-219.833 248,-242 274.237,-296.858 241.094,-330.909 284,-374 285.437,-375.443 286.973,-376.779 288.59,-378.016"/>
<polygon fill="midnightblue" stroke="midnightblue" points="286.918,-381.098 297.258,-383.408 290.615,-375.154 286.918,-381.098"/>
</g>
<!-- Node24&#45;&gt;Node20 -->
<g id="edge21" class="edge"><title>Node24&#45;&gt;Node20</title>
<path fill="none" stroke="midnightblue" d="M245.362,-179.267C262.782,-183.126 282.302,-187.45 299.859,-191.339"/>
<polygon fill="midnightblue" stroke="midnightblue" points="299.419,-194.826 309.94,-193.572 300.933,-187.992 299.419,-194.826"/>
</g>
<!-- Node24&#45;&gt;Node22 -->
<g id="edge17" class="edge"><title>Node24&#45;&gt;Node22</title>
<path fill="none" stroke="midnightblue" d="M228.27,-152.952C235.335,-148.788 242.347,-143.791 248,-138 271.887,-113.529 257.351,-91.4287 284,-70 286.963,-67.6171 290.206,-65.5325 293.617,-63.7091"/>
<polygon fill="midnightblue" stroke="midnightblue" points="295.306,-66.7862 302.966,-59.4664 292.413,-60.4118 295.306,-66.7862"/>
</g>
<!-- Node25 -->
<g id="node15" class="node"><title>Node25</title>
<g id="a_node15"><a xlink:href="class_c_inventory.html#abd92c94b31dc928c1047423e98309bd7" target="_top" xlink:title="CInventory::isInInventory">
<polygon fill="none" stroke="black" points="293,-155.5 293,-174.5 414,-174.5 414,-155.5 293,-155.5"/>
<text text-anchor="middle" x="353.5" y="-162.5" font-family="Helvetica,sans-Serif" font-size="10.00">CInventory::isInInventory</text>
</a>
</g>
</g>
<!-- Node24&#45;&gt;Node25 -->
<g id="edge18" class="edge"><title>Node24&#45;&gt;Node25</title>
<path fill="none" stroke="midnightblue" d="M245.362,-167.034C257.321,-166.807 270.269,-166.561 282.893,-166.322"/>
<polygon fill="midnightblue" stroke="midnightblue" points="282.99,-169.821 292.922,-166.131 282.857,-162.822 282.99,-169.821"/>
</g>
<!-- Node26 -->
<g id="node16" class="node"><title>Node26</title>
<g id="a_node16"><a xlink:href="class_c_hero.html#ae6ef1be1a9d01855208eeb82292e9f76" target="_top" xlink:title="CHero::useItem">
<polygon fill="none" stroke="black" points="311.5,-117.5 311.5,-136.5 395.5,-136.5 395.5,-117.5 311.5,-117.5"/>
<text text-anchor="middle" x="353.5" y="-124.5" font-family="Helvetica,sans-Serif" font-size="10.00">CHero::useItem</text>
</a>
</g>
</g>
<!-- Node24&#45;&gt;Node26 -->
<g id="edge19" class="edge"><title>Node24&#45;&gt;Node26</title>
<path fill="none" stroke="midnightblue" d="M245.362,-154.802C264.785,-149.762 286.818,-144.044 305.832,-139.11"/>
<polygon fill="midnightblue" stroke="midnightblue" points="306.958,-142.434 315.758,-136.534 305.2,-135.658 306.958,-142.434"/>
</g>
<!-- Node28 -->
<g id="node18" class="node"><title>Node28</title>
<g id="a_node18"><a xlink:href="class_c_world.html#ac1e953c25242ba775f667aec3e6242bd" target="_top" xlink:title="CWorld::getItemName">
<polygon fill="none" stroke="black" points="297,-79.5 297,-98.5 410,-98.5 410,-79.5 297,-79.5"/>
<text text-anchor="middle" x="353.5" y="-86.5" font-family="Helvetica,sans-Serif" font-size="10.00">CWorld::getItemName</text>
</a>
</g>
</g>
<!-- Node24&#45;&gt;Node28 -->
<g id="edge23" class="edge"><title>Node24&#45;&gt;Node28</title>
<path fill="none" stroke="midnightblue" d="M223.686,-152.908C231.746,-148.401 240.369,-143.253 248,-138 265.155,-126.19 265.552,-117.667 284,-108 288.463,-105.661 293.245,-103.585 298.13,-101.748"/>
<polygon fill="midnightblue" stroke="midnightblue" points="299.273,-105.056 307.596,-98.5015 297.002,-98.4349 299.273,-105.056"/>
</g>
<!-- Node27 -->
<g id="node17" class="node"><title>Node27</title>
<g id="a_node17"><a xlink:href="class_c_item.html#a30e8dd9608c78cd43e5c973bfe029baa" target="_top" xlink:title="CItem::useItem">
<polygon fill="none" stroke="black" points="477,-117.5 477,-136.5 560,-136.5 560,-117.5 477,-117.5"/>
<text text-anchor="middle" x="518.5" y="-124.5" font-family="Helvetica,sans-Serif" font-size="10.00">CItem::useItem</text>
</a>
</g>
</g>
<!-- Node26&#45;&gt;Node27 -->
<g id="edge20" class="edge"><title>Node26&#45;&gt;Node27</title>
<path fill="none" stroke="midnightblue" d="M395.632,-127C417.223,-127 443.872,-127 466.738,-127"/>
<polygon fill="midnightblue" stroke="midnightblue" points="466.946,-130.5 476.946,-127 466.946,-123.5 466.946,-130.5"/>
</g>
<!-- Node29&#45;&gt;Node12 -->
<g id="edge25" class="edge"><title>Node29&#45;&gt;Node12</title>
<path fill="none" stroke="midnightblue" d="M245.362,-393C254.468,-393 264.147,-393 273.82,-393"/>
<polygon fill="midnightblue" stroke="midnightblue" points="273.874,-396.5 283.874,-393 273.874,-389.5 273.874,-396.5"/>
</g>
</g>
</svg>
