<?xml version="1.0" encoding="UTF-8" standalone="no"?>
<!DOCTYPE svg PUBLIC "-//W3C//DTD SVG 1.1//EN"
 "http://www.w3.org/Graphics/SVG/1.1/DTD/svg11.dtd">
<!-- Generated by graphviz version 2.38.0 (20140413.2041)
 -->
<!-- Title: CWorld::loadEvents Pages: 1 -->
<svg width="454pt" height="116pt"
 viewBox="0.00 0.00 454.00 115.50" xmlns="http://www.w3.org/2000/svg" xmlns:xlink="http://www.w3.org/1999/xlink">
<g id="graph0" class="graph" transform="scale(1 1) rotate(0) translate(4 111.5)">
<title>CWorld::loadEvents</title>
<!-- Node48 -->
<g id="node1" class="node"><title>Node48</title>
<polygon fill="#bfbfbf" stroke="black" points="0,-38.5 0,-57.5 102,-57.5 102,-38.5 0,-38.5"/>
<text text-anchor="middle" x="51" y="-45.5" font-family="Helvetica,sans-Serif" font-size="10.00">CWorld::loadEvents</text>
</g>
<!-- Node49 -->
<g id="node2" class="node"><title>Node49</title>
<g id="a_node2"><a xlink:href="class_c_stream_decoder.html#aeaef1aa3239cf7b5d00397b6e46f67d1" target="_top" xlink:title="CStreamDecoder::getString\lAsInt">
<polygon fill="none" stroke="black" points="138,-77 138,-107 274,-107 274,-77 138,-77"/>
<text text-anchor="start" x="146" y="-95" font-family="Helvetica,sans-Serif" font-size="10.00">CStreamDecoder::getString</text>
<text text-anchor="middle" x="206" y="-84" font-family="Helvetica,sans-Serif" font-size="10.00">AsInt</text>
</a>
</g>
</g>
<!-- Node48&#45;&gt;Node49 -->
<g id="edge1" class="edge"><title>Node48&#45;&gt;Node49</title>
<path fill="none" stroke="midnightblue" d="M85.1987,-57.5473C102.04,-62.3906 123.057,-68.4346 142.764,-74.102"/>
<polygon fill="midnightblue" stroke="midnightblue" points="142.036,-77.5344 152.614,-76.9346 143.97,-70.8071 142.036,-77.5344"/>
</g>
<!-- Node50 -->
<g id="node3" class="node"><title>Node50</title>
<g id="a_node3"><a xlink:href="class_c_stream_decoder.html#a736a4660fb1fc91ffc7345050f815994" target="_top" xlink:title="CStreamDecoder::getString">
<polygon fill="none" stroke="black" points="310,-60.5 310,-79.5 446,-79.5 446,-60.5 310,-60.5"/>
<text text-anchor="middle" x="378" y="-67.5" font-family="Helvetica,sans-Serif" font-size="10.00">CStreamDecoder::getString</text>
</a>
</g>
</g>
<!-- Node48&#45;&gt;Node50 -->
<g id="edge3" class="edge"><title>Node48&#45;&gt;Node50</title>
<path fill="none" stroke="midnightblue" d="M102.069,-51.3893C154.862,-54.963 238.708,-60.6387 299.938,-64.7835"/>
<polygon fill="midnightblue" stroke="midnightblue" points="299.731,-68.2774 309.945,-65.4609 300.204,-61.2934 299.731,-68.2774"/>
</g>
<!-- Node51 -->
<g id="node4" class="node"><title>Node51</title>
<g id="a_node4"><a xlink:href="class_c_stream_decoder.html#a4ddd62e9d414ff656f5708e3c0c39b36" target="_top" xlink:title="CStreamDecoder::getText">
<polygon fill="none" stroke="black" points="141.5,-0.5 141.5,-19.5 270.5,-19.5 270.5,-0.5 141.5,-0.5"/>
<text text-anchor="middle" x="206" y="-7.5" font-family="Helvetica,sans-Serif" font-size="10.00">CStreamDecoder::getText</text>
</a>
</g>
</g>
<!-- Node48&#45;&gt;Node51 -->
<g id="edge4" class="edge"><title>Node48&#45;&gt;Node51</title>
<path fill="none" stroke="midnightblue" d="M90.6084,-38.411C110.707,-33.4191 135.475,-27.2676 156.819,-21.9666"/>
<polygon fill="midnightblue" stroke="midnightblue" points="157.808,-25.3274 166.669,-19.5201 156.12,-18.5338 157.808,-25.3274"/>
</g>
<!-- Node49&#45;&gt;Node50 -->
<g id="edge2" class="edge"><title>Node49&#45;&gt;Node50</title>
<path fill="none" stroke="midnightblue" d="M274.189,-83.305C282.593,-82.2173 291.242,-81.0981 299.784,-79.9926"/>
<polygon fill="midnightblue" stroke="midnightblue" points="300.275,-83.4584 309.743,-78.7039 299.376,-76.5163 300.275,-83.4584"/>
</g>
</g>
</svg>
