<?xml version="1.0" encoding="UTF-8" standalone="no"?>
<!DOCTYPE svg PUBLIC "-//W3C//DTD SVG 1.1//EN"
 "http://www.w3.org/Graphics/SVG/1.1/DTD/svg11.dtd">
<!-- Generated by graphviz version 2.38.0 (20140413.2041)
 -->
<!-- Title: CGame::tickComponent Pages: 1 -->
<svg width="1530pt" height="750pt"
 viewBox="0.00 0.00 1530.00 750.00" xmlns="http://www.w3.org/2000/svg" xmlns:xlink="http://www.w3.org/1999/xlink">
<g id="graph0" class="graph" transform="scale(1 1) rotate(0) translate(4 746)">
<title>CGame::tickComponent</title>
<!-- Node256 -->
<g id="node1" class="node"><title>Node256</title>
<polygon fill="#bfbfbf" stroke="black" points="0,-342.5 0,-361.5 121,-361.5 121,-342.5 0,-342.5"/>
<text text-anchor="middle" x="60.5" y="-349.5" font-family="Helvetica,sans-Serif" font-size="10.00">CGame::tickComponent</text>
</g>
<!-- Node257 -->
<g id="node2" class="node"><title>Node257</title>
<g id="a_node2"><a xlink:href="class_c_display.html#a7d4efb0285d6cdf757bc34e38718e17d" target="_top" xlink:title="CDisplay::multiChoice">
<polygon fill="none" stroke="black" points="643,-722.5 643,-741.5 756,-741.5 756,-722.5 643,-722.5"/>
<text text-anchor="middle" x="699.5" y="-729.5" font-family="Helvetica,sans-Serif" font-size="10.00">CDisplay::multiChoice</text>
</a>
</g>
</g>
<!-- Node256&#45;&gt;Node257 -->
<g id="edge1" class="edge"><title>Node256&#45;&gt;Node257</title>
<path fill="none" stroke="midnightblue" d="M65.5903,-361.518C76.9129,-386.984 110.902,-457.742 157,-502 280.835,-620.891 329.68,-637.297 491,-696 536.866,-712.69 591.321,-721.763 632.935,-726.624"/>
<polygon fill="midnightblue" stroke="midnightblue" points="632.628,-730.112 642.955,-727.743 633.405,-723.155 632.628,-730.112"/>
</g>
<!-- Node259 -->
<g id="node4" class="node"><title>Node259</title>
<g id="a_node4"><a xlink:href="class_c_game.html#ac0a8028013ca5a7c135c29fa582df4a0" target="_top" xlink:title="CGame::checkHeroStatus">
<polygon fill="none" stroke="black" points="157,-418.5 157,-437.5 288,-437.5 288,-418.5 157,-418.5"/>
<text text-anchor="middle" x="222.5" y="-425.5" font-family="Helvetica,sans-Serif" font-size="10.00">CGame::checkHeroStatus</text>
</a>
</g>
</g>
<!-- Node256&#45;&gt;Node259 -->
<g id="edge3" class="edge"><title>Node256&#45;&gt;Node259</title>
<path fill="none" stroke="midnightblue" d="M81.7641,-361.625C109.656,-374.874 160.054,-398.813 192.092,-414.031"/>
<polygon fill="midnightblue" stroke="midnightblue" points="190.866,-417.324 201.4,-418.453 193.869,-411.001 190.866,-417.324"/>
</g>
<!-- Node264 -->
<g id="node9" class="node"><title>Node264</title>
<g id="a_node9"><a xlink:href="class_c_game.html#acdb5a10d8b17584b07b3c736ede7bf57" target="_top" xlink:title="CGame::reset">
<polygon fill="none" stroke="black" points="351,-570.5 351,-589.5 428,-589.5 428,-570.5 351,-570.5"/>
<text text-anchor="middle" x="389.5" y="-577.5" font-family="Helvetica,sans-Serif" font-size="10.00">CGame::reset</text>
</a>
</g>
</g>
<!-- Node256&#45;&gt;Node264 -->
<g id="edge68" class="edge"><title>Node256&#45;&gt;Node264</title>
<path fill="none" stroke="midnightblue" d="M69.7305,-361.734C85.4375,-379.938 121.312,-419.75 157,-447 224.24,-498.341 313.275,-544.08 358.849,-566.107"/>
<polygon fill="midnightblue" stroke="midnightblue" points="357.36,-569.274 367.89,-570.441 360.386,-562.962 357.36,-569.274"/>
</g>
<!-- Node272 -->
<g id="node17" class="node"><title>Node272</title>
<g id="a_node17"><a xlink:href="class_c_game.html#a39e1e296c6dcabbf5c824eea6424d6d9" target="_top" xlink:title="CGame::mainMenu">
<polygon fill="none" stroke="black" points="494,-342.5 494,-361.5 595,-361.5 595,-342.5 494,-342.5"/>
<text text-anchor="middle" x="544.5" y="-349.5" font-family="Helvetica,sans-Serif" font-size="10.00">CGame::mainMenu</text>
</a>
</g>
</g>
<!-- Node256&#45;&gt;Node272 -->
<g id="edge69" class="edge"><title>Node256&#45;&gt;Node272</title>
<path fill="none" stroke="midnightblue" d="M121.086,-352C213.704,-352 391.169,-352 483.835,-352"/>
<polygon fill="midnightblue" stroke="midnightblue" points="483.89,-355.5 493.89,-352 483.89,-348.5 483.89,-355.5"/>
</g>
<!-- Node288 -->
<g id="node33" class="node"><title>Node288</title>
<g id="a_node33"><a xlink:href="class_c_hero.html#a0232f04b4e49227ba90a8922135d4102" target="_top" xlink:title="CHero::printStats">
<polygon fill="none" stroke="black" points="653.5,-57.5 653.5,-76.5 745.5,-76.5 745.5,-57.5 653.5,-57.5"/>
<text text-anchor="middle" x="699.5" y="-64.5" font-family="Helvetica,sans-Serif" font-size="10.00">CHero::printStats</text>
</a>
</g>
</g>
<!-- Node256&#45;&gt;Node288 -->
<g id="edge49" class="edge"><title>Node256&#45;&gt;Node288</title>
<path fill="none" stroke="midnightblue" d="M71.643,-342.348C88.3299,-326.876 123.113,-296.306 157,-277 330.079,-178.396 558.496,-106.92 653.775,-79.4217"/>
<polygon fill="midnightblue" stroke="midnightblue" points="655.002,-82.7111 663.651,-76.5918 653.073,-75.9819 655.002,-82.7111"/>
</g>
<!-- Node293 -->
<g id="node38" class="node"><title>Node293</title>
<g id="a_node38"><a xlink:href="class_c_game.html#a49656fe4404b3df63f2dbebd9b754edd" target="_top" xlink:title="CGame::saveGame">
<polygon fill="none" stroke="black" points="494,-190.5 494,-209.5 595,-209.5 595,-190.5 494,-190.5"/>
<text text-anchor="middle" x="544.5" y="-197.5" font-family="Helvetica,sans-Serif" font-size="10.00">CGame::saveGame</text>
</a>
</g>
</g>
<!-- Node256&#45;&gt;Node293 -->
<g id="edge55" class="edge"><title>Node256&#45;&gt;Node293</title>
<path fill="none" stroke="midnightblue" d="M90.7323,-342.423C109.623,-336.256 134.746,-328.095 157,-321 282.784,-280.897 431.976,-234.528 502.571,-212.659"/>
<polygon fill="midnightblue" stroke="midnightblue" points="503.887,-215.916 512.404,-209.614 501.816,-209.229 503.887,-215.916"/>
</g>
<!-- Node258 -->
<g id="node3" class="node"><title>Node258</title>
<g id="a_node3"><a xlink:href="class_c_display.html#aba2a285f19e987f9ba82447f43be2b10" target="_top" xlink:title="CDisplay::dumpToNewLine">
<polygon fill="none" stroke="black" points="997.5,-607.5 997.5,-626.5 1130.5,-626.5 1130.5,-607.5 997.5,-607.5"/>
<text text-anchor="middle" x="1064" y="-614.5" font-family="Helvetica,sans-Serif" font-size="10.00">CDisplay::dumpToNewLine</text>
</a>
</g>
</g>
<!-- Node257&#45;&gt;Node258 -->
<g id="edge2" class="edge"><title>Node257&#45;&gt;Node258</title>
<path fill="none" stroke="midnightblue" d="M730.473,-722.491C795.601,-701.83 950.041,-652.835 1023.22,-629.619"/>
<polygon fill="midnightblue" stroke="midnightblue" points="1024.52,-632.88 1032.99,-626.52 1022.4,-626.208 1024.52,-632.88"/>
</g>
<!-- Node260 -->
<g id="node5" class="node"><title>Node260</title>
<g id="a_node5"><a xlink:href="class_c_hero.html#acf265a146732ccfe08db87b6cc69cef3" target="_top" xlink:title="CHero::isDead">
<polygon fill="none" stroke="black" points="349.5,-380.5 349.5,-399.5 429.5,-399.5 429.5,-380.5 349.5,-380.5"/>
<text text-anchor="middle" x="389.5" y="-387.5" font-family="Helvetica,sans-Serif" font-size="10.00">CHero::isDead</text>
</a>
</g>
</g>
<!-- Node259&#45;&gt;Node260 -->
<g id="edge4" class="edge"><title>Node259&#45;&gt;Node260</title>
<path fill="none" stroke="midnightblue" d="M265.136,-418.411C287.774,-413.197 315.904,-406.719 339.583,-401.266"/>
<polygon fill="midnightblue" stroke="midnightblue" points="340.471,-404.653 349.43,-398.998 338.9,-397.832 340.471,-404.653"/>
</g>
<!-- Node261 -->
<g id="node6" class="node"><title>Node261</title>
<g id="a_node6"><a xlink:href="class_c_storyline.html#a9531c0509722bbb1647837d4549a9520" target="_top" xlink:title="CStoryline::getEventCount">
<polygon fill="none" stroke="black" points="324,-456.5 324,-475.5 455,-475.5 455,-456.5 324,-456.5"/>
<text text-anchor="middle" x="389.5" y="-463.5" font-family="Helvetica,sans-Serif" font-size="10.00">CStoryline::getEventCount</text>
</a>
</g>
</g>
<!-- Node259&#45;&gt;Node261 -->
<g id="edge5" class="edge"><title>Node259&#45;&gt;Node261</title>
<path fill="none" stroke="midnightblue" d="M265.136,-437.589C287.008,-442.626 314.006,-448.844 337.164,-454.177"/>
<polygon fill="midnightblue" stroke="midnightblue" points="336.633,-457.646 347.163,-456.48 338.204,-450.825 336.633,-457.646"/>
</g>
<!-- Node262 -->
<g id="node7" class="node"><title>Node262</title>
<g id="a_node7"><a xlink:href="class_c_display.html#a54c5d36f4bc11d4a935ff5c86ea4e653" target="_top" xlink:title="CDisplay::print">
<polygon fill="none" stroke="black" points="830.5,-437.5 830.5,-456.5 910.5,-456.5 910.5,-437.5 830.5,-437.5"/>
<text text-anchor="middle" x="870.5" y="-444.5" font-family="Helvetica,sans-Serif" font-size="10.00">CDisplay::print</text>
</a>
</g>
</g>
<!-- Node259&#45;&gt;Node262 -->
<g id="edge6" class="edge"><title>Node259&#45;&gt;Node262</title>
<path fill="none" stroke="midnightblue" d="M277.021,-437.569C280.855,-439.116 284.56,-440.913 288,-443 309.019,-455.753 301.664,-474.727 324,-485 413.034,-525.95 668.486,-502.003 765,-485 791.305,-480.366 819.701,-469.641 840.244,-460.763"/>
<polygon fill="midnightblue" stroke="midnightblue" points="841.933,-463.842 849.654,-456.587 839.094,-457.444 841.933,-463.842"/>
</g>
<!-- Node263 -->
<g id="node8" class="node"><title>Node263</title>
<g id="a_node8"><a xlink:href="class_c_hero.html#ae4b84144aca1948f65daa0b9734f163f" target="_top" xlink:title="CHero::getName">
<polygon fill="none" stroke="black" points="345,-418.5 345,-437.5 434,-437.5 434,-418.5 345,-418.5"/>
<text text-anchor="middle" x="389.5" y="-425.5" font-family="Helvetica,sans-Serif" font-size="10.00">CHero::getName</text>
</a>
</g>
</g>
<!-- Node259&#45;&gt;Node263 -->
<g id="edge7" class="edge"><title>Node259&#45;&gt;Node263</title>
<path fill="none" stroke="midnightblue" d="M288.239,-428C303.644,-428 319.916,-428 334.766,-428"/>
<polygon fill="midnightblue" stroke="midnightblue" points="334.792,-431.5 344.792,-428 334.792,-424.5 334.792,-431.5"/>
</g>
<!-- Node259&#45;&gt;Node264 -->
<g id="edge8" class="edge"><title>Node259&#45;&gt;Node264</title>
<path fill="none" stroke="midnightblue" d="M233.821,-437.508C261.254,-462.779 336.229,-531.847 370.714,-563.616"/>
<polygon fill="midnightblue" stroke="midnightblue" points="368.456,-566.294 378.182,-570.495 373.199,-561.146 368.456,-566.294"/>
</g>
<!-- Node269 -->
<g id="node14" class="node"><title>Node269</title>
<g id="a_node14"><a xlink:href="class_c_game.html#aa9d3da2fefa1c04faefc6586dbd37971" target="_top" xlink:title="CGame::play">
<polygon fill="none" stroke="black" points="352.5,-304.5 352.5,-323.5 426.5,-323.5 426.5,-304.5 352.5,-304.5"/>
<text text-anchor="middle" x="389.5" y="-311.5" font-family="Helvetica,sans-Serif" font-size="10.00">CGame::play</text>
</a>
</g>
</g>
<!-- Node259&#45;&gt;Node269 -->
<g id="edge14" class="edge"><title>Node259&#45;&gt;Node269</title>
<path fill="none" stroke="midnightblue" d="M237.284,-418.477C265.724,-398.827 331.146,-353.627 365.878,-329.63"/>
<polygon fill="midnightblue" stroke="midnightblue" points="368.168,-332.302 374.405,-323.738 364.189,-326.543 368.168,-332.302"/>
</g>
<!-- Node264&#45;&gt;Node262 -->
<g id="edge9" class="edge"><title>Node264&#45;&gt;Node262</title>
<path fill="none" stroke="midnightblue" d="M396.837,-589.714C410.865,-610.208 446.829,-657.427 491,-675 535.187,-692.579 553.316,-691.274 598,-675 717.285,-631.557 820.592,-510.121 856.239,-464.563"/>
<polygon fill="midnightblue" stroke="midnightblue" points="859.116,-466.565 862.452,-456.509 853.573,-462.29 859.116,-466.565"/>
</g>
<!-- Node265 -->
<g id="node10" class="node"><title>Node265</title>
<g id="a_node10"><a xlink:href="class_c_storyline.html#ad8c62b61513d498b53454aeaf621dda0" target="_top" xlink:title="CStoryline::update">
<polygon fill="none" stroke="black" points="1015.5,-527.5 1015.5,-546.5 1112.5,-546.5 1112.5,-527.5 1015.5,-527.5"/>
<text text-anchor="middle" x="1064" y="-534.5" font-family="Helvetica,sans-Serif" font-size="10.00">CStoryline::update</text>
</a>
</g>
</g>
<!-- Node264&#45;&gt;Node265 -->
<g id="edge10" class="edge"><title>Node264&#45;&gt;Node265</title>
<path fill="none" stroke="midnightblue" d="M428.005,-571.572C446.815,-567.687 470.007,-563.412 491,-561 678.111,-539.502 901.621,-536.68 1005.13,-536.665"/>
<polygon fill="midnightblue" stroke="midnightblue" points="1005.36,-540.165 1015.36,-536.673 1005.36,-533.165 1005.36,-540.165"/>
</g>
<!-- Node266 -->
<g id="node11" class="node"><title>Node266</title>
<g id="a_node11"><a xlink:href="class_c_world.html#a72b79b6801a9e7ae670cc3790acf31d2" target="_top" xlink:title="CWorld::getStoryline">
<polygon fill="none" stroke="black" points="491,-608.5 491,-627.5 598,-627.5 598,-608.5 491,-608.5"/>
<text text-anchor="middle" x="544.5" y="-615.5" font-family="Helvetica,sans-Serif" font-size="10.00">CWorld::getStoryline</text>
</a>
</g>
</g>
<!-- Node264&#45;&gt;Node266 -->
<g id="edge11" class="edge"><title>Node264&#45;&gt;Node266</title>
<path fill="none" stroke="midnightblue" d="M428.32,-589.393C448.488,-594.402 473.523,-600.62 495.096,-605.978"/>
<polygon fill="midnightblue" stroke="midnightblue" points="494.503,-609.437 505.052,-608.451 496.191,-602.644 494.503,-609.437"/>
</g>
<!-- Node267 -->
<g id="node12" class="node"><title>Node267</title>
<g id="a_node12"><a xlink:href="class_c_shopping.html#aa232d999181d07bfd6ec0ec5c645f51b" target="_top" xlink:title="CShopping::update">
<polygon fill="none" stroke="black" points="495,-570.5 495,-589.5 594,-589.5 594,-570.5 495,-570.5"/>
<text text-anchor="middle" x="544.5" y="-577.5" font-family="Helvetica,sans-Serif" font-size="10.00">CShopping::update</text>
</a>
</g>
</g>
<!-- Node264&#45;&gt;Node267 -->
<g id="edge12" class="edge"><title>Node264&#45;&gt;Node267</title>
<path fill="none" stroke="midnightblue" d="M428.32,-580C445.348,-580 465.844,-580 484.798,-580"/>
<polygon fill="midnightblue" stroke="midnightblue" points="484.839,-583.5 494.839,-580 484.839,-576.5 484.839,-583.5"/>
</g>
<!-- Node268 -->
<g id="node13" class="node"><title>Node268</title>
<g id="a_node13"><a xlink:href="class_c_world.html#a1c10d5ec2514347fd3fe28f85b23db13" target="_top" xlink:title="CWorld::getAllItemID">
<polygon fill="none" stroke="black" points="491,-646.5 491,-665.5 598,-665.5 598,-646.5 491,-646.5"/>
<text text-anchor="middle" x="544.5" y="-653.5" font-family="Helvetica,sans-Serif" font-size="10.00">CWorld::getAllItemID</text>
</a>
</g>
</g>
<!-- Node264&#45;&gt;Node268 -->
<g id="edge13" class="edge"><title>Node264&#45;&gt;Node268</title>
<path fill="none" stroke="midnightblue" d="M405.403,-589.512C424.665,-601.556 459.48,-622.484 491,-637 495.391,-639.022 500.064,-640.978 504.742,-642.816"/>
<polygon fill="midnightblue" stroke="midnightblue" points="503.672,-646.153 514.263,-646.407 506.142,-639.603 503.672,-646.153"/>
</g>
<!-- Node269&#45;&gt;Node256 -->
<g id="edge48" class="edge"><title>Node269&#45;&gt;Node256</title>
<path fill="none" stroke="midnightblue" d="M352.357,-317.27C306.759,-321.505 225.962,-329.374 157,-338 148.634,-339.046 139.868,-340.222 131.182,-341.436"/>
<polygon fill="midnightblue" stroke="midnightblue" points="130.46,-338.003 121.051,-342.873 131.443,-344.934 130.46,-338.003"/>
</g>
<!-- Node270 -->
<g id="node15" class="node"><title>Node270</title>
<g id="a_node15"><a xlink:href="class_c_display.html#a53b65673a9b0bfc807a3a1e448962928" target="_top" xlink:title="CDisplay::printWithDelimiter">
<polygon fill="none" stroke="black" points="801,-232.5 801,-251.5 940,-251.5 940,-232.5 801,-232.5"/>
<text text-anchor="middle" x="870.5" y="-239.5" font-family="Helvetica,sans-Serif" font-size="10.00">CDisplay::printWithDelimiter</text>
</a>
</g>
</g>
<!-- Node269&#45;&gt;Node270 -->
<g id="edge15" class="edge"><title>Node269&#45;&gt;Node270</title>
<path fill="none" stroke="midnightblue" d="M423.249,-304.498C469.69,-291.445 557.549,-268.303 634,-257 685.902,-249.327 744.81,-245.577 790.726,-243.745"/>
<polygon fill="midnightblue" stroke="midnightblue" points="791.051,-247.236 800.912,-243.362 790.788,-240.241 791.051,-247.236"/>
</g>
<!-- Node269&#45;&gt;Node272 -->
<g id="edge17" class="edge"><title>Node269&#45;&gt;Node272</title>
<path fill="none" stroke="midnightblue" d="M426.759,-323.005C447.219,-328.087 473.049,-334.502 495.207,-340.006"/>
<polygon fill="midnightblue" stroke="midnightblue" points="494.548,-343.448 505.097,-342.462 496.235,-336.655 494.548,-343.448"/>
</g>
<!-- Node271 -->
<g id="node16" class="node"><title>Node271</title>
<g id="a_node16"><a xlink:href="class_c_display.html#af350b35b44fc756e0c721ec4ee56c67a" target="_top" xlink:title="CDisplay::printDelimiter">
<polygon fill="none" stroke="black" points="1004.5,-232.5 1004.5,-251.5 1123.5,-251.5 1123.5,-232.5 1004.5,-232.5"/>
<text text-anchor="middle" x="1064" y="-239.5" font-family="Helvetica,sans-Serif" font-size="10.00">CDisplay::printDelimiter</text>
</a>
</g>
</g>
<!-- Node270&#45;&gt;Node271 -->
<g id="edge16" class="edge"><title>Node270&#45;&gt;Node271</title>
<path fill="none" stroke="midnightblue" d="M940.095,-242C957.679,-242 976.595,-242 994.19,-242"/>
<polygon fill="midnightblue" stroke="midnightblue" points="994.377,-245.5 1004.38,-242 994.377,-238.5 994.377,-245.5"/>
</g>
<!-- Node272&#45;&gt;Node257 -->
<g id="edge18" class="edge"><title>Node272&#45;&gt;Node257</title>
<path fill="none" stroke="midnightblue" d="M549.436,-361.775C569.77,-412.279 663.045,-643.942 690.731,-712.705"/>
<polygon fill="midnightblue" stroke="midnightblue" points="687.609,-714.32 694.59,-722.289 694.102,-711.706 687.609,-714.32"/>
</g>
<!-- Node273 -->
<g id="node18" class="node"><title>Node273</title>
<g id="a_node18"><a xlink:href="class_c_game.html#a21a30939333b2c98f607d9bd2927d105" target="_top" xlink:title="CGame::createHero">
<polygon fill="none" stroke="black" points="648,-380.5 648,-399.5 751,-399.5 751,-380.5 648,-380.5"/>
<text text-anchor="middle" x="699.5" y="-387.5" font-family="Helvetica,sans-Serif" font-size="10.00">CGame::createHero</text>
</a>
</g>
</g>
<!-- Node272&#45;&gt;Node273 -->
<g id="edge19" class="edge"><title>Node272&#45;&gt;Node273</title>
<path fill="none" stroke="midnightblue" d="M584.108,-361.589C604.207,-366.581 628.975,-372.732 650.319,-378.033"/>
<polygon fill="midnightblue" stroke="midnightblue" points="649.62,-381.466 660.169,-380.48 651.308,-374.673 649.62,-381.466"/>
</g>
<!-- Node275 -->
<g id="node20" class="node"><title>Node275</title>
<g id="a_node20"><a xlink:href="class_c_game.html#accda079824fc813cbd64b4743846ae24" target="_top" xlink:title="CGame::loadGame">
<polygon fill="none" stroke="black" points="649.5,-304.5 649.5,-323.5 749.5,-323.5 749.5,-304.5 649.5,-304.5"/>
<text text-anchor="middle" x="699.5" y="-311.5" font-family="Helvetica,sans-Serif" font-size="10.00">CGame::loadGame</text>
</a>
</g>
</g>
<!-- Node272&#45;&gt;Node275 -->
<g id="edge24" class="edge"><title>Node272&#45;&gt;Node275</title>
<path fill="none" stroke="midnightblue" d="M584.108,-342.411C604.207,-337.419 628.975,-331.268 650.319,-325.967"/>
<polygon fill="midnightblue" stroke="midnightblue" points="651.308,-329.327 660.169,-323.52 649.62,-322.534 651.308,-329.327"/>
</g>
<!-- Node286 -->
<g id="node31" class="node"><title>Node286</title>
<g id="a_node31"><a xlink:href="class_c_game.html#a7b4409fd50b77ae5743a30bd43f01f61" target="_top" xlink:title="CGame::exit">
<polygon fill="none" stroke="black" points="664,-456.5 664,-475.5 735,-475.5 735,-456.5 664,-456.5"/>
<text text-anchor="middle" x="699.5" y="-463.5" font-family="Helvetica,sans-Serif" font-size="10.00">CGame::exit</text>
</a>
</g>
</g>
<!-- Node272&#45;&gt;Node286 -->
<g id="edge44" class="edge"><title>Node272&#45;&gt;Node286</title>
<path fill="none" stroke="midnightblue" d="M552.708,-361.772C566.565,-379.934 598.692,-419.118 634,-442 640.342,-446.11 647.487,-449.654 654.652,-452.661"/>
<polygon fill="midnightblue" stroke="midnightblue" points="653.772,-456.074 664.36,-456.431 656.306,-449.548 653.772,-456.074"/>
</g>
<!-- Node287 -->
<g id="node32" class="node"><title>Node287</title>
<g id="a_node32"><a xlink:href="class_c_display.html#a63f3c4f78cef1d3b13290970da9e3e85" target="_top" xlink:title="CDisplay::printError">
<polygon fill="none" stroke="black" points="649,-266.5 649,-285.5 750,-285.5 750,-266.5 649,-266.5"/>
<text text-anchor="middle" x="699.5" y="-273.5" font-family="Helvetica,sans-Serif" font-size="10.00">CDisplay::printError</text>
</a>
</g>
</g>
<!-- Node272&#45;&gt;Node287 -->
<g id="edge46" class="edge"><title>Node272&#45;&gt;Node287</title>
<path fill="none" stroke="midnightblue" d="M557.739,-342.49C574.242,-330.061 604.92,-308.313 634,-295 638.975,-292.722 644.291,-290.642 649.656,-288.762"/>
<polygon fill="midnightblue" stroke="midnightblue" points="650.892,-292.04 659.303,-285.598 648.71,-285.389 650.892,-292.04"/>
</g>
<!-- Node273&#45;&gt;Node262 -->
<g id="edge20" class="edge"><title>Node273&#45;&gt;Node262</title>
<path fill="none" stroke="midnightblue" d="M728.787,-399.541C756.937,-409.035 800.319,-423.667 831.471,-434.174"/>
<polygon fill="midnightblue" stroke="midnightblue" points="830.527,-437.549 841.121,-437.428 832.764,-430.916 830.527,-437.549"/>
</g>
<!-- Node273&#45;&gt;Node270 -->
<g id="edge23" class="edge"><title>Node273&#45;&gt;Node270</title>
<path fill="none" stroke="midnightblue" d="M711.589,-380.289C740.006,-355.403 815.674,-289.137 850.934,-258.259"/>
<polygon fill="midnightblue" stroke="midnightblue" points="853.373,-260.775 858.59,-251.554 848.761,-255.509 853.373,-260.775"/>
</g>
<!-- Node274 -->
<g id="node19" class="node"><title>Node274</title>
<g id="a_node19"><a xlink:href="class_c_display.html#a1bd3e25973ed15055a68d4db6abfa765" target="_top" xlink:title="CDisplay::getString">
<polygon fill="none" stroke="black" points="820,-380.5 820,-399.5 921,-399.5 921,-380.5 820,-380.5"/>
<text text-anchor="middle" x="870.5" y="-387.5" font-family="Helvetica,sans-Serif" font-size="10.00">CDisplay::getString</text>
</a>
</g>
</g>
<!-- Node273&#45;&gt;Node274 -->
<g id="edge21" class="edge"><title>Node273&#45;&gt;Node274</title>
<path fill="none" stroke="midnightblue" d="M751.206,-390C769.666,-390 790.704,-390 809.868,-390"/>
<polygon fill="midnightblue" stroke="midnightblue" points="809.993,-393.5 819.993,-390 809.993,-386.5 809.993,-393.5"/>
</g>
<!-- Node274&#45;&gt;Node258 -->
<g id="edge22" class="edge"><title>Node274&#45;&gt;Node258</title>
<path fill="none" stroke="midnightblue" d="M899.696,-399.639C913.667,-405.747 929.707,-414.987 940,-428 976.663,-474.349 941.82,-507.791 976,-556 990.487,-576.433 1014.08,-592.351 1033.05,-602.796"/>
<polygon fill="midnightblue" stroke="midnightblue" points="1031.45,-605.909 1041.92,-607.479 1034.71,-599.718 1031.45,-605.909"/>
</g>
<!-- Node275&#45;&gt;Node262 -->
<g id="edge26" class="edge"><title>Node275&#45;&gt;Node262</title>
<path fill="none" stroke="midnightblue" d="M712.195,-323.791C725.334,-334.915 747.158,-353.765 765,-371 781.733,-387.163 782.613,-394.746 801,-409 812.734,-418.096 826.918,-426.345 839.328,-432.815"/>
<polygon fill="midnightblue" stroke="midnightblue" points="837.898,-436.014 848.402,-437.4 841.055,-429.766 837.898,-436.014"/>
</g>
<!-- Node275&#45;&gt;Node270 -->
<g id="edge28" class="edge"><title>Node275&#45;&gt;Node270</title>
<path fill="none" stroke="midnightblue" d="M737.056,-304.495C746.288,-301.751 756.103,-298.532 765,-295 766.983,-294.213 811.283,-271.677 841.56,-256.248"/>
<polygon fill="midnightblue" stroke="midnightblue" points="843.506,-259.185 850.826,-251.525 840.327,-252.948 843.506,-259.185"/>
</g>
<!-- Node275&#45;&gt;Node271 -->
<g id="edge25" class="edge"><title>Node275&#45;&gt;Node271</title>
<path fill="none" stroke="midnightblue" d="M748.637,-304.439C814.812,-291.295 933.747,-267.672 1004.83,-253.555"/>
<polygon fill="midnightblue" stroke="midnightblue" points="1005.83,-256.924 1014.95,-251.543 1004.46,-250.058 1005.83,-256.924"/>
</g>
<!-- Node275&#45;&gt;Node274 -->
<g id="edge27" class="edge"><title>Node275&#45;&gt;Node274</title>
<path fill="none" stroke="midnightblue" d="M728.058,-323.529C739.584,-327.701 753.051,-332.821 765,-338 779.738,-344.388 816.297,-362.805 841.999,-375.904"/>
<polygon fill="midnightblue" stroke="midnightblue" points="840.419,-379.027 850.917,-380.457 843.602,-372.792 840.419,-379.027"/>
</g>
<!-- Node276 -->
<g id="node21" class="node"><title>Node276</title>
<g id="a_node21"><a xlink:href="class_c_game.html#a507b71eeebc2a6aaa08d9e0dcb61c7ac" target="_top" xlink:title="CGame::importPlayerData">
<polygon fill="none" stroke="black" points="805,-326.5 805,-345.5 936,-345.5 936,-326.5 805,-326.5"/>
<text text-anchor="middle" x="870.5" y="-333.5" font-family="Helvetica,sans-Serif" font-size="10.00">CGame::importPlayerData</text>
</a>
</g>
</g>
<!-- Node275&#45;&gt;Node276 -->
<g id="edge29" class="edge"><title>Node275&#45;&gt;Node276</title>
<path fill="none" stroke="midnightblue" d="M749.836,-320.422C763.982,-322.264 779.728,-324.314 795.029,-326.306"/>
<polygon fill="midnightblue" stroke="midnightblue" points="794.631,-329.783 804.999,-327.603 795.535,-322.842 794.631,-329.783"/>
</g>
<!-- Node276&#45;&gt;Node265 -->
<g id="edge42" class="edge"><title>Node276&#45;&gt;Node265</title>
<path fill="none" stroke="midnightblue" d="M902.896,-345.55C916.094,-351.037 930.548,-359.235 940,-371 979.699,-420.414 932.456,-462.938 976,-509 984.009,-517.472 994.588,-523.388 1005.6,-527.516"/>
<polygon fill="midnightblue" stroke="midnightblue" points="1004.74,-530.919 1015.34,-530.704 1006.92,-524.266 1004.74,-530.919"/>
</g>
<!-- Node277 -->
<g id="node22" class="node"><title>Node277</title>
<g id="a_node22"><a xlink:href="class_c_stream_decoder.html#a27f04fbbe2eb121fe15988594fe7053f" target="_top" xlink:title="CStreamDecoder::decodePlayerData">
<polygon fill="none" stroke="black" points="976,-326.5 976,-345.5 1152,-345.5 1152,-326.5 976,-326.5"/>
<text text-anchor="middle" x="1064" y="-333.5" font-family="Helvetica,sans-Serif" font-size="10.00">CStreamDecoder::decodePlayerData</text>
</a>
</g>
</g>
<!-- Node276&#45;&gt;Node277 -->
<g id="edge30" class="edge"><title>Node276&#45;&gt;Node277</title>
<path fill="none" stroke="midnightblue" d="M936.066,-336C945.676,-336 955.756,-336 965.856,-336"/>
<polygon fill="midnightblue" stroke="midnightblue" points="965.947,-339.5 975.947,-336 965.947,-332.5 965.947,-339.5"/>
</g>
<!-- Node280 -->
<g id="node25" class="node"><title>Node280</title>
<g id="a_node25"><a xlink:href="class_c_stream_decoder.html#a57a7f304974a6b5be31e374685b70e33" target="_top" xlink:title="CStreamDecoder::getNumbers">
<polygon fill="none" stroke="black" points="1373,-322.5 1373,-341.5 1522,-341.5 1522,-322.5 1373,-322.5"/>
<text text-anchor="middle" x="1447.5" y="-329.5" font-family="Helvetica,sans-Serif" font-size="10.00">CStreamDecoder::getNumbers</text>
</a>
</g>
</g>
<!-- Node276&#45;&gt;Node280 -->
<g id="edge43" class="edge"><title>Node276&#45;&gt;Node280</title>
<path fill="none" stroke="midnightblue" d="M916.57,-326.454C934.924,-322.92 956.396,-319.235 976,-317 1135.47,-298.823 1177.5,-289.024 1337,-307 1359.21,-309.503 1383.49,-314.778 1403.53,-319.839"/>
<polygon fill="midnightblue" stroke="midnightblue" points="1402.73,-323.249 1413.29,-322.372 1404.49,-316.473 1402.73,-323.249"/>
</g>
<!-- Node281 -->
<g id="node26" class="node"><title>Node281</title>
<g id="a_node26"><a xlink:href="class_c_hero.html#a7b1a1b3c196bbe5b8da97c56f520c1f3" target="_top" xlink:title="CHero::update">
<polygon fill="none" stroke="black" points="1024.5,-480.5 1024.5,-499.5 1103.5,-499.5 1103.5,-480.5 1024.5,-480.5"/>
<text text-anchor="middle" x="1064" y="-487.5" font-family="Helvetica,sans-Serif" font-size="10.00">CHero::update</text>
</a>
</g>
</g>
<!-- Node276&#45;&gt;Node281 -->
<g id="edge34" class="edge"><title>Node276&#45;&gt;Node281</title>
<path fill="none" stroke="midnightblue" d="M894.366,-345.608C908.164,-351.9 925.768,-360.826 940,-371 983.244,-401.913 1026.12,-447.738 1048.02,-472.534"/>
<polygon fill="midnightblue" stroke="midnightblue" points="1045.65,-475.137 1054.86,-480.369 1050.92,-470.534 1045.65,-475.137"/>
</g>
<!-- Node278 -->
<g id="node23" class="node"><title>Node278</title>
<g id="a_node23"><a xlink:href="class_c_stream_decoder.html#a736a4660fb1fc91ffc7345050f815994" target="_top" xlink:title="CStreamDecoder::getString">
<polygon fill="none" stroke="black" points="1379.5,-442.5 1379.5,-461.5 1515.5,-461.5 1515.5,-442.5 1379.5,-442.5"/>
<text text-anchor="middle" x="1447.5" y="-449.5" font-family="Helvetica,sans-Serif" font-size="10.00">CStreamDecoder::getString</text>
</a>
</g>
</g>
<!-- Node277&#45;&gt;Node278 -->
<g id="edge31" class="edge"><title>Node277&#45;&gt;Node278</title>
<path fill="none" stroke="midnightblue" d="M1096.54,-345.591C1165.31,-366.501 1328.69,-416.179 1405.4,-439.502"/>
<polygon fill="midnightblue" stroke="midnightblue" points="1404.6,-442.918 1415.19,-442.479 1406.64,-436.221 1404.6,-442.918"/>
</g>
<!-- Node279 -->
<g id="node24" class="node"><title>Node279</title>
<g id="a_node24"><a xlink:href="class_c_stream_decoder.html#a5df71ab29ca4dc60f6c628fcb4a77949" target="_top" xlink:title="CStreamDecoder::getNumbers\lAsString">
<polygon fill="none" stroke="black" points="1188,-317 1188,-347 1337,-347 1337,-317 1188,-317"/>
<text text-anchor="start" x="1196" y="-335" font-family="Helvetica,sans-Serif" font-size="10.00">CStreamDecoder::getNumbers</text>
<text text-anchor="middle" x="1262.5" y="-324" font-family="Helvetica,sans-Serif" font-size="10.00">AsString</text>
</a>
</g>
</g>
<!-- Node277&#45;&gt;Node279 -->
<g id="edge32" class="edge"><title>Node277&#45;&gt;Node279</title>
<path fill="none" stroke="midnightblue" d="M1152.05,-334.228C1160.51,-334.056 1169.09,-333.881 1177.53,-333.709"/>
<polygon fill="midnightblue" stroke="midnightblue" points="1177.8,-337.205 1187.73,-333.502 1177.66,-330.206 1177.8,-337.205"/>
</g>
<!-- Node279&#45;&gt;Node280 -->
<g id="edge33" class="edge"><title>Node279&#45;&gt;Node280</title>
<path fill="none" stroke="midnightblue" d="M1337.14,-332C1345.47,-332 1354.01,-332 1362.46,-332"/>
<polygon fill="midnightblue" stroke="midnightblue" points="1362.71,-335.5 1372.71,-332 1362.71,-328.5 1362.71,-335.5"/>
</g>
<!-- Node281&#45;&gt;Node278 -->
<g id="edge35" class="edge"><title>Node281&#45;&gt;Node278</title>
<path fill="none" stroke="midnightblue" d="M1103.67,-483.215C1127.84,-479.176 1159.66,-474.225 1188,-471 1248.78,-464.083 1317.9,-459.155 1369.36,-456.053"/>
<polygon fill="midnightblue" stroke="midnightblue" points="1369.64,-459.543 1379.41,-455.457 1369.22,-452.556 1369.64,-459.543"/>
</g>
<!-- Node281&#45;&gt;Node280 -->
<g id="edge41" class="edge"><title>Node281&#45;&gt;Node280</title>
<path fill="none" stroke="midnightblue" d="M1088.01,-480.472C1153.07,-453.527 1338.55,-376.71 1413.99,-345.465"/>
<polygon fill="midnightblue" stroke="midnightblue" points="1415.56,-348.6 1423.46,-341.54 1412.89,-342.133 1415.56,-348.6"/>
</g>
<!-- Node282 -->
<g id="node27" class="node"><title>Node282</title>
<g id="a_node27"><a xlink:href="class_c_stream_decoder.html#aeaef1aa3239cf7b5d00397b6e46f67d1" target="_top" xlink:title="CStreamDecoder::getString\lAsInt">
<polygon fill="none" stroke="black" points="1194.5,-519 1194.5,-549 1330.5,-549 1330.5,-519 1194.5,-519"/>
<text text-anchor="start" x="1202.5" y="-537" font-family="Helvetica,sans-Serif" font-size="10.00">CStreamDecoder::getString</text>
<text text-anchor="middle" x="1262.5" y="-526" font-family="Helvetica,sans-Serif" font-size="10.00">AsInt</text>
</a>
</g>
</g>
<!-- Node281&#45;&gt;Node282 -->
<g id="edge36" class="edge"><title>Node281&#45;&gt;Node282</title>
<path fill="none" stroke="midnightblue" d="M1103.82,-498.693C1126.83,-503.846 1156.81,-510.558 1184.44,-516.745"/>
<polygon fill="midnightblue" stroke="midnightblue" points="1183.97,-520.227 1194.5,-518.997 1185.5,-513.396 1183.97,-520.227"/>
</g>
<!-- Node283 -->
<g id="node28" class="node"><title>Node283</title>
<g id="a_node28"><a xlink:href="class_c_equipment.html#abf42868d8cd5d627d872dbf7f80bff9a" target="_top" xlink:title="CEquipment::setAttack">
<polygon fill="none" stroke="black" points="1203.5,-606.5 1203.5,-625.5 1321.5,-625.5 1321.5,-606.5 1203.5,-606.5"/>
<text text-anchor="middle" x="1262.5" y="-613.5" font-family="Helvetica,sans-Serif" font-size="10.00">CEquipment::setAttack</text>
</a>
</g>
</g>
<!-- Node281&#45;&gt;Node283 -->
<g id="edge38" class="edge"><title>Node281&#45;&gt;Node283</title>
<path fill="none" stroke="midnightblue" d="M1103.57,-495.291C1120.09,-499.227 1138.61,-506.079 1152,-518 1180.82,-543.653 1158.44,-572.199 1188,-597 1190.03,-598.705 1192.2,-600.259 1194.47,-601.676"/>
<polygon fill="midnightblue" stroke="midnightblue" points="1193.16,-604.943 1203.64,-606.487 1196.41,-598.744 1193.16,-604.943"/>
</g>
<!-- Node284 -->
<g id="node29" class="node"><title>Node284</title>
<g id="a_node29"><a xlink:href="class_c_equipment.html#a223e0e1172975f9d9c49612b2513afb0" target="_top" xlink:title="CEquipment::setArmour">
<polygon fill="none" stroke="black" points="1202,-568.5 1202,-587.5 1323,-587.5 1323,-568.5 1202,-568.5"/>
<text text-anchor="middle" x="1262.5" y="-575.5" font-family="Helvetica,sans-Serif" font-size="10.00">CEquipment::setArmour</text>
</a>
</g>
</g>
<!-- Node281&#45;&gt;Node284 -->
<g id="edge39" class="edge"><title>Node281&#45;&gt;Node284</title>
<path fill="none" stroke="midnightblue" d="M1103.75,-497.795C1119.56,-502.127 1137.48,-508.599 1152,-518 1172.08,-531.001 1167.63,-545.461 1188,-558 1192.32,-560.662 1197,-562.975 1201.83,-564.984"/>
<polygon fill="midnightblue" stroke="midnightblue" points="1200.67,-568.284 1211.26,-568.485 1203.1,-561.722 1200.67,-568.284"/>
</g>
<!-- Node285 -->
<g id="node30" class="node"><title>Node285</title>
<g id="a_node30"><a xlink:href="class_c_inventory.html#a2ae39f69247c25fa2ee46c4111bcce56" target="_top" xlink:title="CInventory::update">
<polygon fill="none" stroke="black" points="1214,-480.5 1214,-499.5 1311,-499.5 1311,-480.5 1214,-480.5"/>
<text text-anchor="middle" x="1262.5" y="-487.5" font-family="Helvetica,sans-Serif" font-size="10.00">CInventory::update</text>
</a>
</g>
</g>
<!-- Node281&#45;&gt;Node285 -->
<g id="edge40" class="edge"><title>Node281&#45;&gt;Node285</title>
<path fill="none" stroke="midnightblue" d="M1103.82,-490C1132.28,-490 1171.4,-490 1203.55,-490"/>
<polygon fill="midnightblue" stroke="midnightblue" points="1203.73,-493.5 1213.73,-490 1203.73,-486.5 1203.73,-493.5"/>
</g>
<!-- Node282&#45;&gt;Node278 -->
<g id="edge37" class="edge"><title>Node282&#45;&gt;Node278</title>
<path fill="none" stroke="midnightblue" d="M1311.35,-518.906C1319.97,-515.851 1328.82,-512.496 1337,-509 1366.53,-496.38 1399,-479.008 1420.86,-466.768"/>
<polygon fill="midnightblue" stroke="midnightblue" points="1422.83,-469.671 1429.82,-461.704 1419.39,-463.577 1422.83,-469.671"/>
</g>
<!-- Node286&#45;&gt;Node262 -->
<g id="edge45" class="edge"><title>Node286&#45;&gt;Node262</title>
<path fill="none" stroke="midnightblue" d="M735.107,-462.109C759.597,-459.356 792.798,-455.623 820.073,-452.557"/>
<polygon fill="midnightblue" stroke="midnightblue" points="820.659,-456.013 830.205,-451.418 819.877,-449.057 820.659,-456.013"/>
</g>
<!-- Node287&#45;&gt;Node270 -->
<g id="edge47" class="edge"><title>Node287&#45;&gt;Node270</title>
<path fill="none" stroke="midnightblue" d="M748.026,-266.439C767.91,-262.438 791.197,-257.753 812.033,-253.561"/>
<polygon fill="midnightblue" stroke="midnightblue" points="812.925,-256.952 822.039,-251.548 811.545,-250.09 812.925,-256.952"/>
</g>
<!-- Node288&#45;&gt;Node270 -->
<g id="edge50" class="edge"><title>Node288&#45;&gt;Node270</title>
<path fill="none" stroke="midnightblue" d="M721.311,-76.638C734.657,-83.4239 751.876,-93.3545 765,-105 786.383,-123.974 834.088,-190.984 856.891,-223.724"/>
<polygon fill="midnightblue" stroke="midnightblue" points="854.291,-226.117 862.866,-232.339 860.042,-222.127 854.291,-226.117"/>
</g>
<!-- Node289 -->
<g id="node34" class="node"><title>Node289</title>
<g id="a_node34"><a xlink:href="class_c_hero.html#a1be25c88254db1f753e1ce89da03ef46" target="_top" xlink:title="CHero::getAttack">
<polygon fill="none" stroke="black" points="824.5,-38.5 824.5,-57.5 916.5,-57.5 916.5,-38.5 824.5,-38.5"/>
<text text-anchor="middle" x="870.5" y="-45.5" font-family="Helvetica,sans-Serif" font-size="10.00">CHero::getAttack</text>
</a>
</g>
</g>
<!-- Node288&#45;&gt;Node289 -->
<g id="edge51" class="edge"><title>Node288&#45;&gt;Node289</title>
<path fill="none" stroke="midnightblue" d="M745.789,-61.9083C766.901,-59.5348 792.209,-56.6895 814.419,-54.1925"/>
<polygon fill="midnightblue" stroke="midnightblue" points="814.833,-57.6681 824.379,-53.0727 814.051,-50.712 814.833,-57.6681"/>
</g>
<!-- Node291 -->
<g id="node36" class="node"><title>Node291</title>
<g id="a_node36"><a xlink:href="class_c_hero.html#a50d1e46ce5b1d84c6ed04493f1d71f81" target="_top" xlink:title="CHero::getArmour">
<polygon fill="none" stroke="black" points="823,-0.5 823,-19.5 918,-19.5 918,-0.5 823,-0.5"/>
<text text-anchor="middle" x="870.5" y="-7.5" font-family="Helvetica,sans-Serif" font-size="10.00">CHero::getArmour</text>
</a>
</g>
</g>
<!-- Node288&#45;&gt;Node291 -->
<g id="edge53" class="edge"><title>Node288&#45;&gt;Node291</title>
<path fill="none" stroke="midnightblue" d="M723.84,-57.4841C744.073,-49.402 774.228,-37.7542 801,-29 808.016,-26.7058 815.493,-24.4464 822.832,-22.3309"/>
<polygon fill="midnightblue" stroke="midnightblue" points="824.026,-25.6307 832.699,-19.5455 822.124,-18.894 824.026,-25.6307"/>
</g>
<!-- Node290 -->
<g id="node35" class="node"><title>Node290</title>
<g id="a_node35"><a xlink:href="class_c_equipment.html#a6b27732ece0ab3c74bff006093dc5a7d" target="_top" xlink:title="CEquipment::getAttack">
<polygon fill="none" stroke="black" points="1005,-62.5 1005,-81.5 1123,-81.5 1123,-62.5 1005,-62.5"/>
<text text-anchor="middle" x="1064" y="-69.5" font-family="Helvetica,sans-Serif" font-size="10.00">CEquipment::getAttack</text>
</a>
</g>
</g>
<!-- Node289&#45;&gt;Node290 -->
<g id="edge52" class="edge"><title>Node289&#45;&gt;Node290</title>
<path fill="none" stroke="midnightblue" d="M916.883,-53.6877C940.122,-56.6001 968.894,-60.2061 994.745,-63.4459"/>
<polygon fill="midnightblue" stroke="midnightblue" points="994.508,-66.9434 1004.87,-64.7142 995.378,-59.9977 994.508,-66.9434"/>
</g>
<!-- Node292 -->
<g id="node37" class="node"><title>Node292</title>
<g id="a_node37"><a xlink:href="class_c_equipment.html#a27e962aead56bb39886acc86c17b7478" target="_top" xlink:title="CEquipment::getArmour">
<polygon fill="none" stroke="black" points="1003.5,-5.5 1003.5,-24.5 1124.5,-24.5 1124.5,-5.5 1003.5,-5.5"/>
<text text-anchor="middle" x="1064" y="-12.5" font-family="Helvetica,sans-Serif" font-size="10.00">CEquipment::getArmour</text>
</a>
</g>
</g>
<!-- Node291&#45;&gt;Node292 -->
<g id="edge54" class="edge"><title>Node291&#45;&gt;Node292</title>
<path fill="none" stroke="midnightblue" d="M918.346,-11.2231C940.827,-11.8101 968.225,-12.5255 993.105,-13.1751"/>
<polygon fill="midnightblue" stroke="midnightblue" points="993.138,-16.677 1003.23,-13.4393 993.32,-9.6794 993.138,-16.677"/>
</g>
<!-- Node293&#45;&gt;Node262 -->
<g id="edge57" class="edge"><title>Node293&#45;&gt;Node262</title>
<path fill="none" stroke="midnightblue" d="M549.313,-209.723C565.161,-250.037 625.396,-402.252 634,-409 662.186,-431.107 759.817,-440.689 820.167,-444.578"/>
<polygon fill="midnightblue" stroke="midnightblue" points="820.051,-448.077 830.246,-445.197 820.48,-441.091 820.051,-448.077"/>
</g>
<!-- Node293&#45;&gt;Node270 -->
<g id="edge66" class="edge"><title>Node293&#45;&gt;Node270</title>
<path fill="none" stroke="midnightblue" d="M595.299,-204.562C639.86,-208.854 706.92,-215.831 765,-224 778.936,-225.96 793.867,-228.355 807.957,-230.75"/>
<polygon fill="midnightblue" stroke="midnightblue" points="807.592,-234.238 818.041,-232.487 808.781,-227.34 807.592,-234.238"/>
</g>
<!-- Node293&#45;&gt;Node271 -->
<g id="edge56" class="edge"><title>Node293&#45;&gt;Node271</title>
<path fill="none" stroke="midnightblue" d="M595.239,-200.004C639.759,-200.277 706.795,-201.349 765,-205 843.035,-209.894 862.45,-213.029 940,-223 957.909,-225.303 977.232,-228.127 995.137,-230.886"/>
<polygon fill="midnightblue" stroke="midnightblue" points="994.788,-234.374 1005.21,-232.454 995.864,-227.457 994.788,-234.374"/>
</g>
<!-- Node293&#45;&gt;Node274 -->
<g id="edge58" class="edge"><title>Node293&#45;&gt;Node274</title>
<path fill="none" stroke="midnightblue" d="M549.091,-209.851C558.688,-234.725 587.416,-300.402 634,-333 648.599,-343.216 747.035,-364.878 811.937,-378.36"/>
<polygon fill="midnightblue" stroke="midnightblue" points="811.546,-381.853 822.047,-380.45 812.963,-374.998 811.546,-381.853"/>
</g>
<!-- Node293&#45;&gt;Node287 -->
<g id="edge67" class="edge"><title>Node293&#45;&gt;Node287</title>
<path fill="none" stroke="midnightblue" d="M564.878,-209.625C591.434,-222.817 639.327,-246.607 669.982,-261.834"/>
<polygon fill="midnightblue" stroke="midnightblue" points="668.767,-265.139 679.28,-266.453 671.881,-258.869 668.767,-265.139"/>
</g>
<!-- Node294 -->
<g id="node39" class="node"><title>Node294</title>
<g id="a_node39"><a xlink:href="class_c_game.html#a7d821ce9a0454653bbfde69979155da9" target="_top" xlink:title="CGame::exportPlayerData">
<polygon fill="none" stroke="black" points="634,-114.5 634,-133.5 765,-133.5 765,-114.5 634,-114.5"/>
<text text-anchor="middle" x="699.5" y="-121.5" font-family="Helvetica,sans-Serif" font-size="10.00">CGame::exportPlayerData</text>
</a>
</g>
</g>
<!-- Node293&#45;&gt;Node294 -->
<g id="edge59" class="edge"><title>Node293&#45;&gt;Node294</title>
<path fill="none" stroke="midnightblue" d="M560.098,-190.347C577.297,-179.231 606.961,-160.853 634,-148 642.232,-144.087 651.286,-140.375 659.941,-137.091"/>
<polygon fill="midnightblue" stroke="midnightblue" points="661.304,-140.319 669.477,-133.578 658.884,-133.751 661.304,-140.319"/>
</g>
<!-- Node295 -->
<g id="node40" class="node"><title>Node295</title>
<g id="a_node40"><a xlink:href="class_c_hero.html#a1593ac4dfc01368e99b2b82a21c3c6ed" target="_top" xlink:title="CHero::exportData">
<polygon fill="none" stroke="black" points="822,-114.5 822,-133.5 919,-133.5 919,-114.5 822,-114.5"/>
<text text-anchor="middle" x="870.5" y="-121.5" font-family="Helvetica,sans-Serif" font-size="10.00">CHero::exportData</text>
</a>
</g>
</g>
<!-- Node294&#45;&gt;Node295 -->
<g id="edge60" class="edge"><title>Node294&#45;&gt;Node295</title>
<path fill="none" stroke="midnightblue" d="M765.356,-124C780.634,-124 796.818,-124 811.758,-124"/>
<polygon fill="midnightblue" stroke="midnightblue" points="811.876,-127.5 821.876,-124 811.876,-120.5 811.876,-127.5"/>
</g>
<!-- Node298 -->
<g id="node43" class="node"><title>Node298</title>
<g id="a_node43"><a xlink:href="class_c_storyline.html#aa8cb69bd93260855dc0221d901b1bd07" target="_top" xlink:title="CStoryline::exportData">
<polygon fill="none" stroke="black" points="813,-76.5 813,-95.5 928,-95.5 928,-76.5 813,-76.5"/>
<text text-anchor="middle" x="870.5" y="-83.5" font-family="Helvetica,sans-Serif" font-size="10.00">CStoryline::exportData</text>
</a>
</g>
</g>
<!-- Node294&#45;&gt;Node298 -->
<g id="edge65" class="edge"><title>Node294&#45;&gt;Node298</title>
<path fill="none" stroke="midnightblue" d="M743.146,-114.411C765.648,-109.351 793.448,-103.1 817.238,-97.7512"/>
<polygon fill="midnightblue" stroke="midnightblue" points="818.172,-101.129 827.161,-95.5201 816.637,-94.2991 818.172,-101.129"/>
</g>
<!-- Node295&#45;&gt;Node290 -->
<g id="edge62" class="edge"><title>Node295&#45;&gt;Node290</title>
<path fill="none" stroke="midnightblue" d="M906.624,-114.462C937.974,-105.95 984.054,-93.4369 1018.08,-84.1983"/>
<polygon fill="midnightblue" stroke="midnightblue" points="1019.04,-87.5633 1027.77,-81.565 1017.21,-80.8079 1019.04,-87.5633"/>
</g>
<!-- Node295&#45;&gt;Node292 -->
<g id="edge63" class="edge"><title>Node295&#45;&gt;Node292</title>
<path fill="none" stroke="midnightblue" d="M919.148,-115.441C926.53,-112.833 933.763,-109.433 940,-105 962.911,-88.7154 954.295,-70.8606 976,-53 988.946,-42.3472 1005.34,-34.1606 1020.4,-28.1622"/>
<polygon fill="midnightblue" stroke="midnightblue" points="1021.92,-31.3284 1030.05,-24.5324 1019.46,-24.7763 1021.92,-31.3284"/>
</g>
<!-- Node296 -->
<g id="node41" class="node"><title>Node296</title>
<g id="a_node41"><a xlink:href="struct_hero_stats.html#a9580a49eab11c0babd042b6e7e551e4e" target="_top" xlink:title="HeroStats::exportData">
<polygon fill="none" stroke="black" points="1007.5,-147.5 1007.5,-166.5 1120.5,-166.5 1120.5,-147.5 1007.5,-147.5"/>
<text text-anchor="middle" x="1064" y="-154.5" font-family="Helvetica,sans-Serif" font-size="10.00">HeroStats::exportData</text>
</a>
</g>
</g>
<!-- Node295&#45;&gt;Node296 -->
<g id="edge61" class="edge"><title>Node295&#45;&gt;Node296</title>
<path fill="none" stroke="midnightblue" d="M919.33,-132.242C942.997,-136.321 971.928,-141.306 997.609,-145.732"/>
<polygon fill="midnightblue" stroke="midnightblue" points="997.195,-149.212 1007.64,-147.461 998.384,-142.313 997.195,-149.212"/>
</g>
<!-- Node297 -->
<g id="node42" class="node"><title>Node297</title>
<g id="a_node42"><a xlink:href="class_c_inventory.html#aaf1332bfb30866845bbcae69e411e4bc" target="_top" xlink:title="CInventory::exportData">
<polygon fill="none" stroke="black" points="1006.5,-109.5 1006.5,-128.5 1121.5,-128.5 1121.5,-109.5 1006.5,-109.5"/>
<text text-anchor="middle" x="1064" y="-116.5" font-family="Helvetica,sans-Serif" font-size="10.00">CInventory::exportData</text>
</a>
</g>
</g>
<!-- Node295&#45;&gt;Node297 -->
<g id="edge64" class="edge"><title>Node295&#45;&gt;Node297</title>
<path fill="none" stroke="midnightblue" d="M919.33,-122.751C942.503,-122.146 970.722,-121.409 995.996,-120.749"/>
<polygon fill="midnightblue" stroke="midnightblue" points="996.349,-124.242 1006.25,-120.482 996.166,-117.244 996.349,-124.242"/>
</g>
</g>
</svg>
