<?xml version="1.0" encoding="UTF-8" standalone="no"?>
<!DOCTYPE svg PUBLIC "-//W3C//DTD SVG 1.1//EN"
 "http://www.w3.org/Graphics/SVG/1.1/DTD/svg11.dtd">
<!-- Generated by graphviz version 2.38.0 (20140413.2041)
 -->
<!-- Title: CHero::payGold Pages: 1 -->
<svg width="381pt" height="28pt"
 viewBox="0.00 0.00 381.00 28.00" xmlns="http://www.w3.org/2000/svg" xmlns:xlink="http://www.w3.org/1999/xlink">
<g id="graph0" class="graph" transform="scale(1 1) rotate(0) translate(4 24)">
<title>CHero::payGold</title>
<!-- Node78 -->
<g id="node1" class="node"><title>Node78</title>
<polygon fill="#bfbfbf" stroke="black" points="0,-0.5 0,-19.5 86,-19.5 86,-0.5 0,-0.5"/>
<text text-anchor="middle" x="43" y="-7.5" font-family="Helvetica,sans-Serif" font-size="10.00">CHero::payGold</text>
</g>
<!-- Node79 -->
<g id="node2" class="node"><title>Node79</title>
<g id="a_node2"><a xlink:href="class_c_shopping.html#a0981a7916cca8a37beb35858ad2ec77e" target="_top" xlink:title="CShopping::buyItem">
<polygon fill="none" stroke="black" points="122,-0.5 122,-19.5 226,-19.5 226,-0.5 122,-0.5"/>
<text text-anchor="middle" x="174" y="-7.5" font-family="Helvetica,sans-Serif" font-size="10.00">CShopping::buyItem</text>
</a>
</g>
</g>
<!-- Node78&#45;&gt;Node79 -->
<g id="edge1" class="edge"><title>Node78&#45;&gt;Node79</title>
<path fill="none" stroke="midnightblue" d="M96.2738,-10C104.649,-10 113.31,-10 121.663,-10"/>
<polygon fill="midnightblue" stroke="midnightblue" points="96.2395,-6.5001 86.2394,-10 96.2394,-13.5001 96.2395,-6.5001"/>
</g>
<!-- Node80 -->
<g id="node3" class="node"><title>Node80</title>
<g id="a_node3"><a xlink:href="class_c_shopping.html#ab72dff2e94f897bd5c3f1ef660e65afb" target="_top" xlink:title="CShopping::operator()">
<polygon fill="none" stroke="black" points="262,-0.5 262,-19.5 373,-19.5 373,-0.5 262,-0.5"/>
<text text-anchor="middle" x="317.5" y="-7.5" font-family="Helvetica,sans-Serif" font-size="10.00">CShopping::operator()</text>
</a>
</g>
</g>
<!-- Node79&#45;&gt;Node80 -->
<g id="edge2" class="edge"><title>Node79&#45;&gt;Node80</title>
<path fill="none" stroke="midnightblue" d="M236.265,-10C244.713,-10 253.344,-10 261.666,-10"/>
<polygon fill="midnightblue" stroke="midnightblue" points="236.085,-6.5001 226.085,-10 236.085,-13.5001 236.085,-6.5001"/>
</g>
</g>
</svg>
