<?xml version="1.0" encoding="UTF-8" standalone="no"?>
<!DOCTYPE svg PUBLIC "-//W3C//DTD SVG 1.1//EN"
 "http://www.w3.org/Graphics/SVG/1.1/DTD/svg11.dtd">
<!-- Generated by graphviz version 2.38.0 (20140413.2041)
 -->
<!-- Title: CGame Pages: 1 -->
<svg width="1538pt" height="1000pt"
 viewBox="0.00 0.00 1537.50 1000.00" xmlns="http://www.w3.org/2000/svg" xmlns:xlink="http://www.w3.org/1999/xlink">
<g id="graph0" class="graph" transform="scale(1 1) rotate(0) translate(4 996)">
<title>CGame</title>
<!-- Node1 -->
<g id="node1" class="node"><title>Node1</title>
<polygon fill="#bfbfbf" stroke="black" points="481.5,-0.5 481.5,-189.5 587.5,-189.5 587.5,-0.5 481.5,-0.5"/>
<text text-anchor="middle" x="534.5" y="-177.5" font-family="Helvetica,sans-Serif" font-size="10.00">CGame</text>
<polyline fill="none" stroke="black" points="481.5,-170.5 587.5,-170.5 "/>
<text text-anchor="middle" x="534.5" y="-158.5" font-family="Helvetica,sans-Serif" font-size="10.00"> </text>
<polyline fill="none" stroke="black" points="481.5,-151.5 587.5,-151.5 "/>
<text text-anchor="start" x="489.5" y="-139.5" font-family="Helvetica,sans-Serif" font-size="10.00">+ CGame()</text>
<text text-anchor="start" x="489.5" y="-128.5" font-family="Helvetica,sans-Serif" font-size="10.00">+ CGame()</text>
<text text-anchor="start" x="489.5" y="-117.5" font-family="Helvetica,sans-Serif" font-size="10.00">+ play()</text>
<text text-anchor="start" x="489.5" y="-106.5" font-family="Helvetica,sans-Serif" font-size="10.00"># loadGame()</text>
<text text-anchor="start" x="489.5" y="-95.5" font-family="Helvetica,sans-Serif" font-size="10.00"># saveGame()</text>
<text text-anchor="start" x="489.5" y="-84.5" font-family="Helvetica,sans-Serif" font-size="10.00"># reset()</text>
<text text-anchor="start" x="489.5" y="-73.5" font-family="Helvetica,sans-Serif" font-size="10.00"># exit()</text>
<text text-anchor="start" x="489.5" y="-62.5" font-family="Helvetica,sans-Serif" font-size="10.00"># mainMenu()</text>
<text text-anchor="start" x="489.5" y="-51.5" font-family="Helvetica,sans-Serif" font-size="10.00"># tickComponent()</text>
<text text-anchor="start" x="489.5" y="-40.5" font-family="Helvetica,sans-Serif" font-size="10.00"># createHero()</text>
<text text-anchor="start" x="489.5" y="-29.5" font-family="Helvetica,sans-Serif" font-size="10.00"># checkHeroStatus()</text>
<text text-anchor="start" x="489.5" y="-18.5" font-family="Helvetica,sans-Serif" font-size="10.00"># exportPlayerData()</text>
<text text-anchor="start" x="489.5" y="-7.5" font-family="Helvetica,sans-Serif" font-size="10.00"># importPlayerData()</text>
</g>
<!-- Node2 -->
<g id="node2" class="node"><title>Node2</title>
<g id="a_node2"><a xlink:href="class_c_inventory_browser.html" target="_top" xlink:title="{CInventoryBrowser\n||+ operator()()\l# equip()\l# printInventory()\l# printHelp()\l}">
<polygon fill="none" stroke="black" points="70,-309 70,-399 167,-399 167,-309 70,-309"/>
<text text-anchor="middle" x="118.5" y="-387" font-family="Helvetica,sans-Serif" font-size="10.00">CInventoryBrowser</text>
<polyline fill="none" stroke="black" points="70,-380 167,-380 "/>
<text text-anchor="middle" x="118.5" y="-368" font-family="Helvetica,sans-Serif" font-size="10.00"> </text>
<polyline fill="none" stroke="black" points="70,-361 167,-361 "/>
<text text-anchor="start" x="78" y="-349" font-family="Helvetica,sans-Serif" font-size="10.00">+ operator()()</text>
<text text-anchor="start" x="78" y="-338" font-family="Helvetica,sans-Serif" font-size="10.00"># equip()</text>
<text text-anchor="start" x="78" y="-327" font-family="Helvetica,sans-Serif" font-size="10.00"># printInventory()</text>
<text text-anchor="start" x="78" y="-316" font-family="Helvetica,sans-Serif" font-size="10.00"># printHelp()</text>
</a>
</g>
</g>
<!-- Node2&#45;&gt;Node1 -->
<g id="edge1" class="edge"><title>Node2&#45;&gt;Node1</title>
<path fill="none" stroke="#404040" d="M116.289,-308.963C117.108,-277.073 123.545,-234.992 148.5,-208 231.885,-117.809 383.106,-98.6963 469.445,-95.5564"/>
<polygon fill="none" stroke="#404040" points="469.445,-95.5565 475.327,-91.384 481.44,-95.2081 475.559,-99.3806 469.445,-95.5565"/>
<text text-anchor="middle" x="189.5" y="-211" font-family="Helvetica,sans-Serif" font-size="10.00"> #inventoryBrowser</text>
</g>
<!-- Node3 -->
<g id="node3" class="node"><title>Node3</title>
<g id="a_node3"><a xlink:href="class_c_interact.html" target="_top" xlink:title="{CInteract\n||+ operator()()\l}">
<polygon fill="none" stroke="black" points="186,-325.5 186,-382.5 259,-382.5 259,-325.5 186,-325.5"/>
<text text-anchor="middle" x="222.5" y="-370.5" font-family="Helvetica,sans-Serif" font-size="10.00">CInteract</text>
<polyline fill="none" stroke="black" points="186,-363.5 259,-363.5 "/>
<text text-anchor="middle" x="222.5" y="-351.5" font-family="Helvetica,sans-Serif" font-size="10.00"> </text>
<polyline fill="none" stroke="black" points="186,-344.5 259,-344.5 "/>
<text text-anchor="start" x="194" y="-332.5" font-family="Helvetica,sans-Serif" font-size="10.00">+ operator()()</text>
</a>
</g>
</g>
<!-- Node3&#45;&gt;Node1 -->
<g id="edge2" class="edge"><title>Node3&#45;&gt;Node1</title>
<path fill="none" stroke="#404040" d="M218.095,-325.265C214.665,-293.499 214.198,-241.531 240.5,-208 295.834,-137.457 401.079,-111.331 469.482,-101.665"/>
<polygon fill="none" stroke="#404040" points="469.488,-101.664 474.914,-96.9139 481.385,-100.095 475.96,-104.845 469.488,-101.664"/>
<text text-anchor="middle" x="261" y="-211" font-family="Helvetica,sans-Serif" font-size="10.00"> #interact</text>
</g>
<!-- Node4 -->
<g id="node4" class="node"><title>Node4</title>
<g id="a_node4"><a xlink:href="class_c_hero.html" target="_top" xlink:title="{CHero\n||+ CHero()\l+ CHero()\l+ exportData()\l+ update()\l+ fight()\l+ useItem()\l+ sufferDamage()\l+ isDead()\l+ getGold()\l+ getName()\l+ payGold()\l+ addGold()\l+ addXP()\l+ getAttack()\l+ getArmour()\l+ getInventory()\l+ printStats()\l}">
<polygon fill="none" stroke="black" points="362,-237.5 362,-470.5 453,-470.5 453,-237.5 362,-237.5"/>
<text text-anchor="middle" x="407.5" y="-458.5" font-family="Helvetica,sans-Serif" font-size="10.00">CHero</text>
<polyline fill="none" stroke="black" points="362,-451.5 453,-451.5 "/>
<text text-anchor="middle" x="407.5" y="-439.5" font-family="Helvetica,sans-Serif" font-size="10.00"> </text>
<polyline fill="none" stroke="black" points="362,-432.5 453,-432.5 "/>
<text text-anchor="start" x="370" y="-420.5" font-family="Helvetica,sans-Serif" font-size="10.00">+ CHero()</text>
<text text-anchor="start" x="370" y="-409.5" font-family="Helvetica,sans-Serif" font-size="10.00">+ CHero()</text>
<text text-anchor="start" x="370" y="-398.5" font-family="Helvetica,sans-Serif" font-size="10.00">+ exportData()</text>
<text text-anchor="start" x="370" y="-387.5" font-family="Helvetica,sans-Serif" font-size="10.00">+ update()</text>
<text text-anchor="start" x="370" y="-376.5" font-family="Helvetica,sans-Serif" font-size="10.00">+ fight()</text>
<text text-anchor="start" x="370" y="-365.5" font-family="Helvetica,sans-Serif" font-size="10.00">+ useItem()</text>
<text text-anchor="start" x="370" y="-354.5" font-family="Helvetica,sans-Serif" font-size="10.00">+ sufferDamage()</text>
<text text-anchor="start" x="370" y="-343.5" font-family="Helvetica,sans-Serif" font-size="10.00">+ isDead()</text>
<text text-anchor="start" x="370" y="-332.5" font-family="Helvetica,sans-Serif" font-size="10.00">+ getGold()</text>
<text text-anchor="start" x="370" y="-321.5" font-family="Helvetica,sans-Serif" font-size="10.00">+ getName()</text>
<text text-anchor="start" x="370" y="-310.5" font-family="Helvetica,sans-Serif" font-size="10.00">+ payGold()</text>
<text text-anchor="start" x="370" y="-299.5" font-family="Helvetica,sans-Serif" font-size="10.00">+ addGold()</text>
<text text-anchor="start" x="370" y="-288.5" font-family="Helvetica,sans-Serif" font-size="10.00">+ addXP()</text>
<text text-anchor="start" x="370" y="-277.5" font-family="Helvetica,sans-Serif" font-size="10.00">+ getAttack()</text>
<text text-anchor="start" x="370" y="-266.5" font-family="Helvetica,sans-Serif" font-size="10.00">+ getArmour()</text>
<text text-anchor="start" x="370" y="-255.5" font-family="Helvetica,sans-Serif" font-size="10.00">+ getInventory()</text>
<text text-anchor="start" x="370" y="-244.5" font-family="Helvetica,sans-Serif" font-size="10.00">+ printStats()</text>
</a>
</g>
</g>
<!-- Node4&#45;&gt;Node1 -->
<g id="edge3" class="edge"><title>Node4&#45;&gt;Node1</title>
<path fill="none" stroke="#404040" d="M453.17,-260.58C462.771,-241.153 472.963,-220.529 482.767,-200.689"/>
<polygon fill="none" stroke="#404040" points="482.851,-200.518 481.923,-193.367 488.167,-189.76 489.095,-196.911 482.851,-200.518"/>
<text text-anchor="middle" x="493.5" y="-211" font-family="Helvetica,sans-Serif" font-size="10.00"> #hero</text>
</g>
<!-- Node5 -->
<g id="node5" class="node"><title>Node5</title>
<g id="a_node5"><a xlink:href="class_c_inventory.html" target="_top" xlink:title="{CInventory\n||+ exportData()\l+ addItem()\l+ removeItem()\l+ isInInventory()\l+ isEmpty()\l+ update()\l+ update()\l+ getItemsID()\l}">
<polygon fill="none" stroke="black" points="61,-653.5 61,-787.5 146,-787.5 146,-653.5 61,-653.5"/>
<text text-anchor="middle" x="103.5" y="-775.5" font-family="Helvetica,sans-Serif" font-size="10.00">CInventory</text>
<polyline fill="none" stroke="black" points="61,-768.5 146,-768.5 "/>
<text text-anchor="middle" x="103.5" y="-756.5" font-family="Helvetica,sans-Serif" font-size="10.00"> </text>
<polyline fill="none" stroke="black" points="61,-749.5 146,-749.5 "/>
<text text-anchor="start" x="69" y="-737.5" font-family="Helvetica,sans-Serif" font-size="10.00">+ exportData()</text>
<text text-anchor="start" x="69" y="-726.5" font-family="Helvetica,sans-Serif" font-size="10.00">+ addItem()</text>
<text text-anchor="start" x="69" y="-715.5" font-family="Helvetica,sans-Serif" font-size="10.00">+ removeItem()</text>
<text text-anchor="start" x="69" y="-704.5" font-family="Helvetica,sans-Serif" font-size="10.00">+ isInInventory()</text>
<text text-anchor="start" x="69" y="-693.5" font-family="Helvetica,sans-Serif" font-size="10.00">+ isEmpty()</text>
<text text-anchor="start" x="69" y="-682.5" font-family="Helvetica,sans-Serif" font-size="10.00">+ update()</text>
<text text-anchor="start" x="69" y="-671.5" font-family="Helvetica,sans-Serif" font-size="10.00">+ update()</text>
<text text-anchor="start" x="69" y="-660.5" font-family="Helvetica,sans-Serif" font-size="10.00">+ getItemsID()</text>
</a>
</g>
</g>
<!-- Node5&#45;&gt;Node4 -->
<g id="edge4" class="edge"><title>Node5&#45;&gt;Node4</title>
<path fill="none" stroke="#404040" d="M99.5244,-653.322C97.5,-593.461 99.1659,-511.369 121.5,-489 157.097,-453.348 305.537,-498.882 347.5,-471 349.253,-469.835 350.957,-468.603 352.615,-467.309"/>
<polygon fill="none" stroke="#404040" points="352.658,-467.269 354.463,-460.288 361.602,-459.268 359.797,-466.25 352.658,-467.269"/>
<text text-anchor="middle" x="145" y="-554" font-family="Helvetica,sans-Serif" font-size="10.00"> #inventory</text>
</g>
<!-- Node6 -->
<g id="node6" class="node"><title>Node6</title>
<polygon fill="none" stroke="#bfbfbf" points="39,-929 39,-986 98,-986 98,-929 39,-929"/>
<text text-anchor="middle" x="68.5" y="-974" font-family="Helvetica,sans-Serif" font-size="10.00">set&lt; int &gt;</text>
<polyline fill="none" stroke="#bfbfbf" points="39,-967 98,-967 "/>
<text text-anchor="middle" x="68.5" y="-955" font-family="Helvetica,sans-Serif" font-size="10.00"> </text>
<polyline fill="none" stroke="#bfbfbf" points="39,-948 98,-948 "/>
<text text-anchor="middle" x="68.5" y="-936" font-family="Helvetica,sans-Serif" font-size="10.00"> </text>
</g>
<!-- Node6&#45;&gt;Node5 -->
<g id="edge5" class="edge"><title>Node6&#45;&gt;Node5</title>
<path fill="none" stroke="#404040" d="M80.2386,-928.844C83.0415,-921.238 85.7306,-912.905 87.5,-905 95.1184,-870.964 99.1495,-832.623 101.267,-799.822"/>
<polygon fill="none" stroke="#404040" points="101.285,-799.522 97.6435,-793.298 101.989,-787.542 105.63,-793.767 101.285,-799.522"/>
<text text-anchor="middle" x="117" y="-858.5" font-family="Helvetica,sans-Serif" font-size="10.00"> #items</text>
</g>
<!-- Node24 -->
<g id="node24" class="node"><title>Node24</title>
<g id="a_node24"><a xlink:href="class_c_shopping.html" target="_top" xlink:title="{CShopping\n||+ CShopping()\l+ operator()()\l+ update()\l# eraseItem()\l# buyItem()\l# printHelp()\l# printItems()\l# isInShop()\l}">
<polygon fill="none" stroke="black" points="0,-489.5 0,-623.5 79,-623.5 79,-489.5 0,-489.5"/>
<text text-anchor="middle" x="39.5" y="-611.5" font-family="Helvetica,sans-Serif" font-size="10.00">CShopping</text>
<polyline fill="none" stroke="black" points="0,-604.5 79,-604.5 "/>
<text text-anchor="middle" x="39.5" y="-592.5" font-family="Helvetica,sans-Serif" font-size="10.00"> </text>
<polyline fill="none" stroke="black" points="0,-585.5 79,-585.5 "/>
<text text-anchor="start" x="8" y="-573.5" font-family="Helvetica,sans-Serif" font-size="10.00">+ CShopping()</text>
<text text-anchor="start" x="8" y="-562.5" font-family="Helvetica,sans-Serif" font-size="10.00">+ operator()()</text>
<text text-anchor="start" x="8" y="-551.5" font-family="Helvetica,sans-Serif" font-size="10.00">+ update()</text>
<text text-anchor="start" x="8" y="-540.5" font-family="Helvetica,sans-Serif" font-size="10.00"># eraseItem()</text>
<text text-anchor="start" x="8" y="-529.5" font-family="Helvetica,sans-Serif" font-size="10.00"># buyItem()</text>
<text text-anchor="start" x="8" y="-518.5" font-family="Helvetica,sans-Serif" font-size="10.00"># printHelp()</text>
<text text-anchor="start" x="8" y="-507.5" font-family="Helvetica,sans-Serif" font-size="10.00"># printItems()</text>
<text text-anchor="start" x="8" y="-496.5" font-family="Helvetica,sans-Serif" font-size="10.00"># isInShop()</text>
</a>
</g>
</g>
<!-- Node6&#45;&gt;Node24 -->
<g id="edge31" class="edge"><title>Node6&#45;&gt;Node24</title>
<path fill="none" stroke="#404040" d="M38.9022,-929.828C32.6256,-922.466 26.8796,-914.004 23.5,-905 -9.45191,-817.208 3.45352,-708.079 18.7117,-635.791"/>
<polygon fill="none" stroke="#404040" points="18.8085,-635.348 16.1843,-628.632 21.375,-623.626 23.9992,-630.343 18.8085,-635.348"/>
<text text-anchor="middle" x="53.5" y="-858.5" font-family="Helvetica,sans-Serif" font-size="10.00"> #itemsToSell</text>
</g>
<!-- Node7 -->
<g id="node7" class="node"><title>Node7</title>
<g id="a_node7"><a xlink:href="struct_hero_stats.html" target="_top" xlink:title="{HeroStats\n||+ exportData()\l+ levelUp()\l}">
<polygon fill="none" stroke="black" points="228,-686.5 228,-754.5 307,-754.5 307,-686.5 228,-686.5"/>
<text text-anchor="middle" x="267.5" y="-742.5" font-family="Helvetica,sans-Serif" font-size="10.00">HeroStats</text>
<polyline fill="none" stroke="black" points="228,-735.5 307,-735.5 "/>
<text text-anchor="middle" x="267.5" y="-723.5" font-family="Helvetica,sans-Serif" font-size="10.00"> </text>
<polyline fill="none" stroke="black" points="228,-716.5 307,-716.5 "/>
<text text-anchor="start" x="236" y="-704.5" font-family="Helvetica,sans-Serif" font-size="10.00">+ exportData()</text>
<text text-anchor="start" x="236" y="-693.5" font-family="Helvetica,sans-Serif" font-size="10.00">+ levelUp()</text>
</a>
</g>
</g>
<!-- Node7&#45;&gt;Node4 -->
<g id="edge6" class="edge"><title>Node7&#45;&gt;Node4</title>
<path fill="none" stroke="#404040" d="M273.458,-686.133C282.498,-640.099 302.138,-555.284 334.5,-489 338.829,-480.132 342.33,-479.406 347.5,-471 350.316,-466.422 353.124,-461.698 355.903,-456.893"/>
<polygon fill="none" stroke="#404040" points="356.007,-456.709 355.489,-449.516 361.929,-446.272 362.447,-453.464 356.007,-456.709"/>
<text text-anchor="middle" x="350" y="-554" font-family="Helvetica,sans-Serif" font-size="10.00"> #stats</text>
</g>
<!-- Node8 -->
<g id="node8" class="node"><title>Node8</title>
<polygon fill="none" stroke="#bfbfbf" points="251,-929 251,-986 280,-986 280,-929 251,-929"/>
<text text-anchor="middle" x="265.5" y="-974" font-family="Helvetica,sans-Serif" font-size="10.00">int</text>
<polyline fill="none" stroke="#bfbfbf" points="251,-967 280,-967 "/>
<text text-anchor="middle" x="265.5" y="-955" font-family="Helvetica,sans-Serif" font-size="10.00"> </text>
<polyline fill="none" stroke="#bfbfbf" points="251,-948 280,-948 "/>
<text text-anchor="middle" x="265.5" y="-936" font-family="Helvetica,sans-Serif" font-size="10.00"> </text>
</g>
<!-- Node8&#45;&gt;Node4 -->
<g id="edge9" class="edge"><title>Node8&#45;&gt;Node4</title>
<path fill="none" stroke="#404040" d="M250.955,-933.91C232.85,-904.316 202.919,-850.158 191.5,-799 176.299,-730.898 172.681,-709.192 191.5,-642 212.962,-565.372 220.426,-536.191 284.5,-489 308.05,-471.655 326.624,-487.641 351.842,-473.232"/>
<polygon fill="none" stroke="#404040" points="352.087,-473.057 354.649,-466.316 361.857,-466.088 359.295,-472.829 352.087,-473.057"/>
<text text-anchor="middle" x="205" y="-718" font-family="Helvetica,sans-Serif" font-size="10.00"> #gold</text>
</g>
<!-- Node8&#45;&gt;Node7 -->
<g id="edge7" class="edge"><title>Node8&#45;&gt;Node7</title>
<path fill="none" stroke="#404040" d="M265.671,-928.972C265.851,-900.834 266.157,-855.871 266.5,-817 266.644,-800.647 266.826,-782.718 266.994,-766.856"/>
<polygon fill="none" stroke="#404040" points="266.997,-766.647 263.062,-760.604 267.126,-754.647 271.061,-760.69 266.997,-766.647"/>
<text text-anchor="middle" x="293" y="-897" font-family="Helvetica,sans-Serif" font-size="10.00"> +mana</text>
<text text-anchor="middle" x="293" y="-886" font-family="Helvetica,sans-Serif" font-size="10.00">+xp</text>
<text text-anchor="middle" x="293" y="-875" font-family="Helvetica,sans-Serif" font-size="10.00">+attack</text>
<text text-anchor="middle" x="293" y="-864" font-family="Helvetica,sans-Serif" font-size="10.00">+level</text>
<text text-anchor="middle" x="293" y="-853" font-family="Helvetica,sans-Serif" font-size="10.00">+maxHealth</text>
<text text-anchor="middle" x="293" y="-842" font-family="Helvetica,sans-Serif" font-size="10.00">+armour</text>
<text text-anchor="middle" x="293" y="-831" font-family="Helvetica,sans-Serif" font-size="10.00">+health</text>
<text text-anchor="middle" x="293" y="-820" font-family="Helvetica,sans-Serif" font-size="10.00">+strength</text>
</g>
<!-- Node10 -->
<g id="node10" class="node"><title>Node10</title>
<g id="a_node10"><a xlink:href="class_c_equipment.html" target="_top" xlink:title="{CEquipment\n||+ CEquipment()\l+ setAttack()\l+ getAttack()\l+ getArmour()\l+ setArmour()\l}">
<polygon fill="none" stroke="black" points="325,-670 325,-771 410,-771 410,-670 325,-670"/>
<text text-anchor="middle" x="367.5" y="-759" font-family="Helvetica,sans-Serif" font-size="10.00">CEquipment</text>
<polyline fill="none" stroke="black" points="325,-752 410,-752 "/>
<text text-anchor="middle" x="367.5" y="-740" font-family="Helvetica,sans-Serif" font-size="10.00"> </text>
<polyline fill="none" stroke="black" points="325,-733 410,-733 "/>
<text text-anchor="start" x="333" y="-721" font-family="Helvetica,sans-Serif" font-size="10.00">+ CEquipment()</text>
<text text-anchor="start" x="333" y="-710" font-family="Helvetica,sans-Serif" font-size="10.00">+ setAttack()</text>
<text text-anchor="start" x="333" y="-699" font-family="Helvetica,sans-Serif" font-size="10.00">+ getAttack()</text>
<text text-anchor="start" x="333" y="-688" font-family="Helvetica,sans-Serif" font-size="10.00">+ getArmour()</text>
<text text-anchor="start" x="333" y="-677" font-family="Helvetica,sans-Serif" font-size="10.00">+ setArmour()</text>
</a>
</g>
</g>
<!-- Node8&#45;&gt;Node10 -->
<g id="edge11" class="edge"><title>Node8&#45;&gt;Node10</title>
<path fill="none" stroke="#404040" d="M280.047,-946.308C292.342,-936.941 309.505,-921.966 319.5,-905 340.019,-870.17 332.27,-856.109 342.5,-817 345.397,-805.925 348.484,-794.127 351.465,-782.738"/>
<polygon fill="none" stroke="#404040" points="351.482,-782.674 349.132,-775.857 354.521,-771.065 356.871,-777.883 351.482,-782.674"/>
<text text-anchor="middle" x="362" y="-864" font-family="Helvetica,sans-Serif" font-size="10.00"> #armour</text>
<text text-anchor="middle" x="362" y="-853" font-family="Helvetica,sans-Serif" font-size="10.00">#attack</text>
</g>
<!-- Node9 -->
<g id="node9" class="node"><title>Node9</title>
<polygon fill="none" stroke="#bfbfbf" points="426,-929 426,-986 467,-986 467,-929 426,-929"/>
<text text-anchor="middle" x="446.5" y="-974" font-family="Helvetica,sans-Serif" font-size="10.00">string</text>
<polyline fill="none" stroke="#bfbfbf" points="426,-967 467,-967 "/>
<text text-anchor="middle" x="446.5" y="-955" font-family="Helvetica,sans-Serif" font-size="10.00"> </text>
<polyline fill="none" stroke="#bfbfbf" points="426,-948 467,-948 "/>
<text text-anchor="middle" x="446.5" y="-936" font-family="Helvetica,sans-Serif" font-size="10.00"> </text>
</g>
<!-- Node9&#45;&gt;Node4 -->
<g id="edge12" class="edge"><title>Node9&#45;&gt;Node4</title>
<path fill="none" stroke="#404040" d="M447.154,-928.998C448.556,-856.682 450.396,-655.311 432.5,-489 432.278,-486.937 432.042,-484.859 431.793,-482.768"/>
<polygon fill="none" stroke="#404040" points="431.77,-482.585 427.035,-477.146 430.235,-470.684 434.969,-476.123 431.77,-482.585"/>
<text text-anchor="middle" x="465" y="-718" font-family="Helvetica,sans-Serif" font-size="10.00"> #name</text>
</g>
<!-- Node9&#45;&gt;Node7 -->
<g id="edge8" class="edge"><title>Node9&#45;&gt;Node7</title>
<path fill="none" stroke="#404040" d="M425.843,-935.408C418.19,-926.608 410.037,-915.904 404.5,-905 386.196,-868.956 409.933,-845.736 381.5,-817 360.115,-795.387 339.865,-817.188 315.5,-799 303.827,-790.286 294.343,-777.82 286.983,-765.427"/>
<polygon fill="none" stroke="#404040" points="286.84,-765.167 280.445,-761.835 281.06,-754.65 287.456,-757.982 286.84,-765.167"/>
<text text-anchor="middle" x="418.5" y="-858.5" font-family="Helvetica,sans-Serif" font-size="10.00"> +race</text>
</g>
<!-- Node11 -->
<g id="node11" class="node"><title>Node11</title>
<g id="a_node11"><a xlink:href="class_c_game_menus.html" target="_top" xlink:title="{CGameMenus\n||+ CGameMenus()\l}">
<polygon fill="none" stroke="black" points="497.5,-692 497.5,-749 591.5,-749 591.5,-692 497.5,-692"/>
<text text-anchor="middle" x="544.5" y="-737" font-family="Helvetica,sans-Serif" font-size="10.00">CGameMenus</text>
<polyline fill="none" stroke="black" points="497.5,-730 591.5,-730 "/>
<text text-anchor="middle" x="544.5" y="-718" font-family="Helvetica,sans-Serif" font-size="10.00"> </text>
<polyline fill="none" stroke="black" points="497.5,-711 591.5,-711 "/>
<text text-anchor="start" x="505.5" y="-699" font-family="Helvetica,sans-Serif" font-size="10.00">+ CGameMenus()</text>
</a>
</g>
</g>
<!-- Node9&#45;&gt;Node11 -->
<g id="edge14" class="edge"><title>Node9&#45;&gt;Node11</title>
<path fill="none" stroke="#404040" d="M452.442,-928.997C460.665,-891.334 475.01,-827.192 479.5,-817 488.472,-796.633 501.879,-775.979 514.191,-759.113"/>
<polygon fill="none" stroke="#404040" points="514.469,-758.741 514.866,-751.541 521.665,-749.138 521.268,-756.338 514.469,-758.741"/>
<text text-anchor="middle" x="517" y="-858.5" font-family="Helvetica,sans-Serif" font-size="10.00"> +greetingScreen</text>
</g>
<!-- Node10&#45;&gt;Node4 -->
<g id="edge10" class="edge"><title>Node10&#45;&gt;Node4</title>
<path fill="none" stroke="#404040" d="M367.504,-669.83C368.066,-623.005 370.373,-550.967 378.5,-489 378.771,-486.931 379.058,-484.847 379.359,-482.751"/>
<polygon fill="none" stroke="#404040" points="379.398,-482.5 376.358,-475.96 381.226,-470.64 384.265,-477.179 379.398,-482.5"/>
<text text-anchor="middle" x="405.5" y="-554" font-family="Helvetica,sans-Serif" font-size="10.00"> #equipment</text>
</g>
<!-- Node11&#45;&gt;Node1 -->
<g id="edge13" class="edge"><title>Node11&#45;&gt;Node1</title>
<path fill="none" stroke="#404040" d="M544.057,-691.904C542.703,-607.433 538.561,-349.197 536.198,-201.88"/>
<polygon fill="none" stroke="#404040" points="536.196,-201.724 532.1,-195.788 536.003,-189.725 540.099,-195.66 536.196,-201.724"/>
<text text-anchor="middle" x="557" y="-351.5" font-family="Helvetica,sans-Serif" font-size="10.00"> #menu</text>
</g>
<!-- Node12 -->
<g id="node12" class="node"><title>Node12</title>
<polygon fill="none" stroke="#bfbfbf" points="521,-923.5 521,-991.5 634,-991.5 634,-923.5 521,-923.5"/>
<text text-anchor="start" x="529" y="-979.5" font-family="Helvetica,sans-Serif" font-size="10.00">vector&lt; std::pair&lt;</text>
<text text-anchor="middle" x="577.5" y="-968.5" font-family="Helvetica,sans-Serif" font-size="10.00"> std::string, action &gt; &gt;</text>
<polyline fill="none" stroke="#bfbfbf" points="521,-961.5 634,-961.5 "/>
<text text-anchor="middle" x="577.5" y="-949.5" font-family="Helvetica,sans-Serif" font-size="10.00"> </text>
<polyline fill="none" stroke="#bfbfbf" points="521,-942.5 634,-942.5 "/>
<text text-anchor="middle" x="577.5" y="-930.5" font-family="Helvetica,sans-Serif" font-size="10.00"> </text>
</g>
<!-- Node12&#45;&gt;Node11 -->
<g id="edge15" class="edge"><title>Node12&#45;&gt;Node11</title>
<path fill="none" stroke="#404040" d="M572.842,-923.329C566.849,-880.655 556.453,-806.617 550.055,-761.057"/>
<polygon fill="none" stroke="#404040" points="550.032,-760.896 545.237,-755.51 548.363,-749.012 553.159,-754.398 550.032,-760.896"/>
<text text-anchor="middle" x="610" y="-864" font-family="Helvetica,sans-Serif" font-size="10.00"> +firstMenuChoice</text>
<text text-anchor="middle" x="610" y="-853" font-family="Helvetica,sans-Serif" font-size="10.00">+standardChoice</text>
</g>
<!-- Node13 -->
<g id="node13" class="node"><title>Node13</title>
<g id="a_node13"><a xlink:href="class_c_storyline.html" target="_top" xlink:title="{CStoryline\n||+ getCurrentEvent()\l+ getEventCount()\l+ moveToNextEvent()\l+ exportData()\l+ update()\l}">
<polygon fill="none" stroke="black" points="586,-303.5 586,-404.5 695,-404.5 695,-303.5 586,-303.5"/>
<text text-anchor="middle" x="640.5" y="-392.5" font-family="Helvetica,sans-Serif" font-size="10.00">CStoryline</text>
<polyline fill="none" stroke="black" points="586,-385.5 695,-385.5 "/>
<text text-anchor="middle" x="640.5" y="-373.5" font-family="Helvetica,sans-Serif" font-size="10.00"> </text>
<polyline fill="none" stroke="black" points="586,-366.5 695,-366.5 "/>
<text text-anchor="start" x="594" y="-354.5" font-family="Helvetica,sans-Serif" font-size="10.00">+ getCurrentEvent()</text>
<text text-anchor="start" x="594" y="-343.5" font-family="Helvetica,sans-Serif" font-size="10.00">+ getEventCount()</text>
<text text-anchor="start" x="594" y="-332.5" font-family="Helvetica,sans-Serif" font-size="10.00">+ moveToNextEvent()</text>
<text text-anchor="start" x="594" y="-321.5" font-family="Helvetica,sans-Serif" font-size="10.00">+ exportData()</text>
<text text-anchor="start" x="594" y="-310.5" font-family="Helvetica,sans-Serif" font-size="10.00">+ update()</text>
</a>
</g>
</g>
<!-- Node13&#45;&gt;Node1 -->
<g id="edge16" class="edge"><title>Node13&#45;&gt;Node1</title>
<path fill="none" stroke="#404040" d="M620.062,-303.448C608.065,-274.36 592.433,-236.461 577.819,-201.027"/>
<polygon fill="none" stroke="#404040" points="577.691,-200.717 571.705,-196.696 573.115,-189.624 579.101,-193.645 577.691,-200.717"/>
<text text-anchor="middle" x="609" y="-211" font-family="Helvetica,sans-Serif" font-size="10.00"> #storyLine</text>
</g>
<!-- Node14 -->
<g id="node14" class="node"><title>Node14</title>
<polygon fill="none" stroke="#bfbfbf" points="610,-692 610,-749 681,-749 681,-692 610,-692"/>
<text text-anchor="middle" x="645.5" y="-737" font-family="Helvetica,sans-Serif" font-size="10.00">vector&lt; int &gt;</text>
<polyline fill="none" stroke="#bfbfbf" points="610,-730 681,-730 "/>
<text text-anchor="middle" x="645.5" y="-718" font-family="Helvetica,sans-Serif" font-size="10.00"> </text>
<polyline fill="none" stroke="#bfbfbf" points="610,-711 681,-711 "/>
<text text-anchor="middle" x="645.5" y="-699" font-family="Helvetica,sans-Serif" font-size="10.00"> </text>
</g>
<!-- Node14&#45;&gt;Node13 -->
<g id="edge17" class="edge"><title>Node14&#45;&gt;Node13</title>
<path fill="none" stroke="#404040" d="M644.067,-691.927C643.143,-672.857 642.022,-646.894 641.5,-624 639.881,-552.963 639.833,-471.346 640.061,-416.818"/>
<polygon fill="none" stroke="#404040" points="640.062,-416.586 636.09,-410.568 640.118,-404.586 644.09,-410.605 640.062,-416.586"/>
<text text-anchor="middle" x="666" y="-554" font-family="Helvetica,sans-Serif" font-size="10.00"> #storyLine</text>
</g>
<!-- Node18 -->
<g id="node18" class="node"><title>Node18</title>
<g id="a_node18"><a xlink:href="class_c_world.html" target="_top" xlink:title="{CWorld\n||+ ~CWorld()\l+ loadWorld()\l+ getItem()\l+ getItemName()\l+ getAllItemID()\l+ getEvent()\l+ getAllEvents()\l+ getCreature()\l+ getAllCreatures()\l+ getStoryline()\l# loadEvents()\l# loadItems()\l# loadCreatures()\l# loadStoryline()\l# validateIDs()\l}">
<polygon fill="none" stroke="black" points="940.5,-248.5 940.5,-459.5 1038.5,-459.5 1038.5,-248.5 940.5,-248.5"/>
<text text-anchor="middle" x="989.5" y="-447.5" font-family="Helvetica,sans-Serif" font-size="10.00">CWorld</text>
<polyline fill="none" stroke="black" points="940.5,-440.5 1038.5,-440.5 "/>
<text text-anchor="middle" x="989.5" y="-428.5" font-family="Helvetica,sans-Serif" font-size="10.00"> </text>
<polyline fill="none" stroke="black" points="940.5,-421.5 1038.5,-421.5 "/>
<text text-anchor="start" x="948.5" y="-409.5" font-family="Helvetica,sans-Serif" font-size="10.00">+ ~CWorld()</text>
<text text-anchor="start" x="948.5" y="-398.5" font-family="Helvetica,sans-Serif" font-size="10.00">+ loadWorld()</text>
<text text-anchor="start" x="948.5" y="-387.5" font-family="Helvetica,sans-Serif" font-size="10.00">+ getItem()</text>
<text text-anchor="start" x="948.5" y="-376.5" font-family="Helvetica,sans-Serif" font-size="10.00">+ getItemName()</text>
<text text-anchor="start" x="948.5" y="-365.5" font-family="Helvetica,sans-Serif" font-size="10.00">+ getAllItemID()</text>
<text text-anchor="start" x="948.5" y="-354.5" font-family="Helvetica,sans-Serif" font-size="10.00">+ getEvent()</text>
<text text-anchor="start" x="948.5" y="-343.5" font-family="Helvetica,sans-Serif" font-size="10.00">+ getAllEvents()</text>
<text text-anchor="start" x="948.5" y="-332.5" font-family="Helvetica,sans-Serif" font-size="10.00">+ getCreature()</text>
<text text-anchor="start" x="948.5" y="-321.5" font-family="Helvetica,sans-Serif" font-size="10.00">+ getAllCreatures()</text>
<text text-anchor="start" x="948.5" y="-310.5" font-family="Helvetica,sans-Serif" font-size="10.00">+ getStoryline()</text>
<text text-anchor="start" x="948.5" y="-299.5" font-family="Helvetica,sans-Serif" font-size="10.00"># loadEvents()</text>
<text text-anchor="start" x="948.5" y="-288.5" font-family="Helvetica,sans-Serif" font-size="10.00"># loadItems()</text>
<text text-anchor="start" x="948.5" y="-277.5" font-family="Helvetica,sans-Serif" font-size="10.00"># loadCreatures()</text>
<text text-anchor="start" x="948.5" y="-266.5" font-family="Helvetica,sans-Serif" font-size="10.00"># loadStoryline()</text>
<text text-anchor="start" x="948.5" y="-255.5" font-family="Helvetica,sans-Serif" font-size="10.00"># validateIDs()</text>
</a>
</g>
</g>
<!-- Node14&#45;&gt;Node18 -->
<g id="edge25" class="edge"><title>Node14&#45;&gt;Node18</title>
<path fill="none" stroke="#404040" d="M658.465,-691.972C684.178,-638.119 741.791,-521.271 772.5,-489 817.288,-441.933 882.027,-404.798 929.13,-381.672"/>
<polygon fill="none" stroke="#404040" points="929.29,-381.595 932.957,-375.385 940.099,-376.382 936.432,-382.591 929.29,-381.595"/>
<text text-anchor="middle" x="795.5" y="-554" font-family="Helvetica,sans-Serif" font-size="10.00"> #storyline</text>
</g>
<!-- Node15 -->
<g id="node15" class="node"><title>Node15</title>
<g id="a_node15"><a xlink:href="class_c_display.html" target="_top" xlink:title="{CDisplay\n||+ CDisplay()\l+ multiChoice()\l+ getString()\l+ getNumber()\l+ wait()\l+ print()\l+ printDelimiter()\l+ printWithDelimiter()\l+ printError()\l+ dumpToNewLine()\l}">
<polygon fill="none" stroke="black" points="1280,-642.5 1280,-798.5 1389,-798.5 1389,-642.5 1280,-642.5"/>
<text text-anchor="middle" x="1334.5" y="-786.5" font-family="Helvetica,sans-Serif" font-size="10.00">CDisplay</text>
<polyline fill="none" stroke="black" points="1280,-779.5 1389,-779.5 "/>
<text text-anchor="middle" x="1334.5" y="-767.5" font-family="Helvetica,sans-Serif" font-size="10.00"> </text>
<polyline fill="none" stroke="black" points="1280,-760.5 1389,-760.5 "/>
<text text-anchor="start" x="1288" y="-748.5" font-family="Helvetica,sans-Serif" font-size="10.00">+ CDisplay()</text>
<text text-anchor="start" x="1288" y="-737.5" font-family="Helvetica,sans-Serif" font-size="10.00">+ multiChoice()</text>
<text text-anchor="start" x="1288" y="-726.5" font-family="Helvetica,sans-Serif" font-size="10.00">+ getString()</text>
<text text-anchor="start" x="1288" y="-715.5" font-family="Helvetica,sans-Serif" font-size="10.00">+ getNumber()</text>
<text text-anchor="start" x="1288" y="-704.5" font-family="Helvetica,sans-Serif" font-size="10.00">+ wait()</text>
<text text-anchor="start" x="1288" y="-693.5" font-family="Helvetica,sans-Serif" font-size="10.00">+ print()</text>
<text text-anchor="start" x="1288" y="-682.5" font-family="Helvetica,sans-Serif" font-size="10.00">+ printDelimiter()</text>
<text text-anchor="start" x="1288" y="-671.5" font-family="Helvetica,sans-Serif" font-size="10.00">+ printWithDelimiter()</text>
<text text-anchor="start" x="1288" y="-660.5" font-family="Helvetica,sans-Serif" font-size="10.00">+ printError()</text>
<text text-anchor="start" x="1288" y="-649.5" font-family="Helvetica,sans-Serif" font-size="10.00">+ dumpToNewLine()</text>
</a>
</g>
</g>
<!-- Node15&#45;&gt;Node1 -->
<g id="edge18" class="edge"><title>Node15&#45;&gt;Node1</title>
<path fill="none" stroke="#404040" d="M1340.8,-642.443C1341.45,-595.836 1336.52,-536.452 1313.5,-489 1242.43,-342.477 1189.36,-316.969 1047.5,-237 900.164,-153.946 701.136,-117.566 599.746,-103.583"/>
<polygon fill="none" stroke="#404040" points="599.473,-103.547 592.994,-106.712 587.58,-101.949 594.059,-98.7834 599.473,-103.547"/>
<text text-anchor="middle" x="1324.5" y="-351.5" font-family="Helvetica,sans-Serif" font-size="10.00"> #display</text>
</g>
<!-- Node15&#45;&gt;Node18 -->
<g id="edge27" class="edge"><title>Node15&#45;&gt;Node18</title>
<path fill="none" stroke="#404040" d="M1284.58,-642.395C1280.78,-636.204 1277.04,-630.019 1273.5,-624 1238.9,-565.219 1247.01,-538.893 1200.5,-489 1157.58,-442.962 1095.56,-406.078 1049.87,-382.753"/>
<polygon fill="none" stroke="#404040" points="1049.64,-382.64 1042.49,-383.527 1038.92,-377.262 1046.07,-376.375 1049.64,-382.64"/>
<text text-anchor="middle" x="1293.5" y="-554" font-family="Helvetica,sans-Serif" font-size="10.00"> #display</text>
</g>
<!-- Node16 -->
<g id="node16" class="node"><title>Node16</title>
<polygon fill="none" stroke="#bfbfbf" points="1263.5,-929 1263.5,-986 1325.5,-986 1325.5,-929 1263.5,-929"/>
<text text-anchor="middle" x="1294.5" y="-974" font-family="Helvetica,sans-Serif" font-size="10.00">ostream &amp;</text>
<polyline fill="none" stroke="#bfbfbf" points="1263.5,-967 1325.5,-967 "/>
<text text-anchor="middle" x="1294.5" y="-955" font-family="Helvetica,sans-Serif" font-size="10.00"> </text>
<polyline fill="none" stroke="#bfbfbf" points="1263.5,-948 1325.5,-948 "/>
<text text-anchor="middle" x="1294.5" y="-936" font-family="Helvetica,sans-Serif" font-size="10.00"> </text>
</g>
<!-- Node16&#45;&gt;Node15 -->
<g id="edge19" class="edge"><title>Node16&#45;&gt;Node15</title>
<path fill="none" stroke="#404040" d="M1292.63,-928.937C1291.32,-900.581 1290.96,-855.272 1298.5,-817 1298.93,-814.813 1299.41,-812.611 1299.92,-810.4"/>
<polygon fill="none" stroke="#404040" points="1299.99,-810.141 1297.63,-803.326 1303.02,-798.529 1305.37,-805.344 1299.99,-810.141"/>
<text text-anchor="middle" x="1323" y="-858.5" font-family="Helvetica,sans-Serif" font-size="10.00"> #outputStr</text>
</g>
<!-- Node17 -->
<g id="node17" class="node"><title>Node17</title>
<polygon fill="none" stroke="#bfbfbf" points="1344,-929 1344,-986 1403,-986 1403,-929 1344,-929"/>
<text text-anchor="middle" x="1373.5" y="-974" font-family="Helvetica,sans-Serif" font-size="10.00">istream &amp;</text>
<polyline fill="none" stroke="#bfbfbf" points="1344,-967 1403,-967 "/>
<text text-anchor="middle" x="1373.5" y="-955" font-family="Helvetica,sans-Serif" font-size="10.00"> </text>
<polyline fill="none" stroke="#bfbfbf" points="1344,-948 1403,-948 "/>
<text text-anchor="middle" x="1373.5" y="-936" font-family="Helvetica,sans-Serif" font-size="10.00"> </text>
</g>
<!-- Node17&#45;&gt;Node15 -->
<g id="edge20" class="edge"><title>Node17&#45;&gt;Node15</title>
<path fill="none" stroke="#404040" d="M1368.87,-928.62C1364.05,-899.565 1356.24,-852.512 1349.29,-810.591"/>
<polygon fill="none" stroke="#404040" points="1349.27,-810.474 1344.34,-805.21 1347.3,-798.636 1352.23,-803.9 1349.27,-810.474"/>
<text text-anchor="middle" x="1386" y="-858.5" font-family="Helvetica,sans-Serif" font-size="10.00"> #inputStr</text>
</g>
<!-- Node18&#45;&gt;Node1 -->
<g id="edge21" class="edge"><title>Node18&#45;&gt;Node1</title>
<path fill="none" stroke="#404040" d="M940.375,-325.252C857.485,-278.433 689.932,-183.794 598.154,-131.954"/>
<polygon fill="none" stroke="#404040" points="598.067,-131.905 590.876,-132.437 587.619,-126.003 594.81,-125.471 598.067,-131.905"/>
<text text-anchor="middle" x="764" y="-211" font-family="Helvetica,sans-Serif" font-size="10.00"> #world</text>
</g>
<!-- Node19 -->
<g id="node19" class="node"><title>Node19</title>
<polygon fill="none" stroke="#bfbfbf" points="846,-692 846,-749 993,-749 993,-692 846,-692"/>
<text text-anchor="middle" x="919.5" y="-737" font-family="Helvetica,sans-Serif" font-size="10.00">map&lt; int, const CCreature * &gt;</text>
<polyline fill="none" stroke="#bfbfbf" points="846,-730 993,-730 "/>
<text text-anchor="middle" x="919.5" y="-718" font-family="Helvetica,sans-Serif" font-size="10.00"> </text>
<polyline fill="none" stroke="#bfbfbf" points="846,-711 993,-711 "/>
<text text-anchor="middle" x="919.5" y="-699" font-family="Helvetica,sans-Serif" font-size="10.00"> </text>
</g>
<!-- Node19&#45;&gt;Node18 -->
<g id="edge22" class="edge"><title>Node19&#45;&gt;Node18</title>
<path fill="none" stroke="#404040" d="M924.819,-691.804C933.741,-645.345 952.212,-549.163 967.14,-471.433"/>
<polygon fill="none" stroke="#404040" points="967.146,-471.402 964.349,-464.755 969.409,-459.617 972.206,-466.264 967.146,-471.402"/>
<text text-anchor="middle" x="988" y="-554" font-family="Helvetica,sans-Serif" font-size="10.00"> #creatures</text>
</g>
<!-- Node20 -->
<g id="node20" class="node"><title>Node20</title>
<g id="a_node20"><a xlink:href="class_i_ohandle.html" target="_top" xlink:title="{IOhandle\n||+ loadEvent()\l+ loadEventOrder()\l+ loadCreature()\l+ loadShopItem()\l# dumpLine()\l}">
<polygon fill="none" stroke="black" points="1011.5,-670 1011.5,-771 1109.5,-771 1109.5,-670 1011.5,-670"/>
<text text-anchor="middle" x="1060.5" y="-759" font-family="Helvetica,sans-Serif" font-size="10.00">IOhandle</text>
<polyline fill="none" stroke="black" points="1011.5,-752 1109.5,-752 "/>
<text text-anchor="middle" x="1060.5" y="-740" font-family="Helvetica,sans-Serif" font-size="10.00"> </text>
<polyline fill="none" stroke="black" points="1011.5,-733 1109.5,-733 "/>
<text text-anchor="start" x="1019.5" y="-721" font-family="Helvetica,sans-Serif" font-size="10.00">+ loadEvent()</text>
<text text-anchor="start" x="1019.5" y="-710" font-family="Helvetica,sans-Serif" font-size="10.00">+ loadEventOrder()</text>
<text text-anchor="start" x="1019.5" y="-699" font-family="Helvetica,sans-Serif" font-size="10.00">+ loadCreature()</text>
<text text-anchor="start" x="1019.5" y="-688" font-family="Helvetica,sans-Serif" font-size="10.00">+ loadShopItem()</text>
<text text-anchor="start" x="1019.5" y="-677" font-family="Helvetica,sans-Serif" font-size="10.00"># dumpLine()</text>
</a>
</g>
</g>
<!-- Node20&#45;&gt;Node18 -->
<g id="edge23" class="edge"><title>Node20&#45;&gt;Node18</title>
<path fill="none" stroke="#404040" d="M1051.12,-669.562C1042.31,-622.855 1028.7,-551.166 1016.5,-489 1015.39,-483.331 1014.24,-477.528 1013.08,-471.669"/>
<polygon fill="none" stroke="#404040" points="1013.02,-471.356 1007.93,-466.251 1010.68,-459.586 1015.77,-464.691 1013.02,-471.356"/>
<text text-anchor="middle" x="1066" y="-554" font-family="Helvetica,sans-Serif" font-size="10.00"> #iOhandle</text>
</g>
<!-- Node21 -->
<g id="node21" class="node"><title>Node21</title>
<polygon fill="none" stroke="#bfbfbf" points="1127.5,-692 1127.5,-749 1261.5,-749 1261.5,-692 1127.5,-692"/>
<text text-anchor="middle" x="1194.5" y="-737" font-family="Helvetica,sans-Serif" font-size="10.00">map&lt; int, const CEvent * &gt;</text>
<polyline fill="none" stroke="#bfbfbf" points="1127.5,-730 1261.5,-730 "/>
<text text-anchor="middle" x="1194.5" y="-718" font-family="Helvetica,sans-Serif" font-size="10.00"> </text>
<polyline fill="none" stroke="#bfbfbf" points="1127.5,-711 1261.5,-711 "/>
<text text-anchor="middle" x="1194.5" y="-699" font-family="Helvetica,sans-Serif" font-size="10.00"> </text>
</g>
<!-- Node21&#45;&gt;Node18 -->
<g id="edge24" class="edge"><title>Node21&#45;&gt;Node18</title>
<path fill="none" stroke="#404040" d="M1184.91,-691.816C1168.98,-647.426 1134.7,-558.284 1093.5,-489 1079.73,-465.843 1062.52,-442.124 1046.09,-421.201"/>
<polygon fill="none" stroke="#404040" points="1046.08,-421.188 1039.21,-418.983 1038.6,-411.797 1045.47,-414.002 1046.08,-421.188"/>
<text text-anchor="middle" x="1178" y="-554" font-family="Helvetica,sans-Serif" font-size="10.00"> #events</text>
</g>
<!-- Node22 -->
<g id="node22" class="node"><title>Node22</title>
<polygon fill="none" stroke="#bfbfbf" points="699,-692 699,-749 828,-749 828,-692 699,-692"/>
<text text-anchor="middle" x="763.5" y="-737" font-family="Helvetica,sans-Serif" font-size="10.00">map&lt; int, const CItem * &gt;</text>
<polyline fill="none" stroke="#bfbfbf" points="699,-730 828,-730 "/>
<text text-anchor="middle" x="763.5" y="-718" font-family="Helvetica,sans-Serif" font-size="10.00"> </text>
<polyline fill="none" stroke="#bfbfbf" points="699,-711 828,-711 "/>
<text text-anchor="middle" x="763.5" y="-699" font-family="Helvetica,sans-Serif" font-size="10.00"> </text>
</g>
<!-- Node22&#45;&gt;Node18 -->
<g id="edge26" class="edge"><title>Node22&#45;&gt;Node18</title>
<path fill="none" stroke="#404040" d="M779.492,-691.955C804.835,-648.495 856.018,-561.501 901.5,-489 911.727,-472.697 922.85,-455.425 933.638,-438.896"/>
<polygon fill="none" stroke="#404040" points="933.73,-438.757 933.669,-431.546 940.301,-428.716 940.362,-435.927 933.73,-438.757"/>
<text text-anchor="middle" x="918" y="-554" font-family="Helvetica,sans-Serif" font-size="10.00"> #items</text>
</g>
<!-- Node23 -->
<g id="node23" class="node"><title>Node23</title>
<g id="a_node23"><a xlink:href="class_c_stream_decoder.html" target="_top" xlink:title="{CStreamDecoder\n||+ getStringAsInt()\l+ getString()\l+ getText()\l+ getNumbers()\l+ getNumbers()\l+ getNumbersAsString()\l+ decodePlayerData()\l}">
<polygon fill="none" stroke="black" points="1407.5,-659 1407.5,-782 1529.5,-782 1529.5,-659 1407.5,-659"/>
<text text-anchor="middle" x="1468.5" y="-770" font-family="Helvetica,sans-Serif" font-size="10.00">CStreamDecoder</text>
<polyline fill="none" stroke="black" points="1407.5,-763 1529.5,-763 "/>
<text text-anchor="middle" x="1468.5" y="-751" font-family="Helvetica,sans-Serif" font-size="10.00"> </text>
<polyline fill="none" stroke="black" points="1407.5,-744 1529.5,-744 "/>
<text text-anchor="start" x="1415.5" y="-732" font-family="Helvetica,sans-Serif" font-size="10.00">+ getStringAsInt()</text>
<text text-anchor="start" x="1415.5" y="-721" font-family="Helvetica,sans-Serif" font-size="10.00">+ getString()</text>
<text text-anchor="start" x="1415.5" y="-710" font-family="Helvetica,sans-Serif" font-size="10.00">+ getText()</text>
<text text-anchor="start" x="1415.5" y="-699" font-family="Helvetica,sans-Serif" font-size="10.00">+ getNumbers()</text>
<text text-anchor="start" x="1415.5" y="-688" font-family="Helvetica,sans-Serif" font-size="10.00">+ getNumbers()</text>
<text text-anchor="start" x="1415.5" y="-677" font-family="Helvetica,sans-Serif" font-size="10.00">+ getNumbersAsString()</text>
<text text-anchor="start" x="1415.5" y="-666" font-family="Helvetica,sans-Serif" font-size="10.00">+ decodePlayerData()</text>
</a>
</g>
</g>
<!-- Node23&#45;&gt;Node1 -->
<g id="edge29" class="edge"><title>Node23&#45;&gt;Node1</title>
<path fill="none" stroke="#404040" d="M1473.93,-658.688C1479.51,-554.073 1473.7,-341.259 1348.5,-237 1234.4,-141.986 772.398,-108.431 599.888,-99.0725"/>
<polygon fill="none" stroke="#404040" points="599.716,-99.0635 593.513,-102.74 587.733,-98.4274 593.937,-94.7511 599.716,-99.0635"/>
<text text-anchor="middle" x="1486" y="-351.5" font-family="Helvetica,sans-Serif" font-size="10.00"> #decoder</text>
</g>
<!-- Node23&#45;&gt;Node18 -->
<g id="edge28" class="edge"><title>Node23&#45;&gt;Node18</title>
<path fill="none" stroke="#404040" d="M1422.84,-658.958C1414.55,-647.48 1406.12,-635.472 1398.5,-624 1359.78,-565.721 1370.6,-534.563 1317.5,-489 1238.72,-421.412 1121.29,-384.706 1050.39,-367.535"/>
<polygon fill="none" stroke="#404040" points="1050.25,-367.502 1043.49,-370.019 1038.57,-364.749 1045.33,-362.232 1050.25,-367.502"/>
<text text-anchor="middle" x="1420" y="-554" font-family="Helvetica,sans-Serif" font-size="10.00"> #decoder</text>
</g>
<!-- Node24&#45;&gt;Node1 -->
<g id="edge30" class="edge"><title>Node24&#45;&gt;Node1</title>
<path fill="none" stroke="#404040" d="M79.0348,-500.619C84.1282,-496.118 89.6328,-492.111 95.5,-489 129.452,-470.995 239.621,-497.451 267.5,-471 343.883,-398.529 246.022,-324.56 304.5,-237 343.76,-178.216 416.67,-139.737 469.908,-118.053"/>
<polygon fill="none" stroke="#404040" points="470.13,-117.965 474.237,-112.038 481.288,-113.549 477.18,-119.476 470.13,-117.965"/>
<text text-anchor="middle" x="328.5" y="-351.5" font-family="Helvetica,sans-Serif" font-size="10.00"> #shopping</text>
</g>
</g>
</svg>
