<?xml version="1.0" encoding="UTF-8" standalone="no"?>
<!DOCTYPE svg PUBLIC "-//W3C//DTD SVG 1.1//EN"
 "http://www.w3.org/Graphics/SVG/1.1/DTD/svg11.dtd">
<!-- Generated by graphviz version 2.38.0 (20140413.2041)
 -->
<!-- Title: CGame::exportPlayerData Pages: 1 -->
<svg width="710pt" height="66pt"
 viewBox="0.00 0.00 710.00 66.00" xmlns="http://www.w3.org/2000/svg" xmlns:xlink="http://www.w3.org/1999/xlink">
<g id="graph0" class="graph" transform="scale(1 1) rotate(0) translate(4 62)">
<title>CGame::exportPlayerData</title>
<!-- Node104 -->
<g id="node1" class="node"><title>Node104</title>
<polygon fill="#bfbfbf" stroke="black" points="0,-19.5 0,-38.5 131,-38.5 131,-19.5 0,-19.5"/>
<text text-anchor="middle" x="65.5" y="-26.5" font-family="Helvetica,sans-Serif" font-size="10.00">CGame::exportPlayerData</text>
</g>
<!-- Node105 -->
<g id="node2" class="node"><title>Node105</title>
<g id="a_node2"><a xlink:href="class_c_game.html#a49656fe4404b3df63f2dbebd9b754edd" target="_top" xlink:title="CGame::saveGame">
<polygon fill="none" stroke="black" points="167,-19.5 167,-38.5 268,-38.5 268,-19.5 167,-19.5"/>
<text text-anchor="middle" x="217.5" y="-26.5" font-family="Helvetica,sans-Serif" font-size="10.00">CGame::saveGame</text>
</a>
</g>
</g>
<!-- Node104&#45;&gt;Node105 -->
<g id="edge1" class="edge"><title>Node104&#45;&gt;Node105</title>
<path fill="none" stroke="midnightblue" d="M141.495,-29C150.101,-29 158.707,-29 166.86,-29"/>
<polygon fill="midnightblue" stroke="midnightblue" points="141.42,-25.5001 131.42,-29 141.42,-32.5001 141.42,-25.5001"/>
</g>
<!-- Node106 -->
<g id="node3" class="node"><title>Node106</title>
<g id="a_node3"><a xlink:href="class_c_game.html#a714b291af5e20aae8be14a905fd0522d" target="_top" xlink:title="CGame::tickComponent">
<polygon fill="none" stroke="black" points="304,-19.5 304,-38.5 425,-38.5 425,-19.5 304,-19.5"/>
<text text-anchor="middle" x="364.5" y="-26.5" font-family="Helvetica,sans-Serif" font-size="10.00">CGame::tickComponent</text>
</a>
</g>
</g>
<!-- Node105&#45;&gt;Node106 -->
<g id="edge2" class="edge"><title>Node105&#45;&gt;Node106</title>
<path fill="none" stroke="midnightblue" d="M278.451,-29C286.81,-29 295.398,-29 303.753,-29"/>
<polygon fill="midnightblue" stroke="midnightblue" points="278.401,-25.5001 268.401,-29 278.401,-32.5001 278.401,-25.5001"/>
</g>
<!-- Node107 -->
<g id="node4" class="node"><title>Node107</title>
<g id="a_node4"><a xlink:href="class_c_game.html#aa9d3da2fefa1c04faefc6586dbd37971" target="_top" xlink:title="CGame::play">
<polygon fill="none" stroke="black" points="461,-0.5 461,-19.5 535,-19.5 535,-0.5 461,-0.5"/>
<text text-anchor="middle" x="498" y="-7.5" font-family="Helvetica,sans-Serif" font-size="10.00">CGame::play</text>
</a>
</g>
</g>
<!-- Node106&#45;&gt;Node107 -->
<g id="edge3" class="edge"><title>Node106&#45;&gt;Node107</title>
<path fill="none" stroke="midnightblue" d="M435.157,-18.9354C444.065,-17.6483 452.878,-16.3751 460.937,-15.2107"/>
<polygon fill="midnightblue" stroke="midnightblue" points="434.491,-15.4953 425.094,-20.3895 435.492,-22.4234 434.491,-15.4953"/>
</g>
<!-- Node108 -->
<g id="node5" class="node"><title>Node108</title>
<g id="a_node5"><a xlink:href="class_c_game.html#ac0a8028013ca5a7c135c29fa582df4a0" target="_top" xlink:title="CGame::checkHeroStatus">
<polygon fill="none" stroke="black" points="571,-38.5 571,-57.5 702,-57.5 702,-38.5 571,-38.5"/>
<text text-anchor="middle" x="636.5" y="-45.5" font-family="Helvetica,sans-Serif" font-size="10.00">CGame::checkHeroStatus</text>
</a>
</g>
</g>
<!-- Node107&#45;&gt;Node108 -->
<g id="edge4" class="edge"><title>Node107&#45;&gt;Node108</title>
<path fill="none" stroke="midnightblue" d="M543.249,-22.3183C562.003,-27.5393 583.528,-33.5316 601.066,-38.4141"/>
<polygon fill="midnightblue" stroke="midnightblue" points="544.017,-18.8992 533.445,-19.589 542.14,-25.6428 544.017,-18.8992"/>
</g>
<!-- Node109 -->
<g id="node6" class="node"><title>Node109</title>
<g id="a_node6"><a xlink:href="main_8cpp.html#ae66f6b31b5ad750f1fe042a706a4e3d4" target="_top" xlink:title="main">
<polygon fill="none" stroke="black" points="617.5,-0.5 617.5,-19.5 655.5,-19.5 655.5,-0.5 617.5,-0.5"/>
<text text-anchor="middle" x="636.5" y="-7.5" font-family="Helvetica,sans-Serif" font-size="10.00">main</text>
</a>
</g>
</g>
<!-- Node107&#45;&gt;Node109 -->
<g id="edge6" class="edge"><title>Node107&#45;&gt;Node109</title>
<path fill="none" stroke="midnightblue" d="M545.458,-10C570.045,-10 598.849,-10 617.132,-10"/>
<polygon fill="midnightblue" stroke="midnightblue" points="545.221,-6.5001 535.221,-10 545.221,-13.5001 545.221,-6.5001"/>
</g>
<!-- Node108&#45;&gt;Node106 -->
<g id="edge5" class="edge"><title>Node108&#45;&gt;Node106</title>
<path fill="none" stroke="midnightblue" d="M560.793,-42.7429C518.008,-39.7321 465.055,-36.0057 425.087,-33.1932"/>
<polygon fill="midnightblue" stroke="midnightblue" points="560.654,-46.2416 570.875,-43.4523 561.146,-39.2589 560.654,-46.2416"/>
</g>
</g>
</svg>
