<?xml version="1.0" encoding="UTF-8" standalone="no"?>
<!DOCTYPE svg PUBLIC "-//W3C//DTD SVG 1.1//EN"
 "http://www.w3.org/Graphics/SVG/1.1/DTD/svg11.dtd">
<!-- Generated by graphviz version 2.38.0 (20140413.2041)
 -->
<!-- Title: CItem Pages: 1 -->
<svg width="200pt" height="314pt"
 viewBox="0.00 0.00 200.00 314.00" xmlns="http://www.w3.org/2000/svg" xmlns:xlink="http://www.w3.org/1999/xlink">
<g id="graph0" class="graph" transform="scale(1 1) rotate(0) translate(4 310)">
<title>CItem</title>
<!-- Node0 -->
<g id="node1" class="node"><title>Node0</title>
<polygon fill="#bfbfbf" stroke="black" points="52,-138.5 52,-305.5 139,-305.5 139,-138.5 52,-138.5"/>
<text text-anchor="middle" x="95.5" y="-293.5" font-family="Helvetica,sans-Serif" font-size="10.00">CItem</text>
<polyline fill="none" stroke="black" points="52,-286.5 139,-286.5 "/>
<text text-anchor="start" x="60" y="-274.5" font-family="Helvetica,sans-Serif" font-size="10.00"># itemID</text>
<text text-anchor="start" x="60" y="-263.5" font-family="Helvetica,sans-Serif" font-size="10.00"># price</text>
<text text-anchor="start" x="60" y="-252.5" font-family="Helvetica,sans-Serif" font-size="10.00"># name</text>
<polyline fill="none" stroke="black" points="52,-245.5 139,-245.5 "/>
<text text-anchor="start" x="60" y="-233.5" font-family="Helvetica,sans-Serif" font-size="10.00">+ CItem()</text>
<text text-anchor="start" x="60" y="-222.5" font-family="Helvetica,sans-Serif" font-size="10.00">+ CItem()</text>
<text text-anchor="start" x="60" y="-211.5" font-family="Helvetica,sans-Serif" font-size="10.00">+ ~CItem()</text>
<text text-anchor="start" x="60" y="-200.5" font-family="Helvetica,sans-Serif" font-size="10.00">+ useItem()</text>
<text text-anchor="start" x="60" y="-189.5" font-family="Helvetica,sans-Serif" font-size="10.00">+ getID()</text>
<text text-anchor="start" x="60" y="-178.5" font-family="Helvetica,sans-Serif" font-size="10.00">+ getPrice()</text>
<text text-anchor="start" x="60" y="-167.5" font-family="Helvetica,sans-Serif" font-size="10.00">+ getName()</text>
<text text-anchor="start" x="60" y="-156.5" font-family="Helvetica,sans-Serif" font-size="10.00">+ print()</text>
<text text-anchor="start" x="60" y="-145.5" font-family="Helvetica,sans-Serif" font-size="10.00">+ printForShop()</text>
</g>
<!-- Node1 -->
<g id="node2" class="node"><title>Node1</title>
<g id="a_node2"><a xlink:href="class_c_armour.html" target="_top" xlink:title="{CArmour\n|# defense\l|+ CArmour()\l+ CArmour()\l+ useItem()\l+ print()\l+ printForShop()\l}">
<polygon fill="none" stroke="black" points="0,-0.5 0,-101.5 87,-101.5 87,-0.5 0,-0.5"/>
<text text-anchor="middle" x="43.5" y="-89.5" font-family="Helvetica,sans-Serif" font-size="10.00">CArmour</text>
<polyline fill="none" stroke="black" points="0,-82.5 87,-82.5 "/>
<text text-anchor="start" x="8" y="-70.5" font-family="Helvetica,sans-Serif" font-size="10.00"># defense</text>
<polyline fill="none" stroke="black" points="0,-63.5 87,-63.5 "/>
<text text-anchor="start" x="8" y="-51.5" font-family="Helvetica,sans-Serif" font-size="10.00">+ CArmour()</text>
<text text-anchor="start" x="8" y="-40.5" font-family="Helvetica,sans-Serif" font-size="10.00">+ CArmour()</text>
<text text-anchor="start" x="8" y="-29.5" font-family="Helvetica,sans-Serif" font-size="10.00">+ useItem()</text>
<text text-anchor="start" x="8" y="-18.5" font-family="Helvetica,sans-Serif" font-size="10.00">+ print()</text>
<text text-anchor="start" x="8" y="-7.5" font-family="Helvetica,sans-Serif" font-size="10.00">+ printForShop()</text>
</a>
</g>
</g>
<!-- Node0&#45;&gt;Node1 -->
<g id="edge1" class="edge"><title>Node0&#45;&gt;Node1</title>
<path fill="none" stroke="midnightblue" d="M67.1206,-128.767C64.2605,-119.471 61.439,-110.302 58.7964,-101.713"/>
<polygon fill="none" stroke="midnightblue" points="63.8232,-129.952 70.1093,-138.48 70.5136,-127.893 63.8232,-129.952"/>
</g>
<!-- Node2 -->
<g id="node3" class="node"><title>Node2</title>
<g id="a_node3"><a xlink:href="class_c_sword.html" target="_top" xlink:title="{CSword\n|# attack\l|+ CSword()\l+ useItem()\l+ print()\l+ printForShop()\l}">
<polygon fill="none" stroke="black" points="105,-6 105,-96 192,-96 192,-6 105,-6"/>
<text text-anchor="middle" x="148.5" y="-84" font-family="Helvetica,sans-Serif" font-size="10.00">CSword</text>
<polyline fill="none" stroke="black" points="105,-77 192,-77 "/>
<text text-anchor="start" x="113" y="-65" font-family="Helvetica,sans-Serif" font-size="10.00"># attack</text>
<polyline fill="none" stroke="black" points="105,-58 192,-58 "/>
<text text-anchor="start" x="113" y="-46" font-family="Helvetica,sans-Serif" font-size="10.00">+ CSword()</text>
<text text-anchor="start" x="113" y="-35" font-family="Helvetica,sans-Serif" font-size="10.00">+ useItem()</text>
<text text-anchor="start" x="113" y="-24" font-family="Helvetica,sans-Serif" font-size="10.00">+ print()</text>
<text text-anchor="start" x="113" y="-13" font-family="Helvetica,sans-Serif" font-size="10.00">+ printForShop()</text>
</a>
</g>
</g>
<!-- Node0&#45;&gt;Node2 -->
<g id="edge2" class="edge"><title>Node0&#45;&gt;Node2</title>
<path fill="none" stroke="midnightblue" d="M124.377,-128.92C127.937,-117.568 131.44,-106.4 134.625,-96.2441"/>
<polygon fill="none" stroke="midnightblue" points="121.032,-127.891 121.379,-138.48 127.711,-129.986 121.032,-127.891"/>
</g>
</g>
</svg>
