<?xml version="1.0" encoding="UTF-8" standalone="no"?>
<!DOCTYPE svg PUBLIC "-//W3C//DTD SVG 1.1//EN"
 "http://www.w3.org/Graphics/SVG/1.1/DTD/svg11.dtd">
<!-- Generated by graphviz version 2.38.0 (20140413.2041)
 -->
<!-- Title: CHero::getArmour Pages: 1 -->
<svg width="665pt" height="85pt"
 viewBox="0.00 0.00 665.00 85.00" xmlns="http://www.w3.org/2000/svg" xmlns:xlink="http://www.w3.org/1999/xlink">
<g id="graph0" class="graph" transform="scale(1 1) rotate(0) translate(4 81)">
<title>CHero::getArmour</title>
<!-- Node35 -->
<g id="node1" class="node"><title>Node35</title>
<polygon fill="#bfbfbf" stroke="black" points="0,-38.5 0,-57.5 95,-57.5 95,-38.5 0,-38.5"/>
<text text-anchor="middle" x="47.5" y="-45.5" font-family="Helvetica,sans-Serif" font-size="10.00">CHero::getArmour</text>
</g>
<!-- Node36 -->
<g id="node2" class="node"><title>Node36</title>
<g id="a_node2"><a xlink:href="class_c_hero.html#a7cda26a24b8e70fc2ffe829e9c984b7e" target="_top" xlink:title="CHero::fight">
<polygon fill="none" stroke="black" points="143,-57.5 143,-76.5 211,-76.5 211,-57.5 143,-57.5"/>
<text text-anchor="middle" x="177" y="-64.5" font-family="Helvetica,sans-Serif" font-size="10.00">CHero::fight</text>
</a>
</g>
</g>
<!-- Node35&#45;&gt;Node36 -->
<g id="edge1" class="edge"><title>Node35&#45;&gt;Node36</title>
<path fill="none" stroke="midnightblue" d="M105.397,-56.4787C118.195,-58.386 131.367,-60.3488 142.816,-62.0549"/>
<polygon fill="midnightblue" stroke="midnightblue" points="105.659,-52.9792 95.2523,-54.967 104.627,-59.9028 105.659,-52.9792"/>
</g>
<!-- Node38 -->
<g id="node4" class="node"><title>Node38</title>
<g id="a_node4"><a xlink:href="class_c_hero.html#a0232f04b4e49227ba90a8922135d4102" target="_top" xlink:title="CHero::printStats">
<polygon fill="none" stroke="black" points="131,-19.5 131,-38.5 223,-38.5 223,-19.5 131,-19.5"/>
<text text-anchor="middle" x="177" y="-26.5" font-family="Helvetica,sans-Serif" font-size="10.00">CHero::printStats</text>
</a>
</g>
</g>
<!-- Node35&#45;&gt;Node38 -->
<g id="edge3" class="edge"><title>Node35&#45;&gt;Node38</title>
<path fill="none" stroke="midnightblue" d="M105.243,-39.5442C113.853,-38.2611 122.636,-36.9523 130.953,-35.7129"/>
<polygon fill="midnightblue" stroke="midnightblue" points="104.627,-36.0972 95.2523,-41.033 105.659,-43.0208 104.627,-36.0972"/>
</g>
<!-- Node37 -->
<g id="node3" class="node"><title>Node37</title>
<g id="a_node3"><a xlink:href="class_c_fight.html#ac820b62e70990ddc90ecb959f4497f8f" target="_top" xlink:title="CFight::execute">
<polygon fill="none" stroke="black" points="276.5,-57.5 276.5,-76.5 362.5,-76.5 362.5,-57.5 276.5,-57.5"/>
<text text-anchor="middle" x="319.5" y="-64.5" font-family="Helvetica,sans-Serif" font-size="10.00">CFight::execute</text>
</a>
</g>
</g>
<!-- Node36&#45;&gt;Node37 -->
<g id="edge2" class="edge"><title>Node36&#45;&gt;Node37</title>
<path fill="none" stroke="midnightblue" d="M221.761,-67C239.171,-67 259.124,-67 276.369,-67"/>
<polygon fill="midnightblue" stroke="midnightblue" points="221.297,-63.5001 211.297,-67 221.297,-70.5001 221.297,-63.5001"/>
</g>
<!-- Node39 -->
<g id="node5" class="node"><title>Node39</title>
<g id="a_node5"><a xlink:href="class_c_game.html#a714b291af5e20aae8be14a905fd0522d" target="_top" xlink:title="CGame::tickComponent">
<polygon fill="none" stroke="black" points="259,-19.5 259,-38.5 380,-38.5 380,-19.5 259,-19.5"/>
<text text-anchor="middle" x="319.5" y="-26.5" font-family="Helvetica,sans-Serif" font-size="10.00">CGame::tickComponent</text>
</a>
</g>
</g>
<!-- Node38&#45;&gt;Node39 -->
<g id="edge4" class="edge"><title>Node38&#45;&gt;Node39</title>
<path fill="none" stroke="midnightblue" d="M233.325,-29C241.753,-29 250.482,-29 258.995,-29"/>
<polygon fill="midnightblue" stroke="midnightblue" points="233.228,-25.5001 223.228,-29 233.228,-32.5001 233.228,-25.5001"/>
</g>
<!-- Node40 -->
<g id="node6" class="node"><title>Node40</title>
<g id="a_node6"><a xlink:href="class_c_game.html#aa9d3da2fefa1c04faefc6586dbd37971" target="_top" xlink:title="CGame::play">
<polygon fill="none" stroke="black" points="416,-0.5 416,-19.5 490,-19.5 490,-0.5 416,-0.5"/>
<text text-anchor="middle" x="453" y="-7.5" font-family="Helvetica,sans-Serif" font-size="10.00">CGame::play</text>
</a>
</g>
</g>
<!-- Node39&#45;&gt;Node40 -->
<g id="edge5" class="edge"><title>Node39&#45;&gt;Node40</title>
<path fill="none" stroke="midnightblue" d="M390.157,-18.9354C399.065,-17.6483 407.878,-16.3751 415.937,-15.2107"/>
<polygon fill="midnightblue" stroke="midnightblue" points="389.491,-15.4953 380.094,-20.3895 390.492,-22.4234 389.491,-15.4953"/>
</g>
<!-- Node41 -->
<g id="node7" class="node"><title>Node41</title>
<g id="a_node7"><a xlink:href="class_c_game.html#ac0a8028013ca5a7c135c29fa582df4a0" target="_top" xlink:title="CGame::checkHeroStatus">
<polygon fill="none" stroke="black" points="526,-38.5 526,-57.5 657,-57.5 657,-38.5 526,-38.5"/>
<text text-anchor="middle" x="591.5" y="-45.5" font-family="Helvetica,sans-Serif" font-size="10.00">CGame::checkHeroStatus</text>
</a>
</g>
</g>
<!-- Node40&#45;&gt;Node41 -->
<g id="edge6" class="edge"><title>Node40&#45;&gt;Node41</title>
<path fill="none" stroke="midnightblue" d="M498.249,-22.3183C517.003,-27.5393 538.528,-33.5316 556.066,-38.4141"/>
<polygon fill="midnightblue" stroke="midnightblue" points="499.017,-18.8992 488.445,-19.589 497.14,-25.6428 499.017,-18.8992"/>
</g>
<!-- Node42 -->
<g id="node8" class="node"><title>Node42</title>
<g id="a_node8"><a xlink:href="main_8cpp.html#ae66f6b31b5ad750f1fe042a706a4e3d4" target="_top" xlink:title="main">
<polygon fill="none" stroke="black" points="572.5,-0.5 572.5,-19.5 610.5,-19.5 610.5,-0.5 572.5,-0.5"/>
<text text-anchor="middle" x="591.5" y="-7.5" font-family="Helvetica,sans-Serif" font-size="10.00">main</text>
</a>
</g>
</g>
<!-- Node40&#45;&gt;Node42 -->
<g id="edge8" class="edge"><title>Node40&#45;&gt;Node42</title>
<path fill="none" stroke="midnightblue" d="M500.458,-10C525.045,-10 553.849,-10 572.132,-10"/>
<polygon fill="midnightblue" stroke="midnightblue" points="500.221,-6.5001 490.221,-10 500.221,-13.5001 500.221,-6.5001"/>
</g>
<!-- Node41&#45;&gt;Node39 -->
<g id="edge7" class="edge"><title>Node41&#45;&gt;Node39</title>
<path fill="none" stroke="midnightblue" d="M515.793,-42.7429C473.008,-39.7321 420.055,-36.0057 380.087,-33.1932"/>
<polygon fill="midnightblue" stroke="midnightblue" points="515.654,-46.2416 525.875,-43.4523 516.146,-39.2589 515.654,-46.2416"/>
</g>
</g>
</svg>
