<?xml version="1.0" encoding="UTF-8" standalone="no"?>
<!DOCTYPE svg PUBLIC "-//W3C//DTD SVG 1.1//EN"
 "http://www.w3.org/Graphics/SVG/1.1/DTD/svg11.dtd">
<!-- Generated by graphviz version 2.38.0 (20140413.2041)
 -->
<!-- Title: CEquipment::getArmour Pages: 1 -->
<svg width="1000pt" height="104pt"
 viewBox="0.00 0.00 1000.00 104.00" xmlns="http://www.w3.org/2000/svg" xmlns:xlink="http://www.w3.org/1999/xlink">
<g id="graph0" class="graph" transform="scale(1 1) rotate(0) translate(4 100)">
<title>CEquipment::getArmour</title>
<!-- Node3 -->
<g id="node1" class="node"><title>Node3</title>
<polygon fill="#bfbfbf" stroke="black" points="0,-57.5 0,-76.5 121,-76.5 121,-57.5 0,-57.5"/>
<text text-anchor="middle" x="60.5" y="-64.5" font-family="Helvetica,sans-Serif" font-size="10.00">CEquipment::getArmour</text>
</g>
<!-- Node4 -->
<g id="node2" class="node"><title>Node4</title>
<g id="a_node2"><a xlink:href="class_c_hero.html#a1593ac4dfc01368e99b2b82a21c3c6ed" target="_top" xlink:title="CHero::exportData">
<polygon fill="none" stroke="black" points="157,-76.5 157,-95.5 254,-95.5 254,-76.5 157,-76.5"/>
<text text-anchor="middle" x="205.5" y="-83.5" font-family="Helvetica,sans-Serif" font-size="10.00">CHero::exportData</text>
</a>
</g>
</g>
<!-- Node3&#45;&gt;Node4 -->
<g id="edge1" class="edge"><title>Node3&#45;&gt;Node4</title>
<path fill="none" stroke="midnightblue" d="M131.335,-76.2787C139.907,-77.4177 148.511,-78.5608 156.653,-79.6427"/>
<polygon fill="midnightblue" stroke="midnightblue" points="131.69,-72.7953 121.316,-74.9476 130.768,-79.7343 131.69,-72.7953"/>
</g>
<!-- Node11 -->
<g id="node9" class="node"><title>Node11</title>
<g id="a_node9"><a xlink:href="class_c_hero.html#a50d1e46ce5b1d84c6ed04493f1d71f81" target="_top" xlink:title="CHero::getArmour">
<polygon fill="none" stroke="black" points="158,-38.5 158,-57.5 253,-57.5 253,-38.5 158,-38.5"/>
<text text-anchor="middle" x="205.5" y="-45.5" font-family="Helvetica,sans-Serif" font-size="10.00">CHero::getArmour</text>
</a>
</g>
</g>
<!-- Node3&#45;&gt;Node11 -->
<g id="edge9" class="edge"><title>Node3&#45;&gt;Node11</title>
<path fill="none" stroke="midnightblue" d="M131.436,-57.7077C140.439,-56.5116 149.475,-55.311 157.973,-54.1819"/>
<polygon fill="midnightblue" stroke="midnightblue" points="130.768,-54.2657 121.316,-59.0524 131.69,-61.2047 130.768,-54.2657"/>
</g>
<!-- Node5 -->
<g id="node3" class="node"><title>Node5</title>
<g id="a_node3"><a xlink:href="class_c_game.html#a7d821ce9a0454653bbfde69979155da9" target="_top" xlink:title="CGame::exportPlayerData">
<polygon fill="none" stroke="black" points="290,-76.5 290,-95.5 421,-95.5 421,-76.5 290,-76.5"/>
<text text-anchor="middle" x="355.5" y="-83.5" font-family="Helvetica,sans-Serif" font-size="10.00">CGame::exportPlayerData</text>
</a>
</g>
</g>
<!-- Node4&#45;&gt;Node5 -->
<g id="edge2" class="edge"><title>Node4&#45;&gt;Node5</title>
<path fill="none" stroke="midnightblue" d="M264.245,-86C272.673,-86 281.397,-86 289.95,-86"/>
<polygon fill="midnightblue" stroke="midnightblue" points="264.143,-82.5001 254.143,-86 264.143,-89.5001 264.143,-82.5001"/>
</g>
<!-- Node6 -->
<g id="node4" class="node"><title>Node6</title>
<g id="a_node4"><a xlink:href="class_c_game.html#a49656fe4404b3df63f2dbebd9b754edd" target="_top" xlink:title="CGame::saveGame">
<polygon fill="none" stroke="black" points="457,-76.5 457,-95.5 558,-95.5 558,-76.5 457,-76.5"/>
<text text-anchor="middle" x="507.5" y="-83.5" font-family="Helvetica,sans-Serif" font-size="10.00">CGame::saveGame</text>
</a>
</g>
</g>
<!-- Node5&#45;&gt;Node6 -->
<g id="edge3" class="edge"><title>Node5&#45;&gt;Node6</title>
<path fill="none" stroke="midnightblue" d="M431.495,-86C440.101,-86 448.707,-86 456.86,-86"/>
<polygon fill="midnightblue" stroke="midnightblue" points="431.42,-82.5001 421.42,-86 431.42,-89.5001 431.42,-82.5001"/>
</g>
<!-- Node7 -->
<g id="node5" class="node"><title>Node7</title>
<g id="a_node5"><a xlink:href="class_c_game.html#a714b291af5e20aae8be14a905fd0522d" target="_top" xlink:title="CGame::tickComponent">
<polygon fill="none" stroke="black" points="594,-38.5 594,-57.5 715,-57.5 715,-38.5 594,-38.5"/>
<text text-anchor="middle" x="654.5" y="-45.5" font-family="Helvetica,sans-Serif" font-size="10.00">CGame::tickComponent</text>
</a>
</g>
</g>
<!-- Node6&#45;&gt;Node7 -->
<g id="edge4" class="edge"><title>Node6&#45;&gt;Node7</title>
<path fill="none" stroke="midnightblue" d="M554.993,-73.8157C575.124,-68.54 598.338,-62.4562 617.173,-57.5201"/>
<polygon fill="midnightblue" stroke="midnightblue" points="553.876,-70.4902 545.09,-76.411 555.65,-77.2615 553.876,-70.4902"/>
</g>
<!-- Node8 -->
<g id="node6" class="node"><title>Node8</title>
<g id="a_node6"><a xlink:href="class_c_game.html#aa9d3da2fefa1c04faefc6586dbd37971" target="_top" xlink:title="CGame::play">
<polygon fill="none" stroke="black" points="751,-19.5 751,-38.5 825,-38.5 825,-19.5 751,-19.5"/>
<text text-anchor="middle" x="788" y="-26.5" font-family="Helvetica,sans-Serif" font-size="10.00">CGame::play</text>
</a>
</g>
</g>
<!-- Node7&#45;&gt;Node8 -->
<g id="edge5" class="edge"><title>Node7&#45;&gt;Node8</title>
<path fill="none" stroke="midnightblue" d="M725.157,-37.9354C734.065,-36.6483 742.878,-35.3751 750.937,-34.2107"/>
<polygon fill="midnightblue" stroke="midnightblue" points="724.491,-34.4953 715.094,-39.3895 725.492,-41.4234 724.491,-34.4953"/>
</g>
<!-- Node9 -->
<g id="node7" class="node"><title>Node9</title>
<g id="a_node7"><a xlink:href="class_c_game.html#ac0a8028013ca5a7c135c29fa582df4a0" target="_top" xlink:title="CGame::checkHeroStatus">
<polygon fill="none" stroke="black" points="861,-57.5 861,-76.5 992,-76.5 992,-57.5 861,-57.5"/>
<text text-anchor="middle" x="926.5" y="-64.5" font-family="Helvetica,sans-Serif" font-size="10.00">CGame::checkHeroStatus</text>
</a>
</g>
</g>
<!-- Node8&#45;&gt;Node9 -->
<g id="edge6" class="edge"><title>Node8&#45;&gt;Node9</title>
<path fill="none" stroke="midnightblue" d="M833.249,-41.3183C852.003,-46.5393 873.528,-52.5316 891.066,-57.4141"/>
<polygon fill="midnightblue" stroke="midnightblue" points="834.017,-37.8992 823.445,-38.589 832.14,-44.6428 834.017,-37.8992"/>
</g>
<!-- Node10 -->
<g id="node8" class="node"><title>Node10</title>
<g id="a_node8"><a xlink:href="main_8cpp.html#ae66f6b31b5ad750f1fe042a706a4e3d4" target="_top" xlink:title="main">
<polygon fill="none" stroke="black" points="907.5,-19.5 907.5,-38.5 945.5,-38.5 945.5,-19.5 907.5,-19.5"/>
<text text-anchor="middle" x="926.5" y="-26.5" font-family="Helvetica,sans-Serif" font-size="10.00">main</text>
</a>
</g>
</g>
<!-- Node8&#45;&gt;Node10 -->
<g id="edge8" class="edge"><title>Node8&#45;&gt;Node10</title>
<path fill="none" stroke="midnightblue" d="M835.458,-29C860.045,-29 888.849,-29 907.132,-29"/>
<polygon fill="midnightblue" stroke="midnightblue" points="835.221,-25.5001 825.221,-29 835.221,-32.5001 835.221,-25.5001"/>
</g>
<!-- Node9&#45;&gt;Node7 -->
<g id="edge7" class="edge"><title>Node9&#45;&gt;Node7</title>
<path fill="none" stroke="midnightblue" d="M850.793,-61.7429C808.008,-58.7321 755.055,-55.0057 715.087,-52.1932"/>
<polygon fill="midnightblue" stroke="midnightblue" points="850.654,-65.2416 860.875,-62.4523 851.146,-58.2589 850.654,-65.2416"/>
</g>
<!-- Node12 -->
<g id="node10" class="node"><title>Node12</title>
<g id="a_node10"><a xlink:href="class_c_hero.html#a7cda26a24b8e70fc2ffe829e9c984b7e" target="_top" xlink:title="CHero::fight">
<polygon fill="none" stroke="black" points="321.5,-38.5 321.5,-57.5 389.5,-57.5 389.5,-38.5 321.5,-38.5"/>
<text text-anchor="middle" x="355.5" y="-45.5" font-family="Helvetica,sans-Serif" font-size="10.00">CHero::fight</text>
</a>
</g>
</g>
<!-- Node11&#45;&gt;Node12 -->
<g id="edge10" class="edge"><title>Node11&#45;&gt;Node12</title>
<path fill="none" stroke="midnightblue" d="M263.349,-48C282.863,-48 304.062,-48 321.101,-48"/>
<polygon fill="midnightblue" stroke="midnightblue" points="263.328,-44.5001 253.328,-48 263.328,-51.5001 263.328,-44.5001"/>
</g>
<!-- Node14 -->
<g id="node12" class="node"><title>Node14</title>
<g id="a_node12"><a xlink:href="class_c_hero.html#a0232f04b4e49227ba90a8922135d4102" target="_top" xlink:title="CHero::printStats">
<polygon fill="none" stroke="black" points="461.5,-0.5 461.5,-19.5 553.5,-19.5 553.5,-0.5 461.5,-0.5"/>
<text text-anchor="middle" x="507.5" y="-7.5" font-family="Helvetica,sans-Serif" font-size="10.00">CHero::printStats</text>
</a>
</g>
</g>
<!-- Node11&#45;&gt;Node14 -->
<g id="edge12" class="edge"><title>Node11&#45;&gt;Node14</title>
<path fill="none" stroke="midnightblue" d="M253.082,-36.2214C265.051,-33.5202 277.952,-30.8904 290,-29 348.708,-19.7884 417.126,-14.7196 461.084,-12.1828"/>
<polygon fill="midnightblue" stroke="midnightblue" points="252.237,-32.8245 243.285,-38.4926 253.818,-39.6436 252.237,-32.8245"/>
</g>
<!-- Node13 -->
<g id="node11" class="node"><title>Node13</title>
<g id="a_node11"><a xlink:href="class_c_fight.html#ac820b62e70990ddc90ecb959f4497f8f" target="_top" xlink:title="CFight::execute">
<polygon fill="none" stroke="black" points="464.5,-38.5 464.5,-57.5 550.5,-57.5 550.5,-38.5 464.5,-38.5"/>
<text text-anchor="middle" x="507.5" y="-45.5" font-family="Helvetica,sans-Serif" font-size="10.00">CFight::execute</text>
</a>
</g>
</g>
<!-- Node12&#45;&gt;Node13 -->
<g id="edge11" class="edge"><title>Node12&#45;&gt;Node13</title>
<path fill="none" stroke="midnightblue" d="M400.015,-48C420.3,-48 444.339,-48 464.439,-48"/>
<polygon fill="midnightblue" stroke="midnightblue" points="399.79,-44.5001 389.79,-48 399.79,-51.5001 399.79,-44.5001"/>
</g>
<!-- Node14&#45;&gt;Node7 -->
<g id="edge13" class="edge"><title>Node14&#45;&gt;Node7</title>
<path fill="none" stroke="midnightblue" d="M554.993,-22.1843C575.124,-27.46 598.338,-33.5438 617.173,-38.4799"/>
<polygon fill="midnightblue" stroke="midnightblue" points="555.65,-18.7385 545.09,-19.589 553.876,-25.5098 555.65,-18.7385"/>
</g>
</g>
</svg>
