<?xml version="1.0" encoding="UTF-8" standalone="no"?>
<!DOCTYPE svg PUBLIC "-//W3C//DTD SVG 1.1//EN"
 "http://www.w3.org/Graphics/SVG/1.1/DTD/svg11.dtd">
<!-- Generated by graphviz version 2.38.0 (20140413.2041)
 -->
<!-- Title: CHero::exportData Pages: 1 -->
<svg width="843pt" height="66pt"
 viewBox="0.00 0.00 843.00 66.00" xmlns="http://www.w3.org/2000/svg" xmlns:xlink="http://www.w3.org/1999/xlink">
<g id="graph0" class="graph" transform="scale(1 1) rotate(0) translate(4 62)">
<title>CHero::exportData</title>
<!-- Node18 -->
<g id="node1" class="node"><title>Node18</title>
<polygon fill="#bfbfbf" stroke="black" points="0,-19.5 0,-38.5 97,-38.5 97,-19.5 0,-19.5"/>
<text text-anchor="middle" x="48.5" y="-26.5" font-family="Helvetica,sans-Serif" font-size="10.00">CHero::exportData</text>
</g>
<!-- Node19 -->
<g id="node2" class="node"><title>Node19</title>
<g id="a_node2"><a xlink:href="class_c_game.html#a7d821ce9a0454653bbfde69979155da9" target="_top" xlink:title="CGame::exportPlayerData">
<polygon fill="none" stroke="black" points="133,-19.5 133,-38.5 264,-38.5 264,-19.5 133,-19.5"/>
<text text-anchor="middle" x="198.5" y="-26.5" font-family="Helvetica,sans-Serif" font-size="10.00">CGame::exportPlayerData</text>
</a>
</g>
</g>
<!-- Node18&#45;&gt;Node19 -->
<g id="edge1" class="edge"><title>Node18&#45;&gt;Node19</title>
<path fill="none" stroke="midnightblue" d="M107.245,-29C115.673,-29 124.397,-29 132.95,-29"/>
<polygon fill="midnightblue" stroke="midnightblue" points="107.143,-25.5001 97.1428,-29 107.143,-32.5001 107.143,-25.5001"/>
</g>
<!-- Node20 -->
<g id="node3" class="node"><title>Node20</title>
<g id="a_node3"><a xlink:href="class_c_game.html#a49656fe4404b3df63f2dbebd9b754edd" target="_top" xlink:title="CGame::saveGame">
<polygon fill="none" stroke="black" points="300,-19.5 300,-38.5 401,-38.5 401,-19.5 300,-19.5"/>
<text text-anchor="middle" x="350.5" y="-26.5" font-family="Helvetica,sans-Serif" font-size="10.00">CGame::saveGame</text>
</a>
</g>
</g>
<!-- Node19&#45;&gt;Node20 -->
<g id="edge2" class="edge"><title>Node19&#45;&gt;Node20</title>
<path fill="none" stroke="midnightblue" d="M274.495,-29C283.101,-29 291.707,-29 299.86,-29"/>
<polygon fill="midnightblue" stroke="midnightblue" points="274.42,-25.5001 264.42,-29 274.42,-32.5001 274.42,-25.5001"/>
</g>
<!-- Node21 -->
<g id="node4" class="node"><title>Node21</title>
<g id="a_node4"><a xlink:href="class_c_game.html#a714b291af5e20aae8be14a905fd0522d" target="_top" xlink:title="CGame::tickComponent">
<polygon fill="none" stroke="black" points="437,-19.5 437,-38.5 558,-38.5 558,-19.5 437,-19.5"/>
<text text-anchor="middle" x="497.5" y="-26.5" font-family="Helvetica,sans-Serif" font-size="10.00">CGame::tickComponent</text>
</a>
</g>
</g>
<!-- Node20&#45;&gt;Node21 -->
<g id="edge3" class="edge"><title>Node20&#45;&gt;Node21</title>
<path fill="none" stroke="midnightblue" d="M411.451,-29C419.81,-29 428.398,-29 436.753,-29"/>
<polygon fill="midnightblue" stroke="midnightblue" points="411.401,-25.5001 401.401,-29 411.401,-32.5001 411.401,-25.5001"/>
</g>
<!-- Node22 -->
<g id="node5" class="node"><title>Node22</title>
<g id="a_node5"><a xlink:href="class_c_game.html#aa9d3da2fefa1c04faefc6586dbd37971" target="_top" xlink:title="CGame::play">
<polygon fill="none" stroke="black" points="594,-0.5 594,-19.5 668,-19.5 668,-0.5 594,-0.5"/>
<text text-anchor="middle" x="631" y="-7.5" font-family="Helvetica,sans-Serif" font-size="10.00">CGame::play</text>
</a>
</g>
</g>
<!-- Node21&#45;&gt;Node22 -->
<g id="edge4" class="edge"><title>Node21&#45;&gt;Node22</title>
<path fill="none" stroke="midnightblue" d="M568.157,-18.9354C577.065,-17.6483 585.878,-16.3751 593.937,-15.2107"/>
<polygon fill="midnightblue" stroke="midnightblue" points="567.491,-15.4953 558.094,-20.3895 568.492,-22.4234 567.491,-15.4953"/>
</g>
<!-- Node23 -->
<g id="node6" class="node"><title>Node23</title>
<g id="a_node6"><a xlink:href="class_c_game.html#ac0a8028013ca5a7c135c29fa582df4a0" target="_top" xlink:title="CGame::checkHeroStatus">
<polygon fill="none" stroke="black" points="704,-38.5 704,-57.5 835,-57.5 835,-38.5 704,-38.5"/>
<text text-anchor="middle" x="769.5" y="-45.5" font-family="Helvetica,sans-Serif" font-size="10.00">CGame::checkHeroStatus</text>
</a>
</g>
</g>
<!-- Node22&#45;&gt;Node23 -->
<g id="edge5" class="edge"><title>Node22&#45;&gt;Node23</title>
<path fill="none" stroke="midnightblue" d="M676.249,-22.3183C695.003,-27.5393 716.528,-33.5316 734.066,-38.4141"/>
<polygon fill="midnightblue" stroke="midnightblue" points="677.017,-18.8992 666.445,-19.589 675.14,-25.6428 677.017,-18.8992"/>
</g>
<!-- Node24 -->
<g id="node7" class="node"><title>Node24</title>
<g id="a_node7"><a xlink:href="main_8cpp.html#ae66f6b31b5ad750f1fe042a706a4e3d4" target="_top" xlink:title="main">
<polygon fill="none" stroke="black" points="750.5,-0.5 750.5,-19.5 788.5,-19.5 788.5,-0.5 750.5,-0.5"/>
<text text-anchor="middle" x="769.5" y="-7.5" font-family="Helvetica,sans-Serif" font-size="10.00">main</text>
</a>
</g>
</g>
<!-- Node22&#45;&gt;Node24 -->
<g id="edge7" class="edge"><title>Node22&#45;&gt;Node24</title>
<path fill="none" stroke="midnightblue" d="M678.458,-10C703.045,-10 731.849,-10 750.132,-10"/>
<polygon fill="midnightblue" stroke="midnightblue" points="678.221,-6.5001 668.221,-10 678.221,-13.5001 678.221,-6.5001"/>
</g>
<!-- Node23&#45;&gt;Node21 -->
<g id="edge6" class="edge"><title>Node23&#45;&gt;Node21</title>
<path fill="none" stroke="midnightblue" d="M693.793,-42.7429C651.008,-39.7321 598.055,-36.0057 558.087,-33.1932"/>
<polygon fill="midnightblue" stroke="midnightblue" points="693.654,-46.2416 703.875,-43.4523 694.146,-39.2589 693.654,-46.2416"/>
</g>
</g>
</svg>
