<?xml version="1.0" encoding="UTF-8" standalone="no"?>
<!DOCTYPE svg PUBLIC "-//W3C//DTD SVG 1.1//EN"
 "http://www.w3.org/Graphics/SVG/1.1/DTD/svg11.dtd">
<!-- Generated by graphviz version 2.38.0 (20140413.2041)
 -->
<!-- Title: CItem::getPrice Pages: 1 -->
<svg width="379pt" height="28pt"
 viewBox="0.00 0.00 379.00 28.00" xmlns="http://www.w3.org/2000/svg" xmlns:xlink="http://www.w3.org/1999/xlink">
<g id="graph0" class="graph" transform="scale(1 1) rotate(0) translate(4 24)">
<title>CItem::getPrice</title>
<!-- Node15 -->
<g id="node1" class="node"><title>Node15</title>
<polygon fill="#bfbfbf" stroke="black" points="0,-0.5 0,-19.5 84,-19.5 84,-0.5 0,-0.5"/>
<text text-anchor="middle" x="42" y="-7.5" font-family="Helvetica,sans-Serif" font-size="10.00">CItem::getPrice</text>
</g>
<!-- Node16 -->
<g id="node2" class="node"><title>Node16</title>
<g id="a_node2"><a xlink:href="class_c_shopping.html#a0981a7916cca8a37beb35858ad2ec77e" target="_top" xlink:title="CShopping::buyItem">
<polygon fill="none" stroke="black" points="120,-0.5 120,-19.5 224,-19.5 224,-0.5 120,-0.5"/>
<text text-anchor="middle" x="172" y="-7.5" font-family="Helvetica,sans-Serif" font-size="10.00">CShopping::buyItem</text>
</a>
</g>
</g>
<!-- Node15&#45;&gt;Node16 -->
<g id="edge1" class="edge"><title>Node15&#45;&gt;Node16</title>
<path fill="none" stroke="midnightblue" d="M94.4707,-10C102.732,-10 111.284,-10 119.545,-10"/>
<polygon fill="midnightblue" stroke="midnightblue" points="94.2046,-6.5001 84.2046,-10 94.2045,-13.5001 94.2046,-6.5001"/>
</g>
<!-- Node17 -->
<g id="node3" class="node"><title>Node17</title>
<g id="a_node3"><a xlink:href="class_c_shopping.html#ab72dff2e94f897bd5c3f1ef660e65afb" target="_top" xlink:title="CShopping::operator()">
<polygon fill="none" stroke="black" points="260,-0.5 260,-19.5 371,-19.5 371,-0.5 260,-0.5"/>
<text text-anchor="middle" x="315.5" y="-7.5" font-family="Helvetica,sans-Serif" font-size="10.00">CShopping::operator()</text>
</a>
</g>
</g>
<!-- Node16&#45;&gt;Node17 -->
<g id="edge2" class="edge"><title>Node16&#45;&gt;Node17</title>
<path fill="none" stroke="midnightblue" d="M234.265,-10C242.713,-10 251.344,-10 259.666,-10"/>
<polygon fill="midnightblue" stroke="midnightblue" points="234.085,-6.5001 224.085,-10 234.085,-13.5001 234.085,-6.5001"/>
</g>
</g>
</svg>
