<?xml version="1.0" encoding="UTF-8" standalone="no"?>
<!DOCTYPE svg PUBLIC "-//W3C//DTD SVG 1.1//EN"
 "http://www.w3.org/Graphics/SVG/1.1/DTD/svg11.dtd">
<!-- Generated by graphviz version 2.38.0 (20140413.2041)
 -->
<!-- Title: CStreamDecoder::getText Pages: 1 -->
<svg width="547pt" height="104pt"
 viewBox="0.00 0.00 547.00 104.00" xmlns="http://www.w3.org/2000/svg" xmlns:xlink="http://www.w3.org/1999/xlink">
<g id="graph0" class="graph" transform="scale(1 1) rotate(0) translate(4 100)">
<title>CStreamDecoder::getText</title>
<!-- Node76 -->
<g id="node1" class="node"><title>Node76</title>
<polygon fill="#bfbfbf" stroke="black" points="0,-38.5 0,-57.5 129,-57.5 129,-38.5 0,-38.5"/>
<text text-anchor="middle" x="64.5" y="-45.5" font-family="Helvetica,sans-Serif" font-size="10.00">CStreamDecoder::getText</text>
</g>
<!-- Node77 -->
<g id="node2" class="node"><title>Node77</title>
<g id="a_node2"><a xlink:href="class_c_world.html#afa6876cb4b0d0aa9aec88fec6c596634" target="_top" xlink:title="CWorld::loadEvents">
<polygon fill="none" stroke="black" points="171.5,-76.5 171.5,-95.5 273.5,-95.5 273.5,-76.5 171.5,-76.5"/>
<text text-anchor="middle" x="222.5" y="-83.5" font-family="Helvetica,sans-Serif" font-size="10.00">CWorld::loadEvents</text>
</a>
</g>
</g>
<!-- Node76&#45;&gt;Node77 -->
<g id="edge1" class="edge"><title>Node76&#45;&gt;Node77</title>
<path fill="none" stroke="midnightblue" d="M114.632,-59.968C136.493,-65.2931 161.876,-71.4762 182.418,-76.4799"/>
<polygon fill="midnightblue" stroke="midnightblue" points="115.41,-56.5552 104.865,-57.589 113.753,-63.3563 115.41,-56.5552"/>
</g>
<!-- Node80 -->
<g id="node5" class="node"><title>Node80</title>
<g id="a_node5"><a xlink:href="class_c_world.html#abb7ab3f5626b424ebabbd4aec3b60b5a" target="_top" xlink:title="CWorld::loadItems">
<polygon fill="none" stroke="black" points="174,-38.5 174,-57.5 271,-57.5 271,-38.5 174,-38.5"/>
<text text-anchor="middle" x="222.5" y="-45.5" font-family="Helvetica,sans-Serif" font-size="10.00">CWorld::loadItems</text>
</a>
</g>
</g>
<!-- Node76&#45;&gt;Node80 -->
<g id="edge4" class="edge"><title>Node76&#45;&gt;Node80</title>
<path fill="none" stroke="midnightblue" d="M139.549,-48C151.16,-48 162.889,-48 173.701,-48"/>
<polygon fill="midnightblue" stroke="midnightblue" points="139.401,-44.5001 129.401,-48 139.401,-51.5001 139.401,-44.5001"/>
</g>
<!-- Node81 -->
<g id="node6" class="node"><title>Node81</title>
<g id="a_node6"><a xlink:href="class_c_world.html#a313cf7258bfab897ada813aa0f8837ac" target="_top" xlink:title="CWorld::loadCreatures">
<polygon fill="none" stroke="black" points="165,-0.5 165,-19.5 280,-19.5 280,-0.5 165,-0.5"/>
<text text-anchor="middle" x="222.5" y="-7.5" font-family="Helvetica,sans-Serif" font-size="10.00">CWorld::loadCreatures</text>
</a>
</g>
</g>
<!-- Node76&#45;&gt;Node81 -->
<g id="edge6" class="edge"><title>Node76&#45;&gt;Node81</title>
<path fill="none" stroke="midnightblue" d="M114.632,-36.032C136.493,-30.7069 161.876,-24.5238 182.418,-19.5201"/>
<polygon fill="midnightblue" stroke="midnightblue" points="113.753,-32.6437 104.865,-38.411 115.41,-39.4448 113.753,-32.6437"/>
</g>
<!-- Node78 -->
<g id="node3" class="node"><title>Node78</title>
<g id="a_node3"><a xlink:href="class_c_world.html#a944f12acb1ff76beed2648647ff19d0f" target="_top" xlink:title="CWorld::loadWorld">
<polygon fill="none" stroke="black" points="316,-38.5 316,-57.5 414,-57.5 414,-38.5 316,-38.5"/>
<text text-anchor="middle" x="365" y="-45.5" font-family="Helvetica,sans-Serif" font-size="10.00">CWorld::loadWorld</text>
</a>
</g>
</g>
<!-- Node77&#45;&gt;Node78 -->
<g id="edge2" class="edge"><title>Node77&#45;&gt;Node78</title>
<path fill="none" stroke="midnightblue" d="M268.779,-73.7538C288.145,-68.516 310.422,-62.4909 328.557,-57.5859"/>
<polygon fill="midnightblue" stroke="midnightblue" points="267.693,-70.4215 258.954,-76.411 269.521,-77.1787 267.693,-70.4215"/>
</g>
<!-- Node79 -->
<g id="node4" class="node"><title>Node79</title>
<g id="a_node4"><a xlink:href="class_c_game.html#af5435e79a93dd92991ae24b499976470" target="_top" xlink:title="CGame::CGame">
<polygon fill="none" stroke="black" points="450,-38.5 450,-57.5 539,-57.5 539,-38.5 450,-38.5"/>
<text text-anchor="middle" x="494.5" y="-45.5" font-family="Helvetica,sans-Serif" font-size="10.00">CGame::CGame</text>
</a>
</g>
</g>
<!-- Node78&#45;&gt;Node79 -->
<g id="edge3" class="edge"><title>Node78&#45;&gt;Node79</title>
<path fill="none" stroke="midnightblue" d="M424.218,-48C432.836,-48 441.589,-48 449.842,-48"/>
<polygon fill="midnightblue" stroke="midnightblue" points="424.202,-44.5001 414.202,-48 424.202,-51.5001 424.202,-44.5001"/>
</g>
<!-- Node80&#45;&gt;Node78 -->
<g id="edge5" class="edge"><title>Node80&#45;&gt;Node78</title>
<path fill="none" stroke="midnightblue" d="M281.339,-48C292.701,-48 304.509,-48 315.525,-48"/>
<polygon fill="midnightblue" stroke="midnightblue" points="281.067,-44.5001 271.067,-48 281.067,-51.5001 281.067,-44.5001"/>
</g>
<!-- Node81&#45;&gt;Node78 -->
<g id="edge7" class="edge"><title>Node81&#45;&gt;Node78</title>
<path fill="none" stroke="midnightblue" d="M268.779,-22.2462C288.145,-27.484 310.422,-33.5091 328.557,-38.4141"/>
<polygon fill="midnightblue" stroke="midnightblue" points="269.521,-18.8213 258.954,-19.589 267.693,-25.5785 269.521,-18.8213"/>
</g>
</g>
</svg>
