<?xml version="1.0" encoding="UTF-8" standalone="no"?>
<!DOCTYPE svg PUBLIC "-//W3C//DTD SVG 1.1//EN"
 "http://www.w3.org/Graphics/SVG/1.1/DTD/svg11.dtd">
<!-- Generated by graphviz version 2.38.0 (20140413.2041)
 -->
<!-- Title: CHero::update Pages: 1 -->
<svg width="444pt" height="221pt"
 viewBox="0.00 0.00 444.00 221.31" xmlns="http://www.w3.org/2000/svg" xmlns:xlink="http://www.w3.org/1999/xlink">
<g id="graph0" class="graph" transform="scale(1 1) rotate(0) translate(4 217.309)">
<title>CHero::update</title>
<!-- Node96 -->
<g id="node1" class="node"><title>Node96</title>
<polygon fill="#bfbfbf" stroke="black" points="0,-95.5 0,-114.5 79,-114.5 79,-95.5 0,-95.5"/>
<text text-anchor="middle" x="39.5" y="-102.5" font-family="Helvetica,sans-Serif" font-size="10.00">CHero::update</text>
</g>
<!-- Node97 -->
<g id="node2" class="node"><title>Node97</title>
<g id="a_node2"><a xlink:href="class_c_stream_decoder.html#a736a4660fb1fc91ffc7345050f815994" target="_top" xlink:title="CStreamDecoder::getString">
<polygon fill="none" stroke="black" points="300,-180.5 300,-199.5 436,-199.5 436,-180.5 300,-180.5"/>
<text text-anchor="middle" x="368" y="-187.5" font-family="Helvetica,sans-Serif" font-size="10.00">CStreamDecoder::getString</text>
</a>
</g>
</g>
<!-- Node96&#45;&gt;Node97 -->
<g id="edge1" class="edge"><title>Node96&#45;&gt;Node97</title>
<path fill="none" stroke="midnightblue" d="M44.9931,-114.516C54.6445,-133.68 79.4055,-176.497 115,-193 181.612,-223.884 269.178,-212.989 321.604,-201.818"/>
<polygon fill="midnightblue" stroke="midnightblue" points="322.603,-205.181 331.604,-199.592 321.082,-198.348 322.603,-205.181"/>
</g>
<!-- Node98 -->
<g id="node3" class="node"><title>Node98</title>
<g id="a_node3"><a xlink:href="class_c_stream_decoder.html#aeaef1aa3239cf7b5d00397b6e46f67d1" target="_top" xlink:title="CStreamDecoder::getString\lAsInt">
<polygon fill="none" stroke="black" points="121.5,-153 121.5,-183 257.5,-183 257.5,-153 121.5,-153"/>
<text text-anchor="start" x="129.5" y="-171" font-family="Helvetica,sans-Serif" font-size="10.00">CStreamDecoder::getString</text>
<text text-anchor="middle" x="189.5" y="-160" font-family="Helvetica,sans-Serif" font-size="10.00">AsInt</text>
</a>
</g>
</g>
<!-- Node96&#45;&gt;Node98 -->
<g id="edge2" class="edge"><title>Node96&#45;&gt;Node98</title>
<path fill="none" stroke="midnightblue" d="M57.6256,-114.628C72.5136,-122.78 94.8044,-134.467 115,-143 120.329,-145.252 125.937,-147.451 131.581,-149.552"/>
<polygon fill="midnightblue" stroke="midnightblue" points="130.476,-152.874 141.07,-152.988 132.859,-146.293 130.476,-152.874"/>
</g>
<!-- Node99 -->
<g id="node4" class="node"><title>Node99</title>
<g id="a_node4"><a xlink:href="class_c_equipment.html#abf42868d8cd5d627d872dbf7f80bff9a" target="_top" xlink:title="CEquipment::setAttack">
<polygon fill="none" stroke="black" points="130.5,-114.5 130.5,-133.5 248.5,-133.5 248.5,-114.5 130.5,-114.5"/>
<text text-anchor="middle" x="189.5" y="-121.5" font-family="Helvetica,sans-Serif" font-size="10.00">CEquipment::setAttack</text>
</a>
</g>
</g>
<!-- Node96&#45;&gt;Node99 -->
<g id="edge4" class="edge"><title>Node96&#45;&gt;Node99</title>
<path fill="none" stroke="midnightblue" d="M79.3853,-109.992C91.9281,-111.602 106.223,-113.437 120.242,-115.237"/>
<polygon fill="midnightblue" stroke="midnightblue" points="120.007,-118.736 130.372,-116.538 120.899,-111.793 120.007,-118.736"/>
</g>
<!-- Node100 -->
<g id="node5" class="node"><title>Node100</title>
<g id="a_node5"><a xlink:href="class_c_equipment.html#a223e0e1172975f9d9c49612b2513afb0" target="_top" xlink:title="CEquipment::setArmour">
<polygon fill="none" stroke="black" points="129,-76.5 129,-95.5 250,-95.5 250,-76.5 129,-76.5"/>
<text text-anchor="middle" x="189.5" y="-83.5" font-family="Helvetica,sans-Serif" font-size="10.00">CEquipment::setArmour</text>
</a>
</g>
</g>
<!-- Node96&#45;&gt;Node100 -->
<g id="edge5" class="edge"><title>Node96&#45;&gt;Node100</title>
<path fill="none" stroke="midnightblue" d="M79.3853,-100.008C91.4651,-98.4572 105.17,-96.6977 118.688,-94.9623"/>
<polygon fill="midnightblue" stroke="midnightblue" points="119.486,-98.3887 128.959,-93.6438 118.595,-91.4457 119.486,-98.3887"/>
</g>
<!-- Node101 -->
<g id="node6" class="node"><title>Node101</title>
<g id="a_node6"><a xlink:href="class_c_inventory.html#a2ae39f69247c25fa2ee46c4111bcce56" target="_top" xlink:title="CInventory::update">
<polygon fill="none" stroke="black" points="141,-38.5 141,-57.5 238,-57.5 238,-38.5 141,-38.5"/>
<text text-anchor="middle" x="189.5" y="-45.5" font-family="Helvetica,sans-Serif" font-size="10.00">CInventory::update</text>
</a>
</g>
</g>
<!-- Node96&#45;&gt;Node101 -->
<g id="edge6" class="edge"><title>Node96&#45;&gt;Node101</title>
<path fill="none" stroke="midnightblue" d="M56.5988,-95.4839C71.3789,-87.0668 94.0918,-74.9253 115,-67 121.376,-64.5832 128.176,-62.3673 134.97,-60.3698"/>
<polygon fill="midnightblue" stroke="midnightblue" points="136.179,-63.6658 144.867,-57.6014 134.294,-56.9245 136.179,-63.6658"/>
</g>
<!-- Node102 -->
<g id="node7" class="node"><title>Node102</title>
<g id="a_node7"><a xlink:href="class_c_stream_decoder.html#a57a7f304974a6b5be31e374685b70e33" target="_top" xlink:title="CStreamDecoder::getNumbers">
<polygon fill="none" stroke="black" points="115,-0.5 115,-19.5 264,-19.5 264,-0.5 115,-0.5"/>
<text text-anchor="middle" x="189.5" y="-7.5" font-family="Helvetica,sans-Serif" font-size="10.00">CStreamDecoder::getNumbers</text>
</a>
</g>
</g>
<!-- Node96&#45;&gt;Node102 -->
<g id="edge7" class="edge"><title>Node96&#45;&gt;Node102</title>
<path fill="none" stroke="midnightblue" d="M47.1115,-95.4417C58.8457,-79.2231 84.9277,-46.385 115,-29 118.892,-26.75 123.052,-24.7623 127.339,-23.0069"/>
<polygon fill="midnightblue" stroke="midnightblue" points="128.681,-26.2429 136.872,-19.5235 126.279,-19.668 128.681,-26.2429"/>
</g>
<!-- Node98&#45;&gt;Node97 -->
<g id="edge3" class="edge"><title>Node98&#45;&gt;Node97</title>
<path fill="none" stroke="midnightblue" d="M257.731,-176.38C268.214,-177.687 279.117,-179.046 289.801,-180.377"/>
<polygon fill="midnightblue" stroke="midnightblue" points="289.6,-183.879 299.956,-181.643 290.466,-176.933 289.6,-183.879"/>
</g>
</g>
</svg>
