<?xml version="1.0" encoding="UTF-8" standalone="no"?>
<!DOCTYPE svg PUBLIC "-//W3C//DTD SVG 1.1//EN"
 "http://www.w3.org/Graphics/SVG/1.1/DTD/svg11.dtd">
<!-- Generated by graphviz version 2.38.0 (20140413.2041)
 -->
<!-- Title: CEvent Pages: 1 -->
<svg width="420pt" height="270pt"
 viewBox="0.00 0.00 420.00 270.00" xmlns="http://www.w3.org/2000/svg" xmlns:xlink="http://www.w3.org/1999/xlink">
<g id="graph0" class="graph" transform="scale(1 1) rotate(0) translate(4 266)">
<title>CEvent</title>
<!-- Node0 -->
<g id="node1" class="node"><title>Node0</title>
<polygon fill="#bfbfbf" stroke="black" points="162.5,-149.5 162.5,-261.5 235.5,-261.5 235.5,-149.5 162.5,-149.5"/>
<text text-anchor="middle" x="199" y="-249.5" font-family="Helvetica,sans-Serif" font-size="10.00">CEvent</text>
<polyline fill="none" stroke="black" points="162.5,-242.5 235.5,-242.5 "/>
<text text-anchor="start" x="170.5" y="-230.5" font-family="Helvetica,sans-Serif" font-size="10.00"># eventID</text>
<text text-anchor="start" x="170.5" y="-219.5" font-family="Helvetica,sans-Serif" font-size="10.00"># eventName</text>
<text text-anchor="start" x="170.5" y="-208.5" font-family="Helvetica,sans-Serif" font-size="10.00"># text</text>
<polyline fill="none" stroke="black" points="162.5,-201.5 235.5,-201.5 "/>
<text text-anchor="start" x="170.5" y="-189.5" font-family="Helvetica,sans-Serif" font-size="10.00">+ CEvent()</text>
<text text-anchor="start" x="170.5" y="-178.5" font-family="Helvetica,sans-Serif" font-size="10.00">+ ~CEvent()</text>
<text text-anchor="start" x="170.5" y="-167.5" font-family="Helvetica,sans-Serif" font-size="10.00">+ print()</text>
<text text-anchor="start" x="170.5" y="-156.5" font-family="Helvetica,sans-Serif" font-size="10.00">+ execute()</text>
</g>
<!-- Node1 -->
<g id="node2" class="node"><title>Node1</title>
<g id="a_node2"><a xlink:href="class_c_choice.html" target="_top" xlink:title="{CChoice\n|# optionA\l# optionB\l# options\l|+ CChoice()\l+ CChoice()\l+ print()\l+ execute()\l}">
<polygon fill="none" stroke="black" points="0,-0.5 0,-112.5 68,-112.5 68,-0.5 0,-0.5"/>
<text text-anchor="middle" x="34" y="-100.5" font-family="Helvetica,sans-Serif" font-size="10.00">CChoice</text>
<polyline fill="none" stroke="black" points="0,-93.5 68,-93.5 "/>
<text text-anchor="start" x="8" y="-81.5" font-family="Helvetica,sans-Serif" font-size="10.00"># optionA</text>
<text text-anchor="start" x="8" y="-70.5" font-family="Helvetica,sans-Serif" font-size="10.00"># optionB</text>
<text text-anchor="start" x="8" y="-59.5" font-family="Helvetica,sans-Serif" font-size="10.00"># options</text>
<polyline fill="none" stroke="black" points="0,-52.5 68,-52.5 "/>
<text text-anchor="start" x="8" y="-40.5" font-family="Helvetica,sans-Serif" font-size="10.00">+ CChoice()</text>
<text text-anchor="start" x="8" y="-29.5" font-family="Helvetica,sans-Serif" font-size="10.00">+ CChoice()</text>
<text text-anchor="start" x="8" y="-18.5" font-family="Helvetica,sans-Serif" font-size="10.00">+ print()</text>
<text text-anchor="start" x="8" y="-7.5" font-family="Helvetica,sans-Serif" font-size="10.00">+ execute()</text>
</a>
</g>
</g>
<!-- Node0&#45;&gt;Node1 -->
<g id="edge1" class="edge"><title>Node0&#45;&gt;Node1</title>
<path fill="none" stroke="midnightblue" d="M154,-175.114C129.911,-158.341 100.459,-136.095 77,-113 73.9598,-110.007 70.9472,-106.795 68.0114,-103.48"/>
<polygon fill="none" stroke="midnightblue" points="152.056,-178.025 162.278,-180.811 156.024,-172.259 152.056,-178.025"/>
</g>
<!-- Node2 -->
<g id="node3" class="node"><title>Node2</title>
<g id="a_node3"><a xlink:href="class_c_dialogue_n_p_c.html" target="_top" xlink:title="{CDialogueNPC\n||+ CDialogueNPC()\l+ CDialogueNPC()\l+ print()\l+ execute()\l}">
<polygon fill="none" stroke="black" points="86,-11.5 86,-101.5 182,-101.5 182,-11.5 86,-11.5"/>
<text text-anchor="middle" x="134" y="-89.5" font-family="Helvetica,sans-Serif" font-size="10.00">CDialogueNPC</text>
<polyline fill="none" stroke="black" points="86,-82.5 182,-82.5 "/>
<text text-anchor="middle" x="134" y="-70.5" font-family="Helvetica,sans-Serif" font-size="10.00"> </text>
<polyline fill="none" stroke="black" points="86,-63.5 182,-63.5 "/>
<text text-anchor="start" x="94" y="-51.5" font-family="Helvetica,sans-Serif" font-size="10.00">+ CDialogueNPC()</text>
<text text-anchor="start" x="94" y="-40.5" font-family="Helvetica,sans-Serif" font-size="10.00">+ CDialogueNPC()</text>
<text text-anchor="start" x="94" y="-29.5" font-family="Helvetica,sans-Serif" font-size="10.00">+ print()</text>
<text text-anchor="start" x="94" y="-18.5" font-family="Helvetica,sans-Serif" font-size="10.00">+ execute()</text>
</a>
</g>
</g>
<!-- Node0&#45;&gt;Node2 -->
<g id="edge2" class="edge"><title>Node0&#45;&gt;Node2</title>
<path fill="none" stroke="midnightblue" d="M170.509,-140.067C164.821,-127.202 158.966,-113.962 153.656,-101.954"/>
<polygon fill="none" stroke="midnightblue" points="167.366,-141.614 174.611,-149.344 173.768,-138.783 167.366,-141.614"/>
</g>
<!-- Node3 -->
<g id="node4" class="node"><title>Node3</title>
<g id="a_node4"><a xlink:href="class_c_fight.html" target="_top" xlink:title="{CFight\n|# creatureID\l# enemyEncounterChoice\l|+ CFight()\l+ CFight()\l+ print()\l+ execute()\l}">
<polygon fill="none" stroke="black" points="200,-6 200,-107 328,-107 328,-6 200,-6"/>
<text text-anchor="middle" x="264" y="-95" font-family="Helvetica,sans-Serif" font-size="10.00">CFight</text>
<polyline fill="none" stroke="black" points="200,-88 328,-88 "/>
<text text-anchor="start" x="208" y="-76" font-family="Helvetica,sans-Serif" font-size="10.00"># creatureID</text>
<text text-anchor="start" x="208" y="-65" font-family="Helvetica,sans-Serif" font-size="10.00"># enemyEncounterChoice</text>
<polyline fill="none" stroke="black" points="200,-58 328,-58 "/>
<text text-anchor="start" x="208" y="-46" font-family="Helvetica,sans-Serif" font-size="10.00">+ CFight()</text>
<text text-anchor="start" x="208" y="-35" font-family="Helvetica,sans-Serif" font-size="10.00">+ CFight()</text>
<text text-anchor="start" x="208" y="-24" font-family="Helvetica,sans-Serif" font-size="10.00">+ print()</text>
<text text-anchor="start" x="208" y="-13" font-family="Helvetica,sans-Serif" font-size="10.00">+ execute()</text>
</a>
</g>
</g>
<!-- Node0&#45;&gt;Node3 -->
<g id="edge3" class="edge"><title>Node0&#45;&gt;Node3</title>
<path fill="none" stroke="midnightblue" d="M227.456,-140.145C232.346,-129.088 237.359,-117.75 242.044,-107.154"/>
<polygon fill="none" stroke="midnightblue" points="224.232,-138.783 223.389,-149.344 230.634,-141.614 224.232,-138.783"/>
</g>
<!-- Node4 -->
<g id="node5" class="node"><title>Node4</title>
<g id="a_node5"><a xlink:href="class_c_trap.html" target="_top" xlink:title="{CTrap\n|# damage\l|+ CTrap()\l+ CTrap()\l+ print()\l+ execute()\l}">
<polygon fill="none" stroke="black" points="346,-11.5 346,-101.5 412,-101.5 412,-11.5 346,-11.5"/>
<text text-anchor="middle" x="379" y="-89.5" font-family="Helvetica,sans-Serif" font-size="10.00">CTrap</text>
<polyline fill="none" stroke="black" points="346,-82.5 412,-82.5 "/>
<text text-anchor="start" x="354" y="-70.5" font-family="Helvetica,sans-Serif" font-size="10.00"># damage</text>
<polyline fill="none" stroke="black" points="346,-63.5 412,-63.5 "/>
<text text-anchor="start" x="354" y="-51.5" font-family="Helvetica,sans-Serif" font-size="10.00">+ CTrap()</text>
<text text-anchor="start" x="354" y="-40.5" font-family="Helvetica,sans-Serif" font-size="10.00">+ CTrap()</text>
<text text-anchor="start" x="354" y="-29.5" font-family="Helvetica,sans-Serif" font-size="10.00">+ print()</text>
<text text-anchor="start" x="354" y="-18.5" font-family="Helvetica,sans-Serif" font-size="10.00">+ execute()</text>
</a>
</g>
</g>
<!-- Node0&#45;&gt;Node4 -->
<g id="edge4" class="edge"><title>Node0&#45;&gt;Node4</title>
<path fill="none" stroke="midnightblue" d="M244.601,-179.596C272.925,-162.888 309.116,-139.198 337,-113 340.699,-109.525 344.314,-105.696 347.774,-101.724"/>
<polygon fill="none" stroke="midnightblue" points="242.588,-176.717 235.702,-184.769 246.106,-182.769 242.588,-176.717"/>
</g>
</g>
</svg>
