<?xml version="1.0" encoding="UTF-8" standalone="no"?>
<!DOCTYPE svg PUBLIC "-//W3C//DTD SVG 1.1//EN"
 "http://www.w3.org/Graphics/SVG/1.1/DTD/svg11.dtd">
<!-- Generated by graphviz version 2.38.0 (20140413.2041)
 -->
<!-- Title: CShopping::buyItem Pages: 1 -->
<svg width="442pt" height="408pt"
 viewBox="0.00 0.00 442.00 408.00" xmlns="http://www.w3.org/2000/svg" xmlns:xlink="http://www.w3.org/1999/xlink">
<g id="graph0" class="graph" transform="scale(1 1) rotate(0) translate(4 404)">
<title>CShopping::buyItem</title>
<!-- Node2 -->
<g id="node1" class="node"><title>Node2</title>
<polygon fill="#bfbfbf" stroke="black" points="0,-190.5 0,-209.5 104,-209.5 104,-190.5 0,-190.5"/>
<text text-anchor="middle" x="52" y="-197.5" font-family="Helvetica,sans-Serif" font-size="10.00">CShopping::buyItem</text>
</g>
<!-- Node3 -->
<g id="node2" class="node"><title>Node3</title>
<g id="a_node2"><a xlink:href="class_c_shopping.html#af06bd6ee3beb6ab523a4b7291a677201" target="_top" xlink:title="CShopping::isInShop">
<polygon fill="none" stroke="black" points="156,-380.5 156,-399.5 263,-399.5 263,-380.5 156,-380.5"/>
<text text-anchor="middle" x="209.5" y="-387.5" font-family="Helvetica,sans-Serif" font-size="10.00">CShopping::isInShop</text>
</a>
</g>
</g>
<!-- Node2&#45;&gt;Node3 -->
<g id="edge1" class="edge"><title>Node2&#45;&gt;Node3</title>
<path fill="none" stroke="midnightblue" d="M55.0758,-209.87C61.7687,-239.194 85.5886,-326.515 140,-371 142.239,-372.831 144.643,-374.486 147.162,-375.981"/>
<polygon fill="midnightblue" stroke="midnightblue" points="145.593,-379.11 156.099,-380.478 148.739,-372.857 145.593,-379.11"/>
</g>
<!-- Node4 -->
<g id="node3" class="node"><title>Node4</title>
<g id="a_node3"><a xlink:href="class_c_world.html#aae01822f61bfe35284a1ca9c02bdb1a5" target="_top" xlink:title="CWorld::getItem">
<polygon fill="none" stroke="black" points="166,-342.5 166,-361.5 253,-361.5 253,-342.5 166,-342.5"/>
<text text-anchor="middle" x="209.5" y="-349.5" font-family="Helvetica,sans-Serif" font-size="10.00">CWorld::getItem</text>
</a>
</g>
</g>
<!-- Node2&#45;&gt;Node4 -->
<g id="edge2" class="edge"><title>Node2&#45;&gt;Node4</title>
<path fill="none" stroke="midnightblue" d="M56.5452,-209.759C66.0148,-234.417 94.3306,-299.629 140,-333 144.851,-336.545 150.335,-339.429 156.035,-341.775"/>
<polygon fill="midnightblue" stroke="midnightblue" points="155.164,-345.18 165.759,-345.237 157.512,-338.585 155.164,-345.18"/>
</g>
<!-- Node5 -->
<g id="node4" class="node"><title>Node5</title>
<g id="a_node4"><a xlink:href="class_c_item.html#ac4e9e3fe8b7110d7e89098fdc9cfe611" target="_top" xlink:title="CItem::getPrice">
<polygon fill="none" stroke="black" points="167.5,-304.5 167.5,-323.5 251.5,-323.5 251.5,-304.5 167.5,-304.5"/>
<text text-anchor="middle" x="209.5" y="-311.5" font-family="Helvetica,sans-Serif" font-size="10.00">CItem::getPrice</text>
</a>
</g>
</g>
<!-- Node2&#45;&gt;Node5 -->
<g id="edge3" class="edge"><title>Node2&#45;&gt;Node5</title>
<path fill="none" stroke="midnightblue" d="M59.132,-209.729C71.8027,-229.017 102.82,-272.207 140,-295 145.455,-298.344 151.51,-301.113 157.698,-303.402"/>
<polygon fill="midnightblue" stroke="midnightblue" points="156.871,-306.815 167.464,-306.619 159.061,-300.166 156.871,-306.815"/>
</g>
<!-- Node6 -->
<g id="node5" class="node"><title>Node6</title>
<g id="a_node5"><a xlink:href="class_c_hero.html#a5e3ad0e205d7ac9e4fd2e021a5cc959e" target="_top" xlink:title="CHero::getGold">
<polygon fill="none" stroke="black" points="168,-266.5 168,-285.5 251,-285.5 251,-266.5 168,-266.5"/>
<text text-anchor="middle" x="209.5" y="-273.5" font-family="Helvetica,sans-Serif" font-size="10.00">CHero::getGold</text>
</a>
</g>
</g>
<!-- Node2&#45;&gt;Node6 -->
<g id="edge4" class="edge"><title>Node2&#45;&gt;Node6</title>
<path fill="none" stroke="midnightblue" d="M64.9725,-209.592C81.1292,-222.113 111.215,-243.962 140,-257 145.754,-259.606 151.946,-261.93 158.171,-263.98"/>
<polygon fill="midnightblue" stroke="midnightblue" points="157.333,-267.384 167.92,-266.977 159.39,-260.693 157.333,-267.384"/>
</g>
<!-- Node7 -->
<g id="node6" class="node"><title>Node7</title>
<g id="a_node6"><a xlink:href="class_c_hero.html#a2968af0dfd838d16690dc67e652b6f89" target="_top" xlink:title="CHero::getInventory">
<polygon fill="none" stroke="black" points="159,-228.5 159,-247.5 260,-247.5 260,-228.5 159,-228.5"/>
<text text-anchor="middle" x="209.5" y="-235.5" font-family="Helvetica,sans-Serif" font-size="10.00">CHero::getInventory</text>
</a>
</g>
</g>
<!-- Node2&#45;&gt;Node7 -->
<g id="edge5" class="edge"><title>Node2&#45;&gt;Node7</title>
<path fill="none" stroke="midnightblue" d="M92.2392,-209.589C112.759,-214.604 138.067,-220.788 159.825,-226.105"/>
<polygon fill="midnightblue" stroke="midnightblue" points="158.998,-229.506 169.543,-228.48 160.66,-222.706 158.998,-229.506"/>
</g>
<!-- Node8 -->
<g id="node7" class="node"><title>Node8</title>
<g id="a_node7"><a xlink:href="class_c_inventory.html#aee94ee18f40ea685f640a15f8f6f75b9" target="_top" xlink:title="CInventory::addItem">
<polygon fill="none" stroke="black" points="158.5,-190.5 158.5,-209.5 260.5,-209.5 260.5,-190.5 158.5,-190.5"/>
<text text-anchor="middle" x="209.5" y="-197.5" font-family="Helvetica,sans-Serif" font-size="10.00">CInventory::addItem</text>
</a>
</g>
</g>
<!-- Node2&#45;&gt;Node8 -->
<g id="edge6" class="edge"><title>Node2&#45;&gt;Node8</title>
<path fill="none" stroke="midnightblue" d="M104.347,-200C118.3,-200 133.54,-200 147.95,-200"/>
<polygon fill="midnightblue" stroke="midnightblue" points="148.265,-203.5 158.265,-200 148.265,-196.5 148.265,-203.5"/>
</g>
<!-- Node9 -->
<g id="node8" class="node"><title>Node9</title>
<g id="a_node8"><a xlink:href="class_c_item.html#aa1c149049fe94513681131f65c8fdd64" target="_top" xlink:title="CItem::getID">
<polygon fill="none" stroke="black" points="174,-152.5 174,-171.5 245,-171.5 245,-152.5 174,-152.5"/>
<text text-anchor="middle" x="209.5" y="-159.5" font-family="Helvetica,sans-Serif" font-size="10.00">CItem::getID</text>
</a>
</g>
</g>
<!-- Node2&#45;&gt;Node9 -->
<g id="edge7" class="edge"><title>Node2&#45;&gt;Node9</title>
<path fill="none" stroke="midnightblue" d="M92.2392,-190.411C114.106,-185.067 141.409,-178.395 164.06,-172.86"/>
<polygon fill="midnightblue" stroke="midnightblue" points="164.895,-176.259 173.778,-170.485 163.233,-169.459 164.895,-176.259"/>
</g>
<!-- Node10 -->
<g id="node9" class="node"><title>Node10</title>
<g id="a_node9"><a xlink:href="class_c_hero.html#a8568163de8d05b40e5c0b1d878472fd4" target="_top" xlink:title="CHero::payGold">
<polygon fill="none" stroke="black" points="166.5,-114.5 166.5,-133.5 252.5,-133.5 252.5,-114.5 166.5,-114.5"/>
<text text-anchor="middle" x="209.5" y="-121.5" font-family="Helvetica,sans-Serif" font-size="10.00">CHero::payGold</text>
</a>
</g>
</g>
<!-- Node2&#45;&gt;Node10 -->
<g id="edge8" class="edge"><title>Node2&#45;&gt;Node10</title>
<path fill="none" stroke="midnightblue" d="M64.9725,-190.408C81.1292,-177.887 111.215,-156.038 140,-143 145.329,-140.586 151.034,-138.415 156.792,-136.479"/>
<polygon fill="midnightblue" stroke="midnightblue" points="157.982,-139.774 166.476,-133.442 155.887,-133.095 157.982,-139.774"/>
</g>
<!-- Node11 -->
<g id="node10" class="node"><title>Node11</title>
<g id="a_node10"><a xlink:href="class_c_display.html#a53b65673a9b0bfc807a3a1e448962928" target="_top" xlink:title="CDisplay::printWithDelimiter">
<polygon fill="none" stroke="black" points="140,-76.5 140,-95.5 279,-95.5 279,-76.5 140,-76.5"/>
<text text-anchor="middle" x="209.5" y="-83.5" font-family="Helvetica,sans-Serif" font-size="10.00">CDisplay::printWithDelimiter</text>
</a>
</g>
</g>
<!-- Node2&#45;&gt;Node11 -->
<g id="edge9" class="edge"><title>Node2&#45;&gt;Node11</title>
<path fill="none" stroke="midnightblue" d="M59.132,-190.271C71.8027,-170.983 102.82,-127.793 140,-105 143.551,-102.823 147.356,-100.89 151.287,-99.1741"/>
<polygon fill="midnightblue" stroke="midnightblue" points="152.568,-102.431 160.626,-95.5524 150.037,-95.9049 152.568,-102.431"/>
</g>
<!-- Node13 -->
<g id="node12" class="node"><title>Node13</title>
<g id="a_node12"><a xlink:href="class_c_item.html#a4287076827e954d45cfa45a7bcc10999" target="_top" xlink:title="CItem::getName">
<polygon fill="none" stroke="black" points="166,-38.5 166,-57.5 253,-57.5 253,-38.5 166,-38.5"/>
<text text-anchor="middle" x="209.5" y="-45.5" font-family="Helvetica,sans-Serif" font-size="10.00">CItem::getName</text>
</a>
</g>
</g>
<!-- Node2&#45;&gt;Node13 -->
<g id="edge11" class="edge"><title>Node2&#45;&gt;Node13</title>
<path fill="none" stroke="midnightblue" d="M56.5452,-190.241C66.0148,-165.583 94.3306,-100.371 140,-67 144.851,-63.4549 150.335,-60.5711 156.035,-58.2251"/>
<polygon fill="midnightblue" stroke="midnightblue" points="157.512,-61.4146 165.759,-54.7632 155.164,-54.8201 157.512,-61.4146"/>
</g>
<!-- Node14 -->
<g id="node13" class="node"><title>Node14</title>
<g id="a_node13"><a xlink:href="class_c_shopping.html#a83cfae0f7001775fc1d5a5dc097b3e96" target="_top" xlink:title="CShopping::eraseItem">
<polygon fill="none" stroke="black" points="153,-0.5 153,-19.5 266,-19.5 266,-0.5 153,-0.5"/>
<text text-anchor="middle" x="209.5" y="-7.5" font-family="Helvetica,sans-Serif" font-size="10.00">CShopping::eraseItem</text>
</a>
</g>
</g>
<!-- Node2&#45;&gt;Node14 -->
<g id="edge12" class="edge"><title>Node2&#45;&gt;Node14</title>
<path fill="none" stroke="midnightblue" d="M55.0758,-190.13C61.7687,-160.806 85.5886,-73.4852 140,-29 142.239,-27.1692 144.643,-25.5143 147.162,-24.0186"/>
<polygon fill="midnightblue" stroke="midnightblue" points="148.739,-27.143 156.099,-19.5216 145.593,-20.89 148.739,-27.143"/>
</g>
<!-- Node12 -->
<g id="node11" class="node"><title>Node12</title>
<g id="a_node11"><a xlink:href="class_c_display.html#af350b35b44fc756e0c721ec4ee56c67a" target="_top" xlink:title="CDisplay::printDelimiter">
<polygon fill="none" stroke="black" points="315,-76.5 315,-95.5 434,-95.5 434,-76.5 315,-76.5"/>
<text text-anchor="middle" x="374.5" y="-83.5" font-family="Helvetica,sans-Serif" font-size="10.00">CDisplay::printDelimiter</text>
</a>
</g>
</g>
<!-- Node11&#45;&gt;Node12 -->
<g id="edge10" class="edge"><title>Node11&#45;&gt;Node12</title>
<path fill="none" stroke="midnightblue" d="M279.154,-86C287.628,-86 296.293,-86 304.768,-86"/>
<polygon fill="midnightblue" stroke="midnightblue" points="304.987,-89.5001 314.987,-86 304.987,-82.5001 304.987,-89.5001"/>
</g>
</g>
</svg>
