<?xml version="1.0" encoding="UTF-8" standalone="no"?>
<!DOCTYPE svg PUBLIC "-//W3C//DTD SVG 1.1//EN"
 "http://www.w3.org/Graphics/SVG/1.1/DTD/svg11.dtd">
<!-- Generated by graphviz version 2.38.0 (20140413.2041)
 -->
<!-- Title: CTrap Pages: 1 -->
<svg width="81pt" height="248pt"
 viewBox="0.00 0.00 81.00 248.00" xmlns="http://www.w3.org/2000/svg" xmlns:xlink="http://www.w3.org/1999/xlink">
<g id="graph0" class="graph" transform="scale(1 1) rotate(0) translate(4 244)">
<title>CTrap</title>
<!-- Node0 -->
<g id="node1" class="node"><title>Node0</title>
<polygon fill="#bfbfbf" stroke="black" points="3.5,-0.5 3.5,-90.5 69.5,-90.5 69.5,-0.5 3.5,-0.5"/>
<text text-anchor="middle" x="36.5" y="-78.5" font-family="Helvetica,sans-Serif" font-size="10.00">CTrap</text>
<polyline fill="none" stroke="black" points="3.5,-71.5 69.5,-71.5 "/>
<text text-anchor="start" x="11.5" y="-59.5" font-family="Helvetica,sans-Serif" font-size="10.00"># damage</text>
<polyline fill="none" stroke="black" points="3.5,-52.5 69.5,-52.5 "/>
<text text-anchor="start" x="11.5" y="-40.5" font-family="Helvetica,sans-Serif" font-size="10.00">+ CTrap()</text>
<text text-anchor="start" x="11.5" y="-29.5" font-family="Helvetica,sans-Serif" font-size="10.00">+ CTrap()</text>
<text text-anchor="start" x="11.5" y="-18.5" font-family="Helvetica,sans-Serif" font-size="10.00">+ print()</text>
<text text-anchor="start" x="11.5" y="-7.5" font-family="Helvetica,sans-Serif" font-size="10.00">+ execute()</text>
</g>
<!-- Node1 -->
<g id="node2" class="node"><title>Node1</title>
<g id="a_node2"><a xlink:href="class_c_event.html" target="_top" xlink:title="{CEvent\n|# eventID\l# eventName\l# text\l|+ CEvent()\l+ ~CEvent()\l+ print()\l+ execute()\l}">
<polygon fill="none" stroke="black" points="0,-127.5 0,-239.5 73,-239.5 73,-127.5 0,-127.5"/>
<text text-anchor="middle" x="36.5" y="-227.5" font-family="Helvetica,sans-Serif" font-size="10.00">CEvent</text>
<polyline fill="none" stroke="black" points="0,-220.5 73,-220.5 "/>
<text text-anchor="start" x="8" y="-208.5" font-family="Helvetica,sans-Serif" font-size="10.00"># eventID</text>
<text text-anchor="start" x="8" y="-197.5" font-family="Helvetica,sans-Serif" font-size="10.00"># eventName</text>
<text text-anchor="start" x="8" y="-186.5" font-family="Helvetica,sans-Serif" font-size="10.00"># text</text>
<polyline fill="none" stroke="black" points="0,-179.5 73,-179.5 "/>
<text text-anchor="start" x="8" y="-167.5" font-family="Helvetica,sans-Serif" font-size="10.00">+ CEvent()</text>
<text text-anchor="start" x="8" y="-156.5" font-family="Helvetica,sans-Serif" font-size="10.00">+ ~CEvent()</text>
<text text-anchor="start" x="8" y="-145.5" font-family="Helvetica,sans-Serif" font-size="10.00">+ print()</text>
<text text-anchor="start" x="8" y="-134.5" font-family="Helvetica,sans-Serif" font-size="10.00">+ execute()</text>
</a>
</g>
</g>
<!-- Node1&#45;&gt;Node0 -->
<g id="edge1" class="edge"><title>Node1&#45;&gt;Node0</title>
<path fill="none" stroke="midnightblue" d="M36.5,-117.076C36.5,-108.072 36.5,-99.0069 36.5,-90.5144"/>
<polygon fill="none" stroke="midnightblue" points="33.0001,-117.184 36.5,-127.184 40.0001,-117.184 33.0001,-117.184"/>
</g>
</g>
</svg>
