<?xml version="1.0" encoding="UTF-8" standalone="no"?>
<!DOCTYPE svg PUBLIC "-//W3C//DTD SVG 1.1//EN"
 "http://www.w3.org/Graphics/SVG/1.1/DTD/svg11.dtd">
<!-- Generated by graphviz version 2.38.0 (20140413.2041)
 -->
<!-- Title: CEquipment::getAttack Pages: 1 -->
<svg width="997pt" height="104pt"
 viewBox="0.00 0.00 997.00 104.00" xmlns="http://www.w3.org/2000/svg" xmlns:xlink="http://www.w3.org/1999/xlink">
<g id="graph0" class="graph" transform="scale(1 1) rotate(0) translate(4 100)">
<title>CEquipment::getAttack</title>
<!-- Node16 -->
<g id="node1" class="node"><title>Node16</title>
<polygon fill="#bfbfbf" stroke="black" points="0,-57.5 0,-76.5 118,-76.5 118,-57.5 0,-57.5"/>
<text text-anchor="middle" x="59" y="-64.5" font-family="Helvetica,sans-Serif" font-size="10.00">CEquipment::getAttack</text>
</g>
<!-- Node17 -->
<g id="node2" class="node"><title>Node17</title>
<g id="a_node2"><a xlink:href="class_c_hero.html#a1593ac4dfc01368e99b2b82a21c3c6ed" target="_top" xlink:title="CHero::exportData">
<polygon fill="none" stroke="black" points="154,-76.5 154,-95.5 251,-95.5 251,-76.5 154,-76.5"/>
<text text-anchor="middle" x="202.5" y="-83.5" font-family="Helvetica,sans-Serif" font-size="10.00">CHero::exportData</text>
</a>
</g>
</g>
<!-- Node16&#45;&gt;Node17 -->
<g id="edge1" class="edge"><title>Node16&#45;&gt;Node17</title>
<path fill="none" stroke="midnightblue" d="M128.344,-76.1769C136.883,-77.3235 145.469,-78.4764 153.604,-79.5687"/>
<polygon fill="midnightblue" stroke="midnightblue" points="128.747,-72.6998 118.37,-74.8377 127.816,-79.6375 128.747,-72.6998"/>
</g>
<!-- Node24 -->
<g id="node9" class="node"><title>Node24</title>
<g id="a_node9"><a xlink:href="class_c_hero.html#a1be25c88254db1f753e1ce89da03ef46" target="_top" xlink:title="CHero::getAttack">
<polygon fill="none" stroke="black" points="156.5,-38.5 156.5,-57.5 248.5,-57.5 248.5,-38.5 156.5,-38.5"/>
<text text-anchor="middle" x="202.5" y="-45.5" font-family="Helvetica,sans-Serif" font-size="10.00">CHero::getAttack</text>
</a>
</g>
</g>
<!-- Node16&#45;&gt;Node24 -->
<g id="edge9" class="edge"><title>Node16&#45;&gt;Node24</title>
<path fill="none" stroke="midnightblue" d="M128.524,-57.7988C137.93,-56.5359 147.388,-55.2659 156.233,-54.0783"/>
<polygon fill="midnightblue" stroke="midnightblue" points="127.816,-54.3625 118.37,-59.1623 128.747,-61.3002 127.816,-54.3625"/>
</g>
<!-- Node18 -->
<g id="node3" class="node"><title>Node18</title>
<g id="a_node3"><a xlink:href="class_c_game.html#a7d821ce9a0454653bbfde69979155da9" target="_top" xlink:title="CGame::exportPlayerData">
<polygon fill="none" stroke="black" points="287,-76.5 287,-95.5 418,-95.5 418,-76.5 287,-76.5"/>
<text text-anchor="middle" x="352.5" y="-83.5" font-family="Helvetica,sans-Serif" font-size="10.00">CGame::exportPlayerData</text>
</a>
</g>
</g>
<!-- Node17&#45;&gt;Node18 -->
<g id="edge2" class="edge"><title>Node17&#45;&gt;Node18</title>
<path fill="none" stroke="midnightblue" d="M261.245,-86C269.673,-86 278.397,-86 286.95,-86"/>
<polygon fill="midnightblue" stroke="midnightblue" points="261.143,-82.5001 251.143,-86 261.143,-89.5001 261.143,-82.5001"/>
</g>
<!-- Node19 -->
<g id="node4" class="node"><title>Node19</title>
<g id="a_node4"><a xlink:href="class_c_game.html#a49656fe4404b3df63f2dbebd9b754edd" target="_top" xlink:title="CGame::saveGame">
<polygon fill="none" stroke="black" points="454,-76.5 454,-95.5 555,-95.5 555,-76.5 454,-76.5"/>
<text text-anchor="middle" x="504.5" y="-83.5" font-family="Helvetica,sans-Serif" font-size="10.00">CGame::saveGame</text>
</a>
</g>
</g>
<!-- Node18&#45;&gt;Node19 -->
<g id="edge3" class="edge"><title>Node18&#45;&gt;Node19</title>
<path fill="none" stroke="midnightblue" d="M428.495,-86C437.101,-86 445.707,-86 453.86,-86"/>
<polygon fill="midnightblue" stroke="midnightblue" points="428.42,-82.5001 418.42,-86 428.42,-89.5001 428.42,-82.5001"/>
</g>
<!-- Node20 -->
<g id="node5" class="node"><title>Node20</title>
<g id="a_node5"><a xlink:href="class_c_game.html#a714b291af5e20aae8be14a905fd0522d" target="_top" xlink:title="CGame::tickComponent">
<polygon fill="none" stroke="black" points="591,-38.5 591,-57.5 712,-57.5 712,-38.5 591,-38.5"/>
<text text-anchor="middle" x="651.5" y="-45.5" font-family="Helvetica,sans-Serif" font-size="10.00">CGame::tickComponent</text>
</a>
</g>
</g>
<!-- Node19&#45;&gt;Node20 -->
<g id="edge4" class="edge"><title>Node19&#45;&gt;Node20</title>
<path fill="none" stroke="midnightblue" d="M551.993,-73.8157C572.124,-68.54 595.338,-62.4562 614.173,-57.5201"/>
<polygon fill="midnightblue" stroke="midnightblue" points="550.876,-70.4902 542.09,-76.411 552.65,-77.2615 550.876,-70.4902"/>
</g>
<!-- Node21 -->
<g id="node6" class="node"><title>Node21</title>
<g id="a_node6"><a xlink:href="class_c_game.html#aa9d3da2fefa1c04faefc6586dbd37971" target="_top" xlink:title="CGame::play">
<polygon fill="none" stroke="black" points="748,-19.5 748,-38.5 822,-38.5 822,-19.5 748,-19.5"/>
<text text-anchor="middle" x="785" y="-26.5" font-family="Helvetica,sans-Serif" font-size="10.00">CGame::play</text>
</a>
</g>
</g>
<!-- Node20&#45;&gt;Node21 -->
<g id="edge5" class="edge"><title>Node20&#45;&gt;Node21</title>
<path fill="none" stroke="midnightblue" d="M722.157,-37.9354C731.065,-36.6483 739.878,-35.3751 747.937,-34.2107"/>
<polygon fill="midnightblue" stroke="midnightblue" points="721.491,-34.4953 712.094,-39.3895 722.492,-41.4234 721.491,-34.4953"/>
</g>
<!-- Node22 -->
<g id="node7" class="node"><title>Node22</title>
<g id="a_node7"><a xlink:href="class_c_game.html#ac0a8028013ca5a7c135c29fa582df4a0" target="_top" xlink:title="CGame::checkHeroStatus">
<polygon fill="none" stroke="black" points="858,-57.5 858,-76.5 989,-76.5 989,-57.5 858,-57.5"/>
<text text-anchor="middle" x="923.5" y="-64.5" font-family="Helvetica,sans-Serif" font-size="10.00">CGame::checkHeroStatus</text>
</a>
</g>
</g>
<!-- Node21&#45;&gt;Node22 -->
<g id="edge6" class="edge"><title>Node21&#45;&gt;Node22</title>
<path fill="none" stroke="midnightblue" d="M830.249,-41.3183C849.003,-46.5393 870.528,-52.5316 888.066,-57.4141"/>
<polygon fill="midnightblue" stroke="midnightblue" points="831.017,-37.8992 820.445,-38.589 829.14,-44.6428 831.017,-37.8992"/>
</g>
<!-- Node23 -->
<g id="node8" class="node"><title>Node23</title>
<g id="a_node8"><a xlink:href="main_8cpp.html#ae66f6b31b5ad750f1fe042a706a4e3d4" target="_top" xlink:title="main">
<polygon fill="none" stroke="black" points="904.5,-19.5 904.5,-38.5 942.5,-38.5 942.5,-19.5 904.5,-19.5"/>
<text text-anchor="middle" x="923.5" y="-26.5" font-family="Helvetica,sans-Serif" font-size="10.00">main</text>
</a>
</g>
</g>
<!-- Node21&#45;&gt;Node23 -->
<g id="edge8" class="edge"><title>Node21&#45;&gt;Node23</title>
<path fill="none" stroke="midnightblue" d="M832.458,-29C857.045,-29 885.849,-29 904.132,-29"/>
<polygon fill="midnightblue" stroke="midnightblue" points="832.221,-25.5001 822.221,-29 832.221,-32.5001 832.221,-25.5001"/>
</g>
<!-- Node22&#45;&gt;Node20 -->
<g id="edge7" class="edge"><title>Node22&#45;&gt;Node20</title>
<path fill="none" stroke="midnightblue" d="M847.793,-61.7429C805.008,-58.7321 752.055,-55.0057 712.087,-52.1932"/>
<polygon fill="midnightblue" stroke="midnightblue" points="847.654,-65.2416 857.875,-62.4523 848.146,-58.2589 847.654,-65.2416"/>
</g>
<!-- Node25 -->
<g id="node10" class="node"><title>Node25</title>
<g id="a_node10"><a xlink:href="class_c_hero.html#a7cda26a24b8e70fc2ffe829e9c984b7e" target="_top" xlink:title="CHero::fight">
<polygon fill="none" stroke="black" points="318.5,-38.5 318.5,-57.5 386.5,-57.5 386.5,-38.5 318.5,-38.5"/>
<text text-anchor="middle" x="352.5" y="-45.5" font-family="Helvetica,sans-Serif" font-size="10.00">CHero::fight</text>
</a>
</g>
</g>
<!-- Node24&#45;&gt;Node25 -->
<g id="edge10" class="edge"><title>Node24&#45;&gt;Node25</title>
<path fill="none" stroke="midnightblue" d="M258.946,-48C278.922,-48 300.826,-48 318.309,-48"/>
<polygon fill="midnightblue" stroke="midnightblue" points="258.709,-44.5001 248.709,-48 258.709,-51.5001 258.709,-44.5001"/>
</g>
<!-- Node27 -->
<g id="node12" class="node"><title>Node27</title>
<g id="a_node12"><a xlink:href="class_c_hero.html#a0232f04b4e49227ba90a8922135d4102" target="_top" xlink:title="CHero::printStats">
<polygon fill="none" stroke="black" points="458.5,-0.5 458.5,-19.5 550.5,-19.5 550.5,-0.5 458.5,-0.5"/>
<text text-anchor="middle" x="504.5" y="-7.5" font-family="Helvetica,sans-Serif" font-size="10.00">CHero::printStats</text>
</a>
</g>
</g>
<!-- Node24&#45;&gt;Node27 -->
<g id="edge12" class="edge"><title>Node24&#45;&gt;Node27</title>
<path fill="none" stroke="midnightblue" d="M250.082,-36.2214C262.051,-33.5202 274.952,-30.8904 287,-29 345.708,-19.7884 414.126,-14.7196 458.084,-12.1828"/>
<polygon fill="midnightblue" stroke="midnightblue" points="249.237,-32.8245 240.285,-38.4926 250.818,-39.6436 249.237,-32.8245"/>
</g>
<!-- Node26 -->
<g id="node11" class="node"><title>Node26</title>
<g id="a_node11"><a xlink:href="class_c_fight.html#ac820b62e70990ddc90ecb959f4497f8f" target="_top" xlink:title="CFight::execute">
<polygon fill="none" stroke="black" points="461.5,-38.5 461.5,-57.5 547.5,-57.5 547.5,-38.5 461.5,-38.5"/>
<text text-anchor="middle" x="504.5" y="-45.5" font-family="Helvetica,sans-Serif" font-size="10.00">CFight::execute</text>
</a>
</g>
</g>
<!-- Node25&#45;&gt;Node26 -->
<g id="edge11" class="edge"><title>Node25&#45;&gt;Node26</title>
<path fill="none" stroke="midnightblue" d="M397.015,-48C417.3,-48 441.339,-48 461.439,-48"/>
<polygon fill="midnightblue" stroke="midnightblue" points="396.79,-44.5001 386.79,-48 396.79,-51.5001 396.79,-44.5001"/>
</g>
<!-- Node27&#45;&gt;Node20 -->
<g id="edge13" class="edge"><title>Node27&#45;&gt;Node20</title>
<path fill="none" stroke="midnightblue" d="M551.993,-22.1843C572.124,-27.46 595.338,-33.5438 614.173,-38.4799"/>
<polygon fill="midnightblue" stroke="midnightblue" points="552.65,-18.7385 542.09,-19.589 550.876,-25.5098 552.65,-18.7385"/>
</g>
</g>
</svg>
