<?xml version="1.0" encoding="UTF-8" standalone="no"?>
<!DOCTYPE svg PUBLIC "-//W3C//DTD SVG 1.1//EN"
 "http://www.w3.org/Graphics/SVG/1.1/DTD/svg11.dtd">
<!-- Generated by graphviz version 2.38.0 (20140413.2041)
 -->
<!-- Title: CStoryline::update Pages: 1 -->
<svg width="979pt" height="97pt"
 viewBox="0.00 0.00 979.00 97.16" xmlns="http://www.w3.org/2000/svg" xmlns:xlink="http://www.w3.org/1999/xlink">
<g id="graph0" class="graph" transform="scale(1 1) rotate(0) translate(4 93.1632)">
<title>CStoryline::update</title>
<!-- Node22 -->
<g id="node1" class="node"><title>Node22</title>
<polygon fill="#bfbfbf" stroke="black" points="0,-38.5 0,-57.5 97,-57.5 97,-38.5 0,-38.5"/>
<text text-anchor="middle" x="48.5" y="-45.5" font-family="Helvetica,sans-Serif" font-size="10.00">CStoryline::update</text>
</g>
<!-- Node23 -->
<g id="node2" class="node"><title>Node23</title>
<g id="a_node2"><a xlink:href="class_c_game.html#acdb5a10d8b17584b07b3c736ede7bf57" target="_top" xlink:title="CGame::reset">
<polygon fill="none" stroke="black" points="448,-57.5 448,-76.5 525,-76.5 525,-57.5 448,-57.5"/>
<text text-anchor="middle" x="486.5" y="-64.5" font-family="Helvetica,sans-Serif" font-size="10.00">CGame::reset</text>
</a>
</g>
</g>
<!-- Node22&#45;&gt;Node23 -->
<g id="edge1" class="edge"><title>Node22&#45;&gt;Node23</title>
<path fill="none" stroke="midnightblue" d="M107.535,-50.529C198.401,-54.4888 371.733,-62.0422 447.954,-65.3638"/>
<polygon fill="midnightblue" stroke="midnightblue" points="107.55,-47.0265 97.4068,-50.0877 107.245,-54.0198 107.55,-47.0265"/>
</g>
<!-- Node29 -->
<g id="node8" class="node"><title>Node29</title>
<g id="a_node8"><a xlink:href="class_c_game.html#a507b71eeebc2a6aaa08d9e0dcb61c7ac" target="_top" xlink:title="CGame::importPlayerData">
<polygon fill="none" stroke="black" points="133,-19.5 133,-38.5 264,-38.5 264,-19.5 133,-19.5"/>
<text text-anchor="middle" x="198.5" y="-26.5" font-family="Helvetica,sans-Serif" font-size="10.00">CGame::importPlayerData</text>
</a>
</g>
</g>
<!-- Node22&#45;&gt;Node29 -->
<g id="edge9" class="edge"><title>Node22&#45;&gt;Node29</title>
<path fill="none" stroke="midnightblue" d="M107.245,-40.5868C115.673,-39.5048 124.397,-38.3848 132.95,-37.2868"/>
<polygon fill="midnightblue" stroke="midnightblue" points="106.616,-37.1388 97.1428,-41.8837 107.507,-44.0818 106.616,-37.1388"/>
</g>
<!-- Node24 -->
<g id="node3" class="node"><title>Node24</title>
<g id="a_node3"><a xlink:href="class_c_game.html#a714b291af5e20aae8be14a905fd0522d" target="_top" xlink:title="CGame::tickComponent">
<polygon fill="none" stroke="black" points="573,-19.5 573,-38.5 694,-38.5 694,-19.5 573,-19.5"/>
<text text-anchor="middle" x="633.5" y="-26.5" font-family="Helvetica,sans-Serif" font-size="10.00">CGame::tickComponent</text>
</a>
</g>
</g>
<!-- Node23&#45;&gt;Node24 -->
<g id="edge2" class="edge"><title>Node23&#45;&gt;Node24</title>
<path fill="none" stroke="midnightblue" d="M533.993,-54.8157C554.124,-49.54 577.338,-43.4562 596.173,-38.5201"/>
<polygon fill="midnightblue" stroke="midnightblue" points="532.876,-51.4902 524.09,-57.411 534.65,-58.2615 532.876,-51.4902"/>
</g>
<!-- Node26 -->
<g id="node5" class="node"><title>Node26</title>
<g id="a_node5"><a xlink:href="class_c_game.html#ac0a8028013ca5a7c135c29fa582df4a0" target="_top" xlink:title="CGame::checkHeroStatus">
<polygon fill="none" stroke="black" points="840,-38.5 840,-57.5 971,-57.5 971,-38.5 840,-38.5"/>
<text text-anchor="middle" x="905.5" y="-45.5" font-family="Helvetica,sans-Serif" font-size="10.00">CGame::checkHeroStatus</text>
</a>
</g>
</g>
<!-- Node23&#45;&gt;Node26 -->
<g id="edge7" class="edge"><title>Node23&#45;&gt;Node26</title>
<path fill="none" stroke="midnightblue" d="M531.899,-78.7973C545.034,-81.7615 559.51,-84.5192 573,-86 680.105,-97.7571 806.569,-72.3697 867.722,-57.607"/>
<polygon fill="midnightblue" stroke="midnightblue" points="532.69,-75.3879 522.155,-76.508 531.089,-82.2024 532.69,-75.3879"/>
</g>
<!-- Node28 -->
<g id="node7" class="node"><title>Node28</title>
<g id="a_node7"><a xlink:href="class_c_game.html#af5435e79a93dd92991ae24b499976470" target="_top" xlink:title="CGame::CGame">
<polygon fill="none" stroke="black" points="589,-57.5 589,-76.5 678,-76.5 678,-57.5 589,-57.5"/>
<text text-anchor="middle" x="633.5" y="-64.5" font-family="Helvetica,sans-Serif" font-size="10.00">CGame::CGame</text>
</a>
</g>
</g>
<!-- Node23&#45;&gt;Node28 -->
<g id="edge8" class="edge"><title>Node23&#45;&gt;Node28</title>
<path fill="none" stroke="midnightblue" d="M535.605,-67C552.779,-67 572.022,-67 588.805,-67"/>
<polygon fill="midnightblue" stroke="midnightblue" points="535.219,-63.5001 525.219,-67 535.218,-70.5001 535.219,-63.5001"/>
</g>
<!-- Node25 -->
<g id="node4" class="node"><title>Node25</title>
<g id="a_node4"><a xlink:href="class_c_game.html#aa9d3da2fefa1c04faefc6586dbd37971" target="_top" xlink:title="CGame::play">
<polygon fill="none" stroke="black" points="730,-0.5 730,-19.5 804,-19.5 804,-0.5 730,-0.5"/>
<text text-anchor="middle" x="767" y="-7.5" font-family="Helvetica,sans-Serif" font-size="10.00">CGame::play</text>
</a>
</g>
</g>
<!-- Node24&#45;&gt;Node25 -->
<g id="edge3" class="edge"><title>Node24&#45;&gt;Node25</title>
<path fill="none" stroke="midnightblue" d="M704.157,-18.9354C713.065,-17.6483 721.878,-16.3751 729.937,-15.2107"/>
<polygon fill="midnightblue" stroke="midnightblue" points="703.491,-15.4953 694.094,-20.3895 704.492,-22.4234 703.491,-15.4953"/>
</g>
<!-- Node25&#45;&gt;Node26 -->
<g id="edge4" class="edge"><title>Node25&#45;&gt;Node26</title>
<path fill="none" stroke="midnightblue" d="M812.249,-22.3183C831.003,-27.5393 852.528,-33.5316 870.066,-38.4141"/>
<polygon fill="midnightblue" stroke="midnightblue" points="813.017,-18.8992 802.445,-19.589 811.14,-25.6428 813.017,-18.8992"/>
</g>
<!-- Node27 -->
<g id="node6" class="node"><title>Node27</title>
<g id="a_node6"><a xlink:href="main_8cpp.html#ae66f6b31b5ad750f1fe042a706a4e3d4" target="_top" xlink:title="main">
<polygon fill="none" stroke="black" points="886.5,-0.5 886.5,-19.5 924.5,-19.5 924.5,-0.5 886.5,-0.5"/>
<text text-anchor="middle" x="905.5" y="-7.5" font-family="Helvetica,sans-Serif" font-size="10.00">main</text>
</a>
</g>
</g>
<!-- Node25&#45;&gt;Node27 -->
<g id="edge6" class="edge"><title>Node25&#45;&gt;Node27</title>
<path fill="none" stroke="midnightblue" d="M814.458,-10C839.045,-10 867.849,-10 886.132,-10"/>
<polygon fill="midnightblue" stroke="midnightblue" points="814.221,-6.5001 804.221,-10 814.221,-13.5001 814.221,-6.5001"/>
</g>
<!-- Node26&#45;&gt;Node24 -->
<g id="edge5" class="edge"><title>Node26&#45;&gt;Node24</title>
<path fill="none" stroke="midnightblue" d="M829.793,-42.7429C787.008,-39.7321 734.055,-36.0057 694.087,-33.1932"/>
<polygon fill="midnightblue" stroke="midnightblue" points="829.654,-46.2416 839.875,-43.4523 830.146,-39.2589 829.654,-46.2416"/>
</g>
<!-- Node30 -->
<g id="node9" class="node"><title>Node30</title>
<g id="a_node9"><a xlink:href="class_c_game.html#accda079824fc813cbd64b4743846ae24" target="_top" xlink:title="CGame::loadGame">
<polygon fill="none" stroke="black" points="300,-19.5 300,-38.5 400,-38.5 400,-19.5 300,-19.5"/>
<text text-anchor="middle" x="350" y="-26.5" font-family="Helvetica,sans-Serif" font-size="10.00">CGame::loadGame</text>
</a>
</g>
</g>
<!-- Node29&#45;&gt;Node30 -->
<g id="edge10" class="edge"><title>Node29&#45;&gt;Node30</title>
<path fill="none" stroke="midnightblue" d="M274.379,-29C283.071,-29 291.76,-29 299.977,-29"/>
<polygon fill="midnightblue" stroke="midnightblue" points="274.203,-25.5001 264.203,-29 274.203,-32.5001 274.203,-25.5001"/>
</g>
<!-- Node31 -->
<g id="node10" class="node"><title>Node31</title>
<g id="a_node10"><a xlink:href="class_c_game.html#a39e1e296c6dcabbf5c824eea6424d6d9" target="_top" xlink:title="CGame::mainMenu">
<polygon fill="none" stroke="black" points="436,-19.5 436,-38.5 537,-38.5 537,-19.5 436,-19.5"/>
<text text-anchor="middle" x="486.5" y="-26.5" font-family="Helvetica,sans-Serif" font-size="10.00">CGame::mainMenu</text>
</a>
</g>
</g>
<!-- Node30&#45;&gt;Node31 -->
<g id="edge11" class="edge"><title>Node30&#45;&gt;Node31</title>
<path fill="none" stroke="midnightblue" d="M410.486,-29C418.918,-29 427.515,-29 435.737,-29"/>
<polygon fill="midnightblue" stroke="midnightblue" points="410.319,-25.5001 400.319,-29 410.319,-32.5001 410.319,-25.5001"/>
</g>
<!-- Node31&#45;&gt;Node24 -->
<g id="edge13" class="edge"><title>Node31&#45;&gt;Node24</title>
<path fill="none" stroke="midnightblue" d="M547.451,-29C555.81,-29 564.398,-29 572.753,-29"/>
<polygon fill="midnightblue" stroke="midnightblue" points="547.401,-25.5001 537.401,-29 547.401,-32.5001 547.401,-25.5001"/>
</g>
<!-- Node31&#45;&gt;Node25 -->
<g id="edge12" class="edge"><title>Node31&#45;&gt;Node25</title>
<path fill="none" stroke="midnightblue" d="M531.899,-17.2027C545.034,-14.2385 559.51,-11.4808 573,-10 627.457,-4.02216 691.079,-5.68008 729.945,-7.65864"/>
<polygon fill="midnightblue" stroke="midnightblue" points="531.089,-13.7976 522.155,-19.492 532.69,-20.6121 531.089,-13.7976"/>
</g>
</g>
</svg>
