<?xml version="1.0" encoding="UTF-8" standalone="no"?>
<!DOCTYPE svg PUBLIC "-//W3C//DTD SVG 1.1//EN"
 "http://www.w3.org/Graphics/SVG/1.1/DTD/svg11.dtd">
<!-- Generated by graphviz version 2.38.0 (20140413.2041)
 -->
<!-- Title: CHero::isDead Pages: 1 -->
<svg width="596pt" height="104pt"
 viewBox="0.00 0.00 596.00 104.00" xmlns="http://www.w3.org/2000/svg" xmlns:xlink="http://www.w3.org/1999/xlink">
<g id="graph0" class="graph" transform="scale(1 1) rotate(0) translate(4 100)">
<title>CHero::isDead</title>
<!-- Node70 -->
<g id="node1" class="node"><title>Node70</title>
<polygon fill="#bfbfbf" stroke="black" points="0,-38.5 0,-57.5 80,-57.5 80,-38.5 0,-38.5"/>
<text text-anchor="middle" x="40" y="-45.5" font-family="Helvetica,sans-Serif" font-size="10.00">CHero::isDead</text>
</g>
<!-- Node71 -->
<g id="node2" class="node"><title>Node71</title>
<g id="a_node2"><a xlink:href="class_c_fight.html#ac820b62e70990ddc90ecb959f4497f8f" target="_top" xlink:title="CFight::execute">
<polygon fill="none" stroke="black" points="138.5,-76.5 138.5,-95.5 224.5,-95.5 224.5,-76.5 138.5,-76.5"/>
<text text-anchor="middle" x="181.5" y="-83.5" font-family="Helvetica,sans-Serif" font-size="10.00">CFight::execute</text>
</a>
</g>
</g>
<!-- Node70&#45;&gt;Node71 -->
<g id="edge1" class="edge"><title>Node70&#45;&gt;Node71</title>
<path fill="none" stroke="midnightblue" d="M85.9564,-60.2462C105.185,-65.484 127.303,-71.5091 145.31,-76.4141"/>
<polygon fill="midnightblue" stroke="midnightblue" points="86.7701,-56.8404 76.2017,-57.589 84.9303,-63.5943 86.7701,-56.8404"/>
</g>
<!-- Node72 -->
<g id="node3" class="node"><title>Node72</title>
<g id="a_node3"><a xlink:href="class_c_game.html#ac0a8028013ca5a7c135c29fa582df4a0" target="_top" xlink:title="CGame::checkHeroStatus">
<polygon fill="none" stroke="black" points="116,-38.5 116,-57.5 247,-57.5 247,-38.5 116,-38.5"/>
<text text-anchor="middle" x="181.5" y="-45.5" font-family="Helvetica,sans-Serif" font-size="10.00">CGame::checkHeroStatus</text>
</a>
</g>
</g>
<!-- Node70&#45;&gt;Node72 -->
<g id="edge2" class="edge"><title>Node70&#45;&gt;Node72</title>
<path fill="none" stroke="midnightblue" d="M90.436,-48C98.7007,-48 107.382,-48 115.958,-48"/>
<polygon fill="midnightblue" stroke="midnightblue" points="90.2298,-44.5001 80.2298,-48 90.2297,-51.5001 90.2298,-44.5001"/>
</g>
<!-- Node76 -->
<g id="node7" class="node"><title>Node76</title>
<g id="a_node7"><a xlink:href="class_c_trap.html#a0b0925310ffbfa28f877ac5669f8bb20" target="_top" xlink:title="CTrap::execute">
<polygon fill="none" stroke="black" points="140,-0.5 140,-19.5 223,-19.5 223,-0.5 140,-0.5"/>
<text text-anchor="middle" x="181.5" y="-7.5" font-family="Helvetica,sans-Serif" font-size="10.00">CTrap::execute</text>
</a>
</g>
</g>
<!-- Node70&#45;&gt;Node76 -->
<g id="edge7" class="edge"><title>Node70&#45;&gt;Node76</title>
<path fill="none" stroke="midnightblue" d="M85.9564,-35.7538C105.185,-30.516 127.303,-24.4909 145.31,-19.5859"/>
<polygon fill="midnightblue" stroke="midnightblue" points="84.9303,-32.4057 76.2017,-38.411 86.7701,-39.1596 84.9303,-32.4057"/>
</g>
<!-- Node73 -->
<g id="node4" class="node"><title>Node73</title>
<g id="a_node4"><a xlink:href="class_c_game.html#a714b291af5e20aae8be14a905fd0522d" target="_top" xlink:title="CGame::tickComponent">
<polygon fill="none" stroke="black" points="283,-57.5 283,-76.5 404,-76.5 404,-57.5 283,-57.5"/>
<text text-anchor="middle" x="343.5" y="-64.5" font-family="Helvetica,sans-Serif" font-size="10.00">CGame::tickComponent</text>
</a>
</g>
</g>
<!-- Node72&#45;&gt;Node73 -->
<g id="edge3" class="edge"><title>Node72&#45;&gt;Node73</title>
<path fill="none" stroke="midnightblue" d="M257.155,-56.8653C265.759,-57.887 274.446,-58.9186 282.815,-59.9124"/>
<polygon fill="midnightblue" stroke="midnightblue" points="257.46,-53.377 247.117,-55.6733 256.634,-60.3281 257.46,-53.377"/>
</g>
<!-- Node74 -->
<g id="node5" class="node"><title>Node74</title>
<g id="a_node5"><a xlink:href="class_c_game.html#aa9d3da2fefa1c04faefc6586dbd37971" target="_top" xlink:title="CGame::play">
<polygon fill="none" stroke="black" points="440,-38.5 440,-57.5 514,-57.5 514,-38.5 440,-38.5"/>
<text text-anchor="middle" x="477" y="-45.5" font-family="Helvetica,sans-Serif" font-size="10.00">CGame::play</text>
</a>
</g>
</g>
<!-- Node73&#45;&gt;Node74 -->
<g id="edge4" class="edge"><title>Node73&#45;&gt;Node74</title>
<path fill="none" stroke="midnightblue" d="M414.157,-56.9354C423.065,-55.6483 431.878,-54.3751 439.937,-53.2107"/>
<polygon fill="midnightblue" stroke="midnightblue" points="413.491,-53.4953 404.094,-58.3895 414.492,-60.4234 413.491,-53.4953"/>
</g>
<!-- Node74&#45;&gt;Node72 -->
<g id="edge5" class="edge"><title>Node74&#45;&gt;Node72</title>
<path fill="none" stroke="midnightblue" d="M429.926,-48C380.793,-48 302.592,-48 247.273,-48"/>
<polygon fill="midnightblue" stroke="midnightblue" points="429.951,-51.5001 439.951,-48 429.951,-44.5001 429.951,-51.5001"/>
</g>
<!-- Node75 -->
<g id="node6" class="node"><title>Node75</title>
<g id="a_node6"><a xlink:href="main_8cpp.html#ae66f6b31b5ad750f1fe042a706a4e3d4" target="_top" xlink:title="main">
<polygon fill="none" stroke="black" points="550,-38.5 550,-57.5 588,-57.5 588,-38.5 550,-38.5"/>
<text text-anchor="middle" x="569" y="-45.5" font-family="Helvetica,sans-Serif" font-size="10.00">main</text>
</a>
</g>
</g>
<!-- Node74&#45;&gt;Node75 -->
<g id="edge6" class="edge"><title>Node74&#45;&gt;Node75</title>
<path fill="none" stroke="midnightblue" d="M524.326,-48C533.437,-48 542.476,-48 549.946,-48"/>
<polygon fill="midnightblue" stroke="midnightblue" points="524.088,-44.5001 514.088,-48 524.088,-51.5001 524.088,-44.5001"/>
</g>
</g>
</svg>
