<?xml version="1.0" encoding="UTF-8" standalone="no"?>
<!DOCTYPE svg PUBLIC "-//W3C//DTD SVG 1.1//EN"
 "http://www.w3.org/Graphics/SVG/1.1/DTD/svg11.dtd">
<!-- Generated by graphviz version 2.38.0 (20140413.2041)
 -->
<!-- Title: CShopping::printItems Pages: 1 -->
<svg width="261pt" height="104pt"
 viewBox="0.00 0.00 261.00 104.00" xmlns="http://www.w3.org/2000/svg" xmlns:xlink="http://www.w3.org/1999/xlink">
<g id="graph0" class="graph" transform="scale(1 1) rotate(0) translate(4 100)">
<title>CShopping::printItems</title>
<!-- Node52 -->
<g id="node1" class="node"><title>Node52</title>
<polygon fill="#bfbfbf" stroke="black" points="0,-38.5 0,-57.5 113,-57.5 113,-38.5 0,-38.5"/>
<text text-anchor="middle" x="56.5" y="-45.5" font-family="Helvetica,sans-Serif" font-size="10.00">CShopping::printItems</text>
</g>
<!-- Node53 -->
<g id="node2" class="node"><title>Node53</title>
<g id="a_node2"><a xlink:href="class_c_display.html#a54c5d36f4bc11d4a935ff5c86ea4e653" target="_top" xlink:title="CDisplay::print">
<polygon fill="none" stroke="black" points="161,-76.5 161,-95.5 241,-95.5 241,-76.5 161,-76.5"/>
<text text-anchor="middle" x="201" y="-83.5" font-family="Helvetica,sans-Serif" font-size="10.00">CDisplay::print</text>
</a>
</g>
</g>
<!-- Node52&#45;&gt;Node53 -->
<g id="edge1" class="edge"><title>Node52&#45;&gt;Node53</title>
<path fill="none" stroke="midnightblue" d="M93.4588,-57.589C111.939,-62.5169 134.656,-68.5749 154.359,-73.8291"/>
<polygon fill="midnightblue" stroke="midnightblue" points="153.489,-77.2192 164.053,-76.4141 155.292,-70.4555 153.489,-77.2192"/>
</g>
<!-- Node54 -->
<g id="node3" class="node"><title>Node54</title>
<g id="a_node3"><a xlink:href="class_c_world.html#aae01822f61bfe35284a1ca9c02bdb1a5" target="_top" xlink:title="CWorld::getItem">
<polygon fill="none" stroke="black" points="157.5,-38.5 157.5,-57.5 244.5,-57.5 244.5,-38.5 157.5,-38.5"/>
<text text-anchor="middle" x="201" y="-45.5" font-family="Helvetica,sans-Serif" font-size="10.00">CWorld::getItem</text>
</a>
</g>
</g>
<!-- Node52&#45;&gt;Node54 -->
<g id="edge2" class="edge"><title>Node52&#45;&gt;Node54</title>
<path fill="none" stroke="midnightblue" d="M113.002,-48C124.251,-48 136.05,-48 147.202,-48"/>
<polygon fill="midnightblue" stroke="midnightblue" points="147.227,-51.5001 157.227,-48 147.227,-44.5001 147.227,-51.5001"/>
</g>
<!-- Node55 -->
<g id="node4" class="node"><title>Node55</title>
<g id="a_node4"><a xlink:href="class_c_item.html#af56df4ab4d87984c56401231dd3492cf" target="_top" xlink:title="CItem::printForShop">
<polygon fill="none" stroke="black" points="149,-0.5 149,-19.5 253,-19.5 253,-0.5 149,-0.5"/>
<text text-anchor="middle" x="201" y="-7.5" font-family="Helvetica,sans-Serif" font-size="10.00">CItem::printForShop</text>
</a>
</g>
</g>
<!-- Node52&#45;&gt;Node55 -->
<g id="edge3" class="edge"><title>Node52&#45;&gt;Node55</title>
<path fill="none" stroke="midnightblue" d="M93.4588,-38.411C111.939,-33.4831 134.656,-27.4251 154.359,-22.1709"/>
<polygon fill="midnightblue" stroke="midnightblue" points="155.292,-25.5445 164.053,-19.5859 153.489,-18.7808 155.292,-25.5445"/>
</g>
</g>
</svg>
