<?xml version="1.0" encoding="UTF-8" standalone="no"?>
<!DOCTYPE svg PUBLIC "-//W3C//DTD SVG 1.1//EN"
 "http://www.w3.org/Graphics/SVG/1.1/DTD/svg11.dtd">
<!-- Generated by graphviz version 2.38.0 (20140413.2041)
 -->
<!-- Title: CInventory::update Pages: 1 -->
<svg width="1094pt" height="114pt"
 viewBox="0.00 0.00 1094.00 114.00" xmlns="http://www.w3.org/2000/svg" xmlns:xlink="http://www.w3.org/1999/xlink">
<g id="graph0" class="graph" transform="scale(1 1) rotate(0) translate(4 110)">
<title>CInventory::update</title>
<!-- Node28 -->
<g id="node1" class="node"><title>Node28</title>
<polygon fill="#bfbfbf" stroke="black" points="0,-0.5 0,-19.5 97,-19.5 97,-0.5 0,-0.5"/>
<text text-anchor="middle" x="48.5" y="-7.5" font-family="Helvetica,sans-Serif" font-size="10.00">CInventory::update</text>
</g>
<!-- Node29 -->
<g id="node2" class="node"><title>Node29</title>
<g id="a_node2"><a xlink:href="class_c_hero.html#a7b1a1b3c196bbe5b8da97c56f520c1f3" target="_top" xlink:title="CHero::update">
<polygon fill="none" stroke="black" points="133,-0.5 133,-19.5 212,-19.5 212,-0.5 133,-0.5"/>
<text text-anchor="middle" x="172.5" y="-7.5" font-family="Helvetica,sans-Serif" font-size="10.00">CHero::update</text>
</a>
</g>
</g>
<!-- Node28&#45;&gt;Node29 -->
<g id="edge1" class="edge"><title>Node28&#45;&gt;Node29</title>
<path fill="none" stroke="midnightblue" d="M107.194,-10C115.935,-10 124.767,-10 132.969,-10"/>
<polygon fill="midnightblue" stroke="midnightblue" points="107.018,-6.5001 97.0177,-10 107.018,-13.5001 107.018,-6.5001"/>
</g>
<!-- Node30 -->
<g id="node3" class="node"><title>Node30</title>
<g id="a_node3"><a xlink:href="class_c_game.html#a507b71eeebc2a6aaa08d9e0dcb61c7ac" target="_top" xlink:title="CGame::importPlayerData">
<polygon fill="none" stroke="black" points="248,-0.5 248,-19.5 379,-19.5 379,-0.5 248,-0.5"/>
<text text-anchor="middle" x="313.5" y="-7.5" font-family="Helvetica,sans-Serif" font-size="10.00">CGame::importPlayerData</text>
</a>
</g>
</g>
<!-- Node29&#45;&gt;Node30 -->
<g id="edge2" class="edge"><title>Node29&#45;&gt;Node30</title>
<path fill="none" stroke="midnightblue" d="M222.399,-10C230.646,-10 239.319,-10 247.893,-10"/>
<polygon fill="midnightblue" stroke="midnightblue" points="222.219,-6.5001 212.219,-10 222.219,-13.5001 222.219,-6.5001"/>
</g>
<!-- Node31 -->
<g id="node4" class="node"><title>Node31</title>
<g id="a_node4"><a xlink:href="class_c_game.html#accda079824fc813cbd64b4743846ae24" target="_top" xlink:title="CGame::loadGame">
<polygon fill="none" stroke="black" points="415,-0.5 415,-19.5 515,-19.5 515,-0.5 415,-0.5"/>
<text text-anchor="middle" x="465" y="-7.5" font-family="Helvetica,sans-Serif" font-size="10.00">CGame::loadGame</text>
</a>
</g>
</g>
<!-- Node30&#45;&gt;Node31 -->
<g id="edge3" class="edge"><title>Node30&#45;&gt;Node31</title>
<path fill="none" stroke="midnightblue" d="M389.379,-10C398.071,-10 406.76,-10 414.977,-10"/>
<polygon fill="midnightblue" stroke="midnightblue" points="389.203,-6.5001 379.203,-10 389.203,-13.5001 389.203,-6.5001"/>
</g>
<!-- Node32 -->
<g id="node5" class="node"><title>Node32</title>
<g id="a_node5"><a xlink:href="class_c_game.html#a39e1e296c6dcabbf5c824eea6424d6d9" target="_top" xlink:title="CGame::mainMenu">
<polygon fill="none" stroke="black" points="551,-0.5 551,-19.5 652,-19.5 652,-0.5 551,-0.5"/>
<text text-anchor="middle" x="601.5" y="-7.5" font-family="Helvetica,sans-Serif" font-size="10.00">CGame::mainMenu</text>
</a>
</g>
</g>
<!-- Node31&#45;&gt;Node32 -->
<g id="edge4" class="edge"><title>Node31&#45;&gt;Node32</title>
<path fill="none" stroke="midnightblue" d="M525.486,-10C533.918,-10 542.515,-10 550.737,-10"/>
<polygon fill="midnightblue" stroke="midnightblue" points="525.319,-6.5001 515.319,-10 525.319,-13.5001 525.319,-6.5001"/>
</g>
<!-- Node33 -->
<g id="node6" class="node"><title>Node33</title>
<g id="a_node6"><a xlink:href="class_c_game.html#aa9d3da2fefa1c04faefc6586dbd37971" target="_top" xlink:title="CGame::play">
<polygon fill="none" stroke="black" points="688,-29.5 688,-48.5 762,-48.5 762,-29.5 688,-29.5"/>
<text text-anchor="middle" x="725" y="-36.5" font-family="Helvetica,sans-Serif" font-size="10.00">CGame::play</text>
</a>
</g>
</g>
<!-- Node32&#45;&gt;Node33 -->
<g id="edge5" class="edge"><title>Node32&#45;&gt;Node33</title>
<path fill="none" stroke="midnightblue" d="M652.361,-21.901C664.165,-24.7184 676.536,-27.6711 687.612,-30.3147"/>
<polygon fill="midnightblue" stroke="midnightblue" points="653.16,-18.4934 642.62,-19.5761 651.535,-25.3021 653.16,-18.4934"/>
</g>
<!-- Node35 -->
<g id="node8" class="node"><title>Node35</title>
<g id="a_node8"><a xlink:href="class_c_game.html#a714b291af5e20aae8be14a905fd0522d" target="_top" xlink:title="CGame::tickComponent">
<polygon fill="none" stroke="black" points="965,-10.5 965,-29.5 1086,-29.5 1086,-10.5 965,-10.5"/>
<text text-anchor="middle" x="1025.5" y="-17.5" font-family="Helvetica,sans-Serif" font-size="10.00">CGame::tickComponent</text>
</a>
</g>
</g>
<!-- Node32&#45;&gt;Node35 -->
<g id="edge10" class="edge"><title>Node32&#45;&gt;Node35</title>
<path fill="none" stroke="midnightblue" d="M662.597,-11.4241C742.999,-13.3294 884.715,-16.6876 964.875,-18.5871"/>
<polygon fill="midnightblue" stroke="midnightblue" points="662.23,-7.91451 652.15,-11.1765 662.064,-14.9125 662.23,-7.91451"/>
</g>
<!-- Node34 -->
<g id="node7" class="node"><title>Node34</title>
<g id="a_node7"><a xlink:href="class_c_game.html#ac0a8028013ca5a7c135c29fa582df4a0" target="_top" xlink:title="CGame::checkHeroStatus">
<polygon fill="none" stroke="black" points="798,-86.5 798,-105.5 929,-105.5 929,-86.5 798,-86.5"/>
<text text-anchor="middle" x="863.5" y="-93.5" font-family="Helvetica,sans-Serif" font-size="10.00">CGame::checkHeroStatus</text>
</a>
</g>
</g>
<!-- Node33&#45;&gt;Node34 -->
<g id="edge6" class="edge"><title>Node33&#45;&gt;Node34</title>
<path fill="none" stroke="midnightblue" d="M750.634,-53.569C764.276,-61.2331 781.723,-70.3842 798,-77 806.76,-80.5603 816.434,-83.7698 825.566,-86.494"/>
<polygon fill="midnightblue" stroke="midnightblue" points="752.276,-50.4765 741.858,-48.55 748.801,-56.5529 752.276,-50.4765"/>
</g>
<!-- Node36 -->
<g id="node9" class="node"><title>Node36</title>
<g id="a_node9"><a xlink:href="main_8cpp.html#ae66f6b31b5ad750f1fe042a706a4e3d4" target="_top" xlink:title="main">
<polygon fill="none" stroke="black" points="844.5,-48.5 844.5,-67.5 882.5,-67.5 882.5,-48.5 844.5,-48.5"/>
<text text-anchor="middle" x="863.5" y="-55.5" font-family="Helvetica,sans-Serif" font-size="10.00">main</text>
</a>
</g>
</g>
<!-- Node33&#45;&gt;Node36 -->
<g id="edge9" class="edge"><title>Node33&#45;&gt;Node36</title>
<path fill="none" stroke="midnightblue" d="M772.129,-45.4208C796.788,-48.8533 825.768,-52.8871 844.132,-55.4433"/>
<polygon fill="midnightblue" stroke="midnightblue" points="772.608,-41.9539 762.221,-44.0418 771.643,-48.8871 772.608,-41.9539"/>
</g>
<!-- Node34&#45;&gt;Node35 -->
<g id="edge7" class="edge"><title>Node34&#45;&gt;Node35</title>
<path fill="none" stroke="midnightblue" d="M912.837,-83.2149C918.361,-81.3274 923.853,-79.2512 929,-77 959.782,-63.5375 992.838,-42.043 1010.86,-29.6543"/>
<polygon fill="midnightblue" stroke="midnightblue" points="911.372,-80.0097 902.925,-86.4056 913.517,-86.673 911.372,-80.0097"/>
</g>
<!-- Node35&#45;&gt;Node33 -->
<g id="edge8" class="edge"><title>Node35&#45;&gt;Node33</title>
<path fill="none" stroke="midnightblue" d="M954.704,-24.4426C894.365,-28.2833 809.572,-33.6805 762.006,-36.7082"/>
<polygon fill="midnightblue" stroke="midnightblue" points="955.161,-27.9207 964.918,-23.7925 954.716,-20.9349 955.161,-27.9207"/>
</g>
</g>
</svg>
