<?xml version="1.0" encoding="UTF-8" standalone="no"?>
<!DOCTYPE svg PUBLIC "-//W3C//DTD SVG 1.1//EN"
 "http://www.w3.org/Graphics/SVG/1.1/DTD/svg11.dtd">
<!-- Generated by graphviz version 2.38.0 (20140413.2041)
 -->
<!-- Title: CHero::useItem Pages: 1 -->
<svg width="370pt" height="39pt"
 viewBox="0.00 0.00 370.00 39.00" xmlns="http://www.w3.org/2000/svg" xmlns:xlink="http://www.w3.org/1999/xlink">
<g id="graph0" class="graph" transform="scale(1 1) rotate(0) translate(4 35)">
<title>CHero::useItem</title>
<!-- Node113 -->
<g id="node1" class="node"><title>Node113</title>
<polygon fill="#bfbfbf" stroke="black" points="0,-6 0,-25 84,-25 84,-6 0,-6"/>
<text text-anchor="middle" x="42" y="-13" font-family="Helvetica,sans-Serif" font-size="10.00">CHero::useItem</text>
</g>
<!-- Node114 -->
<g id="node2" class="node"><title>Node114</title>
<g id="a_node2"><a xlink:href="class_c_inventory_browser.html#ac865349ca08d9402c869d8e5450c689a" target="_top" xlink:title="CInventoryBrowser::\lequip">
<polygon fill="none" stroke="black" points="120,-0.5 120,-30.5 223,-30.5 223,-0.5 120,-0.5"/>
<text text-anchor="start" x="128" y="-18.5" font-family="Helvetica,sans-Serif" font-size="10.00">CInventoryBrowser::</text>
<text text-anchor="middle" x="171.5" y="-7.5" font-family="Helvetica,sans-Serif" font-size="10.00">equip</text>
</a>
</g>
</g>
<!-- Node113&#45;&gt;Node114 -->
<g id="edge1" class="edge"><title>Node113&#45;&gt;Node114</title>
<path fill="none" stroke="midnightblue" d="M94.1272,-15.5C102.553,-15.5 111.285,-15.5 119.702,-15.5"/>
<polygon fill="midnightblue" stroke="midnightblue" points="94.0437,-12.0001 84.0436,-15.5 94.0436,-19.0001 94.0437,-12.0001"/>
</g>
<!-- Node115 -->
<g id="node3" class="node"><title>Node115</title>
<g id="a_node3"><a xlink:href="class_c_inventory_browser.html#a91c51766048ba5629b125b9a444d31bb" target="_top" xlink:title="CInventoryBrowser::\loperator()">
<polygon fill="none" stroke="black" points="259,-0.5 259,-30.5 362,-30.5 362,-0.5 259,-0.5"/>
<text text-anchor="start" x="267" y="-18.5" font-family="Helvetica,sans-Serif" font-size="10.00">CInventoryBrowser::</text>
<text text-anchor="middle" x="310.5" y="-7.5" font-family="Helvetica,sans-Serif" font-size="10.00">operator()</text>
</a>
</g>
</g>
<!-- Node114&#45;&gt;Node115 -->
<g id="edge2" class="edge"><title>Node114&#45;&gt;Node115</title>
<path fill="none" stroke="midnightblue" d="M233.32,-15.5C241.772,-15.5 250.382,-15.5 258.626,-15.5"/>
<polygon fill="midnightblue" stroke="midnightblue" points="233.125,-12.0001 223.125,-15.5 233.124,-19.0001 233.125,-12.0001"/>
</g>
</g>
</svg>
