<?xml version="1.0" encoding="UTF-8" standalone="no"?>
<!DOCTYPE svg PUBLIC "-//W3C//DTD SVG 1.1//EN"
 "http://www.w3.org/Graphics/SVG/1.1/DTD/svg11.dtd">
<!-- Generated by graphviz version 2.38.0 (20140413.2041)
 -->
<!-- Title: CInventoryBrowser::equip Pages: 1 -->
<svg width="441pt" height="218pt"
 viewBox="0.00 0.00 441.00 218.00" xmlns="http://www.w3.org/2000/svg" xmlns:xlink="http://www.w3.org/1999/xlink">
<g id="graph0" class="graph" transform="scale(1 1) rotate(0) translate(4 214)">
<title>CInventoryBrowser::equip</title>
<!-- Node0 -->
<g id="node1" class="node"><title>Node0</title>
<polygon fill="#bfbfbf" stroke="black" points="0,-90 0,-120 103,-120 103,-90 0,-90"/>
<text text-anchor="start" x="8" y="-108" font-family="Helvetica,sans-Serif" font-size="10.00">CInventoryBrowser::</text>
<text text-anchor="middle" x="51.5" y="-97" font-family="Helvetica,sans-Serif" font-size="10.00">equip</text>
</g>
<!-- Node1 -->
<g id="node2" class="node"><title>Node1</title>
<g id="a_node2"><a xlink:href="class_c_hero.html#a2968af0dfd838d16690dc67e652b6f89" target="_top" xlink:title="CHero::getInventory">
<polygon fill="none" stroke="black" points="158,-190.5 158,-209.5 259,-209.5 259,-190.5 158,-190.5"/>
<text text-anchor="middle" x="208.5" y="-197.5" font-family="Helvetica,sans-Serif" font-size="10.00">CHero::getInventory</text>
</a>
</g>
</g>
<!-- Node0&#45;&gt;Node1 -->
<g id="edge1" class="edge"><title>Node0&#45;&gt;Node1</title>
<path fill="none" stroke="midnightblue" d="M65.6644,-120.104C81.438,-137.287 109.459,-165.025 139,-181 143.19,-183.266 147.673,-185.28 152.266,-187.067"/>
<polygon fill="midnightblue" stroke="midnightblue" points="151.195,-190.401 161.789,-190.425 153.522,-183.799 151.195,-190.401"/>
</g>
<!-- Node2 -->
<g id="node3" class="node"><title>Node2</title>
<g id="a_node3"><a xlink:href="class_c_inventory.html#abd92c94b31dc928c1047423e98309bd7" target="_top" xlink:title="CInventory::isInInventory">
<polygon fill="none" stroke="black" points="148,-152.5 148,-171.5 269,-171.5 269,-152.5 148,-152.5"/>
<text text-anchor="middle" x="208.5" y="-159.5" font-family="Helvetica,sans-Serif" font-size="10.00">CInventory::isInInventory</text>
</a>
</g>
</g>
<!-- Node0&#45;&gt;Node2 -->
<g id="edge2" class="edge"><title>Node0&#45;&gt;Node2</title>
<path fill="none" stroke="midnightblue" d="M83.6967,-120C99.9571,-127.486 120.304,-136.339 139,-143 145.483,-145.31 152.392,-147.515 159.234,-149.551"/>
<polygon fill="midnightblue" stroke="midnightblue" points="158.574,-153.003 169.152,-152.406 160.511,-146.277 158.574,-153.003"/>
</g>
<!-- Node3 -->
<g id="node4" class="node"><title>Node3</title>
<g id="a_node4"><a xlink:href="class_c_hero.html#ae6ef1be1a9d01855208eeb82292e9f76" target="_top" xlink:title="CHero::useItem">
<polygon fill="none" stroke="black" points="166.5,-114.5 166.5,-133.5 250.5,-133.5 250.5,-114.5 166.5,-114.5"/>
<text text-anchor="middle" x="208.5" y="-121.5" font-family="Helvetica,sans-Serif" font-size="10.00">CHero::useItem</text>
</a>
</g>
</g>
<!-- Node0&#45;&gt;Node3 -->
<g id="edge3" class="edge"><title>Node0&#45;&gt;Node3</title>
<path fill="none" stroke="midnightblue" d="M103.253,-111.221C120.216,-113.301 139.127,-115.619 156.136,-117.704"/>
<polygon fill="midnightblue" stroke="midnightblue" points="156.094,-121.225 166.446,-118.968 156.946,-114.277 156.094,-121.225"/>
</g>
<!-- Node5 -->
<g id="node6" class="node"><title>Node5</title>
<g id="a_node6"><a xlink:href="class_c_world.html#aae01822f61bfe35284a1ca9c02bdb1a5" target="_top" xlink:title="CWorld::getItem">
<polygon fill="none" stroke="black" points="165,-76.5 165,-95.5 252,-95.5 252,-76.5 165,-76.5"/>
<text text-anchor="middle" x="208.5" y="-83.5" font-family="Helvetica,sans-Serif" font-size="10.00">CWorld::getItem</text>
</a>
</g>
</g>
<!-- Node0&#45;&gt;Node5 -->
<g id="edge5" class="edge"><title>Node0&#45;&gt;Node5</title>
<path fill="none" stroke="midnightblue" d="M103.253,-98.7787C119.777,-96.7532 138.15,-94.501 154.812,-92.4585"/>
<polygon fill="midnightblue" stroke="midnightblue" points="155.434,-95.9085 164.934,-91.2178 154.583,-88.9605 155.434,-95.9085"/>
</g>
<!-- Node6 -->
<g id="node7" class="node"><title>Node6</title>
<g id="a_node7"><a xlink:href="class_c_display.html#a53b65673a9b0bfc807a3a1e448962928" target="_top" xlink:title="CDisplay::printWithDelimiter">
<polygon fill="none" stroke="black" points="139,-38.5 139,-57.5 278,-57.5 278,-38.5 139,-38.5"/>
<text text-anchor="middle" x="208.5" y="-45.5" font-family="Helvetica,sans-Serif" font-size="10.00">CDisplay::printWithDelimiter</text>
</a>
</g>
</g>
<!-- Node0&#45;&gt;Node6 -->
<g id="edge6" class="edge"><title>Node0&#45;&gt;Node6</title>
<path fill="none" stroke="midnightblue" d="M83.6967,-89.9999C99.9571,-82.5144 120.304,-73.6608 139,-67 145.483,-64.6903 152.392,-62.4853 159.234,-60.4489"/>
<polygon fill="midnightblue" stroke="midnightblue" points="160.511,-63.7235 169.152,-57.5936 158.574,-56.9967 160.511,-63.7235"/>
</g>
<!-- Node8 -->
<g id="node9" class="node"><title>Node8</title>
<g id="a_node9"><a xlink:href="class_c_world.html#ac1e953c25242ba775f667aec3e6242bd" target="_top" xlink:title="CWorld::getItemName">
<polygon fill="none" stroke="black" points="152,-0.5 152,-19.5 265,-19.5 265,-0.5 152,-0.5"/>
<text text-anchor="middle" x="208.5" y="-7.5" font-family="Helvetica,sans-Serif" font-size="10.00">CWorld::getItemName</text>
</a>
</g>
</g>
<!-- Node0&#45;&gt;Node8 -->
<g id="edge8" class="edge"><title>Node0&#45;&gt;Node8</title>
<path fill="none" stroke="midnightblue" d="M65.6644,-89.8956C81.438,-72.7131 109.459,-44.9747 139,-29 143.19,-26.7344 147.673,-24.7201 152.266,-22.9328"/>
<polygon fill="midnightblue" stroke="midnightblue" points="153.522,-26.2011 161.789,-19.5752 151.195,-19.5994 153.522,-26.2011"/>
</g>
<!-- Node4 -->
<g id="node5" class="node"><title>Node4</title>
<g id="a_node5"><a xlink:href="class_c_item.html#a30e8dd9608c78cd43e5c973bfe029baa" target="_top" xlink:title="CItem::useItem">
<polygon fill="none" stroke="black" points="332,-114.5 332,-133.5 415,-133.5 415,-114.5 332,-114.5"/>
<text text-anchor="middle" x="373.5" y="-121.5" font-family="Helvetica,sans-Serif" font-size="10.00">CItem::useItem</text>
</a>
</g>
</g>
<!-- Node3&#45;&gt;Node4 -->
<g id="edge4" class="edge"><title>Node3&#45;&gt;Node4</title>
<path fill="none" stroke="midnightblue" d="M250.632,-124C272.223,-124 298.872,-124 321.738,-124"/>
<polygon fill="midnightblue" stroke="midnightblue" points="321.946,-127.5 331.946,-124 321.946,-120.5 321.946,-127.5"/>
</g>
<!-- Node7 -->
<g id="node8" class="node"><title>Node7</title>
<g id="a_node8"><a xlink:href="class_c_display.html#af350b35b44fc756e0c721ec4ee56c67a" target="_top" xlink:title="CDisplay::printDelimiter">
<polygon fill="none" stroke="black" points="314,-38.5 314,-57.5 433,-57.5 433,-38.5 314,-38.5"/>
<text text-anchor="middle" x="373.5" y="-45.5" font-family="Helvetica,sans-Serif" font-size="10.00">CDisplay::printDelimiter</text>
</a>
</g>
</g>
<!-- Node6&#45;&gt;Node7 -->
<g id="edge7" class="edge"><title>Node6&#45;&gt;Node7</title>
<path fill="none" stroke="midnightblue" d="M278.154,-48C286.628,-48 295.293,-48 303.768,-48"/>
<polygon fill="midnightblue" stroke="midnightblue" points="303.987,-51.5001 313.987,-48 303.987,-44.5001 303.987,-51.5001"/>
</g>
</g>
</svg>
