<?xml version="1.0" encoding="UTF-8" standalone="no"?>
<!DOCTYPE svg PUBLIC "-//W3C//DTD SVG 1.1//EN"
 "http://www.w3.org/Graphics/SVG/1.1/DTD/svg11.dtd">
<!-- Generated by graphviz version 2.38.0 (20140413.2041)
 -->
<!-- Title: CGame::checkHeroStatus Pages: 1 -->
<svg width="1524pt" height="705pt"
 viewBox="0.00 0.00 1524.00 704.73" xmlns="http://www.w3.org/2000/svg" xmlns:xlink="http://www.w3.org/1999/xlink">
<g id="graph0" class="graph" transform="scale(1 1) rotate(0) translate(4 700.731)">
<title>CGame::checkHeroStatus</title>
<!-- Node29 -->
<g id="node1" class="node"><title>Node29</title>
<polygon fill="#bfbfbf" stroke="black" points="0,-532.5 0,-551.5 131,-551.5 131,-532.5 0,-532.5"/>
<text text-anchor="middle" x="65.5" y="-539.5" font-family="Helvetica,sans-Serif" font-size="10.00">CGame::checkHeroStatus</text>
</g>
<!-- Node30 -->
<g id="node2" class="node"><title>Node30</title>
<g id="a_node2"><a xlink:href="class_c_hero.html#acf265a146732ccfe08db87b6cc69cef3" target="_top" xlink:title="CHero::isDead">
<polygon fill="none" stroke="black" points="192.5,-646.5 192.5,-665.5 272.5,-665.5 272.5,-646.5 192.5,-646.5"/>
<text text-anchor="middle" x="232.5" y="-653.5" font-family="Helvetica,sans-Serif" font-size="10.00">CHero::isDead</text>
</a>
</g>
</g>
<!-- Node29&#45;&gt;Node30 -->
<g id="edge1" class="edge"><title>Node29&#45;&gt;Node30</title>
<path fill="none" stroke="midnightblue" d="M73.986,-551.636C89.3465,-570.757 126.414,-613.661 167,-637 171.87,-639.801 177.189,-642.22 182.615,-644.302"/>
<polygon fill="midnightblue" stroke="midnightblue" points="181.83,-647.734 192.425,-647.695 184.118,-641.118 181.83,-647.734"/>
</g>
<!-- Node31 -->
<g id="node3" class="node"><title>Node31</title>
<g id="a_node3"><a xlink:href="class_c_storyline.html#a9531c0509722bbb1647837d4549a9520" target="_top" xlink:title="CStoryline::getEventCount">
<polygon fill="none" stroke="black" points="167,-608.5 167,-627.5 298,-627.5 298,-608.5 167,-608.5"/>
<text text-anchor="middle" x="232.5" y="-615.5" font-family="Helvetica,sans-Serif" font-size="10.00">CStoryline::getEventCount</text>
</a>
</g>
</g>
<!-- Node29&#45;&gt;Node31 -->
<g id="edge2" class="edge"><title>Node29&#45;&gt;Node31</title>
<path fill="none" stroke="midnightblue" d="M83.6177,-551.669C103.374,-562.635 137.002,-580.717 167,-594 175.665,-597.837 185.152,-601.6 194.12,-604.967"/>
<polygon fill="midnightblue" stroke="midnightblue" points="192.99,-608.28 203.583,-608.449 195.407,-601.711 192.99,-608.28"/>
</g>
<!-- Node32 -->
<g id="node4" class="node"><title>Node32</title>
<g id="a_node4"><a xlink:href="class_c_display.html#a54c5d36f4bc11d4a935ff5c86ea4e653" target="_top" xlink:title="CDisplay::print">
<polygon fill="none" stroke="black" points="824.5,-456.5 824.5,-475.5 904.5,-475.5 904.5,-456.5 824.5,-456.5"/>
<text text-anchor="middle" x="864.5" y="-463.5" font-family="Helvetica,sans-Serif" font-size="10.00">CDisplay::print</text>
</a>
</g>
</g>
<!-- Node29&#45;&gt;Node32 -->
<g id="edge3" class="edge"><title>Node29&#45;&gt;Node32</title>
<path fill="none" stroke="midnightblue" d="M111.364,-532.493C128.684,-529.093 148.701,-525.49 167,-523 267.097,-509.377 292.48,-504 393.5,-504 393.5,-504 393.5,-504 542.5,-504 639.092,-504 663.27,-497.875 759,-485 777.18,-482.555 797.01,-479.141 814.462,-475.881"/>
<polygon fill="midnightblue" stroke="midnightblue" points="815.262,-479.292 824.433,-473.987 813.956,-472.414 815.262,-479.292"/>
</g>
<!-- Node33 -->
<g id="node5" class="node"><title>Node33</title>
<g id="a_node5"><a xlink:href="class_c_hero.html#ae4b84144aca1948f65daa0b9734f163f" target="_top" xlink:title="CHero::getName">
<polygon fill="none" stroke="black" points="188,-532.5 188,-551.5 277,-551.5 277,-532.5 188,-532.5"/>
<text text-anchor="middle" x="232.5" y="-539.5" font-family="Helvetica,sans-Serif" font-size="10.00">CHero::getName</text>
</a>
</g>
</g>
<!-- Node29&#45;&gt;Node33 -->
<g id="edge4" class="edge"><title>Node29&#45;&gt;Node33</title>
<path fill="none" stroke="midnightblue" d="M131.239,-542C146.644,-542 162.916,-542 177.766,-542"/>
<polygon fill="midnightblue" stroke="midnightblue" points="177.792,-545.5 187.792,-542 177.792,-538.5 177.792,-545.5"/>
</g>
<!-- Node34 -->
<g id="node6" class="node"><title>Node34</title>
<g id="a_node6"><a xlink:href="class_c_game.html#acdb5a10d8b17584b07b3c736ede7bf57" target="_top" xlink:title="CGame::reset">
<polygon fill="none" stroke="black" points="503,-570.5 503,-589.5 580,-589.5 580,-570.5 503,-570.5"/>
<text text-anchor="middle" x="541.5" y="-577.5" font-family="Helvetica,sans-Serif" font-size="10.00">CGame::reset</text>
</a>
</g>
</g>
<!-- Node29&#45;&gt;Node34 -->
<g id="edge5" class="edge"><title>Node29&#45;&gt;Node34</title>
<path fill="none" stroke="midnightblue" d="M109.832,-551.528C127.482,-555.059 148.134,-558.747 167,-561 283.358,-574.893 421.296,-578.64 492.549,-579.642"/>
<polygon fill="midnightblue" stroke="midnightblue" points="492.939,-583.147 502.983,-579.776 493.029,-576.148 492.939,-583.147"/>
</g>
<!-- Node39 -->
<g id="node11" class="node"><title>Node39</title>
<g id="a_node11"><a xlink:href="class_c_game.html#aa9d3da2fefa1c04faefc6586dbd37971" target="_top" xlink:title="CGame::play">
<polygon fill="none" stroke="black" points="195.5,-370.5 195.5,-389.5 269.5,-389.5 269.5,-370.5 195.5,-370.5"/>
<text text-anchor="middle" x="232.5" y="-377.5" font-family="Helvetica,sans-Serif" font-size="10.00">CGame::play</text>
</a>
</g>
</g>
<!-- Node29&#45;&gt;Node39 -->
<g id="edge11" class="edge"><title>Node29&#45;&gt;Node39</title>
<path fill="none" stroke="midnightblue" d="M72.1782,-532.196C85.9363,-509.117 123.171,-450.554 167,-414 176.398,-406.162 187.897,-399.394 198.57,-394.007"/>
<polygon fill="midnightblue" stroke="midnightblue" points="200.166,-397.123 207.662,-389.636 197.133,-390.814 200.166,-397.123"/>
</g>
<!-- Node34&#45;&gt;Node32 -->
<g id="edge6" class="edge"><title>Node34&#45;&gt;Node32</title>
<path fill="none" stroke="midnightblue" d="M580.345,-571.392C624.106,-560.93 697.951,-541.701 759,-518 786.685,-507.252 816.92,-491.768 837.712,-480.493"/>
<polygon fill="midnightblue" stroke="midnightblue" points="839.473,-483.519 846.557,-475.641 836.107,-477.381 839.473,-483.519"/>
</g>
<!-- Node35 -->
<g id="node7" class="node"><title>Node35</title>
<g id="a_node7"><a xlink:href="class_c_storyline.html#ad8c62b61513d498b53454aeaf621dda0" target="_top" xlink:title="CStoryline::update">
<polygon fill="none" stroke="black" points="1009.5,-579.5 1009.5,-598.5 1106.5,-598.5 1106.5,-579.5 1009.5,-579.5"/>
<text text-anchor="middle" x="1058" y="-586.5" font-family="Helvetica,sans-Serif" font-size="10.00">CStoryline::update</text>
</a>
</g>
</g>
<!-- Node34&#45;&gt;Node35 -->
<g id="edge7" class="edge"><title>Node34&#45;&gt;Node35</title>
<path fill="none" stroke="midnightblue" d="M547.497,-589.667C558.668,-610.071 587.866,-657.126 628,-675 772.18,-739.212 964.926,-642.535 1032.42,-603.838"/>
<polygon fill="midnightblue" stroke="midnightblue" points="1034.57,-606.635 1041.45,-598.575 1031.05,-600.587 1034.57,-606.635"/>
</g>
<!-- Node36 -->
<g id="node8" class="node"><title>Node36</title>
<g id="a_node8"><a xlink:href="class_c_world.html#a72b79b6801a9e7ae670cc3790acf31d2" target="_top" xlink:title="CWorld::getStoryline">
<polygon fill="none" stroke="black" points="640,-646.5 640,-665.5 747,-665.5 747,-646.5 640,-646.5"/>
<text text-anchor="middle" x="693.5" y="-653.5" font-family="Helvetica,sans-Serif" font-size="10.00">CWorld::getStoryline</text>
</a>
</g>
</g>
<!-- Node34&#45;&gt;Node36 -->
<g id="edge8" class="edge"><title>Node34&#45;&gt;Node36</title>
<path fill="none" stroke="midnightblue" d="M554.268,-589.538C570.148,-601.998 599.717,-623.78 628,-637 632.957,-639.317 638.262,-641.423 643.62,-643.316"/>
<polygon fill="midnightblue" stroke="midnightblue" points="642.666,-646.687 653.259,-646.497 644.859,-640.04 642.666,-646.687"/>
</g>
<!-- Node37 -->
<g id="node9" class="node"><title>Node37</title>
<g id="a_node9"><a xlink:href="class_c_shopping.html#aa232d999181d07bfd6ec0ec5c645f51b" target="_top" xlink:title="CShopping::update">
<polygon fill="none" stroke="black" points="644,-608.5 644,-627.5 743,-627.5 743,-608.5 644,-608.5"/>
<text text-anchor="middle" x="693.5" y="-615.5" font-family="Helvetica,sans-Serif" font-size="10.00">CShopping::update</text>
</a>
</g>
</g>
<!-- Node34&#45;&gt;Node37 -->
<g id="edge9" class="edge"><title>Node34&#45;&gt;Node37</title>
<path fill="none" stroke="midnightblue" d="M580.351,-589.589C599.967,-594.558 624.119,-600.677 644.979,-605.961"/>
<polygon fill="midnightblue" stroke="midnightblue" points="644.368,-609.417 654.921,-608.48 646.087,-602.631 644.368,-609.417"/>
</g>
<!-- Node38 -->
<g id="node10" class="node"><title>Node38</title>
<g id="a_node10"><a xlink:href="class_c_world.html#a1c10d5ec2514347fd3fe28f85b23db13" target="_top" xlink:title="CWorld::getAllItemID">
<polygon fill="none" stroke="black" points="640,-570.5 640,-589.5 747,-589.5 747,-570.5 640,-570.5"/>
<text text-anchor="middle" x="693.5" y="-577.5" font-family="Helvetica,sans-Serif" font-size="10.00">CWorld::getAllItemID</text>
</a>
</g>
</g>
<!-- Node34&#45;&gt;Node38 -->
<g id="edge10" class="edge"><title>Node34&#45;&gt;Node38</title>
<path fill="none" stroke="midnightblue" d="M580.351,-580C595.301,-580 612.885,-580 629.639,-580"/>
<polygon fill="midnightblue" stroke="midnightblue" points="629.932,-583.5 639.932,-580 629.932,-576.5 629.932,-583.5"/>
</g>
<!-- Node40 -->
<g id="node12" class="node"><title>Node40</title>
<g id="a_node12"><a xlink:href="class_c_display.html#a53b65673a9b0bfc807a3a1e448962928" target="_top" xlink:title="CDisplay::printWithDelimiter">
<polygon fill="none" stroke="black" points="795,-181.5 795,-200.5 934,-200.5 934,-181.5 795,-181.5"/>
<text text-anchor="middle" x="864.5" y="-188.5" font-family="Helvetica,sans-Serif" font-size="10.00">CDisplay::printWithDelimiter</text>
</a>
</g>
</g>
<!-- Node39&#45;&gt;Node40 -->
<g id="edge12" class="edge"><title>Node39&#45;&gt;Node40</title>
<path fill="none" stroke="midnightblue" d="M244.713,-370.361C289.259,-332.892 459.493,-197.458 628,-166 685.233,-155.315 701.179,-159.18 759,-166 780.043,-168.482 802.985,-173.683 821.998,-178.702"/>
<polygon fill="midnightblue" stroke="midnightblue" points="821.267,-182.13 831.835,-181.373 823.102,-175.375 821.267,-182.13"/>
</g>
<!-- Node42 -->
<g id="node14" class="node"><title>Node42</title>
<g id="a_node14"><a xlink:href="class_c_game.html#a39e1e296c6dcabbf5c824eea6424d6d9" target="_top" xlink:title="CGame::mainMenu">
<polygon fill="none" stroke="black" points="491,-361.5 491,-380.5 592,-380.5 592,-361.5 491,-361.5"/>
<text text-anchor="middle" x="541.5" y="-368.5" font-family="Helvetica,sans-Serif" font-size="10.00">CGame::mainMenu</text>
</a>
</g>
</g>
<!-- Node39&#45;&gt;Node42 -->
<g id="edge14" class="edge"><title>Node39&#45;&gt;Node42</title>
<path fill="none" stroke="midnightblue" d="M269.62,-378.941C321.569,-377.418 418.011,-374.591 480.694,-372.753"/>
<polygon fill="midnightblue" stroke="midnightblue" points="480.942,-376.248 490.835,-372.456 480.737,-369.251 480.942,-376.248"/>
</g>
<!-- Node60 -->
<g id="node32" class="node"><title>Node60</title>
<g id="a_node32"><a xlink:href="class_c_game.html#a714b291af5e20aae8be14a905fd0522d" target="_top" xlink:title="CGame::tickComponent">
<polygon fill="none" stroke="black" points="334,-399.5 334,-418.5 455,-418.5 455,-399.5 334,-399.5"/>
<text text-anchor="middle" x="394.5" y="-406.5" font-family="Helvetica,sans-Serif" font-size="10.00">CGame::tickComponent</text>
</a>
</g>
</g>
<!-- Node39&#45;&gt;Node60 -->
<g id="edge46" class="edge"><title>Node39&#45;&gt;Node60</title>
<path fill="none" stroke="midnightblue" d="M269.806,-386.581C287.872,-389.855 310.226,-393.907 330.94,-397.661"/>
<polygon fill="midnightblue" stroke="midnightblue" points="330.487,-401.136 340.951,-399.475 331.735,-394.248 330.487,-401.136"/>
</g>
<!-- Node41 -->
<g id="node13" class="node"><title>Node41</title>
<g id="a_node13"><a xlink:href="class_c_display.html#af350b35b44fc756e0c721ec4ee56c67a" target="_top" xlink:title="CDisplay::printDelimiter">
<polygon fill="none" stroke="black" points="998.5,-181.5 998.5,-200.5 1117.5,-200.5 1117.5,-181.5 998.5,-181.5"/>
<text text-anchor="middle" x="1058" y="-188.5" font-family="Helvetica,sans-Serif" font-size="10.00">CDisplay::printDelimiter</text>
</a>
</g>
</g>
<!-- Node40&#45;&gt;Node41 -->
<g id="edge13" class="edge"><title>Node40&#45;&gt;Node41</title>
<path fill="none" stroke="midnightblue" d="M934.095,-191C951.679,-191 970.595,-191 988.19,-191"/>
<polygon fill="midnightblue" stroke="midnightblue" points="988.377,-194.5 998.377,-191 988.377,-187.5 988.377,-194.5"/>
</g>
<!-- Node43 -->
<g id="node15" class="node"><title>Node43</title>
<g id="a_node15"><a xlink:href="class_c_display.html#a7d4efb0285d6cdf757bc34e38718e17d" target="_top" xlink:title="CDisplay::multiChoice">
<polygon fill="none" stroke="black" points="637,-418.5 637,-437.5 750,-437.5 750,-418.5 637,-418.5"/>
<text text-anchor="middle" x="693.5" y="-425.5" font-family="Helvetica,sans-Serif" font-size="10.00">CDisplay::multiChoice</text>
</a>
</g>
</g>
<!-- Node42&#45;&gt;Node43 -->
<g id="edge15" class="edge"><title>Node42&#45;&gt;Node43</title>
<path fill="none" stroke="midnightblue" d="M567.164,-380.61C584.227,-387.237 607.468,-396.218 628,-404 637.453,-407.583 647.703,-411.419 657.191,-414.95"/>
<polygon fill="midnightblue" stroke="midnightblue" points="656.143,-418.294 666.736,-418.495 658.581,-411.732 656.143,-418.294"/>
</g>
<!-- Node45 -->
<g id="node17" class="node"><title>Node45</title>
<g id="a_node17"><a xlink:href="class_c_game.html#a21a30939333b2c98f607d9bd2927d105" target="_top" xlink:title="CGame::createHero">
<polygon fill="none" stroke="black" points="642,-342.5 642,-361.5 745,-361.5 745,-342.5 642,-342.5"/>
<text text-anchor="middle" x="693.5" y="-349.5" font-family="Helvetica,sans-Serif" font-size="10.00">CGame::createHero</text>
</a>
</g>
</g>
<!-- Node42&#45;&gt;Node45 -->
<g id="edge17" class="edge"><title>Node42&#45;&gt;Node45</title>
<path fill="none" stroke="midnightblue" d="M592.031,-364.726C604.816,-363.107 618.72,-361.345 631.995,-359.664"/>
<polygon fill="midnightblue" stroke="midnightblue" points="632.514,-363.126 641.995,-358.397 631.634,-356.182 632.514,-363.126"/>
</g>
<!-- Node47 -->
<g id="node19" class="node"><title>Node47</title>
<g id="a_node19"><a xlink:href="class_c_game.html#accda079824fc813cbd64b4743846ae24" target="_top" xlink:title="CGame::loadGame">
<polygon fill="none" stroke="black" points="643.5,-266.5 643.5,-285.5 743.5,-285.5 743.5,-266.5 643.5,-266.5"/>
<text text-anchor="middle" x="693.5" y="-273.5" font-family="Helvetica,sans-Serif" font-size="10.00">CGame::loadGame</text>
</a>
</g>
</g>
<!-- Node42&#45;&gt;Node47 -->
<g id="edge22" class="edge"><title>Node42&#45;&gt;Node47</title>
<path fill="none" stroke="midnightblue" d="M557.708,-361.368C583.875,-344.796 637.596,-310.772 668.738,-291.049"/>
<polygon fill="midnightblue" stroke="midnightblue" points="670.676,-293.965 677.251,-285.657 666.931,-288.051 670.676,-293.965"/>
</g>
<!-- Node58 -->
<g id="node30" class="node"><title>Node58</title>
<g id="a_node30"><a xlink:href="class_c_game.html#a7b4409fd50b77ae5743a30bd43f01f61" target="_top" xlink:title="CGame::exit">
<polygon fill="none" stroke="black" points="658,-456.5 658,-475.5 729,-475.5 729,-456.5 658,-456.5"/>
<text text-anchor="middle" x="693.5" y="-463.5" font-family="Helvetica,sans-Serif" font-size="10.00">CGame::exit</text>
</a>
</g>
</g>
<!-- Node42&#45;&gt;Node58 -->
<g id="edge42" class="edge"><title>Node42&#45;&gt;Node58</title>
<path fill="none" stroke="midnightblue" d="M550.708,-380.66C564.873,-396.734 595.525,-428.981 628,-447 634.172,-450.425 641.028,-453.292 647.899,-455.673"/>
<polygon fill="midnightblue" stroke="midnightblue" points="647.309,-459.157 657.899,-458.824 649.413,-452.481 647.309,-459.157"/>
</g>
<!-- Node59 -->
<g id="node31" class="node"><title>Node59</title>
<g id="a_node31"><a xlink:href="class_c_display.html#a63f3c4f78cef1d3b13290970da9e3e85" target="_top" xlink:title="CDisplay::printError">
<polygon fill="none" stroke="black" points="643,-190.5 643,-209.5 744,-209.5 744,-190.5 643,-190.5"/>
<text text-anchor="middle" x="693.5" y="-197.5" font-family="Helvetica,sans-Serif" font-size="10.00">CDisplay::printError</text>
</a>
</g>
</g>
<!-- Node42&#45;&gt;Node59 -->
<g id="edge44" class="edge"><title>Node42&#45;&gt;Node59</title>
<path fill="none" stroke="midnightblue" d="M548.764,-361.333C562.134,-341.018 594.948,-292.817 628,-257 641.634,-242.225 658.751,-227.238 671.925,-216.342"/>
<polygon fill="midnightblue" stroke="midnightblue" points="674.394,-218.845 679.936,-209.815 669.973,-213.417 674.394,-218.845"/>
</g>
<!-- Node44 -->
<g id="node16" class="node"><title>Node44</title>
<g id="a_node16"><a xlink:href="class_c_display.html#aba2a285f19e987f9ba82447f43be2b10" target="_top" xlink:title="CDisplay::dumpToNewLine">
<polygon fill="none" stroke="black" points="991.5,-427.5 991.5,-446.5 1124.5,-446.5 1124.5,-427.5 991.5,-427.5"/>
<text text-anchor="middle" x="1058" y="-434.5" font-family="Helvetica,sans-Serif" font-size="10.00">CDisplay::dumpToNewLine</text>
</a>
</g>
</g>
<!-- Node43&#45;&gt;Node44 -->
<g id="edge16" class="edge"><title>Node43&#45;&gt;Node44</title>
<path fill="none" stroke="midnightblue" d="M750.346,-429.387C812.118,-430.92 912.006,-433.4 980.904,-435.111"/>
<polygon fill="midnightblue" stroke="midnightblue" points="981.177,-438.618 991.26,-435.368 981.35,-431.621 981.177,-438.618"/>
</g>
<!-- Node45&#45;&gt;Node32 -->
<g id="edge18" class="edge"><title>Node45&#45;&gt;Node32</title>
<path fill="none" stroke="midnightblue" d="M727.019,-361.569C737.585,-365.332 749.124,-370.166 759,-376 793.787,-396.551 828.12,-429.115 847.481,-448.925"/>
<polygon fill="midnightblue" stroke="midnightblue" points="845.139,-451.539 854.593,-456.322 850.185,-446.687 845.139,-451.539"/>
</g>
<!-- Node45&#45;&gt;Node40 -->
<g id="edge21" class="edge"><title>Node45&#45;&gt;Node40</title>
<path fill="none" stroke="midnightblue" d="M706.102,-342.111C719.157,-330.899 740.906,-311.97 759,-295 790.95,-265.034 826.883,-228.655 847.196,-207.83"/>
<polygon fill="midnightblue" stroke="midnightblue" points="849.711,-210.264 854.175,-200.655 844.693,-205.383 849.711,-210.264"/>
</g>
<!-- Node46 -->
<g id="node18" class="node"><title>Node46</title>
<g id="a_node18"><a xlink:href="class_c_display.html#a1bd3e25973ed15055a68d4db6abfa765" target="_top" xlink:title="CDisplay::getString">
<polygon fill="none" stroke="black" points="814,-342.5 814,-361.5 915,-361.5 915,-342.5 814,-342.5"/>
<text text-anchor="middle" x="864.5" y="-349.5" font-family="Helvetica,sans-Serif" font-size="10.00">CDisplay::getString</text>
</a>
</g>
</g>
<!-- Node45&#45;&gt;Node46 -->
<g id="edge19" class="edge"><title>Node45&#45;&gt;Node46</title>
<path fill="none" stroke="midnightblue" d="M745.206,-352C763.666,-352 784.704,-352 803.868,-352"/>
<polygon fill="midnightblue" stroke="midnightblue" points="803.993,-355.5 813.993,-352 803.993,-348.5 803.993,-355.5"/>
</g>
<!-- Node46&#45;&gt;Node44 -->
<g id="edge20" class="edge"><title>Node46&#45;&gt;Node44</title>
<path fill="none" stroke="midnightblue" d="M877.59,-361.642C896.293,-376.075 933.867,-403.183 970,-418 976.247,-420.562 982.894,-422.802 989.624,-424.757"/>
<polygon fill="midnightblue" stroke="midnightblue" points="988.939,-428.197 999.505,-427.42 990.76,-421.438 988.939,-428.197"/>
</g>
<!-- Node47&#45;&gt;Node32 -->
<g id="edge24" class="edge"><title>Node47&#45;&gt;Node32</title>
<path fill="none" stroke="midnightblue" d="M706.986,-285.888C720.438,-296.797 742.178,-315.177 759,-333 795.24,-371.397 832.123,-421.466 850.869,-447.87"/>
<polygon fill="midnightblue" stroke="midnightblue" points="848.092,-450.005 856.712,-456.165 853.814,-445.974 848.092,-450.005"/>
</g>
<!-- Node47&#45;&gt;Node40 -->
<g id="edge26" class="edge"><title>Node47&#45;&gt;Node40</title>
<path fill="none" stroke="midnightblue" d="M713.558,-266.415C743.305,-251.453 800.933,-222.469 835.436,-205.115"/>
<polygon fill="midnightblue" stroke="midnightblue" points="837.151,-208.17 844.512,-200.55 834.005,-201.917 837.151,-208.17"/>
</g>
<!-- Node47&#45;&gt;Node41 -->
<g id="edge23" class="edge"><title>Node47&#45;&gt;Node41</title>
<path fill="none" stroke="midnightblue" d="M743.932,-280.615C794.299,-283.189 873.404,-281.233 934,-252 954.665,-242.031 950.252,-226.681 970,-215 977.824,-210.372 986.57,-206.609 995.418,-203.557"/>
<polygon fill="midnightblue" stroke="midnightblue" points="996.544,-206.872 1005.02,-200.517 994.431,-200.199 996.544,-206.872"/>
</g>
<!-- Node47&#45;&gt;Node46 -->
<g id="edge25" class="edge"><title>Node47&#45;&gt;Node46</title>
<path fill="none" stroke="midnightblue" d="M727.457,-285.509C737.939,-289.244 749.318,-294.076 759,-300 777.515,-311.328 776.017,-322.475 795,-333 798.994,-335.214 803.264,-337.185 807.647,-338.937"/>
<polygon fill="midnightblue" stroke="midnightblue" points="806.765,-342.34 817.36,-342.432 809.135,-335.753 806.765,-342.34"/>
</g>
<!-- Node48 -->
<g id="node20" class="node"><title>Node48</title>
<g id="a_node20"><a xlink:href="class_c_game.html#a507b71eeebc2a6aaa08d9e0dcb61c7ac" target="_top" xlink:title="CGame::importPlayerData">
<polygon fill="none" stroke="black" points="799,-304.5 799,-323.5 930,-323.5 930,-304.5 799,-304.5"/>
<text text-anchor="middle" x="864.5" y="-311.5" font-family="Helvetica,sans-Serif" font-size="10.00">CGame::importPlayerData</text>
</a>
</g>
</g>
<!-- Node47&#45;&gt;Node48 -->
<g id="edge27" class="edge"><title>Node47&#45;&gt;Node48</title>
<path fill="none" stroke="midnightblue" d="M737.146,-285.589C759.648,-290.649 787.448,-296.9 811.238,-302.249"/>
<polygon fill="midnightblue" stroke="midnightblue" points="810.637,-305.701 821.161,-304.48 812.172,-298.871 810.637,-305.701"/>
</g>
<!-- Node48&#45;&gt;Node35 -->
<g id="edge40" class="edge"><title>Node48&#45;&gt;Node35</title>
<path fill="none" stroke="midnightblue" d="M920.669,-323.665C925.572,-326.124 930.133,-329.188 934,-333 974.561,-372.991 946.151,-404.273 970,-456 990.372,-500.186 1023.96,-546.607 1042.89,-571.217"/>
<polygon fill="midnightblue" stroke="midnightblue" points="1040.24,-573.514 1049.15,-579.252 1045.76,-569.213 1040.24,-573.514"/>
</g>
<!-- Node49 -->
<g id="node21" class="node"><title>Node49</title>
<g id="a_node21"><a xlink:href="class_c_stream_decoder.html#a27f04fbbe2eb121fe15988594fe7053f" target="_top" xlink:title="CStreamDecoder::decodePlayerData">
<polygon fill="none" stroke="black" points="970,-304.5 970,-323.5 1146,-323.5 1146,-304.5 970,-304.5"/>
<text text-anchor="middle" x="1058" y="-311.5" font-family="Helvetica,sans-Serif" font-size="10.00">CStreamDecoder::decodePlayerData</text>
</a>
</g>
</g>
<!-- Node48&#45;&gt;Node49 -->
<g id="edge28" class="edge"><title>Node48&#45;&gt;Node49</title>
<path fill="none" stroke="midnightblue" d="M930.066,-314C939.676,-314 949.756,-314 959.856,-314"/>
<polygon fill="midnightblue" stroke="midnightblue" points="959.947,-317.5 969.947,-314 959.947,-310.5 959.947,-317.5"/>
</g>
<!-- Node52 -->
<g id="node24" class="node"><title>Node52</title>
<g id="a_node24"><a xlink:href="class_c_stream_decoder.html#a57a7f304974a6b5be31e374685b70e33" target="_top" xlink:title="CStreamDecoder::getNumbers">
<polygon fill="none" stroke="black" points="1367,-263.5 1367,-282.5 1516,-282.5 1516,-263.5 1367,-263.5"/>
<text text-anchor="middle" x="1441.5" y="-270.5" font-family="Helvetica,sans-Serif" font-size="10.00">CStreamDecoder::getNumbers</text>
</a>
</g>
</g>
<!-- Node48&#45;&gt;Node52 -->
<g id="edge41" class="edge"><title>Node48&#45;&gt;Node52</title>
<path fill="none" stroke="midnightblue" d="M895.377,-304.464C969.15,-282.075 1165.94,-229.397 1331,-248 1353.21,-250.503 1377.49,-255.778 1397.53,-260.839"/>
<polygon fill="midnightblue" stroke="midnightblue" points="1396.73,-264.249 1407.29,-263.372 1398.49,-257.473 1396.73,-264.249"/>
</g>
<!-- Node53 -->
<g id="node25" class="node"><title>Node53</title>
<g id="a_node25"><a xlink:href="class_c_hero.html#a7b1a1b3c196bbe5b8da97c56f520c1f3" target="_top" xlink:title="CHero::update">
<polygon fill="none" stroke="black" points="1018.5,-389.5 1018.5,-408.5 1097.5,-408.5 1097.5,-389.5 1018.5,-389.5"/>
<text text-anchor="middle" x="1058" y="-396.5" font-family="Helvetica,sans-Serif" font-size="10.00">CHero::update</text>
</a>
</g>
</g>
<!-- Node48&#45;&gt;Node53 -->
<g id="edge32" class="edge"><title>Node48&#45;&gt;Node53</title>
<path fill="none" stroke="midnightblue" d="M905.84,-323.585C915.217,-326.252 925.066,-329.416 934,-333 969.741,-347.339 1008.5,-369.306 1032.76,-383.907"/>
<polygon fill="midnightblue" stroke="midnightblue" points="1031.26,-387.087 1041.62,-389.298 1034.9,-381.108 1031.26,-387.087"/>
</g>
<!-- Node50 -->
<g id="node22" class="node"><title>Node50</title>
<g id="a_node22"><a xlink:href="class_c_stream_decoder.html#a736a4660fb1fc91ffc7345050f815994" target="_top" xlink:title="CStreamDecoder::getString">
<polygon fill="none" stroke="black" points="1373.5,-389.5 1373.5,-408.5 1509.5,-408.5 1509.5,-389.5 1373.5,-389.5"/>
<text text-anchor="middle" x="1441.5" y="-396.5" font-family="Helvetica,sans-Serif" font-size="10.00">CStreamDecoder::getString</text>
</a>
</g>
</g>
<!-- Node49&#45;&gt;Node50 -->
<g id="edge29" class="edge"><title>Node49&#45;&gt;Node50</title>
<path fill="none" stroke="midnightblue" d="M1102.83,-323.565C1156.61,-335.324 1250.55,-355.944 1331,-374 1350.02,-378.27 1370.89,-383.018 1389.26,-387.219"/>
<polygon fill="midnightblue" stroke="midnightblue" points="1388.65,-390.67 1399.18,-389.491 1390.21,-383.847 1388.65,-390.67"/>
</g>
<!-- Node51 -->
<g id="node23" class="node"><title>Node51</title>
<g id="a_node23"><a xlink:href="class_c_stream_decoder.html#a5df71ab29ca4dc60f6c628fcb4a77949" target="_top" xlink:title="CStreamDecoder::getNumbers\lAsString">
<polygon fill="none" stroke="black" points="1182,-258 1182,-288 1331,-288 1331,-258 1182,-258"/>
<text text-anchor="start" x="1190" y="-276" font-family="Helvetica,sans-Serif" font-size="10.00">CStreamDecoder::getNumbers</text>
<text text-anchor="middle" x="1256.5" y="-265" font-family="Helvetica,sans-Serif" font-size="10.00">AsString</text>
</a>
</g>
</g>
<!-- Node49&#45;&gt;Node51 -->
<g id="edge30" class="edge"><title>Node49&#45;&gt;Node51</title>
<path fill="none" stroke="midnightblue" d="M1104.57,-304.491C1125.01,-300.227 1149.76,-295.062 1173.26,-290.159"/>
<polygon fill="midnightblue" stroke="midnightblue" points="1174.16,-293.546 1183.24,-288.078 1172.73,-286.694 1174.16,-293.546"/>
</g>
<!-- Node51&#45;&gt;Node52 -->
<g id="edge31" class="edge"><title>Node51&#45;&gt;Node52</title>
<path fill="none" stroke="midnightblue" d="M1331.14,-273C1339.47,-273 1348.01,-273 1356.46,-273"/>
<polygon fill="midnightblue" stroke="midnightblue" points="1356.71,-276.5 1366.71,-273 1356.71,-269.5 1356.71,-276.5"/>
</g>
<!-- Node53&#45;&gt;Node50 -->
<g id="edge33" class="edge"><title>Node53&#45;&gt;Node50</title>
<path fill="none" stroke="midnightblue" d="M1097.65,-407.383C1127.37,-413.672 1165.97,-421.451 1182,-423 1247.92,-429.371 1265.16,-430.13 1331,-423 1352.58,-420.662 1376.15,-415.805 1395.87,-411.067"/>
<polygon fill="midnightblue" stroke="midnightblue" points="1396.93,-414.41 1405.8,-408.615 1395.26,-407.614 1396.93,-414.41"/>
</g>
<!-- Node53&#45;&gt;Node52 -->
<g id="edge39" class="edge"><title>Node53&#45;&gt;Node52</title>
<path fill="none" stroke="midnightblue" d="M1087.99,-389.426C1155.88,-367.002 1325.25,-311.066 1401.82,-285.775"/>
<polygon fill="midnightblue" stroke="midnightblue" points="1403.16,-289.019 1411.56,-282.559 1400.96,-282.372 1403.16,-289.019"/>
</g>
<!-- Node54 -->
<g id="node26" class="node"><title>Node54</title>
<g id="a_node26"><a xlink:href="class_c_stream_decoder.html#aeaef1aa3239cf7b5d00397b6e46f67d1" target="_top" xlink:title="CStreamDecoder::getString\lAsInt">
<polygon fill="none" stroke="black" points="1188.5,-384 1188.5,-414 1324.5,-414 1324.5,-384 1188.5,-384"/>
<text text-anchor="start" x="1196.5" y="-402" font-family="Helvetica,sans-Serif" font-size="10.00">CStreamDecoder::getString</text>
<text text-anchor="middle" x="1256.5" y="-391" font-family="Helvetica,sans-Serif" font-size="10.00">AsInt</text>
</a>
</g>
</g>
<!-- Node53&#45;&gt;Node54 -->
<g id="edge34" class="edge"><title>Node53&#45;&gt;Node54</title>
<path fill="none" stroke="midnightblue" d="M1097.82,-399C1120.83,-399 1150.81,-399 1178.44,-399"/>
<polygon fill="midnightblue" stroke="midnightblue" points="1178.5,-402.5 1188.5,-399 1178.5,-395.5 1178.5,-402.5"/>
</g>
<!-- Node55 -->
<g id="node27" class="node"><title>Node55</title>
<g id="a_node27"><a xlink:href="class_c_equipment.html#abf42868d8cd5d627d872dbf7f80bff9a" target="_top" xlink:title="CEquipment::setAttack">
<polygon fill="none" stroke="black" points="1197.5,-547.5 1197.5,-566.5 1315.5,-566.5 1315.5,-547.5 1197.5,-547.5"/>
<text text-anchor="middle" x="1256.5" y="-554.5" font-family="Helvetica,sans-Serif" font-size="10.00">CEquipment::setAttack</text>
</a>
</g>
</g>
<!-- Node53&#45;&gt;Node55 -->
<g id="edge36" class="edge"><title>Node53&#45;&gt;Node55</title>
<path fill="none" stroke="midnightblue" d="M1097.67,-398.997C1114.4,-400.945 1133.07,-406.023 1146,-418 1186.85,-455.84 1141.88,-499.392 1182,-538 1183.95,-539.879 1186.07,-541.579 1188.3,-543.116"/>
<polygon fill="midnightblue" stroke="midnightblue" points="1187.02,-546.411 1197.45,-548.274 1190.46,-540.313 1187.02,-546.411"/>
</g>
<!-- Node56 -->
<g id="node28" class="node"><title>Node56</title>
<g id="a_node28"><a xlink:href="class_c_equipment.html#a223e0e1172975f9d9c49612b2513afb0" target="_top" xlink:title="CEquipment::setArmour">
<polygon fill="none" stroke="black" points="1196,-509.5 1196,-528.5 1317,-528.5 1317,-509.5 1196,-509.5"/>
<text text-anchor="middle" x="1256.5" y="-516.5" font-family="Helvetica,sans-Serif" font-size="10.00">CEquipment::setArmour</text>
</a>
</g>
</g>
<!-- Node53&#45;&gt;Node56 -->
<g id="edge37" class="edge"><title>Node53&#45;&gt;Node56</title>
<path fill="none" stroke="midnightblue" d="M1097.9,-399.86C1114.28,-402.023 1132.6,-407.031 1146,-418 1176.8,-443.214 1151.69,-474.206 1182,-500 1183.98,-501.682 1186.08,-503.217 1188.29,-504.618"/>
<polygon fill="midnightblue" stroke="midnightblue" points="1186.75,-507.765 1197.22,-509.388 1190.05,-501.59 1186.75,-507.765"/>
</g>
<!-- Node57 -->
<g id="node29" class="node"><title>Node57</title>
<g id="a_node29"><a xlink:href="class_c_inventory.html#a2ae39f69247c25fa2ee46c4111bcce56" target="_top" xlink:title="CInventory::update">
<polygon fill="none" stroke="black" points="1208,-471.5 1208,-490.5 1305,-490.5 1305,-471.5 1208,-471.5"/>
<text text-anchor="middle" x="1256.5" y="-478.5" font-family="Helvetica,sans-Serif" font-size="10.00">CInventory::update</text>
</a>
</g>
</g>
<!-- Node53&#45;&gt;Node57 -->
<g id="edge38" class="edge"><title>Node53&#45;&gt;Node57</title>
<path fill="none" stroke="midnightblue" d="M1097.65,-402.314C1113.43,-404.936 1131.38,-409.624 1146,-418 1166.47,-429.725 1162.15,-444.261 1182,-457 1188.83,-461.381 1196.53,-465.031 1204.31,-468.051"/>
<polygon fill="midnightblue" stroke="midnightblue" points="1203.19,-471.367 1213.78,-471.429 1205.54,-464.774 1203.19,-471.367"/>
</g>
<!-- Node54&#45;&gt;Node50 -->
<g id="edge35" class="edge"><title>Node54&#45;&gt;Node50</title>
<path fill="none" stroke="midnightblue" d="M1324.6,-399C1337.16,-399 1350.38,-399 1363.21,-399"/>
<polygon fill="midnightblue" stroke="midnightblue" points="1363.4,-402.5 1373.4,-399 1363.4,-395.5 1363.4,-402.5"/>
</g>
<!-- Node58&#45;&gt;Node32 -->
<g id="edge43" class="edge"><title>Node58&#45;&gt;Node32</title>
<path fill="none" stroke="midnightblue" d="M729.107,-466C753.597,-466 786.798,-466 814.073,-466"/>
<polygon fill="midnightblue" stroke="midnightblue" points="814.205,-469.5 824.205,-466 814.205,-462.5 814.205,-469.5"/>
</g>
<!-- Node59&#45;&gt;Node40 -->
<g id="edge45" class="edge"><title>Node59&#45;&gt;Node40</title>
<path fill="none" stroke="midnightblue" d="M744.292,-197.348C757.062,-196.668 771.113,-195.92 784.95,-195.183"/>
<polygon fill="midnightblue" stroke="midnightblue" points="785.167,-198.677 794.967,-194.65 784.795,-191.687 785.167,-198.677"/>
</g>
<!-- Node60&#45;&gt;Node29 -->
<g id="edge48" class="edge"><title>Node60&#45;&gt;Node29</title>
<path fill="none" stroke="midnightblue" d="M362.587,-418.597C318.505,-432.609 235.353,-460.254 167,-490 140.875,-501.369 112.095,-516.546 92.0536,-527.567"/>
<polygon fill="midnightblue" stroke="midnightblue" points="90.2813,-524.548 83.2343,-532.459 93.6768,-530.669 90.2813,-524.548"/>
</g>
<!-- Node60&#45;&gt;Node34 -->
<g id="edge68" class="edge"><title>Node60&#45;&gt;Node34</title>
<path fill="none" stroke="midnightblue" d="M403.711,-418.684C427.339,-446.548 495.728,-527.199 525.901,-562.784"/>
<polygon fill="midnightblue" stroke="midnightblue" points="523.242,-565.059 532.379,-570.423 528.581,-560.532 523.242,-565.059"/>
</g>
<!-- Node60&#45;&gt;Node42 -->
<g id="edge69" class="edge"><title>Node60&#45;&gt;Node42</title>
<path fill="none" stroke="midnightblue" d="M432.09,-399.411C450.965,-394.464 474.186,-388.379 494.288,-383.111"/>
<polygon fill="midnightblue" stroke="midnightblue" points="495.387,-386.441 504.173,-380.52 493.613,-379.67 495.387,-386.441"/>
</g>
<!-- Node60&#45;&gt;Node43 -->
<g id="edge47" class="edge"><title>Node60&#45;&gt;Node43</title>
<path fill="none" stroke="midnightblue" d="M455.245,-412.822C504.951,-416.002 575.612,-420.522 626.882,-423.802"/>
<polygon fill="midnightblue" stroke="midnightblue" points="626.663,-427.295 636.866,-424.441 627.11,-420.31 626.663,-427.295"/>
</g>
<!-- Node61 -->
<g id="node33" class="node"><title>Node61</title>
<g id="a_node33"><a xlink:href="class_c_hero.html#a0232f04b4e49227ba90a8922135d4102" target="_top" xlink:title="CHero::printStats">
<polygon fill="none" stroke="black" points="647.5,-38.5 647.5,-57.5 739.5,-57.5 739.5,-38.5 647.5,-38.5"/>
<text text-anchor="middle" x="693.5" y="-45.5" font-family="Helvetica,sans-Serif" font-size="10.00">CHero::printStats</text>
</a>
</g>
</g>
<!-- Node60&#45;&gt;Node61 -->
<g id="edge49" class="edge"><title>Node60&#45;&gt;Node61</title>
<path fill="none" stroke="midnightblue" d="M399.24,-399.413C410.668,-370.682 447.038,-283.308 491,-219 542.326,-143.921 551.036,-115.453 628,-67 631.35,-64.8913 634.943,-63.0078 638.658,-61.327"/>
<polygon fill="midnightblue" stroke="midnightblue" points="640.09,-64.5235 648.07,-57.5533 637.485,-58.0263 640.09,-64.5235"/>
</g>
<!-- Node66 -->
<g id="node38" class="node"><title>Node66</title>
<g id="a_node38"><a xlink:href="class_c_game.html#a49656fe4404b3df63f2dbebd9b754edd" target="_top" xlink:title="CGame::saveGame">
<polygon fill="none" stroke="black" points="491,-228.5 491,-247.5 592,-247.5 592,-228.5 491,-228.5"/>
<text text-anchor="middle" x="541.5" y="-235.5" font-family="Helvetica,sans-Serif" font-size="10.00">CGame::saveGame</text>
</a>
</g>
</g>
<!-- Node60&#45;&gt;Node66 -->
<g id="edge55" class="edge"><title>Node60&#45;&gt;Node66</title>
<path fill="none" stroke="midnightblue" d="M403.711,-399.316C427.339,-371.452 495.728,-290.801 525.901,-255.216"/>
<polygon fill="midnightblue" stroke="midnightblue" points="528.581,-257.468 532.379,-247.577 523.242,-252.941 528.581,-257.468"/>
</g>
<!-- Node61&#45;&gt;Node40 -->
<g id="edge50" class="edge"><title>Node61&#45;&gt;Node40</title>
<path fill="none" stroke="midnightblue" d="M739.673,-55.9645C746.666,-58.6426 753.41,-62.2204 759,-67 787.406,-91.2902 770.894,-114.437 795,-143 806.262,-156.345 822.058,-167.744 835.644,-176.08"/>
<polygon fill="midnightblue" stroke="midnightblue" points="834.218,-179.302 844.613,-181.349 837.763,-173.266 834.218,-179.302"/>
</g>
<!-- Node62 -->
<g id="node34" class="node"><title>Node62</title>
<g id="a_node34"><a xlink:href="class_c_hero.html#a1be25c88254db1f753e1ce89da03ef46" target="_top" xlink:title="CHero::getAttack">
<polygon fill="none" stroke="black" points="818.5,-0.5 818.5,-19.5 910.5,-19.5 910.5,-0.5 818.5,-0.5"/>
<text text-anchor="middle" x="864.5" y="-7.5" font-family="Helvetica,sans-Serif" font-size="10.00">CHero::getAttack</text>
</a>
</g>
</g>
<!-- Node61&#45;&gt;Node62 -->
<g id="edge51" class="edge"><title>Node61&#45;&gt;Node62</title>
<path fill="none" stroke="midnightblue" d="M737.146,-38.411C759.648,-33.3513 787.448,-27.1004 811.238,-21.7512"/>
<polygon fill="midnightblue" stroke="midnightblue" points="812.172,-25.1286 821.161,-19.5201 810.637,-18.2991 812.172,-25.1286"/>
</g>
<!-- Node64 -->
<g id="node36" class="node"><title>Node64</title>
<g id="a_node36"><a xlink:href="class_c_hero.html#a50d1e46ce5b1d84c6ed04493f1d71f81" target="_top" xlink:title="CHero::getArmour">
<polygon fill="none" stroke="black" points="817,-38.5 817,-57.5 912,-57.5 912,-38.5 817,-38.5"/>
<text text-anchor="middle" x="864.5" y="-45.5" font-family="Helvetica,sans-Serif" font-size="10.00">CHero::getArmour</text>
</a>
</g>
</g>
<!-- Node61&#45;&gt;Node64 -->
<g id="edge53" class="edge"><title>Node61&#45;&gt;Node64</title>
<path fill="none" stroke="midnightblue" d="M739.789,-48C760.384,-48 784.972,-48 806.782,-48"/>
<polygon fill="midnightblue" stroke="midnightblue" points="806.908,-51.5001 816.908,-48 806.908,-44.5001 806.908,-51.5001"/>
</g>
<!-- Node63 -->
<g id="node35" class="node"><title>Node63</title>
<g id="a_node35"><a xlink:href="class_c_equipment.html#a6b27732ece0ab3c74bff006093dc5a7d" target="_top" xlink:title="CEquipment::getAttack">
<polygon fill="none" stroke="black" points="999,-7.5 999,-26.5 1117,-26.5 1117,-7.5 999,-7.5"/>
<text text-anchor="middle" x="1058" y="-14.5" font-family="Helvetica,sans-Serif" font-size="10.00">CEquipment::getAttack</text>
</a>
</g>
</g>
<!-- Node62&#45;&gt;Node63 -->
<g id="edge52" class="edge"><title>Node62&#45;&gt;Node63</title>
<path fill="none" stroke="midnightblue" d="M910.883,-11.6589C934.122,-12.5084 962.894,-13.5601 988.745,-14.505"/>
<polygon fill="midnightblue" stroke="midnightblue" points="988.744,-18.0073 998.865,-14.875 989,-11.0119 988.744,-18.0073"/>
</g>
<!-- Node65 -->
<g id="node37" class="node"><title>Node65</title>
<g id="a_node37"><a xlink:href="class_c_equipment.html#a27e962aead56bb39886acc86c17b7478" target="_top" xlink:title="CEquipment::getArmour">
<polygon fill="none" stroke="black" points="997.5,-45.5 997.5,-64.5 1118.5,-64.5 1118.5,-45.5 997.5,-45.5"/>
<text text-anchor="middle" x="1058" y="-52.5" font-family="Helvetica,sans-Serif" font-size="10.00">CEquipment::getArmour</text>
</a>
</g>
</g>
<!-- Node64&#45;&gt;Node65 -->
<g id="edge54" class="edge"><title>Node64&#45;&gt;Node65</title>
<path fill="none" stroke="midnightblue" d="M912.346,-49.7124C934.827,-50.5342 962.225,-51.5356 987.105,-52.4451"/>
<polygon fill="midnightblue" stroke="midnightblue" points="987.104,-55.9473 997.226,-52.815 987.36,-48.952 987.104,-55.9473"/>
</g>
<!-- Node66&#45;&gt;Node32 -->
<g id="edge57" class="edge"><title>Node66&#45;&gt;Node32</title>
<path fill="none" stroke="midnightblue" d="M545.957,-247.726C555.201,-272.308 582.894,-337.354 628,-371 676.593,-407.247 702.949,-385.905 759,-409 787.831,-420.879 818.98,-438.557 839.698,-451.071"/>
<polygon fill="midnightblue" stroke="midnightblue" points="838.08,-454.185 848.437,-456.418 841.733,-448.214 838.08,-454.185"/>
</g>
<!-- Node66&#45;&gt;Node40 -->
<g id="edge66" class="edge"><title>Node66&#45;&gt;Node40</title>
<path fill="none" stroke="midnightblue" d="M552.506,-228.372C567.482,-214.705 597.266,-190.306 628,-181 689.978,-162.234 765.318,-170.489 813.819,-179.53"/>
<polygon fill="midnightblue" stroke="midnightblue" points="813.262,-182.987 823.747,-181.462 814.599,-176.116 813.262,-182.987"/>
</g>
<!-- Node66&#45;&gt;Node41 -->
<g id="edge56" class="edge"><title>Node66&#45;&gt;Node41</title>
<path fill="none" stroke="midnightblue" d="M592.061,-235.758C666.479,-232.098 811.44,-223.825 934,-210 952.75,-207.885 973.021,-205.002 991.594,-202.121"/>
<polygon fill="midnightblue" stroke="midnightblue" points="992.383,-205.54 1001.72,-200.526 991.293,-198.625 992.383,-205.54"/>
</g>
<!-- Node66&#45;&gt;Node46 -->
<g id="edge58" class="edge"><title>Node66&#45;&gt;Node46</title>
<path fill="none" stroke="midnightblue" d="M553.904,-247.53C569.612,-260.187 599.238,-282.406 628,-295 659.463,-308.777 746.615,-328.172 805.604,-340.411"/>
<polygon fill="midnightblue" stroke="midnightblue" points="805.042,-343.869 815.543,-342.461 806.456,-337.013 805.042,-343.869"/>
</g>
<!-- Node66&#45;&gt;Node59 -->
<g id="edge67" class="edge"><title>Node66&#45;&gt;Node59</title>
<path fill="none" stroke="midnightblue" d="M580.351,-228.411C599.967,-223.442 624.119,-217.323 644.979,-212.039"/>
<polygon fill="midnightblue" stroke="midnightblue" points="646.087,-215.369 654.921,-209.52 644.368,-208.583 646.087,-215.369"/>
</g>
<!-- Node67 -->
<g id="node39" class="node"><title>Node67</title>
<g id="a_node39"><a xlink:href="class_c_game.html#a7d821ce9a0454653bbfde69979155da9" target="_top" xlink:title="CGame::exportPlayerData">
<polygon fill="none" stroke="black" points="628,-76.5 628,-95.5 759,-95.5 759,-76.5 628,-76.5"/>
<text text-anchor="middle" x="693.5" y="-83.5" font-family="Helvetica,sans-Serif" font-size="10.00">CGame::exportPlayerData</text>
</a>
</g>
</g>
<!-- Node66&#45;&gt;Node67 -->
<g id="edge59" class="edge"><title>Node66&#45;&gt;Node67</title>
<path fill="none" stroke="midnightblue" d="M551.346,-228.405C566.714,-211.803 599.434,-176.734 628,-148 643.598,-132.31 661.806,-114.886 674.892,-102.515"/>
<polygon fill="midnightblue" stroke="midnightblue" points="677.431,-104.931 682.308,-95.5256 672.63,-99.837 677.431,-104.931"/>
</g>
<!-- Node68 -->
<g id="node40" class="node"><title>Node68</title>
<g id="a_node40"><a xlink:href="class_c_hero.html#a1593ac4dfc01368e99b2b82a21c3c6ed" target="_top" xlink:title="CHero::exportData">
<polygon fill="none" stroke="black" points="816,-114.5 816,-133.5 913,-133.5 913,-114.5 816,-114.5"/>
<text text-anchor="middle" x="864.5" y="-121.5" font-family="Helvetica,sans-Serif" font-size="10.00">CHero::exportData</text>
</a>
</g>
</g>
<!-- Node67&#45;&gt;Node68 -->
<g id="edge60" class="edge"><title>Node67&#45;&gt;Node68</title>
<path fill="none" stroke="midnightblue" d="M737.146,-95.589C759.648,-100.649 787.448,-106.9 811.238,-112.249"/>
<polygon fill="midnightblue" stroke="midnightblue" points="810.637,-115.701 821.161,-114.48 812.172,-108.871 810.637,-115.701"/>
</g>
<!-- Node71 -->
<g id="node43" class="node"><title>Node71</title>
<g id="a_node43"><a xlink:href="class_c_storyline.html#aa8cb69bd93260855dc0221d901b1bd07" target="_top" xlink:title="CStoryline::exportData">
<polygon fill="none" stroke="black" points="807,-76.5 807,-95.5 922,-95.5 922,-76.5 807,-76.5"/>
<text text-anchor="middle" x="864.5" y="-83.5" font-family="Helvetica,sans-Serif" font-size="10.00">CStoryline::exportData</text>
</a>
</g>
</g>
<!-- Node67&#45;&gt;Node71 -->
<g id="edge65" class="edge"><title>Node67&#45;&gt;Node71</title>
<path fill="none" stroke="midnightblue" d="M759.356,-86C771.574,-86 784.371,-86 796.648,-86"/>
<polygon fill="midnightblue" stroke="midnightblue" points="796.814,-89.5001 806.814,-86 796.814,-82.5001 796.814,-89.5001"/>
</g>
<!-- Node68&#45;&gt;Node63 -->
<g id="edge62" class="edge"><title>Node68&#45;&gt;Node63</title>
<path fill="none" stroke="midnightblue" d="M913.29,-116.224C920.738,-113.524 927.956,-109.89 934,-105 960.891,-83.2438 942.515,-57.0009 970,-36 975.743,-31.6118 982.29,-28.1927 989.155,-25.535"/>
<polygon fill="midnightblue" stroke="midnightblue" points="990.29,-28.8464 998.669,-22.3635 988.076,-22.2056 990.29,-28.8464"/>
</g>
<!-- Node68&#45;&gt;Node65 -->
<g id="edge63" class="edge"><title>Node68&#45;&gt;Node65</title>
<path fill="none" stroke="midnightblue" d="M908.271,-114.395C916.967,-111.819 925.92,-108.698 934,-105 951.485,-96.9962 952.595,-89.1768 970,-81 981.258,-75.7107 993.842,-71.212 1005.86,-67.5189"/>
<polygon fill="midnightblue" stroke="midnightblue" points="1007.18,-70.7806 1015.79,-64.6065 1005.21,-64.0638 1007.18,-70.7806"/>
</g>
<!-- Node69 -->
<g id="node41" class="node"><title>Node69</title>
<g id="a_node41"><a xlink:href="struct_hero_stats.html#a9580a49eab11c0babd042b6e7e551e4e" target="_top" xlink:title="HeroStats::exportData">
<polygon fill="none" stroke="black" points="1001.5,-128.5 1001.5,-147.5 1114.5,-147.5 1114.5,-128.5 1001.5,-128.5"/>
<text text-anchor="middle" x="1058" y="-135.5" font-family="Helvetica,sans-Serif" font-size="10.00">HeroStats::exportData</text>
</a>
</g>
</g>
<!-- Node68&#45;&gt;Node69 -->
<g id="edge61" class="edge"><title>Node68&#45;&gt;Node69</title>
<path fill="none" stroke="midnightblue" d="M913.33,-127.497C936.9,-129.22 965.689,-131.325 991.291,-133.196"/>
<polygon fill="midnightblue" stroke="midnightblue" points="991.069,-136.689 1001.3,-133.928 991.58,-129.708 991.069,-136.689"/>
</g>
<!-- Node70 -->
<g id="node42" class="node"><title>Node70</title>
<g id="a_node42"><a xlink:href="class_c_inventory.html#aaf1332bfb30866845bbcae69e411e4bc" target="_top" xlink:title="CInventory::exportData">
<polygon fill="none" stroke="black" points="1000.5,-90.5 1000.5,-109.5 1115.5,-109.5 1115.5,-90.5 1000.5,-90.5"/>
<text text-anchor="middle" x="1058" y="-97.5" font-family="Helvetica,sans-Serif" font-size="10.00">CInventory::exportData</text>
</a>
</g>
</g>
<!-- Node68&#45;&gt;Node70 -->
<g id="edge64" class="edge"><title>Node68&#45;&gt;Node70</title>
<path fill="none" stroke="midnightblue" d="M913.33,-118.006C936.503,-115.101 964.722,-111.565 989.996,-108.397"/>
<polygon fill="midnightblue" stroke="midnightblue" points="990.767,-111.828 1000.25,-107.112 989.897,-104.883 990.767,-111.828"/>
</g>
</g>
</svg>
