<?xml version="1.0" encoding="UTF-8" standalone="no"?>
<!DOCTYPE svg PUBLIC "-//W3C//DTD SVG 1.1//EN"
 "http://www.w3.org/Graphics/SVG/1.1/DTD/svg11.dtd">
<!-- Generated by graphviz version 2.38.0 (20140413.2041)
 -->
<!-- Title: CHero::getAttack Pages: 1 -->
<svg width="662pt" height="85pt"
 viewBox="0.00 0.00 662.00 85.00" xmlns="http://www.w3.org/2000/svg" xmlns:xlink="http://www.w3.org/1999/xlink">
<g id="graph0" class="graph" transform="scale(1 1) rotate(0) translate(4 81)">
<title>CHero::getAttack</title>
<!-- Node45 -->
<g id="node1" class="node"><title>Node45</title>
<polygon fill="#bfbfbf" stroke="black" points="0,-38.5 0,-57.5 92,-57.5 92,-38.5 0,-38.5"/>
<text text-anchor="middle" x="46" y="-45.5" font-family="Helvetica,sans-Serif" font-size="10.00">CHero::getAttack</text>
</g>
<!-- Node46 -->
<g id="node2" class="node"><title>Node46</title>
<g id="a_node2"><a xlink:href="class_c_hero.html#a7cda26a24b8e70fc2ffe829e9c984b7e" target="_top" xlink:title="CHero::fight">
<polygon fill="none" stroke="black" points="140,-57.5 140,-76.5 208,-76.5 208,-57.5 140,-57.5"/>
<text text-anchor="middle" x="174" y="-64.5" font-family="Helvetica,sans-Serif" font-size="10.00">CHero::fight</text>
</a>
</g>
</g>
<!-- Node45&#45;&gt;Node46 -->
<g id="edge1" class="edge"><title>Node45&#45;&gt;Node46</title>
<path fill="none" stroke="midnightblue" d="M102.227,-56.3279C114.98,-58.2509 128.164,-60.239 139.646,-61.9705"/>
<polygon fill="midnightblue" stroke="midnightblue" points="102.543,-52.8361 92.133,-54.8058 101.499,-59.7578 102.543,-52.8361"/>
</g>
<!-- Node48 -->
<g id="node4" class="node"><title>Node48</title>
<g id="a_node4"><a xlink:href="class_c_hero.html#a0232f04b4e49227ba90a8922135d4102" target="_top" xlink:title="CHero::printStats">
<polygon fill="none" stroke="black" points="128,-19.5 128,-38.5 220,-38.5 220,-19.5 128,-19.5"/>
<text text-anchor="middle" x="174" y="-26.5" font-family="Helvetica,sans-Serif" font-size="10.00">CHero::printStats</text>
</a>
</g>
</g>
<!-- Node45&#45;&gt;Node48 -->
<g id="edge3" class="edge"><title>Node45&#45;&gt;Node48</title>
<path fill="none" stroke="midnightblue" d="M102.074,-39.6952C110.653,-38.4016 119.431,-37.0779 127.759,-35.8221"/>
<polygon fill="midnightblue" stroke="midnightblue" points="101.499,-36.2422 92.133,-41.1942 102.543,-43.1639 101.499,-36.2422"/>
</g>
<!-- Node47 -->
<g id="node3" class="node"><title>Node47</title>
<g id="a_node3"><a xlink:href="class_c_fight.html#ac820b62e70990ddc90ecb959f4497f8f" target="_top" xlink:title="CFight::execute">
<polygon fill="none" stroke="black" points="273.5,-57.5 273.5,-76.5 359.5,-76.5 359.5,-57.5 273.5,-57.5"/>
<text text-anchor="middle" x="316.5" y="-64.5" font-family="Helvetica,sans-Serif" font-size="10.00">CFight::execute</text>
</a>
</g>
</g>
<!-- Node46&#45;&gt;Node47 -->
<g id="edge2" class="edge"><title>Node46&#45;&gt;Node47</title>
<path fill="none" stroke="midnightblue" d="M218.761,-67C236.171,-67 256.124,-67 273.369,-67"/>
<polygon fill="midnightblue" stroke="midnightblue" points="218.297,-63.5001 208.297,-67 218.297,-70.5001 218.297,-63.5001"/>
</g>
<!-- Node49 -->
<g id="node5" class="node"><title>Node49</title>
<g id="a_node5"><a xlink:href="class_c_game.html#a714b291af5e20aae8be14a905fd0522d" target="_top" xlink:title="CGame::tickComponent">
<polygon fill="none" stroke="black" points="256,-19.5 256,-38.5 377,-38.5 377,-19.5 256,-19.5"/>
<text text-anchor="middle" x="316.5" y="-26.5" font-family="Helvetica,sans-Serif" font-size="10.00">CGame::tickComponent</text>
</a>
</g>
</g>
<!-- Node48&#45;&gt;Node49 -->
<g id="edge4" class="edge"><title>Node48&#45;&gt;Node49</title>
<path fill="none" stroke="midnightblue" d="M230.325,-29C238.753,-29 247.482,-29 255.995,-29"/>
<polygon fill="midnightblue" stroke="midnightblue" points="230.228,-25.5001 220.228,-29 230.228,-32.5001 230.228,-25.5001"/>
</g>
<!-- Node50 -->
<g id="node6" class="node"><title>Node50</title>
<g id="a_node6"><a xlink:href="class_c_game.html#aa9d3da2fefa1c04faefc6586dbd37971" target="_top" xlink:title="CGame::play">
<polygon fill="none" stroke="black" points="413,-0.5 413,-19.5 487,-19.5 487,-0.5 413,-0.5"/>
<text text-anchor="middle" x="450" y="-7.5" font-family="Helvetica,sans-Serif" font-size="10.00">CGame::play</text>
</a>
</g>
</g>
<!-- Node49&#45;&gt;Node50 -->
<g id="edge5" class="edge"><title>Node49&#45;&gt;Node50</title>
<path fill="none" stroke="midnightblue" d="M387.157,-18.9354C396.065,-17.6483 404.878,-16.3751 412.937,-15.2107"/>
<polygon fill="midnightblue" stroke="midnightblue" points="386.491,-15.4953 377.094,-20.3895 387.492,-22.4234 386.491,-15.4953"/>
</g>
<!-- Node51 -->
<g id="node7" class="node"><title>Node51</title>
<g id="a_node7"><a xlink:href="class_c_game.html#ac0a8028013ca5a7c135c29fa582df4a0" target="_top" xlink:title="CGame::checkHeroStatus">
<polygon fill="none" stroke="black" points="523,-38.5 523,-57.5 654,-57.5 654,-38.5 523,-38.5"/>
<text text-anchor="middle" x="588.5" y="-45.5" font-family="Helvetica,sans-Serif" font-size="10.00">CGame::checkHeroStatus</text>
</a>
</g>
</g>
<!-- Node50&#45;&gt;Node51 -->
<g id="edge6" class="edge"><title>Node50&#45;&gt;Node51</title>
<path fill="none" stroke="midnightblue" d="M495.249,-22.3183C514.003,-27.5393 535.528,-33.5316 553.066,-38.4141"/>
<polygon fill="midnightblue" stroke="midnightblue" points="496.017,-18.8992 485.445,-19.589 494.14,-25.6428 496.017,-18.8992"/>
</g>
<!-- Node52 -->
<g id="node8" class="node"><title>Node52</title>
<g id="a_node8"><a xlink:href="main_8cpp.html#ae66f6b31b5ad750f1fe042a706a4e3d4" target="_top" xlink:title="main">
<polygon fill="none" stroke="black" points="569.5,-0.5 569.5,-19.5 607.5,-19.5 607.5,-0.5 569.5,-0.5"/>
<text text-anchor="middle" x="588.5" y="-7.5" font-family="Helvetica,sans-Serif" font-size="10.00">main</text>
</a>
</g>
</g>
<!-- Node50&#45;&gt;Node52 -->
<g id="edge8" class="edge"><title>Node50&#45;&gt;Node52</title>
<path fill="none" stroke="midnightblue" d="M497.458,-10C522.045,-10 550.849,-10 569.132,-10"/>
<polygon fill="midnightblue" stroke="midnightblue" points="497.221,-6.5001 487.221,-10 497.221,-13.5001 497.221,-6.5001"/>
</g>
<!-- Node51&#45;&gt;Node49 -->
<g id="edge7" class="edge"><title>Node51&#45;&gt;Node49</title>
<path fill="none" stroke="midnightblue" d="M512.793,-42.7429C470.008,-39.7321 417.055,-36.0057 377.087,-33.1932"/>
<polygon fill="midnightblue" stroke="midnightblue" points="512.654,-46.2416 522.875,-43.4523 513.146,-39.2589 512.654,-46.2416"/>
</g>
</g>
</svg>
