<?xml version="1.0" encoding="UTF-8" standalone="no"?>
<!DOCTYPE svg PUBLIC "-//W3C//DTD SVG 1.1//EN"
 "http://www.w3.org/Graphics/SVG/1.1/DTD/svg11.dtd">
<!-- Generated by graphviz version 2.38.0 (20140413.2041)
 -->
<!-- Title: CItem::print Pages: 1 -->
<svg width="353pt" height="39pt"
 viewBox="0.00 0.00 353.00 39.00" xmlns="http://www.w3.org/2000/svg" xmlns:xlink="http://www.w3.org/1999/xlink">
<g id="graph0" class="graph" transform="scale(1 1) rotate(0) translate(4 35)">
<title>CItem::print</title>
<!-- Node19 -->
<g id="node1" class="node"><title>Node19</title>
<polygon fill="#bfbfbf" stroke="black" points="0,-6 0,-25 67,-25 67,-6 0,-6"/>
<text text-anchor="middle" x="33.5" y="-13" font-family="Helvetica,sans-Serif" font-size="10.00">CItem::print</text>
</g>
<!-- Node20 -->
<g id="node2" class="node"><title>Node20</title>
<g id="a_node2"><a xlink:href="class_c_inventory_browser.html#a022cb6fc703bd156921816554c7a18b8" target="_top" xlink:title="CInventoryBrowser::\lprintInventory">
<polygon fill="none" stroke="black" points="103,-0.5 103,-30.5 206,-30.5 206,-0.5 103,-0.5"/>
<text text-anchor="start" x="111" y="-18.5" font-family="Helvetica,sans-Serif" font-size="10.00">CInventoryBrowser::</text>
<text text-anchor="middle" x="154.5" y="-7.5" font-family="Helvetica,sans-Serif" font-size="10.00">printInventory</text>
</a>
</g>
</g>
<!-- Node19&#45;&gt;Node20 -->
<g id="edge1" class="edge"><title>Node19&#45;&gt;Node20</title>
<path fill="none" stroke="midnightblue" d="M77.1833,-15.5C85.4509,-15.5 94.1903,-15.5 102.688,-15.5"/>
<polygon fill="midnightblue" stroke="midnightblue" points="77.0173,-12.0001 67.0173,-15.5 77.0172,-19.0001 77.0173,-12.0001"/>
</g>
<!-- Node21 -->
<g id="node3" class="node"><title>Node21</title>
<g id="a_node3"><a xlink:href="class_c_inventory_browser.html#a91c51766048ba5629b125b9a444d31bb" target="_top" xlink:title="CInventoryBrowser::\loperator()">
<polygon fill="none" stroke="black" points="242,-0.5 242,-30.5 345,-30.5 345,-0.5 242,-0.5"/>
<text text-anchor="start" x="250" y="-18.5" font-family="Helvetica,sans-Serif" font-size="10.00">CInventoryBrowser::</text>
<text text-anchor="middle" x="293.5" y="-7.5" font-family="Helvetica,sans-Serif" font-size="10.00">operator()</text>
</a>
</g>
</g>
<!-- Node20&#45;&gt;Node21 -->
<g id="edge2" class="edge"><title>Node20&#45;&gt;Node21</title>
<path fill="none" stroke="midnightblue" d="M216.32,-15.5C224.772,-15.5 233.382,-15.5 241.626,-15.5"/>
<polygon fill="midnightblue" stroke="midnightblue" points="216.125,-12.0001 206.125,-15.5 216.124,-19.0001 216.125,-12.0001"/>
</g>
</g>
</svg>
