<?xml version="1.0" encoding="UTF-8" standalone="no"?>
<!DOCTYPE svg PUBLIC "-//W3C//DTD SVG 1.1//EN"
 "http://www.w3.org/Graphics/SVG/1.1/DTD/svg11.dtd">
<!-- Generated by graphviz version 2.38.0 (20140413.2041)
 -->
<!-- Title: CHero Pages: 1 -->
<svg width="424pt" height="606pt"
 viewBox="0.00 0.00 423.50 606.00" xmlns="http://www.w3.org/2000/svg" xmlns:xlink="http://www.w3.org/1999/xlink">
<g id="graph0" class="graph" transform="scale(1 1) rotate(0) translate(4 602)">
<title>CHero</title>
<!-- Node1 -->
<g id="node1" class="node"><title>Node1</title>
<polygon fill="#bfbfbf" stroke="black" points="164,-0.5 164,-233.5 255,-233.5 255,-0.5 164,-0.5"/>
<text text-anchor="middle" x="209.5" y="-221.5" font-family="Helvetica,sans-Serif" font-size="10.00">CHero</text>
<polyline fill="none" stroke="black" points="164,-214.5 255,-214.5 "/>
<text text-anchor="middle" x="209.5" y="-202.5" font-family="Helvetica,sans-Serif" font-size="10.00"> </text>
<polyline fill="none" stroke="black" points="164,-195.5 255,-195.5 "/>
<text text-anchor="start" x="172" y="-183.5" font-family="Helvetica,sans-Serif" font-size="10.00">+ CHero()</text>
<text text-anchor="start" x="172" y="-172.5" font-family="Helvetica,sans-Serif" font-size="10.00">+ CHero()</text>
<text text-anchor="start" x="172" y="-161.5" font-family="Helvetica,sans-Serif" font-size="10.00">+ exportData()</text>
<text text-anchor="start" x="172" y="-150.5" font-family="Helvetica,sans-Serif" font-size="10.00">+ update()</text>
<text text-anchor="start" x="172" y="-139.5" font-family="Helvetica,sans-Serif" font-size="10.00">+ fight()</text>
<text text-anchor="start" x="172" y="-128.5" font-family="Helvetica,sans-Serif" font-size="10.00">+ useItem()</text>
<text text-anchor="start" x="172" y="-117.5" font-family="Helvetica,sans-Serif" font-size="10.00">+ sufferDamage()</text>
<text text-anchor="start" x="172" y="-106.5" font-family="Helvetica,sans-Serif" font-size="10.00">+ isDead()</text>
<text text-anchor="start" x="172" y="-95.5" font-family="Helvetica,sans-Serif" font-size="10.00">+ getGold()</text>
<text text-anchor="start" x="172" y="-84.5" font-family="Helvetica,sans-Serif" font-size="10.00">+ getName()</text>
<text text-anchor="start" x="172" y="-73.5" font-family="Helvetica,sans-Serif" font-size="10.00">+ payGold()</text>
<text text-anchor="start" x="172" y="-62.5" font-family="Helvetica,sans-Serif" font-size="10.00">+ addGold()</text>
<text text-anchor="start" x="172" y="-51.5" font-family="Helvetica,sans-Serif" font-size="10.00">+ addXP()</text>
<text text-anchor="start" x="172" y="-40.5" font-family="Helvetica,sans-Serif" font-size="10.00">+ getAttack()</text>
<text text-anchor="start" x="172" y="-29.5" font-family="Helvetica,sans-Serif" font-size="10.00">+ getArmour()</text>
<text text-anchor="start" x="172" y="-18.5" font-family="Helvetica,sans-Serif" font-size="10.00">+ getInventory()</text>
<text text-anchor="start" x="172" y="-7.5" font-family="Helvetica,sans-Serif" font-size="10.00">+ printStats()</text>
</g>
<!-- Node2 -->
<g id="node2" class="node"><title>Node2</title>
<g id="a_node2"><a xlink:href="class_c_inventory.html" target="_top" xlink:title="{CInventory\n||+ exportData()\l+ addItem()\l+ removeItem()\l+ isInInventory()\l+ isEmpty()\l+ update()\l+ update()\l+ getItemsID()\l}">
<polygon fill="none" stroke="black" points="0,-281.5 0,-415.5 85,-415.5 85,-281.5 0,-281.5"/>
<text text-anchor="middle" x="42.5" y="-403.5" font-family="Helvetica,sans-Serif" font-size="10.00">CInventory</text>
<polyline fill="none" stroke="black" points="0,-396.5 85,-396.5 "/>
<text text-anchor="middle" x="42.5" y="-384.5" font-family="Helvetica,sans-Serif" font-size="10.00"> </text>
<polyline fill="none" stroke="black" points="0,-377.5 85,-377.5 "/>
<text text-anchor="start" x="8" y="-365.5" font-family="Helvetica,sans-Serif" font-size="10.00">+ exportData()</text>
<text text-anchor="start" x="8" y="-354.5" font-family="Helvetica,sans-Serif" font-size="10.00">+ addItem()</text>
<text text-anchor="start" x="8" y="-343.5" font-family="Helvetica,sans-Serif" font-size="10.00">+ removeItem()</text>
<text text-anchor="start" x="8" y="-332.5" font-family="Helvetica,sans-Serif" font-size="10.00">+ isInInventory()</text>
<text text-anchor="start" x="8" y="-321.5" font-family="Helvetica,sans-Serif" font-size="10.00">+ isEmpty()</text>
<text text-anchor="start" x="8" y="-310.5" font-family="Helvetica,sans-Serif" font-size="10.00">+ update()</text>
<text text-anchor="start" x="8" y="-299.5" font-family="Helvetica,sans-Serif" font-size="10.00">+ update()</text>
<text text-anchor="start" x="8" y="-288.5" font-family="Helvetica,sans-Serif" font-size="10.00">+ getItemsID()</text>
</a>
</g>
</g>
<!-- Node2&#45;&gt;Node1 -->
<g id="edge1" class="edge"><title>Node2&#45;&gt;Node1</title>
<path fill="none" stroke="#404040" d="M49.1393,-281.297C51.7921,-271.088 55.4549,-260.97 60.5,-252 82.9105,-212.153 121.573,-177.907 153.898,-154.01"/>
<polygon fill="none" stroke="#404040" points="153.973,-153.957 156.496,-147.201 163.702,-146.932 161.179,-153.687 153.973,-153.957"/>
<text text-anchor="middle" x="84" y="-255" font-family="Helvetica,sans-Serif" font-size="10.00"> #inventory</text>
</g>
<!-- Node3 -->
<g id="node3" class="node"><title>Node3</title>
<polygon fill="none" stroke="#bfbfbf" points="13,-540.5 13,-597.5 72,-597.5 72,-540.5 13,-540.5"/>
<text text-anchor="middle" x="42.5" y="-585.5" font-family="Helvetica,sans-Serif" font-size="10.00">set&lt; int &gt;</text>
<polyline fill="none" stroke="#bfbfbf" points="13,-578.5 72,-578.5 "/>
<text text-anchor="middle" x="42.5" y="-566.5" font-family="Helvetica,sans-Serif" font-size="10.00"> </text>
<polyline fill="none" stroke="#bfbfbf" points="13,-559.5 72,-559.5 "/>
<text text-anchor="middle" x="42.5" y="-547.5" font-family="Helvetica,sans-Serif" font-size="10.00"> </text>
</g>
<!-- Node3&#45;&gt;Node2 -->
<g id="edge2" class="edge"><title>Node3&#45;&gt;Node2</title>
<path fill="none" stroke="#404040" d="M42.5,-540.327C42.5,-512.185 42.5,-467.265 42.5,-428.075"/>
<polygon fill="none" stroke="#404040" points="42.5001,-427.852 38.5,-421.852 42.5,-415.852 46.5,-421.852 42.5001,-427.852"/>
<text text-anchor="middle" x="59" y="-475.5" font-family="Helvetica,sans-Serif" font-size="10.00"> #items</text>
</g>
<!-- Node4 -->
<g id="node4" class="node"><title>Node4</title>
<g id="a_node4"><a xlink:href="struct_hero_stats.html" target="_top" xlink:title="{HeroStats\n||+ exportData()\l+ levelUp()\l}">
<polygon fill="none" stroke="black" points="270,-314.5 270,-382.5 349,-382.5 349,-314.5 270,-314.5"/>
<text text-anchor="middle" x="309.5" y="-370.5" font-family="Helvetica,sans-Serif" font-size="10.00">HeroStats</text>
<polyline fill="none" stroke="black" points="270,-363.5 349,-363.5 "/>
<text text-anchor="middle" x="309.5" y="-351.5" font-family="Helvetica,sans-Serif" font-size="10.00"> </text>
<polyline fill="none" stroke="black" points="270,-344.5 349,-344.5 "/>
<text text-anchor="start" x="278" y="-332.5" font-family="Helvetica,sans-Serif" font-size="10.00">+ exportData()</text>
<text text-anchor="start" x="278" y="-321.5" font-family="Helvetica,sans-Serif" font-size="10.00">+ levelUp()</text>
</a>
</g>
</g>
<!-- Node4&#45;&gt;Node1 -->
<g id="edge3" class="edge"><title>Node4&#45;&gt;Node1</title>
<path fill="none" stroke="#404040" d="M294.959,-314.129C285.593,-292.633 272.806,-263.287 259.977,-233.845"/>
<polygon fill="none" stroke="#404040" points="259.859,-233.574 253.795,-229.671 255.065,-222.573 261.129,-226.475 259.859,-233.574"/>
<text text-anchor="middle" x="287" y="-255" font-family="Helvetica,sans-Serif" font-size="10.00"> #stats</text>
</g>
<!-- Node5 -->
<g id="node5" class="node"><title>Node5</title>
<polygon fill="none" stroke="#bfbfbf" points="190,-540.5 190,-597.5 219,-597.5 219,-540.5 190,-540.5"/>
<text text-anchor="middle" x="204.5" y="-585.5" font-family="Helvetica,sans-Serif" font-size="10.00">int</text>
<polyline fill="none" stroke="#bfbfbf" points="190,-578.5 219,-578.5 "/>
<text text-anchor="middle" x="204.5" y="-566.5" font-family="Helvetica,sans-Serif" font-size="10.00"> </text>
<polyline fill="none" stroke="#bfbfbf" points="190,-559.5 219,-559.5 "/>
<text text-anchor="middle" x="204.5" y="-547.5" font-family="Helvetica,sans-Serif" font-size="10.00"> </text>
</g>
<!-- Node5&#45;&gt;Node1 -->
<g id="edge6" class="edge"><title>Node5&#45;&gt;Node1</title>
<path fill="none" stroke="#404040" d="M189.804,-546.03C171.689,-517.499 141.904,-465.478 130.5,-416 117.024,-357.533 117.076,-339.479 130.5,-281 136.418,-255.218 146.977,-228.781 158.487,-204.902"/>
<polygon fill="none" stroke="#404040" points="158.501,-204.874 157.581,-197.722 163.829,-194.122 164.749,-201.275 158.501,-204.874"/>
<text text-anchor="middle" x="144" y="-346" font-family="Helvetica,sans-Serif" font-size="10.00"> #gold</text>
</g>
<!-- Node5&#45;&gt;Node4 -->
<g id="edge4" class="edge"><title>Node5&#45;&gt;Node4</title>
<path fill="none" stroke="#404040" d="M219.019,-554.798C227.612,-546.232 238.045,-534.389 244.5,-522 263.129,-486.248 252.379,-471.761 266.5,-434 271.539,-420.525 278.149,-406.402 284.67,-393.644"/>
<polygon fill="none" stroke="#404040" points="284.765,-393.463 284.008,-386.292 290.337,-382.834 291.094,-390.006 284.765,-393.463"/>
<text text-anchor="middle" x="293" y="-514" font-family="Helvetica,sans-Serif" font-size="10.00"> +mana</text>
<text text-anchor="middle" x="293" y="-503" font-family="Helvetica,sans-Serif" font-size="10.00">+xp</text>
<text text-anchor="middle" x="293" y="-492" font-family="Helvetica,sans-Serif" font-size="10.00">+attack</text>
<text text-anchor="middle" x="293" y="-481" font-family="Helvetica,sans-Serif" font-size="10.00">+level</text>
<text text-anchor="middle" x="293" y="-470" font-family="Helvetica,sans-Serif" font-size="10.00">+maxHealth</text>
<text text-anchor="middle" x="293" y="-459" font-family="Helvetica,sans-Serif" font-size="10.00">+armour</text>
<text text-anchor="middle" x="293" y="-448" font-family="Helvetica,sans-Serif" font-size="10.00">+health</text>
<text text-anchor="middle" x="293" y="-437" font-family="Helvetica,sans-Serif" font-size="10.00">+strength</text>
</g>
<!-- Node7 -->
<g id="node7" class="node"><title>Node7</title>
<g id="a_node7"><a xlink:href="class_c_equipment.html" target="_top" xlink:title="{CEquipment\n||+ CEquipment()\l+ setAttack()\l+ getAttack()\l+ getArmour()\l+ setArmour()\l}">
<polygon fill="none" stroke="black" points="167,-298 167,-399 252,-399 252,-298 167,-298"/>
<text text-anchor="middle" x="209.5" y="-387" font-family="Helvetica,sans-Serif" font-size="10.00">CEquipment</text>
<polyline fill="none" stroke="black" points="167,-380 252,-380 "/>
<text text-anchor="middle" x="209.5" y="-368" font-family="Helvetica,sans-Serif" font-size="10.00"> </text>
<polyline fill="none" stroke="black" points="167,-361 252,-361 "/>
<text text-anchor="start" x="175" y="-349" font-family="Helvetica,sans-Serif" font-size="10.00">+ CEquipment()</text>
<text text-anchor="start" x="175" y="-338" font-family="Helvetica,sans-Serif" font-size="10.00">+ setAttack()</text>
<text text-anchor="start" x="175" y="-327" font-family="Helvetica,sans-Serif" font-size="10.00">+ getAttack()</text>
<text text-anchor="start" x="175" y="-316" font-family="Helvetica,sans-Serif" font-size="10.00">+ getArmour()</text>
<text text-anchor="start" x="175" y="-305" font-family="Helvetica,sans-Serif" font-size="10.00">+ setArmour()</text>
</a>
</g>
</g>
<!-- Node5&#45;&gt;Node7 -->
<g id="edge8" class="edge"><title>Node5&#45;&gt;Node7</title>
<path fill="none" stroke="#404040" d="M204.385,-540.277C204.349,-513.176 204.494,-470.744 205.5,-434 205.703,-426.581 205.982,-418.799 206.299,-411.086"/>
<polygon fill="none" stroke="#404040" points="206.299,-411.073 202.564,-404.904 206.822,-399.084 210.557,-405.253 206.299,-411.073"/>
<text text-anchor="middle" x="225" y="-481" font-family="Helvetica,sans-Serif" font-size="10.00"> #armour</text>
<text text-anchor="middle" x="225" y="-470" font-family="Helvetica,sans-Serif" font-size="10.00">#attack</text>
</g>
<!-- Node6 -->
<g id="node6" class="node"><title>Node6</title>
<polygon fill="none" stroke="#bfbfbf" points="343,-540.5 343,-597.5 384,-597.5 384,-540.5 343,-540.5"/>
<text text-anchor="middle" x="363.5" y="-585.5" font-family="Helvetica,sans-Serif" font-size="10.00">string</text>
<polyline fill="none" stroke="#bfbfbf" points="343,-578.5 384,-578.5 "/>
<text text-anchor="middle" x="363.5" y="-566.5" font-family="Helvetica,sans-Serif" font-size="10.00"> </text>
<polyline fill="none" stroke="#bfbfbf" points="343,-559.5 384,-559.5 "/>
<text text-anchor="middle" x="363.5" y="-547.5" font-family="Helvetica,sans-Serif" font-size="10.00"> </text>
</g>
<!-- Node6&#45;&gt;Node1 -->
<g id="edge9" class="edge"><title>Node6&#45;&gt;Node1</title>
<path fill="none" stroke="#404040" d="M369.622,-540.409C379.964,-487.461 396.213,-369.051 357.5,-281 336.899,-234.144 297.355,-191.708 264.322,-161.888"/>
<polygon fill="none" stroke="#404040" points="264.187,-161.769 257.043,-160.79 255.198,-153.818 262.343,-154.797 264.187,-161.769"/>
<text text-anchor="middle" x="399" y="-346" font-family="Helvetica,sans-Serif" font-size="10.00"> #name</text>
</g>
<!-- Node6&#45;&gt;Node4 -->
<g id="edge5" class="edge"><title>Node6&#45;&gt;Node4</title>
<path fill="none" stroke="#404040" d="M350.25,-540.146C347.766,-534.243 345.367,-527.986 343.5,-522 330.345,-479.828 321.197,-430.206 315.731,-395.037"/>
<polygon fill="none" stroke="#404040" points="315.671,-394.64 310.821,-389.303 313.882,-382.774 318.732,-388.111 315.671,-394.64"/>
<text text-anchor="middle" x="357.5" y="-475.5" font-family="Helvetica,sans-Serif" font-size="10.00"> +race</text>
</g>
<!-- Node7&#45;&gt;Node1 -->
<g id="edge7" class="edge"><title>Node7&#45;&gt;Node1</title>
<path fill="none" stroke="#404040" d="M209.5,-297.984C209.5,-282.419 209.5,-264.456 209.5,-246.029"/>
<polygon fill="none" stroke="#404040" points="209.5,-245.874 205.5,-239.874 209.5,-233.874 213.5,-239.874 209.5,-245.874"/>
<text text-anchor="middle" x="236.5" y="-255" font-family="Helvetica,sans-Serif" font-size="10.00"> #equipment</text>
</g>
</g>
</svg>
