<?xml version="1.0" encoding="UTF-8" standalone="no"?>
<!DOCTYPE svg PUBLIC "-//W3C//DTD SVG 1.1//EN"
 "http://www.w3.org/Graphics/SVG/1.1/DTD/svg11.dtd">
<!-- Generated by graphviz version 2.38.0 (20140413.2041)
 -->
<!-- Title: CStoryline::getEventCount Pages: 1 -->
<svg width="647pt" height="85pt"
 viewBox="0.00 0.00 647.00 85.00" xmlns="http://www.w3.org/2000/svg" xmlns:xlink="http://www.w3.org/1999/xlink">
<g id="graph0" class="graph" transform="scale(1 1) rotate(0) translate(4 81)">
<title>CStoryline::getEventCount</title>
<!-- Node12 -->
<g id="node1" class="node"><title>Node12</title>
<polygon fill="#bfbfbf" stroke="black" points="0,-19.5 0,-38.5 131,-38.5 131,-19.5 0,-19.5"/>
<text text-anchor="middle" x="65.5" y="-26.5" font-family="Helvetica,sans-Serif" font-size="10.00">CStoryline::getEventCount</text>
</g>
<!-- Node13 -->
<g id="node2" class="node"><title>Node13</title>
<g id="a_node2"><a xlink:href="class_c_game.html#ac0a8028013ca5a7c135c29fa582df4a0" target="_top" xlink:title="CGame::checkHeroStatus">
<polygon fill="none" stroke="black" points="167,-38.5 167,-57.5 298,-57.5 298,-38.5 167,-38.5"/>
<text text-anchor="middle" x="232.5" y="-45.5" font-family="Helvetica,sans-Serif" font-size="10.00">CGame::checkHeroStatus</text>
</a>
</g>
</g>
<!-- Node12&#45;&gt;Node13 -->
<g id="edge1" class="edge"><title>Node12&#45;&gt;Node13</title>
<path fill="none" stroke="midnightblue" d="M141.239,-37.6063C149.821,-38.5945 158.516,-39.5958 166.948,-40.5667"/>
<polygon fill="midnightblue" stroke="midnightblue" points="141.574,-34.1218 131.239,-36.4548 140.773,-41.0758 141.574,-34.1218"/>
</g>
<!-- Node17 -->
<g id="node6" class="node"><title>Node17</title>
<g id="a_node6"><a xlink:href="class_c_interact.html#a9cfd2b170a9bed7f6a5a68b82c83d5bd" target="_top" xlink:title="CInteract::operator()">
<polygon fill="none" stroke="black" points="181,-0.5 181,-19.5 284,-19.5 284,-0.5 181,-0.5"/>
<text text-anchor="middle" x="232.5" y="-7.5" font-family="Helvetica,sans-Serif" font-size="10.00">CInteract::operator()</text>
</a>
</g>
</g>
<!-- Node12&#45;&gt;Node17 -->
<g id="edge6" class="edge"><title>Node12&#45;&gt;Node17</title>
<path fill="none" stroke="midnightblue" d="M141.407,-20.3744C154.803,-18.8318 168.468,-17.2582 180.974,-15.8181"/>
<polygon fill="midnightblue" stroke="midnightblue" points="140.773,-16.9242 131.239,-21.5452 141.574,-23.8782 140.773,-16.9242"/>
</g>
<!-- Node14 -->
<g id="node3" class="node"><title>Node14</title>
<g id="a_node3"><a xlink:href="class_c_game.html#a714b291af5e20aae8be14a905fd0522d" target="_top" xlink:title="CGame::tickComponent">
<polygon fill="none" stroke="black" points="334,-57.5 334,-76.5 455,-76.5 455,-57.5 334,-57.5"/>
<text text-anchor="middle" x="394.5" y="-64.5" font-family="Helvetica,sans-Serif" font-size="10.00">CGame::tickComponent</text>
</a>
</g>
</g>
<!-- Node13&#45;&gt;Node14 -->
<g id="edge2" class="edge"><title>Node13&#45;&gt;Node14</title>
<path fill="none" stroke="midnightblue" d="M308.155,-56.8653C316.759,-57.887 325.446,-58.9186 333.815,-59.9124"/>
<polygon fill="midnightblue" stroke="midnightblue" points="308.46,-53.377 298.117,-55.6733 307.634,-60.3281 308.46,-53.377"/>
</g>
<!-- Node15 -->
<g id="node4" class="node"><title>Node15</title>
<g id="a_node4"><a xlink:href="class_c_game.html#aa9d3da2fefa1c04faefc6586dbd37971" target="_top" xlink:title="CGame::play">
<polygon fill="none" stroke="black" points="491,-38.5 491,-57.5 565,-57.5 565,-38.5 491,-38.5"/>
<text text-anchor="middle" x="528" y="-45.5" font-family="Helvetica,sans-Serif" font-size="10.00">CGame::play</text>
</a>
</g>
</g>
<!-- Node14&#45;&gt;Node15 -->
<g id="edge3" class="edge"><title>Node14&#45;&gt;Node15</title>
<path fill="none" stroke="midnightblue" d="M465.157,-56.9354C474.065,-55.6483 482.878,-54.3751 490.937,-53.2107"/>
<polygon fill="midnightblue" stroke="midnightblue" points="464.491,-53.4953 455.094,-58.3895 465.492,-60.4234 464.491,-53.4953"/>
</g>
<!-- Node15&#45;&gt;Node13 -->
<g id="edge4" class="edge"><title>Node15&#45;&gt;Node13</title>
<path fill="none" stroke="midnightblue" d="M480.926,-48C431.793,-48 353.592,-48 298.273,-48"/>
<polygon fill="midnightblue" stroke="midnightblue" points="480.951,-51.5001 490.951,-48 480.951,-44.5001 480.951,-51.5001"/>
</g>
<!-- Node16 -->
<g id="node5" class="node"><title>Node16</title>
<g id="a_node5"><a xlink:href="main_8cpp.html#ae66f6b31b5ad750f1fe042a706a4e3d4" target="_top" xlink:title="main">
<polygon fill="none" stroke="black" points="601,-38.5 601,-57.5 639,-57.5 639,-38.5 601,-38.5"/>
<text text-anchor="middle" x="620" y="-45.5" font-family="Helvetica,sans-Serif" font-size="10.00">main</text>
</a>
</g>
</g>
<!-- Node15&#45;&gt;Node16 -->
<g id="edge5" class="edge"><title>Node15&#45;&gt;Node16</title>
<path fill="none" stroke="midnightblue" d="M575.326,-48C584.437,-48 593.476,-48 600.946,-48"/>
<polygon fill="midnightblue" stroke="midnightblue" points="575.088,-44.5001 565.088,-48 575.088,-51.5001 575.088,-44.5001"/>
</g>
</g>
</svg>
