<?xml version="1.0" encoding="UTF-8" standalone="no"?>
<!DOCTYPE svg PUBLIC "-//W3C//DTD SVG 1.1//EN"
 "http://www.w3.org/Graphics/SVG/1.1/DTD/svg11.dtd">
<!-- Generated by graphviz version 2.38.0 (20140413.2041)
 -->
<!-- Title: CDisplay::dumpToNewLine Pages: 1 -->
<svg width="1033pt" height="357pt"
 viewBox="0.00 0.00 1033.00 357.00" xmlns="http://www.w3.org/2000/svg" xmlns:xlink="http://www.w3.org/1999/xlink">
<g id="graph0" class="graph" transform="scale(1 1) rotate(0) translate(4 353)">
<title>CDisplay::dumpToNewLine</title>
<!-- Node3 -->
<g id="node1" class="node"><title>Node3</title>
<polygon fill="#bfbfbf" stroke="black" points="0,-95.5 0,-114.5 133,-114.5 133,-95.5 0,-95.5"/>
<text text-anchor="middle" x="66.5" y="-102.5" font-family="Helvetica,sans-Serif" font-size="10.00">CDisplay::dumpToNewLine</text>
</g>
<!-- Node4 -->
<g id="node2" class="node"><title>Node4</title>
<g id="a_node2"><a xlink:href="class_c_display.html#a7d4efb0285d6cdf757bc34e38718e17d" target="_top" xlink:title="CDisplay::multiChoice">
<polygon fill="none" stroke="black" points="314,-253.5 314,-272.5 427,-272.5 427,-253.5 314,-253.5"/>
<text text-anchor="middle" x="370.5" y="-260.5" font-family="Helvetica,sans-Serif" font-size="10.00">CDisplay::multiChoice</text>
</a>
</g>
</g>
<!-- Node3&#45;&gt;Node4 -->
<g id="edge1" class="edge"><title>Node3&#45;&gt;Node4</title>
<path fill="none" stroke="midnightblue" d="M86.342,-121.228C106.048,-137.678 138.325,-163.179 169,-181 229.756,-216.296 248.487,-218.601 314,-244 322.451,-247.277 331.734,-250.571 340.249,-253.476"/>
<polygon fill="midnightblue" stroke="midnightblue" points="88.3631,-118.354 78.4653,-114.574 83.8457,-123.701 88.3631,-118.354"/>
</g>
<!-- Node12 -->
<g id="node10" class="node"><title>Node12</title>
<g id="a_node10"><a xlink:href="class_c_display.html#a1bd3e25973ed15055a68d4db6abfa765" target="_top" xlink:title="CDisplay::getString">
<polygon fill="none" stroke="black" points="173,-152.5 173,-171.5 274,-171.5 274,-152.5 173,-152.5"/>
<text text-anchor="middle" x="223.5" y="-159.5" font-family="Helvetica,sans-Serif" font-size="10.00">CDisplay::getString</text>
</a>
</g>
</g>
<!-- Node3&#45;&gt;Node12 -->
<g id="edge12" class="edge"><title>Node3&#45;&gt;Node12</title>
<path fill="none" stroke="midnightblue" d="M103.029,-118.065C131.52,-128.543 170.847,-143.005 196.472,-152.428"/>
<polygon fill="midnightblue" stroke="midnightblue" points="104.037,-114.707 93.4435,-114.541 101.621,-121.277 104.037,-114.707"/>
</g>
<!-- Node16 -->
<g id="node14" class="node"><title>Node16</title>
<g id="a_node14"><a xlink:href="class_c_inventory_browser.html#a91c51766048ba5629b125b9a444d31bb" target="_top" xlink:title="CInventoryBrowser::\loperator()">
<polygon fill="none" stroke="black" points="319,-90 319,-120 422,-120 422,-90 319,-90"/>
<text text-anchor="start" x="327" y="-108" font-family="Helvetica,sans-Serif" font-size="10.00">CInventoryBrowser::</text>
<text text-anchor="middle" x="370.5" y="-97" font-family="Helvetica,sans-Serif" font-size="10.00">operator()</text>
</a>
</g>
</g>
<!-- Node3&#45;&gt;Node16 -->
<g id="edge26" class="edge"><title>Node3&#45;&gt;Node16</title>
<path fill="none" stroke="midnightblue" d="M143.046,-105C197.856,-105 270.517,-105 318.577,-105"/>
<polygon fill="midnightblue" stroke="midnightblue" points="143.03,-101.5 133.03,-105 143.029,-108.5 143.03,-101.5"/>
</g>
<!-- Node17 -->
<g id="node15" class="node"><title>Node17</title>
<g id="a_node15"><a xlink:href="class_c_shopping.html#ab72dff2e94f897bd5c3f1ef660e65afb" target="_top" xlink:title="CShopping::operator()">
<polygon fill="none" stroke="black" points="315,-51.5 315,-70.5 426,-70.5 426,-51.5 315,-51.5"/>
<text text-anchor="middle" x="370.5" y="-58.5" font-family="Helvetica,sans-Serif" font-size="10.00">CShopping::operator()</text>
</a>
</g>
</g>
<!-- Node3&#45;&gt;Node17 -->
<g id="edge27" class="edge"><title>Node3&#45;&gt;Node17</title>
<path fill="none" stroke="midnightblue" d="M96.2921,-91.3187C116.216,-82.5818 143.614,-71.9896 169,-67 217.693,-57.4294 274.302,-56.6545 314.926,-57.8486"/>
<polygon fill="midnightblue" stroke="midnightblue" points="94.8393,-88.1343 87.1529,-95.426 97.7088,-94.5191 94.8393,-88.1343"/>
</g>
<!-- Node18 -->
<g id="node16" class="node"><title>Node18</title>
<g id="a_node16"><a xlink:href="class_c_display.html#af552459e3405bb18e1dd879f7fdc9606" target="_top" xlink:title="CDisplay::getNumber">
<polygon fill="none" stroke="black" points="169,-76.5 169,-95.5 278,-95.5 278,-76.5 169,-76.5"/>
<text text-anchor="middle" x="223.5" y="-83.5" font-family="Helvetica,sans-Serif" font-size="10.00">CDisplay::getNumber</text>
</a>
</g>
</g>
<!-- Node3&#45;&gt;Node18 -->
<g id="edge21" class="edge"><title>Node3&#45;&gt;Node18</title>
<path fill="none" stroke="midnightblue" d="M143.323,-95.7056C151.95,-94.6481 160.605,-93.5872 168.859,-92.5753"/>
<polygon fill="midnightblue" stroke="midnightblue" points="142.734,-92.2515 133.234,-96.9423 143.586,-99.1995 142.734,-92.2515"/>
</g>
<!-- Node19 -->
<g id="node17" class="node"><title>Node19</title>
<g id="a_node17"><a xlink:href="class_c_display.html#a3af2fc29db30feeabc68ffea6fb8c13a" target="_top" xlink:title="CDisplay::wait">
<polygon fill="none" stroke="black" points="184,-0.5 184,-19.5 263,-19.5 263,-0.5 184,-0.5"/>
<text text-anchor="middle" x="223.5" y="-7.5" font-family="Helvetica,sans-Serif" font-size="10.00">CDisplay::wait</text>
</a>
</g>
</g>
<!-- Node3&#45;&gt;Node19 -->
<g id="edge24" class="edge"><title>Node3&#45;&gt;Node19</title>
<path fill="none" stroke="midnightblue" d="M87.5383,-89.2786C107.493,-74.0396 139.346,-50.8232 169,-34 178.386,-28.6754 189.171,-23.6455 198.588,-19.5791"/>
<polygon fill="midnightblue" stroke="midnightblue" points="85.2875,-86.5945 79.5067,-95.4732 89.5626,-92.1374 85.2875,-86.5945"/>
</g>
<!-- Node5 -->
<g id="node3" class="node"><title>Node5</title>
<g id="a_node3"><a xlink:href="class_c_choice.html#aeccaa71a8fcd358215fe0ddbc37ab143" target="_top" xlink:title="CChoice::execute">
<polygon fill="none" stroke="black" points="466.5,-329.5 466.5,-348.5 560.5,-348.5 560.5,-329.5 466.5,-329.5"/>
<text text-anchor="middle" x="513.5" y="-336.5" font-family="Helvetica,sans-Serif" font-size="10.00">CChoice::execute</text>
</a>
</g>
</g>
<!-- Node4&#45;&gt;Node5 -->
<g id="edge2" class="edge"><title>Node4&#45;&gt;Node5</title>
<path fill="none" stroke="midnightblue" d="M393.625,-278.454C411.74,-290.693 438.316,-307.715 463,-320 469.922,-323.445 477.631,-326.675 484.865,-329.46"/>
<polygon fill="midnightblue" stroke="midnightblue" points="395.207,-275.296 384.977,-272.54 391.256,-281.074 395.207,-275.296"/>
</g>
<!-- Node6 -->
<g id="node4" class="node"><title>Node6</title>
<g id="a_node4"><a xlink:href="class_c_fight.html#ac820b62e70990ddc90ecb959f4497f8f" target="_top" xlink:title="CFight::execute">
<polygon fill="none" stroke="black" points="470.5,-291.5 470.5,-310.5 556.5,-310.5 556.5,-291.5 470.5,-291.5"/>
<text text-anchor="middle" x="513.5" y="-298.5" font-family="Helvetica,sans-Serif" font-size="10.00">CFight::execute</text>
</a>
</g>
</g>
<!-- Node4&#45;&gt;Node6 -->
<g id="edge3" class="edge"><title>Node4&#45;&gt;Node6</title>
<path fill="none" stroke="midnightblue" d="M416.94,-275.246C436.375,-280.484 458.731,-286.509 476.931,-291.414"/>
<polygon fill="midnightblue" stroke="midnightblue" points="417.647,-271.812 407.08,-272.589 415.825,-278.571 417.647,-271.812"/>
</g>
<!-- Node7 -->
<g id="node5" class="node"><title>Node7</title>
<g id="a_node5"><a xlink:href="class_c_game.html#a39e1e296c6dcabbf5c824eea6424d6d9" target="_top" xlink:title="CGame::mainMenu">
<polygon fill="none" stroke="black" points="463,-215.5 463,-234.5 564,-234.5 564,-215.5 463,-215.5"/>
<text text-anchor="middle" x="513.5" y="-222.5" font-family="Helvetica,sans-Serif" font-size="10.00">CGame::mainMenu</text>
</a>
</g>
</g>
<!-- Node4&#45;&gt;Node7 -->
<g id="edge4" class="edge"><title>Node4&#45;&gt;Node7</title>
<path fill="none" stroke="midnightblue" d="M416.94,-250.754C436.375,-245.516 458.731,-239.491 476.931,-234.586"/>
<polygon fill="midnightblue" stroke="midnightblue" points="415.825,-247.429 407.08,-253.411 417.647,-254.188 415.825,-247.429"/>
</g>
<!-- Node10 -->
<g id="node8" class="node"><title>Node10</title>
<g id="a_node8"><a xlink:href="class_c_game.html#a714b291af5e20aae8be14a905fd0522d" target="_top" xlink:title="CGame::tickComponent">
<polygon fill="none" stroke="black" points="904,-139.5 904,-158.5 1025,-158.5 1025,-139.5 904,-139.5"/>
<text text-anchor="middle" x="964.5" y="-146.5" font-family="Helvetica,sans-Serif" font-size="10.00">CGame::tickComponent</text>
</a>
</g>
</g>
<!-- Node4&#45;&gt;Node10 -->
<g id="edge11" class="edge"><title>Node4&#45;&gt;Node10</title>
<path fill="none" stroke="midnightblue" d="M437.192,-272.329C535.339,-283.369 724.1,-293.27 868,-232 907.007,-215.392 941.479,-176.65 956.083,-158.588"/>
<polygon fill="midnightblue" stroke="midnightblue" points="437.456,-268.836 427.119,-271.155 436.646,-275.789 437.456,-268.836"/>
</g>
<!-- Node8 -->
<g id="node6" class="node"><title>Node8</title>
<g id="a_node6"><a xlink:href="class_c_game.html#aa9d3da2fefa1c04faefc6586dbd37971" target="_top" xlink:title="CGame::play">
<polygon fill="none" stroke="black" points="613.5,-158.5 613.5,-177.5 687.5,-177.5 687.5,-158.5 613.5,-158.5"/>
<text text-anchor="middle" x="650.5" y="-165.5" font-family="Helvetica,sans-Serif" font-size="10.00">CGame::play</text>
</a>
</g>
</g>
<!-- Node7&#45;&gt;Node8 -->
<g id="edge5" class="edge"><title>Node7&#45;&gt;Node8</title>
<path fill="none" stroke="midnightblue" d="M546.425,-211.521C571.155,-201.079 604.804,-186.871 626.83,-177.572"/>
<polygon fill="midnightblue" stroke="midnightblue" points="544.947,-208.345 537.096,-215.459 547.67,-214.794 544.947,-208.345"/>
</g>
<!-- Node7&#45;&gt;Node10 -->
<g id="edge10" class="edge"><title>Node7&#45;&gt;Node10</title>
<path fill="none" stroke="midnightblue" d="M574.277,-230.369C645.808,-234.859 768.401,-236.363 868,-206 901.06,-195.922 934.578,-172.069 951.751,-158.633"/>
<polygon fill="midnightblue" stroke="midnightblue" points="574.314,-226.864 564.103,-229.689 573.847,-233.849 574.314,-226.864"/>
</g>
<!-- Node9 -->
<g id="node7" class="node"><title>Node9</title>
<g id="a_node7"><a xlink:href="class_c_game.html#ac0a8028013ca5a7c135c29fa582df4a0" target="_top" xlink:title="CGame::checkHeroStatus">
<polygon fill="none" stroke="black" points="737,-139.5 737,-158.5 868,-158.5 868,-139.5 737,-139.5"/>
<text text-anchor="middle" x="802.5" y="-146.5" font-family="Helvetica,sans-Serif" font-size="10.00">CGame::checkHeroStatus</text>
</a>
</g>
</g>
<!-- Node8&#45;&gt;Node9 -->
<g id="edge6" class="edge"><title>Node8&#45;&gt;Node9</title>
<path fill="none" stroke="midnightblue" d="M697.842,-162.13C710.167,-160.569 723.707,-158.854 736.819,-157.193"/>
<polygon fill="midnightblue" stroke="midnightblue" points="697.292,-158.672 687.811,-163.401 698.171,-165.616 697.292,-158.672"/>
</g>
<!-- Node11 -->
<g id="node9" class="node"><title>Node11</title>
<g id="a_node9"><a xlink:href="main_8cpp.html#ae66f6b31b5ad750f1fe042a706a4e3d4" target="_top" xlink:title="main">
<polygon fill="none" stroke="black" points="783.5,-177.5 783.5,-196.5 821.5,-196.5 821.5,-177.5 783.5,-177.5"/>
<text text-anchor="middle" x="802.5" y="-184.5" font-family="Helvetica,sans-Serif" font-size="10.00">main</text>
</a>
</g>
</g>
<!-- Node8&#45;&gt;Node11 -->
<g id="edge9" class="edge"><title>Node8&#45;&gt;Node11</title>
<path fill="none" stroke="midnightblue" d="M698.086,-173.901C726.885,-177.549 762.244,-182.028 783.266,-184.69"/>
<polygon fill="midnightblue" stroke="midnightblue" points="698.171,-170.384 687.811,-172.599 697.292,-177.328 698.171,-170.384"/>
</g>
<!-- Node9&#45;&gt;Node10 -->
<g id="edge7" class="edge"><title>Node9&#45;&gt;Node10</title>
<path fill="none" stroke="midnightblue" d="M878.155,-149C886.759,-149 895.446,-149 903.815,-149"/>
<polygon fill="midnightblue" stroke="midnightblue" points="878.117,-145.5 868.117,-149 878.117,-152.5 878.117,-145.5"/>
</g>
<!-- Node10&#45;&gt;Node8 -->
<g id="edge8" class="edge"><title>Node10&#45;&gt;Node8</title>
<path fill="none" stroke="midnightblue" d="M917.002,-137.269C870.864,-127.456 798.367,-116.977 737,-130 711.417,-135.429 684.196,-149.059 667.515,-158.428"/>
<polygon fill="midnightblue" stroke="midnightblue" points="916.483,-140.739 927.002,-139.474 917.99,-133.903 916.483,-140.739"/>
</g>
<!-- Node13 -->
<g id="node11" class="node"><title>Node13</title>
<g id="a_node11"><a xlink:href="class_c_game.html#a21a30939333b2c98f607d9bd2927d105" target="_top" xlink:title="CGame::createHero">
<polygon fill="none" stroke="black" points="319,-177.5 319,-196.5 422,-196.5 422,-177.5 319,-177.5"/>
<text text-anchor="middle" x="370.5" y="-184.5" font-family="Helvetica,sans-Serif" font-size="10.00">CGame::createHero</text>
</a>
</g>
</g>
<!-- Node12&#45;&gt;Node13 -->
<g id="edge13" class="edge"><title>Node12&#45;&gt;Node13</title>
<path fill="none" stroke="midnightblue" d="M284.259,-172.303C295.637,-174.265 307.448,-176.301 318.522,-178.211"/>
<polygon fill="midnightblue" stroke="midnightblue" points="284.85,-168.854 274.401,-170.604 283.661,-175.752 284.85,-168.854"/>
</g>
<!-- Node14 -->
<g id="node12" class="node"><title>Node14</title>
<g id="a_node12"><a xlink:href="class_c_game.html#accda079824fc813cbd64b4743846ae24" target="_top" xlink:title="CGame::loadGame">
<polygon fill="none" stroke="black" points="320.5,-215.5 320.5,-234.5 420.5,-234.5 420.5,-215.5 320.5,-215.5"/>
<text text-anchor="middle" x="370.5" y="-222.5" font-family="Helvetica,sans-Serif" font-size="10.00">CGame::loadGame</text>
</a>
</g>
</g>
<!-- Node12&#45;&gt;Node14 -->
<g id="edge15" class="edge"><title>Node12&#45;&gt;Node14</title>
<path fill="none" stroke="midnightblue" d="M251.444,-176.363C268.999,-185.441 292.546,-197.096 314,-206 322.09,-209.357 331.007,-212.603 339.284,-215.433"/>
<polygon fill="midnightblue" stroke="midnightblue" points="252.844,-173.146 242.359,-171.619 249.603,-179.35 252.844,-173.146"/>
</g>
<!-- Node15 -->
<g id="node13" class="node"><title>Node15</title>
<g id="a_node13"><a xlink:href="class_c_game.html#a49656fe4404b3df63f2dbebd9b754edd" target="_top" xlink:title="CGame::saveGame">
<polygon fill="none" stroke="black" points="600,-82.5 600,-101.5 701,-101.5 701,-82.5 600,-82.5"/>
<text text-anchor="middle" x="650.5" y="-89.5" font-family="Helvetica,sans-Serif" font-size="10.00">CGame::saveGame</text>
</a>
</g>
</g>
<!-- Node12&#45;&gt;Node15 -->
<g id="edge17" class="edge"><title>Node12&#45;&gt;Node15</title>
<path fill="none" stroke="midnightblue" d="M283.965,-152.361C324.321,-145.807 378.884,-136.921 427,-129 486.311,-119.236 554.491,-107.878 599.58,-100.349"/>
<polygon fill="midnightblue" stroke="midnightblue" points="283.334,-148.918 274.024,-153.975 284.456,-155.828 283.334,-148.918"/>
</g>
<!-- Node12&#45;&gt;Node16 -->
<g id="edge19" class="edge"><title>Node12&#45;&gt;Node16</title>
<path fill="none" stroke="midnightblue" d="M258.287,-148.718C280.113,-140.138 308.562,-128.955 331.223,-120.047"/>
<polygon fill="midnightblue" stroke="midnightblue" points="256.796,-145.544 248.77,-152.459 259.357,-152.058 256.796,-145.544"/>
</g>
<!-- Node12&#45;&gt;Node17 -->
<g id="edge20" class="edge"><title>Node12&#45;&gt;Node17</title>
<path fill="none" stroke="midnightblue" d="M239.385,-144.643C255.944,-126.298 284.3,-97.6324 314,-80 320.305,-76.2566 327.454,-73.116 334.473,-70.5351"/>
<polygon fill="midnightblue" stroke="midnightblue" points="236.645,-142.458 232.645,-152.268 241.89,-147.094 236.645,-142.458"/>
</g>
<!-- Node13&#45;&gt;Node7 -->
<g id="edge14" class="edge"><title>Node13&#45;&gt;Node7</title>
<path fill="none" stroke="midnightblue" d="M416.94,-199.246C436.375,-204.484 458.731,-210.509 476.931,-215.414"/>
<polygon fill="midnightblue" stroke="midnightblue" points="417.647,-195.812 407.08,-196.589 415.825,-202.571 417.647,-195.812"/>
</g>
<!-- Node14&#45;&gt;Node7 -->
<g id="edge16" class="edge"><title>Node14&#45;&gt;Node7</title>
<path fill="none" stroke="midnightblue" d="M430.912,-225C441.589,-225 452.614,-225 462.975,-225"/>
<polygon fill="midnightblue" stroke="midnightblue" points="430.815,-221.5 420.815,-225 430.815,-228.5 430.815,-221.5"/>
</g>
<!-- Node15&#45;&gt;Node10 -->
<g id="edge18" class="edge"><title>Node15&#45;&gt;Node10</title>
<path fill="none" stroke="midnightblue" d="M711.518,-97.0595C755.228,-101.398 815.687,-108.756 868,-120 891.378,-125.025 917.303,-133.059 936.235,-139.399"/>
<polygon fill="midnightblue" stroke="midnightblue" points="711.632,-93.5543 701.341,-96.0738 710.957,-100.522 711.632,-93.5543"/>
</g>
<!-- Node18&#45;&gt;Node16 -->
<g id="edge22" class="edge"><title>Node18&#45;&gt;Node16</title>
<path fill="none" stroke="midnightblue" d="M288.143,-94.3394C298.314,-95.6722 308.721,-97.0359 318.547,-98.3234"/>
<polygon fill="midnightblue" stroke="midnightblue" points="288.451,-90.8499 278.081,-93.0209 287.541,-97.7906 288.451,-90.8499"/>
</g>
<!-- Node18&#45;&gt;Node17 -->
<g id="edge23" class="edge"><title>Node18&#45;&gt;Node17</title>
<path fill="none" stroke="midnightblue" d="M288.011,-75.0498C296.901,-73.517 305.974,-71.9527 314.685,-70.4509"/>
<polygon fill="midnightblue" stroke="midnightblue" points="287.341,-71.6137 278.081,-76.762 288.53,-78.5119 287.341,-71.6137"/>
</g>
<!-- Node20 -->
<g id="node18" class="node"><title>Node20</title>
<g id="a_node18"><a xlink:href="class_c_interact.html#a9cfd2b170a9bed7f6a5a68b82c83d5bd" target="_top" xlink:title="CInteract::operator()">
<polygon fill="none" stroke="black" points="319,-0.5 319,-19.5 422,-19.5 422,-0.5 319,-0.5"/>
<text text-anchor="middle" x="370.5" y="-7.5" font-family="Helvetica,sans-Serif" font-size="10.00">CInteract::operator()</text>
</a>
</g>
</g>
<!-- Node19&#45;&gt;Node20 -->
<g id="edge25" class="edge"><title>Node19&#45;&gt;Node20</title>
<path fill="none" stroke="midnightblue" d="M273.661,-10C288.205,-10 304.151,-10 318.791,-10"/>
<polygon fill="midnightblue" stroke="midnightblue" points="273.357,-6.5001 263.357,-10 273.357,-13.5001 273.357,-6.5001"/>
</g>
</g>
</svg>
