<?xml version="1.0" encoding="UTF-8" standalone="no"?>
<!DOCTYPE svg PUBLIC "-//W3C//DTD SVG 1.1//EN"
 "http://www.w3.org/Graphics/SVG/1.1/DTD/svg11.dtd">
<!-- Generated by graphviz version 2.38.0 (20140413.2041)
 -->
<!-- Title: CTrap Pages: 1 -->
<svg width="163pt" height="343pt"
 viewBox="0.00 0.00 163.00 343.00" xmlns="http://www.w3.org/2000/svg" xmlns:xlink="http://www.w3.org/1999/xlink">
<g id="graph0" class="graph" transform="scale(1 1) rotate(0) translate(4 339)">
<title>CTrap</title>
<!-- Node2 -->
<g id="node1" class="node"><title>Node2</title>
<polygon fill="#bfbfbf" stroke="black" points="0,-0.5 0,-90.5 66,-90.5 66,-0.5 0,-0.5"/>
<text text-anchor="middle" x="33" y="-78.5" font-family="Helvetica,sans-Serif" font-size="10.00">CTrap</text>
<polyline fill="none" stroke="black" points="0,-71.5 66,-71.5 "/>
<text text-anchor="middle" x="33" y="-59.5" font-family="Helvetica,sans-Serif" font-size="10.00"> </text>
<polyline fill="none" stroke="black" points="0,-52.5 66,-52.5 "/>
<text text-anchor="start" x="8" y="-40.5" font-family="Helvetica,sans-Serif" font-size="10.00">+ CTrap()</text>
<text text-anchor="start" x="8" y="-29.5" font-family="Helvetica,sans-Serif" font-size="10.00">+ CTrap()</text>
<text text-anchor="start" x="8" y="-18.5" font-family="Helvetica,sans-Serif" font-size="10.00">+ print()</text>
<text text-anchor="start" x="8" y="-7.5" font-family="Helvetica,sans-Serif" font-size="10.00">+ execute()</text>
</g>
<!-- Node3 -->
<g id="node2" class="node"><title>Node3</title>
<g id="a_node2"><a xlink:href="class_c_event.html" target="_top" xlink:title="{CEvent\n||+ CEvent()\l+ ~CEvent()\l+ print()\l+ execute()\l}">
<polygon fill="none" stroke="black" points="64,-128.5 64,-218.5 132,-218.5 132,-128.5 64,-128.5"/>
<text text-anchor="middle" x="98" y="-206.5" font-family="Helvetica,sans-Serif" font-size="10.00">CEvent</text>
<polyline fill="none" stroke="black" points="64,-199.5 132,-199.5 "/>
<text text-anchor="middle" x="98" y="-187.5" font-family="Helvetica,sans-Serif" font-size="10.00"> </text>
<polyline fill="none" stroke="black" points="64,-180.5 132,-180.5 "/>
<text text-anchor="start" x="72" y="-168.5" font-family="Helvetica,sans-Serif" font-size="10.00">+ CEvent()</text>
<text text-anchor="start" x="72" y="-157.5" font-family="Helvetica,sans-Serif" font-size="10.00">+ ~CEvent()</text>
<text text-anchor="start" x="72" y="-146.5" font-family="Helvetica,sans-Serif" font-size="10.00">+ print()</text>
<text text-anchor="start" x="72" y="-135.5" font-family="Helvetica,sans-Serif" font-size="10.00">+ execute()</text>
</a>
</g>
</g>
<!-- Node3&#45;&gt;Node2 -->
<g id="edge1" class="edge"><title>Node3&#45;&gt;Node2</title>
<path fill="none" stroke="midnightblue" d="M70.6115,-119.408C65.6894,-109.867 60.6069,-100.015 55.8309,-90.7568"/>
<polygon fill="none" stroke="midnightblue" points="67.571,-121.149 75.2662,-128.431 73.792,-117.94 67.571,-121.149"/>
</g>
<!-- Node4 -->
<g id="node3" class="node"><title>Node4</title>
<polygon fill="none" stroke="#bfbfbf" points="4.5,-277.5 4.5,-334.5 33.5,-334.5 33.5,-277.5 4.5,-277.5"/>
<text text-anchor="middle" x="19" y="-322.5" font-family="Helvetica,sans-Serif" font-size="10.00">int</text>
<polyline fill="none" stroke="#bfbfbf" points="4.5,-315.5 33.5,-315.5 "/>
<text text-anchor="middle" x="19" y="-303.5" font-family="Helvetica,sans-Serif" font-size="10.00"> </text>
<polyline fill="none" stroke="#bfbfbf" points="4.5,-296.5 33.5,-296.5 "/>
<text text-anchor="middle" x="19" y="-284.5" font-family="Helvetica,sans-Serif" font-size="10.00"> </text>
</g>
<!-- Node4&#45;&gt;Node2 -->
<g id="edge4" class="edge"><title>Node4&#45;&gt;Node2</title>
<path fill="none" stroke="#404040" d="M15.085,-277.285C10.7945,-242.338 5.34798,-180.476 12,-128 13.0616,-119.625 14.7136,-110.88 16.6354,-102.358"/>
<polygon fill="none" stroke="#404040" points="16.6775,-102.183 14.2002,-95.4108 19.4987,-90.5193 21.976,-97.2915 16.6775,-102.183"/>
<text text-anchor="middle" x="33.5" y="-171" font-family="Helvetica,sans-Serif" font-size="10.00"> #damage</text>
</g>
<!-- Node4&#45;&gt;Node3 -->
<g id="edge2" class="edge"><title>Node4&#45;&gt;Node3</title>
<path fill="none" stroke="#404040" d="M32.1241,-277.396C38.3631,-264.849 46.1611,-249.948 54,-237 55.5935,-234.368 57.2593,-231.7 58.9713,-229.024"/>
<polygon fill="none" stroke="#404040" points="59.1524,-228.748 59.1084,-221.537 65.7477,-218.723 65.7918,-225.934 59.1524,-228.748"/>
<text text-anchor="middle" x="74" y="-245.5" font-family="Helvetica,sans-Serif" font-size="10.00"> #eventID</text>
</g>
<!-- Node5 -->
<g id="node4" class="node"><title>Node5</title>
<polygon fill="none" stroke="#bfbfbf" points="78.5,-277.5 78.5,-334.5 119.5,-334.5 119.5,-277.5 78.5,-277.5"/>
<text text-anchor="middle" x="99" y="-322.5" font-family="Helvetica,sans-Serif" font-size="10.00">string</text>
<polyline fill="none" stroke="#bfbfbf" points="78.5,-315.5 119.5,-315.5 "/>
<text text-anchor="middle" x="99" y="-303.5" font-family="Helvetica,sans-Serif" font-size="10.00"> </text>
<polyline fill="none" stroke="#bfbfbf" points="78.5,-296.5 119.5,-296.5 "/>
<text text-anchor="middle" x="99" y="-284.5" font-family="Helvetica,sans-Serif" font-size="10.00"> </text>
</g>
<!-- Node5&#45;&gt;Node3 -->
<g id="edge3" class="edge"><title>Node5&#45;&gt;Node3</title>
<path fill="none" stroke="#404040" d="M98.7879,-277.324C98.6838,-263.731 98.5543,-246.837 98.4306,-230.696"/>
<polygon fill="none" stroke="#404040" points="98.4297,-230.567 94.3838,-224.598 98.3377,-218.568 102.384,-224.537 98.4297,-230.567"/>
<text text-anchor="middle" x="126.5" y="-251" font-family="Helvetica,sans-Serif" font-size="10.00"> #eventName</text>
<text text-anchor="middle" x="126.5" y="-240" font-family="Helvetica,sans-Serif" font-size="10.00">#text</text>
</g>
</g>
</svg>
