<?xml version="1.0" encoding="UTF-8" standalone="no"?>
<!DOCTYPE svg PUBLIC "-//W3C//DTD SVG 1.1//EN"
 "http://www.w3.org/Graphics/SVG/1.1/DTD/svg11.dtd">
<!-- Generated by graphviz version 2.38.0 (20140413.2041)
 -->
<!-- Title: CGame::exportPlayerData Pages: 1 -->
<svg width="447pt" height="142pt"
 viewBox="0.00 0.00 447.00 142.00" xmlns="http://www.w3.org/2000/svg" xmlns:xlink="http://www.w3.org/1999/xlink">
<g id="graph0" class="graph" transform="scale(1 1) rotate(0) translate(4 138)">
<title>CGame::exportPlayerData</title>
<!-- Node97 -->
<g id="node1" class="node"><title>Node97</title>
<polygon fill="#bfbfbf" stroke="black" points="0,-38.5 0,-57.5 131,-57.5 131,-38.5 0,-38.5"/>
<text text-anchor="middle" x="65.5" y="-45.5" font-family="Helvetica,sans-Serif" font-size="10.00">CGame::exportPlayerData</text>
</g>
<!-- Node98 -->
<g id="node2" class="node"><title>Node98</title>
<g id="a_node2"><a xlink:href="class_c_hero.html#a1593ac4dfc01368e99b2b82a21c3c6ed" target="_top" xlink:title="CHero::exportData">
<polygon fill="none" stroke="black" points="176,-57.5 176,-76.5 273,-76.5 273,-57.5 176,-57.5"/>
<text text-anchor="middle" x="224.5" y="-64.5" font-family="Helvetica,sans-Serif" font-size="10.00">CHero::exportData</text>
</a>
</g>
</g>
<!-- Node97&#45;&gt;Node98 -->
<g id="edge1" class="edge"><title>Node97&#45;&gt;Node98</title>
<path fill="none" stroke="midnightblue" d="M131.264,-55.8377C142.646,-57.2152 154.426,-58.6407 165.606,-59.9937"/>
<polygon fill="midnightblue" stroke="midnightblue" points="165.327,-63.4854 175.675,-61.2123 166.168,-56.5361 165.327,-63.4854"/>
</g>
<!-- Node103 -->
<g id="node7" class="node"><title>Node103</title>
<g id="a_node7"><a xlink:href="class_c_storyline.html#aa8cb69bd93260855dc0221d901b1bd07" target="_top" xlink:title="CStoryline::exportData">
<polygon fill="none" stroke="black" points="167,-19.5 167,-38.5 282,-38.5 282,-19.5 167,-19.5"/>
<text text-anchor="middle" x="224.5" y="-26.5" font-family="Helvetica,sans-Serif" font-size="10.00">CStoryline::exportData</text>
</a>
</g>
</g>
<!-- Node97&#45;&gt;Node103 -->
<g id="edge6" class="edge"><title>Node97&#45;&gt;Node103</title>
<path fill="none" stroke="midnightblue" d="M131.264,-40.1623C139.672,-39.1448 148.296,-38.1012 156.735,-37.0799"/>
<polygon fill="midnightblue" stroke="midnightblue" points="157.402,-40.5247 166.91,-35.8485 156.561,-33.5754 157.402,-40.5247"/>
</g>
<!-- Node99 -->
<g id="node3" class="node"><title>Node99</title>
<g id="a_node3"><a xlink:href="struct_hero_stats.html#a9580a49eab11c0babd042b6e7e551e4e" target="_top" xlink:title="HeroStats::exportData">
<polygon fill="none" stroke="black" points="322,-114.5 322,-133.5 435,-133.5 435,-114.5 322,-114.5"/>
<text text-anchor="middle" x="378.5" y="-121.5" font-family="Helvetica,sans-Serif" font-size="10.00">HeroStats::exportData</text>
</a>
</g>
</g>
<!-- Node98&#45;&gt;Node99 -->
<g id="edge2" class="edge"><title>Node98&#45;&gt;Node99</title>
<path fill="none" stroke="midnightblue" d="M247.359,-76.5639C265.98,-84.5701 293.532,-96.0839 318,-105 323.884,-107.144 330.141,-109.288 336.303,-111.322"/>
<polygon fill="midnightblue" stroke="midnightblue" points="335.25,-114.66 345.842,-114.413 337.408,-108.001 335.25,-114.66"/>
</g>
<!-- Node100 -->
<g id="node4" class="node"><title>Node100</title>
<g id="a_node4"><a xlink:href="class_c_equipment.html#a6b27732ece0ab3c74bff006093dc5a7d" target="_top" xlink:title="CEquipment::getAttack">
<polygon fill="none" stroke="black" points="319.5,-76.5 319.5,-95.5 437.5,-95.5 437.5,-76.5 319.5,-76.5"/>
<text text-anchor="middle" x="378.5" y="-83.5" font-family="Helvetica,sans-Serif" font-size="10.00">CEquipment::getAttack</text>
</a>
</g>
</g>
<!-- Node98&#45;&gt;Node100 -->
<g id="edge3" class="edge"><title>Node98&#45;&gt;Node100</title>
<path fill="none" stroke="midnightblue" d="M273.177,-72.9596C284.604,-74.388 297.028,-75.941 309.187,-77.4608"/>
<polygon fill="midnightblue" stroke="midnightblue" points="308.953,-80.9588 319.31,-78.7263 309.821,-74.0129 308.953,-80.9588"/>
</g>
<!-- Node101 -->
<g id="node5" class="node"><title>Node101</title>
<g id="a_node5"><a xlink:href="class_c_equipment.html#a27e962aead56bb39886acc86c17b7478" target="_top" xlink:title="CEquipment::getArmour">
<polygon fill="none" stroke="black" points="318,-38.5 318,-57.5 439,-57.5 439,-38.5 318,-38.5"/>
<text text-anchor="middle" x="378.5" y="-45.5" font-family="Helvetica,sans-Serif" font-size="10.00">CEquipment::getArmour</text>
</a>
</g>
</g>
<!-- Node98&#45;&gt;Node101 -->
<g id="edge4" class="edge"><title>Node98&#45;&gt;Node101</title>
<path fill="none" stroke="midnightblue" d="M273.177,-61.0404C284.153,-59.6684 296.049,-58.1814 307.746,-56.7193"/>
<polygon fill="midnightblue" stroke="midnightblue" points="308.458,-60.1576 317.946,-55.4442 307.589,-53.2117 308.458,-60.1576"/>
</g>
<!-- Node102 -->
<g id="node6" class="node"><title>Node102</title>
<g id="a_node6"><a xlink:href="class_c_inventory.html#aaf1332bfb30866845bbcae69e411e4bc" target="_top" xlink:title="CInventory::exportData">
<polygon fill="none" stroke="black" points="321,-0.5 321,-19.5 436,-19.5 436,-0.5 321,-0.5"/>
<text text-anchor="middle" x="378.5" y="-7.5" font-family="Helvetica,sans-Serif" font-size="10.00">CInventory::exportData</text>
</a>
</g>
</g>
<!-- Node98&#45;&gt;Node102 -->
<g id="edge5" class="edge"><title>Node98&#45;&gt;Node102</title>
<path fill="none" stroke="midnightblue" d="M256.923,-57.4332C265.181,-54.6484 274.01,-51.4253 282,-48 298.628,-40.8713 301.318,-36.0012 318,-29 323.187,-26.8231 328.715,-24.7483 334.233,-22.8236"/>
<polygon fill="midnightblue" stroke="midnightblue" points="335.704,-26.0222 344.078,-19.5316 333.484,-19.3835 335.704,-26.0222"/>
</g>
</g>
</svg>
