<?xml version="1.0" encoding="UTF-8" standalone="no"?>
<!DOCTYPE svg PUBLIC "-//W3C//DTD SVG 1.1//EN"
 "http://www.w3.org/Graphics/SVG/1.1/DTD/svg11.dtd">
<!-- Generated by graphviz version 2.38.0 (20140413.2041)
 -->
<!-- Title: CCreature Pages: 1 -->
<svg width="120pt" height="259pt"
 viewBox="0.00 0.00 119.50 259.00" xmlns="http://www.w3.org/2000/svg" xmlns:xlink="http://www.w3.org/1999/xlink">
<g id="graph0" class="graph" transform="scale(1 1) rotate(0) translate(4 255)">
<title>CCreature</title>
<!-- Node1 -->
<g id="node1" class="node"><title>Node1</title>
<polygon fill="#bfbfbf" stroke="black" points="14,-0.5 14,-123.5 91,-123.5 91,-0.5 14,-0.5"/>
<text text-anchor="middle" x="52.5" y="-111.5" font-family="Helvetica,sans-Serif" font-size="10.00">CCreature</text>
<polyline fill="none" stroke="black" points="14,-104.5 91,-104.5 "/>
<text text-anchor="middle" x="52.5" y="-92.5" font-family="Helvetica,sans-Serif" font-size="10.00"> </text>
<polyline fill="none" stroke="black" points="14,-85.5 91,-85.5 "/>
<text text-anchor="start" x="22" y="-73.5" font-family="Helvetica,sans-Serif" font-size="10.00">+ CCreature()</text>
<text text-anchor="start" x="22" y="-62.5" font-family="Helvetica,sans-Serif" font-size="10.00">+ getName()</text>
<text text-anchor="start" x="22" y="-51.5" font-family="Helvetica,sans-Serif" font-size="10.00">+ getText()</text>
<text text-anchor="start" x="22" y="-40.5" font-family="Helvetica,sans-Serif" font-size="10.00">+ getID()</text>
<text text-anchor="start" x="22" y="-29.5" font-family="Helvetica,sans-Serif" font-size="10.00">+ getAttack()</text>
<text text-anchor="start" x="22" y="-18.5" font-family="Helvetica,sans-Serif" font-size="10.00">+ getReward()</text>
<text text-anchor="start" x="22" y="-7.5" font-family="Helvetica,sans-Serif" font-size="10.00">+ print()</text>
</g>
<!-- Node2 -->
<g id="node2" class="node"><title>Node2</title>
<polygon fill="none" stroke="#bfbfbf" points="0,-193.5 0,-250.5 29,-250.5 29,-193.5 0,-193.5"/>
<text text-anchor="middle" x="14.5" y="-238.5" font-family="Helvetica,sans-Serif" font-size="10.00">int</text>
<polyline fill="none" stroke="#bfbfbf" points="0,-231.5 29,-231.5 "/>
<text text-anchor="middle" x="14.5" y="-219.5" font-family="Helvetica,sans-Serif" font-size="10.00"> </text>
<polyline fill="none" stroke="#bfbfbf" points="0,-212.5 29,-212.5 "/>
<text text-anchor="middle" x="14.5" y="-200.5" font-family="Helvetica,sans-Serif" font-size="10.00"> </text>
</g>
<!-- Node2&#45;&gt;Node1 -->
<g id="edge1" class="edge"><title>Node2&#45;&gt;Node1</title>
<path fill="none" stroke="#404040" d="M12.0082,-193.24C11.3409,-177.939 11.6691,-158.712 15.5,-142 15.9986,-139.825 16.5624,-137.638 17.1822,-135.449"/>
<polygon fill="none" stroke="#404040" points="17.271,-135.176 15.3207,-128.233 20.9789,-123.763 22.9292,-130.705 17.271,-135.176"/>
<text text-anchor="middle" x="42" y="-167" font-family="Helvetica,sans-Serif" font-size="10.00"> #creatureID</text>
<text text-anchor="middle" x="42" y="-156" font-family="Helvetica,sans-Serif" font-size="10.00">#reward</text>
<text text-anchor="middle" x="42" y="-145" font-family="Helvetica,sans-Serif" font-size="10.00">#attack</text>
</g>
<!-- Node3 -->
<g id="node3" class="node"><title>Node3</title>
<polygon fill="none" stroke="#bfbfbf" points="70,-193.5 70,-250.5 111,-250.5 111,-193.5 70,-193.5"/>
<text text-anchor="middle" x="90.5" y="-238.5" font-family="Helvetica,sans-Serif" font-size="10.00">string</text>
<polyline fill="none" stroke="#bfbfbf" points="70,-231.5 111,-231.5 "/>
<text text-anchor="middle" x="90.5" y="-219.5" font-family="Helvetica,sans-Serif" font-size="10.00"> </text>
<polyline fill="none" stroke="#bfbfbf" points="70,-212.5 111,-212.5 "/>
<text text-anchor="middle" x="90.5" y="-200.5" font-family="Helvetica,sans-Serif" font-size="10.00"> </text>
</g>
<!-- Node3&#45;&gt;Node1 -->
<g id="edge2" class="edge"><title>Node3&#45;&gt;Node1</title>
<path fill="none" stroke="#404040" d="M83.8809,-193.479C79.9877,-177.291 74.8662,-155.996 69.8926,-135.317"/>
<polygon fill="none" stroke="#404040" points="69.8791,-135.26 64.5869,-130.362 67.0729,-123.593 72.3651,-128.491 69.8791,-135.26"/>
<text text-anchor="middle" x="95" y="-161.5" font-family="Helvetica,sans-Serif" font-size="10.00"> #name</text>
<text text-anchor="middle" x="95" y="-150.5" font-family="Helvetica,sans-Serif" font-size="10.00">#text</text>
</g>
</g>
</svg>
