<?xml version="1.0" encoding="UTF-8" standalone="no"?>
<!DOCTYPE svg PUBLIC "-//W3C//DTD SVG 1.1//EN"
 "http://www.w3.org/Graphics/SVG/1.1/DTD/svg11.dtd">
<!-- Generated by graphviz version 2.38.0 (20140413.2041)
 -->
<!-- Title: CHero::printStats Pages: 1 -->
<svg width="534pt" height="66pt"
 viewBox="0.00 0.00 534.00 66.00" xmlns="http://www.w3.org/2000/svg" xmlns:xlink="http://www.w3.org/1999/xlink">
<g id="graph0" class="graph" transform="scale(1 1) rotate(0) translate(4 62)">
<title>CHero::printStats</title>
<!-- Node88 -->
<g id="node1" class="node"><title>Node88</title>
<polygon fill="#bfbfbf" stroke="black" points="0,-19.5 0,-38.5 92,-38.5 92,-19.5 0,-19.5"/>
<text text-anchor="middle" x="46" y="-26.5" font-family="Helvetica,sans-Serif" font-size="10.00">CHero::printStats</text>
</g>
<!-- Node89 -->
<g id="node2" class="node"><title>Node89</title>
<g id="a_node2"><a xlink:href="class_c_game.html#a714b291af5e20aae8be14a905fd0522d" target="_top" xlink:title="CGame::tickComponent">
<polygon fill="none" stroke="black" points="128,-19.5 128,-38.5 249,-38.5 249,-19.5 128,-19.5"/>
<text text-anchor="middle" x="188.5" y="-26.5" font-family="Helvetica,sans-Serif" font-size="10.00">CGame::tickComponent</text>
</a>
</g>
</g>
<!-- Node88&#45;&gt;Node89 -->
<g id="edge1" class="edge"><title>Node88&#45;&gt;Node89</title>
<path fill="none" stroke="midnightblue" d="M102.325,-29C110.753,-29 119.482,-29 127.995,-29"/>
<polygon fill="midnightblue" stroke="midnightblue" points="102.228,-25.5001 92.2285,-29 102.228,-32.5001 102.228,-25.5001"/>
</g>
<!-- Node90 -->
<g id="node3" class="node"><title>Node90</title>
<g id="a_node3"><a xlink:href="class_c_game.html#aa9d3da2fefa1c04faefc6586dbd37971" target="_top" xlink:title="CGame::play">
<polygon fill="none" stroke="black" points="285,-0.5 285,-19.5 359,-19.5 359,-0.5 285,-0.5"/>
<text text-anchor="middle" x="322" y="-7.5" font-family="Helvetica,sans-Serif" font-size="10.00">CGame::play</text>
</a>
</g>
</g>
<!-- Node89&#45;&gt;Node90 -->
<g id="edge2" class="edge"><title>Node89&#45;&gt;Node90</title>
<path fill="none" stroke="midnightblue" d="M259.157,-18.9354C268.065,-17.6483 276.878,-16.3751 284.937,-15.2107"/>
<polygon fill="midnightblue" stroke="midnightblue" points="258.491,-15.4953 249.094,-20.3895 259.492,-22.4234 258.491,-15.4953"/>
</g>
<!-- Node91 -->
<g id="node4" class="node"><title>Node91</title>
<g id="a_node4"><a xlink:href="class_c_game.html#ac0a8028013ca5a7c135c29fa582df4a0" target="_top" xlink:title="CGame::checkHeroStatus">
<polygon fill="none" stroke="black" points="395,-38.5 395,-57.5 526,-57.5 526,-38.5 395,-38.5"/>
<text text-anchor="middle" x="460.5" y="-45.5" font-family="Helvetica,sans-Serif" font-size="10.00">CGame::checkHeroStatus</text>
</a>
</g>
</g>
<!-- Node90&#45;&gt;Node91 -->
<g id="edge3" class="edge"><title>Node90&#45;&gt;Node91</title>
<path fill="none" stroke="midnightblue" d="M367.249,-22.3183C386.003,-27.5393 407.528,-33.5316 425.066,-38.4141"/>
<polygon fill="midnightblue" stroke="midnightblue" points="368.017,-18.8992 357.445,-19.589 366.14,-25.6428 368.017,-18.8992"/>
</g>
<!-- Node92 -->
<g id="node5" class="node"><title>Node92</title>
<g id="a_node5"><a xlink:href="main_8cpp.html#ae66f6b31b5ad750f1fe042a706a4e3d4" target="_top" xlink:title="main">
<polygon fill="none" stroke="black" points="441.5,-0.5 441.5,-19.5 479.5,-19.5 479.5,-0.5 441.5,-0.5"/>
<text text-anchor="middle" x="460.5" y="-7.5" font-family="Helvetica,sans-Serif" font-size="10.00">main</text>
</a>
</g>
</g>
<!-- Node90&#45;&gt;Node92 -->
<g id="edge5" class="edge"><title>Node90&#45;&gt;Node92</title>
<path fill="none" stroke="midnightblue" d="M369.458,-10C394.045,-10 422.849,-10 441.132,-10"/>
<polygon fill="midnightblue" stroke="midnightblue" points="369.221,-6.5001 359.221,-10 369.221,-13.5001 369.221,-6.5001"/>
</g>
<!-- Node91&#45;&gt;Node89 -->
<g id="edge4" class="edge"><title>Node91&#45;&gt;Node89</title>
<path fill="none" stroke="midnightblue" d="M384.793,-42.7429C342.008,-39.7321 289.055,-36.0057 249.087,-33.1932"/>
<polygon fill="midnightblue" stroke="midnightblue" points="384.654,-46.2416 394.875,-43.4523 385.146,-39.2589 384.654,-46.2416"/>
</g>
</g>
</svg>
