<?xml version="1.0" encoding="UTF-8" standalone="no"?>
<!DOCTYPE svg PUBLIC "-//W3C//DTD SVG 1.1//EN"
 "http://www.w3.org/Graphics/SVG/1.1/DTD/svg11.dtd">
<!-- Generated by graphviz version 2.38.0 (20140413.2041)
 -->
<!-- Title: CStreamDecoder::getNumbersAsString Pages: 1 -->
<svg width="1243pt" height="120pt"
 viewBox="0.00 0.00 1243.00 119.50" xmlns="http://www.w3.org/2000/svg" xmlns:xlink="http://www.w3.org/1999/xlink">
<g id="graph0" class="graph" transform="scale(1 1) rotate(0) translate(4 115.5)">
<title>CStreamDecoder::getNumbersAsString</title>
<!-- Node33 -->
<g id="node1" class="node"><title>Node33</title>
<polygon fill="#bfbfbf" stroke="black" points="0,-0.5 0,-30.5 149,-30.5 149,-0.5 0,-0.5"/>
<text text-anchor="start" x="8" y="-18.5" font-family="Helvetica,sans-Serif" font-size="10.00">CStreamDecoder::getNumbers</text>
<text text-anchor="middle" x="74.5" y="-7.5" font-family="Helvetica,sans-Serif" font-size="10.00">AsString</text>
</g>
<!-- Node34 -->
<g id="node2" class="node"><title>Node34</title>
<g id="a_node2"><a xlink:href="class_c_stream_decoder.html#a27f04fbbe2eb121fe15988594fe7053f" target="_top" xlink:title="CStreamDecoder::decodePlayerData">
<polygon fill="none" stroke="black" points="185,-6 185,-25 361,-25 361,-6 185,-6"/>
<text text-anchor="middle" x="273" y="-13" font-family="Helvetica,sans-Serif" font-size="10.00">CStreamDecoder::decodePlayerData</text>
</a>
</g>
</g>
<!-- Node33&#45;&gt;Node34 -->
<g id="edge1" class="edge"><title>Node33&#45;&gt;Node34</title>
<path fill="none" stroke="midnightblue" d="M159.439,-15.5C167.883,-15.5 176.471,-15.5 184.946,-15.5"/>
<polygon fill="midnightblue" stroke="midnightblue" points="159.228,-12.0001 149.228,-15.5 159.228,-19.0001 159.228,-12.0001"/>
</g>
<!-- Node35 -->
<g id="node3" class="node"><title>Node35</title>
<g id="a_node3"><a xlink:href="class_c_game.html#a507b71eeebc2a6aaa08d9e0dcb61c7ac" target="_top" xlink:title="CGame::importPlayerData">
<polygon fill="none" stroke="black" points="397,-6 397,-25 528,-25 528,-6 397,-6"/>
<text text-anchor="middle" x="462.5" y="-13" font-family="Helvetica,sans-Serif" font-size="10.00">CGame::importPlayerData</text>
</a>
</g>
</g>
<!-- Node34&#45;&gt;Node35 -->
<g id="edge2" class="edge"><title>Node34&#45;&gt;Node35</title>
<path fill="none" stroke="midnightblue" d="M371.347,-15.5C380.021,-15.5 388.654,-15.5 396.949,-15.5"/>
<polygon fill="midnightblue" stroke="midnightblue" points="371.163,-12.0001 361.163,-15.5 371.163,-19.0001 371.163,-12.0001"/>
</g>
<!-- Node36 -->
<g id="node4" class="node"><title>Node36</title>
<g id="a_node4"><a xlink:href="class_c_game.html#accda079824fc813cbd64b4743846ae24" target="_top" xlink:title="CGame::loadGame">
<polygon fill="none" stroke="black" points="564,-6 564,-25 664,-25 664,-6 564,-6"/>
<text text-anchor="middle" x="614" y="-13" font-family="Helvetica,sans-Serif" font-size="10.00">CGame::loadGame</text>
</a>
</g>
</g>
<!-- Node35&#45;&gt;Node36 -->
<g id="edge3" class="edge"><title>Node35&#45;&gt;Node36</title>
<path fill="none" stroke="midnightblue" d="M538.379,-15.5C547.071,-15.5 555.76,-15.5 563.977,-15.5"/>
<polygon fill="midnightblue" stroke="midnightblue" points="538.203,-12.0001 528.203,-15.5 538.203,-19.0001 538.203,-12.0001"/>
</g>
<!-- Node37 -->
<g id="node5" class="node"><title>Node37</title>
<g id="a_node5"><a xlink:href="class_c_game.html#a39e1e296c6dcabbf5c824eea6424d6d9" target="_top" xlink:title="CGame::mainMenu">
<polygon fill="none" stroke="black" points="700,-6 700,-25 801,-25 801,-6 700,-6"/>
<text text-anchor="middle" x="750.5" y="-13" font-family="Helvetica,sans-Serif" font-size="10.00">CGame::mainMenu</text>
</a>
</g>
</g>
<!-- Node36&#45;&gt;Node37 -->
<g id="edge4" class="edge"><title>Node36&#45;&gt;Node37</title>
<path fill="none" stroke="midnightblue" d="M674.486,-15.5C682.918,-15.5 691.515,-15.5 699.737,-15.5"/>
<polygon fill="midnightblue" stroke="midnightblue" points="674.319,-12.0001 664.319,-15.5 674.319,-19.0001 674.319,-12.0001"/>
</g>
<!-- Node38 -->
<g id="node6" class="node"><title>Node38</title>
<g id="a_node6"><a xlink:href="class_c_game.html#aa9d3da2fefa1c04faefc6586dbd37971" target="_top" xlink:title="CGame::play">
<polygon fill="none" stroke="black" points="837,-35 837,-54 911,-54 911,-35 837,-35"/>
<text text-anchor="middle" x="874" y="-42" font-family="Helvetica,sans-Serif" font-size="10.00">CGame::play</text>
</a>
</g>
</g>
<!-- Node37&#45;&gt;Node38 -->
<g id="edge5" class="edge"><title>Node37&#45;&gt;Node38</title>
<path fill="none" stroke="midnightblue" d="M801.361,-27.401C813.165,-30.2184 825.536,-33.1711 836.612,-35.8147"/>
<polygon fill="midnightblue" stroke="midnightblue" points="802.16,-23.9934 791.62,-25.0761 800.535,-30.8021 802.16,-23.9934"/>
</g>
<!-- Node40 -->
<g id="node8" class="node"><title>Node40</title>
<g id="a_node8"><a xlink:href="class_c_game.html#a714b291af5e20aae8be14a905fd0522d" target="_top" xlink:title="CGame::tickComponent">
<polygon fill="none" stroke="black" points="1114,-16 1114,-35 1235,-35 1235,-16 1114,-16"/>
<text text-anchor="middle" x="1174.5" y="-23" font-family="Helvetica,sans-Serif" font-size="10.00">CGame::tickComponent</text>
</a>
</g>
</g>
<!-- Node37&#45;&gt;Node40 -->
<g id="edge10" class="edge"><title>Node37&#45;&gt;Node40</title>
<path fill="none" stroke="midnightblue" d="M811.597,-16.9241C891.999,-18.8294 1033.71,-22.1876 1113.88,-24.0871"/>
<polygon fill="midnightblue" stroke="midnightblue" points="811.23,-13.4145 801.15,-16.6765 811.064,-20.4125 811.23,-13.4145"/>
</g>
<!-- Node39 -->
<g id="node7" class="node"><title>Node39</title>
<g id="a_node7"><a xlink:href="class_c_game.html#ac0a8028013ca5a7c135c29fa582df4a0" target="_top" xlink:title="CGame::checkHeroStatus">
<polygon fill="none" stroke="black" points="947,-92 947,-111 1078,-111 1078,-92 947,-92"/>
<text text-anchor="middle" x="1012.5" y="-99" font-family="Helvetica,sans-Serif" font-size="10.00">CGame::checkHeroStatus</text>
</a>
</g>
</g>
<!-- Node38&#45;&gt;Node39 -->
<g id="edge6" class="edge"><title>Node38&#45;&gt;Node39</title>
<path fill="none" stroke="midnightblue" d="M899.634,-59.069C913.276,-66.7331 930.723,-75.8842 947,-82.5 955.76,-86.0603 965.434,-89.2698 974.566,-91.994"/>
<polygon fill="midnightblue" stroke="midnightblue" points="901.276,-55.9765 890.858,-54.05 897.801,-62.0529 901.276,-55.9765"/>
</g>
<!-- Node41 -->
<g id="node9" class="node"><title>Node41</title>
<g id="a_node9"><a xlink:href="main_8cpp.html#ae66f6b31b5ad750f1fe042a706a4e3d4" target="_top" xlink:title="main">
<polygon fill="none" stroke="black" points="993.5,-54 993.5,-73 1031.5,-73 1031.5,-54 993.5,-54"/>
<text text-anchor="middle" x="1012.5" y="-61" font-family="Helvetica,sans-Serif" font-size="10.00">main</text>
</a>
</g>
</g>
<!-- Node38&#45;&gt;Node41 -->
<g id="edge9" class="edge"><title>Node38&#45;&gt;Node41</title>
<path fill="none" stroke="midnightblue" d="M921.129,-50.9208C945.788,-54.3533 974.768,-58.3871 993.132,-60.9433"/>
<polygon fill="midnightblue" stroke="midnightblue" points="921.608,-47.4539 911.221,-49.5418 920.643,-54.3871 921.608,-47.4539"/>
</g>
<!-- Node39&#45;&gt;Node40 -->
<g id="edge7" class="edge"><title>Node39&#45;&gt;Node40</title>
<path fill="none" stroke="midnightblue" d="M1061.84,-88.7149C1067.36,-86.8274 1072.85,-84.7512 1078,-82.5 1108.78,-69.0375 1141.84,-47.543 1159.86,-35.1543"/>
<polygon fill="midnightblue" stroke="midnightblue" points="1060.37,-85.5097 1051.93,-91.9056 1062.52,-92.173 1060.37,-85.5097"/>
</g>
<!-- Node40&#45;&gt;Node38 -->
<g id="edge8" class="edge"><title>Node40&#45;&gt;Node38</title>
<path fill="none" stroke="midnightblue" d="M1103.7,-29.9426C1043.37,-33.7833 958.572,-39.1805 911.006,-42.2082"/>
<polygon fill="midnightblue" stroke="midnightblue" points="1104.16,-33.4207 1113.92,-29.2925 1103.72,-26.4349 1104.16,-33.4207"/>
</g>
</g>
</svg>
