<?xml version="1.0" encoding="UTF-8" standalone="no"?>
<!DOCTYPE svg PUBLIC "-//W3C//DTD SVG 1.1//EN"
 "http://www.w3.org/Graphics/SVG/1.1/DTD/svg11.dtd">
<!-- Generated by graphviz version 2.38.0 (20140413.2041)
 -->
<!-- Title: CStreamDecoder::getStringAsInt Pages: 1 -->
<svg width="1169pt" height="237pt"
 viewBox="0.00 0.00 1169.00 237.00" xmlns="http://www.w3.org/2000/svg" xmlns:xlink="http://www.w3.org/1999/xlink">
<g id="graph0" class="graph" transform="scale(1 1) rotate(0) translate(4 233)">
<title>CStreamDecoder::getStringAsInt</title>
<!-- Node61 -->
<g id="node1" class="node"><title>Node61</title>
<polygon fill="#bfbfbf" stroke="black" points="0,-52 0,-82 136,-82 136,-52 0,-52"/>
<text text-anchor="start" x="8" y="-70" font-family="Helvetica,sans-Serif" font-size="10.00">CStreamDecoder::getString</text>
<text text-anchor="middle" x="68" y="-59" font-family="Helvetica,sans-Serif" font-size="10.00">AsInt</text>
</g>
<!-- Node62 -->
<g id="node2" class="node"><title>Node62</title>
<g id="a_node2"><a xlink:href="class_c_hero.html#a7b1a1b3c196bbe5b8da97c56f520c1f3" target="_top" xlink:title="CHero::update">
<polygon fill="none" stroke="black" points="190,-114.5 190,-133.5 269,-133.5 269,-114.5 190,-114.5"/>
<text text-anchor="middle" x="229.5" y="-121.5" font-family="Helvetica,sans-Serif" font-size="10.00">CHero::update</text>
</a>
</g>
</g>
<!-- Node61&#45;&gt;Node62 -->
<g id="edge1" class="edge"><title>Node61&#45;&gt;Node62</title>
<path fill="none" stroke="midnightblue" d="M118.681,-85.6599C135.565,-91.9133 154.569,-98.8552 172,-105 180.979,-108.165 190.802,-111.51 199.702,-114.495"/>
<polygon fill="midnightblue" stroke="midnightblue" points="119.605,-82.2697 109.012,-82.0688 117.168,-88.8317 119.605,-82.2697"/>
</g>
<!-- Node70 -->
<g id="node10" class="node"><title>Node70</title>
<g id="a_node10"><a xlink:href="class_c_world.html#afa6876cb4b0d0aa9aec88fec6c596634" target="_top" xlink:title="CWorld::loadEvents">
<polygon fill="none" stroke="black" points="178.5,-76.5 178.5,-95.5 280.5,-95.5 280.5,-76.5 178.5,-76.5"/>
<text text-anchor="middle" x="229.5" y="-83.5" font-family="Helvetica,sans-Serif" font-size="10.00">CWorld::loadEvents</text>
</a>
</g>
</g>
<!-- Node61&#45;&gt;Node70 -->
<g id="edge11" class="edge"><title>Node61&#45;&gt;Node70</title>
<path fill="none" stroke="midnightblue" d="M146.183,-76.1942C157.12,-77.497 168.121,-78.8075 178.363,-80.0276"/>
<polygon fill="midnightblue" stroke="midnightblue" points="146.524,-72.7102 136.18,-75.0026 145.696,-79.661 146.524,-72.7102"/>
</g>
<!-- Node73 -->
<g id="node13" class="node"><title>Node73</title>
<g id="a_node13"><a xlink:href="class_c_world.html#abb7ab3f5626b424ebabbd4aec3b60b5a" target="_top" xlink:title="CWorld::loadItems">
<polygon fill="none" stroke="black" points="181,-38.5 181,-57.5 278,-57.5 278,-38.5 181,-38.5"/>
<text text-anchor="middle" x="229.5" y="-45.5" font-family="Helvetica,sans-Serif" font-size="10.00">CWorld::loadItems</text>
</a>
</g>
</g>
<!-- Node61&#45;&gt;Node73 -->
<g id="edge14" class="edge"><title>Node61&#45;&gt;Node73</title>
<path fill="none" stroke="midnightblue" d="M146.433,-57.776C158.148,-56.3805 169.93,-54.977 180.766,-53.6861"/>
<polygon fill="midnightblue" stroke="midnightblue" points="145.696,-54.339 136.18,-58.9974 146.524,-61.2898 145.696,-54.339"/>
</g>
<!-- Node74 -->
<g id="node14" class="node"><title>Node74</title>
<g id="a_node14"><a xlink:href="class_c_world.html#a313cf7258bfab897ada813aa0f8837ac" target="_top" xlink:title="CWorld::loadCreatures">
<polygon fill="none" stroke="black" points="172,-0.5 172,-19.5 287,-19.5 287,-0.5 172,-0.5"/>
<text text-anchor="middle" x="229.5" y="-7.5" font-family="Helvetica,sans-Serif" font-size="10.00">CWorld::loadCreatures</text>
</a>
</g>
</g>
<!-- Node61&#45;&gt;Node74 -->
<g id="edge16" class="edge"><title>Node61&#45;&gt;Node74</title>
<path fill="none" stroke="midnightblue" d="M118.681,-48.3401C135.565,-42.0867 154.569,-35.1448 172,-29 180.979,-25.8346 190.802,-22.4905 199.702,-19.5049"/>
<polygon fill="midnightblue" stroke="midnightblue" points="117.168,-45.1683 109.012,-51.9312 119.605,-51.7303 117.168,-45.1683"/>
</g>
<!-- Node63 -->
<g id="node3" class="node"><title>Node63</title>
<g id="a_node3"><a xlink:href="class_c_game.html#a507b71eeebc2a6aaa08d9e0dcb61c7ac" target="_top" xlink:title="CGame::importPlayerData">
<polygon fill="none" stroke="black" points="323,-114.5 323,-133.5 454,-133.5 454,-114.5 323,-114.5"/>
<text text-anchor="middle" x="388.5" y="-121.5" font-family="Helvetica,sans-Serif" font-size="10.00">CGame::importPlayerData</text>
</a>
</g>
</g>
<!-- Node62&#45;&gt;Node63 -->
<g id="edge2" class="edge"><title>Node62&#45;&gt;Node63</title>
<path fill="none" stroke="midnightblue" d="M279.501,-124C293.234,-124 308.376,-124 322.867,-124"/>
<polygon fill="midnightblue" stroke="midnightblue" points="279.309,-120.5 269.309,-124 279.309,-127.5 279.309,-120.5"/>
</g>
<!-- Node64 -->
<g id="node4" class="node"><title>Node64</title>
<g id="a_node4"><a xlink:href="class_c_game.html#accda079824fc813cbd64b4743846ae24" target="_top" xlink:title="CGame::loadGame">
<polygon fill="none" stroke="black" points="490,-114.5 490,-133.5 590,-133.5 590,-114.5 490,-114.5"/>
<text text-anchor="middle" x="540" y="-121.5" font-family="Helvetica,sans-Serif" font-size="10.00">CGame::loadGame</text>
</a>
</g>
</g>
<!-- Node63&#45;&gt;Node64 -->
<g id="edge3" class="edge"><title>Node63&#45;&gt;Node64</title>
<path fill="none" stroke="midnightblue" d="M464.379,-124C473.071,-124 481.76,-124 489.977,-124"/>
<polygon fill="midnightblue" stroke="midnightblue" points="464.203,-120.5 454.203,-124 464.203,-127.5 464.203,-120.5"/>
</g>
<!-- Node65 -->
<g id="node5" class="node"><title>Node65</title>
<g id="a_node5"><a xlink:href="class_c_game.html#a39e1e296c6dcabbf5c824eea6424d6d9" target="_top" xlink:title="CGame::mainMenu">
<polygon fill="none" stroke="black" points="626,-114.5 626,-133.5 727,-133.5 727,-114.5 626,-114.5"/>
<text text-anchor="middle" x="676.5" y="-121.5" font-family="Helvetica,sans-Serif" font-size="10.00">CGame::mainMenu</text>
</a>
</g>
</g>
<!-- Node64&#45;&gt;Node65 -->
<g id="edge4" class="edge"><title>Node64&#45;&gt;Node65</title>
<path fill="none" stroke="midnightblue" d="M600.486,-124C608.918,-124 617.515,-124 625.737,-124"/>
<polygon fill="midnightblue" stroke="midnightblue" points="600.319,-120.5 590.319,-124 600.319,-127.5 600.319,-120.5"/>
</g>
<!-- Node66 -->
<g id="node6" class="node"><title>Node66</title>
<g id="a_node6"><a xlink:href="class_c_game.html#aa9d3da2fefa1c04faefc6586dbd37971" target="_top" xlink:title="CGame::play">
<polygon fill="none" stroke="black" points="763,-152.5 763,-171.5 837,-171.5 837,-152.5 763,-152.5"/>
<text text-anchor="middle" x="800" y="-159.5" font-family="Helvetica,sans-Serif" font-size="10.00">CGame::play</text>
</a>
</g>
</g>
<!-- Node65&#45;&gt;Node66 -->
<g id="edge5" class="edge"><title>Node65&#45;&gt;Node66</title>
<path fill="none" stroke="midnightblue" d="M718.044,-136.68C734.461,-141.815 753.099,-147.644 768.35,-152.414"/>
<polygon fill="midnightblue" stroke="midnightblue" points="718.748,-133.234 708.16,-133.589 716.659,-139.914 718.748,-133.234"/>
</g>
<!-- Node68 -->
<g id="node8" class="node"><title>Node68</title>
<g id="a_node8"><a xlink:href="class_c_game.html#a714b291af5e20aae8be14a905fd0522d" target="_top" xlink:title="CGame::tickComponent">
<polygon fill="none" stroke="black" points="1040,-133.5 1040,-152.5 1161,-152.5 1161,-133.5 1040,-133.5"/>
<text text-anchor="middle" x="1100.5" y="-140.5" font-family="Helvetica,sans-Serif" font-size="10.00">CGame::tickComponent</text>
</a>
</g>
</g>
<!-- Node65&#45;&gt;Node68 -->
<g id="edge10" class="edge"><title>Node65&#45;&gt;Node68</title>
<path fill="none" stroke="midnightblue" d="M737.597,-126.706C817.999,-130.326 959.715,-136.706 1039.88,-140.315"/>
<polygon fill="midnightblue" stroke="midnightblue" points="737.297,-123.189 727.15,-126.235 736.982,-130.182 737.297,-123.189"/>
</g>
<!-- Node67 -->
<g id="node7" class="node"><title>Node67</title>
<g id="a_node7"><a xlink:href="class_c_game.html#ac0a8028013ca5a7c135c29fa582df4a0" target="_top" xlink:title="CGame::checkHeroStatus">
<polygon fill="none" stroke="black" points="873,-209.5 873,-228.5 1004,-228.5 1004,-209.5 873,-209.5"/>
<text text-anchor="middle" x="938.5" y="-216.5" font-family="Helvetica,sans-Serif" font-size="10.00">CGame::checkHeroStatus</text>
</a>
</g>
</g>
<!-- Node66&#45;&gt;Node67 -->
<g id="edge6" class="edge"><title>Node66&#45;&gt;Node67</title>
<path fill="none" stroke="midnightblue" d="M825.634,-176.569C839.276,-184.233 856.723,-193.384 873,-200 881.76,-203.56 891.434,-206.77 900.566,-209.494"/>
<polygon fill="midnightblue" stroke="midnightblue" points="827.276,-173.476 816.858,-171.55 823.801,-179.553 827.276,-173.476"/>
</g>
<!-- Node69 -->
<g id="node9" class="node"><title>Node69</title>
<g id="a_node9"><a xlink:href="main_8cpp.html#ae66f6b31b5ad750f1fe042a706a4e3d4" target="_top" xlink:title="main">
<polygon fill="none" stroke="black" points="919.5,-171.5 919.5,-190.5 957.5,-190.5 957.5,-171.5 919.5,-171.5"/>
<text text-anchor="middle" x="938.5" y="-178.5" font-family="Helvetica,sans-Serif" font-size="10.00">main</text>
</a>
</g>
</g>
<!-- Node66&#45;&gt;Node69 -->
<g id="edge9" class="edge"><title>Node66&#45;&gt;Node69</title>
<path fill="none" stroke="midnightblue" d="M847.129,-168.421C871.788,-171.853 900.768,-175.887 919.132,-178.443"/>
<polygon fill="midnightblue" stroke="midnightblue" points="847.608,-164.954 837.221,-167.042 846.643,-171.887 847.608,-164.954"/>
</g>
<!-- Node67&#45;&gt;Node68 -->
<g id="edge7" class="edge"><title>Node67&#45;&gt;Node68</title>
<path fill="none" stroke="midnightblue" d="M987.837,-206.215C993.361,-204.327 998.853,-202.251 1004,-200 1034.78,-186.537 1067.84,-165.043 1085.86,-152.654"/>
<polygon fill="midnightblue" stroke="midnightblue" points="986.372,-203.01 977.925,-209.406 988.517,-209.673 986.372,-203.01"/>
</g>
<!-- Node68&#45;&gt;Node66 -->
<g id="edge8" class="edge"><title>Node68&#45;&gt;Node66</title>
<path fill="none" stroke="midnightblue" d="M1029.7,-147.443C969.365,-151.283 884.572,-156.681 837.006,-159.708"/>
<polygon fill="midnightblue" stroke="midnightblue" points="1030.16,-150.921 1039.92,-146.792 1029.72,-143.935 1030.16,-150.921"/>
</g>
<!-- Node71 -->
<g id="node11" class="node"><title>Node71</title>
<g id="a_node11"><a xlink:href="class_c_world.html#a944f12acb1ff76beed2648647ff19d0f" target="_top" xlink:title="CWorld::loadWorld">
<polygon fill="none" stroke="black" points="339.5,-38.5 339.5,-57.5 437.5,-57.5 437.5,-38.5 339.5,-38.5"/>
<text text-anchor="middle" x="388.5" y="-45.5" font-family="Helvetica,sans-Serif" font-size="10.00">CWorld::loadWorld</text>
</a>
</g>
</g>
<!-- Node70&#45;&gt;Node71 -->
<g id="edge12" class="edge"><title>Node70&#45;&gt;Node71</title>
<path fill="none" stroke="midnightblue" d="M279.947,-74.032C301.948,-68.7069 327.494,-62.5238 348.167,-57.5201"/>
<polygon fill="midnightblue" stroke="midnightblue" points="279.014,-70.6567 270.118,-76.411 280.66,-77.4602 279.014,-70.6567"/>
</g>
<!-- Node72 -->
<g id="node12" class="node"><title>Node72</title>
<g id="a_node12"><a xlink:href="class_c_game.html#af5435e79a93dd92991ae24b499976470" target="_top" xlink:title="CGame::CGame">
<polygon fill="none" stroke="black" points="495.5,-38.5 495.5,-57.5 584.5,-57.5 584.5,-38.5 495.5,-38.5"/>
<text text-anchor="middle" x="540" y="-45.5" font-family="Helvetica,sans-Serif" font-size="10.00">CGame::CGame</text>
</a>
</g>
</g>
<!-- Node71&#45;&gt;Node72 -->
<g id="edge13" class="edge"><title>Node71&#45;&gt;Node72</title>
<path fill="none" stroke="midnightblue" d="M447.774,-48C463.489,-48 480.226,-48 495.017,-48"/>
<polygon fill="midnightblue" stroke="midnightblue" points="447.626,-44.5001 437.626,-48 447.626,-51.5001 447.626,-44.5001"/>
</g>
<!-- Node73&#45;&gt;Node71 -->
<g id="edge15" class="edge"><title>Node73&#45;&gt;Node71</title>
<path fill="none" stroke="midnightblue" d="M288.273,-48C305.052,-48 323.193,-48 339.317,-48"/>
<polygon fill="midnightblue" stroke="midnightblue" points="288.031,-44.5001 278.031,-48 288.031,-51.5001 288.031,-44.5001"/>
</g>
<!-- Node74&#45;&gt;Node71 -->
<g id="edge17" class="edge"><title>Node74&#45;&gt;Node71</title>
<path fill="none" stroke="midnightblue" d="M279.947,-21.968C301.948,-27.2931 327.494,-33.4762 348.167,-38.4799"/>
<polygon fill="midnightblue" stroke="midnightblue" points="280.66,-18.5398 270.118,-19.589 279.014,-25.3433 280.66,-18.5398"/>
</g>
</g>
</svg>
