<?xml version="1.0" encoding="UTF-8" standalone="no"?>
<!DOCTYPE svg PUBLIC "-//W3C//DTD SVG 1.1//EN"
 "http://www.w3.org/Graphics/SVG/1.1/DTD/svg11.dtd">
<!-- Generated by graphviz version 2.38.0 (20140413.2041)
 -->
<!-- Title: CGame::saveGame Pages: 1 -->
<svg width="608pt" height="298pt"
 viewBox="0.00 0.00 608.00 297.55" xmlns="http://www.w3.org/2000/svg" xmlns:xlink="http://www.w3.org/1999/xlink">
<g id="graph0" class="graph" transform="scale(1 1) rotate(0) translate(4 293.548)">
<title>CGame::saveGame</title>
<!-- Node237 -->
<g id="node1" class="node"><title>Node237</title>
<polygon fill="#bfbfbf" stroke="black" points="0,-190.5 0,-209.5 101,-209.5 101,-190.5 0,-190.5"/>
<text text-anchor="middle" x="50.5" y="-197.5" font-family="Helvetica,sans-Serif" font-size="10.00">CGame::saveGame</text>
</g>
<!-- Node238 -->
<g id="node2" class="node"><title>Node238</title>
<g id="a_node2"><a xlink:href="class_c_display.html#af350b35b44fc756e0c721ec4ee56c67a" target="_top" xlink:title="CDisplay::printDelimiter">
<polygon fill="none" stroke="black" points="480,-171.5 480,-190.5 599,-190.5 599,-171.5 480,-171.5"/>
<text text-anchor="middle" x="539.5" y="-178.5" font-family="Helvetica,sans-Serif" font-size="10.00">CDisplay::printDelimiter</text>
</a>
</g>
</g>
<!-- Node237&#45;&gt;Node238 -->
<g id="edge1" class="edge"><title>Node237&#45;&gt;Node238</title>
<path fill="none" stroke="midnightblue" d="M67.515,-190.428C84.1956,-181.059 111.417,-167.429 137,-162 270.037,-133.768 307.655,-148.667 443,-162 458.309,-163.508 474.802,-166.345 489.702,-169.375"/>
<polygon fill="midnightblue" stroke="midnightblue" points="489.222,-172.851 499.729,-171.49 490.666,-166.001 489.222,-172.851"/>
</g>
<!-- Node239 -->
<g id="node3" class="node"><title>Node239</title>
<g id="a_node3"><a xlink:href="class_c_display.html#a54c5d36f4bc11d4a935ff5c86ea4e653" target="_top" xlink:title="CDisplay::print">
<polygon fill="none" stroke="black" points="162.5,-247.5 162.5,-266.5 242.5,-266.5 242.5,-247.5 162.5,-247.5"/>
<text text-anchor="middle" x="202.5" y="-254.5" font-family="Helvetica,sans-Serif" font-size="10.00">CDisplay::print</text>
</a>
</g>
</g>
<!-- Node237&#45;&gt;Node239 -->
<g id="edge2" class="edge"><title>Node237&#45;&gt;Node239</title>
<path fill="none" stroke="midnightblue" d="M70.8938,-209.5C88.0293,-217.68 113.826,-229.479 137,-238 143.112,-240.247 149.622,-242.417 156.068,-244.437"/>
<polygon fill="midnightblue" stroke="midnightblue" points="155.491,-247.919 166.076,-247.477 157.525,-241.222 155.491,-247.919"/>
</g>
<!-- Node240 -->
<g id="node4" class="node"><title>Node240</title>
<g id="a_node4"><a xlink:href="class_c_display.html#a1bd3e25973ed15055a68d4db6abfa765" target="_top" xlink:title="CDisplay::getString">
<polygon fill="none" stroke="black" points="152,-171.5 152,-190.5 253,-190.5 253,-171.5 152,-171.5"/>
<text text-anchor="middle" x="202.5" y="-178.5" font-family="Helvetica,sans-Serif" font-size="10.00">CDisplay::getString</text>
</a>
</g>
</g>
<!-- Node237&#45;&gt;Node240 -->
<g id="edge3" class="edge"><title>Node237&#45;&gt;Node240</title>
<path fill="none" stroke="midnightblue" d="M101.031,-193.726C114.02,-192.081 128.164,-190.289 141.63,-188.584"/>
<polygon fill="midnightblue" stroke="midnightblue" points="142.284,-192.029 151.765,-187.3 141.404,-185.084 142.284,-192.029"/>
</g>
<!-- Node242 -->
<g id="node6" class="node"><title>Node242</title>
<g id="a_node6"><a xlink:href="class_c_game.html#a7d821ce9a0454653bbfde69979155da9" target="_top" xlink:title="CGame::exportPlayerData">
<polygon fill="none" stroke="black" points="137,-95.5 137,-114.5 268,-114.5 268,-95.5 137,-95.5"/>
<text text-anchor="middle" x="202.5" y="-102.5" font-family="Helvetica,sans-Serif" font-size="10.00">CGame::exportPlayerData</text>
</a>
</g>
</g>
<!-- Node237&#45;&gt;Node242 -->
<g id="edge5" class="edge"><title>Node237&#45;&gt;Node242</title>
<path fill="none" stroke="midnightblue" d="M60.9371,-190.287C75.8804,-175.367 106.44,-146.686 137,-129 144.131,-124.873 152.101,-121.228 159.94,-118.105"/>
<polygon fill="midnightblue" stroke="midnightblue" points="161.245,-121.353 169.372,-114.556 158.78,-114.802 161.245,-121.353"/>
</g>
<!-- Node249 -->
<g id="node13" class="node"><title>Node249</title>
<g id="a_node13"><a xlink:href="class_c_display.html#a53b65673a9b0bfc807a3a1e448962928" target="_top" xlink:title="CDisplay::printWithDelimiter">
<polygon fill="none" stroke="black" points="304,-209.5 304,-228.5 443,-228.5 443,-209.5 304,-209.5"/>
<text text-anchor="middle" x="373.5" y="-216.5" font-family="Helvetica,sans-Serif" font-size="10.00">CDisplay::printWithDelimiter</text>
</a>
</g>
</g>
<!-- Node237&#45;&gt;Node249 -->
<g id="edge12" class="edge"><title>Node237&#45;&gt;Node249</title>
<path fill="none" stroke="midnightblue" d="M58.3795,-209.603C71.4005,-226.848 101.543,-262.519 137,-276 191.422,-296.691 211.583,-290.386 268,-276 299.258,-268.029 331.249,-248.587 351.458,-234.626"/>
<polygon fill="midnightblue" stroke="midnightblue" points="353.738,-237.299 359.869,-228.658 349.688,-231.59 353.738,-237.299"/>
</g>
<!-- Node250 -->
<g id="node14" class="node"><title>Node250</title>
<g id="a_node14"><a xlink:href="class_c_display.html#a63f3c4f78cef1d3b13290970da9e3e85" target="_top" xlink:title="CDisplay::printError">
<polygon fill="none" stroke="black" points="152,-209.5 152,-228.5 253,-228.5 253,-209.5 152,-209.5"/>
<text text-anchor="middle" x="202.5" y="-216.5" font-family="Helvetica,sans-Serif" font-size="10.00">CDisplay::printError</text>
</a>
</g>
</g>
<!-- Node237&#45;&gt;Node250 -->
<g id="edge14" class="edge"><title>Node237&#45;&gt;Node250</title>
<path fill="none" stroke="midnightblue" d="M101.031,-206.274C114.02,-207.919 128.164,-209.711 141.63,-211.416"/>
<polygon fill="midnightblue" stroke="midnightblue" points="141.404,-214.916 151.765,-212.7 142.284,-207.971 141.404,-214.916"/>
</g>
<!-- Node241 -->
<g id="node5" class="node"><title>Node241</title>
<g id="a_node5"><a xlink:href="class_c_display.html#aba2a285f19e987f9ba82447f43be2b10" target="_top" xlink:title="CDisplay::dumpToNewLine">
<polygon fill="none" stroke="black" points="307,-171.5 307,-190.5 440,-190.5 440,-171.5 307,-171.5"/>
<text text-anchor="middle" x="373.5" y="-178.5" font-family="Helvetica,sans-Serif" font-size="10.00">CDisplay::dumpToNewLine</text>
</a>
</g>
</g>
<!-- Node240&#45;&gt;Node241 -->
<g id="edge4" class="edge"><title>Node240&#45;&gt;Node241</title>
<path fill="none" stroke="midnightblue" d="M253.292,-181C266.898,-181 281.958,-181 296.665,-181"/>
<polygon fill="midnightblue" stroke="midnightblue" points="296.767,-184.5 306.767,-181 296.767,-177.5 296.767,-184.5"/>
</g>
<!-- Node243 -->
<g id="node7" class="node"><title>Node243</title>
<g id="a_node7"><a xlink:href="class_c_hero.html#a1593ac4dfc01368e99b2b82a21c3c6ed" target="_top" xlink:title="CHero::exportData">
<polygon fill="none" stroke="black" points="325,-57.5 325,-76.5 422,-76.5 422,-57.5 325,-57.5"/>
<text text-anchor="middle" x="373.5" y="-64.5" font-family="Helvetica,sans-Serif" font-size="10.00">CHero::exportData</text>
</a>
</g>
</g>
<!-- Node242&#45;&gt;Node243 -->
<g id="edge6" class="edge"><title>Node242&#45;&gt;Node243</title>
<path fill="none" stroke="midnightblue" d="M246.146,-95.411C268.648,-90.3513 296.448,-84.1004 320.238,-78.7512"/>
<polygon fill="midnightblue" stroke="midnightblue" points="321.172,-82.1286 330.161,-76.5201 319.637,-75.2991 321.172,-82.1286"/>
</g>
<!-- Node248 -->
<g id="node12" class="node"><title>Node248</title>
<g id="a_node12"><a xlink:href="class_c_storyline.html#aa8cb69bd93260855dc0221d901b1bd07" target="_top" xlink:title="CStoryline::exportData">
<polygon fill="none" stroke="black" points="316,-95.5 316,-114.5 431,-114.5 431,-95.5 316,-95.5"/>
<text text-anchor="middle" x="373.5" y="-102.5" font-family="Helvetica,sans-Serif" font-size="10.00">CStoryline::exportData</text>
</a>
</g>
</g>
<!-- Node242&#45;&gt;Node248 -->
<g id="edge11" class="edge"><title>Node242&#45;&gt;Node248</title>
<path fill="none" stroke="midnightblue" d="M268.356,-105C280.574,-105 293.371,-105 305.648,-105"/>
<polygon fill="midnightblue" stroke="midnightblue" points="305.814,-108.5 315.814,-105 305.814,-101.5 305.814,-108.5"/>
</g>
<!-- Node244 -->
<g id="node8" class="node"><title>Node244</title>
<g id="a_node8"><a xlink:href="struct_hero_stats.html#a9580a49eab11c0babd042b6e7e551e4e" target="_top" xlink:title="HeroStats::exportData">
<polygon fill="none" stroke="black" points="483,-76.5 483,-95.5 596,-95.5 596,-76.5 483,-76.5"/>
<text text-anchor="middle" x="539.5" y="-83.5" font-family="Helvetica,sans-Serif" font-size="10.00">HeroStats::exportData</text>
</a>
</g>
</g>
<!-- Node243&#45;&gt;Node244 -->
<g id="edge7" class="edge"><title>Node243&#45;&gt;Node244</title>
<path fill="none" stroke="midnightblue" d="M422.376,-72.5467C438.035,-74.3608 455.715,-76.4091 472.469,-78.3501"/>
<polygon fill="midnightblue" stroke="midnightblue" points="472.419,-81.8676 482.755,-79.5418 473.225,-74.9141 472.419,-81.8676"/>
</g>
<!-- Node245 -->
<g id="node9" class="node"><title>Node245</title>
<g id="a_node9"><a xlink:href="class_c_equipment.html#a6b27732ece0ab3c74bff006093dc5a7d" target="_top" xlink:title="CEquipment::getAttack">
<polygon fill="none" stroke="black" points="480.5,-38.5 480.5,-57.5 598.5,-57.5 598.5,-38.5 480.5,-38.5"/>
<text text-anchor="middle" x="539.5" y="-45.5" font-family="Helvetica,sans-Serif" font-size="10.00">CEquipment::getAttack</text>
</a>
</g>
</g>
<!-- Node243&#45;&gt;Node245 -->
<g id="edge8" class="edge"><title>Node243&#45;&gt;Node245</title>
<path fill="none" stroke="midnightblue" d="M422.376,-61.4533C437.409,-59.7118 454.304,-57.7544 470.455,-55.8833"/>
<polygon fill="midnightblue" stroke="midnightblue" points="470.86,-59.3598 480.391,-54.7321 470.055,-52.4063 470.86,-59.3598"/>
</g>
<!-- Node246 -->
<g id="node10" class="node"><title>Node246</title>
<g id="a_node10"><a xlink:href="class_c_equipment.html#a27e962aead56bb39886acc86c17b7478" target="_top" xlink:title="CEquipment::getArmour">
<polygon fill="none" stroke="black" points="479,-0.5 479,-19.5 600,-19.5 600,-0.5 479,-0.5"/>
<text text-anchor="middle" x="539.5" y="-7.5" font-family="Helvetica,sans-Serif" font-size="10.00">CEquipment::getArmour</text>
</a>
</g>
</g>
<!-- Node243&#45;&gt;Node246 -->
<g id="edge9" class="edge"><title>Node243&#45;&gt;Node246</title>
<path fill="none" stroke="midnightblue" d="M400.166,-57.3447C421.259,-49.4879 451.961,-38.2293 479,-29 485.129,-26.9081 491.636,-24.7583 498.011,-22.6913"/>
<polygon fill="midnightblue" stroke="midnightblue" points="499.398,-25.9222 507.848,-19.5318 497.257,-19.2575 499.398,-25.9222"/>
</g>
<!-- Node247 -->
<g id="node11" class="node"><title>Node247</title>
<g id="a_node11"><a xlink:href="class_c_inventory.html#aaf1332bfb30866845bbcae69e411e4bc" target="_top" xlink:title="CInventory::exportData">
<polygon fill="none" stroke="black" points="482,-114.5 482,-133.5 597,-133.5 597,-114.5 482,-114.5"/>
<text text-anchor="middle" x="539.5" y="-121.5" font-family="Helvetica,sans-Serif" font-size="10.00">CInventory::exportData</text>
</a>
</g>
</g>
<!-- Node243&#45;&gt;Node247 -->
<g id="edge10" class="edge"><title>Node243&#45;&gt;Node247</title>
<path fill="none" stroke="midnightblue" d="M414.462,-76.527C423.947,-79.2137 433.939,-82.4009 443,-86 459.814,-92.6786 462.318,-97.9988 479,-105 484.187,-107.177 489.715,-109.252 495.233,-111.176"/>
<polygon fill="midnightblue" stroke="midnightblue" points="494.484,-114.617 505.078,-114.468 496.704,-107.978 494.484,-114.617"/>
</g>
<!-- Node249&#45;&gt;Node238 -->
<g id="edge13" class="edge"><title>Node249&#45;&gt;Node238</title>
<path fill="none" stroke="midnightblue" d="M415.884,-209.411C437.623,-204.374 464.457,-198.156 487.475,-192.823"/>
<polygon fill="midnightblue" stroke="midnightblue" points="488.462,-196.187 497.413,-190.52 486.881,-189.368 488.462,-196.187"/>
</g>
<!-- Node250&#45;&gt;Node249 -->
<g id="edge15" class="edge"><title>Node250&#45;&gt;Node249</title>
<path fill="none" stroke="midnightblue" d="M253.292,-219C266.062,-219 280.113,-219 293.95,-219"/>
<polygon fill="midnightblue" stroke="midnightblue" points="293.967,-222.5 303.967,-219 293.967,-215.5 293.967,-222.5"/>
</g>
</g>
</svg>
