<?xml version="1.0" encoding="UTF-8" standalone="no"?>
<!DOCTYPE svg PUBLIC "-//W3C//DTD SVG 1.1//EN"
 "http://www.w3.org/Graphics/SVG/1.1/DTD/svg11.dtd">
<!-- Generated by graphviz version 2.38.0 (20140413.2041)
 -->
<!-- Title: CInventory::getItemsID Pages: 1 -->
<svg width="400pt" height="39pt"
 viewBox="0.00 0.00 400.00 39.00" xmlns="http://www.w3.org/2000/svg" xmlns:xlink="http://www.w3.org/1999/xlink">
<g id="graph0" class="graph" transform="scale(1 1) rotate(0) translate(4 35)">
<title>CInventory::getItemsID</title>
<!-- Node14 -->
<g id="node1" class="node"><title>Node14</title>
<polygon fill="#bfbfbf" stroke="black" points="0,-6 0,-25 114,-25 114,-6 0,-6"/>
<text text-anchor="middle" x="57" y="-13" font-family="Helvetica,sans-Serif" font-size="10.00">CInventory::getItemsID</text>
</g>
<!-- Node15 -->
<g id="node2" class="node"><title>Node15</title>
<g id="a_node2"><a xlink:href="class_c_inventory_browser.html#a022cb6fc703bd156921816554c7a18b8" target="_top" xlink:title="CInventoryBrowser::\lprintInventory">
<polygon fill="none" stroke="black" points="150,-0.5 150,-30.5 253,-30.5 253,-0.5 150,-0.5"/>
<text text-anchor="start" x="158" y="-18.5" font-family="Helvetica,sans-Serif" font-size="10.00">CInventoryBrowser::</text>
<text text-anchor="middle" x="201.5" y="-7.5" font-family="Helvetica,sans-Serif" font-size="10.00">printInventory</text>
</a>
</g>
</g>
<!-- Node14&#45;&gt;Node15 -->
<g id="edge1" class="edge"><title>Node14&#45;&gt;Node15</title>
<path fill="none" stroke="midnightblue" d="M124.547,-15.5C132.994,-15.5 141.53,-15.5 149.677,-15.5"/>
<polygon fill="midnightblue" stroke="midnightblue" points="124.32,-12.0001 114.32,-15.5 124.32,-19.0001 124.32,-12.0001"/>
</g>
<!-- Node16 -->
<g id="node3" class="node"><title>Node16</title>
<g id="a_node3"><a xlink:href="class_c_inventory_browser.html#a91c51766048ba5629b125b9a444d31bb" target="_top" xlink:title="CInventoryBrowser::\loperator()">
<polygon fill="none" stroke="black" points="289,-0.5 289,-30.5 392,-30.5 392,-0.5 289,-0.5"/>
<text text-anchor="start" x="297" y="-18.5" font-family="Helvetica,sans-Serif" font-size="10.00">CInventoryBrowser::</text>
<text text-anchor="middle" x="340.5" y="-7.5" font-family="Helvetica,sans-Serif" font-size="10.00">operator()</text>
</a>
</g>
</g>
<!-- Node15&#45;&gt;Node16 -->
<g id="edge2" class="edge"><title>Node15&#45;&gt;Node16</title>
<path fill="none" stroke="midnightblue" d="M263.32,-15.5C271.772,-15.5 280.382,-15.5 288.626,-15.5"/>
<polygon fill="midnightblue" stroke="midnightblue" points="263.125,-12.0001 253.125,-15.5 263.124,-19.0001 263.125,-12.0001"/>
</g>
</g>
</svg>
