<?xml version="1.0" encoding="UTF-8" standalone="no"?>
<!DOCTYPE svg PUBLIC "-//W3C//DTD SVG 1.1//EN"
 "http://www.w3.org/Graphics/SVG/1.1/DTD/svg11.dtd">
<!-- Generated by graphviz version 2.38.0 (20140413.2041)
 -->
<!-- Title: CGame::play Pages: 1 -->
<svg width="406pt" height="80pt"
 viewBox="0.00 0.00 406.00 80.17" xmlns="http://www.w3.org/2000/svg" xmlns:xlink="http://www.w3.org/1999/xlink">
<g id="graph0" class="graph" transform="scale(1 1) rotate(0) translate(4 76.172)">
<title>CGame::play</title>
<!-- Node221 -->
<g id="node1" class="node"><title>Node221</title>
<polygon fill="#bfbfbf" stroke="black" points="0,-14.672 0,-33.672 74,-33.672 74,-14.672 0,-14.672"/>
<text text-anchor="middle" x="37" y="-21.672" font-family="Helvetica,sans-Serif" font-size="10.00">CGame::play</text>
</g>
<!-- Node222 -->
<g id="node2" class="node"><title>Node222</title>
<g id="a_node2"><a xlink:href="class_c_game.html#ac0a8028013ca5a7c135c29fa582df4a0" target="_top" xlink:title="CGame::checkHeroStatus">
<polygon fill="none" stroke="black" points="110,-52.672 110,-71.672 241,-71.672 241,-52.672 110,-52.672"/>
<text text-anchor="middle" x="175.5" y="-59.672" font-family="Helvetica,sans-Serif" font-size="10.00">CGame::checkHeroStatus</text>
</a>
</g>
</g>
<!-- Node221&#45;&gt;Node222 -->
<g id="edge1" class="edge"><title>Node221&#45;&gt;Node222</title>
<path fill="none" stroke="midnightblue" d="M82.2487,-36.4903C101.003,-41.7113 122.528,-47.7036 140.066,-52.5861"/>
<polygon fill="midnightblue" stroke="midnightblue" points="83.0171,-33.0712 72.4447,-33.761 81.1397,-39.8148 83.0171,-33.0712"/>
</g>
<!-- Node224 -->
<g id="node4" class="node"><title>Node224</title>
<g id="a_node4"><a xlink:href="main_8cpp.html#ae66f6b31b5ad750f1fe042a706a4e3d4" target="_top" xlink:title="main">
<polygon fill="none" stroke="black" points="156.5,-14.672 156.5,-33.672 194.5,-33.672 194.5,-14.672 156.5,-14.672"/>
<text text-anchor="middle" x="175.5" y="-21.672" font-family="Helvetica,sans-Serif" font-size="10.00">main</text>
</a>
</g>
</g>
<!-- Node221&#45;&gt;Node224 -->
<g id="edge4" class="edge"><title>Node221&#45;&gt;Node224</title>
<path fill="none" stroke="midnightblue" d="M84.4577,-24.172C109.045,-24.172 137.849,-24.172 156.132,-24.172"/>
<polygon fill="midnightblue" stroke="midnightblue" points="84.2212,-20.6721 74.2211,-24.172 84.2211,-27.6721 84.2212,-20.6721"/>
</g>
<!-- Node223 -->
<g id="node3" class="node"><title>Node223</title>
<g id="a_node3"><a xlink:href="class_c_game.html#a714b291af5e20aae8be14a905fd0522d" target="_top" xlink:title="CGame::tickComponent">
<polygon fill="none" stroke="black" points="277,-14.672 277,-33.672 398,-33.672 398,-14.672 277,-14.672"/>
<text text-anchor="middle" x="337.5" y="-21.672" font-family="Helvetica,sans-Serif" font-size="10.00">CGame::tickComponent</text>
</a>
</g>
</g>
<!-- Node222&#45;&gt;Node223 -->
<g id="edge2" class="edge"><title>Node222&#45;&gt;Node223</title>
<path fill="none" stroke="midnightblue" d="M226.892,-50.204C249.313,-44.8789 275.347,-38.6958 296.416,-33.6921"/>
<polygon fill="midnightblue" stroke="midnightblue" points="225.795,-46.8669 216.875,-52.583 227.413,-53.6775 225.795,-46.8669"/>
</g>
<!-- Node223&#45;&gt;Node221 -->
<g id="edge3" class="edge"><title>Node223&#45;&gt;Node221</title>
<path fill="none" stroke="midnightblue" d="M287.702,-12.5471C272.802,-9.51689 256.309,-6.68014 241,-5.17201 183.058,0.535897 167.738,2.31805 110,-5.17201 95.6411,-7.03471 80.0649,-10.9043 67.0851,-14.6681"/>
<polygon fill="midnightblue" stroke="midnightblue" points="287.222,-16.0228 297.729,-14.6619 288.666,-9.17347 287.222,-16.0228"/>
</g>
</g>
</svg>
