<?xml version="1.0" encoding="UTF-8" standalone="no"?>
<!DOCTYPE svg PUBLIC "-//W3C//DTD SVG 1.1//EN"
 "http://www.w3.org/Graphics/SVG/1.1/DTD/svg11.dtd">
<!-- Generated by graphviz version 2.38.0 (20140413.2041)
 -->
<!-- Title: CGame::loadGame Pages: 1 -->
<svg width="679pt" height="114pt"
 viewBox="0.00 0.00 679.00 114.00" xmlns="http://www.w3.org/2000/svg" xmlns:xlink="http://www.w3.org/1999/xlink">
<g id="graph0" class="graph" transform="scale(1 1) rotate(0) translate(4 110)">
<title>CGame::loadGame</title>
<!-- Node145 -->
<g id="node1" class="node"><title>Node145</title>
<polygon fill="#bfbfbf" stroke="black" points="0,-0.5 0,-19.5 100,-19.5 100,-0.5 0,-0.5"/>
<text text-anchor="middle" x="50" y="-7.5" font-family="Helvetica,sans-Serif" font-size="10.00">CGame::loadGame</text>
</g>
<!-- Node146 -->
<g id="node2" class="node"><title>Node146</title>
<g id="a_node2"><a xlink:href="class_c_game.html#a39e1e296c6dcabbf5c824eea6424d6d9" target="_top" xlink:title="CGame::mainMenu">
<polygon fill="none" stroke="black" points="136,-0.5 136,-19.5 237,-19.5 237,-0.5 136,-0.5"/>
<text text-anchor="middle" x="186.5" y="-7.5" font-family="Helvetica,sans-Serif" font-size="10.00">CGame::mainMenu</text>
</a>
</g>
</g>
<!-- Node145&#45;&gt;Node146 -->
<g id="edge1" class="edge"><title>Node145&#45;&gt;Node146</title>
<path fill="none" stroke="midnightblue" d="M110.486,-10C118.918,-10 127.515,-10 135.737,-10"/>
<polygon fill="midnightblue" stroke="midnightblue" points="110.319,-6.5001 100.319,-10 110.319,-13.5001 110.319,-6.5001"/>
</g>
<!-- Node147 -->
<g id="node3" class="node"><title>Node147</title>
<g id="a_node3"><a xlink:href="class_c_game.html#aa9d3da2fefa1c04faefc6586dbd37971" target="_top" xlink:title="CGame::play">
<polygon fill="none" stroke="black" points="273,-29.5 273,-48.5 347,-48.5 347,-29.5 273,-29.5"/>
<text text-anchor="middle" x="310" y="-36.5" font-family="Helvetica,sans-Serif" font-size="10.00">CGame::play</text>
</a>
</g>
</g>
<!-- Node146&#45;&gt;Node147 -->
<g id="edge2" class="edge"><title>Node146&#45;&gt;Node147</title>
<path fill="none" stroke="midnightblue" d="M237.361,-21.901C249.165,-24.7184 261.536,-27.6711 272.612,-30.3147"/>
<polygon fill="midnightblue" stroke="midnightblue" points="238.16,-18.4934 227.62,-19.5761 236.535,-25.3021 238.16,-18.4934"/>
</g>
<!-- Node149 -->
<g id="node5" class="node"><title>Node149</title>
<g id="a_node5"><a xlink:href="class_c_game.html#a714b291af5e20aae8be14a905fd0522d" target="_top" xlink:title="CGame::tickComponent">
<polygon fill="none" stroke="black" points="550,-10.5 550,-29.5 671,-29.5 671,-10.5 550,-10.5"/>
<text text-anchor="middle" x="610.5" y="-17.5" font-family="Helvetica,sans-Serif" font-size="10.00">CGame::tickComponent</text>
</a>
</g>
</g>
<!-- Node146&#45;&gt;Node149 -->
<g id="edge7" class="edge"><title>Node146&#45;&gt;Node149</title>
<path fill="none" stroke="midnightblue" d="M247.597,-11.4241C327.999,-13.3294 469.715,-16.6876 549.875,-18.5871"/>
<polygon fill="midnightblue" stroke="midnightblue" points="247.23,-7.91451 237.15,-11.1765 247.064,-14.9125 247.23,-7.91451"/>
</g>
<!-- Node148 -->
<g id="node4" class="node"><title>Node148</title>
<g id="a_node4"><a xlink:href="class_c_game.html#ac0a8028013ca5a7c135c29fa582df4a0" target="_top" xlink:title="CGame::checkHeroStatus">
<polygon fill="none" stroke="black" points="383,-86.5 383,-105.5 514,-105.5 514,-86.5 383,-86.5"/>
<text text-anchor="middle" x="448.5" y="-93.5" font-family="Helvetica,sans-Serif" font-size="10.00">CGame::checkHeroStatus</text>
</a>
</g>
</g>
<!-- Node147&#45;&gt;Node148 -->
<g id="edge3" class="edge"><title>Node147&#45;&gt;Node148</title>
<path fill="none" stroke="midnightblue" d="M335.634,-53.569C349.276,-61.2331 366.723,-70.3842 383,-77 391.76,-80.5603 401.434,-83.7698 410.566,-86.494"/>
<polygon fill="midnightblue" stroke="midnightblue" points="337.276,-50.4765 326.858,-48.55 333.801,-56.5529 337.276,-50.4765"/>
</g>
<!-- Node150 -->
<g id="node6" class="node"><title>Node150</title>
<g id="a_node6"><a xlink:href="main_8cpp.html#ae66f6b31b5ad750f1fe042a706a4e3d4" target="_top" xlink:title="main">
<polygon fill="none" stroke="black" points="429.5,-48.5 429.5,-67.5 467.5,-67.5 467.5,-48.5 429.5,-48.5"/>
<text text-anchor="middle" x="448.5" y="-55.5" font-family="Helvetica,sans-Serif" font-size="10.00">main</text>
</a>
</g>
</g>
<!-- Node147&#45;&gt;Node150 -->
<g id="edge6" class="edge"><title>Node147&#45;&gt;Node150</title>
<path fill="none" stroke="midnightblue" d="M357.129,-45.4208C381.788,-48.8533 410.768,-52.8871 429.132,-55.4433"/>
<polygon fill="midnightblue" stroke="midnightblue" points="357.608,-41.9539 347.221,-44.0418 356.643,-48.8871 357.608,-41.9539"/>
</g>
<!-- Node148&#45;&gt;Node149 -->
<g id="edge4" class="edge"><title>Node148&#45;&gt;Node149</title>
<path fill="none" stroke="midnightblue" d="M497.837,-83.2149C503.361,-81.3274 508.853,-79.2512 514,-77 544.782,-63.5375 577.838,-42.043 595.857,-29.6543"/>
<polygon fill="midnightblue" stroke="midnightblue" points="496.372,-80.0097 487.925,-86.4056 498.517,-86.673 496.372,-80.0097"/>
</g>
<!-- Node149&#45;&gt;Node147 -->
<g id="edge5" class="edge"><title>Node149&#45;&gt;Node147</title>
<path fill="none" stroke="midnightblue" d="M539.704,-24.4426C479.365,-28.2833 394.572,-33.6805 347.006,-36.7082"/>
<polygon fill="midnightblue" stroke="midnightblue" points="540.161,-27.9207 549.918,-23.7925 539.716,-20.9349 540.161,-27.9207"/>
</g>
</g>
</svg>
