<?xml version="1.0" encoding="UTF-8" standalone="no"?>
<!DOCTYPE svg PUBLIC "-//W3C//DTD SVG 1.1//EN"
 "http://www.w3.org/Graphics/SVG/1.1/DTD/svg11.dtd">
<!-- Generated by graphviz version 2.38.0 (20140413.2041)
 -->
<!-- Title: CHero::getName Pages: 1 -->
<svg width="605pt" height="47pt"
 viewBox="0.00 0.00 605.00 47.00" xmlns="http://www.w3.org/2000/svg" xmlns:xlink="http://www.w3.org/1999/xlink">
<g id="graph0" class="graph" transform="scale(1 1) rotate(0) translate(4 43)">
<title>CHero::getName</title>
<!-- Node64 -->
<g id="node1" class="node"><title>Node64</title>
<polygon fill="#bfbfbf" stroke="black" points="0,-0.5 0,-19.5 89,-19.5 89,-0.5 0,-0.5"/>
<text text-anchor="middle" x="44.5" y="-7.5" font-family="Helvetica,sans-Serif" font-size="10.00">CHero::getName</text>
</g>
<!-- Node65 -->
<g id="node2" class="node"><title>Node65</title>
<g id="a_node2"><a xlink:href="class_c_game.html#ac0a8028013ca5a7c135c29fa582df4a0" target="_top" xlink:title="CGame::checkHeroStatus">
<polygon fill="none" stroke="black" points="125,-0.5 125,-19.5 256,-19.5 256,-0.5 125,-0.5"/>
<text text-anchor="middle" x="190.5" y="-7.5" font-family="Helvetica,sans-Serif" font-size="10.00">CGame::checkHeroStatus</text>
</a>
</g>
</g>
<!-- Node64&#45;&gt;Node65 -->
<g id="edge1" class="edge"><title>Node64&#45;&gt;Node65</title>
<path fill="none" stroke="midnightblue" d="M99.1015,-10C107.477,-10 116.208,-10 124.799,-10"/>
<polygon fill="midnightblue" stroke="midnightblue" points="99.0956,-6.5001 89.0955,-10 99.0955,-13.5001 99.0956,-6.5001"/>
</g>
<!-- Node66 -->
<g id="node3" class="node"><title>Node66</title>
<g id="a_node3"><a xlink:href="class_c_game.html#a714b291af5e20aae8be14a905fd0522d" target="_top" xlink:title="CGame::tickComponent">
<polygon fill="none" stroke="black" points="292,-19.5 292,-38.5 413,-38.5 413,-19.5 292,-19.5"/>
<text text-anchor="middle" x="352.5" y="-26.5" font-family="Helvetica,sans-Serif" font-size="10.00">CGame::tickComponent</text>
</a>
</g>
</g>
<!-- Node65&#45;&gt;Node66 -->
<g id="edge2" class="edge"><title>Node65&#45;&gt;Node66</title>
<path fill="none" stroke="midnightblue" d="M266.155,-18.8653C274.759,-19.887 283.446,-20.9186 291.815,-21.9124"/>
<polygon fill="midnightblue" stroke="midnightblue" points="266.46,-15.377 256.117,-17.6733 265.634,-22.3281 266.46,-15.377"/>
</g>
<!-- Node67 -->
<g id="node4" class="node"><title>Node67</title>
<g id="a_node4"><a xlink:href="class_c_game.html#aa9d3da2fefa1c04faefc6586dbd37971" target="_top" xlink:title="CGame::play">
<polygon fill="none" stroke="black" points="449,-0.5 449,-19.5 523,-19.5 523,-0.5 449,-0.5"/>
<text text-anchor="middle" x="486" y="-7.5" font-family="Helvetica,sans-Serif" font-size="10.00">CGame::play</text>
</a>
</g>
</g>
<!-- Node66&#45;&gt;Node67 -->
<g id="edge3" class="edge"><title>Node66&#45;&gt;Node67</title>
<path fill="none" stroke="midnightblue" d="M423.157,-18.9354C432.065,-17.6483 440.878,-16.3751 448.937,-15.2107"/>
<polygon fill="midnightblue" stroke="midnightblue" points="422.491,-15.4953 413.094,-20.3895 423.492,-22.4234 422.491,-15.4953"/>
</g>
<!-- Node67&#45;&gt;Node65 -->
<g id="edge4" class="edge"><title>Node67&#45;&gt;Node65</title>
<path fill="none" stroke="midnightblue" d="M438.926,-10C389.793,-10 311.592,-10 256.273,-10"/>
<polygon fill="midnightblue" stroke="midnightblue" points="438.951,-13.5001 448.951,-10 438.951,-6.5001 438.951,-13.5001"/>
</g>
<!-- Node68 -->
<g id="node5" class="node"><title>Node68</title>
<g id="a_node5"><a xlink:href="main_8cpp.html#ae66f6b31b5ad750f1fe042a706a4e3d4" target="_top" xlink:title="main">
<polygon fill="none" stroke="black" points="559,-0.5 559,-19.5 597,-19.5 597,-0.5 559,-0.5"/>
<text text-anchor="middle" x="578" y="-7.5" font-family="Helvetica,sans-Serif" font-size="10.00">main</text>
</a>
</g>
</g>
<!-- Node67&#45;&gt;Node68 -->
<g id="edge5" class="edge"><title>Node67&#45;&gt;Node68</title>
<path fill="none" stroke="midnightblue" d="M533.326,-10C542.437,-10 551.476,-10 558.946,-10"/>
<polygon fill="midnightblue" stroke="midnightblue" points="533.088,-6.5001 523.088,-10 533.088,-13.5001 533.088,-6.5001"/>
</g>
</g>
</svg>
