<?xml version="1.0" encoding="UTF-8" standalone="no"?>
<!DOCTYPE svg PUBLIC "-//W3C//DTD SVG 1.1//EN"
 "http://www.w3.org/Graphics/SVG/1.1/DTD/svg11.dtd">
<!-- Generated by graphviz version 2.38.0 (20140413.2041)
 -->
<!-- Title: CGame::saveGame Pages: 1 -->
<svg width="543pt" height="66pt"
 viewBox="0.00 0.00 543.00 66.00" xmlns="http://www.w3.org/2000/svg" xmlns:xlink="http://www.w3.org/1999/xlink">
<g id="graph0" class="graph" transform="scale(1 1) rotate(0) translate(4 62)">
<title>CGame::saveGame</title>
<!-- Node251 -->
<g id="node1" class="node"><title>Node251</title>
<polygon fill="#bfbfbf" stroke="black" points="0,-19.5 0,-38.5 101,-38.5 101,-19.5 0,-19.5"/>
<text text-anchor="middle" x="50.5" y="-26.5" font-family="Helvetica,sans-Serif" font-size="10.00">CGame::saveGame</text>
</g>
<!-- Node252 -->
<g id="node2" class="node"><title>Node252</title>
<g id="a_node2"><a xlink:href="class_c_game.html#a714b291af5e20aae8be14a905fd0522d" target="_top" xlink:title="CGame::tickComponent">
<polygon fill="none" stroke="black" points="137,-19.5 137,-38.5 258,-38.5 258,-19.5 137,-19.5"/>
<text text-anchor="middle" x="197.5" y="-26.5" font-family="Helvetica,sans-Serif" font-size="10.00">CGame::tickComponent</text>
</a>
</g>
</g>
<!-- Node251&#45;&gt;Node252 -->
<g id="edge1" class="edge"><title>Node251&#45;&gt;Node252</title>
<path fill="none" stroke="midnightblue" d="M111.451,-29C119.81,-29 128.398,-29 136.753,-29"/>
<polygon fill="midnightblue" stroke="midnightblue" points="111.401,-25.5001 101.401,-29 111.401,-32.5001 111.401,-25.5001"/>
</g>
<!-- Node253 -->
<g id="node3" class="node"><title>Node253</title>
<g id="a_node3"><a xlink:href="class_c_game.html#aa9d3da2fefa1c04faefc6586dbd37971" target="_top" xlink:title="CGame::play">
<polygon fill="none" stroke="black" points="294,-0.5 294,-19.5 368,-19.5 368,-0.5 294,-0.5"/>
<text text-anchor="middle" x="331" y="-7.5" font-family="Helvetica,sans-Serif" font-size="10.00">CGame::play</text>
</a>
</g>
</g>
<!-- Node252&#45;&gt;Node253 -->
<g id="edge2" class="edge"><title>Node252&#45;&gt;Node253</title>
<path fill="none" stroke="midnightblue" d="M268.157,-18.9354C277.065,-17.6483 285.878,-16.3751 293.937,-15.2107"/>
<polygon fill="midnightblue" stroke="midnightblue" points="267.491,-15.4953 258.094,-20.3895 268.492,-22.4234 267.491,-15.4953"/>
</g>
<!-- Node254 -->
<g id="node4" class="node"><title>Node254</title>
<g id="a_node4"><a xlink:href="class_c_game.html#ac0a8028013ca5a7c135c29fa582df4a0" target="_top" xlink:title="CGame::checkHeroStatus">
<polygon fill="none" stroke="black" points="404,-38.5 404,-57.5 535,-57.5 535,-38.5 404,-38.5"/>
<text text-anchor="middle" x="469.5" y="-45.5" font-family="Helvetica,sans-Serif" font-size="10.00">CGame::checkHeroStatus</text>
</a>
</g>
</g>
<!-- Node253&#45;&gt;Node254 -->
<g id="edge3" class="edge"><title>Node253&#45;&gt;Node254</title>
<path fill="none" stroke="midnightblue" d="M376.249,-22.3183C395.003,-27.5393 416.528,-33.5316 434.066,-38.4141"/>
<polygon fill="midnightblue" stroke="midnightblue" points="377.017,-18.8992 366.445,-19.589 375.14,-25.6428 377.017,-18.8992"/>
</g>
<!-- Node255 -->
<g id="node5" class="node"><title>Node255</title>
<g id="a_node5"><a xlink:href="main_8cpp.html#ae66f6b31b5ad750f1fe042a706a4e3d4" target="_top" xlink:title="main">
<polygon fill="none" stroke="black" points="450.5,-0.5 450.5,-19.5 488.5,-19.5 488.5,-0.5 450.5,-0.5"/>
<text text-anchor="middle" x="469.5" y="-7.5" font-family="Helvetica,sans-Serif" font-size="10.00">main</text>
</a>
</g>
</g>
<!-- Node253&#45;&gt;Node255 -->
<g id="edge5" class="edge"><title>Node253&#45;&gt;Node255</title>
<path fill="none" stroke="midnightblue" d="M378.458,-10C403.045,-10 431.849,-10 450.132,-10"/>
<polygon fill="midnightblue" stroke="midnightblue" points="378.221,-6.5001 368.221,-10 378.221,-13.5001 378.221,-6.5001"/>
</g>
<!-- Node254&#45;&gt;Node252 -->
<g id="edge4" class="edge"><title>Node254&#45;&gt;Node252</title>
<path fill="none" stroke="midnightblue" d="M393.793,-42.7429C351.008,-39.7321 298.055,-36.0057 258.087,-33.1932"/>
<polygon fill="midnightblue" stroke="midnightblue" points="393.654,-46.2416 403.875,-43.4523 394.146,-39.2589 393.654,-46.2416"/>
</g>
</g>
</svg>
