<?xml version="1.0" encoding="UTF-8" standalone="no"?>
<!DOCTYPE svg PUBLIC "-//W3C//DTD SVG 1.1//EN"
 "http://www.w3.org/Graphics/SVG/1.1/DTD/svg11.dtd">
<!-- Generated by graphviz version 2.38.0 (20140413.2041)
 -->
<!-- Title: CDisplay::multiChoice Pages: 1 -->
<svg width="692pt" height="163pt"
 viewBox="0.00 0.00 692.00 163.06" xmlns="http://www.w3.org/2000/svg" xmlns:xlink="http://www.w3.org/1999/xlink">
<g id="graph0" class="graph" transform="scale(1 1) rotate(0) translate(4 159.065)">
<title>CDisplay::multiChoice</title>
<!-- Node41 -->
<g id="node1" class="node"><title>Node41</title>
<polygon fill="#bfbfbf" stroke="black" points="0,-40.5645 0,-59.5645 113,-59.5645 113,-40.5645 0,-40.5645"/>
<text text-anchor="middle" x="56.5" y="-47.5645" font-family="Helvetica,sans-Serif" font-size="10.00">CDisplay::multiChoice</text>
</g>
<!-- Node42 -->
<g id="node2" class="node"><title>Node42</title>
<g id="a_node2"><a xlink:href="class_c_choice.html#aeccaa71a8fcd358215fe0ddbc37ab143" target="_top" xlink:title="CChoice::execute">
<polygon fill="none" stroke="black" points="152.5,-97.5645 152.5,-116.565 246.5,-116.565 246.5,-97.5645 152.5,-97.5645"/>
<text text-anchor="middle" x="199.5" y="-104.565" font-family="Helvetica,sans-Serif" font-size="10.00">CChoice::execute</text>
</a>
</g>
</g>
<!-- Node41&#45;&gt;Node42 -->
<g id="edge1" class="edge"><title>Node41&#45;&gt;Node42</title>
<path fill="none" stroke="midnightblue" d="M89.2256,-63.4885C106.794,-70.8597 129.053,-80.0961 149,-88.0645 156.864,-91.2062 165.469,-94.5437 173.267,-97.5304"/>
<polygon fill="midnightblue" stroke="midnightblue" points="90.5668,-60.2557 79.992,-59.6051 87.853,-66.7082 90.5668,-60.2557"/>
</g>
<!-- Node43 -->
<g id="node3" class="node"><title>Node43</title>
<g id="a_node3"><a xlink:href="class_c_fight.html#ac820b62e70990ddc90ecb959f4497f8f" target="_top" xlink:title="CFight::execute">
<polygon fill="none" stroke="black" points="156.5,-59.5645 156.5,-78.5645 242.5,-78.5645 242.5,-59.5645 156.5,-59.5645"/>
<text text-anchor="middle" x="199.5" y="-66.5645" font-family="Helvetica,sans-Serif" font-size="10.00">CFight::execute</text>
</a>
</g>
</g>
<!-- Node41&#45;&gt;Node43 -->
<g id="edge2" class="edge"><title>Node41&#45;&gt;Node43</title>
<path fill="none" stroke="midnightblue" d="M123.402,-58.9449C134.564,-60.449 145.88,-61.9739 156.225,-63.3679"/>
<polygon fill="midnightblue" stroke="midnightblue" points="123.605,-55.4407 113.227,-57.5738 122.67,-62.378 123.605,-55.4407"/>
</g>
<!-- Node44 -->
<g id="node4" class="node"><title>Node44</title>
<g id="a_node4"><a xlink:href="class_c_game.html#a39e1e296c6dcabbf5c824eea6424d6d9" target="_top" xlink:title="CGame::mainMenu">
<polygon fill="none" stroke="black" points="149,-21.5645 149,-40.5645 250,-40.5645 250,-21.5645 149,-21.5645"/>
<text text-anchor="middle" x="199.5" y="-28.5645" font-family="Helvetica,sans-Serif" font-size="10.00">CGame::mainMenu</text>
</a>
</g>
</g>
<!-- Node41&#45;&gt;Node44 -->
<g id="edge3" class="edge"><title>Node41&#45;&gt;Node44</title>
<path fill="none" stroke="midnightblue" d="M123.204,-41.2108C131.765,-40.0571 140.422,-38.8907 148.665,-37.7799"/>
<polygon fill="midnightblue" stroke="midnightblue" points="122.67,-37.751 113.227,-42.5552 123.605,-44.6883 122.67,-37.751"/>
</g>
<!-- Node47 -->
<g id="node7" class="node"><title>Node47</title>
<g id="a_node7"><a xlink:href="class_c_game.html#a714b291af5e20aae8be14a905fd0522d" target="_top" xlink:title="CGame::tickComponent">
<polygon fill="none" stroke="black" points="563,-40.5645 563,-59.5645 684,-59.5645 684,-40.5645 563,-40.5645"/>
<text text-anchor="middle" x="623.5" y="-47.5645" font-family="Helvetica,sans-Serif" font-size="10.00">CGame::tickComponent</text>
</a>
</g>
</g>
<!-- Node41&#45;&gt;Node47 -->
<g id="edge10" class="edge"><title>Node41&#45;&gt;Node47</title>
<path fill="none" stroke="midnightblue" d="M83.9054,-35.8285C101.725,-27.0537 126.085,-16.6337 149,-12.0645 310.148,20.0674 507.284,-20.8383 586.768,-40.5532"/>
<polygon fill="midnightblue" stroke="midnightblue" points="82.062,-32.8391 74.7295,-40.4866 85.2306,-39.0809 82.062,-32.8391"/>
</g>
<!-- Node45 -->
<g id="node5" class="node"><title>Node45</title>
<g id="a_node5"><a xlink:href="class_c_game.html#aa9d3da2fefa1c04faefc6586dbd37971" target="_top" xlink:title="CGame::play">
<polygon fill="none" stroke="black" points="286,-78.5645 286,-97.5645 360,-97.5645 360,-78.5645 286,-78.5645"/>
<text text-anchor="middle" x="323" y="-85.5645" font-family="Helvetica,sans-Serif" font-size="10.00">CGame::play</text>
</a>
</g>
</g>
<!-- Node44&#45;&gt;Node45 -->
<g id="edge4" class="edge"><title>Node44&#45;&gt;Node45</title>
<path fill="none" stroke="midnightblue" d="M236.852,-44.4461C241.314,-46.2561 245.784,-48.1511 250,-50.0645 269.306,-58.8267 290.707,-70.3669 305.12,-78.4215"/>
<polygon fill="midnightblue" stroke="midnightblue" points="237.788,-41.0529 227.201,-40.6456 235.223,-47.5661 237.788,-41.0529"/>
</g>
<!-- Node44&#45;&gt;Node47 -->
<g id="edge9" class="edge"><title>Node44&#45;&gt;Node47</title>
<path fill="none" stroke="midnightblue" d="M260.597,-33.7703C340.999,-37.3903 482.715,-43.7709 562.875,-47.38"/>
<polygon fill="midnightblue" stroke="midnightblue" points="260.297,-30.2533 250.15,-33.2999 259.982,-37.2463 260.297,-30.2533"/>
</g>
<!-- Node46 -->
<g id="node6" class="node"><title>Node46</title>
<g id="a_node6"><a xlink:href="class_c_game.html#ac0a8028013ca5a7c135c29fa582df4a0" target="_top" xlink:title="CGame::checkHeroStatus">
<polygon fill="none" stroke="black" points="396,-135.565 396,-154.565 527,-154.565 527,-135.565 396,-135.565"/>
<text text-anchor="middle" x="461.5" y="-142.565" font-family="Helvetica,sans-Serif" font-size="10.00">CGame::checkHeroStatus</text>
</a>
</g>
</g>
<!-- Node45&#45;&gt;Node46 -->
<g id="edge5" class="edge"><title>Node45&#45;&gt;Node46</title>
<path fill="none" stroke="midnightblue" d="M348.634,-102.633C362.276,-110.298 379.723,-119.449 396,-126.065 404.76,-129.625 414.434,-132.834 423.566,-135.558"/>
<polygon fill="midnightblue" stroke="midnightblue" points="350.276,-99.541 339.858,-97.6145 346.801,-105.617 350.276,-99.541"/>
</g>
<!-- Node48 -->
<g id="node8" class="node"><title>Node48</title>
<g id="a_node8"><a xlink:href="main_8cpp.html#ae66f6b31b5ad750f1fe042a706a4e3d4" target="_top" xlink:title="main">
<polygon fill="none" stroke="black" points="442.5,-97.5645 442.5,-116.565 480.5,-116.565 480.5,-97.5645 442.5,-97.5645"/>
<text text-anchor="middle" x="461.5" y="-104.565" font-family="Helvetica,sans-Serif" font-size="10.00">main</text>
</a>
</g>
</g>
<!-- Node45&#45;&gt;Node48 -->
<g id="edge8" class="edge"><title>Node45&#45;&gt;Node48</title>
<path fill="none" stroke="midnightblue" d="M370.129,-94.4854C394.788,-97.9178 423.768,-101.952 442.132,-104.508"/>
<polygon fill="midnightblue" stroke="midnightblue" points="370.608,-91.0184 360.221,-93.1063 369.643,-97.9516 370.608,-91.0184"/>
</g>
<!-- Node46&#45;&gt;Node47 -->
<g id="edge6" class="edge"><title>Node46&#45;&gt;Node47</title>
<path fill="none" stroke="midnightblue" d="M513.39,-132.114C518.088,-130.314 522.695,-128.302 527,-126.065 562.159,-107.791 596.91,-75.6614 613.089,-59.6692"/>
<polygon fill="midnightblue" stroke="midnightblue" points="511.965,-128.905 503.687,-135.518 514.282,-135.51 511.965,-128.905"/>
</g>
<!-- Node47&#45;&gt;Node45 -->
<g id="edge7" class="edge"><title>Node47&#45;&gt;Node45</title>
<path fill="none" stroke="midnightblue" d="M552.704,-58.9498C492.365,-66.6311 407.572,-77.4255 360.006,-83.4808"/>
<polygon fill="midnightblue" stroke="midnightblue" points="553.441,-62.3843 562.918,-57.6494 552.556,-55.4404 553.441,-62.3843"/>
</g>
</g>
</svg>
