<?xml version="1.0" encoding="UTF-8" standalone="no"?>
<!DOCTYPE svg PUBLIC "-//W3C//DTD SVG 1.1//EN"
 "http://www.w3.org/Graphics/SVG/1.1/DTD/svg11.dtd">
<!-- Generated by graphviz version 2.38.0 (20140413.2041)
 -->
<!-- Title: CGame::reset Pages: 1 -->
<svg width="228pt" height="180pt"
 viewBox="0.00 0.00 228.00 180.00" xmlns="http://www.w3.org/2000/svg" xmlns:xlink="http://www.w3.org/1999/xlink">
<g id="graph0" class="graph" transform="scale(1 1) rotate(0) translate(4 176)">
<title>CGame::reset</title>
<!-- Node225 -->
<g id="node1" class="node"><title>Node225</title>
<polygon fill="#bfbfbf" stroke="black" points="0,-76.5 0,-95.5 77,-95.5 77,-76.5 0,-76.5"/>
<text text-anchor="middle" x="38.5" y="-83.5" font-family="Helvetica,sans-Serif" font-size="10.00">CGame::reset</text>
</g>
<!-- Node226 -->
<g id="node2" class="node"><title>Node226</title>
<g id="a_node2"><a xlink:href="class_c_display.html#a54c5d36f4bc11d4a935ff5c86ea4e653" target="_top" xlink:title="CDisplay::print">
<polygon fill="none" stroke="black" points="126.5,-152.5 126.5,-171.5 206.5,-171.5 206.5,-152.5 126.5,-152.5"/>
<text text-anchor="middle" x="166.5" y="-159.5" font-family="Helvetica,sans-Serif" font-size="10.00">CDisplay::print</text>
</a>
</g>
</g>
<!-- Node225&#45;&gt;Node226 -->
<g id="edge1" class="edge"><title>Node225&#45;&gt;Node226</title>
<path fill="none" stroke="midnightblue" d="M49.7169,-95.6258C63.2782,-107.984 88.3886,-129.445 113,-143 116.677,-145.025 120.613,-146.909 124.615,-148.642"/>
<polygon fill="midnightblue" stroke="midnightblue" points="123.397,-151.924 133.981,-152.404 126.006,-145.429 123.397,-151.924"/>
</g>
<!-- Node227 -->
<g id="node3" class="node"><title>Node227</title>
<g id="a_node3"><a xlink:href="class_c_storyline.html#ad8c62b61513d498b53454aeaf621dda0" target="_top" xlink:title="CStoryline::update">
<polygon fill="none" stroke="black" points="118,-114.5 118,-133.5 215,-133.5 215,-114.5 118,-114.5"/>
<text text-anchor="middle" x="166.5" y="-121.5" font-family="Helvetica,sans-Serif" font-size="10.00">CStoryline::update</text>
</a>
</g>
</g>
<!-- Node225&#45;&gt;Node227 -->
<g id="edge2" class="edge"><title>Node225&#45;&gt;Node227</title>
<path fill="none" stroke="midnightblue" d="M71.2951,-95.589C87.2621,-100.404 106.807,-106.299 123.947,-111.468"/>
<polygon fill="midnightblue" stroke="midnightblue" points="123.13,-114.878 133.715,-114.414 125.152,-108.176 123.13,-114.878"/>
</g>
<!-- Node228 -->
<g id="node4" class="node"><title>Node228</title>
<g id="a_node4"><a xlink:href="class_c_world.html#a72b79b6801a9e7ae670cc3790acf31d2" target="_top" xlink:title="CWorld::getStoryline">
<polygon fill="none" stroke="black" points="113,-76.5 113,-95.5 220,-95.5 220,-76.5 113,-76.5"/>
<text text-anchor="middle" x="166.5" y="-83.5" font-family="Helvetica,sans-Serif" font-size="10.00">CWorld::getStoryline</text>
</a>
</g>
</g>
<!-- Node225&#45;&gt;Node228 -->
<g id="edge3" class="edge"><title>Node225&#45;&gt;Node228</title>
<path fill="none" stroke="midnightblue" d="M77.3042,-86C85.3277,-86 94.0041,-86 102.676,-86"/>
<polygon fill="midnightblue" stroke="midnightblue" points="102.815,-89.5001 112.815,-86 102.815,-82.5001 102.815,-89.5001"/>
</g>
<!-- Node229 -->
<g id="node5" class="node"><title>Node229</title>
<g id="a_node5"><a xlink:href="class_c_shopping.html#aa232d999181d07bfd6ec0ec5c645f51b" target="_top" xlink:title="CShopping::update">
<polygon fill="none" stroke="black" points="117,-38.5 117,-57.5 216,-57.5 216,-38.5 117,-38.5"/>
<text text-anchor="middle" x="166.5" y="-45.5" font-family="Helvetica,sans-Serif" font-size="10.00">CShopping::update</text>
</a>
</g>
</g>
<!-- Node225&#45;&gt;Node229 -->
<g id="edge4" class="edge"><title>Node225&#45;&gt;Node229</title>
<path fill="none" stroke="midnightblue" d="M71.2951,-76.411C87.2621,-71.5956 106.807,-65.7012 123.947,-60.532"/>
<polygon fill="midnightblue" stroke="midnightblue" points="125.152,-63.8244 133.715,-57.5859 123.13,-57.1225 125.152,-63.8244"/>
</g>
<!-- Node230 -->
<g id="node6" class="node"><title>Node230</title>
<g id="a_node6"><a xlink:href="class_c_world.html#a1c10d5ec2514347fd3fe28f85b23db13" target="_top" xlink:title="CWorld::getAllItemID">
<polygon fill="none" stroke="black" points="113,-0.5 113,-19.5 220,-19.5 220,-0.5 113,-0.5"/>
<text text-anchor="middle" x="166.5" y="-7.5" font-family="Helvetica,sans-Serif" font-size="10.00">CWorld::getAllItemID</text>
</a>
</g>
</g>
<!-- Node225&#45;&gt;Node230 -->
<g id="edge5" class="edge"><title>Node225&#45;&gt;Node230</title>
<path fill="none" stroke="midnightblue" d="M49.7169,-76.3742C63.2782,-64.0164 88.3886,-42.5552 113,-29 116.677,-26.9746 120.613,-25.0906 124.615,-23.3583"/>
<polygon fill="midnightblue" stroke="midnightblue" points="126.006,-26.5714 133.981,-19.596 123.397,-20.0759 126.006,-26.5714"/>
</g>
</g>
</svg>
