<?xml version="1.0" encoding="UTF-8" standalone="no"?>
<!DOCTYPE svg PUBLIC "-//W3C//DTD SVG 1.1//EN"
 "http://www.w3.org/Graphics/SVG/1.1/DTD/svg11.dtd">
<!-- Generated by graphviz version 2.38.0 (20140413.2041)
 -->
<!-- Title: CDisplay Pages: 1 -->
<svg width="149pt" height="270pt"
 viewBox="0.00 0.00 149.00 270.00" xmlns="http://www.w3.org/2000/svg" xmlns:xlink="http://www.w3.org/1999/xlink">
<g id="graph0" class="graph" transform="scale(1 1) rotate(0) translate(4 266)">
<title>CDisplay</title>
<!-- Node1 -->
<g id="node1" class="node"><title>Node1</title>
<polygon fill="#bfbfbf" stroke="black" points="15.5,-0.5 15.5,-156.5 124.5,-156.5 124.5,-0.5 15.5,-0.5"/>
<text text-anchor="middle" x="70" y="-144.5" font-family="Helvetica,sans-Serif" font-size="10.00">CDisplay</text>
<polyline fill="none" stroke="black" points="15.5,-137.5 124.5,-137.5 "/>
<text text-anchor="middle" x="70" y="-125.5" font-family="Helvetica,sans-Serif" font-size="10.00"> </text>
<polyline fill="none" stroke="black" points="15.5,-118.5 124.5,-118.5 "/>
<text text-anchor="start" x="23.5" y="-106.5" font-family="Helvetica,sans-Serif" font-size="10.00">+ CDisplay()</text>
<text text-anchor="start" x="23.5" y="-95.5" font-family="Helvetica,sans-Serif" font-size="10.00">+ multiChoice()</text>
<text text-anchor="start" x="23.5" y="-84.5" font-family="Helvetica,sans-Serif" font-size="10.00">+ getString()</text>
<text text-anchor="start" x="23.5" y="-73.5" font-family="Helvetica,sans-Serif" font-size="10.00">+ getNumber()</text>
<text text-anchor="start" x="23.5" y="-62.5" font-family="Helvetica,sans-Serif" font-size="10.00">+ wait()</text>
<text text-anchor="start" x="23.5" y="-51.5" font-family="Helvetica,sans-Serif" font-size="10.00">+ print()</text>
<text text-anchor="start" x="23.5" y="-40.5" font-family="Helvetica,sans-Serif" font-size="10.00">+ printDelimiter()</text>
<text text-anchor="start" x="23.5" y="-29.5" font-family="Helvetica,sans-Serif" font-size="10.00">+ printWithDelimiter()</text>
<text text-anchor="start" x="23.5" y="-18.5" font-family="Helvetica,sans-Serif" font-size="10.00">+ printError()</text>
<text text-anchor="start" x="23.5" y="-7.5" font-family="Helvetica,sans-Serif" font-size="10.00">+ dumpToNewLine()</text>
</g>
<!-- Node2 -->
<g id="node2" class="node"><title>Node2</title>
<polygon fill="none" stroke="#bfbfbf" points="0,-204.5 0,-261.5 62,-261.5 62,-204.5 0,-204.5"/>
<text text-anchor="middle" x="31" y="-249.5" font-family="Helvetica,sans-Serif" font-size="10.00">ostream &amp;</text>
<polyline fill="none" stroke="#bfbfbf" points="0,-242.5 62,-242.5 "/>
<text text-anchor="middle" x="31" y="-230.5" font-family="Helvetica,sans-Serif" font-size="10.00"> </text>
<polyline fill="none" stroke="#bfbfbf" points="0,-223.5 62,-223.5 "/>
<text text-anchor="middle" x="31" y="-211.5" font-family="Helvetica,sans-Serif" font-size="10.00"> </text>
</g>
<!-- Node2&#45;&gt;Node1 -->
<g id="edge1" class="edge"><title>Node2&#45;&gt;Node1</title>
<path fill="none" stroke="#404040" d="M33.9039,-204.279C35.1457,-194.916 36.8218,-184.445 39,-175 39.4998,-172.833 40.0267,-170.645 40.5769,-168.443"/>
<polygon fill="none" stroke="#404040" points="40.6465,-168.18 38.3155,-161.356 43.7181,-156.579 46.049,-163.403 40.6465,-168.18"/>
<text text-anchor="middle" x="63.5" y="-178" font-family="Helvetica,sans-Serif" font-size="10.00"> #outputStr</text>
</g>
<!-- Node3 -->
<g id="node3" class="node"><title>Node3</title>
<polygon fill="none" stroke="#bfbfbf" points="80.5,-204.5 80.5,-261.5 139.5,-261.5 139.5,-204.5 80.5,-204.5"/>
<text text-anchor="middle" x="110" y="-249.5" font-family="Helvetica,sans-Serif" font-size="10.00">istream &amp;</text>
<polyline fill="none" stroke="#bfbfbf" points="80.5,-242.5 139.5,-242.5 "/>
<text text-anchor="middle" x="110" y="-230.5" font-family="Helvetica,sans-Serif" font-size="10.00"> </text>
<polyline fill="none" stroke="#bfbfbf" points="80.5,-223.5 139.5,-223.5 "/>
<text text-anchor="middle" x="110" y="-211.5" font-family="Helvetica,sans-Serif" font-size="10.00"> </text>
</g>
<!-- Node3&#45;&gt;Node1 -->
<g id="edge2" class="edge"><title>Node3&#45;&gt;Node1</title>
<path fill="none" stroke="#404040" d="M102.756,-204.383C100.033,-194 96.7678,-181.552 93.3691,-168.595"/>
<polygon fill="none" stroke="#404040" points="93.2666,-168.204 87.8752,-163.415 90.222,-156.596 95.6134,-161.385 93.2666,-168.204"/>
<text text-anchor="middle" x="119.5" y="-178" font-family="Helvetica,sans-Serif" font-size="10.00"> #inputStr</text>
</g>
</g>
</svg>
