<?xml version="1.0" encoding="UTF-8" standalone="no"?>
<!DOCTYPE svg PUBLIC "-//W3C//DTD SVG 1.1//EN"
 "http://www.w3.org/Graphics/SVG/1.1/DTD/svg11.dtd">
<!-- Generated by graphviz version 2.38.0 (20140413.2041)
 -->
<!-- Title: CGame::checkHeroStatus Pages: 1 -->
<svg width="480pt" height="47pt"
 viewBox="0.00 0.00 480.00 47.00" xmlns="http://www.w3.org/2000/svg" xmlns:xlink="http://www.w3.org/1999/xlink">
<g id="graph0" class="graph" transform="scale(1 1) rotate(0) translate(4 43)">
<title>CGame::checkHeroStatus</title>
<!-- Node72 -->
<g id="node1" class="node"><title>Node72</title>
<polygon fill="#bfbfbf" stroke="black" points="0,-0.5 0,-19.5 131,-19.5 131,-0.5 0,-0.5"/>
<text text-anchor="middle" x="65.5" y="-7.5" font-family="Helvetica,sans-Serif" font-size="10.00">CGame::checkHeroStatus</text>
</g>
<!-- Node73 -->
<g id="node2" class="node"><title>Node73</title>
<g id="a_node2"><a xlink:href="class_c_game.html#a714b291af5e20aae8be14a905fd0522d" target="_top" xlink:title="CGame::tickComponent">
<polygon fill="none" stroke="black" points="167,-19.5 167,-38.5 288,-38.5 288,-19.5 167,-19.5"/>
<text text-anchor="middle" x="227.5" y="-26.5" font-family="Helvetica,sans-Serif" font-size="10.00">CGame::tickComponent</text>
</a>
</g>
</g>
<!-- Node72&#45;&gt;Node73 -->
<g id="edge1" class="edge"><title>Node72&#45;&gt;Node73</title>
<path fill="none" stroke="midnightblue" d="M141.155,-18.8653C149.759,-19.887 158.446,-20.9186 166.815,-21.9124"/>
<polygon fill="midnightblue" stroke="midnightblue" points="141.46,-15.377 131.117,-17.6733 140.634,-22.3281 141.46,-15.377"/>
</g>
<!-- Node74 -->
<g id="node3" class="node"><title>Node74</title>
<g id="a_node3"><a xlink:href="class_c_game.html#aa9d3da2fefa1c04faefc6586dbd37971" target="_top" xlink:title="CGame::play">
<polygon fill="none" stroke="black" points="324,-0.5 324,-19.5 398,-19.5 398,-0.5 324,-0.5"/>
<text text-anchor="middle" x="361" y="-7.5" font-family="Helvetica,sans-Serif" font-size="10.00">CGame::play</text>
</a>
</g>
</g>
<!-- Node73&#45;&gt;Node74 -->
<g id="edge2" class="edge"><title>Node73&#45;&gt;Node74</title>
<path fill="none" stroke="midnightblue" d="M298.157,-18.9354C307.065,-17.6483 315.878,-16.3751 323.937,-15.2107"/>
<polygon fill="midnightblue" stroke="midnightblue" points="297.491,-15.4953 288.094,-20.3895 298.492,-22.4234 297.491,-15.4953"/>
</g>
<!-- Node74&#45;&gt;Node72 -->
<g id="edge3" class="edge"><title>Node74&#45;&gt;Node72</title>
<path fill="none" stroke="midnightblue" d="M313.926,-10C264.793,-10 186.592,-10 131.273,-10"/>
<polygon fill="midnightblue" stroke="midnightblue" points="313.951,-13.5001 323.951,-10 313.951,-6.5001 313.951,-13.5001"/>
</g>
<!-- Node75 -->
<g id="node4" class="node"><title>Node75</title>
<g id="a_node4"><a xlink:href="main_8cpp.html#ae66f6b31b5ad750f1fe042a706a4e3d4" target="_top" xlink:title="main">
<polygon fill="none" stroke="black" points="434,-0.5 434,-19.5 472,-19.5 472,-0.5 434,-0.5"/>
<text text-anchor="middle" x="453" y="-7.5" font-family="Helvetica,sans-Serif" font-size="10.00">main</text>
</a>
</g>
</g>
<!-- Node74&#45;&gt;Node75 -->
<g id="edge4" class="edge"><title>Node74&#45;&gt;Node75</title>
<path fill="none" stroke="midnightblue" d="M408.326,-10C417.437,-10 426.476,-10 433.946,-10"/>
<polygon fill="midnightblue" stroke="midnightblue" points="408.088,-6.5001 398.088,-10 408.088,-13.5001 408.088,-6.5001"/>
</g>
</g>
</svg>
