<?xml version="1.0" encoding="UTF-8" standalone="no"?>
<!DOCTYPE svg PUBLIC "-//W3C//DTD SVG 1.1//EN"
 "http://www.w3.org/Graphics/SVG/1.1/DTD/svg11.dtd">
<!-- Generated by graphviz version 2.38.0 (20140413.2041)
 -->
<!-- Title: CHero::fight Pages: 1 -->
<svg width="377pt" height="104pt"
 viewBox="0.00 0.00 377.00 104.00" xmlns="http://www.w3.org/2000/svg" xmlns:xlink="http://www.w3.org/1999/xlink">
<g id="graph0" class="graph" transform="scale(1 1) rotate(0) translate(4 100)">
<title>CHero::fight</title>
<!-- Node25 -->
<g id="node1" class="node"><title>Node25</title>
<polygon fill="#bfbfbf" stroke="black" points="0,-38.5 0,-57.5 68,-57.5 68,-38.5 0,-38.5"/>
<text text-anchor="middle" x="34" y="-45.5" font-family="Helvetica,sans-Serif" font-size="10.00">CHero::fight</text>
</g>
<!-- Node26 -->
<g id="node2" class="node"><title>Node26</title>
<g id="a_node2"><a xlink:href="class_c_creature.html#ab586f3c2dd37addfa8281fd4d24c7b54" target="_top" xlink:title="CCreature::getAttack">
<polygon fill="none" stroke="black" points="104,-76.5 104,-95.5 212,-95.5 212,-76.5 104,-76.5"/>
<text text-anchor="middle" x="158" y="-83.5" font-family="Helvetica,sans-Serif" font-size="10.00">CCreature::getAttack</text>
</a>
</g>
</g>
<!-- Node25&#45;&gt;Node26 -->
<g id="edge1" class="edge"><title>Node25&#45;&gt;Node26</title>
<path fill="none" stroke="midnightblue" d="M65.7858,-57.589C81.1013,-62.3594 99.8166,-68.1888 116.3,-73.3229"/>
<polygon fill="midnightblue" stroke="midnightblue" points="115.636,-76.7818 126.224,-76.4141 117.717,-70.0985 115.636,-76.7818"/>
</g>
<!-- Node27 -->
<g id="node3" class="node"><title>Node27</title>
<g id="a_node3"><a xlink:href="class_c_hero.html#a50d1e46ce5b1d84c6ed04493f1d71f81" target="_top" xlink:title="CHero::getArmour">
<polygon fill="none" stroke="black" points="110.5,-38.5 110.5,-57.5 205.5,-57.5 205.5,-38.5 110.5,-38.5"/>
<text text-anchor="middle" x="158" y="-45.5" font-family="Helvetica,sans-Serif" font-size="10.00">CHero::getArmour</text>
</a>
</g>
</g>
<!-- Node25&#45;&gt;Node27 -->
<g id="edge2" class="edge"><title>Node25&#45;&gt;Node27</title>
<path fill="none" stroke="midnightblue" d="M68.015,-48C77.9562,-48 89.1635,-48 100.188,-48"/>
<polygon fill="midnightblue" stroke="midnightblue" points="100.219,-51.5001 110.219,-48 100.219,-44.5001 100.219,-51.5001"/>
</g>
<!-- Node29 -->
<g id="node5" class="node"><title>Node29</title>
<g id="a_node5"><a xlink:href="class_c_hero.html#a1be25c88254db1f753e1ce89da03ef46" target="_top" xlink:title="CHero::getAttack">
<polygon fill="none" stroke="black" points="112,-0.5 112,-19.5 204,-19.5 204,-0.5 112,-0.5"/>
<text text-anchor="middle" x="158" y="-7.5" font-family="Helvetica,sans-Serif" font-size="10.00">CHero::getAttack</text>
</a>
</g>
</g>
<!-- Node25&#45;&gt;Node29 -->
<g id="edge4" class="edge"><title>Node25&#45;&gt;Node29</title>
<path fill="none" stroke="midnightblue" d="M65.7858,-38.411C81.1013,-33.6406 99.8166,-27.8112 116.3,-22.6771"/>
<polygon fill="midnightblue" stroke="midnightblue" points="117.717,-25.9015 126.224,-19.5859 115.636,-19.2182 117.717,-25.9015"/>
</g>
<!-- Node28 -->
<g id="node4" class="node"><title>Node28</title>
<g id="a_node4"><a xlink:href="class_c_equipment.html#a27e962aead56bb39886acc86c17b7478" target="_top" xlink:title="CEquipment::getArmour">
<polygon fill="none" stroke="black" points="248,-38.5 248,-57.5 369,-57.5 369,-38.5 248,-38.5"/>
<text text-anchor="middle" x="308.5" y="-45.5" font-family="Helvetica,sans-Serif" font-size="10.00">CEquipment::getArmour</text>
</a>
</g>
</g>
<!-- Node27&#45;&gt;Node28 -->
<g id="edge3" class="edge"><title>Node27&#45;&gt;Node28</title>
<path fill="none" stroke="midnightblue" d="M205.579,-48C215.868,-48 226.985,-48 237.964,-48"/>
<polygon fill="midnightblue" stroke="midnightblue" points="237.98,-51.5001 247.98,-48 237.98,-44.5001 237.98,-51.5001"/>
</g>
<!-- Node30 -->
<g id="node6" class="node"><title>Node30</title>
<g id="a_node6"><a xlink:href="class_c_equipment.html#a6b27732ece0ab3c74bff006093dc5a7d" target="_top" xlink:title="CEquipment::getAttack">
<polygon fill="none" stroke="black" points="249.5,-0.5 249.5,-19.5 367.5,-19.5 367.5,-0.5 249.5,-0.5"/>
<text text-anchor="middle" x="308.5" y="-7.5" font-family="Helvetica,sans-Serif" font-size="10.00">CEquipment::getAttack</text>
</a>
</g>
</g>
<!-- Node29&#45;&gt;Node30 -->
<g id="edge5" class="edge"><title>Node29&#45;&gt;Node30</title>
<path fill="none" stroke="midnightblue" d="M204.362,-10C215.313,-10 227.257,-10 239.008,-10"/>
<polygon fill="midnightblue" stroke="midnightblue" points="239.255,-13.5001 249.255,-10 239.255,-6.5001 239.255,-13.5001"/>
</g>
</g>
</svg>
