<?xml version="1.0" encoding="UTF-8" standalone="no"?>
<!DOCTYPE svg PUBLIC "-//W3C//DTD SVG 1.1//EN"
 "http://www.w3.org/Graphics/SVG/1.1/DTD/svg11.dtd">
<!-- Generated by graphviz version 2.38.0 (20140413.2041)
 -->
<!-- Title: CWorld Pages: 1 -->
<svg width="928pt" height="529pt"
 viewBox="0.00 0.00 927.50 529.00" xmlns="http://www.w3.org/2000/svg" xmlns:xlink="http://www.w3.org/1999/xlink">
<g id="graph0" class="graph" transform="scale(1 1) rotate(0) translate(4 525)">
<title>CWorld</title>
<!-- Node1 -->
<g id="node1" class="node"><title>Node1</title>
<polygon fill="#bfbfbf" stroke="black" points="420.5,-0.5 420.5,-211.5 518.5,-211.5 518.5,-0.5 420.5,-0.5"/>
<text text-anchor="middle" x="469.5" y="-199.5" font-family="Helvetica,sans-Serif" font-size="10.00">CWorld</text>
<polyline fill="none" stroke="black" points="420.5,-192.5 518.5,-192.5 "/>
<text text-anchor="middle" x="469.5" y="-180.5" font-family="Helvetica,sans-Serif" font-size="10.00"> </text>
<polyline fill="none" stroke="black" points="420.5,-173.5 518.5,-173.5 "/>
<text text-anchor="start" x="428.5" y="-161.5" font-family="Helvetica,sans-Serif" font-size="10.00">+ ~CWorld()</text>
<text text-anchor="start" x="428.5" y="-150.5" font-family="Helvetica,sans-Serif" font-size="10.00">+ loadWorld()</text>
<text text-anchor="start" x="428.5" y="-139.5" font-family="Helvetica,sans-Serif" font-size="10.00">+ getItem()</text>
<text text-anchor="start" x="428.5" y="-128.5" font-family="Helvetica,sans-Serif" font-size="10.00">+ getItemName()</text>
<text text-anchor="start" x="428.5" y="-117.5" font-family="Helvetica,sans-Serif" font-size="10.00">+ getAllItemID()</text>
<text text-anchor="start" x="428.5" y="-106.5" font-family="Helvetica,sans-Serif" font-size="10.00">+ getEvent()</text>
<text text-anchor="start" x="428.5" y="-95.5" font-family="Helvetica,sans-Serif" font-size="10.00">+ getAllEvents()</text>
<text text-anchor="start" x="428.5" y="-84.5" font-family="Helvetica,sans-Serif" font-size="10.00">+ getCreature()</text>
<text text-anchor="start" x="428.5" y="-73.5" font-family="Helvetica,sans-Serif" font-size="10.00">+ getAllCreatures()</text>
<text text-anchor="start" x="428.5" y="-62.5" font-family="Helvetica,sans-Serif" font-size="10.00">+ getStoryline()</text>
<text text-anchor="start" x="428.5" y="-51.5" font-family="Helvetica,sans-Serif" font-size="10.00"># loadEvents()</text>
<text text-anchor="start" x="428.5" y="-40.5" font-family="Helvetica,sans-Serif" font-size="10.00"># loadItems()</text>
<text text-anchor="start" x="428.5" y="-29.5" font-family="Helvetica,sans-Serif" font-size="10.00"># loadCreatures()</text>
<text text-anchor="start" x="428.5" y="-18.5" font-family="Helvetica,sans-Serif" font-size="10.00"># loadStoryline()</text>
<text text-anchor="start" x="428.5" y="-7.5" font-family="Helvetica,sans-Serif" font-size="10.00"># validateIDs()</text>
</g>
<!-- Node2 -->
<g id="node2" class="node"><title>Node2</title>
<polygon fill="none" stroke="#bfbfbf" points="0,-309 0,-366 147,-366 147,-309 0,-309"/>
<text text-anchor="middle" x="73.5" y="-354" font-family="Helvetica,sans-Serif" font-size="10.00">map&lt; int, const CCreature * &gt;</text>
<polyline fill="none" stroke="#bfbfbf" points="0,-347 147,-347 "/>
<text text-anchor="middle" x="73.5" y="-335" font-family="Helvetica,sans-Serif" font-size="10.00"> </text>
<polyline fill="none" stroke="#bfbfbf" points="0,-328 147,-328 "/>
<text text-anchor="middle" x="73.5" y="-316" font-family="Helvetica,sans-Serif" font-size="10.00"> </text>
</g>
<!-- Node2&#45;&gt;Node1 -->
<g id="edge1" class="edge"><title>Node2&#45;&gt;Node1</title>
<path fill="none" stroke="#404040" d="M99.0333,-308.831C114.621,-292.96 135.533,-273.394 156.5,-259 238.248,-202.879 343.846,-156.236 409.101,-129.989"/>
<polygon fill="none" stroke="#404040" points="409.257,-129.926 413.35,-123.989 420.404,-125.484 416.311,-131.421 409.257,-129.926"/>
<text text-anchor="middle" x="221" y="-233" font-family="Helvetica,sans-Serif" font-size="10.00"> #creatures</text>
</g>
<!-- Node3 -->
<g id="node3" class="node"><title>Node3</title>
<g id="a_node3"><a xlink:href="class_i_ohandle.html" target="_top" xlink:title="{IOhandle\n||+ loadEvent()\l+ loadEventOrder()\l+ loadCreature()\l+ loadShopItem()\l# dumpLine()\l}">
<polygon fill="none" stroke="black" points="165.5,-287 165.5,-388 263.5,-388 263.5,-287 165.5,-287"/>
<text text-anchor="middle" x="214.5" y="-376" font-family="Helvetica,sans-Serif" font-size="10.00">IOhandle</text>
<polyline fill="none" stroke="black" points="165.5,-369 263.5,-369 "/>
<text text-anchor="middle" x="214.5" y="-357" font-family="Helvetica,sans-Serif" font-size="10.00"> </text>
<polyline fill="none" stroke="black" points="165.5,-350 263.5,-350 "/>
<text text-anchor="start" x="173.5" y="-338" font-family="Helvetica,sans-Serif" font-size="10.00">+ loadEvent()</text>
<text text-anchor="start" x="173.5" y="-327" font-family="Helvetica,sans-Serif" font-size="10.00">+ loadEventOrder()</text>
<text text-anchor="start" x="173.5" y="-316" font-family="Helvetica,sans-Serif" font-size="10.00">+ loadCreature()</text>
<text text-anchor="start" x="173.5" y="-305" font-family="Helvetica,sans-Serif" font-size="10.00">+ loadShopItem()</text>
<text text-anchor="start" x="173.5" y="-294" font-family="Helvetica,sans-Serif" font-size="10.00"># dumpLine()</text>
</a>
</g>
</g>
<!-- Node3&#45;&gt;Node1 -->
<g id="edge2" class="edge"><title>Node3&#45;&gt;Node1</title>
<path fill="none" stroke="#404040" d="M248.47,-286.892C255.934,-277.245 264.125,-267.499 272.5,-259 314.707,-216.168 369.262,-174.974 410.255,-146.301"/>
<polygon fill="none" stroke="#404040" points="410.508,-146.125 413.16,-139.419 420.37,-139.287 417.718,-145.993 410.508,-146.125"/>
<text text-anchor="middle" x="326" y="-233" font-family="Helvetica,sans-Serif" font-size="10.00"> #iOhandle</text>
</g>
<!-- Node4 -->
<g id="node4" class="node"><title>Node4</title>
<polygon fill="none" stroke="#bfbfbf" points="281.5,-309 281.5,-366 415.5,-366 415.5,-309 281.5,-309"/>
<text text-anchor="middle" x="348.5" y="-354" font-family="Helvetica,sans-Serif" font-size="10.00">map&lt; int, const CEvent * &gt;</text>
<polyline fill="none" stroke="#bfbfbf" points="281.5,-347 415.5,-347 "/>
<text text-anchor="middle" x="348.5" y="-335" font-family="Helvetica,sans-Serif" font-size="10.00"> </text>
<polyline fill="none" stroke="#bfbfbf" points="281.5,-328 415.5,-328 "/>
<text text-anchor="middle" x="348.5" y="-316" font-family="Helvetica,sans-Serif" font-size="10.00"> </text>
</g>
<!-- Node4&#45;&gt;Node1 -->
<g id="edge3" class="edge"><title>Node4&#45;&gt;Node1</title>
<path fill="none" stroke="#404040" d="M363.095,-308.817C376.053,-284.24 395.826,-246.736 414.826,-210.7"/>
<polygon fill="none" stroke="#404040" points="414.826,-210.7 414.086,-203.527 420.423,-200.085 421.163,-207.258 414.826,-210.7"/>
<text text-anchor="middle" x="421" y="-233" font-family="Helvetica,sans-Serif" font-size="10.00"> #events</text>
</g>
<!-- Node5 -->
<g id="node5" class="node"><title>Node5</title>
<polygon fill="none" stroke="#bfbfbf" points="434,-309 434,-366 505,-366 505,-309 434,-309"/>
<text text-anchor="middle" x="469.5" y="-354" font-family="Helvetica,sans-Serif" font-size="10.00">vector&lt; int &gt;</text>
<polyline fill="none" stroke="#bfbfbf" points="434,-347 505,-347 "/>
<text text-anchor="middle" x="469.5" y="-335" font-family="Helvetica,sans-Serif" font-size="10.00"> </text>
<polyline fill="none" stroke="#bfbfbf" points="434,-328 505,-328 "/>
<text text-anchor="middle" x="469.5" y="-316" font-family="Helvetica,sans-Serif" font-size="10.00"> </text>
</g>
<!-- Node5&#45;&gt;Node1 -->
<g id="edge4" class="edge"><title>Node5&#45;&gt;Node1</title>
<path fill="none" stroke="#404040" d="M469.5,-308.817C469.5,-287.199 469.5,-255.578 469.5,-223.753"/>
<polygon fill="none" stroke="#404040" points="469.5,-223.566 465.5,-217.566 469.5,-211.566 473.5,-217.565 469.5,-223.566"/>
<text text-anchor="middle" x="492.5" y="-233" font-family="Helvetica,sans-Serif" font-size="10.00"> #storyline</text>
</g>
<!-- Node6 -->
<g id="node6" class="node"><title>Node6</title>
<polygon fill="none" stroke="#bfbfbf" points="523,-309 523,-366 652,-366 652,-309 523,-309"/>
<text text-anchor="middle" x="587.5" y="-354" font-family="Helvetica,sans-Serif" font-size="10.00">map&lt; int, const CItem * &gt;</text>
<polyline fill="none" stroke="#bfbfbf" points="523,-347 652,-347 "/>
<text text-anchor="middle" x="587.5" y="-335" font-family="Helvetica,sans-Serif" font-size="10.00"> </text>
<polyline fill="none" stroke="#bfbfbf" points="523,-328 652,-328 "/>
<text text-anchor="middle" x="587.5" y="-316" font-family="Helvetica,sans-Serif" font-size="10.00"> </text>
</g>
<!-- Node6&#45;&gt;Node1 -->
<g id="edge5" class="edge"><title>Node6&#45;&gt;Node1</title>
<path fill="none" stroke="#404040" d="M573.266,-308.817C560.934,-284.832 542.272,-248.534 524.158,-213.305"/>
<polygon fill="none" stroke="#404040" points="524.049,-213.092 517.748,-209.585 518.561,-202.42 524.862,-205.927 524.049,-213.092"/>
<text text-anchor="middle" x="553" y="-233" font-family="Helvetica,sans-Serif" font-size="10.00"> #items</text>
</g>
<!-- Node7 -->
<g id="node7" class="node"><title>Node7</title>
<g id="a_node7"><a xlink:href="class_c_display.html" target="_top" xlink:title="{CDisplay\n||+ CDisplay()\l+ multiChoice()\l+ getString()\l+ getNumber()\l+ wait()\l+ print()\l+ printDelimiter()\l+ printWithDelimiter()\l+ printError()\l+ dumpToNewLine()\l}">
<polygon fill="none" stroke="black" points="670,-259.5 670,-415.5 779,-415.5 779,-259.5 670,-259.5"/>
<text text-anchor="middle" x="724.5" y="-403.5" font-family="Helvetica,sans-Serif" font-size="10.00">CDisplay</text>
<polyline fill="none" stroke="black" points="670,-396.5 779,-396.5 "/>
<text text-anchor="middle" x="724.5" y="-384.5" font-family="Helvetica,sans-Serif" font-size="10.00"> </text>
<polyline fill="none" stroke="black" points="670,-377.5 779,-377.5 "/>
<text text-anchor="start" x="678" y="-365.5" font-family="Helvetica,sans-Serif" font-size="10.00">+ CDisplay()</text>
<text text-anchor="start" x="678" y="-354.5" font-family="Helvetica,sans-Serif" font-size="10.00">+ multiChoice()</text>
<text text-anchor="start" x="678" y="-343.5" font-family="Helvetica,sans-Serif" font-size="10.00">+ getString()</text>
<text text-anchor="start" x="678" y="-332.5" font-family="Helvetica,sans-Serif" font-size="10.00">+ getNumber()</text>
<text text-anchor="start" x="678" y="-321.5" font-family="Helvetica,sans-Serif" font-size="10.00">+ wait()</text>
<text text-anchor="start" x="678" y="-310.5" font-family="Helvetica,sans-Serif" font-size="10.00">+ print()</text>
<text text-anchor="start" x="678" y="-299.5" font-family="Helvetica,sans-Serif" font-size="10.00">+ printDelimiter()</text>
<text text-anchor="start" x="678" y="-288.5" font-family="Helvetica,sans-Serif" font-size="10.00">+ printWithDelimiter()</text>
<text text-anchor="start" x="678" y="-277.5" font-family="Helvetica,sans-Serif" font-size="10.00">+ printError()</text>
<text text-anchor="start" x="678" y="-266.5" font-family="Helvetica,sans-Serif" font-size="10.00">+ dumpToNewLine()</text>
</a>
</g>
</g>
<!-- Node7&#45;&gt;Node1 -->
<g id="edge6" class="edge"><title>Node7&#45;&gt;Node1</title>
<path fill="none" stroke="#404040" d="M669.815,-268.539C666.727,-265.255 663.612,-262.057 660.5,-259 619.107,-218.35 567.365,-177.709 528.179,-148.691"/>
<polygon fill="none" stroke="#404040" points="528.167,-148.683 520.964,-148.349 518.501,-141.572 525.705,-141.905 528.167,-148.683"/>
<text text-anchor="middle" x="661.5" y="-233" font-family="Helvetica,sans-Serif" font-size="10.00"> #display</text>
</g>
<!-- Node8 -->
<g id="node8" class="node"><title>Node8</title>
<polygon fill="none" stroke="#bfbfbf" points="654.5,-463.5 654.5,-520.5 716.5,-520.5 716.5,-463.5 654.5,-463.5"/>
<text text-anchor="middle" x="685.5" y="-508.5" font-family="Helvetica,sans-Serif" font-size="10.00">ostream &amp;</text>
<polyline fill="none" stroke="#bfbfbf" points="654.5,-501.5 716.5,-501.5 "/>
<text text-anchor="middle" x="685.5" y="-489.5" font-family="Helvetica,sans-Serif" font-size="10.00"> </text>
<polyline fill="none" stroke="#bfbfbf" points="654.5,-482.5 716.5,-482.5 "/>
<text text-anchor="middle" x="685.5" y="-470.5" font-family="Helvetica,sans-Serif" font-size="10.00"> </text>
</g>
<!-- Node8&#45;&gt;Node7 -->
<g id="edge7" class="edge"><title>Node8&#45;&gt;Node7</title>
<path fill="none" stroke="#404040" d="M688.404,-463.279C689.646,-453.916 691.322,-443.445 693.5,-434 694,-431.833 694.527,-429.645 695.077,-427.443"/>
<polygon fill="none" stroke="#404040" points="695.146,-427.18 692.816,-420.356 698.218,-415.579 700.549,-422.403 695.146,-427.18"/>
<text text-anchor="middle" x="718" y="-437" font-family="Helvetica,sans-Serif" font-size="10.00"> #outputStr</text>
</g>
<!-- Node9 -->
<g id="node9" class="node"><title>Node9</title>
<polygon fill="none" stroke="#bfbfbf" points="735,-463.5 735,-520.5 794,-520.5 794,-463.5 735,-463.5"/>
<text text-anchor="middle" x="764.5" y="-508.5" font-family="Helvetica,sans-Serif" font-size="10.00">istream &amp;</text>
<polyline fill="none" stroke="#bfbfbf" points="735,-501.5 794,-501.5 "/>
<text text-anchor="middle" x="764.5" y="-489.5" font-family="Helvetica,sans-Serif" font-size="10.00"> </text>
<polyline fill="none" stroke="#bfbfbf" points="735,-482.5 794,-482.5 "/>
<text text-anchor="middle" x="764.5" y="-470.5" font-family="Helvetica,sans-Serif" font-size="10.00"> </text>
</g>
<!-- Node9&#45;&gt;Node7 -->
<g id="edge8" class="edge"><title>Node9&#45;&gt;Node7</title>
<path fill="none" stroke="#404040" d="M757.256,-463.383C754.533,-453 751.268,-440.552 747.869,-427.595"/>
<polygon fill="none" stroke="#404040" points="747.767,-427.204 742.375,-422.415 744.722,-415.596 750.113,-420.385 747.767,-427.204"/>
<text text-anchor="middle" x="774" y="-437" font-family="Helvetica,sans-Serif" font-size="10.00"> #inputStr</text>
</g>
<!-- Node10 -->
<g id="node10" class="node"><title>Node10</title>
<g id="a_node10"><a xlink:href="class_c_stream_decoder.html" target="_top" xlink:title="{CStreamDecoder\n||+ getStringAsInt()\l+ getString()\l+ getText()\l+ getNumbers()\l+ getNumbers()\l+ getNumbersAsString()\l+ decodePlayerData()\l}">
<polygon fill="none" stroke="black" points="797.5,-276 797.5,-399 919.5,-399 919.5,-276 797.5,-276"/>
<text text-anchor="middle" x="858.5" y="-387" font-family="Helvetica,sans-Serif" font-size="10.00">CStreamDecoder</text>
<polyline fill="none" stroke="black" points="797.5,-380 919.5,-380 "/>
<text text-anchor="middle" x="858.5" y="-368" font-family="Helvetica,sans-Serif" font-size="10.00"> </text>
<polyline fill="none" stroke="black" points="797.5,-361 919.5,-361 "/>
<text text-anchor="start" x="805.5" y="-349" font-family="Helvetica,sans-Serif" font-size="10.00">+ getStringAsInt()</text>
<text text-anchor="start" x="805.5" y="-338" font-family="Helvetica,sans-Serif" font-size="10.00">+ getString()</text>
<text text-anchor="start" x="805.5" y="-327" font-family="Helvetica,sans-Serif" font-size="10.00">+ getText()</text>
<text text-anchor="start" x="805.5" y="-316" font-family="Helvetica,sans-Serif" font-size="10.00">+ getNumbers()</text>
<text text-anchor="start" x="805.5" y="-305" font-family="Helvetica,sans-Serif" font-size="10.00">+ getNumbers()</text>
<text text-anchor="start" x="805.5" y="-294" font-family="Helvetica,sans-Serif" font-size="10.00">+ getNumbersAsString()</text>
<text text-anchor="start" x="805.5" y="-283" font-family="Helvetica,sans-Serif" font-size="10.00">+ decodePlayerData()</text>
</a>
</g>
</g>
<!-- Node10&#45;&gt;Node1 -->
<g id="edge9" class="edge"><title>Node10&#45;&gt;Node1</title>
<path fill="none" stroke="#404040" d="M807.17,-275.693C800.859,-269.699 794.245,-263.996 787.5,-259 706.207,-198.788 597.289,-152.953 530.329,-128.038"/>
<polygon fill="none" stroke="#404040" points="530.001,-127.917 522.989,-129.602 518.737,-123.778 525.749,-122.093 530.001,-127.917"/>
<text text-anchor="middle" x="778" y="-233" font-family="Helvetica,sans-Serif" font-size="10.00"> #decoder</text>
</g>
</g>
</svg>
