<?xml version="1.0" encoding="UTF-8" standalone="no"?>
<!DOCTYPE svg PUBLIC "-//W3C//DTD SVG 1.1//EN"
 "http://www.w3.org/Graphics/SVG/1.1/DTD/svg11.dtd">
<!-- Generated by graphviz version 2.38.0 (20140413.2041)
 -->
<!-- Title: CHero::update Pages: 1 -->
<svg width="961pt" height="114pt"
 viewBox="0.00 0.00 961.00 114.00" xmlns="http://www.w3.org/2000/svg" xmlns:xlink="http://www.w3.org/1999/xlink">
<g id="graph0" class="graph" transform="scale(1 1) rotate(0) translate(4 110)">
<title>CHero::update</title>
<!-- Node103 -->
<g id="node1" class="node"><title>Node103</title>
<polygon fill="#bfbfbf" stroke="black" points="0,-0.5 0,-19.5 79,-19.5 79,-0.5 0,-0.5"/>
<text text-anchor="middle" x="39.5" y="-7.5" font-family="Helvetica,sans-Serif" font-size="10.00">CHero::update</text>
</g>
<!-- Node104 -->
<g id="node2" class="node"><title>Node104</title>
<g id="a_node2"><a xlink:href="class_c_game.html#a507b71eeebc2a6aaa08d9e0dcb61c7ac" target="_top" xlink:title="CGame::importPlayerData">
<polygon fill="none" stroke="black" points="115,-0.5 115,-19.5 246,-19.5 246,-0.5 115,-0.5"/>
<text text-anchor="middle" x="180.5" y="-7.5" font-family="Helvetica,sans-Serif" font-size="10.00">CGame::importPlayerData</text>
</a>
</g>
</g>
<!-- Node103&#45;&gt;Node104 -->
<g id="edge1" class="edge"><title>Node103&#45;&gt;Node104</title>
<path fill="none" stroke="midnightblue" d="M89.399,-10C97.6464,-10 106.319,-10 114.893,-10"/>
<polygon fill="midnightblue" stroke="midnightblue" points="89.2193,-6.5001 79.2192,-10 89.2192,-13.5001 89.2193,-6.5001"/>
</g>
<!-- Node105 -->
<g id="node3" class="node"><title>Node105</title>
<g id="a_node3"><a xlink:href="class_c_game.html#accda079824fc813cbd64b4743846ae24" target="_top" xlink:title="CGame::loadGame">
<polygon fill="none" stroke="black" points="282,-0.5 282,-19.5 382,-19.5 382,-0.5 282,-0.5"/>
<text text-anchor="middle" x="332" y="-7.5" font-family="Helvetica,sans-Serif" font-size="10.00">CGame::loadGame</text>
</a>
</g>
</g>
<!-- Node104&#45;&gt;Node105 -->
<g id="edge2" class="edge"><title>Node104&#45;&gt;Node105</title>
<path fill="none" stroke="midnightblue" d="M256.379,-10C265.071,-10 273.76,-10 281.977,-10"/>
<polygon fill="midnightblue" stroke="midnightblue" points="256.203,-6.5001 246.203,-10 256.203,-13.5001 256.203,-6.5001"/>
</g>
<!-- Node106 -->
<g id="node4" class="node"><title>Node106</title>
<g id="a_node4"><a xlink:href="class_c_game.html#a39e1e296c6dcabbf5c824eea6424d6d9" target="_top" xlink:title="CGame::mainMenu">
<polygon fill="none" stroke="black" points="418,-0.5 418,-19.5 519,-19.5 519,-0.5 418,-0.5"/>
<text text-anchor="middle" x="468.5" y="-7.5" font-family="Helvetica,sans-Serif" font-size="10.00">CGame::mainMenu</text>
</a>
</g>
</g>
<!-- Node105&#45;&gt;Node106 -->
<g id="edge3" class="edge"><title>Node105&#45;&gt;Node106</title>
<path fill="none" stroke="midnightblue" d="M392.486,-10C400.918,-10 409.515,-10 417.737,-10"/>
<polygon fill="midnightblue" stroke="midnightblue" points="392.319,-6.5001 382.319,-10 392.319,-13.5001 392.319,-6.5001"/>
</g>
<!-- Node107 -->
<g id="node5" class="node"><title>Node107</title>
<g id="a_node5"><a xlink:href="class_c_game.html#aa9d3da2fefa1c04faefc6586dbd37971" target="_top" xlink:title="CGame::play">
<polygon fill="none" stroke="black" points="555,-29.5 555,-48.5 629,-48.5 629,-29.5 555,-29.5"/>
<text text-anchor="middle" x="592" y="-36.5" font-family="Helvetica,sans-Serif" font-size="10.00">CGame::play</text>
</a>
</g>
</g>
<!-- Node106&#45;&gt;Node107 -->
<g id="edge4" class="edge"><title>Node106&#45;&gt;Node107</title>
<path fill="none" stroke="midnightblue" d="M519.361,-21.901C531.165,-24.7184 543.536,-27.6711 554.612,-30.3147"/>
<polygon fill="midnightblue" stroke="midnightblue" points="520.16,-18.4934 509.62,-19.5761 518.535,-25.3021 520.16,-18.4934"/>
</g>
<!-- Node109 -->
<g id="node7" class="node"><title>Node109</title>
<g id="a_node7"><a xlink:href="class_c_game.html#a714b291af5e20aae8be14a905fd0522d" target="_top" xlink:title="CGame::tickComponent">
<polygon fill="none" stroke="black" points="832,-10.5 832,-29.5 953,-29.5 953,-10.5 832,-10.5"/>
<text text-anchor="middle" x="892.5" y="-17.5" font-family="Helvetica,sans-Serif" font-size="10.00">CGame::tickComponent</text>
</a>
</g>
</g>
<!-- Node106&#45;&gt;Node109 -->
<g id="edge9" class="edge"><title>Node106&#45;&gt;Node109</title>
<path fill="none" stroke="midnightblue" d="M529.597,-11.4241C609.999,-13.3294 751.715,-16.6876 831.875,-18.5871"/>
<polygon fill="midnightblue" stroke="midnightblue" points="529.23,-7.91451 519.15,-11.1765 529.064,-14.9125 529.23,-7.91451"/>
</g>
<!-- Node108 -->
<g id="node6" class="node"><title>Node108</title>
<g id="a_node6"><a xlink:href="class_c_game.html#ac0a8028013ca5a7c135c29fa582df4a0" target="_top" xlink:title="CGame::checkHeroStatus">
<polygon fill="none" stroke="black" points="665,-86.5 665,-105.5 796,-105.5 796,-86.5 665,-86.5"/>
<text text-anchor="middle" x="730.5" y="-93.5" font-family="Helvetica,sans-Serif" font-size="10.00">CGame::checkHeroStatus</text>
</a>
</g>
</g>
<!-- Node107&#45;&gt;Node108 -->
<g id="edge5" class="edge"><title>Node107&#45;&gt;Node108</title>
<path fill="none" stroke="midnightblue" d="M617.634,-53.569C631.276,-61.2331 648.723,-70.3842 665,-77 673.76,-80.5603 683.434,-83.7698 692.566,-86.494"/>
<polygon fill="midnightblue" stroke="midnightblue" points="619.276,-50.4765 608.858,-48.55 615.801,-56.5529 619.276,-50.4765"/>
</g>
<!-- Node110 -->
<g id="node8" class="node"><title>Node110</title>
<g id="a_node8"><a xlink:href="main_8cpp.html#ae66f6b31b5ad750f1fe042a706a4e3d4" target="_top" xlink:title="main">
<polygon fill="none" stroke="black" points="711.5,-48.5 711.5,-67.5 749.5,-67.5 749.5,-48.5 711.5,-48.5"/>
<text text-anchor="middle" x="730.5" y="-55.5" font-family="Helvetica,sans-Serif" font-size="10.00">main</text>
</a>
</g>
</g>
<!-- Node107&#45;&gt;Node110 -->
<g id="edge8" class="edge"><title>Node107&#45;&gt;Node110</title>
<path fill="none" stroke="midnightblue" d="M639.129,-45.4208C663.788,-48.8533 692.768,-52.8871 711.132,-55.4433"/>
<polygon fill="midnightblue" stroke="midnightblue" points="639.608,-41.9539 629.221,-44.0418 638.643,-48.8871 639.608,-41.9539"/>
</g>
<!-- Node108&#45;&gt;Node109 -->
<g id="edge6" class="edge"><title>Node108&#45;&gt;Node109</title>
<path fill="none" stroke="midnightblue" d="M779.837,-83.2149C785.361,-81.3274 790.853,-79.2512 796,-77 826.782,-63.5375 859.838,-42.043 877.857,-29.6543"/>
<polygon fill="midnightblue" stroke="midnightblue" points="778.372,-80.0097 769.925,-86.4056 780.517,-86.673 778.372,-80.0097"/>
</g>
<!-- Node109&#45;&gt;Node107 -->
<g id="edge7" class="edge"><title>Node109&#45;&gt;Node107</title>
<path fill="none" stroke="midnightblue" d="M821.704,-24.4426C761.365,-28.2833 676.572,-33.6805 629.006,-36.7082"/>
<polygon fill="midnightblue" stroke="midnightblue" points="822.161,-27.9207 831.918,-23.7925 821.716,-20.9349 822.161,-27.9207"/>
</g>
</g>
</svg>
