<?xml version="1.0" encoding="UTF-8" standalone="no"?>
<!DOCTYPE svg PUBLIC "-//W3C//DTD SVG 1.1//EN"
 "http://www.w3.org/Graphics/SVG/1.1/DTD/svg11.dtd">
<!-- Generated by graphviz version 2.38.0 (20140413.2041)
 -->
<!-- Title: CGame::tickComponent Pages: 1 -->
<svg width="406pt" height="66pt"
 viewBox="0.00 0.00 406.00 66.00" xmlns="http://www.w3.org/2000/svg" xmlns:xlink="http://www.w3.org/1999/xlink">
<g id="graph0" class="graph" transform="scale(1 1) rotate(0) translate(4 62)">
<title>CGame::tickComponent</title>
<!-- Node299 -->
<g id="node1" class="node"><title>Node299</title>
<polygon fill="#bfbfbf" stroke="black" points="0,-19.5 0,-38.5 121,-38.5 121,-19.5 0,-19.5"/>
<text text-anchor="middle" x="60.5" y="-26.5" font-family="Helvetica,sans-Serif" font-size="10.00">CGame::tickComponent</text>
</g>
<!-- Node300 -->
<g id="node2" class="node"><title>Node300</title>
<g id="a_node2"><a xlink:href="class_c_game.html#aa9d3da2fefa1c04faefc6586dbd37971" target="_top" xlink:title="CGame::play">
<polygon fill="none" stroke="black" points="157,-0.5 157,-19.5 231,-19.5 231,-0.5 157,-0.5"/>
<text text-anchor="middle" x="194" y="-7.5" font-family="Helvetica,sans-Serif" font-size="10.00">CGame::play</text>
</a>
</g>
</g>
<!-- Node299&#45;&gt;Node300 -->
<g id="edge1" class="edge"><title>Node299&#45;&gt;Node300</title>
<path fill="none" stroke="midnightblue" d="M131.157,-18.9354C140.065,-17.6483 148.878,-16.3751 156.937,-15.2107"/>
<polygon fill="midnightblue" stroke="midnightblue" points="130.491,-15.4953 121.094,-20.3895 131.492,-22.4234 130.491,-15.4953"/>
</g>
<!-- Node301 -->
<g id="node3" class="node"><title>Node301</title>
<g id="a_node3"><a xlink:href="class_c_game.html#ac0a8028013ca5a7c135c29fa582df4a0" target="_top" xlink:title="CGame::checkHeroStatus">
<polygon fill="none" stroke="black" points="267,-38.5 267,-57.5 398,-57.5 398,-38.5 267,-38.5"/>
<text text-anchor="middle" x="332.5" y="-45.5" font-family="Helvetica,sans-Serif" font-size="10.00">CGame::checkHeroStatus</text>
</a>
</g>
</g>
<!-- Node300&#45;&gt;Node301 -->
<g id="edge2" class="edge"><title>Node300&#45;&gt;Node301</title>
<path fill="none" stroke="midnightblue" d="M239.249,-22.3183C258.003,-27.5393 279.528,-33.5316 297.066,-38.4141"/>
<polygon fill="midnightblue" stroke="midnightblue" points="240.017,-18.8992 229.445,-19.589 238.14,-25.6428 240.017,-18.8992"/>
</g>
<!-- Node302 -->
<g id="node4" class="node"><title>Node302</title>
<g id="a_node4"><a xlink:href="main_8cpp.html#ae66f6b31b5ad750f1fe042a706a4e3d4" target="_top" xlink:title="main">
<polygon fill="none" stroke="black" points="313.5,-0.5 313.5,-19.5 351.5,-19.5 351.5,-0.5 313.5,-0.5"/>
<text text-anchor="middle" x="332.5" y="-7.5" font-family="Helvetica,sans-Serif" font-size="10.00">main</text>
</a>
</g>
</g>
<!-- Node300&#45;&gt;Node302 -->
<g id="edge4" class="edge"><title>Node300&#45;&gt;Node302</title>
<path fill="none" stroke="midnightblue" d="M241.458,-10C266.045,-10 294.849,-10 313.132,-10"/>
<polygon fill="midnightblue" stroke="midnightblue" points="241.221,-6.5001 231.221,-10 241.221,-13.5001 241.221,-6.5001"/>
</g>
<!-- Node301&#45;&gt;Node299 -->
<g id="edge3" class="edge"><title>Node301&#45;&gt;Node299</title>
<path fill="none" stroke="midnightblue" d="M256.793,-42.7429C214.008,-39.7321 161.055,-36.0057 121.087,-33.1932"/>
<polygon fill="midnightblue" stroke="midnightblue" points="256.654,-46.2416 266.875,-43.4523 257.146,-39.2589 256.654,-46.2416"/>
</g>
</g>
</svg>
