<?xml version="1.0" encoding="UTF-8" standalone="no"?>
<!DOCTYPE svg PUBLIC "-//W3C//DTD SVG 1.1//EN"
 "http://www.w3.org/Graphics/SVG/1.1/DTD/svg11.dtd">
<!-- Generated by graphviz version 2.38.0 (20140413.2041)
 -->
<!-- Title: CItem::useItem Pages: 1 -->
<svg width="489pt" height="39pt"
 viewBox="0.00 0.00 489.00 39.00" xmlns="http://www.w3.org/2000/svg" xmlns:xlink="http://www.w3.org/1999/xlink">
<g id="graph0" class="graph" transform="scale(1 1) rotate(0) translate(4 35)">
<title>CItem::useItem</title>
<!-- Node27 -->
<g id="node1" class="node"><title>Node27</title>
<polygon fill="#bfbfbf" stroke="black" points="0,-6 0,-25 83,-25 83,-6 0,-6"/>
<text text-anchor="middle" x="41.5" y="-13" font-family="Helvetica,sans-Serif" font-size="10.00">CItem::useItem</text>
</g>
<!-- Node28 -->
<g id="node2" class="node"><title>Node28</title>
<g id="a_node2"><a xlink:href="class_c_hero.html#ae6ef1be1a9d01855208eeb82292e9f76" target="_top" xlink:title="CHero::useItem">
<polygon fill="none" stroke="black" points="119,-6 119,-25 203,-25 203,-6 119,-6"/>
<text text-anchor="middle" x="161" y="-13" font-family="Helvetica,sans-Serif" font-size="10.00">CHero::useItem</text>
</a>
</g>
</g>
<!-- Node27&#45;&gt;Node28 -->
<g id="edge1" class="edge"><title>Node27&#45;&gt;Node28</title>
<path fill="none" stroke="midnightblue" d="M93.475,-15.5C101.975,-15.5 110.695,-15.5 118.908,-15.5"/>
<polygon fill="midnightblue" stroke="midnightblue" points="93.2661,-12.0001 83.266,-15.5 93.266,-19.0001 93.2661,-12.0001"/>
</g>
<!-- Node29 -->
<g id="node3" class="node"><title>Node29</title>
<g id="a_node3"><a xlink:href="class_c_inventory_browser.html#ac865349ca08d9402c869d8e5450c689a" target="_top" xlink:title="CInventoryBrowser::\lequip">
<polygon fill="none" stroke="black" points="239,-0.5 239,-30.5 342,-30.5 342,-0.5 239,-0.5"/>
<text text-anchor="start" x="247" y="-18.5" font-family="Helvetica,sans-Serif" font-size="10.00">CInventoryBrowser::</text>
<text text-anchor="middle" x="290.5" y="-7.5" font-family="Helvetica,sans-Serif" font-size="10.00">equip</text>
</a>
</g>
</g>
<!-- Node28&#45;&gt;Node29 -->
<g id="edge2" class="edge"><title>Node28&#45;&gt;Node29</title>
<path fill="none" stroke="midnightblue" d="M213.127,-15.5C221.553,-15.5 230.285,-15.5 238.702,-15.5"/>
<polygon fill="midnightblue" stroke="midnightblue" points="213.044,-12.0001 203.044,-15.5 213.044,-19.0001 213.044,-12.0001"/>
</g>
<!-- Node30 -->
<g id="node4" class="node"><title>Node30</title>
<g id="a_node4"><a xlink:href="class_c_inventory_browser.html#a91c51766048ba5629b125b9a444d31bb" target="_top" xlink:title="CInventoryBrowser::\loperator()">
<polygon fill="none" stroke="black" points="378,-0.5 378,-30.5 481,-30.5 481,-0.5 378,-0.5"/>
<text text-anchor="start" x="386" y="-18.5" font-family="Helvetica,sans-Serif" font-size="10.00">CInventoryBrowser::</text>
<text text-anchor="middle" x="429.5" y="-7.5" font-family="Helvetica,sans-Serif" font-size="10.00">operator()</text>
</a>
</g>
</g>
<!-- Node29&#45;&gt;Node30 -->
<g id="edge3" class="edge"><title>Node29&#45;&gt;Node30</title>
<path fill="none" stroke="midnightblue" d="M352.32,-15.5C360.772,-15.5 369.382,-15.5 377.626,-15.5"/>
<polygon fill="midnightblue" stroke="midnightblue" points="352.125,-12.0001 342.125,-15.5 352.124,-19.0001 352.125,-12.0001"/>
</g>
</g>
</svg>
