<?xml version="1.0" encoding="UTF-8" standalone="no"?>
<!DOCTYPE svg PUBLIC "-//W3C//DTD SVG 1.1//EN"
 "http://www.w3.org/Graphics/SVG/1.1/DTD/svg11.dtd">
<!-- Generated by graphviz version 2.38.0 (20140413.2041)
 -->
<!-- Title: IOhandle::dumpLine Pages: 1 -->
<svg width="526pt" height="104pt"
 viewBox="0.00 0.00 526.00 104.00" xmlns="http://www.w3.org/2000/svg" xmlns:xlink="http://www.w3.org/1999/xlink">
<g id="graph0" class="graph" transform="scale(1 1) rotate(0) translate(4 100)">
<title>IOhandle::dumpLine</title>
<!-- Node1 -->
<g id="node1" class="node"><title>Node1</title>
<polygon fill="#bfbfbf" stroke="black" points="0,-38.5 0,-57.5 103,-57.5 103,-38.5 0,-38.5"/>
<text text-anchor="middle" x="51.5" y="-45.5" font-family="Helvetica,sans-Serif" font-size="10.00">IOhandle::dumpLine</text>
</g>
<!-- Node2 -->
<g id="node2" class="node"><title>Node2</title>
<g id="a_node2"><a xlink:href="class_i_ohandle.html#a42f66760fa3e33400921dcb8d9a8cd57" target="_top" xlink:title="IOhandle::loadEvent">
<polygon fill="none" stroke="black" points="147.5,-76.5 147.5,-95.5 250.5,-95.5 250.5,-76.5 147.5,-76.5"/>
<text text-anchor="middle" x="199" y="-83.5" font-family="Helvetica,sans-Serif" font-size="10.00">IOhandle::loadEvent</text>
</a>
</g>
</g>
<!-- Node1&#45;&gt;Node2 -->
<g id="edge1" class="edge"><title>Node1&#45;&gt;Node2</title>
<path fill="none" stroke="midnightblue" d="M99.1532,-60.1843C119.353,-65.46 142.648,-71.5438 161.548,-76.4799"/>
<polygon fill="midnightblue" stroke="midnightblue" points="99.7757,-56.7296 89.2158,-57.589 98.0068,-63.5024 99.7757,-56.7296"/>
</g>
<!-- Node5 -->
<g id="node5" class="node"><title>Node5</title>
<g id="a_node5"><a xlink:href="class_i_ohandle.html#a99dd11dfe48cea80e164a9d7477aad5f" target="_top" xlink:title="IOhandle::loadCreature">
<polygon fill="none" stroke="black" points="141,-38.5 141,-57.5 257,-57.5 257,-38.5 141,-38.5"/>
<text text-anchor="middle" x="199" y="-45.5" font-family="Helvetica,sans-Serif" font-size="10.00">IOhandle::loadCreature</text>
</a>
</g>
</g>
<!-- Node1&#45;&gt;Node5 -->
<g id="edge4" class="edge"><title>Node1&#45;&gt;Node5</title>
<path fill="none" stroke="midnightblue" d="M113.507,-48C122.591,-48 131.926,-48 140.925,-48"/>
<polygon fill="midnightblue" stroke="midnightblue" points="113.389,-44.5001 103.389,-48 113.389,-51.5001 113.389,-44.5001"/>
</g>
<!-- Node6 -->
<g id="node6" class="node"><title>Node6</title>
<g id="a_node6"><a xlink:href="class_i_ohandle.html#a4870dc9635a6c30ef483d699dffd8774" target="_top" xlink:title="IOhandle::loadShopItem">
<polygon fill="none" stroke="black" points="139,-0.5 139,-19.5 259,-19.5 259,-0.5 139,-0.5"/>
<text text-anchor="middle" x="199" y="-7.5" font-family="Helvetica,sans-Serif" font-size="10.00">IOhandle::loadShopItem</text>
</a>
</g>
</g>
<!-- Node1&#45;&gt;Node6 -->
<g id="edge6" class="edge"><title>Node1&#45;&gt;Node6</title>
<path fill="none" stroke="midnightblue" d="M99.1532,-35.8157C119.353,-30.54 142.648,-24.4562 161.548,-19.5201"/>
<polygon fill="midnightblue" stroke="midnightblue" points="98.0068,-32.4976 89.2158,-38.411 99.7757,-39.2704 98.0068,-32.4976"/>
</g>
<!-- Node3 -->
<g id="node3" class="node"><title>Node3</title>
<g id="a_node3"><a xlink:href="class_c_world.html#a944f12acb1ff76beed2648647ff19d0f" target="_top" xlink:title="CWorld::loadWorld">
<polygon fill="none" stroke="black" points="295,-38.5 295,-57.5 393,-57.5 393,-38.5 295,-38.5"/>
<text text-anchor="middle" x="344" y="-45.5" font-family="Helvetica,sans-Serif" font-size="10.00">CWorld::loadWorld</text>
</a>
</g>
</g>
<!-- Node2&#45;&gt;Node3 -->
<g id="edge2" class="edge"><title>Node2&#45;&gt;Node3</title>
<path fill="none" stroke="midnightblue" d="M245.813,-73.8258C265.587,-68.5713 288.384,-62.5134 306.927,-57.5859"/>
<polygon fill="midnightblue" stroke="midnightblue" points="244.851,-70.4601 236.085,-76.411 246.648,-77.2253 244.851,-70.4601"/>
</g>
<!-- Node4 -->
<g id="node4" class="node"><title>Node4</title>
<g id="a_node4"><a xlink:href="class_c_game.html#af5435e79a93dd92991ae24b499976470" target="_top" xlink:title="CGame::CGame">
<polygon fill="none" stroke="black" points="429,-38.5 429,-57.5 518,-57.5 518,-38.5 429,-38.5"/>
<text text-anchor="middle" x="473.5" y="-45.5" font-family="Helvetica,sans-Serif" font-size="10.00">CGame::CGame</text>
</a>
</g>
</g>
<!-- Node3&#45;&gt;Node4 -->
<g id="edge3" class="edge"><title>Node3&#45;&gt;Node4</title>
<path fill="none" stroke="midnightblue" d="M403.218,-48C411.836,-48 420.589,-48 428.842,-48"/>
<polygon fill="midnightblue" stroke="midnightblue" points="403.202,-44.5001 393.202,-48 403.202,-51.5001 403.202,-44.5001"/>
</g>
<!-- Node5&#45;&gt;Node3 -->
<g id="edge5" class="edge"><title>Node5&#45;&gt;Node3</title>
<path fill="none" stroke="midnightblue" d="M267.343,-48C276.623,-48 285.997,-48 294.836,-48"/>
<polygon fill="midnightblue" stroke="midnightblue" points="267.34,-44.5001 257.34,-48 267.34,-51.5001 267.34,-44.5001"/>
</g>
<!-- Node6&#45;&gt;Node3 -->
<g id="edge7" class="edge"><title>Node6&#45;&gt;Node3</title>
<path fill="none" stroke="midnightblue" d="M245.813,-22.1742C265.587,-27.4287 288.384,-33.4866 306.927,-38.4141"/>
<polygon fill="midnightblue" stroke="midnightblue" points="246.648,-18.7747 236.085,-19.589 244.851,-25.5399 246.648,-18.7747"/>
</g>
</g>
</svg>
