<?xml version="1.0" encoding="UTF-8" standalone="no"?>
<!DOCTYPE svg PUBLIC "-//W3C//DTD SVG 1.1//EN"
 "http://www.w3.org/Graphics/SVG/1.1/DTD/svg11.dtd">
<!-- Generated by graphviz version 2.38.0 (20140413.2041)
 -->
<!-- Title: CGame::createHero Pages: 1 -->
<svg width="682pt" height="114pt"
 viewBox="0.00 0.00 682.00 114.00" xmlns="http://www.w3.org/2000/svg" xmlns:xlink="http://www.w3.org/1999/xlink">
<g id="graph0" class="graph" transform="scale(1 1) rotate(0) translate(4 110)">
<title>CGame::createHero</title>
<!-- Node82 -->
<g id="node1" class="node"><title>Node82</title>
<polygon fill="#bfbfbf" stroke="black" points="0,-0.5 0,-19.5 103,-19.5 103,-0.5 0,-0.5"/>
<text text-anchor="middle" x="51.5" y="-7.5" font-family="Helvetica,sans-Serif" font-size="10.00">CGame::createHero</text>
</g>
<!-- Node83 -->
<g id="node2" class="node"><title>Node83</title>
<g id="a_node2"><a xlink:href="class_c_game.html#a39e1e296c6dcabbf5c824eea6424d6d9" target="_top" xlink:title="CGame::mainMenu">
<polygon fill="none" stroke="black" points="139,-0.5 139,-19.5 240,-19.5 240,-0.5 139,-0.5"/>
<text text-anchor="middle" x="189.5" y="-7.5" font-family="Helvetica,sans-Serif" font-size="10.00">CGame::mainMenu</text>
</a>
</g>
</g>
<!-- Node82&#45;&gt;Node83 -->
<g id="edge1" class="edge"><title>Node82&#45;&gt;Node83</title>
<path fill="none" stroke="midnightblue" d="M113.373,-10C121.851,-10 130.479,-10 138.721,-10"/>
<polygon fill="midnightblue" stroke="midnightblue" points="113.141,-6.5001 103.141,-10 113.141,-13.5001 113.141,-6.5001"/>
</g>
<!-- Node84 -->
<g id="node3" class="node"><title>Node84</title>
<g id="a_node3"><a xlink:href="class_c_game.html#aa9d3da2fefa1c04faefc6586dbd37971" target="_top" xlink:title="CGame::play">
<polygon fill="none" stroke="black" points="276,-29.5 276,-48.5 350,-48.5 350,-29.5 276,-29.5"/>
<text text-anchor="middle" x="313" y="-36.5" font-family="Helvetica,sans-Serif" font-size="10.00">CGame::play</text>
</a>
</g>
</g>
<!-- Node83&#45;&gt;Node84 -->
<g id="edge2" class="edge"><title>Node83&#45;&gt;Node84</title>
<path fill="none" stroke="midnightblue" d="M240.361,-21.901C252.165,-24.7184 264.536,-27.6711 275.612,-30.3147"/>
<polygon fill="midnightblue" stroke="midnightblue" points="241.16,-18.4934 230.62,-19.5761 239.535,-25.3021 241.16,-18.4934"/>
</g>
<!-- Node86 -->
<g id="node5" class="node"><title>Node86</title>
<g id="a_node5"><a xlink:href="class_c_game.html#a714b291af5e20aae8be14a905fd0522d" target="_top" xlink:title="CGame::tickComponent">
<polygon fill="none" stroke="black" points="553,-10.5 553,-29.5 674,-29.5 674,-10.5 553,-10.5"/>
<text text-anchor="middle" x="613.5" y="-17.5" font-family="Helvetica,sans-Serif" font-size="10.00">CGame::tickComponent</text>
</a>
</g>
</g>
<!-- Node83&#45;&gt;Node86 -->
<g id="edge7" class="edge"><title>Node83&#45;&gt;Node86</title>
<path fill="none" stroke="midnightblue" d="M250.597,-11.4241C330.999,-13.3294 472.715,-16.6876 552.875,-18.5871"/>
<polygon fill="midnightblue" stroke="midnightblue" points="250.23,-7.91451 240.15,-11.1765 250.064,-14.9125 250.23,-7.91451"/>
</g>
<!-- Node85 -->
<g id="node4" class="node"><title>Node85</title>
<g id="a_node4"><a xlink:href="class_c_game.html#ac0a8028013ca5a7c135c29fa582df4a0" target="_top" xlink:title="CGame::checkHeroStatus">
<polygon fill="none" stroke="black" points="386,-86.5 386,-105.5 517,-105.5 517,-86.5 386,-86.5"/>
<text text-anchor="middle" x="451.5" y="-93.5" font-family="Helvetica,sans-Serif" font-size="10.00">CGame::checkHeroStatus</text>
</a>
</g>
</g>
<!-- Node84&#45;&gt;Node85 -->
<g id="edge3" class="edge"><title>Node84&#45;&gt;Node85</title>
<path fill="none" stroke="midnightblue" d="M338.634,-53.569C352.276,-61.2331 369.723,-70.3842 386,-77 394.76,-80.5603 404.434,-83.7698 413.566,-86.494"/>
<polygon fill="midnightblue" stroke="midnightblue" points="340.276,-50.4765 329.858,-48.55 336.801,-56.5529 340.276,-50.4765"/>
</g>
<!-- Node87 -->
<g id="node6" class="node"><title>Node87</title>
<g id="a_node6"><a xlink:href="main_8cpp.html#ae66f6b31b5ad750f1fe042a706a4e3d4" target="_top" xlink:title="main">
<polygon fill="none" stroke="black" points="432.5,-48.5 432.5,-67.5 470.5,-67.5 470.5,-48.5 432.5,-48.5"/>
<text text-anchor="middle" x="451.5" y="-55.5" font-family="Helvetica,sans-Serif" font-size="10.00">main</text>
</a>
</g>
</g>
<!-- Node84&#45;&gt;Node87 -->
<g id="edge6" class="edge"><title>Node84&#45;&gt;Node87</title>
<path fill="none" stroke="midnightblue" d="M360.129,-45.4208C384.788,-48.8533 413.768,-52.8871 432.132,-55.4433"/>
<polygon fill="midnightblue" stroke="midnightblue" points="360.608,-41.9539 350.221,-44.0418 359.643,-48.8871 360.608,-41.9539"/>
</g>
<!-- Node85&#45;&gt;Node86 -->
<g id="edge4" class="edge"><title>Node85&#45;&gt;Node86</title>
<path fill="none" stroke="midnightblue" d="M500.837,-83.2149C506.361,-81.3274 511.853,-79.2512 517,-77 547.782,-63.5375 580.838,-42.043 598.857,-29.6543"/>
<polygon fill="midnightblue" stroke="midnightblue" points="499.372,-80.0097 490.925,-86.4056 501.517,-86.673 499.372,-80.0097"/>
</g>
<!-- Node86&#45;&gt;Node84 -->
<g id="edge5" class="edge"><title>Node86&#45;&gt;Node84</title>
<path fill="none" stroke="midnightblue" d="M542.704,-24.4426C482.365,-28.2833 397.572,-33.6805 350.006,-36.7082"/>
<polygon fill="midnightblue" stroke="midnightblue" points="543.161,-27.9207 552.918,-23.7925 542.716,-20.9349 543.161,-27.9207"/>
</g>
</g>
</svg>
