<?xml version="1.0" encoding="UTF-8" standalone="no"?>
<!DOCTYPE svg PUBLIC "-//W3C//DTD SVG 1.1//EN"
 "http://www.w3.org/Graphics/SVG/1.1/DTD/svg11.dtd">
<!-- Generated by graphviz version 2.38.0 (20140413.2041)
 -->
<!-- Title: CHero::exportData Pages: 1 -->
<svg width="262pt" height="142pt"
 viewBox="0.00 0.00 262.00 142.00" xmlns="http://www.w3.org/2000/svg" xmlns:xlink="http://www.w3.org/1999/xlink">
<g id="graph0" class="graph" transform="scale(1 1) rotate(0) translate(4 138)">
<title>CHero::exportData</title>
<!-- Node13 -->
<g id="node1" class="node"><title>Node13</title>
<polygon fill="#bfbfbf" stroke="black" points="0,-57.5 0,-76.5 97,-76.5 97,-57.5 0,-57.5"/>
<text text-anchor="middle" x="48.5" y="-64.5" font-family="Helvetica,sans-Serif" font-size="10.00">CHero::exportData</text>
</g>
<!-- Node14 -->
<g id="node2" class="node"><title>Node14</title>
<g id="a_node2"><a xlink:href="struct_hero_stats.html#a9580a49eab11c0babd042b6e7e551e4e" target="_top" xlink:title="HeroStats::exportData">
<polygon fill="none" stroke="black" points="137,-114.5 137,-133.5 250,-133.5 250,-114.5 137,-114.5"/>
<text text-anchor="middle" x="193.5" y="-121.5" font-family="Helvetica,sans-Serif" font-size="10.00">HeroStats::exportData</text>
</a>
</g>
</g>
<!-- Node13&#45;&gt;Node14 -->
<g id="edge1" class="edge"><title>Node13&#45;&gt;Node14</title>
<path fill="none" stroke="midnightblue" d="M68.7936,-76.5665C85.542,-84.6803 110.561,-96.3461 133,-105 138.574,-107.15 144.505,-109.254 150.38,-111.233"/>
<polygon fill="midnightblue" stroke="midnightblue" points="149.551,-114.645 160.144,-114.431 151.73,-107.992 149.551,-114.645"/>
</g>
<!-- Node15 -->
<g id="node3" class="node"><title>Node15</title>
<g id="a_node3"><a xlink:href="class_c_equipment.html#a6b27732ece0ab3c74bff006093dc5a7d" target="_top" xlink:title="CEquipment::getAttack">
<polygon fill="none" stroke="black" points="134.5,-76.5 134.5,-95.5 252.5,-95.5 252.5,-76.5 134.5,-76.5"/>
<text text-anchor="middle" x="193.5" y="-83.5" font-family="Helvetica,sans-Serif" font-size="10.00">CEquipment::getAttack</text>
</a>
</g>
</g>
<!-- Node13&#45;&gt;Node15 -->
<g id="edge2" class="edge"><title>Node13&#45;&gt;Node15</title>
<path fill="none" stroke="midnightblue" d="M97.1169,-73.3267C105.888,-74.4921 115.201,-75.7294 124.437,-76.9566"/>
<polygon fill="midnightblue" stroke="midnightblue" points="124.025,-80.4326 134.399,-78.2803 124.947,-73.4936 124.025,-80.4326"/>
</g>
<!-- Node16 -->
<g id="node4" class="node"><title>Node16</title>
<g id="a_node4"><a xlink:href="class_c_equipment.html#a27e962aead56bb39886acc86c17b7478" target="_top" xlink:title="CEquipment::getArmour">
<polygon fill="none" stroke="black" points="133,-38.5 133,-57.5 254,-57.5 254,-38.5 133,-38.5"/>
<text text-anchor="middle" x="193.5" y="-45.5" font-family="Helvetica,sans-Serif" font-size="10.00">CEquipment::getArmour</text>
</a>
</g>
</g>
<!-- Node13&#45;&gt;Node16 -->
<g id="edge3" class="edge"><title>Node13&#45;&gt;Node16</title>
<path fill="none" stroke="midnightblue" d="M97.1169,-60.6733C105.351,-59.5793 114.062,-58.4218 122.739,-57.2689"/>
<polygon fill="midnightblue" stroke="midnightblue" points="123.427,-60.7083 132.879,-55.9216 122.505,-53.7693 123.427,-60.7083"/>
</g>
<!-- Node17 -->
<g id="node5" class="node"><title>Node17</title>
<g id="a_node5"><a xlink:href="class_c_inventory.html#aaf1332bfb30866845bbcae69e411e4bc" target="_top" xlink:title="CInventory::exportData">
<polygon fill="none" stroke="black" points="136,-0.5 136,-19.5 251,-19.5 251,-0.5 136,-0.5"/>
<text text-anchor="middle" x="193.5" y="-7.5" font-family="Helvetica,sans-Serif" font-size="10.00">CInventory::exportData</text>
</a>
</g>
</g>
<!-- Node13&#45;&gt;Node17 -->
<g id="edge4" class="edge"><title>Node13&#45;&gt;Node17</title>
<path fill="none" stroke="midnightblue" d="M68.7936,-57.4335C85.542,-49.3197 110.561,-37.6539 133,-29 138.574,-26.8503 144.505,-24.7459 150.38,-22.7668"/>
<polygon fill="midnightblue" stroke="midnightblue" points="151.73,-26.0077 160.144,-19.5687 149.551,-19.3555 151.73,-26.0077"/>
</g>
</g>
</svg>
