<?xml version="1.0" encoding="UTF-8" standalone="no"?>
<!DOCTYPE svg PUBLIC "-//W3C//DTD SVG 1.1//EN"
 "http://www.w3.org/Graphics/SVG/1.1/DTD/svg11.dtd">
<!-- Generated by graphviz version 2.38.0 (20140413.2041)
 -->
<!-- Title: CChoice::execute Pages: 1 -->
<svg width="446pt" height="66pt"
 viewBox="0.00 0.00 446.00 66.00" xmlns="http://www.w3.org/2000/svg" xmlns:xlink="http://www.w3.org/1999/xlink">
<g id="graph0" class="graph" transform="scale(1 1) rotate(0) translate(4 62)">
<title>CChoice::execute</title>
<!-- Node4 -->
<g id="node1" class="node"><title>Node4</title>
<polygon fill="#bfbfbf" stroke="black" points="0,-19.5 0,-38.5 94,-38.5 94,-19.5 0,-19.5"/>
<text text-anchor="middle" x="47" y="-26.5" font-family="Helvetica,sans-Serif" font-size="10.00">CChoice::execute</text>
</g>
<!-- Node5 -->
<g id="node2" class="node"><title>Node5</title>
<g id="a_node2"><a xlink:href="class_c_display.html#a53b65673a9b0bfc807a3a1e448962928" target="_top" xlink:title="CDisplay::printWithDelimiter">
<polygon fill="none" stroke="black" points="130,-38.5 130,-57.5 269,-57.5 269,-38.5 130,-38.5"/>
<text text-anchor="middle" x="199.5" y="-45.5" font-family="Helvetica,sans-Serif" font-size="10.00">CDisplay::printWithDelimiter</text>
</a>
</g>
</g>
<!-- Node4&#45;&gt;Node5 -->
<g id="edge1" class="edge"><title>Node4&#45;&gt;Node5</title>
<path fill="none" stroke="midnightblue" d="M94.383,-34.8557C102.453,-35.8745 111.045,-36.9592 119.7,-38.0518"/>
<polygon fill="midnightblue" stroke="midnightblue" points="119.502,-41.5545 129.861,-39.3347 120.379,-34.6096 119.502,-41.5545"/>
</g>
<!-- Node7 -->
<g id="node4" class="node"><title>Node7</title>
<g id="a_node4"><a xlink:href="class_c_display.html#a7d4efb0285d6cdf757bc34e38718e17d" target="_top" xlink:title="CDisplay::multiChoice">
<polygon fill="none" stroke="black" points="143,-0.5 143,-19.5 256,-19.5 256,-0.5 143,-0.5"/>
<text text-anchor="middle" x="199.5" y="-7.5" font-family="Helvetica,sans-Serif" font-size="10.00">CDisplay::multiChoice</text>
</a>
</g>
</g>
<!-- Node4&#45;&gt;Node7 -->
<g id="edge3" class="edge"><title>Node4&#45;&gt;Node7</title>
<path fill="none" stroke="midnightblue" d="M94.383,-23.1443C106.446,-21.6215 119.674,-19.9514 132.536,-18.3277"/>
<polygon fill="midnightblue" stroke="midnightblue" points="133.26,-21.7642 142.743,-17.0391 132.383,-14.8193 133.26,-21.7642"/>
</g>
<!-- Node6 -->
<g id="node3" class="node"><title>Node6</title>
<g id="a_node3"><a xlink:href="class_c_display.html#af350b35b44fc756e0c721ec4ee56c67a" target="_top" xlink:title="CDisplay::printDelimiter">
<polygon fill="none" stroke="black" points="312,-38.5 312,-57.5 431,-57.5 431,-38.5 312,-38.5"/>
<text text-anchor="middle" x="371.5" y="-45.5" font-family="Helvetica,sans-Serif" font-size="10.00">CDisplay::printDelimiter</text>
</a>
</g>
</g>
<!-- Node5&#45;&gt;Node6 -->
<g id="edge2" class="edge"><title>Node5&#45;&gt;Node6</title>
<path fill="none" stroke="midnightblue" d="M269.155,-48C279.91,-48 291.027,-48 301.783,-48"/>
<polygon fill="midnightblue" stroke="midnightblue" points="301.96,-51.5001 311.96,-48 301.96,-44.5001 301.96,-51.5001"/>
</g>
<!-- Node8 -->
<g id="node5" class="node"><title>Node8</title>
<g id="a_node5"><a xlink:href="class_c_display.html#aba2a285f19e987f9ba82447f43be2b10" target="_top" xlink:title="CDisplay::dumpToNewLine">
<polygon fill="none" stroke="black" points="305,-0.5 305,-19.5 438,-19.5 438,-0.5 305,-0.5"/>
<text text-anchor="middle" x="371.5" y="-7.5" font-family="Helvetica,sans-Serif" font-size="10.00">CDisplay::dumpToNewLine</text>
</a>
</g>
</g>
<!-- Node7&#45;&gt;Node8 -->
<g id="edge4" class="edge"><title>Node7&#45;&gt;Node8</title>
<path fill="none" stroke="midnightblue" d="M256.164,-10C268.466,-10 281.702,-10 294.652,-10"/>
<polygon fill="midnightblue" stroke="midnightblue" points="294.952,-13.5001 304.952,-10 294.952,-6.5001 294.952,-13.5001"/>
</g>
</g>
</svg>
