<?xml version="1.0" encoding="UTF-8" standalone="no"?>
<!DOCTYPE svg PUBLIC "-//W3C//DTD SVG 1.1//EN"
 "http://www.w3.org/Graphics/SVG/1.1/DTD/svg11.dtd">
<!-- Generated by graphviz version 2.38.0 (20140413.2041)
 -->
<!-- Title: Graphical Class Hierarchy Pages: 1 -->
<svg width="172pt" height="142pt"
 viewBox="0.00 0.00 172.00 142.00" xmlns="http://www.w3.org/2000/svg" xmlns:xlink="http://www.w3.org/1999/xlink">
<g id="graph0" class="graph" transform="scale(1 1) rotate(0) translate(4 138)">
<title>Graphical Class Hierarchy</title>
<!-- Node0 -->
<g id="node1" class="node"><title>Node0</title>
<g id="a_node1"><a xlink:href="class_c_event.html" target="_top" xlink:title="CEvent">
<polygon fill="none" stroke="black" points="0,-57.5 0,-76.5 47,-76.5 47,-57.5 0,-57.5"/>
<text text-anchor="middle" x="23.5" y="-64.5" font-family="Helvetica,sans-Serif" font-size="10.00">CEvent</text>
</a>
</g>
</g>
<!-- Node1 -->
<g id="node2" class="node"><title>Node1</title>
<g id="a_node2"><a xlink:href="class_c_choice.html" target="_top" xlink:title="CChoice">
<polygon fill="none" stroke="black" points="97,-114.5 97,-133.5 150,-133.5 150,-114.5 97,-114.5"/>
<text text-anchor="middle" x="123.5" y="-121.5" font-family="Helvetica,sans-Serif" font-size="10.00">CChoice</text>
</a>
</g>
</g>
<!-- Node0&#45;&gt;Node1 -->
<g id="edge1" class="edge"><title>Node0&#45;&gt;Node1</title>
<path fill="none" stroke="midnightblue" d="M46.5354,-82.2664C57.3254,-89.4939 70.629,-98.0442 83,-105 88.8372,-108.282 95.3287,-111.553 101.335,-114.432"/>
<polygon fill="midnightblue" stroke="midnightblue" points="48.3791,-79.2877 38.1387,-76.5704 44.4495,-85.0807 48.3791,-79.2877"/>
</g>
<!-- Node2 -->
<g id="node3" class="node"><title>Node2</title>
<g id="a_node3"><a xlink:href="class_c_dialogue_n_p_c.html" target="_top" xlink:title="CDialogueNPC">
<polygon fill="none" stroke="black" points="83,-76.5 83,-95.5 164,-95.5 164,-76.5 83,-76.5"/>
<text text-anchor="middle" x="123.5" y="-83.5" font-family="Helvetica,sans-Serif" font-size="10.00">CDialogueNPC</text>
</a>
</g>
</g>
<!-- Node0&#45;&gt;Node2 -->
<g id="edge2" class="edge"><title>Node0&#45;&gt;Node2</title>
<path fill="none" stroke="midnightblue" d="M57.2337,-73.3463C65.4903,-74.9471 74.442,-76.6826 82.9927,-78.3404"/>
<polygon fill="midnightblue" stroke="midnightblue" points="57.7129,-69.8741 47.2295,-71.4067 56.3805,-76.7462 57.7129,-69.8741"/>
</g>
<!-- Node3 -->
<g id="node4" class="node"><title>Node3</title>
<g id="a_node4"><a xlink:href="class_c_fight.html" target="_top" xlink:title="CFight">
<polygon fill="none" stroke="black" points="101,-38.5 101,-57.5 146,-57.5 146,-38.5 101,-38.5"/>
<text text-anchor="middle" x="123.5" y="-45.5" font-family="Helvetica,sans-Serif" font-size="10.00">CFight</text>
</a>
</g>
</g>
<!-- Node0&#45;&gt;Node3 -->
<g id="edge3" class="edge"><title>Node0&#45;&gt;Node3</title>
<path fill="none" stroke="midnightblue" d="M57.2425,-60.652C71.6183,-57.8648 88.0997,-54.6694 100.903,-52.1873"/>
<polygon fill="midnightblue" stroke="midnightblue" points="56.3805,-57.2538 47.2295,-62.5933 57.7129,-64.1259 56.3805,-57.2538"/>
</g>
<!-- Node4 -->
<g id="node5" class="node"><title>Node4</title>
<g id="a_node5"><a xlink:href="class_c_trap.html" target="_top" xlink:title="CTrap">
<polygon fill="none" stroke="black" points="102.5,-0.5 102.5,-19.5 144.5,-19.5 144.5,-0.5 102.5,-0.5"/>
<text text-anchor="middle" x="123.5" y="-7.5" font-family="Helvetica,sans-Serif" font-size="10.00">CTrap</text>
</a>
</g>
</g>
<!-- Node0&#45;&gt;Node4 -->
<g id="edge4" class="edge"><title>Node0&#45;&gt;Node4</title>
<path fill="none" stroke="midnightblue" d="M46.5354,-51.7336C57.3254,-44.5061 70.629,-35.9558 83,-29 89.1025,-25.5688 95.9202,-22.1499 102.151,-19.1776"/>
<polygon fill="midnightblue" stroke="midnightblue" points="44.4495,-48.9193 38.1387,-57.4296 48.3791,-54.7123 44.4495,-48.9193"/>
</g>
</g>
</svg>
