<?xml version="1.0" encoding="UTF-8" standalone="no"?>
<!DOCTYPE svg PUBLIC "-//W3C//DTD SVG 1.1//EN"
 "http://www.w3.org/Graphics/SVG/1.1/DTD/svg11.dtd">
<!-- Generated by graphviz version 2.38.0 (20140413.2041)
 -->
<!-- Title: Graphical Class Hierarchy Pages: 1 -->
<svg width="141pt" height="66pt"
 viewBox="0.00 0.00 141.00 66.00" xmlns="http://www.w3.org/2000/svg" xmlns:xlink="http://www.w3.org/1999/xlink">
<g id="graph0" class="graph" transform="scale(1 1) rotate(0) translate(4 62)">
<title>Graphical Class Hierarchy</title>
<!-- Node0 -->
<g id="node1" class="node"><title>Node0</title>
<g id="a_node1"><a xlink:href="class_c_item.html" target="_top" xlink:title="CItem">
<polygon fill="none" stroke="black" points="0,-19.5 0,-38.5 42,-38.5 42,-19.5 0,-19.5"/>
<text text-anchor="middle" x="21" y="-26.5" font-family="Helvetica,sans-Serif" font-size="10.00">CItem</text>
</a>
</g>
</g>
<!-- Node1 -->
<g id="node2" class="node"><title>Node1</title>
<g id="a_node2"><a xlink:href="class_c_armour.html" target="_top" xlink:title="CArmour">
<polygon fill="none" stroke="black" points="78,-38.5 78,-57.5 133,-57.5 133,-38.5 78,-38.5"/>
<text text-anchor="middle" x="105.5" y="-45.5" font-family="Helvetica,sans-Serif" font-size="10.00">CArmour</text>
</a>
</g>
</g>
<!-- Node0&#45;&gt;Node1 -->
<g id="edge1" class="edge"><title>Node0&#45;&gt;Node1</title>
<path fill="none" stroke="midnightblue" d="M52.1946,-35.9539C60.5821,-37.8856 69.628,-39.9689 77.8001,-41.8509"/>
<polygon fill="midnightblue" stroke="midnightblue" points="52.9237,-32.5303 42.3933,-33.6966 51.3526,-39.3517 52.9237,-32.5303"/>
</g>
<!-- Node2 -->
<g id="node3" class="node"><title>Node2</title>
<g id="a_node3"><a xlink:href="class_c_sword.html" target="_top" xlink:title="CSword">
<polygon fill="none" stroke="black" points="80.5,-0.5 80.5,-19.5 130.5,-19.5 130.5,-0.5 80.5,-0.5"/>
<text text-anchor="middle" x="105.5" y="-7.5" font-family="Helvetica,sans-Serif" font-size="10.00">CSword</text>
</a>
</g>
</g>
<!-- Node0&#45;&gt;Node2 -->
<g id="edge2" class="edge"><title>Node0&#45;&gt;Node2</title>
<path fill="none" stroke="midnightblue" d="M52.3329,-22.0142C61.5249,-19.8973 71.4962,-17.6009 80.2352,-15.5883"/>
<polygon fill="midnightblue" stroke="midnightblue" points="51.3526,-18.6483 42.3933,-24.3034 52.9237,-25.4697 51.3526,-18.6483"/>
</g>
</g>
</svg>
