<?xml version="1.0" encoding="UTF-8" standalone="no"?>
<!DOCTYPE svg PUBLIC "-//W3C//DTD SVG 1.1//EN"
 "http://www.w3.org/Graphics/SVG/1.1/DTD/svg11.dtd">
<!-- Generated by graphviz version 2.38.0 (20140413.2041)
 -->
<!-- Title: main Pages: 1 -->
<svg width="1404pt" height="844pt"
 viewBox="0.00 0.00 1404.00 843.83" xmlns="http://www.w3.org/2000/svg" xmlns:xlink="http://www.w3.org/1999/xlink">
<g id="graph0" class="graph" transform="scale(1 1) rotate(0) translate(4 839.834)">
<title>main</title>
<!-- Node0 -->
<g id="node1" class="node"><title>Node0</title>
<polygon fill="#bfbfbf" stroke="black" points="0,-399.5 0,-418.5 38,-418.5 38,-399.5 0,-399.5"/>
<text text-anchor="middle" x="19" y="-406.5" font-family="Helvetica,sans-Serif" font-size="10.00">main</text>
</g>
<!-- Node1 -->
<g id="node2" class="node"><title>Node1</title>
<g id="a_node2"><a xlink:href="class_c_game.html#aa9d3da2fefa1c04faefc6586dbd37971" target="_top" xlink:title="CGame::play">
<polygon fill="none" stroke="black" points="74,-399.5 74,-418.5 148,-418.5 148,-399.5 74,-399.5"/>
<text text-anchor="middle" x="111" y="-406.5" font-family="Helvetica,sans-Serif" font-size="10.00">CGame::play</text>
</a>
</g>
</g>
<!-- Node0&#45;&gt;Node1 -->
<g id="edge1" class="edge"><title>Node0&#45;&gt;Node1</title>
<path fill="none" stroke="midnightblue" d="M38.2128,-409C45.6766,-409 54.6863,-409 63.763,-409"/>
<polygon fill="midnightblue" stroke="midnightblue" points="63.9607,-412.5 73.9607,-409 63.9607,-405.5 63.9607,-412.5"/>
</g>
<!-- Node2 -->
<g id="node3" class="node"><title>Node2</title>
<g id="a_node3"><a xlink:href="class_c_display.html#a53b65673a9b0bfc807a3a1e448962928" target="_top" xlink:title="CDisplay::printWithDelimiter">
<polygon fill="none" stroke="black" points="675,-228.5 675,-247.5 814,-247.5 814,-228.5 675,-228.5"/>
<text text-anchor="middle" x="744.5" y="-235.5" font-family="Helvetica,sans-Serif" font-size="10.00">CDisplay::printWithDelimiter</text>
</a>
</g>
</g>
<!-- Node1&#45;&gt;Node2 -->
<g id="edge2" class="edge"><title>Node1&#45;&gt;Node2</title>
<path fill="none" stroke="midnightblue" d="M122.376,-399.284C152.962,-371.318 246.554,-290.489 341,-257 448.284,-218.959 581.793,-221.6 664.849,-228.576"/>
<polygon fill="midnightblue" stroke="midnightblue" points="664.704,-232.077 674.972,-229.469 665.319,-225.104 664.704,-232.077"/>
</g>
<!-- Node4 -->
<g id="node5" class="node"><title>Node4</title>
<g id="a_node5"><a xlink:href="class_c_game.html#a39e1e296c6dcabbf5c824eea6424d6d9" target="_top" xlink:title="CGame::mainMenu">
<polygon fill="none" stroke="black" points="356,-570.5 356,-589.5 457,-589.5 457,-570.5 356,-570.5"/>
<text text-anchor="middle" x="406.5" y="-577.5" font-family="Helvetica,sans-Serif" font-size="10.00">CGame::mainMenu</text>
</a>
</g>
</g>
<!-- Node1&#45;&gt;Node4 -->
<g id="edge4" class="edge"><title>Node1&#45;&gt;Node4</title>
<path fill="none" stroke="midnightblue" d="M128.621,-418.684C177.556,-447.194 321.348,-530.971 380.075,-565.187"/>
<polygon fill="midnightblue" stroke="midnightblue" points="378.659,-568.413 389.062,-570.423 382.183,-562.364 378.659,-568.413"/>
</g>
<!-- Node24 -->
<g id="node25" class="node"><title>Node24</title>
<g id="a_node25"><a xlink:href="class_c_game.html#a714b291af5e20aae8be14a905fd0522d" target="_top" xlink:title="CGame::tickComponent">
<polygon fill="none" stroke="black" points="184,-380.5 184,-399.5 305,-399.5 305,-380.5 184,-380.5"/>
<text text-anchor="middle" x="244.5" y="-387.5" font-family="Helvetica,sans-Serif" font-size="10.00">CGame::tickComponent</text>
</a>
</g>
</g>
<!-- Node1&#45;&gt;Node24 -->
<g id="edge36" class="edge"><title>Node1&#45;&gt;Node24</title>
<path fill="none" stroke="midnightblue" d="M148.281,-403.758C156.29,-402.601 165.035,-401.337 173.873,-400.06"/>
<polygon fill="midnightblue" stroke="midnightblue" points="174.461,-403.512 183.857,-398.618 173.46,-396.584 174.461,-403.512"/>
</g>
<!-- Node3 -->
<g id="node4" class="node"><title>Node3</title>
<g id="a_node4"><a xlink:href="class_c_display.html#af350b35b44fc756e0c721ec4ee56c67a" target="_top" xlink:title="CDisplay::printDelimiter">
<polygon fill="none" stroke="black" points="878.5,-228.5 878.5,-247.5 997.5,-247.5 997.5,-228.5 878.5,-228.5"/>
<text text-anchor="middle" x="938" y="-235.5" font-family="Helvetica,sans-Serif" font-size="10.00">CDisplay::printDelimiter</text>
</a>
</g>
</g>
<!-- Node2&#45;&gt;Node3 -->
<g id="edge3" class="edge"><title>Node2&#45;&gt;Node3</title>
<path fill="none" stroke="midnightblue" d="M814.095,-238C831.679,-238 850.595,-238 868.19,-238"/>
<polygon fill="midnightblue" stroke="midnightblue" points="868.377,-241.5 878.377,-238 868.377,-234.5 868.377,-241.5"/>
</g>
<!-- Node5 -->
<g id="node6" class="node"><title>Node5</title>
<g id="a_node6"><a xlink:href="class_c_display.html#a7d4efb0285d6cdf757bc34e38718e17d" target="_top" xlink:title="CDisplay::multiChoice">
<polygon fill="none" stroke="black" points="517,-684.5 517,-703.5 630,-703.5 630,-684.5 517,-684.5"/>
<text text-anchor="middle" x="573.5" y="-691.5" font-family="Helvetica,sans-Serif" font-size="10.00">CDisplay::multiChoice</text>
</a>
</g>
</g>
<!-- Node4&#45;&gt;Node5 -->
<g id="edge5" class="edge"><title>Node4&#45;&gt;Node5</title>
<path fill="none" stroke="midnightblue" d="M417.559,-589.626C442.492,-613.47 505.333,-673.467 508,-675 511.861,-677.22 516.004,-679.201 520.26,-680.964"/>
<polygon fill="midnightblue" stroke="midnightblue" points="519.096,-684.265 529.688,-684.484 521.544,-677.708 519.096,-684.265"/>
</g>
<!-- Node7 -->
<g id="node8" class="node"><title>Node7</title>
<g id="a_node8"><a xlink:href="class_c_game.html#a21a30939333b2c98f607d9bd2927d105" target="_top" xlink:title="CGame::createHero">
<polygon fill="none" stroke="black" points="522,-608.5 522,-627.5 625,-627.5 625,-608.5 522,-608.5"/>
<text text-anchor="middle" x="573.5" y="-615.5" font-family="Helvetica,sans-Serif" font-size="10.00">CGame::createHero</text>
</a>
</g>
</g>
<!-- Node4&#45;&gt;Node7 -->
<g id="edge7" class="edge"><title>Node4&#45;&gt;Node7</title>
<path fill="none" stroke="midnightblue" d="M449.136,-589.589C471.008,-594.626 498.006,-600.844 521.164,-606.177"/>
<polygon fill="midnightblue" stroke="midnightblue" points="520.633,-609.646 531.163,-608.48 522.204,-602.825 520.633,-609.646"/>
</g>
<!-- Node10 -->
<g id="node11" class="node"><title>Node10</title>
<g id="a_node11"><a xlink:href="class_c_game.html#accda079824fc813cbd64b4743846ae24" target="_top" xlink:title="CGame::loadGame">
<polygon fill="none" stroke="black" points="523.5,-646.5 523.5,-665.5 623.5,-665.5 623.5,-646.5 523.5,-646.5"/>
<text text-anchor="middle" x="573.5" y="-653.5" font-family="Helvetica,sans-Serif" font-size="10.00">CGame::loadGame</text>
</a>
</g>
</g>
<!-- Node4&#45;&gt;Node10 -->
<g id="edge12" class="edge"><title>Node4&#45;&gt;Node10</title>
<path fill="none" stroke="midnightblue" d="M421.938,-589.603C440.988,-601.936 475.869,-623.37 508,-637 513.439,-639.307 519.248,-641.445 525.069,-643.389"/>
<polygon fill="midnightblue" stroke="midnightblue" points="524.222,-646.793 534.812,-646.476 526.336,-640.119 524.222,-646.793"/>
</g>
<!-- Node22 -->
<g id="node23" class="node"><title>Node22</title>
<g id="a_node23"><a xlink:href="class_c_game.html#a7b4409fd50b77ae5743a30bd43f01f61" target="_top" xlink:title="CGame::exit">
<polygon fill="none" stroke="black" points="538,-570.5 538,-589.5 609,-589.5 609,-570.5 538,-570.5"/>
<text text-anchor="middle" x="573.5" y="-577.5" font-family="Helvetica,sans-Serif" font-size="10.00">CGame::exit</text>
</a>
</g>
</g>
<!-- Node4&#45;&gt;Node22 -->
<g id="edge32" class="edge"><title>Node4&#45;&gt;Node22</title>
<path fill="none" stroke="midnightblue" d="M457.005,-580C479.541,-580 506.009,-580 527.918,-580"/>
<polygon fill="midnightblue" stroke="midnightblue" points="527.95,-583.5 537.95,-580 527.95,-576.5 527.95,-583.5"/>
</g>
<!-- Node23 -->
<g id="node24" class="node"><title>Node23</title>
<g id="a_node24"><a xlink:href="class_c_display.html#a63f3c4f78cef1d3b13290970da9e3e85" target="_top" xlink:title="CDisplay::printError">
<polygon fill="none" stroke="black" points="523,-266.5 523,-285.5 624,-285.5 624,-266.5 523,-266.5"/>
<text text-anchor="middle" x="573.5" y="-273.5" font-family="Helvetica,sans-Serif" font-size="10.00">CDisplay::printError</text>
</a>
</g>
</g>
<!-- Node4&#45;&gt;Node23 -->
<g id="edge34" class="edge"><title>Node4&#45;&gt;Node23</title>
<path fill="none" stroke="midnightblue" d="M413.121,-570.311C425.397,-548.791 454.871,-495.11 472,-447 495.286,-381.597 460.251,-345.396 508,-295 509.827,-293.072 511.838,-291.337 513.987,-289.775"/>
<polygon fill="midnightblue" stroke="midnightblue" points="516.002,-292.651 522.856,-284.572 512.46,-286.613 516.002,-292.651"/>
</g>
<!-- Node6 -->
<g id="node7" class="node"><title>Node6</title>
<g id="a_node7"><a xlink:href="class_c_display.html#aba2a285f19e987f9ba82447f43be2b10" target="_top" xlink:title="CDisplay::dumpToNewLine">
<polygon fill="none" stroke="black" points="871.5,-570.5 871.5,-589.5 1004.5,-589.5 1004.5,-570.5 871.5,-570.5"/>
<text text-anchor="middle" x="938" y="-577.5" font-family="Helvetica,sans-Serif" font-size="10.00">CDisplay::dumpToNewLine</text>
</a>
</g>
</g>
<!-- Node5&#45;&gt;Node6 -->
<g id="edge6" class="edge"><title>Node5&#45;&gt;Node6</title>
<path fill="none" stroke="midnightblue" d="M622.37,-684.482C682.322,-672.069 781.165,-649.837 814,-632 833.073,-621.639 830.732,-608.994 850,-599 854.6,-596.614 859.486,-594.528 864.505,-592.702"/>
<polygon fill="midnightblue" stroke="midnightblue" points="865.865,-595.94 874.281,-589.505 863.689,-589.287 865.865,-595.94"/>
</g>
<!-- Node7&#45;&gt;Node2 -->
<g id="edge11" class="edge"><title>Node7&#45;&gt;Node2</title>
<path fill="none" stroke="midnightblue" d="M625.009,-609.761C630.337,-607.08 635.189,-603.574 639,-599 736.83,-481.572 576.24,-373.647 675,-257 676.022,-255.793 677.113,-254.66 678.264,-253.595"/>
<polygon fill="midnightblue" stroke="midnightblue" points="680.591,-256.23 686.627,-247.523 676.478,-250.566 680.591,-256.23"/>
</g>
<!-- Node8 -->
<g id="node9" class="node"><title>Node8</title>
<g id="a_node9"><a xlink:href="class_c_display.html#a54c5d36f4bc11d4a935ff5c86ea4e653" target="_top" xlink:title="CDisplay::print">
<polygon fill="none" stroke="black" points="704.5,-513.5 704.5,-532.5 784.5,-532.5 784.5,-513.5 704.5,-513.5"/>
<text text-anchor="middle" x="744.5" y="-520.5" font-family="Helvetica,sans-Serif" font-size="10.00">CDisplay::print</text>
</a>
</g>
</g>
<!-- Node7&#45;&gt;Node8 -->
<g id="edge8" class="edge"><title>Node7&#45;&gt;Node8</title>
<path fill="none" stroke="midnightblue" d="M618.509,-608.434C625.637,-605.942 632.728,-602.841 639,-599 658.84,-586.851 656.613,-575.254 675,-561 686.734,-551.904 700.918,-543.655 713.328,-537.185"/>
<polygon fill="midnightblue" stroke="midnightblue" points="715.055,-540.234 722.402,-532.6 711.898,-533.986 715.055,-540.234"/>
</g>
<!-- Node9 -->
<g id="node10" class="node"><title>Node9</title>
<g id="a_node10"><a xlink:href="class_c_display.html#a1bd3e25973ed15055a68d4db6abfa765" target="_top" xlink:title="CDisplay::getString">
<polygon fill="none" stroke="black" points="694,-570.5 694,-589.5 795,-589.5 795,-570.5 694,-570.5"/>
<text text-anchor="middle" x="744.5" y="-577.5" font-family="Helvetica,sans-Serif" font-size="10.00">CDisplay::getString</text>
</a>
</g>
</g>
<!-- Node7&#45;&gt;Node9 -->
<g id="edge9" class="edge"><title>Node7&#45;&gt;Node9</title>
<path fill="none" stroke="midnightblue" d="M617.146,-608.411C639.648,-603.351 667.448,-597.1 691.238,-591.751"/>
<polygon fill="midnightblue" stroke="midnightblue" points="692.172,-595.129 701.161,-589.52 690.637,-588.299 692.172,-595.129"/>
</g>
<!-- Node9&#45;&gt;Node6 -->
<g id="edge10" class="edge"><title>Node9&#45;&gt;Node6</title>
<path fill="none" stroke="midnightblue" d="M795.314,-580C815.4,-580 839.02,-580 861.155,-580"/>
<polygon fill="midnightblue" stroke="midnightblue" points="861.202,-583.5 871.202,-580 861.202,-576.5 861.202,-583.5"/>
</g>
<!-- Node10&#45;&gt;Node2 -->
<g id="edge16" class="edge"><title>Node10&#45;&gt;Node2</title>
<path fill="none" stroke="midnightblue" d="M623.795,-648.417C629.61,-645.657 634.916,-641.954 639,-637 692.953,-571.548 620.529,-322.021 675,-257 675.991,-255.817 677.048,-254.705 678.163,-253.659"/>
<polygon fill="midnightblue" stroke="midnightblue" points="680.303,-256.429 686.265,-247.671 676.143,-250.8 680.303,-256.429"/>
</g>
<!-- Node10&#45;&gt;Node3 -->
<g id="edge13" class="edge"><title>Node10&#45;&gt;Node3</title>
<path fill="none" stroke="midnightblue" d="M614.599,-646.411C633.001,-642.014 655.106,-636.737 675,-632 736.768,-617.293 767.015,-641.708 814,-599 918.025,-504.443 934.106,-318.42 936.565,-257.687"/>
<polygon fill="midnightblue" stroke="midnightblue" points="940.067,-257.672 936.89,-247.564 933.071,-257.446 940.067,-257.672"/>
</g>
<!-- Node10&#45;&gt;Node8 -->
<g id="edge14" class="edge"><title>Node10&#45;&gt;Node8</title>
<path fill="none" stroke="midnightblue" d="M623.636,-646.405C629.193,-643.951 634.475,-640.869 639,-637 667.406,-612.71 649.432,-588.262 675,-561 684.323,-551.059 696.843,-543.078 708.629,-537.046"/>
<polygon fill="midnightblue" stroke="midnightblue" points="710.345,-540.105 717.849,-532.626 707.319,-533.793 710.345,-540.105"/>
</g>
<!-- Node10&#45;&gt;Node9 -->
<g id="edge15" class="edge"><title>Node10&#45;&gt;Node9</title>
<path fill="none" stroke="midnightblue" d="M617.264,-646.4C624.755,-643.888 632.292,-640.789 639,-637 657.898,-626.324 656.377,-615.15 675,-604 682.071,-599.766 690.001,-596.129 697.888,-593.06"/>
<polygon fill="midnightblue" stroke="midnightblue" points="699.223,-596.3 707.428,-589.597 696.834,-589.72 699.223,-596.3"/>
</g>
<!-- Node11 -->
<g id="node12" class="node"><title>Node11</title>
<g id="a_node12"><a xlink:href="class_c_game.html#a507b71eeebc2a6aaa08d9e0dcb61c7ac" target="_top" xlink:title="CGame::importPlayerData">
<polygon fill="none" stroke="black" points="679,-684.5 679,-703.5 810,-703.5 810,-684.5 679,-684.5"/>
<text text-anchor="middle" x="744.5" y="-691.5" font-family="Helvetica,sans-Serif" font-size="10.00">CGame::importPlayerData</text>
</a>
</g>
</g>
<!-- Node10&#45;&gt;Node11 -->
<g id="edge17" class="edge"><title>Node10&#45;&gt;Node11</title>
<path fill="none" stroke="midnightblue" d="M617.146,-665.589C639.648,-670.649 667.448,-676.9 691.238,-682.249"/>
<polygon fill="midnightblue" stroke="midnightblue" points="690.637,-685.701 701.161,-684.48 692.172,-678.871 690.637,-685.701"/>
</g>
<!-- Node12 -->
<g id="node13" class="node"><title>Node12</title>
<g id="a_node13"><a xlink:href="class_c_stream_decoder.html#a27f04fbbe2eb121fe15988594fe7053f" target="_top" xlink:title="CStreamDecoder::decodePlayerData">
<polygon fill="none" stroke="black" points="850,-712.5 850,-731.5 1026,-731.5 1026,-712.5 850,-712.5"/>
<text text-anchor="middle" x="938" y="-719.5" font-family="Helvetica,sans-Serif" font-size="10.00">CStreamDecoder::decodePlayerData</text>
</a>
</g>
</g>
<!-- Node11&#45;&gt;Node12 -->
<g id="edge18" class="edge"><title>Node11&#45;&gt;Node12</title>
<path fill="none" stroke="midnightblue" d="M810.066,-703.44C826.677,-705.869 844.693,-708.503 861.792,-711.004"/>
<polygon fill="midnightblue" stroke="midnightblue" points="861.335,-714.474 871.736,-712.458 862.348,-707.547 861.335,-714.474"/>
</g>
<!-- Node15 -->
<g id="node16" class="node"><title>Node15</title>
<g id="a_node16"><a xlink:href="class_c_stream_decoder.html#a57a7f304974a6b5be31e374685b70e33" target="_top" xlink:title="CStreamDecoder::getNumbers">
<polygon fill="none" stroke="black" points="1247,-794.5 1247,-813.5 1396,-813.5 1396,-794.5 1247,-794.5"/>
<text text-anchor="middle" x="1321.5" y="-801.5" font-family="Helvetica,sans-Serif" font-size="10.00">CStreamDecoder::getNumbers</text>
</a>
</g>
</g>
<!-- Node11&#45;&gt;Node15 -->
<g id="edge31" class="edge"><title>Node11&#45;&gt;Node15</title>
<path fill="none" stroke="midnightblue" d="M761.539,-703.642C806.759,-730.181 939.939,-803.929 1062,-828 1126.97,-840.813 1145.16,-835.13 1211,-828 1232.58,-825.662 1256.15,-820.805 1275.87,-816.067"/>
<polygon fill="midnightblue" stroke="midnightblue" points="1276.93,-819.41 1285.8,-813.615 1275.26,-812.614 1276.93,-819.41"/>
</g>
<!-- Node16 -->
<g id="node17" class="node"><title>Node16</title>
<g id="a_node17"><a xlink:href="class_c_hero.html#a7b1a1b3c196bbe5b8da97c56f520c1f3" target="_top" xlink:title="CHero::update">
<polygon fill="none" stroke="black" points="898.5,-646.5 898.5,-665.5 977.5,-665.5 977.5,-646.5 898.5,-646.5"/>
<text text-anchor="middle" x="938" y="-653.5" font-family="Helvetica,sans-Serif" font-size="10.00">CHero::update</text>
</a>
</g>
</g>
<!-- Node11&#45;&gt;Node16 -->
<g id="edge22" class="edge"><title>Node11&#45;&gt;Node16</title>
<path fill="none" stroke="midnightblue" d="M793.824,-684.411C822.765,-678.668 859.441,-671.39 888.427,-665.639"/>
<polygon fill="midnightblue" stroke="midnightblue" points="889.206,-669.052 898.334,-663.673 887.844,-662.186 889.206,-669.052"/>
</g>
<!-- Node21 -->
<g id="node22" class="node"><title>Node21</title>
<g id="a_node22"><a xlink:href="class_c_storyline.html#ad8c62b61513d498b53454aeaf621dda0" target="_top" xlink:title="CStoryline::update">
<polygon fill="none" stroke="black" points="889.5,-608.5 889.5,-627.5 986.5,-627.5 986.5,-608.5 889.5,-608.5"/>
<text text-anchor="middle" x="938" y="-615.5" font-family="Helvetica,sans-Serif" font-size="10.00">CStoryline::update</text>
</a>
</g>
</g>
<!-- Node11&#45;&gt;Node21 -->
<g id="edge30" class="edge"><title>Node11&#45;&gt;Node21</title>
<path fill="none" stroke="midnightblue" d="M781.572,-684.403C792.409,-680.73 804.053,-675.955 814,-670 832.623,-658.85 830.732,-646.994 850,-637 859.058,-632.302 869.228,-628.763 879.335,-626.099"/>
<polygon fill="midnightblue" stroke="midnightblue" points="880.455,-629.43 889.377,-623.715 878.839,-622.619 880.455,-629.43"/>
</g>
<!-- Node13 -->
<g id="node14" class="node"><title>Node13</title>
<g id="a_node14"><a xlink:href="class_c_stream_decoder.html#a736a4660fb1fc91ffc7345050f815994" target="_top" xlink:title="CStreamDecoder::getString">
<polygon fill="none" stroke="black" points="1253.5,-668.5 1253.5,-687.5 1389.5,-687.5 1389.5,-668.5 1253.5,-668.5"/>
<text text-anchor="middle" x="1321.5" y="-675.5" font-family="Helvetica,sans-Serif" font-size="10.00">CStreamDecoder::getString</text>
</a>
</g>
</g>
<!-- Node12&#45;&gt;Node13 -->
<g id="edge19" class="edge"><title>Node12&#45;&gt;Node13</title>
<path fill="none" stroke="midnightblue" d="M1026.01,-718.76C1079.57,-715.984 1149.5,-710.954 1211,-702 1231.66,-698.991 1254.24,-694.289 1273.5,-689.841"/>
<polygon fill="midnightblue" stroke="midnightblue" points="1274.31,-693.246 1283.24,-687.548 1272.7,-686.432 1274.31,-693.246"/>
</g>
<!-- Node14 -->
<g id="node15" class="node"><title>Node14</title>
<g id="a_node15"><a xlink:href="class_c_stream_decoder.html#a5df71ab29ca4dc60f6c628fcb4a77949" target="_top" xlink:title="CStreamDecoder::getNumbers\lAsString">
<polygon fill="none" stroke="black" points="1062,-789 1062,-819 1211,-819 1211,-789 1062,-789"/>
<text text-anchor="start" x="1070" y="-807" font-family="Helvetica,sans-Serif" font-size="10.00">CStreamDecoder::getNumbers</text>
<text text-anchor="middle" x="1136.5" y="-796" font-family="Helvetica,sans-Serif" font-size="10.00">AsString</text>
</a>
</g>
</g>
<!-- Node12&#45;&gt;Node14 -->
<g id="edge20" class="edge"><title>Node12&#45;&gt;Node14</title>
<path fill="none" stroke="midnightblue" d="M961.634,-731.669C986.284,-742.175 1026.89,-759.413 1062,-774 1070.69,-777.611 1079.98,-781.431 1088.92,-785.091"/>
<polygon fill="midnightblue" stroke="midnightblue" points="1087.87,-788.441 1098.45,-788.982 1090.51,-781.96 1087.87,-788.441"/>
</g>
<!-- Node14&#45;&gt;Node15 -->
<g id="edge21" class="edge"><title>Node14&#45;&gt;Node15</title>
<path fill="none" stroke="midnightblue" d="M1211.14,-804C1219.47,-804 1228.01,-804 1236.46,-804"/>
<polygon fill="midnightblue" stroke="midnightblue" points="1236.71,-807.5 1246.71,-804 1236.71,-800.5 1236.71,-807.5"/>
</g>
<!-- Node16&#45;&gt;Node13 -->
<g id="edge23" class="edge"><title>Node16&#45;&gt;Node13</title>
<path fill="none" stroke="midnightblue" d="M977.783,-655.582C994.336,-653.526 1012.83,-648.478 1026,-637 1060.98,-606.513 1023.95,-565.558 1062,-539 1116.3,-501.097 1151.42,-510.09 1211,-539 1262.9,-564.183 1297.57,-627.206 1312.37,-659.01"/>
<polygon fill="midnightblue" stroke="midnightblue" points="1309.34,-660.805 1316.62,-668.499 1315.73,-657.942 1309.34,-660.805"/>
</g>
<!-- Node16&#45;&gt;Node15 -->
<g id="edge29" class="edge"><title>Node16&#45;&gt;Node15</title>
<path fill="none" stroke="midnightblue" d="M963.737,-665.597C1029.79,-691.221 1210.42,-761.295 1286.26,-790.716"/>
<polygon fill="midnightblue" stroke="midnightblue" points="1285.23,-794.071 1295.82,-794.425 1287.76,-787.545 1285.23,-794.071"/>
</g>
<!-- Node17 -->
<g id="node18" class="node"><title>Node17</title>
<g id="a_node18"><a xlink:href="class_c_stream_decoder.html#aeaef1aa3239cf7b5d00397b6e46f67d1" target="_top" xlink:title="CStreamDecoder::getString\lAsInt">
<polygon fill="none" stroke="black" points="1068.5,-663 1068.5,-693 1204.5,-693 1204.5,-663 1068.5,-663"/>
<text text-anchor="start" x="1076.5" y="-681" font-family="Helvetica,sans-Serif" font-size="10.00">CStreamDecoder::getString</text>
<text text-anchor="middle" x="1136.5" y="-670" font-family="Helvetica,sans-Serif" font-size="10.00">AsInt</text>
</a>
</g>
</g>
<!-- Node16&#45;&gt;Node17 -->
<g id="edge24" class="edge"><title>Node16&#45;&gt;Node17</title>
<path fill="none" stroke="midnightblue" d="M977.822,-660.346C1000.83,-662.923 1030.81,-666.279 1058.44,-669.372"/>
<polygon fill="midnightblue" stroke="midnightblue" points="1058.17,-672.864 1068.5,-670.498 1058.95,-665.907 1058.17,-672.864"/>
</g>
<!-- Node18 -->
<g id="node19" class="node"><title>Node18</title>
<g id="a_node19"><a xlink:href="class_c_equipment.html#abf42868d8cd5d627d872dbf7f80bff9a" target="_top" xlink:title="CEquipment::setAttack">
<polygon fill="none" stroke="black" points="1077.5,-624.5 1077.5,-643.5 1195.5,-643.5 1195.5,-624.5 1077.5,-624.5"/>
<text text-anchor="middle" x="1136.5" y="-631.5" font-family="Helvetica,sans-Serif" font-size="10.00">CEquipment::setAttack</text>
</a>
</g>
</g>
<!-- Node16&#45;&gt;Node18 -->
<g id="edge26" class="edge"><title>Node16&#45;&gt;Node18</title>
<path fill="none" stroke="midnightblue" d="M977.822,-651.654C1003.35,-648.796 1037.44,-644.979 1067.4,-641.625"/>
<polygon fill="midnightblue" stroke="midnightblue" points="1067.83,-645.098 1077.38,-640.507 1067.05,-638.142 1067.83,-645.098"/>
</g>
<!-- Node19 -->
<g id="node20" class="node"><title>Node19</title>
<g id="a_node20"><a xlink:href="class_c_equipment.html#a223e0e1172975f9d9c49612b2513afb0" target="_top" xlink:title="CEquipment::setArmour">
<polygon fill="none" stroke="black" points="1076,-586.5 1076,-605.5 1197,-605.5 1197,-586.5 1076,-586.5"/>
<text text-anchor="middle" x="1136.5" y="-593.5" font-family="Helvetica,sans-Serif" font-size="10.00">CEquipment::setArmour</text>
</a>
</g>
</g>
<!-- Node16&#45;&gt;Node19 -->
<g id="edge27" class="edge"><title>Node16&#45;&gt;Node19</title>
<path fill="none" stroke="midnightblue" d="M977.508,-650.447C992.931,-647.494 1010.65,-643.163 1026,-637 1043.4,-630.014 1044.73,-622.315 1062,-615 1067.73,-612.571 1073.86,-610.391 1080.03,-608.451"/>
<polygon fill="midnightblue" stroke="midnightblue" points="1081.11,-611.781 1089.71,-605.599 1079.13,-605.066 1081.11,-611.781"/>
</g>
<!-- Node20 -->
<g id="node21" class="node"><title>Node20</title>
<g id="a_node21"><a xlink:href="class_c_inventory.html#a2ae39f69247c25fa2ee46c4111bcce56" target="_top" xlink:title="CInventory::update">
<polygon fill="none" stroke="black" points="1088,-548.5 1088,-567.5 1185,-567.5 1185,-548.5 1088,-548.5"/>
<text text-anchor="middle" x="1136.5" y="-555.5" font-family="Helvetica,sans-Serif" font-size="10.00">CInventory::update</text>
</a>
</g>
</g>
<!-- Node16&#45;&gt;Node20 -->
<g id="edge28" class="edge"><title>Node16&#45;&gt;Node20</title>
<path fill="none" stroke="midnightblue" d="M977.699,-654.251C993.852,-651.91 1012.06,-647.009 1026,-637 1051.26,-618.863 1037.09,-595.613 1062,-577 1066.87,-573.361 1072.37,-570.417 1078.12,-568.035"/>
<polygon fill="midnightblue" stroke="midnightblue" points="1079.71,-571.185 1087.95,-564.534 1077.36,-564.59 1079.71,-571.185"/>
</g>
<!-- Node17&#45;&gt;Node13 -->
<g id="edge25" class="edge"><title>Node17&#45;&gt;Node13</title>
<path fill="none" stroke="midnightblue" d="M1204.6,-678C1217.16,-678 1230.38,-678 1243.21,-678"/>
<polygon fill="midnightblue" stroke="midnightblue" points="1243.4,-681.5 1253.4,-678 1243.4,-674.5 1243.4,-681.5"/>
</g>
<!-- Node22&#45;&gt;Node8 -->
<g id="edge33" class="edge"><title>Node22&#45;&gt;Node8</title>
<path fill="none" stroke="midnightblue" d="M608.433,-570.435C618.327,-567.53 629.13,-564.245 639,-561 662.483,-553.28 688.618,-543.776 708.878,-536.204"/>
<polygon fill="midnightblue" stroke="midnightblue" points="710.184,-539.452 718.314,-532.658 707.722,-532.899 710.184,-539.452"/>
</g>
<!-- Node23&#45;&gt;Node2 -->
<g id="edge35" class="edge"><title>Node23&#45;&gt;Node2</title>
<path fill="none" stroke="midnightblue" d="M617.146,-266.411C639.648,-261.351 667.448,-255.1 691.238,-249.751"/>
<polygon fill="midnightblue" stroke="midnightblue" points="692.172,-253.129 701.161,-247.52 690.637,-246.299 692.172,-253.129"/>
</g>
<!-- Node24&#45;&gt;Node4 -->
<g id="edge70" class="edge"><title>Node24&#45;&gt;Node4</title>
<path fill="none" stroke="midnightblue" d="M253.654,-399.683C279.112,-429.914 357.386,-522.865 390.479,-562.163"/>
<polygon fill="midnightblue" stroke="midnightblue" points="388.052,-564.714 397.17,-570.108 393.406,-560.205 388.052,-564.714"/>
</g>
<!-- Node24&#45;&gt;Node5 -->
<g id="edge37" class="edge"><title>Node24&#45;&gt;Node5</title>
<path fill="none" stroke="midnightblue" d="M247.394,-399.702C254.199,-432.173 280.305,-538.397 341,-599 386.826,-644.756 457.774,-669.436 509.051,-682.071"/>
<polygon fill="midnightblue" stroke="midnightblue" points="508.493,-685.535 519.031,-684.44 510.11,-678.725 508.493,-685.535"/>
</g>
<!-- Node25 -->
<g id="node26" class="node"><title>Node25</title>
<g id="a_node26"><a xlink:href="class_c_game.html#ac0a8028013ca5a7c135c29fa582df4a0" target="_top" xlink:title="CGame::checkHeroStatus">
<polygon fill="none" stroke="black" points="341,-418.5 341,-437.5 472,-437.5 472,-418.5 341,-418.5"/>
<text text-anchor="middle" x="406.5" y="-425.5" font-family="Helvetica,sans-Serif" font-size="10.00">CGame::checkHeroStatus</text>
</a>
</g>
</g>
<!-- Node24&#45;&gt;Node25 -->
<g id="edge38" class="edge"><title>Node24&#45;&gt;Node25</title>
<path fill="none" stroke="midnightblue" d="M285.875,-399.589C306.988,-404.604 333.029,-410.788 355.417,-416.105"/>
<polygon fill="midnightblue" stroke="midnightblue" points="354.877,-419.574 365.416,-418.48 356.495,-412.764 354.877,-419.574"/>
</g>
<!-- Node29 -->
<g id="node30" class="node"><title>Node29</title>
<g id="a_node30"><a xlink:href="class_c_game.html#acdb5a10d8b17584b07b3c736ede7bf57" target="_top" xlink:title="CGame::reset">
<polygon fill="none" stroke="black" points="535,-304.5 535,-323.5 612,-323.5 612,-304.5 535,-304.5"/>
<text text-anchor="middle" x="573.5" y="-311.5" font-family="Helvetica,sans-Serif" font-size="10.00">CGame::reset</text>
</a>
</g>
</g>
<!-- Node24&#45;&gt;Node29 -->
<g id="edge69" class="edge"><title>Node24&#45;&gt;Node29</title>
<path fill="none" stroke="midnightblue" d="M286.584,-380.452C347.317,-366.336 460.779,-339.966 525.001,-325.04"/>
<polygon fill="midnightblue" stroke="midnightblue" points="525.922,-328.419 534.87,-322.746 524.337,-321.601 525.922,-328.419"/>
</g>
<!-- Node33 -->
<g id="node34" class="node"><title>Node33</title>
<g id="a_node34"><a xlink:href="class_c_hero.html#a0232f04b4e49227ba90a8922135d4102" target="_top" xlink:title="CHero::printStats">
<polygon fill="none" stroke="black" points="527.5,-57.5 527.5,-76.5 619.5,-76.5 619.5,-57.5 527.5,-57.5"/>
<text text-anchor="middle" x="573.5" y="-64.5" font-family="Helvetica,sans-Serif" font-size="10.00">CHero::printStats</text>
</a>
</g>
</g>
<!-- Node24&#45;&gt;Node33 -->
<g id="edge50" class="edge"><title>Node24&#45;&gt;Node33</title>
<path fill="none" stroke="midnightblue" d="M251.358,-380.467C265.429,-357.899 302.812,-299.882 341,-257 407.746,-182.049 427.225,-164.566 508,-105 519.638,-96.418 533.343,-88.1181 545.12,-81.4761"/>
<polygon fill="midnightblue" stroke="midnightblue" points="547.013,-84.4289 554.075,-76.531 543.629,-78.301 547.013,-84.4289"/>
</g>
<!-- Node38 -->
<g id="node39" class="node"><title>Node38</title>
<g id="a_node39"><a xlink:href="class_c_game.html#a49656fe4404b3df63f2dbebd9b754edd" target="_top" xlink:title="CGame::saveGame">
<polygon fill="none" stroke="black" points="356,-266.5 356,-285.5 457,-285.5 457,-266.5 356,-266.5"/>
<text text-anchor="middle" x="406.5" y="-273.5" font-family="Helvetica,sans-Serif" font-size="10.00">CGame::saveGame</text>
</a>
</g>
</g>
<!-- Node24&#45;&gt;Node38 -->
<g id="edge56" class="edge"><title>Node24&#45;&gt;Node38</title>
<path fill="none" stroke="midnightblue" d="M258.866,-380.477C286.444,-360.827 349.884,-315.627 383.563,-291.63"/>
<polygon fill="midnightblue" stroke="midnightblue" points="385.719,-294.391 391.833,-285.738 381.657,-288.69 385.719,-294.391"/>
</g>
<!-- Node25&#45;&gt;Node1 -->
<g id="edge49" class="edge"><title>Node25&#45;&gt;Node1</title>
<path fill="none" stroke="midnightblue" d="M340.891,-423.817C285.656,-420.242 207.52,-415.184 158.323,-411.999"/>
<polygon fill="midnightblue" stroke="midnightblue" points="158.488,-408.502 148.283,-411.349 158.036,-415.488 158.488,-408.502"/>
</g>
<!-- Node25&#45;&gt;Node8 -->
<g id="edge41" class="edge"><title>Node25&#45;&gt;Node8</title>
<path fill="none" stroke="midnightblue" d="M472.146,-424.099C519.729,-423.398 585.22,-427.042 639,-447 673.965,-459.975 707.588,-488.15 726.866,-506.311"/>
<polygon fill="midnightblue" stroke="midnightblue" points="724.588,-508.976 734.212,-513.407 729.452,-503.942 724.588,-508.976"/>
</g>
<!-- Node26 -->
<g id="node27" class="node"><title>Node26</title>
<g id="a_node27"><a xlink:href="class_c_hero.html#acf265a146732ccfe08db87b6cc69cef3" target="_top" xlink:title="CHero::isDead">
<polygon fill="none" stroke="black" points="533.5,-494.5 533.5,-513.5 613.5,-513.5 613.5,-494.5 533.5,-494.5"/>
<text text-anchor="middle" x="573.5" y="-501.5" font-family="Helvetica,sans-Serif" font-size="10.00">CHero::isDead</text>
</a>
</g>
</g>
<!-- Node25&#45;&gt;Node26 -->
<g id="edge39" class="edge"><title>Node25&#45;&gt;Node26</title>
<path fill="none" stroke="midnightblue" d="M421.938,-437.603C440.988,-449.936 475.869,-471.37 508,-485 513.439,-487.307 519.248,-489.445 525.069,-491.389"/>
<polygon fill="midnightblue" stroke="midnightblue" points="524.222,-494.793 534.812,-494.476 526.336,-488.119 524.222,-494.793"/>
</g>
<!-- Node27 -->
<g id="node28" class="node"><title>Node27</title>
<g id="a_node28"><a xlink:href="class_c_storyline.html#a9531c0509722bbb1647837d4549a9520" target="_top" xlink:title="CStoryline::getEventCount">
<polygon fill="none" stroke="black" points="508,-456.5 508,-475.5 639,-475.5 639,-456.5 508,-456.5"/>
<text text-anchor="middle" x="573.5" y="-463.5" font-family="Helvetica,sans-Serif" font-size="10.00">CStoryline::getEventCount</text>
</a>
</g>
</g>
<!-- Node25&#45;&gt;Node27 -->
<g id="edge40" class="edge"><title>Node25&#45;&gt;Node27</title>
<path fill="none" stroke="midnightblue" d="M449.136,-437.589C471.008,-442.626 498.006,-448.844 521.164,-454.177"/>
<polygon fill="midnightblue" stroke="midnightblue" points="520.633,-457.646 531.163,-456.48 522.204,-450.825 520.633,-457.646"/>
</g>
<!-- Node28 -->
<g id="node29" class="node"><title>Node28</title>
<g id="a_node29"><a xlink:href="class_c_hero.html#ae4b84144aca1948f65daa0b9734f163f" target="_top" xlink:title="CHero::getName">
<polygon fill="none" stroke="black" points="529,-532.5 529,-551.5 618,-551.5 618,-532.5 529,-532.5"/>
<text text-anchor="middle" x="573.5" y="-539.5" font-family="Helvetica,sans-Serif" font-size="10.00">CHero::getName</text>
</a>
</g>
</g>
<!-- Node25&#45;&gt;Node28 -->
<g id="edge42" class="edge"><title>Node25&#45;&gt;Node28</title>
<path fill="none" stroke="midnightblue" d="M414.986,-437.636C430.346,-456.757 467.414,-499.661 508,-523 511.861,-525.22 516.004,-527.201 520.26,-528.964"/>
<polygon fill="midnightblue" stroke="midnightblue" points="519.096,-532.265 529.688,-532.484 521.544,-525.708 519.096,-532.265"/>
</g>
<!-- Node25&#45;&gt;Node29 -->
<g id="edge43" class="edge"><title>Node25&#45;&gt;Node29</title>
<path fill="none" stroke="midnightblue" d="M421.284,-418.477C449.724,-398.827 515.146,-353.627 549.878,-329.63"/>
<polygon fill="midnightblue" stroke="midnightblue" points="552.168,-332.302 558.405,-323.738 548.189,-326.543 552.168,-332.302"/>
</g>
<!-- Node29&#45;&gt;Node8 -->
<g id="edge44" class="edge"><title>Node29&#45;&gt;Node8</title>
<path fill="none" stroke="midnightblue" d="M612.119,-321.499C621.975,-325.064 631.836,-330.304 639,-338 677.812,-379.69 644.746,-412.739 675,-461 686.68,-479.632 705.495,-496.089 720.453,-507.357"/>
<polygon fill="midnightblue" stroke="midnightblue" points="718.584,-510.325 728.732,-513.369 722.697,-504.661 718.584,-510.325"/>
</g>
<!-- Node29&#45;&gt;Node21 -->
<g id="edge45" class="edge"><title>Node29&#45;&gt;Node21</title>
<path fill="none" stroke="midnightblue" d="M612.027,-322.196C621.24,-325.119 630.804,-328.976 639,-334 658.562,-345.99 658.709,-354.844 675,-371 735.711,-431.206 766.797,-432.708 814,-504 838.927,-541.648 815.811,-569.507 850,-599 858.335,-606.19 868.764,-610.851 879.477,-613.832"/>
<polygon fill="midnightblue" stroke="midnightblue" points="878.811,-617.271 889.344,-616.123 880.394,-610.452 878.811,-617.271"/>
</g>
<!-- Node30 -->
<g id="node31" class="node"><title>Node30</title>
<g id="a_node31"><a xlink:href="class_c_world.html#a72b79b6801a9e7ae670cc3790acf31d2" target="_top" xlink:title="CWorld::getStoryline">
<polygon fill="none" stroke="black" points="691,-342.5 691,-361.5 798,-361.5 798,-342.5 691,-342.5"/>
<text text-anchor="middle" x="744.5" y="-349.5" font-family="Helvetica,sans-Serif" font-size="10.00">CWorld::getStoryline</text>
</a>
</g>
</g>
<!-- Node29&#45;&gt;Node30 -->
<g id="edge46" class="edge"><title>Node29&#45;&gt;Node30</title>
<path fill="none" stroke="midnightblue" d="M612.007,-322.433C635.271,-327.665 665.505,-334.463 691.115,-340.221"/>
<polygon fill="midnightblue" stroke="midnightblue" points="690.517,-343.674 701.042,-342.453 692.053,-336.845 690.517,-343.674"/>
</g>
<!-- Node31 -->
<g id="node32" class="node"><title>Node31</title>
<g id="a_node32"><a xlink:href="class_c_shopping.html#aa232d999181d07bfd6ec0ec5c645f51b" target="_top" xlink:title="CShopping::update">
<polygon fill="none" stroke="black" points="695,-304.5 695,-323.5 794,-323.5 794,-304.5 695,-304.5"/>
<text text-anchor="middle" x="744.5" y="-311.5" font-family="Helvetica,sans-Serif" font-size="10.00">CShopping::update</text>
</a>
</g>
</g>
<!-- Node29&#45;&gt;Node31 -->
<g id="edge47" class="edge"><title>Node29&#45;&gt;Node31</title>
<path fill="none" stroke="midnightblue" d="M612.007,-314C633.364,-314 660.593,-314 684.728,-314"/>
<polygon fill="midnightblue" stroke="midnightblue" points="684.856,-317.5 694.856,-314 684.856,-310.5 684.856,-317.5"/>
</g>
<!-- Node32 -->
<g id="node33" class="node"><title>Node32</title>
<g id="a_node33"><a xlink:href="class_c_world.html#a1c10d5ec2514347fd3fe28f85b23db13" target="_top" xlink:title="CWorld::getAllItemID">
<polygon fill="none" stroke="black" points="691,-266.5 691,-285.5 798,-285.5 798,-266.5 691,-266.5"/>
<text text-anchor="middle" x="744.5" y="-273.5" font-family="Helvetica,sans-Serif" font-size="10.00">CWorld::getAllItemID</text>
</a>
</g>
</g>
<!-- Node29&#45;&gt;Node32 -->
<g id="edge48" class="edge"><title>Node29&#45;&gt;Node32</title>
<path fill="none" stroke="midnightblue" d="M612.007,-305.567C635.271,-300.335 665.505,-293.537 691.115,-287.779"/>
<polygon fill="midnightblue" stroke="midnightblue" points="692.053,-291.155 701.042,-285.547 690.517,-284.326 692.053,-291.155"/>
</g>
<!-- Node33&#45;&gt;Node2 -->
<g id="edge51" class="edge"><title>Node33&#45;&gt;Node2</title>
<path fill="none" stroke="midnightblue" d="M594.96,-76.5504C608.323,-83.3661 625.695,-93.3634 639,-105 660.023,-123.387 707.501,-187.883 730.512,-219.812"/>
<polygon fill="midnightblue" stroke="midnightblue" points="727.887,-222.157 736.562,-228.24 733.574,-218.075 727.887,-222.157"/>
</g>
<!-- Node34 -->
<g id="node35" class="node"><title>Node34</title>
<g id="a_node35"><a xlink:href="class_c_hero.html#a1be25c88254db1f753e1ce89da03ef46" target="_top" xlink:title="CHero::getAttack">
<polygon fill="none" stroke="black" points="698.5,-0.5 698.5,-19.5 790.5,-19.5 790.5,-0.5 698.5,-0.5"/>
<text text-anchor="middle" x="744.5" y="-7.5" font-family="Helvetica,sans-Serif" font-size="10.00">CHero::getAttack</text>
</a>
</g>
</g>
<!-- Node33&#45;&gt;Node34 -->
<g id="edge52" class="edge"><title>Node33&#45;&gt;Node34</title>
<path fill="none" stroke="midnightblue" d="M597.84,-57.4841C618.073,-49.402 648.228,-37.7542 675,-29 682.016,-26.7058 689.493,-24.4464 696.832,-22.3309"/>
<polygon fill="midnightblue" stroke="midnightblue" points="698.026,-25.6307 706.699,-19.5455 696.124,-18.894 698.026,-25.6307"/>
</g>
<!-- Node36 -->
<g id="node37" class="node"><title>Node36</title>
<g id="a_node37"><a xlink:href="class_c_hero.html#a50d1e46ce5b1d84c6ed04493f1d71f81" target="_top" xlink:title="CHero::getArmour">
<polygon fill="none" stroke="black" points="697,-38.5 697,-57.5 792,-57.5 792,-38.5 697,-38.5"/>
<text text-anchor="middle" x="744.5" y="-45.5" font-family="Helvetica,sans-Serif" font-size="10.00">CHero::getArmour</text>
</a>
</g>
</g>
<!-- Node33&#45;&gt;Node36 -->
<g id="edge54" class="edge"><title>Node33&#45;&gt;Node36</title>
<path fill="none" stroke="midnightblue" d="M619.789,-61.9083C640.384,-59.5929 664.972,-56.8286 686.782,-54.3766"/>
<polygon fill="midnightblue" stroke="midnightblue" points="687.361,-57.8336 696.908,-53.2382 686.579,-50.8774 687.361,-57.8336"/>
</g>
<!-- Node35 -->
<g id="node36" class="node"><title>Node35</title>
<g id="a_node36"><a xlink:href="class_c_equipment.html#a6b27732ece0ab3c74bff006093dc5a7d" target="_top" xlink:title="CEquipment::getAttack">
<polygon fill="none" stroke="black" points="879,-0.5 879,-19.5 997,-19.5 997,-0.5 879,-0.5"/>
<text text-anchor="middle" x="938" y="-7.5" font-family="Helvetica,sans-Serif" font-size="10.00">CEquipment::getAttack</text>
</a>
</g>
</g>
<!-- Node34&#45;&gt;Node35 -->
<g id="edge53" class="edge"><title>Node34&#45;&gt;Node35</title>
<path fill="none" stroke="midnightblue" d="M790.883,-10C814.122,-10 842.894,-10 868.745,-10"/>
<polygon fill="midnightblue" stroke="midnightblue" points="868.865,-13.5001 878.865,-10 868.865,-6.5001 868.865,-13.5001"/>
</g>
<!-- Node37 -->
<g id="node38" class="node"><title>Node37</title>
<g id="a_node38"><a xlink:href="class_c_equipment.html#a27e962aead56bb39886acc86c17b7478" target="_top" xlink:title="CEquipment::getArmour">
<polygon fill="none" stroke="black" points="877.5,-38.5 877.5,-57.5 998.5,-57.5 998.5,-38.5 877.5,-38.5"/>
<text text-anchor="middle" x="938" y="-45.5" font-family="Helvetica,sans-Serif" font-size="10.00">CEquipment::getArmour</text>
</a>
</g>
</g>
<!-- Node36&#45;&gt;Node37 -->
<g id="edge55" class="edge"><title>Node36&#45;&gt;Node37</title>
<path fill="none" stroke="midnightblue" d="M792.346,-48C814.827,-48 842.225,-48 867.105,-48"/>
<polygon fill="midnightblue" stroke="midnightblue" points="867.226,-51.5001 877.226,-48 867.226,-44.5001 867.226,-51.5001"/>
</g>
<!-- Node38&#45;&gt;Node2 -->
<g id="edge67" class="edge"><title>Node38&#45;&gt;Node2</title>
<path fill="none" stroke="midnightblue" d="M452.36,-266.463C469.679,-263.059 489.697,-259.461 508,-257 559.967,-250.012 618.755,-245.265 664.596,-242.264"/>
<polygon fill="midnightblue" stroke="midnightblue" points="665.01,-245.744 674.766,-241.612 664.562,-238.759 665.01,-245.744"/>
</g>
<!-- Node38&#45;&gt;Node3 -->
<g id="edge57" class="edge"><title>Node38&#45;&gt;Node3</title>
<path fill="none" stroke="midnightblue" d="M430.653,-266.418C450.768,-258.462 480.856,-247.443 508,-241 640.665,-209.51 678.049,-208.562 814,-219 834.642,-220.585 857.062,-223.645 877.038,-226.854"/>
<polygon fill="midnightblue" stroke="midnightblue" points="876.496,-230.312 886.933,-228.487 877.636,-223.405 876.496,-230.312"/>
</g>
<!-- Node38&#45;&gt;Node8 -->
<g id="edge58" class="edge"><title>Node38&#45;&gt;Node8</title>
<path fill="none" stroke="midnightblue" d="M424.207,-285.644C470.769,-312.649 601.057,-389.12 639,-421 657.312,-436.386 658.112,-444.064 675,-461 691.096,-477.141 710.43,-494.467 724.447,-506.689"/>
<polygon fill="midnightblue" stroke="midnightblue" points="722.17,-509.347 732.021,-513.247 726.753,-504.055 722.17,-509.347"/>
</g>
<!-- Node38&#45;&gt;Node9 -->
<g id="edge59" class="edge"><title>Node38&#45;&gt;Node9</title>
<path fill="none" stroke="midnightblue" d="M413.349,-285.618C427.196,-307.661 464.133,-362.359 508,-394 558.938,-430.742 595.085,-402.098 639,-447 670.571,-479.28 645.456,-507.855 675,-542 683.777,-552.144 695.959,-560.112 707.619,-566.075"/>
<polygon fill="midnightblue" stroke="midnightblue" points="706.25,-569.299 716.784,-570.431 709.255,-562.977 706.25,-569.299"/>
</g>
<!-- Node38&#45;&gt;Node23 -->
<g id="edge68" class="edge"><title>Node38&#45;&gt;Node23</title>
<path fill="none" stroke="midnightblue" d="M457.005,-276C474.465,-276 494.284,-276 512.515,-276"/>
<polygon fill="midnightblue" stroke="midnightblue" points="512.745,-279.5 522.745,-276 512.745,-272.5 512.745,-279.5"/>
</g>
<!-- Node39 -->
<g id="node40" class="node"><title>Node39</title>
<g id="a_node40"><a xlink:href="class_c_game.html#a7d821ce9a0454653bbfde69979155da9" target="_top" xlink:title="CGame::exportPlayerData">
<polygon fill="none" stroke="black" points="508,-114.5 508,-133.5 639,-133.5 639,-114.5 508,-114.5"/>
<text text-anchor="middle" x="573.5" y="-121.5" font-family="Helvetica,sans-Serif" font-size="10.00">CGame::exportPlayerData</text>
</a>
</g>
</g>
<!-- Node38&#45;&gt;Node39 -->
<g id="edge60" class="edge"><title>Node38&#45;&gt;Node39</title>
<path fill="none" stroke="midnightblue" d="M449.577,-266.445C457.824,-262.996 465.82,-258.323 472,-252 506.187,-217.018 473.813,-182.982 508,-148 511.862,-144.048 516.434,-140.741 521.333,-137.974"/>
<polygon fill="midnightblue" stroke="midnightblue" points="522.959,-141.075 530.423,-133.555 519.899,-134.78 522.959,-141.075"/>
</g>
<!-- Node40 -->
<g id="node41" class="node"><title>Node40</title>
<g id="a_node41"><a xlink:href="class_c_hero.html#a1593ac4dfc01368e99b2b82a21c3c6ed" target="_top" xlink:title="CHero::exportData">
<polygon fill="none" stroke="black" points="696,-76.5 696,-95.5 793,-95.5 793,-76.5 696,-76.5"/>
<text text-anchor="middle" x="744.5" y="-83.5" font-family="Helvetica,sans-Serif" font-size="10.00">CHero::exportData</text>
</a>
</g>
</g>
<!-- Node39&#45;&gt;Node40 -->
<g id="edge61" class="edge"><title>Node39&#45;&gt;Node40</title>
<path fill="none" stroke="midnightblue" d="M617.146,-114.411C639.648,-109.351 667.448,-103.1 691.238,-97.7512"/>
<polygon fill="midnightblue" stroke="midnightblue" points="692.172,-101.129 701.161,-95.5201 690.637,-94.2991 692.172,-101.129"/>
</g>
<!-- Node43 -->
<g id="node44" class="node"><title>Node43</title>
<g id="a_node44"><a xlink:href="class_c_storyline.html#aa8cb69bd93260855dc0221d901b1bd07" target="_top" xlink:title="CStoryline::exportData">
<polygon fill="none" stroke="black" points="687,-114.5 687,-133.5 802,-133.5 802,-114.5 687,-114.5"/>
<text text-anchor="middle" x="744.5" y="-121.5" font-family="Helvetica,sans-Serif" font-size="10.00">CStoryline::exportData</text>
</a>
</g>
</g>
<!-- Node39&#45;&gt;Node43 -->
<g id="edge66" class="edge"><title>Node39&#45;&gt;Node43</title>
<path fill="none" stroke="midnightblue" d="M639.356,-124C651.574,-124 664.371,-124 676.648,-124"/>
<polygon fill="midnightblue" stroke="midnightblue" points="676.814,-127.5 686.814,-124 676.814,-120.5 676.814,-127.5"/>
</g>
<!-- Node40&#45;&gt;Node35 -->
<g id="edge63" class="edge"><title>Node40&#45;&gt;Node35</title>
<path fill="none" stroke="midnightblue" d="M792.956,-76.4763C800.283,-73.99 807.549,-70.8802 814,-67 833.936,-55.0091 829.738,-40.4326 850,-29 855.88,-25.6821 862.286,-22.9432 868.867,-20.6825"/>
<polygon fill="midnightblue" stroke="midnightblue" points="870.059,-23.978 878.594,-17.7005 868.007,-17.2855 870.059,-23.978"/>
</g>
<!-- Node40&#45;&gt;Node37 -->
<g id="edge64" class="edge"><title>Node40&#45;&gt;Node37</title>
<path fill="none" stroke="midnightblue" d="M793.33,-76.509C819.377,-71.3402 851.8,-64.9065 879.25,-59.4596"/>
<polygon fill="midnightblue" stroke="midnightblue" points="879.989,-62.8812 889.116,-57.5017 878.626,-56.0151 879.989,-62.8812"/>
</g>
<!-- Node41 -->
<g id="node42" class="node"><title>Node41</title>
<g id="a_node42"><a xlink:href="struct_hero_stats.html#a9580a49eab11c0babd042b6e7e551e4e" target="_top" xlink:title="HeroStats::exportData">
<polygon fill="none" stroke="black" points="881.5,-114.5 881.5,-133.5 994.5,-133.5 994.5,-114.5 881.5,-114.5"/>
<text text-anchor="middle" x="938" y="-121.5" font-family="Helvetica,sans-Serif" font-size="10.00">HeroStats::exportData</text>
</a>
</g>
</g>
<!-- Node40&#45;&gt;Node41 -->
<g id="edge62" class="edge"><title>Node40&#45;&gt;Node41</title>
<path fill="none" stroke="midnightblue" d="M793.33,-95.491C819.377,-100.66 851.8,-107.094 879.25,-112.54"/>
<polygon fill="midnightblue" stroke="midnightblue" points="878.626,-115.985 889.116,-114.498 879.989,-109.119 878.626,-115.985"/>
</g>
<!-- Node42 -->
<g id="node43" class="node"><title>Node42</title>
<g id="a_node43"><a xlink:href="class_c_inventory.html#aaf1332bfb30866845bbcae69e411e4bc" target="_top" xlink:title="CInventory::exportData">
<polygon fill="none" stroke="black" points="880.5,-76.5 880.5,-95.5 995.5,-95.5 995.5,-76.5 880.5,-76.5"/>
<text text-anchor="middle" x="938" y="-83.5" font-family="Helvetica,sans-Serif" font-size="10.00">CInventory::exportData</text>
</a>
</g>
</g>
<!-- Node40&#45;&gt;Node42 -->
<g id="edge65" class="edge"><title>Node40&#45;&gt;Node42</title>
<path fill="none" stroke="midnightblue" d="M793.33,-86C816.503,-86 844.722,-86 869.996,-86"/>
<polygon fill="midnightblue" stroke="midnightblue" points="870.254,-89.5001 880.254,-86 870.254,-82.5001 870.254,-89.5001"/>
</g>
</g>
</svg>
