<?xml version="1.0" encoding="UTF-8" standalone="no"?>
<!DOCTYPE svg PUBLIC "-//W3C//DTD SVG 1.1//EN"
 "http://www.w3.org/Graphics/SVG/1.1/DTD/svg11.dtd">
<!-- Generated by graphviz version 2.38.0 (20140413.2041)
 -->
<!-- Title: HeroStats::exportData Pages: 1 -->
<svg width="992pt" height="66pt"
 viewBox="0.00 0.00 992.00 66.00" xmlns="http://www.w3.org/2000/svg" xmlns:xlink="http://www.w3.org/1999/xlink">
<g id="graph0" class="graph" transform="scale(1 1) rotate(0) translate(4 62)">
<title>HeroStats::exportData</title>
<!-- Node1 -->
<g id="node1" class="node"><title>Node1</title>
<polygon fill="#bfbfbf" stroke="black" points="0,-19.5 0,-38.5 113,-38.5 113,-19.5 0,-19.5"/>
<text text-anchor="middle" x="56.5" y="-26.5" font-family="Helvetica,sans-Serif" font-size="10.00">HeroStats::exportData</text>
</g>
<!-- Node2 -->
<g id="node2" class="node"><title>Node2</title>
<g id="a_node2"><a xlink:href="class_c_hero.html#a1593ac4dfc01368e99b2b82a21c3c6ed" target="_top" xlink:title="CHero::exportData">
<polygon fill="none" stroke="black" points="149,-19.5 149,-38.5 246,-38.5 246,-19.5 149,-19.5"/>
<text text-anchor="middle" x="197.5" y="-26.5" font-family="Helvetica,sans-Serif" font-size="10.00">CHero::exportData</text>
</a>
</g>
</g>
<!-- Node1&#45;&gt;Node2 -->
<g id="edge1" class="edge"><title>Node1&#45;&gt;Node2</title>
<path fill="none" stroke="midnightblue" d="M123.276,-29C131.886,-29 140.572,-29 148.804,-29"/>
<polygon fill="midnightblue" stroke="midnightblue" points="123.236,-25.5001 113.236,-29 123.236,-32.5001 123.236,-25.5001"/>
</g>
<!-- Node3 -->
<g id="node3" class="node"><title>Node3</title>
<g id="a_node3"><a xlink:href="class_c_game.html#a7d821ce9a0454653bbfde69979155da9" target="_top" xlink:title="CGame::exportPlayerData">
<polygon fill="none" stroke="black" points="282,-19.5 282,-38.5 413,-38.5 413,-19.5 282,-19.5"/>
<text text-anchor="middle" x="347.5" y="-26.5" font-family="Helvetica,sans-Serif" font-size="10.00">CGame::exportPlayerData</text>
</a>
</g>
</g>
<!-- Node2&#45;&gt;Node3 -->
<g id="edge2" class="edge"><title>Node2&#45;&gt;Node3</title>
<path fill="none" stroke="midnightblue" d="M256.245,-29C264.673,-29 273.397,-29 281.95,-29"/>
<polygon fill="midnightblue" stroke="midnightblue" points="256.143,-25.5001 246.143,-29 256.143,-32.5001 256.143,-25.5001"/>
</g>
<!-- Node4 -->
<g id="node4" class="node"><title>Node4</title>
<g id="a_node4"><a xlink:href="class_c_game.html#a49656fe4404b3df63f2dbebd9b754edd" target="_top" xlink:title="CGame::saveGame">
<polygon fill="none" stroke="black" points="449,-19.5 449,-38.5 550,-38.5 550,-19.5 449,-19.5"/>
<text text-anchor="middle" x="499.5" y="-26.5" font-family="Helvetica,sans-Serif" font-size="10.00">CGame::saveGame</text>
</a>
</g>
</g>
<!-- Node3&#45;&gt;Node4 -->
<g id="edge3" class="edge"><title>Node3&#45;&gt;Node4</title>
<path fill="none" stroke="midnightblue" d="M423.495,-29C432.101,-29 440.707,-29 448.86,-29"/>
<polygon fill="midnightblue" stroke="midnightblue" points="423.42,-25.5001 413.42,-29 423.42,-32.5001 423.42,-25.5001"/>
</g>
<!-- Node5 -->
<g id="node5" class="node"><title>Node5</title>
<g id="a_node5"><a xlink:href="class_c_game.html#a714b291af5e20aae8be14a905fd0522d" target="_top" xlink:title="CGame::tickComponent">
<polygon fill="none" stroke="black" points="586,-19.5 586,-38.5 707,-38.5 707,-19.5 586,-19.5"/>
<text text-anchor="middle" x="646.5" y="-26.5" font-family="Helvetica,sans-Serif" font-size="10.00">CGame::tickComponent</text>
</a>
</g>
</g>
<!-- Node4&#45;&gt;Node5 -->
<g id="edge4" class="edge"><title>Node4&#45;&gt;Node5</title>
<path fill="none" stroke="midnightblue" d="M560.451,-29C568.81,-29 577.398,-29 585.753,-29"/>
<polygon fill="midnightblue" stroke="midnightblue" points="560.401,-25.5001 550.401,-29 560.401,-32.5001 560.401,-25.5001"/>
</g>
<!-- Node6 -->
<g id="node6" class="node"><title>Node6</title>
<g id="a_node6"><a xlink:href="class_c_game.html#aa9d3da2fefa1c04faefc6586dbd37971" target="_top" xlink:title="CGame::play">
<polygon fill="none" stroke="black" points="743,-0.5 743,-19.5 817,-19.5 817,-0.5 743,-0.5"/>
<text text-anchor="middle" x="780" y="-7.5" font-family="Helvetica,sans-Serif" font-size="10.00">CGame::play</text>
</a>
</g>
</g>
<!-- Node5&#45;&gt;Node6 -->
<g id="edge5" class="edge"><title>Node5&#45;&gt;Node6</title>
<path fill="none" stroke="midnightblue" d="M717.157,-18.9354C726.065,-17.6483 734.878,-16.3751 742.937,-15.2107"/>
<polygon fill="midnightblue" stroke="midnightblue" points="716.491,-15.4953 707.094,-20.3895 717.492,-22.4234 716.491,-15.4953"/>
</g>
<!-- Node7 -->
<g id="node7" class="node"><title>Node7</title>
<g id="a_node7"><a xlink:href="class_c_game.html#ac0a8028013ca5a7c135c29fa582df4a0" target="_top" xlink:title="CGame::checkHeroStatus">
<polygon fill="none" stroke="black" points="853,-38.5 853,-57.5 984,-57.5 984,-38.5 853,-38.5"/>
<text text-anchor="middle" x="918.5" y="-45.5" font-family="Helvetica,sans-Serif" font-size="10.00">CGame::checkHeroStatus</text>
</a>
</g>
</g>
<!-- Node6&#45;&gt;Node7 -->
<g id="edge6" class="edge"><title>Node6&#45;&gt;Node7</title>
<path fill="none" stroke="midnightblue" d="M825.249,-22.3183C844.003,-27.5393 865.528,-33.5316 883.066,-38.4141"/>
<polygon fill="midnightblue" stroke="midnightblue" points="826.017,-18.8992 815.445,-19.589 824.14,-25.6428 826.017,-18.8992"/>
</g>
<!-- Node8 -->
<g id="node8" class="node"><title>Node8</title>
<g id="a_node8"><a xlink:href="main_8cpp.html#ae66f6b31b5ad750f1fe042a706a4e3d4" target="_top" xlink:title="main">
<polygon fill="none" stroke="black" points="899.5,-0.5 899.5,-19.5 937.5,-19.5 937.5,-0.5 899.5,-0.5"/>
<text text-anchor="middle" x="918.5" y="-7.5" font-family="Helvetica,sans-Serif" font-size="10.00">main</text>
</a>
</g>
</g>
<!-- Node6&#45;&gt;Node8 -->
<g id="edge8" class="edge"><title>Node6&#45;&gt;Node8</title>
<path fill="none" stroke="midnightblue" d="M827.458,-10C852.045,-10 880.849,-10 899.132,-10"/>
<polygon fill="midnightblue" stroke="midnightblue" points="827.221,-6.5001 817.221,-10 827.221,-13.5001 827.221,-6.5001"/>
</g>
<!-- Node7&#45;&gt;Node5 -->
<g id="edge7" class="edge"><title>Node7&#45;&gt;Node5</title>
<path fill="none" stroke="midnightblue" d="M842.793,-42.7429C800.008,-39.7321 747.055,-36.0057 707.087,-33.1932"/>
<polygon fill="midnightblue" stroke="midnightblue" points="842.654,-46.2416 852.875,-43.4523 843.146,-39.2589 842.654,-46.2416"/>
</g>
</g>
</svg>
