<?xml version="1.0" encoding="UTF-8" standalone="no"?>
<!DOCTYPE svg PUBLIC "-//W3C//DTD SVG 1.1//EN"
 "http://www.w3.org/Graphics/SVG/1.1/DTD/svg11.dtd">
<!-- Generated by graphviz version 2.38.0 (20140413.2041)
 -->
<!-- Title: HeroStats::levelUp Pages: 1 -->
<svg width="340pt" height="28pt"
 viewBox="0.00 0.00 340.00 28.00" xmlns="http://www.w3.org/2000/svg" xmlns:xlink="http://www.w3.org/1999/xlink">
<g id="graph0" class="graph" transform="scale(1 1) rotate(0) translate(4 24)">
<title>HeroStats::levelUp</title>
<!-- Node10 -->
<g id="node1" class="node"><title>Node10</title>
<polygon fill="#bfbfbf" stroke="black" points="0,-0.5 0,-19.5 97,-19.5 97,-0.5 0,-0.5"/>
<text text-anchor="middle" x="48.5" y="-7.5" font-family="Helvetica,sans-Serif" font-size="10.00">HeroStats::levelUp</text>
</g>
<!-- Node11 -->
<g id="node2" class="node"><title>Node11</title>
<g id="a_node2"><a xlink:href="class_c_hero.html#aa184a6841da51966480c2172c2f80134" target="_top" xlink:title="CHero::addXP">
<polygon fill="none" stroke="black" points="133,-0.5 133,-19.5 210,-19.5 210,-0.5 133,-0.5"/>
<text text-anchor="middle" x="171.5" y="-7.5" font-family="Helvetica,sans-Serif" font-size="10.00">CHero::addXP</text>
</a>
</g>
</g>
<!-- Node10&#45;&gt;Node11 -->
<g id="edge1" class="edge"><title>Node10&#45;&gt;Node11</title>
<path fill="none" stroke="midnightblue" d="M107.36,-10C115.975,-10 124.661,-10 132.718,-10"/>
<polygon fill="midnightblue" stroke="midnightblue" points="107.322,-6.5001 97.3224,-10 107.322,-13.5001 107.322,-6.5001"/>
</g>
<!-- Node12 -->
<g id="node3" class="node"><title>Node12</title>
<g id="a_node3"><a xlink:href="class_c_fight.html#ac820b62e70990ddc90ecb959f4497f8f" target="_top" xlink:title="CFight::execute">
<polygon fill="none" stroke="black" points="246,-0.5 246,-19.5 332,-19.5 332,-0.5 246,-0.5"/>
<text text-anchor="middle" x="289" y="-7.5" font-family="Helvetica,sans-Serif" font-size="10.00">CFight::execute</text>
</a>
</g>
</g>
<!-- Node11&#45;&gt;Node12 -->
<g id="edge2" class="edge"><title>Node11&#45;&gt;Node12</title>
<path fill="none" stroke="midnightblue" d="M220.374,-10C228.775,-10 237.463,-10 245.699,-10"/>
<polygon fill="midnightblue" stroke="midnightblue" points="220.319,-6.5001 210.319,-10 220.319,-13.5001 220.319,-6.5001"/>
</g>
</g>
</svg>
