<?xml version="1.0" encoding="UTF-8" standalone="no"?>
<!DOCTYPE svg PUBLIC "-//W3C//DTD SVG 1.1//EN"
 "http://www.w3.org/Graphics/SVG/1.1/DTD/svg11.dtd">
<!-- Generated by graphviz version 2.38.0 (20140413.2041)
 -->
<!-- Title: HeroStats Pages: 1 -->
<svg width="120pt" height="259pt"
 viewBox="0.00 0.00 119.50 259.00" xmlns="http://www.w3.org/2000/svg" xmlns:xlink="http://www.w3.org/1999/xlink">
<g id="graph0" class="graph" transform="scale(1 1) rotate(0) translate(4 255)">
<title>HeroStats</title>
<!-- Node1 -->
<g id="node1" class="node"><title>Node1</title>
<polygon fill="#bfbfbf" stroke="black" points="13,-0.5 13,-68.5 92,-68.5 92,-0.5 13,-0.5"/>
<text text-anchor="middle" x="52.5" y="-56.5" font-family="Helvetica,sans-Serif" font-size="10.00">HeroStats</text>
<polyline fill="none" stroke="black" points="13,-49.5 92,-49.5 "/>
<text text-anchor="middle" x="52.5" y="-37.5" font-family="Helvetica,sans-Serif" font-size="10.00"> </text>
<polyline fill="none" stroke="black" points="13,-30.5 92,-30.5 "/>
<text text-anchor="start" x="21" y="-18.5" font-family="Helvetica,sans-Serif" font-size="10.00">+ exportData()</text>
<text text-anchor="start" x="21" y="-7.5" font-family="Helvetica,sans-Serif" font-size="10.00">+ levelUp()</text>
</g>
<!-- Node2 -->
<g id="node2" class="node"><title>Node2</title>
<polygon fill="none" stroke="#bfbfbf" points="0,-193.5 0,-250.5 29,-250.5 29,-193.5 0,-193.5"/>
<text text-anchor="middle" x="14.5" y="-238.5" font-family="Helvetica,sans-Serif" font-size="10.00">int</text>
<polyline fill="none" stroke="#bfbfbf" points="0,-231.5 29,-231.5 "/>
<text text-anchor="middle" x="14.5" y="-219.5" font-family="Helvetica,sans-Serif" font-size="10.00"> </text>
<polyline fill="none" stroke="#bfbfbf" points="0,-212.5 29,-212.5 "/>
<text text-anchor="middle" x="14.5" y="-200.5" font-family="Helvetica,sans-Serif" font-size="10.00"> </text>
</g>
<!-- Node2&#45;&gt;Node1 -->
<g id="edge1" class="edge"><title>Node2&#45;&gt;Node1</title>
<path fill="none" stroke="#404040" d="M9.91501,-193.272C6.43851,-165.614 3.99551,-122.278 15.5,-87 16.3459,-84.4062 17.3747,-81.832 18.5431,-79.2979"/>
<polygon fill="none" stroke="#404040" points="18.6815,-79.0438 18.0414,-71.8612 24.4254,-68.5077 25.0655,-75.6904 18.6815,-79.0438"/>
<text text-anchor="middle" x="42" y="-167" font-family="Helvetica,sans-Serif" font-size="10.00"> +mana</text>
<text text-anchor="middle" x="42" y="-156" font-family="Helvetica,sans-Serif" font-size="10.00">+xp</text>
<text text-anchor="middle" x="42" y="-145" font-family="Helvetica,sans-Serif" font-size="10.00">+attack</text>
<text text-anchor="middle" x="42" y="-134" font-family="Helvetica,sans-Serif" font-size="10.00">+level</text>
<text text-anchor="middle" x="42" y="-123" font-family="Helvetica,sans-Serif" font-size="10.00">+maxHealth</text>
<text text-anchor="middle" x="42" y="-112" font-family="Helvetica,sans-Serif" font-size="10.00">+armour</text>
<text text-anchor="middle" x="42" y="-101" font-family="Helvetica,sans-Serif" font-size="10.00">+health</text>
<text text-anchor="middle" x="42" y="-90" font-family="Helvetica,sans-Serif" font-size="10.00">+strength</text>
</g>
<!-- Node3 -->
<g id="node3" class="node"><title>Node3</title>
<polygon fill="none" stroke="#bfbfbf" points="70,-193.5 70,-250.5 111,-250.5 111,-193.5 70,-193.5"/>
<text text-anchor="middle" x="90.5" y="-238.5" font-family="Helvetica,sans-Serif" font-size="10.00">string</text>
<polyline fill="none" stroke="#bfbfbf" points="70,-231.5 111,-231.5 "/>
<text text-anchor="middle" x="90.5" y="-219.5" font-family="Helvetica,sans-Serif" font-size="10.00"> </text>
<polyline fill="none" stroke="#bfbfbf" points="70,-212.5 111,-212.5 "/>
<text text-anchor="middle" x="90.5" y="-200.5" font-family="Helvetica,sans-Serif" font-size="10.00"> </text>
</g>
<!-- Node3&#45;&gt;Node1 -->
<g id="edge2" class="edge"><title>Node3&#45;&gt;Node1</title>
<path fill="none" stroke="#404040" d="M87.0956,-193.319C83.4771,-166.068 77.0907,-123.366 68.5,-87 67.9673,-84.7448 67.388,-82.4444 66.7762,-80.1284"/>
<polygon fill="none" stroke="#404040" points="66.7701,-80.1067 61.2906,-75.4189 63.5103,-68.5579 68.9898,-73.2457 66.7701,-80.1067"/>
<text text-anchor="middle" x="97.5" y="-128.5" font-family="Helvetica,sans-Serif" font-size="10.00"> +race</text>
</g>
</g>
</svg>
